<svg width="66" height="70" viewBox="0 0 66 70" fill="none" xmlns="http://www.w3.org/2000/svg">
<path d="M0.154737 56.2963H0.105425C0.0670962 56.2829 0.0354252 56.2551 0.0170422 56.2188C-0.00134085 56.1824 -0.00501006 56.1403 0.00680456 56.1013C0.182098 55.5861 0.460306 55.1122 0.824378 54.7087C1.18845 54.3052 1.63072 53.9807 2.12407 53.755C3.01595 53.3163 4.03767 53.2237 4.99333 53.495C4.74631 52.4662 4.75018 51.3927 5.00462 50.3658C5.25905 49.3388 5.75654 48.3888 6.4548 47.5963C7.15307 46.8038 8.03147 46.1923 9.01539 45.8138C9.99931 45.4352 11.0597 45.3008 12.1064 45.422C11.8506 44.6512 12.3591 43.7443 13.0309 43.1283C13.8303 42.4112 14.7766 41.879 15.803 41.5691C16.8294 41.2593 17.911 41.1793 18.9716 41.3348C20.0321 41.4904 21.0457 41.8776 21.9411 42.4694C22.8364 43.0611 23.5917 43.8429 24.1535 44.7596C24.6307 44.2129 25.2473 43.8072 25.937 43.5864C26.6266 43.3656 27.3632 43.3379 28.0673 43.5064C28.7715 43.6748 29.4165 44.033 29.933 44.5424C30.4495 45.0518 30.8179 45.693 30.9984 46.3971C32.6078 46.2948 34.1923 46.8343 35.4081 47.8983C36.6239 48.9624 37.3727 50.4651 37.492 52.0803C37.8474 51.872 38.2408 51.7373 38.6489 51.6841C39.057 51.631 39.4716 51.6604 39.8682 51.7708C40.3192 51.8768 40.7399 52.0859 41.0974 52.3817C41.455 52.6775 41.7399 53.0521 41.93 53.4764C41.938 53.495 41.9422 53.5151 41.9423 53.5354C41.9425 53.5558 41.9385 53.5759 41.9308 53.5947C41.923 53.6135 41.9116 53.6305 41.8971 53.6447C41.8827 53.6589 41.8656 53.6701 41.8467 53.6776C41.8091 53.693 41.767 53.6929 41.7295 53.6772C41.692 53.6615 41.6621 53.6317 41.6464 53.594C41.4651 53.2206 41.2053 52.8911 40.885 52.6283C40.5646 52.3655 40.1913 52.1756 39.7909 52.0717C39.3904 51.9679 38.9722 51.9525 38.5652 52.0266C38.1582 52.1008 37.7721 52.2627 37.4335 52.5013C37.4106 52.5194 37.383 52.5305 37.3541 52.5333C37.3251 52.536 37.2959 52.5303 37.2701 52.5168C37.2439 52.5035 37.222 52.4831 37.2067 52.458C37.1915 52.4328 37.1836 52.4039 37.1838 52.3744C37.1662 51.5804 36.9865 50.7984 36.6559 50.077C36.3253 49.3555 35.8508 48.7099 35.2617 48.1801C34.6727 47.6502 33.9816 47.2474 33.2313 46.9967C32.4811 46.7459 31.6875 46.6524 30.8998 46.7221C30.8617 46.7268 30.8231 46.7171 30.7918 46.6947C30.7604 46.6724 30.7385 46.6391 30.7303 46.6014C30.5813 45.9184 30.2418 45.2922 29.7516 44.7959C29.2613 44.2995 28.6406 43.9536 27.9619 43.7984C27.2832 43.6432 26.5745 43.6853 25.9187 43.9196C25.2628 44.1539 24.687 44.5709 24.2583 45.1217C24.2431 45.1421 24.2229 45.1583 24.1997 45.1686C24.1765 45.1789 24.1511 45.183 24.1258 45.1806C24.1005 45.1788 24.076 45.1709 24.0545 45.1574C24.033 45.1439 24.0151 45.1253 24.0025 45.1032C23.4814 44.1939 22.7649 43.4128 21.9052 42.8168C21.0455 42.2208 20.0643 41.8249 19.033 41.658C18.0017 41.491 16.9464 41.5572 15.9438 41.8517C14.9412 42.1462 14.0166 42.6616 13.2374 43.3604C12.5687 43.9609 12.0755 44.8679 12.4885 45.5272C12.5045 45.5522 12.5129 45.5812 12.5129 45.6108C12.5129 45.6405 12.5045 45.6695 12.4885 45.6944C12.4714 45.7187 12.448 45.7379 12.4209 45.7499C12.3937 45.7619 12.3638 45.7663 12.3344 45.7625C11.2971 45.596 10.2346 45.6953 9.24571 46.0513C8.25677 46.4072 7.37336 47.0083 6.67742 47.7987C5.98148 48.5891 5.49555 49.5432 5.26472 50.5725C5.03389 51.6019 5.06563 52.6731 5.35699 53.6869C5.36559 53.7146 5.36609 53.7442 5.35845 53.7722C5.3508 53.8001 5.33532 53.8253 5.31385 53.8447C5.2922 53.8636 5.26583 53.8762 5.23758 53.8811C5.20934 53.886 5.18029 53.8831 5.15359 53.8726C4.20291 53.5417 3.16101 53.5982 2.2513 54.0299C1.34159 54.4616 0.636513 55.2341 0.287259 56.1818C0.280152 56.2126 0.263474 56.2403 0.239645 56.2608C0.215817 56.2814 0.186076 56.2939 0.154737 56.2963Z" fill="#D1D3D4"/>
<path d="M39.7049 70.0001C53.7675 70.0001 65.1676 69.2558 65.1676 68.3378C65.1676 67.4198 53.7675 66.6755 39.7049 66.6755C25.6422 66.6755 14.2422 67.4198 14.2422 68.3378C14.2422 69.2558 25.6422 70.0001 39.7049 70.0001Z" fill="#E6E7E8"/>
<path d="M35.6766 42.8156C35.6766 43.0106 33.4761 44.5552 30.8935 48.7805C29.1031 48.1922 27.2686 47.7491 25.4077 47.4556C23.0638 47.0828 20.6834 46.9986 18.3193 47.2049L17.5889 50.0063C17.5889 50.0063 31.0784 54.8105 32.9984 54.1047C34.9184 53.3989 40.9559 45.8058 40.9559 45.8058" fill="white"/>
<path d="M32.4657 54.3215C29.3006 54.3215 18.0578 50.3314 17.5462 50.1488C17.5092 50.1373 17.4782 50.1118 17.4598 50.0777C17.4414 50.0435 17.437 50.0035 17.4475 49.9661L18.1749 47.1617C18.1835 47.1317 18.2007 47.105 18.2242 47.0846C18.2477 47.0643 18.2766 47.0513 18.3074 47.0471C20.6841 46.8442 23.0764 46.9294 25.4328 47.301C27.2605 47.5933 29.0635 48.0248 30.8261 48.5918C32.0283 46.5915 33.4884 44.7597 35.1685 43.1438C35.2939 43.0283 35.4132 42.9064 35.526 42.7785C35.5338 42.7458 35.5517 42.7165 35.5772 42.6948C35.6027 42.6731 35.6344 42.6601 35.6678 42.6578C35.688 42.6565 35.7083 42.6593 35.7275 42.6659C35.7467 42.6726 35.7643 42.6829 35.7795 42.6964C35.7947 42.71 35.8071 42.7264 35.8159 42.7447C35.8248 42.763 35.8299 42.7829 35.8311 42.8033C35.8311 42.924 35.751 43.0106 35.3842 43.3666C33.6928 44.9931 32.2261 46.84 31.0233 48.858C31.0053 48.8884 30.9773 48.9116 30.9441 48.9235C30.9109 48.9353 30.8746 48.9352 30.8415 48.923C29.061 48.339 27.2369 47.899 25.3865 47.6074C23.0912 47.2481 20.7619 47.1598 18.4461 47.3443L17.7804 49.9042C22.4649 51.5696 31.4856 54.4917 32.9434 53.9593C34.7925 53.2752 40.7683 45.7873 40.8269 45.713C40.8529 45.6809 40.8903 45.6603 40.9312 45.6557C40.9722 45.6511 41.0133 45.6627 41.0457 45.6882C41.0615 45.7008 41.0747 45.7165 41.0844 45.7343C41.0941 45.7522 41.1001 45.7718 41.1021 45.792C41.1041 45.8122 41.1021 45.8326 41.0961 45.852C41.0901 45.8714 41.0803 45.8894 41.0673 45.9049C40.8207 46.2144 34.9774 53.5383 33.0543 54.2626C32.8626 54.3145 32.6638 54.3344 32.4657 54.3215Z" fill="#231F20"/>
<path d="M37.988 36.7425L33.4761 44.5523L40.3518 48.9169L44.8606 43.0356L37.988 36.7425Z" fill="#231F20"/>
<path d="M40.3399 49.0716C40.3114 49.0709 40.2837 49.0623 40.2598 49.0468L33.3933 44.6729C33.3608 44.6508 33.3376 44.6172 33.3285 44.5788C33.3194 44.5405 33.3249 44.5 33.344 44.4655L37.8559 36.6557C37.868 36.6366 37.8837 36.6202 37.9023 36.6074C37.9208 36.5947 37.9417 36.5858 37.9638 36.5814C37.9869 36.5786 38.0104 36.5807 38.0327 36.5877C38.055 36.5946 38.0757 36.6062 38.0932 36.6216L44.9628 42.9209C44.9912 42.947 45.0086 42.983 45.0114 43.0215C45.0143 43.0601 45.0024 43.0982 44.9782 43.1283L40.4724 49.0097C40.457 49.03 40.4369 49.0462 40.4138 49.057C40.3907 49.0678 40.3653 49.0728 40.3399 49.0716ZM33.683 44.5027L40.3183 48.697L44.6546 43.0509L38.0254 36.9869L33.683 44.5027Z" fill="#231F20"/>
<path d="M44.3125 46.4497C44.3125 46.4497 49.3976 50.6904 50.7075 51.6191C50.7075 51.6191 50.3099 55.1789 51.7954 58.0081C53.2808 60.8374 57.5061 65.9046 57.5061 65.9046L60.1103 65.397C60.1103 65.397 55.9775 52.3063 55.0714 49.7247C54.1654 47.143 50.0017 40.8933 50.0017 40.8933L44.3125 46.4497Z" fill="white"/>
<path d="M57.5061 66.0595C57.484 66.0593 57.4622 66.0545 57.4421 66.0455C57.4219 66.0364 57.4038 66.0233 57.389 66.0069C57.3458 65.9543 53.1359 60.8963 51.6597 58.0825C50.2821 55.4576 50.4917 52.2816 50.5441 51.6935C49.1387 50.6751 44.2631 46.6107 44.2138 46.5705C44.1969 46.5566 44.1831 46.5391 44.1735 46.5194C44.164 46.4996 44.1588 46.478 44.1584 46.456C44.1574 46.4342 44.161 46.4125 44.169 46.3922C44.1769 46.3719 44.1891 46.3536 44.2046 46.3383L49.8938 40.782C49.9098 40.766 49.9292 40.7537 49.9505 40.7462C49.9719 40.7387 49.9946 40.7362 50.0171 40.7387C50.0393 40.7414 50.0607 40.7489 50.0799 40.7606C50.099 40.7724 50.1154 40.7881 50.128 40.8068C50.2975 41.0637 54.3132 47.0998 55.2162 49.6722C56.1192 52.2445 60.2151 65.2206 60.2551 65.3507C60.2641 65.3706 60.2687 65.3922 60.2687 65.4141C60.2687 65.436 60.2641 65.4576 60.2551 65.4776C60.2309 65.5142 60.1933 65.5398 60.1504 65.5488L57.5492 66.0595H57.5061ZM44.5436 46.4405C45.3511 47.1122 49.6226 50.6627 50.7968 51.4923C50.8184 51.5094 50.8354 51.5316 50.8462 51.5571C50.857 51.5825 50.8612 51.6103 50.8584 51.6378C50.8584 51.6718 50.4855 55.1821 51.934 57.937C53.2993 60.5434 57.053 65.1154 57.5677 65.7376L59.91 65.2795C59.4261 63.7503 55.7679 52.1671 54.9265 49.7743C54.1129 47.4651 50.6119 42.113 49.9739 41.1349L44.5436 46.4405Z" fill="#231F20"/>
<path d="M35.6798 32.4336C35.6798 32.4336 35.159 37.2656 35.8925 39.7915C36.626 42.3174 44.565 48.4928 44.565 48.4928L50.0014 40.8935L46.747 34.5695L35.6798 32.4336Z" fill="#231F20"/>
<path d="M44.565 48.6474C44.5303 48.647 44.4967 48.635 44.4695 48.6134C44.1459 48.3626 36.4843 42.3822 35.7446 39.8346C35.005 37.2871 35.5073 32.6129 35.5289 32.4055C35.5306 32.3844 35.5366 32.3638 35.5467 32.3451C35.5568 32.3265 35.5707 32.3101 35.5874 32.2972C35.6053 32.2849 35.6254 32.2764 35.6466 32.2722C35.6678 32.2679 35.6896 32.268 35.7107 32.2724L46.7778 34.4083C46.8001 34.4131 46.8211 34.4228 46.8392 34.4367C46.8574 34.4506 46.8722 34.4684 46.8826 34.4888L50.1371 40.8128C50.1522 40.8369 50.1601 40.8648 50.1601 40.8933C50.1601 40.9218 50.1522 40.9496 50.1371 40.9738L44.7006 48.5731C44.6886 48.5897 44.6734 48.6037 44.656 48.6143C44.6385 48.625 44.6191 48.632 44.5989 48.635L44.565 48.6474ZM35.8155 32.616C35.7354 33.4859 35.3994 37.5409 36.0405 39.7356C36.7031 42.0169 43.5203 47.4588 44.5342 48.2605L49.8197 40.8685L46.6453 34.6962L35.8155 32.616Z" fill="#231F20"/>
<path d="M18.3258 47.202L14.7231 46.6572C14.7231 46.6572 12.8523 54.3711 13.1236 55.1016C13.5581 56.2841 17.5954 50.0034 17.5954 50.0034L18.3258 47.202Z" fill="#231F20"/>
<path d="M13.2867 55.402H13.2682C13.2015 55.394 13.1385 55.3666 13.0871 55.3231C13.0356 55.2797 12.9979 55.2221 12.9785 55.1574C12.7012 54.4021 14.3839 47.4188 14.575 46.6202C14.5838 46.5826 14.6066 46.5498 14.6387 46.5285C14.6707 46.5073 14.7097 46.4991 14.7476 46.5056L18.3472 47.0504C18.3683 47.0533 18.3885 47.0605 18.4065 47.0717C18.4246 47.0829 18.4401 47.0978 18.452 47.1154C18.4637 47.1336 18.4716 47.1539 18.4753 47.1751C18.479 47.1964 18.4784 47.2182 18.4736 47.2392L17.7432 50.0437C17.7402 50.0594 17.7339 50.0742 17.7247 50.0871C14.5164 55.0769 13.4994 55.402 13.2867 55.402ZM14.8277 46.8306C14.1096 49.8054 13.071 54.5693 13.2528 55.0491C13.2713 55.0924 13.2837 55.0955 13.2898 55.0955C13.7644 55.1543 15.78 52.5201 17.4411 49.9416L18.1222 47.329L14.8277 46.8306Z" fill="#231F20"/>
<path d="M57.3797 65.7561C57.3797 65.7561 57.1578 68.0406 57.7804 68.2944C58.4029 68.5482 65.9474 67.6753 65.6886 67.1243C65.4297 66.5733 59.8884 64.8894 59.8884 64.8894L57.3797 65.7561Z" fill="#231F20"/>
<path d="M58.3196 68.4894C58.1189 68.5011 57.9175 68.4834 57.7217 68.4368C57.0283 68.1551 57.1886 66.14 57.2286 65.7407C57.2316 65.7115 57.2428 65.6839 57.2608 65.6609C57.2788 65.6379 57.3029 65.6204 57.3304 65.6107L59.839 64.7439C59.8691 64.7346 59.9014 64.7346 59.9315 64.7439C61.2475 65.1463 65.559 66.5021 65.8272 67.0624C65.8466 67.1061 65.8522 67.1547 65.8434 67.2017C65.8346 67.2487 65.8117 67.2919 65.7779 67.3255C65.3032 67.8239 60.1595 68.4894 58.3196 68.4894ZM57.5245 65.8676C57.4475 66.7653 57.4937 68.0096 57.8327 68.1489C58.0515 68.2387 59.6818 68.1489 61.759 67.892C64.1352 67.5825 65.257 67.2946 65.5066 67.146C65.1091 66.79 62.4247 65.8242 59.8883 65.0504L57.5245 65.8676Z" fill="#231F20"/>
<path d="M20.2058 51.0404H20.1657C20.1266 51.0295 20.0934 51.0036 20.0732 50.9683C20.053 50.9329 20.0475 50.891 20.0579 50.8516L21.0564 47.0658C21.0672 47.0266 21.093 46.9931 21.1282 46.9729C21.1634 46.9526 21.2052 46.9471 21.2444 46.9575C21.2637 46.9625 21.2817 46.9713 21.2976 46.9834C21.3134 46.9955 21.3268 47.0106 21.3368 47.0278C21.3468 47.0451 21.3533 47.0642 21.356 47.084C21.3586 47.1038 21.3574 47.1239 21.3523 47.1432L20.3537 50.9321C20.3439 50.9636 20.3242 50.9912 20.2975 51.0107C20.2709 51.0302 20.2388 51.0406 20.2058 51.0404Z" fill="#231F20"/>
<path d="M56.2701 64.1466C56.2412 64.1467 56.2129 64.1386 56.1884 64.1233C56.1638 64.1079 56.1441 64.086 56.1314 64.06C56.1141 64.0237 56.1115 63.9822 56.1241 63.944C56.1368 63.9059 56.1637 63.8742 56.1992 63.8557L59.1239 62.3667C59.1419 62.3572 59.1615 62.3514 59.1817 62.3497C59.2019 62.348 59.2223 62.3504 59.2416 62.3568C59.2608 62.3631 59.2786 62.3733 59.2939 62.3867C59.3092 62.4001 59.3216 62.4165 59.3304 62.4348C59.3487 62.4714 59.3518 62.5137 59.3391 62.5526C59.3264 62.5915 59.2989 62.6237 59.2626 62.6422L56.3379 64.1281C56.3172 64.1399 56.2939 64.1463 56.2701 64.1466Z" fill="#231F20"/>
<path d="M36.1698 7.01065C35.8926 7.03272 35.618 7.08144 35.35 7.15614C34.6474 7.35734 34.0217 7.77523 33.3283 8.00739C32.0493 8.44385 30.4498 8.00739 29.1523 7.89595C29.3711 8.40361 30.8535 10.1216 31.5562 9.82133C30.3758 10.3228 28.9335 9.58607 27.7686 10.1309C28.7209 12.0315 30.8011 13.2263 32.9153 13.3749C35.0295 13.5235 37.1375 12.7372 38.848 11.4805C39.4644 11.0347 40.2595 10.5704 40.3705 9.7718C40.4073 9.4213 40.3611 9.06703 40.2358 8.73783C40.1105 8.40863 39.9095 8.11381 39.6493 7.87738C38.8911 7.18709 37.8002 6.99517 36.7831 6.99517C36.5797 6.98589 36.3732 6.99208 36.1698 7.01065Z" fill="white"/>
<path d="M33.4393 13.5387C33.2606 13.5387 33.0818 13.5325 32.9031 13.5201C30.6317 13.356 28.5607 12.0498 27.6299 10.1894C27.6215 10.1704 27.6172 10.1498 27.6172 10.129C27.6172 10.1082 27.6215 10.0877 27.6299 10.0687C27.6366 10.0491 27.6472 10.031 27.6609 10.0156C27.6747 10.0002 27.6914 9.98771 27.7101 9.97889C28.3265 9.69101 29.0322 9.74983 29.7041 9.80555C30.0784 9.84886 30.4558 9.86025 30.832 9.8396C30.0845 9.36876 29.4616 8.72299 29.0168 7.95756C29.0038 7.9344 28.997 7.90828 28.997 7.88172C28.997 7.85515 29.0038 7.82904 29.0168 7.80588C29.0325 7.78407 29.0535 7.76666 29.0777 7.75528C29.102 7.7439 29.1288 7.73894 29.1555 7.74088C29.4637 7.77183 29.7965 7.81826 30.1386 7.86779C31.2173 8.02256 32.3329 8.17734 33.2698 7.86779C33.5791 7.75315 33.8816 7.62086 34.1759 7.47157C34.5385 7.28589 34.9158 7.13059 35.3039 7.00725C35.5809 6.92973 35.8647 6.87894 36.1514 6.85557C36.3425 6.85557 36.549 6.83081 36.7678 6.83081C38.0622 6.83081 39.0607 7.14036 39.7357 7.75945C40.0149 8.01251 40.2304 8.32855 40.3644 8.68157C40.4983 9.03459 40.5469 9.41451 40.5061 9.79007C40.3983 10.5485 39.7418 11.0283 39.1624 11.4276L38.919 11.6009C37.3411 12.8103 35.4235 13.4884 33.4393 13.5387ZM27.9844 10.1987C28.9089 11.8826 30.8197 13.0589 32.9154 13.2106C34.8478 13.3529 36.9219 12.6874 38.7433 11.3533L38.9898 11.1768C39.5446 10.7837 40.1178 10.3782 40.2226 9.74983C40.2547 9.42445 40.2107 9.09604 40.0941 8.79078C39.9774 8.48552 39.7914 8.21185 39.5508 7.99161C38.9344 7.43443 38.0098 7.14964 36.777 7.14964C36.5582 7.14964 36.3579 7.14964 36.1761 7.17441C35.9082 7.1952 35.643 7.24185 35.384 7.3137C35.014 7.43255 34.6542 7.58163 34.3084 7.75945C34.006 7.90671 33.6953 8.03591 33.3777 8.14638C32.373 8.48688 31.168 8.31663 30.1047 8.16495L29.4359 8.07209C29.8767 8.73452 31.0231 9.87365 31.4977 9.66935C31.5357 9.65334 31.5785 9.65315 31.6167 9.66882C31.6548 9.6845 31.6852 9.71475 31.7011 9.75293C31.7171 9.7911 31.7173 9.83407 31.7017 9.87238C31.6861 9.9107 31.6559 9.94122 31.6179 9.95722C31.0015 10.2172 30.3266 10.1615 29.6732 10.1058C29.11 10.0179 28.5347 10.0495 27.9844 10.1987Z" fill="#231F20"/>
<path d="M41.2645 9.36301C41.2645 8.56748 40.5957 7.78433 40.1796 7.15286C40.0754 6.97576 39.9408 6.81857 39.7821 6.68854C39.7013 6.6256 39.6051 6.58576 39.5037 6.57323C39.4022 6.5607 39.2993 6.57594 39.2058 6.61734C39.061 6.70884 38.9522 6.8477 38.8976 7.01047C38.7202 7.43723 38.6554 7.90272 38.7094 8.36198C38.7634 8.82124 38.9343 9.25877 39.2058 9.63232C39.5139 10.1059 40.1118 10.5083 40.645 10.304C40.8281 10.2246 40.9843 10.0933 41.0943 9.92619C41.2043 9.75907 41.2634 9.56336 41.2645 9.36301Z" fill="#231F20"/>
<path d="M40.3584 10.5113C40.1032 10.4849 39.8575 10.3996 39.6405 10.2621C39.4235 10.1247 39.241 9.93878 39.1072 9.7189C38.8205 9.32483 38.6393 8.86342 38.581 8.37888C38.5228 7.89433 38.5893 7.40287 38.7743 6.95156C38.8408 6.75887 38.9686 6.59353 39.138 6.48105C39.2571 6.42577 39.389 6.40434 39.5194 6.41907C39.6498 6.43381 39.7737 6.48415 39.8776 6.56463C40.0516 6.70388 40.1989 6.87381 40.3122 7.06609L40.5464 7.40969C40.9594 7.99473 41.4247 8.64787 41.4247 9.36293C41.4266 9.5921 41.3613 9.81676 41.2369 10.0089C41.1125 10.201 40.9345 10.3521 40.7252 10.4432C40.6086 10.4902 40.4839 10.5134 40.3584 10.5113ZM39.4153 6.7194C39.3681 6.72017 39.3217 6.73182 39.2797 6.75345C39.1729 6.82966 39.093 6.93809 39.0517 7.063C38.8848 7.46717 38.8255 7.90798 38.8795 8.34214C38.9336 8.7763 39.0991 9.18888 39.3599 9.53937C39.6465 9.95725 40.1642 10.3256 40.6173 10.1585C40.7685 10.0878 40.8962 9.9749 40.9853 9.8333C41.0744 9.69169 41.121 9.52733 41.1196 9.35983C41.1196 8.74074 40.682 8.12165 40.2968 7.58613C40.2136 7.46541 40.1303 7.35088 40.0564 7.23944C39.9645 7.07697 39.8433 6.93315 39.6989 6.81536C39.6167 6.75428 39.5175 6.72071 39.4153 6.7194Z" fill="#231F20"/>
<path d="M50.8769 17.563L54.0204 26.416C56.2661 25.1812 58.5944 24.1045 60.9886 23.1936C60.9886 23.1936 60.7359 21.4911 61.4971 20.7916C62.2583 20.092 62.8901 19.6896 62.9734 19.8908C63.0566 20.092 63.3586 20.6925 63.3586 20.6925C63.3586 20.6925 64.0828 19.6896 64.5081 19.8908C64.9334 20.092 65.3094 22.4631 65.3064 23.0946C65.3033 23.726 55.019 33.3405 52.8277 31.9414C50.6365 30.5422 47.4282 23.9334 47.4282 23.9334" fill="white"/>
<path d="M53.3763 32.2354C53.1534 32.2429 52.9331 32.186 52.7414 32.0714C50.5379 30.6629 47.4221 24.2739 47.2926 24.0015C47.2837 23.9832 47.2784 23.9634 47.2772 23.943C47.2759 23.9227 47.2786 23.9023 47.2852 23.883C47.2918 23.8638 47.3021 23.846 47.3155 23.8307C47.329 23.8155 47.3453 23.803 47.3635 23.7941C47.4004 23.7768 47.4426 23.7746 47.4811 23.7878C47.5196 23.8011 47.5515 23.8289 47.57 23.8653C47.6008 23.9303 50.7752 30.4463 52.9048 31.8083C53.213 31.9971 53.703 31.9568 54.4026 31.6906C58.0053 30.3163 64.9704 23.7105 65.1492 23.076C65.1492 22.3052 64.727 20.1662 64.4373 20.03C64.237 19.9372 63.7531 20.4077 63.4819 20.7822C63.4658 20.8036 63.4448 20.8207 63.4206 20.8321C63.3964 20.8434 63.3698 20.8486 63.3432 20.8472C63.3169 20.8449 63.2917 20.8356 63.2701 20.8204C63.2484 20.8052 63.2311 20.7846 63.2199 20.7606C63.2199 20.7389 62.9518 20.2312 62.8501 19.996C62.7052 20.0269 62.2799 20.2808 61.5988 20.9061C60.9177 21.5313 61.1366 23.1534 61.1396 23.1719C61.1441 23.2069 61.1368 23.2423 61.119 23.2726C61.1011 23.3028 61.0737 23.3263 61.041 23.3391C58.6552 24.2473 56.3351 25.3209 54.0975 26.5522C54.0766 26.5613 54.054 26.566 54.0312 26.566C54.0084 26.566 53.9859 26.5613 53.965 26.5522C53.9437 26.5445 53.9244 26.5321 53.9084 26.5161C53.8925 26.5 53.8802 26.4807 53.8725 26.4593L50.732 17.6125C50.7186 17.5735 50.721 17.5307 50.739 17.4936C50.7569 17.4564 50.7888 17.4279 50.8276 17.4144C50.8664 17.4008 50.909 17.4033 50.946 17.4213C50.983 17.4393 51.0113 17.4713 51.0248 17.5103L54.1067 26.1931C56.2771 25.0182 58.5202 23.9843 60.8222 23.0976C60.7791 22.6798 60.6958 21.3239 61.3924 20.6832C61.83 20.2839 62.6066 19.6245 62.9333 19.6988C62.9711 19.7053 63.0066 19.7216 63.0364 19.746C63.0661 19.7704 63.089 19.8022 63.1028 19.8381C63.1552 19.9527 63.2816 20.2189 63.3771 20.4077C63.6421 20.0981 64.1568 19.5657 64.5606 19.7576C65.1276 20.0269 65.4512 22.6612 65.4481 23.1007C65.4481 23.7198 59.3028 29.4402 55.6323 31.4585C54.6769 31.9816 53.928 32.2354 53.3763 32.2354Z" fill="#231F20"/>
<path d="M63.3675 20.5594C63.5499 20.9534 63.7124 21.3563 63.8544 21.7667C64.0044 22.161 64.0501 22.5876 63.987 23.0049C63.9007 23.4135 63.5863 23.7787 63.2319 23.7478C62.8251 23.7106 62.5662 23.2092 62.4614 22.7417" fill="white"/>
<path d="M63.2755 23.9116H63.2169C62.6005 23.8559 62.3694 23.0356 62.3108 22.7849C62.3018 22.7438 62.3094 22.7008 62.332 22.6654C62.3545 22.63 62.3901 22.6051 62.431 22.596C62.4719 22.587 62.5146 22.5946 62.5499 22.6173C62.5852 22.6399 62.61 22.6757 62.619 22.7167C62.7053 23.1068 62.9272 23.5742 63.2508 23.6021C63.5282 23.6268 63.7747 23.2925 63.8425 22.983C63.8981 22.5933 63.8535 22.1958 63.7131 21.8284C63.5731 21.4191 63.4126 21.0172 63.2323 20.6242C63.2241 20.6055 63.2197 20.5854 63.2194 20.565C63.219 20.5446 63.2226 20.5243 63.2301 20.5053C63.2375 20.4863 63.2486 20.469 63.2627 20.4544C63.2769 20.4397 63.2938 20.428 63.3124 20.4199C63.3501 20.4042 63.3924 20.4038 63.4303 20.4188C63.4683 20.4338 63.499 20.4631 63.5158 20.5004C63.6997 20.9046 63.8633 21.3179 64.0059 21.7386C64.1634 22.1569 64.2112 22.6089 64.1445 23.0511C64.0459 23.4813 63.7038 23.9116 63.2755 23.9116Z" fill="#231F20"/>
<path d="M53.0925 28.1369C53.0724 28.1357 53.0527 28.1305 53.0346 28.1216C53.0165 28.1126 53.0004 28.1002 52.9872 28.0849C52.9739 28.0696 52.9639 28.0518 52.9577 28.0326C52.9514 28.0133 52.949 27.993 52.9507 27.9728C53.0216 27.0442 53.8969 26.3291 53.9338 26.3013C53.9657 26.2801 54.0042 26.2716 54.0419 26.2773C54.0797 26.2831 54.114 26.3027 54.1381 26.3323C54.1623 26.362 54.1747 26.3996 54.1728 26.4379C54.1709 26.4762 54.155 26.5125 54.128 26.5396C54.128 26.5396 53.3175 27.2082 53.2589 27.9945C53.2574 28.0148 53.2518 28.0347 53.2426 28.0529C53.2334 28.0711 53.2207 28.0872 53.2052 28.1005C53.1897 28.1137 53.1718 28.1237 53.1525 28.13C53.1331 28.1362 53.1127 28.1386 53.0925 28.1369Z" fill="#231F20"/>
<path d="M47.9181 34.9005L34.9741 32.5913C34.9741 32.5913 36.2439 24.6514 36.2346 17.5628C36.2346 15.3434 42.6419 11.9631 45.1537 12.9196C47.6654 13.8761 50.3559 16.1946 51.1264 17.3523C51.4346 17.8259 52.0787 21.9955 50.5254 25.091C47.4466 31.2571 47.2463 32.4334 47.9181 34.9005Z" fill="#1E1E1E"/>
<path d="M43.3691 13.802C43.3691 13.802 44.5094 20.708 46.5188 20.0796C48.5283 19.4512 47.7855 15.7026 47.7855 15.7026L43.3691 13.802Z" fill="#231F20"/>
<path d="M46.2599 20.2745C46.0584 20.2712 45.8619 20.2111 45.6928 20.1012C44.1087 19.123 43.255 14.0433 43.2273 13.8267C43.2226 13.7993 43.2255 13.7712 43.2359 13.7455C43.2462 13.7198 43.2635 13.6975 43.2858 13.6812C43.3076 13.6647 43.3331 13.6541 43.3601 13.6503C43.3871 13.6465 43.4145 13.6497 43.4399 13.6595L47.8471 15.5756C47.8702 15.5859 47.8904 15.6017 47.906 15.6217C47.9216 15.6416 47.932 15.6651 47.9364 15.6901C47.9673 15.848 48.6792 19.578 46.565 20.2405C46.4655 20.2667 46.3627 20.2782 46.2599 20.2745ZM43.5725 14.0557C43.7759 15.1422 44.5895 19.058 45.8531 19.838C45.9422 19.8993 46.0439 19.9394 46.1507 19.9555C46.2574 19.9716 46.3664 19.9632 46.4694 19.9309C48.1676 19.3985 47.7361 16.3433 47.6467 15.8109L43.5725 14.0557Z" fill="#231F20"/>
<path d="M37.1127 18.7887C37.1127 18.7887 36.0957 25.2891 38.0096 25.2148C39.9234 25.1405 42.7557 17.2285 41.4459 15.526C40.1361 13.8235 36.8539 14.4798 37.1127 18.7887Z" fill="#231F20"/>
<path d="M37.9823 25.3696C37.8526 25.3713 37.7242 25.3445 37.606 25.291C37.4878 25.2375 37.3827 25.1587 37.2981 25.0601C36.2102 23.8219 36.9036 19.1787 36.9591 18.7948C36.8389 16.7085 37.5539 15.167 38.8699 14.6686C39.3424 14.4876 39.8604 14.4642 40.3472 14.6019C40.834 14.7396 41.2637 15.0311 41.5727 15.4332C42.4295 16.5444 41.6651 19.9959 40.4694 22.5527C39.9824 23.5897 39.0209 25.3386 38.0223 25.3665L37.9823 25.3696ZM39.6989 14.8141C39.4528 14.8148 39.2087 14.8588 38.9777 14.9441C37.7912 15.3929 37.1502 16.8292 37.2673 18.7794C37.269 18.7907 37.269 18.8021 37.2673 18.8134C37.2673 18.8629 36.5153 23.6919 37.5292 24.8434C37.5881 24.9135 37.6618 24.9696 37.745 25.0076C37.8281 25.0456 37.9187 25.0646 38.01 25.0631C38.611 25.0415 39.4246 24.0571 40.1889 22.4258C41.3292 19.9866 42.075 16.594 41.3261 15.6158C41.1344 15.3656 40.8879 15.1632 40.6057 15.0241C40.3235 14.8851 40.0132 14.8132 39.6989 14.8141Z" fill="#231F20"/>
<path d="M25.5251 23.0728C25.1953 24.1625 28.1632 32.5388 28.1632 32.5388C28.1632 32.5388 29.3158 36.826 29.8644 37.0303C30.413 37.2346 32.1111 37.3398 32.5457 37.3398C33.5535 37.3398 32.6289 35.6838 32.4994 35.6559C32.4994 35.6559 33.1682 35.9654 33.4764 35.464C33.7846 34.9625 33.5072 34.461 33.2422 33.7088C32.9771 32.9567 31.5656 32.8824 31.5656 32.8824C31.4454 31.3346 29.9445 24.311 29.9445 24.311C29.9445 24.311 38.8821 20.1848 39.9761 19.6059C41.0702 19.0271 42.4047 16.7736 39.9761 15.2506C37.5476 13.7277 25.8549 21.9863 25.5251 23.0728Z" fill="white"/>
<path d="M32.5454 37.5009C32.1602 37.5009 30.4127 37.4018 29.8117 37.1759C29.2108 36.9499 28.2893 33.6037 28.015 32.5791C27.7068 31.7279 25.044 24.1316 25.3769 23.0296C25.6573 22.101 32.6687 17.0492 36.971 15.4303C38.4534 14.8731 39.4951 14.7709 40.0529 15.1207C41.2857 15.8884 41.5045 16.7923 41.4829 17.4175C41.4473 17.8936 41.2975 18.354 41.0463 18.7593C40.7952 19.1647 40.4501 19.503 40.0406 19.7453C39.0205 20.2901 31.1955 23.9025 30.1138 24.3885C30.3141 25.3172 31.5253 31.0716 31.6979 32.7277C32.0769 32.7679 33.131 32.9413 33.3775 33.6563C33.4176 33.7709 33.4576 33.8823 33.4977 33.9875C33.7196 34.5819 33.8983 35.0555 33.5994 35.5353C33.5222 35.6604 33.4109 35.7607 33.2788 35.8244C33.1466 35.888 32.9991 35.9123 32.8536 35.8943C33.0491 36.221 33.1554 36.5936 33.1618 36.9747C33.1565 37.0495 33.1361 37.1225 33.1018 37.1892C33.0676 37.2559 33.0202 37.315 32.9626 37.3627C32.9049 37.4105 32.8382 37.446 32.7665 37.4671C32.6948 37.4882 32.6196 37.4944 32.5454 37.4854V37.5009ZM39.1869 15.2136C38.4615 15.2586 37.7489 15.4261 37.0789 15.7088C32.6471 17.3773 25.8916 22.3765 25.6758 23.107C25.4447 23.8685 27.1243 29.1277 28.3109 32.4739C28.8563 34.5014 29.6237 36.7487 29.9227 36.8725C30.4435 37.0675 32.1078 37.1821 32.5485 37.1821C32.755 37.1821 32.8104 37.1047 32.8351 37.0366C32.9614 36.6961 32.5546 35.916 32.4283 35.7984C32.3961 35.7812 32.371 35.7531 32.3574 35.7191C32.3439 35.6851 32.3428 35.6474 32.3543 35.6127C32.3669 35.5769 32.3919 35.5469 32.4247 35.5281C32.4576 35.5094 32.496 35.5031 32.5331 35.5105H32.5639C32.5885 35.5105 33.1155 35.7581 33.3467 35.3774C33.5778 34.9967 33.4299 34.6469 33.2234 34.0897C33.1833 33.9813 33.1402 33.8699 33.1001 33.7523C32.9091 33.2168 31.9228 33.0496 31.5592 33.031C31.523 33.0326 31.4875 33.0214 31.4587 32.9994C31.43 32.9773 31.4099 32.9458 31.402 32.9103C31.2849 31.3812 29.7994 24.4288 29.784 24.3607C29.7777 24.3263 29.7827 24.2908 29.7983 24.2595C29.8138 24.2282 29.8391 24.2029 29.8703 24.1873C29.9597 24.1471 38.8294 20.0549 39.8957 19.4853C40.257 19.2688 40.5615 18.9688 40.784 18.6102C41.0064 18.2516 41.1404 17.8448 41.1747 17.4237C41.1994 16.6437 40.7556 15.9441 39.8896 15.3993C39.6756 15.2778 39.4325 15.2178 39.1869 15.226V15.2136Z" fill="#231F20"/>
<path d="M43.1133 11.4123C42.7527 11.4203 42.393 11.3723 42.047 11.2699C40.6324 10.8427 39.828 9.31048 39.6092 7.84633C39.362 6.11218 39.6994 4.34481 40.5677 2.8255C41.4522 1.27777 42.6942 0.618432 44.4724 0.754632C45.7521 0.853887 47.0212 1.06098 48.2663 1.37372L47.5081 0.154114C48.2457 0.321855 48.9486 0.617234 49.5853 1.02703C50.2258 1.44798 50.6797 2.1012 50.852 2.85026C50.9084 3.17176 50.8887 3.50208 50.7945 3.81452C50.7003 4.12695 50.5342 4.41272 50.3096 4.64872C50.1616 4.81897 49.8411 4.93041 49.7425 5.05113C49.5761 5.24614 49.5576 5.64236 49.4713 5.90548C49.0676 7.17461 48.2385 8.21778 47.3633 9.18976C46.3462 10.332 44.7252 11.3844 43.1133 11.4123Z" fill="white"/>
<path d="M43.0516 11.5701C42.6969 11.5703 42.344 11.5192 42.0037 11.4184C40.4628 10.9479 39.6707 9.27637 39.4581 7.87103C39.2097 6.10182 39.5533 4.29984 40.435 2.74805C41.3596 1.1415 42.6448 0.460502 44.4877 0.599798C45.6502 0.690007 46.8041 0.86903 47.9395 1.13531L47.3817 0.23763C47.3642 0.211562 47.3548 0.180843 47.3548 0.149409C47.3548 0.117975 47.3642 0.0872565 47.3817 0.0611886C47.4002 0.0365965 47.4257 0.0181506 47.4548 0.00822151C47.4839 -0.00170755 47.5153 -0.00266594 47.545 0.00547019C48.3016 0.182335 49.022 0.489172 49.6746 0.91244C50.3475 1.35729 50.8234 2.04595 51.0029 2.83472C51.0645 3.17904 51.0444 3.53309 50.9443 3.86816C50.8441 4.20322 50.6668 4.50986 50.4266 4.76319C50.3176 4.87124 50.1929 4.96204 50.0567 5.0325C49.9854 5.06659 49.919 5.11034 49.8595 5.16251C49.7696 5.31382 49.7128 5.48267 49.6931 5.65778C49.6715 5.76612 49.6469 5.87446 49.6191 5.96732C49.1969 7.28599 48.3401 8.35083 47.4772 9.30733C46.5033 10.3784 44.8545 11.5515 43.1132 11.567H43.0454L43.0516 11.5701ZM44.0409 0.887676C42.5554 0.887676 41.4891 1.53153 40.7093 2.89663C39.8549 4.39161 39.5219 6.13032 39.7632 7.83698C39.9604 9.14946 40.6878 10.7065 42.0931 11.1336C42.4252 11.2312 42.7703 11.2772 43.1163 11.2698C44.7528 11.242 46.3246 10.1369 47.2553 9.10303C48.0936 8.17439 48.9288 7.13741 49.3325 5.87446C49.3572 5.79088 49.3756 5.69492 49.3972 5.59897C49.4248 5.37675 49.5052 5.16444 49.6314 4.97987C49.713 4.89967 49.8066 4.83282 49.9088 4.78176C50.0158 4.72827 50.1144 4.65945 50.2016 4.57746C50.4154 4.35702 50.5731 4.08794 50.6611 3.79312C50.7491 3.49831 50.7648 3.1865 50.707 2.88425C50.5426 2.17539 50.112 1.55769 49.5051 1.16008C48.9977 0.822884 48.4401 0.568974 47.8532 0.40788L48.3987 1.28699C48.4147 1.31303 48.4228 1.34327 48.4217 1.37388C48.4207 1.40449 48.4106 1.4341 48.3928 1.45896C48.3749 1.48382 48.3502 1.50281 48.3216 1.51352C48.293 1.52424 48.2619 1.5262 48.2323 1.51915C46.9952 1.20765 45.7345 1.00057 44.4631 0.900058C44.3182 0.896962 44.1734 0.893867 44.0378 0.893867L44.0409 0.887676Z" fill="#231F20"/>
<path d="M50.1401 7.56781C50.1401 7.56781 51.3575 9.58295 51.0647 9.98227C50.7719 10.3816 49.9028 10.0751 49.9028 10.0751" fill="white"/>
<path d="M50.547 10.3413C50.3142 10.3356 50.0836 10.295 49.8628 10.2206C49.8243 10.2066 49.7928 10.178 49.775 10.141C49.7572 10.104 49.7544 10.0615 49.7673 10.0225C49.7806 9.98408 49.8084 9.95247 49.8448 9.93452C49.8811 9.91656 49.923 9.91369 49.9614 9.92653C50.1618 9.99463 50.772 10.137 50.9507 9.89248C51.0678 9.72223 50.6425 8.67596 50.0077 7.64827C49.987 7.61282 49.9809 7.57068 49.9907 7.5308C50.0005 7.49092 50.0254 7.45645 50.0601 7.43468C50.0954 7.41395 50.1373 7.40784 50.177 7.41767C50.2167 7.42749 50.251 7.45247 50.2727 7.48731C50.6549 8.12187 51.5055 9.63865 51.1973 10.072C51.118 10.1655 51.0176 10.2387 50.9045 10.2856C50.7914 10.3324 50.6689 10.3515 50.547 10.3413Z" fill="#231F20"/>
<path d="M49.9644 4.96127C50.7595 5.66703 50.4668 7.08475 50.4236 8.01339C50.3651 9.31658 50.2757 10.6229 50.1555 11.923C50.0784 12.7463 47.9458 12.6844 47.5759 12.4213L47.7855 15.7025C47.7855 15.7025 46.75 15.9471 45.0611 15.0834C43.3722 14.2198 43.3691 13.8081 43.3691 13.8081L43.6558 10.0409C43.6558 10.0409 45.0673 10.1059 45.9641 8.44985C46.8609 6.79378 46.9257 4.20288 46.9257 4.20288C46.9257 4.20288 49.1847 4.27098 49.9644 4.96127Z" fill="white"/>
<path d="M47.4006 15.8852C46.5555 15.854 45.7297 15.6228 44.9905 15.2104C43.3448 14.3653 43.2153 13.9134 43.2153 13.7958L43.5019 10.0162C43.5031 9.99626 43.5082 9.97676 43.5169 9.95881C43.5256 9.94086 43.5378 9.9248 43.5526 9.91157C43.5675 9.89834 43.5849 9.8882 43.6037 9.88172C43.6225 9.87523 43.6424 9.87255 43.6622 9.8738C43.7177 9.8738 44.9905 9.90785 45.8195 8.36322C46.6886 6.76287 46.7626 4.21221 46.7626 4.18744C46.7646 4.14632 46.7823 4.10755 46.8119 4.0791C46.8423 4.05141 46.8818 4.03598 46.9229 4.03577C47.0184 4.03577 49.2466 4.11934 50.0572 4.83749C50.7783 5.47516 50.6735 6.605 50.6057 7.51197C50.5903 7.68841 50.5749 7.85866 50.5688 8.01343C50.5102 9.31352 50.4177 10.6322 50.2975 11.9292C50.2824 12.0692 50.2276 12.202 50.1397 12.3117C50.0518 12.4214 49.9343 12.5035 49.8014 12.5483C49.1389 12.7872 48.4216 12.8281 47.7365 12.6659L47.9306 15.7026C47.933 15.7394 47.9222 15.7758 47.9001 15.8053C47.8781 15.8348 47.8463 15.8555 47.8105 15.8635C47.6749 15.8851 47.5376 15.8923 47.4006 15.8852ZM43.5266 13.7865C43.5513 13.8453 43.7516 14.226 45.1323 14.9349C46.4113 15.5911 47.2896 15.5911 47.6225 15.554L47.4283 12.4307C47.4258 12.4015 47.4318 12.3723 47.4454 12.3465C47.4591 12.3207 47.4799 12.2994 47.5053 12.2852C47.53 12.2701 47.5582 12.2622 47.587 12.2622C47.6158 12.2622 47.6441 12.2701 47.6687 12.2852C47.8721 12.4276 49.0525 12.539 49.6843 12.248C49.8846 12.1552 49.9924 12.0375 49.9924 11.8982C50.1096 10.6043 50.202 9.29186 50.2606 7.99486C50.2606 7.83699 50.2821 7.66365 50.2975 7.48411C50.3684 6.64524 50.4578 5.60207 49.8538 5.06655C49.2497 4.53104 47.5793 4.38246 47.0646 4.3515C47.0369 4.94583 46.8797 7.06003 46.0908 8.5087C45.3018 9.95738 44.1954 10.1431 43.7916 10.1741L43.5266 13.7865Z" fill="#231F20"/>
<path d="M50.1616 10.9479C50.1616 10.9479 49.1291 11.5329 48.6206 10.465L50.1616 10.9479Z" fill="white"/>
<path d="M49.539 11.2606C49.4241 11.262 49.3097 11.2453 49.2 11.2111C49.0409 11.1545 48.8956 11.0645 48.7739 10.9471C48.6522 10.8296 48.5569 10.6875 48.4942 10.5301C48.4828 10.5115 48.4754 10.4907 48.4725 10.469C48.4697 10.4474 48.4714 10.4253 48.4776 10.4044C48.4839 10.3835 48.4944 10.3641 48.5087 10.3476C48.5229 10.331 48.5404 10.3177 48.5601 10.3085C48.5798 10.2992 48.6013 10.2943 48.623 10.294C48.6448 10.2936 48.6663 10.2979 48.6863 10.3066C48.7063 10.3153 48.7242 10.3281 48.7389 10.3442C48.7536 10.3603 48.7647 10.3793 48.7716 10.4001C48.8168 10.5181 48.8867 10.6251 48.9765 10.7137C49.0664 10.8023 49.1741 10.8706 49.2924 10.9139C49.5599 10.9804 49.8424 10.944 50.0845 10.8118C50.12 10.7917 50.1621 10.7866 50.2014 10.7977C50.2406 10.8087 50.274 10.8349 50.294 10.8706C50.3141 10.9068 50.3193 10.9495 50.3083 10.9894C50.2974 11.0294 50.2712 11.0634 50.2355 11.0842C50.0201 11.1965 49.7816 11.2569 49.539 11.2606Z" fill="#231F20"/>
<path d="M47.4063 7.55537C47.3821 7.22727 47.268 6.91229 47.0766 6.64531C46.9587 6.4172 46.807 6.20845 46.6266 6.02621C46.5364 5.93732 46.4277 5.86957 46.3084 5.82783C46.189 5.78609 46.0619 5.77138 45.9363 5.78477C45.8262 5.80832 45.7224 5.85496 45.6316 5.92165C45.5408 5.98833 45.465 6.07354 45.4093 6.1717C45.3009 6.36899 45.2367 6.58767 45.2213 6.81246C45.1824 7.30284 45.272 7.79491 45.4812 8.2397C45.6905 8.68448 46.0121 9.06647 46.414 9.34764L46.3462 9.26716" fill="white"/>
<path d="M46.4142 9.50858C46.3832 9.50839 46.3531 9.49867 46.3279 9.48072C45.9031 9.18417 45.5634 8.78074 45.3427 8.31081C45.122 7.84089 45.0281 7.32098 45.0704 6.80315C45.086 6.55497 45.1577 6.31361 45.28 6.09739C45.3441 5.98118 45.4324 5.88015 45.5387 5.80112C45.645 5.72208 45.767 5.66689 45.8964 5.63926C46.0456 5.62047 46.1971 5.63577 46.3396 5.68401C46.482 5.73225 46.6118 5.81218 46.7193 5.91785C46.9094 6.10865 47.0704 6.32666 47.197 6.5648C47.4041 6.85657 47.5258 7.20078 47.5483 7.55844C47.546 7.59897 47.5285 7.63713 47.4993 7.66525C47.4702 7.69338 47.4315 7.70941 47.3911 7.71012C47.3709 7.70972 47.3509 7.70532 47.3324 7.69716C47.3138 7.68901 47.2971 7.67727 47.283 7.66261C47.269 7.64795 47.258 7.63066 47.2506 7.61172C47.2433 7.59279 47.2397 7.57258 47.2401 7.55225C47.216 7.25237 47.1093 6.96514 46.9319 6.72267C46.8207 6.5123 46.6795 6.31938 46.5128 6.15001C46.4396 6.07628 46.3511 6.01973 46.2536 5.98441C46.1561 5.94909 46.052 5.93587 45.9488 5.94571C45.8607 5.9635 45.7775 6.00042 45.7051 6.05389C45.6327 6.10736 45.5728 6.17609 45.5296 6.25526C45.4319 6.43221 45.375 6.62899 45.3632 6.83101C45.3293 7.26313 45.4008 7.69704 45.5716 8.09512C45.7424 8.4932 46.0073 8.84343 46.3433 9.11546C46.3846 9.11863 46.4231 9.13744 46.4511 9.16808L46.5189 9.24857C46.5436 9.27681 46.5573 9.31312 46.5573 9.35072C46.5573 9.38831 46.5436 9.42462 46.5189 9.45287C46.5062 9.46891 46.4904 9.48214 46.4723 9.49173C46.4543 9.50132 46.4345 9.50706 46.4142 9.50858Z" fill="#231F20"/>
<path d="M47.576 12.4215C47.576 12.4215 46.485 12.0346 45.998 11.2514C45.998 11.2514 45.998 13.2418 47.6684 13.8825L47.576 12.4215Z" fill="#231F20"/>
<path d="M47.6687 14.0279C47.6514 14.0311 47.6337 14.0311 47.6163 14.0279C45.8627 13.3562 45.8442 11.2729 45.8442 11.242C45.8439 11.2079 45.8548 11.1747 45.8751 11.1475C45.8955 11.1203 45.9242 11.1006 45.9568 11.0914C45.9895 11.0822 46.0242 11.0841 46.0557 11.0968C46.0871 11.1095 46.1136 11.1322 46.1309 11.1615C46.5808 11.8858 47.6194 12.2635 47.6287 12.2666C47.657 12.2768 47.6818 12.2952 47.6998 12.3194C47.7179 12.3436 47.7285 12.3726 47.7304 12.4028L47.8228 13.8638C47.8246 13.8899 47.8198 13.916 47.8091 13.9397C47.7983 13.9635 47.7819 13.9842 47.7612 14C47.7339 14.0185 47.7016 14.0282 47.6687 14.0279ZM46.2141 11.7465C46.2721 12.1376 46.418 12.5103 46.6407 12.8363C46.8633 13.1624 47.1569 13.4333 47.4992 13.6286L47.4283 12.5297C46.9797 12.3489 46.568 12.0866 46.2141 11.7558V11.7465Z" fill="#231F20"/>
<path d="M49.6137 6.6548C49.6425 6.39828 49.5849 6.18117 49.4851 6.16987C49.3853 6.15858 49.2811 6.35737 49.2523 6.6139C49.2235 6.87042 49.2811 7.08753 49.3809 7.09882C49.4807 7.11012 49.5849 6.91132 49.6137 6.6548Z" fill="#231F20"/>
<path d="M41.8807 46.7221C41.8625 46.7264 41.8435 46.7264 41.8252 46.7221C38.7279 45.3601 35.9018 40.0947 35.7847 39.8687C35.7761 39.8529 35.7707 39.8355 35.7688 39.8176C35.7669 39.7996 35.7686 39.7815 35.7738 39.7642C35.7789 39.7469 35.7875 39.7308 35.7989 39.7169C35.8103 39.703 35.8243 39.6914 35.8402 39.683C35.8725 39.6666 35.91 39.6635 35.9446 39.6745C35.9791 39.6855 36.008 39.7097 36.0251 39.7418C36.0528 39.7944 38.9252 45.1465 41.9331 46.4713C41.9629 46.4829 41.9876 46.5047 42.0029 46.5328C42.0183 46.5609 42.0232 46.5936 42.017 46.625C42.0107 46.6564 41.9936 46.6846 41.9687 46.7047C41.9438 46.7247 41.9126 46.7352 41.8807 46.7344V46.7221Z" fill="white"/>
</svg>
