<svg width="70" height="70" viewBox="0 0 70 70" fill="none" xmlns="http://www.w3.org/2000/svg">
<path d="M2.15474 56.2963H2.10543C2.0671 56.2829 2.03543 56.2551 2.01704 56.2188C1.99866 56.1824 1.99499 56.1403 2.0068 56.1013C2.1821 55.5861 2.46031 55.1122 2.82438 54.7087C3.18845 54.3052 3.63072 53.9807 4.12407 53.755C5.01595 53.3163 6.03767 53.2237 6.99333 53.495C6.74631 52.4662 6.75018 51.3927 7.00462 50.3658C7.25905 49.3388 7.75654 48.3888 8.4548 47.5963C9.15307 46.8038 10.0315 46.1923 11.0154 45.8138C11.9993 45.4352 13.0597 45.3008 14.1064 45.422C13.8506 44.6512 14.3591 43.7443 15.0309 43.1283C15.8303 42.4112 16.7766 41.879 17.803 41.5691C18.8294 41.2593 19.911 41.1793 20.9716 41.3348C22.0321 41.4904 23.0457 41.8776 23.9411 42.4694C24.8364 43.0611 25.5917 43.8429 26.1535 44.7596C26.6307 44.2129 27.2473 43.8072 27.937 43.5864C28.6266 43.3656 29.3632 43.3379 30.0673 43.5064C30.7715 43.6748 31.4165 44.033 31.933 44.5424C32.4495 45.0518 32.8179 45.693 32.9984 46.3971C34.6078 46.2948 36.1923 46.8343 37.4081 47.8983C38.6239 48.9624 39.3727 50.4651 39.492 52.0803C39.8474 51.872 40.2408 51.7373 40.6489 51.6841C41.057 51.631 41.4716 51.6604 41.8682 51.7708C42.3192 51.8768 42.7399 52.0859 43.0974 52.3817C43.455 52.6775 43.7399 53.0521 43.93 53.4764C43.938 53.495 43.9422 53.5151 43.9423 53.5354C43.9425 53.5558 43.9385 53.5759 43.9308 53.5947C43.923 53.6135 43.9116 53.6305 43.8971 53.6447C43.8827 53.6589 43.8656 53.6701 43.8467 53.6776C43.8091 53.693 43.767 53.6929 43.7295 53.6772C43.692 53.6615 43.6621 53.6317 43.6464 53.594C43.4651 53.2206 43.2053 52.8911 42.885 52.6283C42.5646 52.3655 42.1913 52.1756 41.7909 52.0717C41.3904 51.9679 40.9722 51.9525 40.5652 52.0266C40.1582 52.1008 39.7721 52.2627 39.4335 52.5013C39.4106 52.5194 39.383 52.5305 39.3541 52.5333C39.3251 52.536 39.2959 52.5303 39.2701 52.5168C39.2439 52.5035 39.222 52.4831 39.2067 52.458C39.1915 52.4328 39.1836 52.4039 39.1838 52.3744C39.1662 51.5804 38.9865 50.7984 38.6559 50.077C38.3253 49.3555 37.8508 48.7099 37.2617 48.1801C36.6727 47.6502 35.9816 47.2474 35.2313 46.9967C34.4811 46.7459 33.6875 46.6524 32.8998 46.7221C32.8617 46.7268 32.8231 46.7171 32.7918 46.6947C32.7604 46.6724 32.7385 46.6391 32.7303 46.6014C32.5813 45.9184 32.2418 45.2922 31.7516 44.7959C31.2613 44.2995 30.6406 43.9536 29.9619 43.7984C29.2832 43.6432 28.5745 43.6853 27.9187 43.9196C27.2628 44.1539 26.687 44.5709 26.2583 45.1217C26.2431 45.1421 26.2229 45.1583 26.1997 45.1686C26.1765 45.1789 26.1511 45.183 26.1258 45.1806C26.1005 45.1788 26.076 45.1709 26.0545 45.1574C26.033 45.1439 26.0151 45.1253 26.0025 45.1032C25.4814 44.1939 24.7649 43.4128 23.9052 42.8168C23.0455 42.2208 22.0643 41.8249 21.033 41.658C20.0017 41.491 18.9464 41.5572 17.9438 41.8517C16.9412 42.1462 16.0166 42.6616 15.2374 43.3604C14.5687 43.9609 14.0755 44.8679 14.4885 45.5272C14.5045 45.5522 14.5129 45.5812 14.5129 45.6108C14.5129 45.6405 14.5045 45.6695 14.4885 45.6944C14.4714 45.7187 14.448 45.7379 14.4209 45.7499C14.3937 45.7619 14.3638 45.7663 14.3344 45.7625C13.2971 45.596 12.2346 45.6953 11.2457 46.0513C10.2568 46.4072 9.37336 47.0083 8.67742 47.7987C7.98148 48.5891 7.49555 49.5432 7.26472 50.5725C7.03389 51.6019 7.06563 52.6731 7.35699 53.6869C7.36559 53.7146 7.36609 53.7442 7.35845 53.7722C7.3508 53.8001 7.33532 53.8253 7.31385 53.8447C7.2922 53.8636 7.26583 53.8762 7.23758 53.8811C7.20934 53.886 7.18029 53.8831 7.15359 53.8726C6.20291 53.5417 5.16101 53.5982 4.2513 54.0299C3.34159 54.4616 2.63651 55.2341 2.28726 56.1818C2.28015 56.2126 2.26347 56.2403 2.23965 56.2608C2.21582 56.2814 2.18608 56.2939 2.15474 56.2963Z" fill="white"/>
<path d="M41.7049 70.0001C55.7675 70.0001 67.1676 69.2558 67.1676 68.3378C67.1676 67.4198 55.7675 66.6755 41.7049 66.6755C27.6422 66.6755 16.2422 67.4198 16.2422 68.3378C16.2422 69.2558 27.6422 70.0001 41.7049 70.0001Z" fill="#E6E7E8"/>
<path d="M37.6766 42.8156C37.6766 43.0106 35.4761 44.5552 32.8935 48.7805C31.1031 48.1922 29.2686 47.7491 27.4077 47.4556C25.0638 47.0828 22.6834 46.9986 20.3193 47.2049L19.5889 50.0063C19.5889 50.0063 33.0784 54.8105 34.9984 54.1047C36.9184 53.3989 42.9559 45.8058 42.9559 45.8058" fill="white"/>
<path d="M34.4657 54.3215C31.3006 54.3215 20.0578 50.3314 19.5462 50.1488C19.5092 50.1373 19.4782 50.1118 19.4598 50.0777C19.4414 50.0435 19.437 50.0035 19.4475 49.9661L20.1749 47.1617C20.1835 47.1317 20.2007 47.105 20.2242 47.0846C20.2477 47.0643 20.2766 47.0513 20.3074 47.0471C22.6841 46.8442 25.0764 46.9294 27.4328 47.301C29.2605 47.5933 31.0635 48.0248 32.8261 48.5918C34.0283 46.5915 35.4884 44.7597 37.1685 43.1438C37.2939 43.0283 37.4132 42.9064 37.526 42.7785C37.5338 42.7458 37.5517 42.7165 37.5772 42.6948C37.6027 42.6731 37.6344 42.6601 37.6678 42.6578C37.688 42.6565 37.7083 42.6593 37.7275 42.6659C37.7467 42.6726 37.7643 42.6829 37.7795 42.6964C37.7947 42.71 37.8071 42.7264 37.8159 42.7447C37.8248 42.763 37.8299 42.7829 37.8311 42.8033C37.8311 42.924 37.751 43.0106 37.3842 43.3666C35.6928 44.9931 34.2261 46.84 33.0233 48.858C33.0053 48.8884 32.9773 48.9116 32.9441 48.9235C32.9109 48.9353 32.8746 48.9352 32.8415 48.923C31.061 48.339 29.2369 47.899 27.3865 47.6074C25.0912 47.2481 22.7619 47.1598 20.4461 47.3443L19.7804 49.9042C24.4649 51.5696 33.4856 54.4917 34.9434 53.9593C36.7925 53.2752 42.7683 45.7873 42.8269 45.713C42.8529 45.6809 42.8903 45.6603 42.9312 45.6557C42.9722 45.6511 43.0133 45.6627 43.0457 45.6882C43.0615 45.7008 43.0747 45.7165 43.0844 45.7343C43.0941 45.7522 43.1001 45.7718 43.1021 45.792C43.1041 45.8122 43.1021 45.8326 43.0961 45.852C43.0901 45.8714 43.0803 45.8894 43.0673 45.9049C42.8207 46.2144 36.9774 53.5383 35.0543 54.2626C34.8626 54.3145 34.6638 54.3344 34.4657 54.3215Z" fill="white"/>
<path d="M39.988 36.7425L35.4761 44.5523L42.3518 48.9169L46.8606 43.0356L39.988 36.7425Z" fill="white"/>
<path d="M42.3399 49.0716C42.3114 49.0709 42.2837 49.0623 42.2598 49.0468L35.3933 44.6729C35.3608 44.6508 35.3376 44.6172 35.3285 44.5788C35.3194 44.5405 35.3249 44.5 35.344 44.4655L39.8559 36.6557C39.868 36.6366 39.8837 36.6202 39.9023 36.6074C39.9208 36.5947 39.9417 36.5858 39.9638 36.5814C39.9869 36.5786 40.0104 36.5807 40.0327 36.5877C40.055 36.5946 40.0757 36.6062 40.0932 36.6216L46.9628 42.9209C46.9912 42.947 47.0086 42.983 47.0114 43.0215C47.0143 43.0601 47.0024 43.0982 46.9782 43.1283L42.4724 49.0097C42.457 49.03 42.4369 49.0462 42.4138 49.057C42.3907 49.0678 42.3653 49.0728 42.3399 49.0716ZM35.683 44.5027L42.3183 48.697L46.6546 43.0509L40.0254 36.9869L35.683 44.5027Z" fill="white"/>
<path d="M46.3125 46.4497C46.3125 46.4497 51.3976 50.6904 52.7075 51.6191C52.7075 51.6191 52.3099 55.1789 53.7954 58.0081C55.2808 60.8374 59.5061 65.9046 59.5061 65.9046L62.1103 65.397C62.1103 65.397 57.9775 52.3063 57.0714 49.7247C56.1654 47.143 52.0017 40.8933 52.0017 40.8933L46.3125 46.4497Z" fill="white"/>
<path d="M59.5061 66.0595C59.484 66.0593 59.4622 66.0545 59.4421 66.0455C59.4219 66.0364 59.4038 66.0233 59.389 66.0069C59.3458 65.9543 55.1359 60.8963 53.6597 58.0825C52.2821 55.4576 52.4917 52.2816 52.5441 51.6935C51.1387 50.6751 46.2631 46.6107 46.2138 46.5705C46.1969 46.5566 46.1831 46.5391 46.1735 46.5194C46.164 46.4996 46.1588 46.478 46.1584 46.456C46.1574 46.4342 46.161 46.4125 46.169 46.3922C46.1769 46.3719 46.1891 46.3536 46.2046 46.3383L51.8938 40.782C51.9098 40.766 51.9292 40.7537 51.9505 40.7462C51.9719 40.7387 51.9946 40.7362 52.0171 40.7387C52.0393 40.7414 52.0607 40.7489 52.0799 40.7606C52.099 40.7724 52.1154 40.7881 52.128 40.8068C52.2975 41.0637 56.3132 47.0998 57.2162 49.6722C58.1192 52.2445 62.2151 65.2206 62.2551 65.3507C62.2641 65.3706 62.2687 65.3922 62.2687 65.4141C62.2687 65.436 62.2641 65.4576 62.2551 65.4776C62.2309 65.5142 62.1933 65.5398 62.1504 65.5488L59.5492 66.0595H59.5061ZM46.5436 46.4405C47.3511 47.1122 51.6226 50.6627 52.7968 51.4923C52.8184 51.5094 52.8354 51.5316 52.8462 51.5571C52.857 51.5825 52.8612 51.6103 52.8584 51.6378C52.8584 51.6718 52.4855 55.1821 53.934 57.937C55.2993 60.5434 59.053 65.1154 59.5677 65.7376L61.91 65.2795C61.4261 63.7503 57.7679 52.1671 56.9265 49.7743C56.1129 47.4651 52.6119 42.113 51.9739 41.1349L46.5436 46.4405Z" fill="white"/>
<path d="M37.6798 32.4336C37.6798 32.4336 37.159 37.2656 37.8925 39.7915C38.626 42.3174 46.565 48.4928 46.565 48.4928L52.0014 40.8935L48.747 34.5695L37.6798 32.4336Z" fill="white"/>
<path d="M46.565 48.6474C46.5303 48.647 46.4967 48.635 46.4695 48.6134C46.1459 48.3626 38.4843 42.3822 37.7446 39.8346C37.005 37.2871 37.5073 32.6129 37.5289 32.4055C37.5306 32.3844 37.5366 32.3638 37.5467 32.3451C37.5568 32.3265 37.5707 32.3101 37.5874 32.2972C37.6053 32.2849 37.6254 32.2764 37.6466 32.2722C37.6678 32.2679 37.6896 32.268 37.7107 32.2724L48.7778 34.4083C48.8001 34.4131 48.8211 34.4228 48.8392 34.4367C48.8574 34.4506 48.8722 34.4684 48.8826 34.4888L52.1371 40.8128C52.1522 40.8369 52.1601 40.8648 52.1601 40.8933C52.1601 40.9218 52.1522 40.9496 52.1371 40.9738L46.7006 48.5731C46.6886 48.5897 46.6734 48.6037 46.656 48.6143C46.6385 48.625 46.6191 48.632 46.5989 48.635L46.565 48.6474ZM37.8155 32.616C37.7354 33.4859 37.3994 37.5409 38.0405 39.7356C38.7031 42.0169 45.5203 47.4588 46.5342 48.2605L51.8197 40.8685L48.6453 34.6962L37.8155 32.616Z" fill="white"/>
<path d="M20.3258 47.202L16.7231 46.6572C16.7231 46.6572 14.8523 54.3711 15.1236 55.1016C15.5581 56.2841 19.5954 50.0034 19.5954 50.0034L20.3258 47.202Z" fill="white"/>
<path d="M15.2867 55.402H15.2682C15.2015 55.394 15.1385 55.3666 15.0871 55.3231C15.0356 55.2797 14.9979 55.2221 14.9785 55.1574C14.7012 54.4021 16.3839 47.4188 16.575 46.6202C16.5838 46.5826 16.6066 46.5498 16.6387 46.5285C16.6707 46.5073 16.7097 46.4991 16.7476 46.5056L20.3472 47.0504C20.3683 47.0533 20.3885 47.0605 20.4065 47.0717C20.4246 47.0829 20.4401 47.0978 20.452 47.1154C20.4637 47.1336 20.4716 47.1539 20.4753 47.1751C20.479 47.1964 20.4784 47.2182 20.4736 47.2392L19.7432 50.0437C19.7402 50.0594 19.7339 50.0742 19.7247 50.0871C16.5164 55.0769 15.4994 55.402 15.2867 55.402ZM16.8277 46.8306C16.1096 49.8054 15.071 54.5693 15.2528 55.0491C15.2713 55.0924 15.2837 55.0955 15.2898 55.0955C15.7644 55.1543 17.78 52.5201 19.4411 49.9416L20.1222 47.329L16.8277 46.8306Z" fill="white"/>
<path d="M59.3797 65.7561C59.3797 65.7561 59.1578 68.0406 59.7804 68.2944C60.4029 68.5482 67.9474 67.6753 67.6886 67.1243C67.4297 66.5733 61.8884 64.8894 61.8884 64.8894L59.3797 65.7561Z" fill="white"/>
<path d="M60.3196 68.4894C60.1189 68.5011 59.9175 68.4834 59.7217 68.4368C59.0283 68.1551 59.1886 66.14 59.2286 65.7407C59.2316 65.7115 59.2428 65.6839 59.2608 65.6609C59.2788 65.6379 59.3029 65.6204 59.3304 65.6107L61.839 64.7439C61.8691 64.7346 61.9014 64.7346 61.9315 64.7439C63.2475 65.1463 67.559 66.5021 67.8272 67.0624C67.8466 67.1061 67.8522 67.1547 67.8434 67.2017C67.8346 67.2487 67.8117 67.2919 67.7779 67.3255C67.3032 67.8239 62.1595 68.4894 60.3196 68.4894ZM59.5245 65.8676C59.4475 66.7653 59.4937 68.0096 59.8327 68.1489C60.0515 68.2387 61.6818 68.1489 63.759 67.892C66.1352 67.5825 67.257 67.2946 67.5066 67.146C67.1091 66.79 64.4247 65.8242 61.8883 65.0504L59.5245 65.8676Z" fill="white"/>
<path d="M22.2058 51.0404H22.1657C22.1266 51.0295 22.0934 51.0036 22.0732 50.9683C22.053 50.9329 22.0475 50.891 22.0579 50.8516L23.0564 47.0658C23.0672 47.0266 23.093 46.9931 23.1282 46.9729C23.1634 46.9526 23.2052 46.9471 23.2444 46.9575C23.2637 46.9625 23.2817 46.9713 23.2976 46.9834C23.3134 46.9955 23.3268 47.0106 23.3368 47.0278C23.3468 47.0451 23.3533 47.0642 23.356 47.084C23.3586 47.1038 23.3574 47.1239 23.3523 47.1432L22.3537 50.9321C22.3439 50.9636 22.3242 50.9912 22.2975 51.0107C22.2709 51.0302 22.2388 51.0406 22.2058 51.0404Z" fill="#1E1E1E"/>
<path d="M58.2701 64.1466C58.2412 64.1467 58.2129 64.1386 58.1884 64.1233C58.1638 64.1079 58.1441 64.086 58.1314 64.06C58.1141 64.0237 58.1115 63.9822 58.1241 63.944C58.1368 63.9059 58.1637 63.8742 58.1992 63.8557L61.1239 62.3667C61.1419 62.3572 61.1615 62.3514 61.1817 62.3497C61.2019 62.348 61.2223 62.3504 61.2416 62.3568C61.2608 62.3631 61.2786 62.3733 61.2939 62.3867C61.3092 62.4001 61.3216 62.4165 61.3304 62.4348C61.3487 62.4714 61.3518 62.5137 61.3391 62.5526C61.3264 62.5915 61.2989 62.6237 61.2626 62.6422L58.3379 64.1281C58.3172 64.1399 58.2939 64.1463 58.2701 64.1466Z" fill="#1E1E1E"/>
<path d="M38.1698 7.01065C37.8926 7.03272 37.618 7.08144 37.35 7.15614C36.6474 7.35734 36.0217 7.77523 35.3283 8.00739C34.0493 8.44385 32.4498 8.00739 31.1523 7.89595C31.3711 8.40361 32.8535 10.1216 33.5562 9.82133C32.3758 10.3228 30.9335 9.58607 29.7686 10.1309C30.7209 12.0315 32.8011 13.2263 34.9153 13.3749C37.0295 13.5235 39.1375 12.7372 40.848 11.4805C41.4644 11.0347 42.2595 10.5704 42.3705 9.7718C42.4073 9.4213 42.3611 9.06703 42.2358 8.73783C42.1105 8.40863 41.9095 8.11381 41.6493 7.87738C40.8911 7.18709 39.8002 6.99517 38.7831 6.99517C38.5797 6.98589 38.3732 6.99208 38.1698 7.01065Z" fill="white"/>
<path d="M35.4393 13.5387C35.2606 13.5387 35.0818 13.5325 34.9031 13.5201C32.6317 13.356 30.5607 12.0498 29.6299 10.1894C29.6215 10.1704 29.6172 10.1498 29.6172 10.129C29.6172 10.1082 29.6215 10.0877 29.6299 10.0687C29.6366 10.0491 29.6472 10.031 29.6609 10.0156C29.6747 10.0002 29.6914 9.98771 29.7101 9.97889C30.3265 9.69101 31.0322 9.74983 31.7041 9.80555C32.0784 9.84886 32.4558 9.86025 32.832 9.8396C32.0845 9.36876 31.4616 8.72299 31.0168 7.95756C31.0038 7.9344 30.997 7.90828 30.997 7.88172C30.997 7.85515 31.0038 7.82904 31.0168 7.80588C31.0325 7.78407 31.0535 7.76666 31.0777 7.75528C31.102 7.7439 31.1288 7.73894 31.1555 7.74088C31.4637 7.77183 31.7965 7.81826 32.1386 7.86779C33.2173 8.02256 34.3329 8.17734 35.2698 7.86779C35.5791 7.75315 35.8816 7.62086 36.1759 7.47157C36.5385 7.28589 36.9158 7.13059 37.3039 7.00725C37.5809 6.92973 37.8647 6.87894 38.1514 6.85557C38.3425 6.85557 38.549 6.83081 38.7678 6.83081C40.0622 6.83081 41.0607 7.14036 41.7357 7.75945C42.0149 8.01251 42.2304 8.32855 42.3644 8.68157C42.4983 9.03459 42.5469 9.41451 42.5061 9.79007C42.3983 10.5485 41.7418 11.0283 41.1624 11.4276L40.919 11.6009C39.3411 12.8103 37.4235 13.4884 35.4393 13.5387ZM29.9844 10.1987C30.9089 11.8826 32.8197 13.0589 34.9154 13.2106C36.8478 13.3529 38.9219 12.6874 40.7433 11.3533L40.9898 11.1768C41.5446 10.7837 42.1178 10.3782 42.2226 9.74983C42.2547 9.42445 42.2107 9.09604 42.0941 8.79078C41.9774 8.48552 41.7914 8.21185 41.5508 7.99161C40.9344 7.43443 40.0098 7.14964 38.777 7.14964C38.5582 7.14964 38.3579 7.14964 38.1761 7.17441C37.9082 7.1952 37.643 7.24185 37.384 7.3137C37.014 7.43255 36.6542 7.58163 36.3084 7.75945C36.006 7.90671 35.6953 8.03591 35.3777 8.14638C34.373 8.48688 33.168 8.31663 32.1047 8.16495L31.4359 8.07209C31.8767 8.73452 33.0231 9.87365 33.4977 9.66935C33.5357 9.65334 33.5785 9.65315 33.6167 9.66882C33.6548 9.6845 33.6852 9.71475 33.7011 9.75293C33.7171 9.7911 33.7173 9.83407 33.7017 9.87238C33.6861 9.9107 33.6559 9.94122 33.6179 9.95722C33.0015 10.2172 32.3266 10.1615 31.6732 10.1058C31.11 10.0179 30.5347 10.0495 29.9844 10.1987Z" fill="white"/>
<path d="M43.2645 9.36301C43.2645 8.56748 42.5957 7.78433 42.1796 7.15286C42.0754 6.97576 41.9408 6.81857 41.7821 6.68854C41.7013 6.6256 41.6051 6.58576 41.5037 6.57323C41.4022 6.5607 41.2993 6.57594 41.2058 6.61734C41.061 6.70884 40.9522 6.8477 40.8976 7.01047C40.7202 7.43723 40.6554 7.90272 40.7094 8.36198C40.7634 8.82124 40.9343 9.25877 41.2058 9.63232C41.5139 10.1059 42.1118 10.5083 42.645 10.304C42.8281 10.2246 42.9843 10.0933 43.0943 9.92619C43.2043 9.75907 43.2634 9.56336 43.2645 9.36301Z" fill="white"/>
<path d="M42.3584 10.5113C42.1032 10.4849 41.8575 10.3996 41.6405 10.2621C41.4235 10.1247 41.241 9.93878 41.1072 9.7189C40.8205 9.32483 40.6393 8.86342 40.581 8.37888C40.5228 7.89433 40.5893 7.40287 40.7743 6.95156C40.8408 6.75887 40.9686 6.59353 41.138 6.48105C41.2571 6.42577 41.389 6.40434 41.5194 6.41907C41.6498 6.43381 41.7737 6.48415 41.8776 6.56463C42.0516 6.70388 42.1989 6.87381 42.3122 7.06609L42.5464 7.40969C42.9594 7.99473 43.4247 8.64787 43.4247 9.36293C43.4266 9.5921 43.3613 9.81676 43.2369 10.0089C43.1125 10.201 42.9345 10.3521 42.7252 10.4432C42.6086 10.4902 42.4839 10.5134 42.3584 10.5113ZM41.4153 6.7194C41.3681 6.72017 41.3217 6.73182 41.2797 6.75345C41.1729 6.82966 41.093 6.93809 41.0517 7.063C40.8848 7.46717 40.8255 7.90798 40.8795 8.34214C40.9336 8.7763 41.0991 9.18888 41.3599 9.53937C41.6465 9.95725 42.1642 10.3256 42.6173 10.1585C42.7685 10.0878 42.8962 9.9749 42.9853 9.8333C43.0744 9.69169 43.121 9.52733 43.1196 9.35983C43.1196 8.74074 42.682 8.12165 42.2968 7.58613C42.2136 7.46541 42.1303 7.35088 42.0564 7.23944C41.9645 7.07697 41.8433 6.93315 41.6989 6.81536C41.6167 6.75428 41.5175 6.72071 41.4153 6.7194Z" fill="#1E1E1E"/>
<path d="M52.8769 17.563L56.0204 26.416C58.2661 25.1812 60.5944 24.1045 62.9886 23.1936C62.9886 23.1936 62.7359 21.4911 63.4971 20.7916C64.2583 20.092 64.8901 19.6896 64.9734 19.8908C65.0566 20.092 65.3586 20.6925 65.3586 20.6925C65.3586 20.6925 66.0828 19.6896 66.5081 19.8908C66.9334 20.092 67.3094 22.4631 67.3064 23.0946C67.3033 23.726 57.019 33.3405 54.8277 31.9414C52.6365 30.5422 49.4282 23.9334 49.4282 23.9334" fill="white"/>
<path d="M55.3763 32.2354C55.1534 32.2429 54.9331 32.186 54.7414 32.0714C52.5379 30.6629 49.4221 24.2739 49.2926 24.0015C49.2837 23.9832 49.2784 23.9634 49.2772 23.943C49.2759 23.9227 49.2786 23.9023 49.2852 23.883C49.2918 23.8638 49.3021 23.846 49.3155 23.8307C49.329 23.8155 49.3453 23.803 49.3635 23.7941C49.4004 23.7768 49.4426 23.7746 49.4811 23.7878C49.5196 23.8011 49.5515 23.8289 49.57 23.8653C49.6008 23.9303 52.7752 30.4463 54.9048 31.8083C55.213 31.9971 55.703 31.9568 56.4026 31.6906C60.0053 30.3163 66.9704 23.7105 67.1492 23.076C67.1492 22.3052 66.727 20.1662 66.4373 20.03C66.237 19.9372 65.7531 20.4077 65.4819 20.7822C65.4658 20.8036 65.4448 20.8207 65.4206 20.8321C65.3964 20.8434 65.3698 20.8486 65.3432 20.8472C65.3169 20.8449 65.2917 20.8356 65.2701 20.8204C65.2484 20.8052 65.2311 20.7846 65.2199 20.7606C65.2199 20.7389 64.9518 20.2312 64.8501 19.996C64.7052 20.0269 64.2799 20.2808 63.5988 20.9061C62.9177 21.5313 63.1366 23.1534 63.1396 23.1719C63.1441 23.2069 63.1368 23.2423 63.119 23.2726C63.1011 23.3028 63.0737 23.3263 63.041 23.3391C60.6552 24.2473 58.3351 25.3209 56.0975 26.5522C56.0766 26.5613 56.054 26.566 56.0312 26.566C56.0084 26.566 55.9859 26.5613 55.965 26.5522C55.9437 26.5445 55.9244 26.5321 55.9084 26.5161C55.8925 26.5 55.8802 26.4807 55.8725 26.4593L52.732 17.6125C52.7186 17.5735 52.721 17.5307 52.739 17.4936C52.7569 17.4564 52.7888 17.4279 52.8276 17.4144C52.8664 17.4008 52.909 17.4033 52.946 17.4213C52.983 17.4393 53.0113 17.4713 53.0248 17.5103L56.1067 26.1931C58.2771 25.0182 60.5202 23.9843 62.8222 23.0976C62.7791 22.6798 62.6958 21.3239 63.3924 20.6832C63.83 20.2839 64.6066 19.6245 64.9333 19.6988C64.9711 19.7053 65.0066 19.7216 65.0364 19.746C65.0661 19.7704 65.089 19.8022 65.1028 19.8381C65.1552 19.9527 65.2816 20.2189 65.3771 20.4077C65.6421 20.0981 66.1568 19.5657 66.5606 19.7576C67.1276 20.0269 67.4512 22.6612 67.4481 23.1007C67.4481 23.7198 61.3028 29.4402 57.6323 31.4585C56.6769 31.9816 55.928 32.2354 55.3763 32.2354Z" fill="white"/>
<path d="M65.3675 20.5594C65.5499 20.9534 65.7124 21.3563 65.8544 21.7667C66.0044 22.161 66.0501 22.5876 65.987 23.0049C65.9007 23.4135 65.5863 23.7787 65.2319 23.7478C64.8251 23.7106 64.5662 23.2092 64.4614 22.7417" fill="white"/>
<path d="M65.2755 23.9116H65.2169C64.6005 23.8559 64.3694 23.0356 64.3108 22.7849C64.3018 22.7438 64.3094 22.7008 64.332 22.6654C64.3545 22.63 64.3901 22.6051 64.431 22.596C64.4719 22.587 64.5146 22.5946 64.5499 22.6173C64.5852 22.6399 64.61 22.6757 64.619 22.7167C64.7053 23.1068 64.9272 23.5742 65.2508 23.6021C65.5282 23.6268 65.7747 23.2925 65.8425 22.983C65.8981 22.5933 65.8535 22.1958 65.7131 21.8284C65.5731 21.4191 65.4126 21.0172 65.2323 20.6242C65.2241 20.6055 65.2197 20.5854 65.2194 20.565C65.219 20.5446 65.2226 20.5243 65.2301 20.5053C65.2375 20.4863 65.2486 20.469 65.2627 20.4544C65.2769 20.4397 65.2938 20.428 65.3124 20.4199C65.3501 20.4042 65.3924 20.4038 65.4303 20.4188C65.4683 20.4338 65.499 20.4631 65.5158 20.5004C65.6997 20.9046 65.8633 21.3179 66.0059 21.7386C66.1634 22.1569 66.2112 22.6089 66.1445 23.0511C66.0459 23.4813 65.7038 23.9116 65.2755 23.9116Z" fill="#1E1E1E"/>
<path d="M55.0925 28.1369C55.0724 28.1357 55.0527 28.1305 55.0346 28.1216C55.0165 28.1126 55.0004 28.1002 54.9872 28.0849C54.9739 28.0696 54.9639 28.0518 54.9577 28.0326C54.9514 28.0133 54.949 27.993 54.9507 27.9728C55.0216 27.0442 55.8969 26.3291 55.9338 26.3013C55.9657 26.2801 56.0042 26.2716 56.0419 26.2773C56.0797 26.2831 56.114 26.3027 56.1381 26.3323C56.1623 26.362 56.1747 26.3996 56.1728 26.4379C56.1709 26.4762 56.155 26.5125 56.128 26.5396C56.128 26.5396 55.3175 27.2082 55.2589 27.9945C55.2574 28.0148 55.2518 28.0347 55.2426 28.0529C55.2334 28.0711 55.2207 28.0872 55.2052 28.1005C55.1897 28.1137 55.1718 28.1237 55.1525 28.13C55.1331 28.1362 55.1127 28.1386 55.0925 28.1369Z" fill="white"/>
<path d="M49.9181 34.9005L36.9741 32.5913C36.9741 32.5913 38.2439 24.6514 38.2346 17.5628C38.2346 15.3434 44.6419 11.9631 47.1537 12.9196C49.6654 13.8761 52.3559 16.1946 53.1264 17.3523C53.4346 17.8259 54.0787 21.9955 52.5254 25.091C49.4466 31.2571 49.2463 32.4334 49.9181 34.9005Z" fill="white"/>
<path d="M45.3691 13.802C45.3691 13.802 46.5094 20.708 48.5188 20.0796C50.5283 19.4512 49.7855 15.7026 49.7855 15.7026L45.3691 13.802Z" fill="white"/>
<path d="M48.2599 20.2745C48.0584 20.2712 47.8619 20.2111 47.6928 20.1012C46.1087 19.123 45.255 14.0433 45.2273 13.8267C45.2226 13.7993 45.2255 13.7712 45.2359 13.7455C45.2462 13.7198 45.2635 13.6975 45.2858 13.6812C45.3076 13.6647 45.3331 13.6541 45.3601 13.6503C45.3871 13.6465 45.4145 13.6497 45.4399 13.6595L49.8471 15.5756C49.8702 15.5859 49.8904 15.6017 49.906 15.6217C49.9216 15.6416 49.932 15.6651 49.9364 15.6901C49.9673 15.848 50.6792 19.578 48.565 20.2405C48.4655 20.2667 48.3627 20.2782 48.2599 20.2745ZM45.5725 14.0557C45.7759 15.1422 46.5895 19.058 47.8531 19.838C47.9422 19.8993 48.0439 19.9394 48.1507 19.9555C48.2574 19.9716 48.3664 19.9632 48.4694 19.9309C50.1676 19.3985 49.7361 16.3433 49.6467 15.8109L45.5725 14.0557Z" fill="white"/>
<path d="M39.1127 18.7887C39.1127 18.7887 38.0957 25.2891 40.0096 25.2148C41.9234 25.1405 44.7557 17.2285 43.4459 15.526C42.1361 13.8235 38.8539 14.4798 39.1127 18.7887Z" fill="white"/>
<path d="M39.9823 25.3696C39.8526 25.3713 39.7242 25.3445 39.606 25.291C39.4878 25.2375 39.3827 25.1587 39.2981 25.0601C38.2102 23.8219 38.9036 19.1787 38.9591 18.7948C38.8389 16.7085 39.5539 15.167 40.8699 14.6686C41.3424 14.4876 41.8604 14.4642 42.3472 14.6019C42.834 14.7396 43.2637 15.0311 43.5727 15.4332C44.4295 16.5444 43.6651 19.9959 42.4694 22.5527C41.9824 23.5897 41.0209 25.3386 40.0223 25.3665L39.9823 25.3696ZM41.6989 14.8141C41.4528 14.8148 41.2087 14.8588 40.9777 14.9441C39.7912 15.3929 39.1502 16.8292 39.2673 18.7794C39.269 18.7907 39.269 18.8021 39.2673 18.8134C39.2673 18.8629 38.5153 23.6919 39.5292 24.8434C39.5881 24.9135 39.6618 24.9696 39.745 25.0076C39.8281 25.0456 39.9187 25.0646 40.01 25.0631C40.611 25.0415 41.4246 24.0571 42.1889 22.4258C43.3292 19.9866 44.075 16.594 43.3261 15.6158C43.1344 15.3656 42.8879 15.1632 42.6057 15.0241C42.3235 14.8851 42.0132 14.8132 41.6989 14.8141Z" fill="#1E1E1E"/>
<path d="M27.5251 23.0728C27.1953 24.1625 30.1632 32.5388 30.1632 32.5388C30.1632 32.5388 31.3158 36.826 31.8644 37.0303C32.413 37.2346 34.1111 37.3398 34.5457 37.3398C35.5535 37.3398 34.6289 35.6838 34.4994 35.6559C34.4994 35.6559 35.1682 35.9654 35.4764 35.464C35.7846 34.9625 35.5072 34.461 35.2422 33.7088C34.9771 32.9567 33.5656 32.8824 33.5656 32.8824C33.4454 31.3346 31.9445 24.311 31.9445 24.311C31.9445 24.311 40.8821 20.1848 41.9761 19.6059C43.0702 19.0271 44.4047 16.7736 41.9761 15.2506C39.5476 13.7277 27.8549 21.9863 27.5251 23.0728Z" fill="white"/>
<path d="M34.5454 37.5009C34.1602 37.5009 32.4127 37.4018 31.8117 37.1759C31.2108 36.9499 30.2893 33.6037 30.015 32.5791C29.7068 31.7279 27.044 24.1316 27.3769 23.0296C27.6573 22.101 34.6687 17.0492 38.971 15.4303C40.4534 14.8731 41.4951 14.7709 42.0529 15.1207C43.2857 15.8884 43.5045 16.7923 43.4829 17.4175C43.4473 17.8936 43.2975 18.354 43.0463 18.7593C42.7952 19.1647 42.4501 19.503 42.0406 19.7453C41.0205 20.2901 33.1955 23.9025 32.1138 24.3885C32.3141 25.3172 33.5253 31.0716 33.6979 32.7277C34.0769 32.7679 35.131 32.9413 35.3775 33.6563C35.4176 33.7709 35.4576 33.8823 35.4977 33.9875C35.7196 34.5819 35.8983 35.0555 35.5994 35.5353C35.5222 35.6604 35.4109 35.7607 35.2788 35.8244C35.1466 35.888 34.9991 35.9123 34.8536 35.8943C35.0491 36.221 35.1554 36.5936 35.1618 36.9747C35.1565 37.0495 35.1361 37.1225 35.1018 37.1892C35.0676 37.2559 35.0202 37.315 34.9626 37.3627C34.9049 37.4105 34.8382 37.446 34.7665 37.4671C34.6948 37.4882 34.6196 37.4944 34.5454 37.4854V37.5009ZM41.1869 15.2136C40.4615 15.2586 39.7489 15.4261 39.0789 15.7088C34.6471 17.3773 27.8916 22.3765 27.6758 23.107C27.4447 23.8685 29.1243 29.1277 30.3109 32.4739C30.8563 34.5014 31.6237 36.7487 31.9227 36.8725C32.4435 37.0675 34.1078 37.1821 34.5485 37.1821C34.755 37.1821 34.8104 37.1047 34.8351 37.0366C34.9614 36.6961 34.5546 35.916 34.4283 35.7984C34.3961 35.7812 34.371 35.7531 34.3574 35.7191C34.3439 35.6851 34.3428 35.6474 34.3543 35.6127C34.3669 35.5769 34.3919 35.5469 34.4247 35.5281C34.4576 35.5094 34.496 35.5031 34.5331 35.5105H34.5639C34.5885 35.5105 35.1155 35.7581 35.3467 35.3774C35.5778 34.9967 35.4299 34.6469 35.2234 34.0897C35.1833 33.9813 35.1402 33.8699 35.1001 33.7523C34.9091 33.2168 33.9228 33.0496 33.5592 33.031C33.523 33.0326 33.4875 33.0214 33.4587 32.9994C33.43 32.9773 33.4099 32.9458 33.402 32.9103C33.2849 31.3812 31.7994 24.4288 31.784 24.3607C31.7777 24.3263 31.7827 24.2908 31.7983 24.2595C31.8138 24.2282 31.8391 24.2029 31.8703 24.1873C31.9597 24.1471 40.8294 20.0549 41.8957 19.4853C42.257 19.2688 42.5615 18.9688 42.784 18.6102C43.0064 18.2516 43.1404 17.8448 43.1747 17.4237C43.1994 16.6437 42.7556 15.9441 41.8896 15.3993C41.6756 15.2778 41.4325 15.2178 41.1869 15.226V15.2136Z" fill="#1E1E1E"/>
<path d="M45.1133 11.4123C44.7527 11.4203 44.393 11.3723 44.047 11.2699C42.6324 10.8427 41.828 9.31048 41.6092 7.84633C41.362 6.11218 41.6994 4.34481 42.5677 2.8255C43.4522 1.27777 44.6942 0.618432 46.4724 0.754632C47.7521 0.853887 49.0212 1.06098 50.2663 1.37372L49.5081 0.154114C50.2457 0.321855 50.9486 0.617234 51.5853 1.02703C52.2258 1.44798 52.6797 2.1012 52.852 2.85026C52.9084 3.17176 52.8887 3.50208 52.7945 3.81452C52.7003 4.12695 52.5342 4.41272 52.3096 4.64872C52.1616 4.81897 51.8411 4.93041 51.7425 5.05113C51.5761 5.24614 51.5576 5.64236 51.4713 5.90548C51.0676 7.17461 50.2385 8.21778 49.3633 9.18976C48.3462 10.332 46.7252 11.3844 45.1133 11.4123Z" fill="white"/>
<path d="M45.0516 11.5701C44.6969 11.5703 44.344 11.5192 44.0037 11.4184C42.4628 10.9479 41.6707 9.27637 41.4581 7.87103C41.2097 6.10182 41.5533 4.29984 42.435 2.74805C43.3596 1.1415 44.6448 0.460502 46.4877 0.599798C47.6502 0.690007 48.8041 0.86903 49.9395 1.13531L49.3817 0.23763C49.3642 0.211562 49.3548 0.180843 49.3548 0.149409C49.3548 0.117975 49.3642 0.0872565 49.3817 0.0611886C49.4002 0.0365965 49.4257 0.0181506 49.4548 0.00822151C49.4839 -0.00170755 49.5153 -0.00266594 49.545 0.00547019C50.3016 0.182335 51.022 0.489172 51.6746 0.91244C52.3475 1.35729 52.8234 2.04595 53.0029 2.83472C53.0645 3.17904 53.0444 3.53309 52.9443 3.86816C52.8441 4.20322 52.6668 4.50986 52.4266 4.76319C52.3176 4.87124 52.1929 4.96204 52.0567 5.0325C51.9854 5.06659 51.919 5.11034 51.8595 5.16251C51.7696 5.31382 51.7128 5.48267 51.6931 5.65778C51.6715 5.76612 51.6469 5.87446 51.6191 5.96732C51.1969 7.28599 50.3401 8.35083 49.4772 9.30733C48.5033 10.3784 46.8545 11.5515 45.1132 11.567H45.0454L45.0516 11.5701ZM46.0409 0.887676C44.5554 0.887676 43.4891 1.53153 42.7093 2.89663C41.8549 4.39161 41.5219 6.13032 41.7632 7.83698C41.9604 9.14946 42.6878 10.7065 44.0931 11.1336C44.4252 11.2312 44.7703 11.2772 45.1163 11.2698C46.7528 11.242 48.3246 10.1369 49.2553 9.10303C50.0936 8.17439 50.9288 7.13741 51.3325 5.87446C51.3572 5.79088 51.3756 5.69492 51.3972 5.59897C51.4248 5.37675 51.5052 5.16444 51.6314 4.97987C51.713 4.89967 51.8066 4.83282 51.9088 4.78176C52.0158 4.72827 52.1144 4.65945 52.2016 4.57746C52.4154 4.35702 52.5731 4.08794 52.6611 3.79312C52.7491 3.49831 52.7648 3.1865 52.707 2.88425C52.5426 2.17539 52.112 1.55769 51.5051 1.16008C50.9977 0.822884 50.4401 0.568974 49.8532 0.40788L50.3987 1.28699C50.4147 1.31303 50.4228 1.34327 50.4217 1.37388C50.4207 1.40449 50.4106 1.4341 50.3928 1.45896C50.3749 1.48382 50.3502 1.50281 50.3216 1.51352C50.293 1.52424 50.2619 1.5262 50.2323 1.51915C48.9952 1.20765 47.7345 1.00057 46.4631 0.900058C46.3182 0.896962 46.1734 0.893867 46.0378 0.893867L46.0409 0.887676Z" fill="#1E1E1E"/>
<path d="M52.1401 7.56781C52.1401 7.56781 53.3575 9.58295 53.0647 9.98227C52.7719 10.3816 51.9028 10.0751 51.9028 10.0751" fill="white"/>
<path d="M52.547 10.3413C52.3142 10.3356 52.0836 10.295 51.8628 10.2206C51.8243 10.2066 51.7928 10.178 51.775 10.141C51.7572 10.104 51.7544 10.0615 51.7673 10.0225C51.7806 9.98408 51.8084 9.95247 51.8448 9.93452C51.8811 9.91656 51.923 9.91369 51.9614 9.92653C52.1618 9.99463 52.772 10.137 52.9507 9.89248C53.0678 9.72223 52.6425 8.67596 52.0077 7.64827C51.987 7.61282 51.9809 7.57068 51.9907 7.5308C52.0005 7.49092 52.0254 7.45645 52.0601 7.43468C52.0954 7.41395 52.1373 7.40784 52.177 7.41767C52.2167 7.42749 52.251 7.45247 52.2727 7.48731C52.6549 8.12187 53.5055 9.63865 53.1973 10.072C53.118 10.1655 53.0176 10.2387 52.9045 10.2856C52.7914 10.3324 52.6689 10.3515 52.547 10.3413Z" fill="white"/>
<path d="M51.9644 4.96127C52.7595 5.66703 52.4668 7.08475 52.4236 8.01339C52.3651 9.31658 52.2757 10.6229 52.1555 11.923C52.0784 12.7463 49.9458 12.6844 49.5759 12.4213L49.7855 15.7025C49.7855 15.7025 48.75 15.9471 47.0611 15.0834C45.3722 14.2198 45.3691 13.8081 45.3691 13.8081L45.6558 10.0409C45.6558 10.0409 47.0673 10.1059 47.9641 8.44985C48.8609 6.79378 48.9257 4.20288 48.9257 4.20288C48.9257 4.20288 51.1847 4.27098 51.9644 4.96127Z" fill="white"/>
<path d="M49.4006 15.8852C48.5555 15.854 47.7297 15.6228 46.9905 15.2104C45.3448 14.3653 45.2153 13.9134 45.2153 13.7958L45.5019 10.0162C45.5031 9.99626 45.5082 9.97676 45.5169 9.95881C45.5256 9.94086 45.5378 9.9248 45.5526 9.91157C45.5675 9.89834 45.5849 9.8882 45.6037 9.88172C45.6225 9.87523 45.6424 9.87255 45.6622 9.8738C45.7177 9.8738 46.9905 9.90785 47.8195 8.36322C48.6886 6.76287 48.7626 4.21221 48.7626 4.18744C48.7646 4.14632 48.7823 4.10755 48.8119 4.0791C48.8423 4.05141 48.8818 4.03598 48.9229 4.03577C49.0184 4.03577 51.2466 4.11934 52.0572 4.83749C52.7783 5.47516 52.6735 6.605 52.6057 7.51197C52.5903 7.68841 52.5749 7.85866 52.5688 8.01343C52.5102 9.31352 52.4177 10.6322 52.2975 11.9292C52.2824 12.0692 52.2276 12.202 52.1397 12.3117C52.0518 12.4214 51.9343 12.5035 51.8014 12.5483C51.1389 12.7872 50.4216 12.8281 49.7365 12.6659L49.9306 15.7026C49.933 15.7394 49.9222 15.7758 49.9001 15.8053C49.8781 15.8348 49.8463 15.8555 49.8105 15.8635C49.6749 15.8851 49.5376 15.8923 49.4006 15.8852ZM45.5266 13.7865C45.5513 13.8453 45.7516 14.226 47.1323 14.9349C48.4113 15.5911 49.2896 15.5911 49.6225 15.554L49.4283 12.4307C49.4258 12.4015 49.4318 12.3723 49.4454 12.3465C49.4591 12.3207 49.4799 12.2994 49.5053 12.2852C49.53 12.2701 49.5582 12.2622 49.587 12.2622C49.6158 12.2622 49.6441 12.2701 49.6687 12.2852C49.8721 12.4276 51.0525 12.539 51.6843 12.248C51.8846 12.1552 51.9924 12.0375 51.9924 11.8982C52.1096 10.6043 52.202 9.29186 52.2606 7.99486C52.2606 7.83699 52.2821 7.66365 52.2975 7.48411C52.3684 6.64524 52.4578 5.60207 51.8538 5.06655C51.2497 4.53104 49.5793 4.38246 49.0646 4.3515C49.0369 4.94583 48.8797 7.06003 48.0908 8.5087C47.3018 9.95738 46.1954 10.1431 45.7916 10.1741L45.5266 13.7865Z" fill="#1E1E1E"/>
<path d="M52.1616 10.9479C52.1616 10.9479 51.1291 11.5329 50.6206 10.465L52.1616 10.9479Z" fill="white"/>
<path d="M51.539 11.2606C51.4241 11.262 51.3097 11.2453 51.2 11.2111C51.0409 11.1545 50.8956 11.0645 50.7739 10.9471C50.6522 10.8296 50.5569 10.6875 50.4942 10.5301C50.4828 10.5115 50.4754 10.4907 50.4725 10.469C50.4697 10.4474 50.4714 10.4253 50.4776 10.4044C50.4839 10.3835 50.4944 10.3641 50.5087 10.3476C50.5229 10.331 50.5404 10.3177 50.5601 10.3085C50.5798 10.2992 50.6013 10.2943 50.623 10.294C50.6448 10.2936 50.6663 10.2979 50.6863 10.3066C50.7063 10.3153 50.7242 10.3281 50.7389 10.3442C50.7536 10.3603 50.7647 10.3793 50.7716 10.4001C50.8168 10.5181 50.8867 10.6251 50.9765 10.7137C51.0664 10.8023 51.1741 10.8706 51.2924 10.9139C51.5599 10.9804 51.8424 10.944 52.0845 10.8118C52.12 10.7917 52.1621 10.7866 52.2014 10.7977C52.2406 10.8087 52.274 10.8349 52.294 10.8706C52.3141 10.9068 52.3193 10.9495 52.3083 10.9894C52.2974 11.0294 52.2712 11.0634 52.2355 11.0842C52.0201 11.1965 51.7816 11.2569 51.539 11.2606Z" fill="#1E1E1E"/>
<path d="M49.4063 7.55537C49.3821 7.22727 49.268 6.91229 49.0766 6.64531C48.9587 6.4172 48.807 6.20845 48.6266 6.02621C48.5364 5.93732 48.4277 5.86957 48.3084 5.82783C48.189 5.78609 48.0619 5.77138 47.9363 5.78477C47.8262 5.80832 47.7224 5.85496 47.6316 5.92165C47.5408 5.98833 47.465 6.07354 47.4093 6.1717C47.3009 6.36899 47.2367 6.58767 47.2213 6.81246C47.1824 7.30284 47.272 7.79491 47.4812 8.2397C47.6905 8.68448 48.0121 9.06647 48.414 9.34764L48.3462 9.26716" fill="white"/>
<path d="M48.4142 9.50858C48.3832 9.50839 48.3531 9.49867 48.3279 9.48072C47.9031 9.18417 47.5634 8.78074 47.3427 8.31081C47.122 7.84089 47.0281 7.32098 47.0704 6.80315C47.086 6.55497 47.1577 6.31361 47.28 6.09739C47.3441 5.98118 47.4324 5.88015 47.5387 5.80112C47.645 5.72208 47.767 5.66689 47.8964 5.63926C48.0456 5.62047 48.1971 5.63577 48.3396 5.68401C48.482 5.73225 48.6118 5.81218 48.7193 5.91785C48.9094 6.10865 49.0704 6.32666 49.197 6.5648C49.4041 6.85657 49.5258 7.20078 49.5483 7.55844C49.546 7.59897 49.5285 7.63713 49.4993 7.66525C49.4702 7.69338 49.4315 7.70941 49.3911 7.71012C49.3709 7.70972 49.3509 7.70532 49.3324 7.69716C49.3138 7.68901 49.2971 7.67727 49.283 7.66261C49.269 7.64795 49.258 7.63066 49.2506 7.61172C49.2433 7.59279 49.2397 7.57258 49.2401 7.55225C49.216 7.25237 49.1093 6.96514 48.9319 6.72267C48.8207 6.5123 48.6795 6.31938 48.5128 6.15001C48.4396 6.07628 48.3511 6.01973 48.2536 5.98441C48.1561 5.94909 48.052 5.93587 47.9488 5.94571C47.8607 5.9635 47.7775 6.00042 47.7051 6.05389C47.6327 6.10736 47.5728 6.17609 47.5296 6.25526C47.4319 6.43221 47.375 6.62899 47.3632 6.83101C47.3293 7.26313 47.4008 7.69704 47.5716 8.09512C47.7424 8.4932 48.0073 8.84343 48.3433 9.11546C48.3846 9.11863 48.4231 9.13744 48.4511 9.16808L48.5189 9.24857C48.5436 9.27681 48.5573 9.31312 48.5573 9.35072C48.5573 9.38831 48.5436 9.42462 48.5189 9.45287C48.5062 9.46891 48.4904 9.48214 48.4723 9.49173C48.4543 9.50132 48.4345 9.50706 48.4142 9.50858Z" fill="#1E1E1E"/>
<path d="M49.576 12.4215C49.576 12.4215 48.485 12.0346 47.998 11.2514C47.998 11.2514 47.998 13.2418 49.6684 13.8825L49.576 12.4215Z" fill="#1E1E1E"/>
<path d="M49.6687 14.0279C49.6514 14.0311 49.6337 14.0311 49.6163 14.0279C47.8627 13.3562 47.8442 11.2729 47.8442 11.242C47.8439 11.2079 47.8548 11.1747 47.8751 11.1475C47.8955 11.1203 47.9242 11.1006 47.9568 11.0914C47.9895 11.0822 48.0242 11.0841 48.0557 11.0968C48.0871 11.1095 48.1136 11.1322 48.1309 11.1615C48.5808 11.8858 49.6194 12.2635 49.6287 12.2666C49.657 12.2768 49.6818 12.2952 49.6998 12.3194C49.7179 12.3436 49.7285 12.3726 49.7304 12.4028L49.8228 13.8638C49.8246 13.8899 49.8198 13.916 49.8091 13.9397C49.7983 13.9635 49.7819 13.9842 49.7612 14C49.7339 14.0185 49.7016 14.0282 49.6687 14.0279ZM48.2141 11.7465C48.2721 12.1376 48.418 12.5103 48.6407 12.8363C48.8633 13.1624 49.1569 13.4333 49.4992 13.6286L49.4283 12.5297C48.9797 12.3489 48.568 12.0866 48.2141 11.7558V11.7465Z" fill="#1E1E1E"/>
<path d="M51.6137 6.6548C51.6425 6.39828 51.5849 6.18117 51.4851 6.16987C51.3853 6.15858 51.2811 6.35737 51.2523 6.6139C51.2235 6.87042 51.2811 7.08753 51.3809 7.09882C51.4807 7.11012 51.5849 6.91132 51.6137 6.6548Z" fill="#1E1E1E"/>
<path d="M43.8807 46.7221C43.8625 46.7264 43.8435 46.7264 43.8252 46.7221C40.7279 45.3601 37.9018 40.0947 37.7847 39.8687C37.7761 39.8529 37.7707 39.8355 37.7688 39.8176C37.7669 39.7996 37.7686 39.7815 37.7738 39.7642C37.7789 39.7469 37.7875 39.7308 37.7989 39.7169C37.8103 39.703 37.8243 39.6914 37.8402 39.683C37.8725 39.6666 37.91 39.6635 37.9446 39.6745C37.9791 39.6855 38.008 39.7097 38.0251 39.7418C38.0528 39.7944 40.9252 45.1465 43.9331 46.4713C43.9629 46.4829 43.9876 46.5047 44.0029 46.5328C44.0183 46.5609 44.0232 46.5936 44.017 46.625C44.0107 46.6564 43.9936 46.6846 43.9687 46.7047C43.9438 46.7247 43.9126 46.7352 43.8807 46.7344V46.7221Z" fill="#1E1E1E"/>
</svg>
