<svg width="245" height="199" viewBox="0 0 245 199" fill="none" xmlns="http://www.w3.org/2000/svg">
<path d="M218.592 199C218.592 199 175.699 199 122.789 199C69.8779 199 26.9854 199 26.9854 199C26.9854 163.183 69.8779 134.148 122.789 134.148C175.699 134.148 218.592 163.183 218.592 199Z" fill="#231F20"/>
<path d="M189.021 97.1719C189.021 120.233 174.303 130.906 156.146 130.906C137.989 130.906 123.261 120.233 123.261 97.1719C123.261 74.1112 137.978 47.4006 156.146 47.4006C174.314 47.4006 189.021 74.1002 189.021 97.1719Z" fill="#148532"/>
<path d="M156.135 131.403C146.559 131.403 138.443 128.517 132.538 123.053C126.136 117.08 122.741 108.122 122.741 97.1719C122.898 85.2361 126.25 73.5606 132.449 63.3605C139.084 52.7316 147.477 46.8807 156.135 46.8807C164.793 46.8807 173.197 52.7316 179.809 63.3605C186.014 73.5584 189.367 85.2353 189.518 97.1719C189.518 108.122 186.123 117.08 179.721 123.053C173.827 128.517 165.722 131.403 156.135 131.403ZM156.135 47.8872C138.199 47.8872 123.758 74.8522 123.758 97.1719C123.758 113.231 132.261 130.353 156.135 130.353C180.009 130.353 188.501 113.187 188.501 97.1719C188.512 74.8854 174.071 47.8872 156.135 47.8872Z" fill="#231F20"/>
<path d="M157.285 68.2602L160.735 158.7H151.557L157.285 68.2602Z" fill="white"/>
<path d="M160.735 159.209H151.546C151.409 159.208 151.277 159.152 151.181 159.054C151.089 158.947 151.042 158.808 151.048 158.667L156.787 68.2492C156.793 68.1211 156.848 68.0001 156.941 67.9115C157.033 67.8229 157.157 67.7735 157.285 67.7736C157.414 67.7763 157.538 67.8281 157.63 67.9185C157.722 68.0089 157.777 68.1311 157.783 68.2603L161.221 158.711C161.225 158.778 161.215 158.845 161.192 158.907C161.169 158.97 161.134 159.028 161.089 159.076C160.992 159.163 160.865 159.211 160.735 159.209ZM152.088 158.203H160.204L157.163 78.2035L152.088 158.203Z" fill="#231F20"/>
<path d="M127.883 96.3312C127.995 98.5372 127.802 100.748 127.308 102.901C126.64 106.846 125.011 110.565 122.564 113.729C119.987 116.815 117.19 117.556 113.585 118.673C110.268 119.68 107.16 121.283 103.755 122.124C96.1128 123.971 88.1525 124.07 80.4673 122.411C73.7 120.929 67.1981 117.147 63.6707 111.185C60.1433 105.224 60.1986 96.9727 64.7765 91.7633C66.7447 89.5513 69.6971 85.7576 72.8264 85.7133C72.5279 83.6672 71.7207 81.6432 72.0745 79.4975C72.1747 78.4864 72.5622 77.5252 73.1912 76.7275C73.8202 75.9298 74.6644 75.3289 75.624 74.9959C76.3981 74.7968 77.4264 74.6752 77.5923 73.8899C77.6237 73.575 77.5821 73.257 77.4707 72.9608C76.5639 69.6427 78.6649 66.3246 80.8543 63.6038C82.173 61.8665 83.7815 60.3698 85.6091 59.1797C90.574 56.2155 99.9841 55.9722 104.595 59.412C106.149 60.5745 107.435 62.0567 108.368 63.7585C109.301 65.4603 109.858 67.3423 110.002 69.2777C109.87 67.3422 117.953 71.9765 118.649 73.5138C120.299 77.7159 120.362 82.3752 118.826 86.6203C122.387 86.3327 125.671 89.0646 126.998 92.3827C127.491 93.6465 127.789 94.9779 127.883 96.3312Z" fill="#148532"/>
<path d="M91.5251 124.082C87.7707 124.089 84.0263 123.693 80.3569 122.898C72.8156 121.261 66.579 117.08 63.2396 111.44C59.4137 104.969 59.9223 96.5525 64.3454 91.4315L64.9093 90.7901C66.8002 88.578 69.3324 85.6581 72.1963 85.2599C72.1189 84.8286 72.0194 84.3972 71.931 83.9659C71.5265 82.4906 71.388 80.955 71.5218 79.4311C71.6406 78.322 72.0744 77.2701 72.772 76.3999C73.4696 75.5296 74.4018 74.8774 75.4583 74.5204L75.779 74.4429C76.4756 74.277 76.9843 74.1332 77.0506 73.7904C77.0645 73.5954 77.0382 73.3996 76.9732 73.2152V73.1046C75.9559 69.3552 78.4771 65.7053 80.4564 63.2942C81.8181 61.4942 83.4788 59.9417 85.366 58.7041C90.2756 55.7842 99.8847 55.2533 104.916 58.9696C106.405 60.0812 107.66 61.4762 108.609 63.0743C109.558 64.6725 110.182 66.4424 110.445 68.2823C112.413 68.216 118.473 71.7995 119.136 73.2705C120.754 77.3576 120.91 81.8782 119.578 86.0673C123.227 86.1669 126.279 89.1089 127.496 92.1615C128.01 93.4857 128.32 94.8806 128.413 96.2981C128.534 98.5481 128.341 100.804 127.839 103.001C127.161 107.032 125.493 110.833 122.984 114.061C120.441 117.091 117.743 117.932 114.315 118.983L113.762 119.149C112.402 119.569 111.02 120.111 109.682 120.642C107.804 121.427 105.876 122.084 103.91 122.611C99.8564 123.601 95.6977 124.095 91.5251 124.082ZM95.3179 57.3769C92.0373 57.3033 88.7917 58.0645 85.8857 59.589C84.106 60.7645 82.5392 62.2344 81.2526 63.9357C79.417 66.1477 77.0728 69.5432 77.9353 72.7839C78.0625 73.1378 78.1078 73.516 78.0679 73.8899C77.8578 74.8853 76.7963 75.1397 76.0333 75.3167L75.7237 75.3941C74.8614 75.6986 74.1042 76.2437 73.5418 76.965C72.9794 77.6863 72.6353 78.5536 72.5502 79.4643C72.4269 80.8698 72.558 82.2861 72.9372 83.6451C73.0699 84.2755 73.2136 84.906 73.3021 85.5364C73.3127 85.6094 73.3073 85.6837 73.2863 85.7544C73.2653 85.8251 73.2292 85.8903 73.1805 85.9456C73.1329 85.9989 73.0751 86.042 73.0105 86.0725C72.9459 86.1029 72.8758 86.1199 72.8045 86.1226C70.1838 86.1226 67.5853 89.1642 65.6944 91.3541L65.1305 91.9956C60.9175 96.7958 60.4752 104.715 64.0911 110.798C67.2757 116.207 73.28 120.21 80.5559 121.792C88.1648 123.428 96.0437 123.333 103.611 121.516C105.53 120.99 107.414 120.344 109.251 119.58C110.611 119.049 112.004 118.474 113.408 118.065L113.961 117.899C117.278 116.892 119.811 116.096 122.155 113.287C124.556 110.19 126.152 106.545 126.799 102.68C127.277 100.573 127.463 98.4111 127.352 96.2538C127.27 94.938 126.982 93.6431 126.501 92.4159C125.339 89.496 122.332 86.6867 118.838 86.9632C118.753 86.9695 118.668 86.9545 118.591 86.9198C118.514 86.885 118.447 86.8315 118.395 86.7641C118.347 86.696 118.315 86.6172 118.304 86.5344C118.292 86.4516 118.301 86.3673 118.329 86.2885C119.822 82.1696 119.763 77.6478 118.163 73.5692C117.61 72.3415 111.639 68.9239 110.423 69.1451C110.405 69.2657 110.344 69.3759 110.252 69.4555C110.159 69.5352 110.042 69.579 109.92 69.579C109.798 69.579 109.68 69.5352 109.587 69.4555C109.495 69.3759 109.434 69.2657 109.416 69.1451C109.282 67.2829 108.748 65.4715 107.851 63.834C106.954 62.1965 105.716 60.7713 104.219 59.6553C101.551 58.0123 98.4472 57.2178 95.3179 57.3769Z" fill="#231F20"/>
<path d="M113.43 85.5696L98.2371 95.6345L97.4631 70.3285L95.9924 75.8476L95.6607 103.764L78.9526 88.9762L78.7535 90.5799L95.4949 106.761L93.4271 145.306H99.7631L98.3809 100.225L112.026 88.9762L113.43 85.5696Z" fill="white"/>
<path d="M99.7407 145.815H93.4047C93.2914 145.804 93.1857 145.753 93.1061 145.671C93.0107 145.57 92.959 145.435 92.9624 145.295L94.9859 106.96L78.3994 90.9449C78.3443 90.8886 78.3028 90.8205 78.2779 90.7458C78.253 90.6711 78.2454 90.5917 78.2557 90.5136L78.4547 88.9098C78.4652 88.8187 78.5008 88.7322 78.5574 88.66C78.614 88.5878 78.6894 88.5326 78.7754 88.5006C78.8626 88.4666 78.9576 88.4579 79.0495 88.4755C79.1415 88.4931 79.2266 88.5363 79.2951 88.6001L95.1628 102.647L95.4835 75.8366C95.4773 75.7962 95.4773 75.7552 95.4835 75.7149L96.9431 70.1847C96.9765 70.0679 97.0506 69.9668 97.152 69.8999C97.2534 69.8329 97.3755 69.8045 97.496 69.8198C97.6172 69.8308 97.7299 69.8869 97.8118 69.977C97.8937 70.0671 97.9388 70.1847 97.9383 70.3064L98.6902 94.7054L113.132 85.1383C113.219 85.0769 113.323 85.0439 113.43 85.0439C113.537 85.0439 113.641 85.0769 113.729 85.1383C113.814 85.2067 113.874 85.3012 113.9 85.4071C113.925 85.513 113.916 85.6245 113.872 85.7245L112.468 89.131C112.441 89.2102 112.391 89.2795 112.324 89.3301L98.8672 100.39L100.249 145.229C100.251 145.296 100.239 145.363 100.214 145.426C100.189 145.488 100.153 145.546 100.106 145.594C100.064 145.654 100.01 145.705 99.9469 145.744C99.884 145.782 99.8137 145.806 99.7407 145.815ZM93.9354 144.809H99.221L97.8498 100.247C97.8493 100.169 97.8658 100.092 97.8983 100.021C97.9308 99.9504 97.9784 99.8877 98.0378 99.8374L111.583 88.6665L112.313 86.8969L98.4912 96.0548C98.4135 96.0984 98.3259 96.1213 98.2369 96.1213C98.1478 96.1213 98.0602 96.0984 97.9825 96.0548C97.9023 96.0111 97.8347 95.9474 97.7862 95.8699C97.7378 95.7924 97.7102 95.7037 97.7061 95.6124L97.0648 73.7793L96.5008 75.9029L96.1691 103.753C96.1645 103.851 96.1332 103.946 96.0787 104.028C96.0241 104.11 95.9484 104.175 95.8595 104.217C95.7718 104.255 95.6752 104.267 95.5811 104.251C95.487 104.235 95.3994 104.193 95.3287 104.129L79.3393 89.9716L79.284 90.3808L95.8705 106.385C95.924 106.434 95.9658 106.494 95.9926 106.561C96.0194 106.628 96.0306 106.7 96.0253 106.772L93.9354 144.809Z" fill="#231F20"/>
<path d="M157.009 126.648C157.009 146.998 144.79 156.411 129.707 156.411C114.624 156.411 102.406 146.998 102.406 126.648C102.406 106.297 114.636 82.7271 129.707 82.7271C144.779 82.7271 157.009 106.308 157.009 126.648Z" fill="#148532"/>
<path d="M129.707 156.92C109.206 156.92 101.953 141.247 101.953 126.648C102.056 116.169 104.831 105.891 110.014 96.7847C115.543 87.3835 122.531 82.1962 129.752 82.1962C136.972 82.1962 143.972 87.4056 149.501 96.8068C154.687 105.912 157.465 116.191 157.573 126.67C157.517 141.247 150.208 156.92 129.707 156.92ZM129.707 83.2359C114.868 83.2359 102.915 106.982 102.915 126.648C102.915 144.698 113.176 155.902 129.707 155.902C146.239 155.902 156.5 144.698 156.5 126.648C156.5 106.96 144.547 83.2359 129.707 83.2359Z" fill="#231F20"/>
<path d="M63.9029 133.461L49.9481 148.989H96.3793L82.4356 133.461H92.2547L80.5336 117.047H88.3182L73.1692 90.3145L58.0202 117.047H65.8048L54.0726 133.461H63.9029Z" fill="#148532"/>
<path d="M96.4237 149.487H49.9815C49.8845 149.49 49.7891 149.462 49.708 149.409C49.627 149.355 49.5642 149.279 49.5281 149.188C49.4852 149.101 49.4696 149.002 49.4834 148.906C49.4972 148.809 49.5398 148.719 49.6055 148.646L62.8084 133.969H54.0728C53.981 133.968 53.8914 133.941 53.8135 133.892C53.7357 133.844 53.6724 133.775 53.6305 133.693C53.5817 133.613 53.5558 133.521 53.5558 133.428C53.5558 133.334 53.5817 133.242 53.6305 133.162L64.7877 117.545H57.9872C57.8985 117.548 57.8107 117.526 57.7329 117.484C57.6552 117.441 57.5903 117.378 57.5449 117.302C57.5013 117.224 57.4784 117.136 57.4784 117.047C57.4784 116.958 57.5013 116.871 57.5449 116.793L72.6939 90.0712C72.7423 89.9981 72.8081 89.9383 72.8852 89.8968C72.9624 89.8554 73.0487 89.8337 73.1362 89.8337C73.2238 89.8337 73.31 89.8554 73.3872 89.8968C73.4644 89.9383 73.5301 89.9981 73.5785 90.0712L88.7275 116.793C88.7696 116.87 88.7909 116.957 88.7894 117.045C88.788 117.132 88.7638 117.218 88.7193 117.294C88.6747 117.37 88.6114 117.433 88.5353 117.477C88.4592 117.521 88.3731 117.544 88.2852 117.545H81.4848L92.642 133.162C92.6934 133.239 92.7231 133.329 92.7281 133.422C92.733 133.515 92.713 133.607 92.6701 133.69C92.6272 133.772 92.563 133.842 92.4841 133.891C92.4053 133.94 92.3147 133.967 92.2218 133.969H83.5304L96.7222 148.646C96.7873 148.719 96.8302 148.808 96.8459 148.904C96.8615 149.001 96.8493 149.099 96.8107 149.188C96.7773 149.267 96.7242 149.336 96.6564 149.389C96.5886 149.441 96.5084 149.475 96.4237 149.487ZM51.0873 148.481H95.2516L82.0487 133.804C81.9839 133.729 81.9413 133.637 81.9256 133.54C81.91 133.442 81.922 133.342 81.9603 133.251C82.0007 133.161 82.0661 133.086 82.1484 133.033C82.2308 132.98 82.3267 132.952 82.4247 132.952H91.2708L80.1136 117.335C80.0657 117.257 80.0404 117.167 80.0404 117.075C80.0404 116.983 80.0657 116.893 80.1136 116.815C80.1574 116.732 80.2225 116.663 80.3023 116.614C80.3821 116.566 80.4736 116.54 80.567 116.538H87.4891L73.2026 91.3431L58.9161 116.538H65.8382C65.9315 116.536 66.0236 116.561 66.1038 116.608C66.1841 116.656 66.2492 116.725 66.2919 116.809C66.3346 116.892 66.353 116.985 66.3451 117.078C66.3373 117.171 66.3034 117.26 66.2473 117.335L55.057 132.952H63.9031C64.0017 132.952 64.0982 132.981 64.1809 133.034C64.2635 133.088 64.3287 133.165 64.3686 133.255C64.4084 133.345 64.4211 133.445 64.4052 133.543C64.3894 133.64 64.3455 133.731 64.279 133.804L51.0873 148.481Z" fill="#231F20"/>
<path d="M74.5628 165.215H70.2172L73.1696 100.556L74.5628 165.215Z" fill="white"/>
<path d="M74.5626 165.713H70.2169C70.0935 165.712 69.9749 165.665 69.8852 165.58C69.8383 165.532 69.8014 165.474 69.7767 165.412C69.7521 165.349 69.7401 165.282 69.7414 165.215L72.6938 100.556C72.7023 100.427 72.7596 100.306 72.8541 100.218C72.9486 100.129 73.0731 100.08 73.2025 100.081C73.3337 100.081 73.4598 100.131 73.5546 100.222C73.6493 100.313 73.7055 100.436 73.7112 100.567L75.1044 165.226C75.1058 165.293 75.0938 165.36 75.0691 165.423C75.0444 165.485 75.0076 165.543 74.9607 165.591C74.9056 165.636 74.8421 165.671 74.7738 165.691C74.7055 165.712 74.6337 165.719 74.5626 165.713ZM70.7477 164.706H74.065L72.9592 115.576L70.7477 164.706Z" fill="#231F20"/>
<path d="M207.531 134.832C208.18 136.242 208.529 137.772 208.553 139.324C208.578 140.876 208.279 142.416 207.675 143.846C205.364 149.166 199.382 153.447 195.003 156.975C186.389 163.899 173.993 164.208 164.406 159.065C160.711 156.952 157.356 154.293 154.454 151.179C152.674 149.522 151.18 147.583 150.031 145.439C149.007 143.194 148.646 140.702 148.991 138.259C149.336 135.815 150.372 133.521 151.977 131.647C152.563 130.983 154.277 130.187 154.62 129.49C155.284 128.163 154.421 128.384 154.366 126.957C154.266 124.513 153.89 122.765 154.919 120.321C155.554 118.546 156.71 117.004 158.236 115.897C159.74 114.968 162.526 116.118 163.4 115.477C164.45 114.714 164.318 110.865 165.766 109.449C166.61 108.647 167.64 108.067 168.763 107.762C169.887 107.457 171.068 107.436 172.202 107.701C170.654 103.974 174.082 99.5831 178.062 98.9526C182.043 98.3222 186.002 100.435 188.998 103.144C192.437 106.263 195.191 111.008 193.742 115.421C194.262 113.84 201.836 119.315 202.4 119.967C205.397 123.418 204.844 126.891 203.296 131.027C204.224 131.339 205.079 131.837 205.807 132.491C206.536 133.146 207.122 133.942 207.531 134.832Z" fill="#148532"/>
<path d="M178.416 163.102C173.442 163.097 168.546 161.862 164.163 159.508C160.444 157.356 157.061 154.669 154.123 151.533C152.304 149.834 150.773 147.85 149.589 145.66C148.517 143.321 148.138 140.723 148.496 138.175C148.855 135.626 149.936 133.234 151.613 131.282C152 130.91 152.427 130.58 152.884 130.297C153.379 130.01 153.817 129.635 154.178 129.191C154.454 128.638 154.399 128.539 154.244 128.24C154.014 127.831 153.885 127.372 153.868 126.902C153.868 126.46 153.868 126.039 153.802 125.641C153.541 123.771 153.77 121.866 154.465 120.111C155.14 118.227 156.39 116.602 158.037 115.466C159.11 114.978 160.311 114.846 161.465 115.09C162.025 115.219 162.608 115.219 163.168 115.09C163.591 114.42 163.859 113.664 163.953 112.878C164.008 111.974 164.257 111.093 164.683 110.295C165.11 109.497 165.703 108.8 166.423 108.252C167.143 107.704 167.973 107.318 168.856 107.12C169.738 106.922 170.653 106.916 171.538 107.104C171.203 105.572 171.464 103.97 172.268 102.625C172.868 101.553 173.698 100.627 174.698 99.9141C175.698 99.2008 176.843 98.7176 178.051 98.4991C182.928 97.7249 187.251 100.866 189.397 102.813C192.57 105.688 195.456 110.223 194.538 114.702C196.905 115.012 202.489 119.27 202.843 119.68C205.828 123.108 205.519 126.603 204.015 130.74C205.774 131.501 207.189 132.888 207.985 134.633C208.66 136.11 209.023 137.71 209.05 139.334C209.076 140.958 208.766 142.57 208.139 144.068C206.038 148.901 200.952 152.916 196.872 156.156L195.312 157.395C190.493 161.164 184.533 163.178 178.416 163.102ZM160.027 116.052C159.522 116.025 159.019 116.132 158.568 116.361C157.107 117.397 155.999 118.856 155.394 120.542C154.758 122.166 154.556 123.927 154.808 125.652C154.808 126.061 154.864 126.493 154.886 126.935C154.889 127.258 154.977 127.574 155.14 127.853C155.315 128.136 155.404 128.464 155.394 128.796C155.384 129.129 155.277 129.451 155.085 129.722C154.654 130.319 154.095 130.81 153.448 131.16C153.053 131.395 152.682 131.669 152.342 131.979C150.791 133.779 149.79 135.987 149.458 138.34C149.127 140.694 149.479 143.092 150.474 145.251C151.614 147.34 153.081 149.233 154.819 150.859C157.688 153.925 160.993 156.553 164.627 158.656C174.502 163.943 186.577 163.08 194.66 156.61L196.219 155.371C200.432 152.053 205.187 148.27 207.188 143.68C207.761 142.317 208.045 140.849 208.022 139.37C207.999 137.89 207.67 136.432 207.056 135.087C206.689 134.26 206.157 133.519 205.491 132.908C204.825 132.297 204.04 131.83 203.186 131.536C203.12 131.514 203.06 131.48 203.009 131.434C202.958 131.388 202.916 131.333 202.887 131.271C202.838 131.143 202.838 131.001 202.887 130.873C204.457 126.758 204.866 123.562 202.08 120.365C200.344 118.374 194.616 115.598 194.229 115.72C194.211 115.781 194.18 115.837 194.138 115.885C194.097 115.933 194.046 115.972 193.989 115.999C193.931 116.026 193.869 116.041 193.806 116.042C193.742 116.044 193.679 116.032 193.621 116.008C193.495 115.954 193.395 115.854 193.342 115.728C193.288 115.602 193.285 115.461 193.333 115.333C194.738 111.03 191.874 106.485 188.722 103.587C186.71 101.762 182.674 98.8199 178.206 99.5167C177.149 99.7166 176.148 100.145 175.274 100.771C174.399 101.398 173.672 102.208 173.142 103.144C172.74 103.801 172.494 104.542 172.423 105.309C172.352 106.076 172.458 106.849 172.733 107.569C172.769 107.656 172.781 107.751 172.768 107.845C172.754 107.938 172.715 108.026 172.655 108.099C172.592 108.168 172.511 108.218 172.422 108.245C172.332 108.272 172.238 108.276 172.147 108.254C171.096 108.012 170.002 108.033 168.962 108.317C167.922 108.601 166.968 109.138 166.187 109.88C165.532 110.837 165.119 111.937 164.981 113.088C164.694 114.36 164.451 115.455 163.809 115.919C163.057 116.262 162.212 116.34 161.41 116.14C160.951 116.087 160.489 116.057 160.027 116.052Z" fill="#231F20"/>
<path d="M192.913 129.114L178.848 138.427L178.129 115.012L176.78 120.111L176.47 145.948L161.012 132.266L160.824 133.748L176.315 148.724L174.402 184.404H180.263L178.98 142.685L191.619 132.266L192.913 129.114Z" fill="white"/>
<path d="M180.263 184.902H174.402C174.334 184.903 174.266 184.89 174.203 184.864C174.14 184.837 174.084 184.797 174.037 184.747C173.987 184.699 173.948 184.64 173.924 184.575C173.899 184.51 173.888 184.441 173.893 184.371L175.806 148.978L160.469 134.158C160.415 134.103 160.373 134.037 160.348 133.964C160.323 133.891 160.315 133.814 160.326 133.737L160.514 132.244C160.524 132.153 160.56 132.067 160.616 131.995C160.673 131.923 160.748 131.868 160.834 131.836C160.92 131.804 161.012 131.796 161.102 131.814C161.192 131.831 161.275 131.873 161.343 131.934L175.972 144.886L176.271 120.155C176.265 120.115 176.265 120.074 176.271 120.034L177.62 114.924C177.654 114.809 177.728 114.71 177.829 114.644C177.929 114.579 178.05 114.551 178.169 114.565C178.288 114.58 178.398 114.636 178.48 114.724C178.561 114.812 178.609 114.925 178.615 115.045L179.312 137.553L192.581 128.705C192.667 128.64 192.772 128.605 192.879 128.605C192.987 128.605 193.092 128.64 193.178 128.705C193.264 128.77 193.324 128.863 193.35 128.967C193.377 129.072 193.366 129.182 193.322 129.28L192.028 132.432C191.997 132.509 191.948 132.578 191.884 132.631L179.444 142.895L180.771 184.382C180.775 184.45 180.764 184.517 180.739 184.58C180.714 184.643 180.676 184.7 180.628 184.747C180.581 184.797 180.524 184.836 180.461 184.863C180.398 184.889 180.331 184.903 180.263 184.902ZM174.933 183.896H179.743L178.482 142.696C178.477 142.619 178.49 142.541 178.521 142.47C178.552 142.399 178.599 142.336 178.659 142.287L191.199 131.957L191.818 130.441L179.135 138.847C179.057 138.896 178.967 138.922 178.875 138.922C178.783 138.922 178.693 138.896 178.615 138.847C178.537 138.805 178.471 138.742 178.425 138.667C178.378 138.591 178.352 138.505 178.35 138.416L177.73 118.441L177.277 120.155L176.979 145.926C176.976 146.023 176.945 146.117 176.89 146.198C176.835 146.278 176.758 146.341 176.669 146.379C176.581 146.417 176.485 146.429 176.391 146.413C176.296 146.397 176.209 146.355 176.138 146.291L161.387 133.284V133.56L176.702 148.359C176.755 148.41 176.797 148.472 176.823 148.541C176.85 148.61 176.861 148.683 176.857 148.757L174.933 183.896Z" fill="#231F20"/>
<path d="M130.26 95.3912L131.941 173.731H127.484L130.26 95.3912Z" fill="white"/>
<path d="M131.93 174.24H127.507C127.438 174.241 127.371 174.227 127.308 174.201C127.245 174.174 127.189 174.135 127.142 174.085C127.094 174.035 127.057 173.976 127.032 173.912C127.007 173.847 126.996 173.778 126.998 173.709L129.784 95.3691C129.79 95.2399 129.845 95.1177 129.937 95.0273C130.029 94.9369 130.153 94.8851 130.282 94.8824C130.414 94.8824 130.541 94.9349 130.634 95.0282C130.727 95.1216 130.78 95.2481 130.78 95.3801L132.449 173.72C132.451 173.788 132.439 173.854 132.414 173.917C132.389 173.98 132.353 174.037 132.306 174.085C132.258 174.137 132.2 174.177 132.135 174.204C132.07 174.231 132 174.243 131.93 174.24ZM128.004 173.223H131.421L130.138 113.176L128.004 173.223Z" fill="#231F20"/>
<circle cx="51" cy="80" r="3" fill="#8E59FF"/>
<circle cx="199" cy="60" r="6" fill="#8E59FF"/>
</svg>
