<svg width="24" height="24" viewBox="0 0 24 24" fill="none" xmlns="http://www.w3.org/2000/svg">
<path d="M12 22C11.55 22 11.1542 21.8917 10.8125 21.675C10.4708 21.4583 10.25 21.1583 10.15 20.775H9.8C9.4 20.775 9.05 20.625 8.75 20.325C8.45 20.025 8.3 19.675 8.3 19.275V15.7C7.2 14.9833 6.33333 14.0667 5.7 12.95C5.06667 11.8333 4.75 10.6 4.75 9.25C4.75 7.23333 5.45417 5.52083 6.8625 4.1125C8.27083 2.70417 9.98333 2 12 2C14.0167 2 15.7292 2.70417 17.1375 4.1125C18.5458 5.52083 19.25 7.23333 19.25 9.25C19.25 10.6 18.9333 11.8333 18.3 12.95C17.6667 14.0667 16.8 14.9833 15.7 15.7V19.275C15.7 19.675 15.55 20.025 15.25 20.325C14.95 20.625 14.6 20.775 14.2 20.775H13.85C13.75 21.1583 13.5292 21.4583 13.1875 21.675C12.8458 21.8917 12.45 22 12 22ZM9.8 19.275H14.2V18.175H9.8V19.275ZM9.8 17.175H14.2V16.175H9.8V17.175ZM9.575 14.675H11.425V11.25L9.5 9.325C9.4 9.225 9.35 9.1 9.35 8.95C9.35 8.8 9.40833 8.66667 9.525 8.55C9.64167 8.43333 9.77272 8.375 9.91817 8.375C10.0636 8.375 10.1909 8.43333 10.3 8.55L12 10.275L13.725 8.55C13.825 8.45 13.95 8.4 14.1 8.4C14.25 8.4 14.3833 8.45833 14.5 8.575C14.6167 8.69167 14.675 8.81667 14.675 8.95C14.675 9.08333 14.6167 9.20833 14.5 9.325L12.575 11.25V14.675H14.425C15.425 14.2083 16.2292 13.4833 16.8375 12.5C17.4458 11.5167 17.75 10.4333 17.75 9.25C17.75 7.63333 17.1958 6.27083 16.0875 5.1625C14.9792 4.05417 13.6167 3.5 12 3.5C10.3833 3.5 9.02083 4.05417 7.9125 5.1625C6.80417 6.27083 6.25 7.63333 6.25 9.25C6.25 10.4333 6.55417 11.5167 7.1625 12.5C7.77083 13.4833 8.575 14.2083 9.575 14.675Z" fill="#148532"/>
</svg>
