<svg width="276" height="281" viewBox="0 0 276 281" fill="none" xmlns="http://www.w3.org/2000/svg">
<path d="M32.289 266.315C38.308 271.356 45.849 274.205 53.367 276.5C56.5148 277.469 59.6973 278.346 62.8913 279.142H201.962C204.326 279.142 210.033 271.344 211.186 269.153C213.934 263.242 215.018 256.694 214.323 250.212C213.32 242.334 208.488 235.217 208.039 227.304C207.75 222.229 209.284 217.188 209.192 212.101C208.926 201.086 200.048 192.066 190.65 187.371C184.989 184.533 179.927 175.017 178.497 169.169C176.698 161.81 174.046 157.876 169.273 151.659C168.199 150.342 167.231 148.942 166.378 147.472C164.142 143.377 163.784 138.556 162.481 134.08C162.025 132.165 161.12 130.386 159.841 128.889C157.91 127.054 155.344 126.037 152.68 126.052C148.183 125.913 146.65 127.482 143.006 124.898C140.308 122.995 139.247 119.938 135.661 119.131C131.9 118.274 127.997 118.242 124.223 119.038C120.448 119.833 116.89 121.437 113.794 123.738C110.697 126.04 108.136 128.985 106.286 132.371C104.436 135.757 103.34 139.504 103.075 143.354C102.914 145.661 103.075 148.06 102.084 150.16C101.092 152.259 99.3626 153.62 98.1634 155.535C94.4505 161.302 97.1487 169.134 95.0155 175.663C93.0323 181.765 87.2093 185.721 81.4325 188.501C75.6557 191.281 69.3945 193.461 64.7938 197.937C57.6679 204.858 55.4656 216.485 46.8176 221.387C35.9788 227.535 24.0562 230.834 22.7186 245.748C21.9461 253.615 26.2701 261.263 32.289 266.315Z" fill="white"/>
<path d="M201.962 279.718H62.7527C59.4204 278.876 56.2034 277.988 53.1939 277.065C46.1948 274.92 38.2041 272.025 31.9199 266.765C25.0938 260.997 21.404 253.177 22.0728 245.748C23.2258 233.002 31.8738 228.55 41.0291 223.832C42.8163 222.921 44.6612 221.964 46.46 220.948C51.3028 218.203 54.0356 213.347 56.9298 208.26C59.0514 204.511 61.2307 200.636 64.3324 197.625C68.0222 194.026 72.7959 191.858 77.4081 189.793C78.6534 189.239 79.8872 188.64 81.1095 188.086C88.466 184.545 92.813 180.461 94.4043 175.594C95.1524 172.762 95.4673 169.834 95.3382 166.908C95.3382 162.905 95.3959 158.764 97.6443 155.373C98.1652 154.596 98.7393 153.856 99.3624 153.158C100.221 152.23 100.95 151.191 101.53 150.067C102.142 148.423 102.435 146.677 102.395 144.923C102.395 144.438 102.395 143.942 102.464 143.458C102.834 138.941 104.295 134.581 106.722 130.754C109.148 126.926 112.467 123.745 116.393 121.484C122.286 118.209 129.176 117.216 135.753 118.693C137.799 119.264 139.594 120.507 140.85 122.222C141.578 123.082 142.402 123.856 143.306 124.529C144.112 125.155 145.05 125.589 146.048 125.801C147.047 126.013 148.08 125.996 149.071 125.752C150.282 125.593 151.504 125.527 152.726 125.556C155.541 125.526 158.255 126.608 160.279 128.566C161.624 130.125 162.577 131.984 163.057 133.988C163.496 135.499 163.83 137.056 164.153 138.602C164.655 141.616 165.583 144.545 166.909 147.299C167.748 148.738 168.696 150.111 169.745 151.405C174.357 157.334 177.217 161.475 179.085 169.134C180.446 174.671 185.45 184.21 190.95 186.955C199.875 191.419 209.514 200.393 209.803 212.194C209.803 214.65 209.61 217.103 209.226 219.53C208.798 222.121 208.617 224.748 208.684 227.373C208.915 231.503 210.414 235.517 211.855 239.404C213.3 242.888 214.341 246.526 214.957 250.247C215.669 256.839 214.564 263.501 211.763 269.51C210.644 271.471 204.741 279.718 201.962 279.718ZM62.9603 278.565H201.962C203.841 278.565 209.399 271.379 210.644 268.887C213.345 263.081 214.409 256.648 213.723 250.281C213.11 246.652 212.089 243.104 210.679 239.704C209.203 235.736 207.681 231.63 207.439 227.339C207.373 224.636 207.558 221.933 207.992 219.264C208.371 216.896 208.56 214.5 208.557 212.101C208.281 200.82 198.964 192.192 190.339 187.878C184.458 184.925 179.316 175.19 177.874 169.296C176.122 162.109 173.62 158.338 168.742 151.993C167.654 150.648 166.671 149.222 165.802 147.726C164.415 144.878 163.452 141.843 162.942 138.717C162.619 137.229 162.285 135.683 161.858 134.218C161.42 132.397 160.563 130.702 159.356 129.27C157.54 127.531 155.113 126.578 152.599 126.617C151.443 126.591 150.286 126.657 149.14 126.813C148.019 127.066 146.857 127.068 145.735 126.821C144.613 126.574 143.559 126.083 142.648 125.383C141.668 124.653 140.777 123.809 139.996 122.868C138.891 121.338 137.309 120.218 135.499 119.685C129.2 118.281 122.604 119.233 116.958 122.361C113.198 124.529 110.021 127.577 107.697 131.243C105.373 134.91 103.973 139.085 103.617 143.412C103.617 143.885 103.56 144.369 103.548 144.853C103.577 146.755 103.249 148.645 102.579 150.425C101.97 151.642 101.194 152.768 100.273 153.77C99.6918 154.438 99.149 155.139 98.6475 155.869C96.6181 159.03 96.5951 162.79 96.5605 166.839C96.6893 169.882 96.3549 172.928 95.5688 175.87C93.8738 181.05 89.3308 185.364 81.7321 189.043C80.4983 189.632 79.253 190.197 77.9962 190.762C73.4647 192.804 68.7717 194.914 65.2433 198.363C62.2684 201.259 60.1238 205.065 58.0483 208.745C55.2002 213.797 52.2829 219.011 47.1403 221.917C45.33 222.944 43.4736 223.901 41.6748 224.824C32.8078 229.438 24.3789 233.706 23.3411 245.817C22.7185 252.738 26.3276 260.444 32.7732 265.842C38.8844 270.975 46.7598 273.824 53.6551 275.935C56.5032 276.881 59.6741 277.746 62.9603 278.565Z" fill="#231F20"/>
<path d="M137.056 102.533C133.758 102.164 130.46 101.656 127.151 101.448C121.628 101.125 118.468 98.1148 117.777 92.878C116.716 84.8037 113.164 77.8021 108.933 70.9619C102.601 61.2036 100.38 49.3383 102.752 37.9494C107.549 14.3492 128.304 2.05308 152.518 7.15145C188.263 14.6721 194.317 53.1983 172.535 77.0638C166.655 83.5118 161.005 89.7521 157.892 98.0918C156.151 102.706 152.392 104.459 147.445 103.721C144.009 103.213 140.527 102.925 137.056 102.533Z" fill="white"/>
<path d="M149.52 104.459C148.803 104.455 148.086 104.401 147.376 104.298C145.07 103.94 142.602 103.698 140.273 103.456L136.998 103.11L133.954 102.706C131.717 102.418 129.342 102.129 127.116 101.991C121.351 101.645 117.892 98.5303 117.212 92.9129C116.059 84.3541 112.15 77.1448 108.448 71.216C102.063 61.3161 99.815 49.3053 102.187 37.7651C104.493 26.5648 110.328 17.6253 119.068 11.8925C128.293 5.82522 140.238 3.93352 152.645 6.54038C168.35 9.85086 179.431 19.2286 183.859 32.9551C188.632 47.7888 184.458 64.8141 172.974 77.3986C167.381 83.5351 161.593 89.8677 158.445 98.2535C157.845 100.124 156.646 101.746 155.033 102.867C153.42 103.989 151.483 104.548 149.52 104.459ZM137.125 101.956C138.209 102.083 139.304 102.198 140.388 102.302C142.694 102.544 145.162 102.798 147.549 103.156C152.403 103.871 155.793 102.002 157.361 97.8959C160.59 89.3025 166.447 82.9007 172.12 76.6719C183.328 64.3874 187.41 47.8349 182.763 33.3588C178.474 20.0361 167.693 10.9351 152.415 7.71693C140.296 5.16774 128.685 7.0133 119.702 12.896C111.216 18.4558 105.554 27.1531 103.306 38.0419C102.132 43.6104 102.067 49.3559 103.116 54.9494C104.165 60.5429 106.306 65.8746 109.417 70.6392C113.199 76.6719 117.212 84.0196 118.353 92.7976C119.01 97.8498 121.985 100.572 127.186 100.872C129.492 101.01 131.798 101.299 134.104 101.587L137.125 101.945V101.956Z" fill="#231F20"/>
<path d="M150.328 104.054L123.65 101.075C121.258 100.807 119.102 102.531 118.835 104.924L118.682 106.3C118.414 108.693 120.137 110.849 122.53 111.117L149.207 114.096C151.599 114.363 153.755 112.64 154.022 110.246L154.176 108.871C154.443 106.478 152.72 104.321 150.328 104.054Z" fill="white"/>
<path d="M149.705 114.713C149.517 114.725 149.328 114.725 149.14 114.713L122.447 111.737C121.804 111.665 121.182 111.467 120.616 111.155C120.051 110.842 119.552 110.421 119.149 109.915C118.74 109.41 118.437 108.828 118.256 108.204C118.076 107.58 118.023 106.926 118.1 106.281L118.25 104.897C118.398 103.597 119.052 102.407 120.072 101.587C120.578 101.182 121.16 100.881 121.784 100.703C122.407 100.525 123.06 100.472 123.704 100.548L150.397 103.524C151.694 103.672 152.88 104.328 153.695 105.348C154.509 106.369 154.887 107.671 154.744 108.969L154.594 110.364C154.523 111.007 154.325 111.63 154.012 112.196C153.699 112.762 153.278 113.261 152.772 113.663C151.9 114.354 150.818 114.724 149.705 114.713ZM149.267 113.56C150.262 113.67 151.261 113.381 152.043 112.756C152.825 112.131 153.328 111.221 153.441 110.226L153.603 108.83C153.657 108.338 153.614 107.841 153.476 107.365C153.337 106.89 153.106 106.447 152.796 106.062C152.489 105.67 152.106 105.345 151.67 105.105C151.234 104.865 150.754 104.716 150.259 104.666L123.577 101.679C123.083 101.621 122.583 101.663 122.106 101.801C121.629 101.94 121.184 102.173 120.798 102.486C120.407 102.791 120.082 103.172 119.842 103.606C119.602 104.04 119.453 104.519 119.403 105.012L119.241 106.408C119.14 107.393 119.429 108.378 120.046 109.152C120.662 109.926 121.557 110.427 122.539 110.549L149.267 113.56Z" fill="#231F20"/>
<path d="M149.209 114.099L122.531 111.119C120.139 110.852 117.983 112.576 117.716 114.969L117.563 116.345C117.296 118.738 119.018 120.894 121.411 121.162L148.088 124.141C150.481 124.408 152.636 122.685 152.904 120.291L153.057 118.916C153.324 116.523 151.601 114.366 149.209 114.099Z" fill="white"/>
<path d="M148.575 124.76C148.391 124.772 148.206 124.772 148.022 124.76L121.386 121.75C120.086 121.602 118.897 120.947 118.077 119.927C117.673 119.42 117.373 118.838 117.195 118.214C117.017 117.591 116.964 116.938 117.039 116.294L117.189 114.91C117.334 113.628 117.976 112.454 118.976 111.639C119.976 110.824 121.255 110.433 122.539 110.55L149.233 113.537C150.532 113.682 151.72 114.337 152.537 115.357C153.355 116.378 153.734 117.682 153.591 118.981L153.43 120.377C153.292 121.579 152.718 122.689 151.817 123.497C150.916 124.305 149.75 124.754 148.541 124.76H148.575ZM122.055 111.68C121.126 111.677 120.229 112.019 119.537 112.639C118.845 113.259 118.407 114.113 118.307 115.037L118.158 116.421C118.047 117.416 118.336 118.415 118.961 119.198C119.586 119.98 120.495 120.483 121.49 120.596L148.183 123.584C149.178 123.694 150.177 123.405 150.959 122.78C151.742 122.155 152.244 121.246 152.357 120.25L152.519 118.855C152.576 118.361 152.536 117.861 152.399 117.384C152.263 116.906 152.033 116.46 151.723 116.072C151.413 115.684 151.029 115.361 150.594 115.121C150.159 114.882 149.68 114.732 149.186 114.679L122.493 111.703C122.337 111.681 122.178 111.673 122.02 111.68H122.055Z" fill="#231F20"/>
<path d="M148.448 124.195C148.022 127.979 141.53 130.366 133.978 129.524C126.425 128.682 120.614 124.91 121.029 121.127L148.448 124.195Z" fill="#231F20"/>
<path d="M137.044 130.274C135.996 130.274 134.949 130.213 133.908 130.09C130.471 129.775 127.149 128.691 124.188 126.918C121.559 125.199 120.233 123.123 120.463 121.069C120.481 120.918 120.557 120.78 120.676 120.685C120.795 120.59 120.946 120.546 121.097 120.562L148.506 123.619C148.583 123.626 148.657 123.65 148.724 123.688C148.792 123.725 148.851 123.776 148.898 123.838C148.945 123.897 148.98 123.966 149 124.039C149.02 124.113 149.024 124.189 149.013 124.265C148.621 127.863 143.582 130.274 137.044 130.274ZM121.593 121.773C121.72 123.203 122.839 124.657 124.822 125.949C127.632 127.629 130.785 128.654 134.046 128.948C140.757 129.697 146.788 127.794 147.768 124.703L121.593 121.773Z" fill="#231F20"/>
<path d="M146.015 98.7375C145.866 98.7376 145.723 98.68 145.616 98.5768C145.508 98.4736 145.445 98.3327 145.439 98.1838C145.023 89.5067 145.661 80.8112 147.341 72.2882C143.35 72.9058 139.279 72.7689 135.338 71.8845C135.338 79.9588 133.747 88.0332 132.19 95.923L132.006 96.9035C131.972 97.0519 131.883 97.1816 131.756 97.2655C131.629 97.3494 131.475 97.3809 131.325 97.3533C131.25 97.3396 131.179 97.3109 131.115 97.2689C131.052 97.227 130.997 97.1725 130.955 97.109C130.913 97.0454 130.885 96.974 130.871 96.899C130.857 96.8241 130.859 96.7471 130.876 96.6728L131.06 95.6923C132.628 87.8025 134.231 79.6935 134.185 71.6077C129.245 70.3434 124.699 67.8654 120.959 64.3984C118.715 62.4712 117.033 59.9721 116.093 57.1661C115.611 55.7204 115.509 54.1751 115.796 52.6784C116.082 51.1817 116.749 49.7838 117.731 48.6188C118.569 47.8272 119.562 47.2167 120.647 46.8252C121.731 46.4338 122.885 46.2697 124.036 46.3433C125.186 46.4169 126.31 46.7265 127.336 47.2529C128.361 47.7793 129.268 48.5112 129.999 49.4032C132.248 52.5983 133.874 57.6736 134.831 64.5022C135.122 66.5588 135.287 68.6312 135.327 70.7079C139.35 71.6488 143.522 71.7743 147.595 71.0771C147.664 70.7656 147.733 70.4542 147.814 70.1427L147.999 69.3238C149.463 62.9796 151.285 55.0898 156.404 50.5797C157.235 49.853 160.163 47.5115 162.839 48.1228C163.476 48.2904 164.062 48.6129 164.545 49.0617C165.028 49.5104 165.392 50.0715 165.606 50.6951C166.325 52.6151 166.579 54.6785 166.347 56.7157C166.114 58.753 165.402 60.706 164.268 62.4144C162 65.7569 158.817 68.3757 155.102 69.9582C153.011 70.9129 150.817 71.6213 148.564 72.0691C146.835 80.6441 146.173 89.4001 146.592 98.1377C146.595 98.2899 146.539 98.4374 146.436 98.5492C146.333 98.6611 146.19 98.7286 146.038 98.7375H146.015ZM161.939 49.1379C160.14 49.37 158.465 50.1795 157.165 51.4448C152.323 55.7012 150.547 63.4064 149.094 69.5891L148.91 70.408C148.91 70.5465 148.84 70.6964 148.817 70.8348C150.804 70.4049 152.737 69.759 154.583 68.9085C158.102 67.4233 161.117 64.9517 163.265 61.7915C164.3 60.2397 164.951 58.4642 165.166 56.6112C165.38 54.7582 165.152 52.8807 164.499 51.1334C164.355 50.681 164.101 50.2719 163.758 49.9434C163.416 49.6149 162.997 49.3776 162.539 49.2532C162.342 49.2093 162.141 49.1861 161.939 49.184V49.1379ZM123.438 47.4307C122.539 47.4034 121.643 47.5602 120.807 47.8914C119.97 48.2227 119.21 48.7214 118.573 49.357C117.737 50.3819 117.174 51.6008 116.934 52.9012C116.694 54.2016 116.786 55.5414 117.2 56.797C118.089 59.4002 119.657 61.7182 121.743 63.5102C125.261 66.7902 129.523 69.1654 134.162 70.4311C134.12 68.5009 133.962 66.575 133.689 64.6637C132.755 58.0197 131.199 53.1289 129.077 50.0722C128.47 49.2959 127.7 48.6629 126.821 48.2183C125.943 47.7737 124.976 47.5284 123.992 47.4999L123.438 47.4307Z" fill="#D1D3D4"/>
<path d="M75.4481 280.341H187.86C189.359 262.751 191.654 241.25 194.917 228.215L242.538 182.745L210.079 151.809C210.079 151.809 138.198 197.533 133.113 197.221C126.632 196.818 48.5703 136.895 48.5703 136.895L34.1224 180.727L75.8286 236.982C75.8286 251.931 75.6672 267.745 75.4481 280.341Z" fill="#148532"/>
<path d="M134.981 273.882C134.823 273.877 134.674 273.811 134.566 273.697C134.512 273.644 134.469 273.58 134.439 273.509C134.41 273.439 134.395 273.364 134.395 273.288C134.395 273.212 134.41 273.136 134.439 273.066C134.469 272.996 134.512 272.932 134.566 272.878C149.901 258.194 152.611 250.524 152.173 246.671C152.102 245.87 151.837 245.099 151.401 244.424C150.965 243.748 150.371 243.19 149.671 242.795C149.591 242.747 149.523 242.679 149.475 242.599C149.427 242.519 149.399 242.428 149.394 242.334C149.388 242.243 149.404 242.151 149.44 242.067C149.476 241.983 149.532 241.909 149.601 241.85C150.432 241.169 151.354 240.512 152.323 239.819C155.286 237.709 158.353 235.517 159.322 232.333C160.613 228.112 158.572 222.24 156.923 217.511C156.485 216.231 156.059 215.02 155.77 213.912C155.736 213.837 155.719 213.756 155.719 213.673C155.719 213.591 155.737 213.509 155.771 213.434C155.806 213.359 155.856 213.293 155.918 213.239C155.98 213.185 156.053 213.145 156.133 213.121C156.212 213.098 156.295 213.092 156.376 213.103C156.458 213.115 156.536 213.144 156.606 213.188C156.675 213.233 156.734 213.291 156.779 213.361C156.824 213.43 156.854 213.508 156.866 213.589C157.2 214.662 157.615 215.896 158.019 217.131C159.714 222.021 161.824 228.089 160.429 232.668C159.345 236.232 155.966 238.643 152.991 240.742C152.277 241.25 151.585 241.746 150.939 242.242C151.611 242.75 152.169 243.394 152.578 244.131C152.987 244.868 153.238 245.682 153.314 246.521C153.995 252.496 147.953 261.632 135.361 273.697C135.261 273.803 135.126 273.868 134.981 273.882Z" fill="#231F20"/>
<path d="M110.213 272.267C110.1 272.267 109.99 272.235 109.896 272.173C109.802 272.112 109.727 272.024 109.682 271.921C109.29 270.998 108.783 269.914 108.218 268.691C104.863 261.459 99.2357 249.347 102.603 242.081C103.688 239.792 105.637 238.029 108.022 237.178C105.358 235.944 99.9506 232.91 100.435 228.989C101.115 223.59 106.684 218.7 110.374 215.447L110.582 215.262C110.699 215.163 110.85 215.114 111.003 215.125C111.156 215.135 111.298 215.205 111.4 215.32C111.451 215.376 111.489 215.442 111.513 215.513C111.538 215.585 111.547 215.66 111.542 215.736C111.536 215.811 111.516 215.884 111.482 215.952C111.448 216.019 111.4 216.079 111.343 216.127L111.135 216.323C107.572 219.449 102.199 224.167 101.576 229.127C101.138 232.587 107.399 235.783 109.844 236.717C109.958 236.759 110.056 236.836 110.122 236.938C110.188 237.04 110.22 237.161 110.213 237.282C110.206 237.404 110.161 237.52 110.084 237.615C110.008 237.71 109.904 237.779 109.786 237.813C108.467 238.082 107.227 238.651 106.161 239.475C105.096 240.298 104.234 241.356 103.64 242.565C100.504 249.347 105.947 261.159 109.267 268.207C109.832 269.43 110.34 270.514 110.743 271.46C110.802 271.601 110.803 271.759 110.747 271.901C110.691 272.043 110.582 272.158 110.443 272.221C110.369 272.247 110.292 272.263 110.213 272.267Z" fill="#231F20"/>
<path d="M148.633 204.246L117.973 205.33L118.665 276.119L148.633 204.246Z" fill="#231F20"/>
<path d="M118.665 276.697H118.55C118.419 276.67 118.302 276.599 118.218 276.496C118.134 276.393 118.088 276.265 118.088 276.132L117.396 205.343C117.395 205.268 117.408 205.195 117.435 205.125C117.462 205.056 117.502 204.993 117.554 204.939C117.605 204.886 117.667 204.843 117.735 204.813C117.803 204.783 117.876 204.767 117.95 204.766L148.61 203.682C148.706 203.676 148.803 203.696 148.889 203.738C148.976 203.78 149.051 203.844 149.106 203.924C149.162 204.003 149.197 204.096 149.207 204.193C149.217 204.29 149.202 204.388 149.163 204.477L119.184 276.351C119.14 276.452 119.067 276.539 118.975 276.6C118.883 276.661 118.775 276.695 118.665 276.697ZM118.55 205.885L119.218 273.306L147.757 204.858L118.55 205.885Z" fill="#231F20"/>
<path d="M120.233 186.783L117.927 205.365C117.927 205.365 121.051 216.104 133.551 214.466C146.05 212.828 148.54 204.281 148.54 204.281L152.691 164.993C152.691 164.993 148.679 163.771 144.551 142.535C144.551 142.535 134.842 148.649 116.97 144.392C116.97 144.392 112.888 164.001 113.061 173.621C113.047 176.243 113.698 178.825 114.952 181.126C116.206 183.428 118.023 185.374 120.233 186.783Z" fill="white"/>
<path d="M131.095 215.17C128.084 215.209 125.139 214.293 122.681 212.555C120.222 210.816 118.376 208.344 117.408 205.493C117.396 205.416 117.396 205.339 117.408 205.262L119.576 187.06C117.383 185.572 115.59 183.566 114.355 181.221C113.12 178.875 112.482 176.262 112.496 173.611C112.323 164.037 116.37 144.451 116.416 144.255C116.428 144.178 116.457 144.105 116.501 144.041C116.545 143.977 116.603 143.924 116.67 143.885C116.735 143.846 116.807 143.819 116.882 143.807C116.957 143.795 117.034 143.798 117.108 143.816C134.508 147.946 144.171 142.086 144.263 142.017C144.343 141.969 144.433 141.941 144.526 141.935C144.62 141.929 144.713 141.945 144.799 141.982C144.884 142.019 144.96 142.077 145.019 142.149C145.078 142.221 145.119 142.306 145.139 142.397C149.048 162.549 152.865 164.406 152.899 164.429C153.023 164.466 153.129 164.548 153.197 164.659C153.265 164.769 153.291 164.901 153.268 165.029L149.221 204.305C149.083 204.766 146.407 213.336 133.678 214.997C132.822 215.116 131.959 215.173 131.095 215.17ZM118.549 205.274C118.93 206.427 122.193 215.332 133.539 213.856C145.485 212.287 147.987 204.409 148.091 204.074L152.092 165.271C150.87 164.394 147.549 160.496 144.159 143.355C141.611 144.658 132.455 148.453 117.42 145.027C116.751 148.338 113.499 165.029 113.649 173.541C113.632 176.039 114.239 178.502 115.415 180.706C116.591 182.91 118.299 184.785 120.383 186.16C120.461 186.211 120.535 186.269 120.602 186.334C120.664 186.394 120.711 186.469 120.739 186.551C120.767 186.633 120.775 186.72 120.763 186.806L118.549 205.274Z" fill="#231F20"/>
<path d="M147.906 165.628C148.944 162.802 151.527 161.095 154.317 160.183C155.226 159.838 156.2 159.695 157.17 159.764C158.14 159.834 159.083 160.115 159.933 160.587C160.977 161.358 161.768 162.423 162.205 163.645C162.643 164.867 162.707 166.192 162.389 167.45C162.011 169.363 161.129 171.14 159.833 172.596C158.538 174.052 156.876 175.135 155.021 175.732C152.512 176.406 149.84 176.062 147.583 174.775" fill="white"/>
<path d="M152.519 176.655C150.706 176.653 148.925 176.176 147.353 175.271C147.238 175.187 147.157 175.063 147.128 174.923C147.099 174.784 147.122 174.638 147.194 174.515C147.266 174.391 147.38 174.299 147.516 174.255C147.652 174.212 147.8 174.22 147.93 174.279C150.048 175.492 152.561 175.815 154.917 175.179C156.663 174.6 158.223 173.568 159.439 172.187C160.654 170.807 161.481 169.129 161.836 167.324C162.274 165.259 161.766 162.41 159.645 161.072C158.863 160.646 157.999 160.395 157.111 160.336C156.224 160.276 155.334 160.409 154.502 160.726C152.334 161.441 149.521 162.917 148.46 165.836C148.434 165.907 148.395 165.972 148.344 166.027C148.292 166.083 148.23 166.128 148.162 166.159C148.093 166.19 148.019 166.207 147.943 166.209C147.868 166.211 147.792 166.198 147.722 166.17C147.578 166.118 147.461 166.011 147.396 165.873C147.332 165.734 147.324 165.576 147.376 165.432C148.598 162.087 151.735 160.426 154.145 159.664C155.136 159.29 156.197 159.138 157.253 159.22C158.309 159.301 159.334 159.615 160.256 160.137C161.399 160.97 162.267 162.125 162.75 163.455C163.233 164.784 163.308 166.228 162.966 167.6C162.562 169.616 161.628 171.487 160.26 173.02C158.892 174.553 157.139 175.693 155.182 176.321C154.313 176.548 153.417 176.66 152.519 176.655Z" fill="#231F20"/>
<path d="M130.368 155.327C130.368 155.327 122.643 163.909 123.923 165.708C125.202 167.508 129.584 167.093 129.584 167.093" fill="white"/>
<path d="M128.304 167.797C126.782 167.797 124.43 167.543 123.45 166.101C122.066 164.071 127.532 157.623 129.941 154.935C129.991 154.874 130.052 154.823 130.121 154.787C130.191 154.75 130.267 154.728 130.345 154.722C130.424 154.715 130.502 154.725 130.577 154.751C130.651 154.776 130.72 154.816 130.778 154.869C130.836 154.922 130.883 154.986 130.916 155.057C130.948 155.129 130.966 155.206 130.967 155.285C130.969 155.364 130.954 155.442 130.925 155.514C130.895 155.587 130.851 155.653 130.795 155.708C126.84 160.103 123.876 164.648 124.395 165.444C125.283 166.735 128.396 166.701 129.515 166.597C129.59 166.586 129.667 166.59 129.741 166.61C129.814 166.63 129.883 166.665 129.943 166.712C130.002 166.76 130.051 166.819 130.087 166.887C130.122 166.954 130.143 167.028 130.149 167.105C130.165 167.256 130.121 167.407 130.026 167.526C129.931 167.645 129.793 167.722 129.642 167.739C129.457 167.739 128.984 167.797 128.304 167.797Z" fill="#231F20"/>
<path d="M129.769 176.655C123.853 176.655 118.446 172.214 118.238 172.041C118.18 171.993 118.131 171.934 118.096 171.867C118.061 171.801 118.039 171.727 118.033 171.652C118.026 171.577 118.035 171.501 118.059 171.429C118.082 171.357 118.119 171.291 118.169 171.234C118.266 171.117 118.405 171.042 118.556 171.027C118.707 171.012 118.858 171.057 118.976 171.153C119.045 171.153 125.71 176.69 131.913 175.317C135.015 174.637 137.506 172.33 139.339 168.465C139.411 168.339 139.529 168.244 139.668 168.2C139.807 168.157 139.957 168.167 140.089 168.23C140.22 168.293 140.323 168.403 140.377 168.539C140.43 168.675 140.43 168.826 140.377 168.961C138.394 173.16 135.626 175.686 132.155 176.447C131.37 176.605 130.569 176.674 129.769 176.655Z" fill="#231F20"/>
<path d="M118.664 153.216C118.664 153.216 118.964 149.618 122.124 149.202C125.283 148.787 124.626 153.216 124.626 153.216" fill="white"/>
<path d="M124.615 153.794H124.522C124.373 153.771 124.239 153.69 124.148 153.57C124.058 153.449 124.018 153.297 124.038 153.148C124.24 152.103 124.043 151.02 123.485 150.114C123.311 149.96 123.104 149.849 122.879 149.791C122.655 149.733 122.42 149.729 122.193 149.78C119.541 150.126 119.253 153.148 119.241 153.24C119.236 153.316 119.215 153.39 119.18 153.458C119.146 153.525 119.098 153.586 119.04 153.635C118.983 153.684 118.916 153.722 118.843 153.745C118.771 153.768 118.695 153.777 118.619 153.771C118.467 153.756 118.327 153.683 118.228 153.567C118.129 153.45 118.079 153.3 118.088 153.148C118.204 151.74 119.241 148.984 122.043 148.603C122.453 148.515 122.878 148.531 123.281 148.647C123.683 148.764 124.05 148.979 124.349 149.272C125.595 150.541 125.272 152.998 125.226 153.275C125.211 153.424 125.139 153.561 125.025 153.658C124.911 153.755 124.764 153.803 124.615 153.794Z" fill="#231F20"/>
<path d="M133.804 154.128C133.804 154.128 134.104 150.529 137.264 150.113C140.423 149.698 139.754 154.128 139.754 154.128" fill="white"/>
<path d="M139.754 154.704H139.674C139.598 154.695 139.525 154.67 139.459 154.631C139.394 154.592 139.336 154.541 139.291 154.479C139.246 154.418 139.213 154.348 139.196 154.273C139.178 154.199 139.176 154.122 139.189 154.047C139.382 153.004 139.18 151.927 138.624 151.025C138.452 150.868 138.245 150.756 138.02 150.698C137.795 150.639 137.559 150.637 137.333 150.69C134.692 151.036 134.393 154.047 134.381 154.151C134.367 154.304 134.293 154.445 134.175 154.543C134.058 154.642 133.906 154.689 133.753 154.676C133.6 154.662 133.459 154.588 133.36 154.47C133.262 154.352 133.214 154.2 133.228 154.047C133.343 152.64 134.323 149.883 137.183 149.502C137.594 149.42 138.018 149.439 138.42 149.558C138.822 149.676 139.189 149.891 139.489 150.183C140.723 151.452 140.4 153.909 140.354 154.185C140.342 154.333 140.273 154.471 140.16 154.568C140.048 154.665 139.902 154.714 139.754 154.704Z" fill="#231F20"/>
<path d="M120.233 186.783C120.233 186.783 131.441 190.832 138.682 187.752C138.682 187.752 129.296 202.413 118.676 199.495L120.233 186.783Z" fill="#231F20"/>
<path d="M121.548 200.463C120.523 200.464 119.503 200.328 118.515 200.06C118.38 200.022 118.263 199.938 118.185 199.821C118.106 199.705 118.072 199.565 118.088 199.425L119.61 186.737C119.62 186.651 119.649 186.568 119.695 186.494C119.741 186.42 119.803 186.357 119.876 186.31C119.955 186.273 120.042 186.254 120.129 186.254C120.217 186.254 120.304 186.273 120.383 186.31C120.487 186.31 131.475 190.244 138.44 187.291C138.554 187.244 138.68 187.234 138.8 187.263C138.92 187.292 139.028 187.358 139.109 187.452C139.181 187.551 139.22 187.67 139.22 187.792C139.22 187.915 139.181 188.034 139.109 188.133C138.797 188.617 131.095 200.463 121.548 200.463ZM119.299 199.056C127.255 200.833 134.554 192.354 137.16 188.882C130.922 190.567 123.035 188.317 120.671 187.556L119.299 199.056Z" fill="#231F20"/>
<path d="M75.5057 275.393C75.43 275.39 75.3556 275.372 75.2868 275.34C75.2179 275.309 75.1561 275.264 75.1047 275.208C75.0532 275.152 75.0133 275.087 74.9872 275.016C74.961 274.944 74.9491 274.869 74.9522 274.793C75.3904 262.947 75.229 253.627 75.0791 244.607C74.9753 238.159 74.8715 232.068 74.9753 225.147C74.9753 225.072 74.9903 224.998 75.0194 224.928C75.0485 224.859 75.0911 224.796 75.1448 224.744C75.1985 224.691 75.2622 224.65 75.3321 224.622C75.402 224.594 75.4767 224.581 75.5518 224.582C75.7047 224.582 75.8514 224.643 75.9595 224.751C76.0676 224.859 76.1284 225.006 76.1284 225.159C76.0246 232.08 76.1284 238.147 76.2321 244.583C76.382 253.615 76.5435 262.958 76.1053 274.839C76.1023 274.915 76.0845 274.989 76.0527 275.058C76.021 275.127 75.9759 275.189 75.9203 275.24C75.8646 275.292 75.7993 275.332 75.7282 275.358C75.657 275.384 75.5814 275.396 75.5057 275.393Z" fill="#231F20"/>
<path d="M210.079 151.763C201.823 141.49 193.579 131.208 185.346 120.919C181.249 115.813 177.156 110.695 173.066 105.566C171.489 103.328 169.718 101.232 167.774 99.303C165.986 97.8248 164.703 95.827 164.102 93.5866C163.501 91.3461 163.611 88.974 164.418 86.7992C165.306 84.9584 165.879 82.9816 166.113 80.9511C166.194 77.0985 163.184 73.5804 163.657 69.7623C163.675 69.4785 163.766 69.2042 163.922 68.9664C164.476 68.2282 165.663 68.6665 166.378 69.2548C167.651 70.3028 168.671 71.6234 169.365 73.119C173.428 69.2098 176.89 64.7202 179.639 59.7963C180.181 58.8158 180.988 57.6623 182.095 57.8238C183.202 57.9853 183.686 59.5194 183.559 60.7075C183.248 63.5336 181.507 65.9559 179.961 68.332C178.716 70.2468 178.439 83.9501 179.546 85.1382C182.613 88.4718 230.281 128.048 242.538 143.377C258.6 163.517 251.244 180.519 242.538 182.7C233.832 184.88 210.079 151.763 210.079 151.763Z" fill="white"/>
<path d="M241.719 183.368C232.183 183.368 210.69 153.597 209.618 152.109C201.377 141.843 193.137 131.569 184.896 121.288C180.799 116.167 176.706 111.045 172.616 105.924C172.19 105.393 171.775 104.851 171.359 104.297C170.19 102.652 168.861 101.126 167.393 99.741C165.521 98.1809 164.178 96.0792 163.548 93.7246C162.918 91.3701 163.033 88.8782 163.876 86.5914L164.257 85.6455C164.952 84.1625 165.385 82.5702 165.536 80.9393C165.452 79.182 165.037 77.4563 164.314 75.8525C163.409 73.93 162.985 71.8159 163.08 69.6929C163.111 69.3082 163.242 68.9382 163.461 68.6202C163.586 68.4504 163.745 68.3083 163.927 68.2031C164.11 68.0979 164.312 68.0317 164.522 68.0088C165.338 67.9797 166.134 68.2645 166.747 68.8047C167.878 69.7368 168.821 70.876 169.526 72.1614C173.308 68.4049 176.542 64.1334 179.131 59.4731C179.512 58.781 180.538 56.97 182.187 57.1661C183.836 57.3622 184.297 59.1386 184.135 60.6266C183.836 63.3372 182.325 65.6327 180.861 67.8589L180.434 68.5164C179.281 70.3504 179.189 83.5116 179.973 84.6651C180.757 85.8186 184.977 89.1752 190.777 94.2043C206.92 108.242 234.063 131.739 242.988 142.927C254.979 157.923 252.915 169.55 251.463 173.829C249.814 178.708 246.527 182.203 242.676 183.161C242.368 183.272 242.046 183.342 241.719 183.368ZM164.752 69.1738H164.66C164.606 69.1761 164.552 69.1907 164.504 69.2167C164.456 69.2427 164.415 69.2793 164.383 69.3238C164.293 69.4825 164.242 69.6604 164.234 69.8429C164.157 71.7811 164.553 73.7089 165.387 75.4603C166.163 77.2002 166.605 79.0706 166.69 80.9739C166.544 82.7461 166.079 84.4773 165.317 86.0838L164.96 87.0182C164.2 89.0822 164.099 91.3315 164.671 93.4555C165.243 95.5795 166.46 97.4735 168.154 98.8759C169.68 100.312 171.059 101.896 172.27 103.605L173.516 105.22C177.598 110.342 181.691 115.459 185.796 120.573C194.029 130.862 202.273 141.139 210.529 151.405C216.836 160.206 234.259 182.203 241.662 182.203C241.918 182.208 242.174 182.177 242.423 182.111C245.882 181.257 248.891 177.97 250.39 173.529C251.785 169.423 253.746 158.315 242.111 143.723C233.256 132.615 205.144 108.242 190.039 95.1502C183.997 89.9019 180.007 86.4414 179.143 85.5071C177.874 84.1345 178.151 70.062 179.5 67.9973L179.927 67.3513C181.31 65.2289 182.74 63.0489 183.005 60.615C183.098 59.7845 182.855 58.4926 182.037 58.3773C181.449 58.2965 180.884 58.8156 180.169 60.0614C177.392 65.0325 173.895 69.5648 169.791 73.5109C169.724 73.5731 169.643 73.6189 169.555 73.6449C169.467 73.6709 169.374 73.6764 169.284 73.6609C169.193 73.6467 169.107 73.6096 169.035 73.5531C168.962 73.4966 168.905 73.4226 168.869 73.3379C168.21 71.9211 167.241 70.6712 166.032 69.6814C165.673 69.3728 165.225 69.1869 164.752 69.1508V69.1738Z" fill="#231F20"/>
<path d="M69.8555 151.763C78.1115 141.49 86.3558 131.208 94.5887 120.919C98.6936 115.813 102.787 110.696 106.869 105.567C108.446 103.328 110.217 101.232 112.161 99.3032C115.77 96.1427 116.681 92.0248 115.724 87.2032C115.056 83.8351 113.418 80.2824 114.652 77.1334C115.252 75.6569 116.416 74.4688 116.958 72.9809C117.5 71.4929 116.958 69.382 115.448 69.0821C114.911 69.0511 114.376 69.1655 113.899 69.4131C113.422 69.6608 113.021 70.0326 112.738 70.4893C112.058 71.4006 111.585 72.7963 110.524 73.2C107.203 67.4326 105.082 61.3768 102.28 55.3672C101.979 54.6088 101.523 53.9214 100.942 53.3486C100.647 53.0521 100.272 52.8474 99.8623 52.7594C99.4531 52.6714 99.0272 52.7038 98.6359 52.8526C98.2783 53.0463 97.9813 53.3353 97.7777 53.6875C97.5742 54.0397 97.4722 54.4415 97.4829 54.8482C97.5029 55.6615 97.6628 56.4653 97.9556 57.2243C99.2417 61.7492 100.289 66.3387 101.092 70.9738C101.715 73.8806 103.583 77.6986 101.092 80.3631C98.0133 83.6967 48.4317 127.229 37.3277 143.378C23.491 163.517 28.6221 180.52 37.3277 182.7C46.0333 184.88 69.8555 151.763 69.8555 151.763Z" fill="white"/>
<path d="M38.2156 183.368C37.8929 183.372 37.5711 183.333 37.2585 183.253C33.9492 182.434 31.1704 179.608 29.6253 175.513C26.2929 166.677 29.0141 154.543 36.9241 143.054C45.5375 130.527 77.2121 101.587 92.4325 87.6872C96.8487 83.65 100.054 80.7663 100.735 79.9819C102.487 78.0787 101.761 75.4834 101.046 72.9688C100.873 72.3228 100.688 71.6884 100.562 71.1001C100.308 69.8659 100.066 68.6432 99.8236 67.409C99.2308 64.0351 98.4376 60.6995 97.4483 57.4199C97.1249 56.5958 96.9492 55.7211 96.9294 54.8361C96.93 54.3181 97.0735 53.8103 97.3441 53.3687C97.6147 52.927 98.0019 52.5687 98.463 52.333C98.9462 52.1492 99.4719 52.1069 99.9783 52.2111C100.485 52.3153 100.951 52.5616 101.323 52.9213C101.961 53.5505 102.463 54.3044 102.798 55.136C103.767 57.2122 104.666 59.3346 105.543 61.3878C107.068 65.1472 108.796 68.8207 110.72 72.392C111.096 72.0055 111.415 71.5665 111.666 71.0886C111.862 70.7656 112.069 70.4311 112.277 70.1543C112.62 69.5907 113.117 69.1371 113.709 68.8469C114.302 68.5567 114.965 68.442 115.621 68.5163C115.98 68.5902 116.32 68.7421 116.614 68.9614C116.909 69.1806 117.153 69.4618 117.327 69.7852C117.599 70.3033 117.76 70.8726 117.8 71.4565C117.839 72.0404 117.757 72.6261 117.558 73.1764C117.234 73.9916 116.816 74.7659 116.312 75.4834C115.898 76.0776 115.542 76.7112 115.252 77.3751C114.364 79.5667 115.009 81.989 115.701 84.492C115.932 85.3456 116.174 86.2338 116.347 87.1104C117.408 92.4741 116.186 96.6151 112.6 99.7987C111.134 101.187 109.806 102.713 108.633 104.355C108.218 104.909 107.803 105.508 107.376 105.981C103.294 111.103 99.2009 116.224 95.096 121.346C86.8632 131.627 78.6226 141.901 70.3744 152.167C69.2444 153.597 47.7514 183.368 38.2156 183.368ZM99.3278 53.2904C99.174 53.2871 99.0211 53.3145 98.8781 53.3712C98.6201 53.5269 98.4068 53.7469 98.2593 54.0097C98.1118 54.2726 98.0349 54.5692 98.0363 54.8707C98.0598 55.5943 98.208 56.3084 98.4745 56.9815C99.4871 60.3291 100.3 63.7341 100.907 67.1783C101.15 68.401 101.392 69.6237 101.645 70.8464C101.772 71.4231 101.934 71.9998 102.118 72.6458C102.833 75.195 103.721 78.4132 101.53 80.7201C100.815 81.5045 97.7711 84.2844 93.1589 88.4946C77.9731 102.336 46.3677 131.254 37.812 143.677C30.1211 154.854 27.4344 166.597 30.6515 175.075C32.0582 178.8 34.5488 181.373 37.4776 182.099C44.3153 183.818 62.7873 160.518 69.3251 151.394C77.5811 141.128 85.8254 130.85 94.0583 120.561C98.1478 115.455 102.241 110.338 106.338 105.209L107.584 103.594C108.799 101.887 110.177 100.303 111.7 98.8644C114.952 96.0268 116.059 92.2434 115.079 87.3296C114.917 86.4991 114.675 85.634 114.444 84.7919C113.741 82.1851 113.015 79.4975 114.041 76.9367C114.361 76.2072 114.747 75.5084 115.194 74.8489C115.66 74.2177 116.047 73.5321 116.347 72.8073C116.49 72.4149 116.55 71.9973 116.525 71.5805C116.499 71.1637 116.387 70.7567 116.197 70.385C116.107 70.2054 115.977 70.0488 115.817 69.9269C115.657 69.805 115.472 69.721 115.275 69.6814C114.848 69.6717 114.426 69.7728 114.05 69.975C113.674 70.1772 113.357 70.4734 113.13 70.8348C112.933 71.105 112.752 71.3861 112.588 71.6769C112.175 72.5373 111.512 73.2529 110.685 73.7301C110.556 73.7856 110.41 73.7917 110.276 73.747C110.142 73.7024 110.029 73.6101 109.959 73.4878C107.878 69.7157 106.025 65.8214 104.413 61.8262C103.548 59.7845 102.649 57.6736 101.68 55.6089C101.427 54.9241 101.034 54.2995 100.527 53.7749C100.21 53.4848 99.8027 53.3136 99.3739 53.2904H99.3278Z" fill="#231F20"/>
<path d="M16.0538 109.246C15.9442 109.246 15.8368 109.215 15.7447 109.155C15.6526 109.096 15.5797 109.011 15.535 108.911C15.5019 108.842 15.4828 108.767 15.4789 108.691C15.4749 108.615 15.4861 108.539 15.5119 108.467C15.5376 108.395 15.5774 108.329 15.6288 108.272C15.6803 108.216 15.7425 108.17 15.8117 108.138L75.2635 80.57C75.4013 80.5069 75.5583 80.5005 75.7008 80.5523C75.8432 80.6041 75.9595 80.7099 76.0245 80.8469C76.0574 80.9149 76.0763 80.9887 76.0801 81.0642C76.0839 81.1396 76.0726 81.215 76.0468 81.286C76.021 81.3569 75.9812 81.422 75.9299 81.4773C75.8785 81.5327 75.8166 81.5772 75.7478 81.6082L16.296 109.188C16.22 109.223 16.1376 109.243 16.0538 109.246Z" fill="#D1D3D4"/>
<path d="M75.5287 52.4141H75.4596L0.510625 44.0514C0.359496 44.034 0.221363 43.9576 0.12633 43.8387C0.0312977 43.7199 -0.0129252 43.5683 0.00328452 43.417C0.00879425 43.3409 0.0299581 43.2668 0.065454 43.1993C0.10095 43.1317 0.150006 43.0723 0.209551 43.0246C0.269097 42.977 0.337845 42.9422 0.411481 42.9223C0.485117 42.9025 0.562052 42.8981 0.637463 42.9095L75.5864 51.2606C75.6623 51.2692 75.7358 51.2928 75.8025 51.33C75.8693 51.3672 75.9279 51.4173 75.9752 51.4774C76.0224 51.5375 76.0572 51.6064 76.0775 51.6801C76.0979 51.7538 76.1034 51.8308 76.0937 51.9066C76.0794 52.0463 76.0136 52.1756 75.9092 52.2695C75.8047 52.3633 75.6691 52.4149 75.5287 52.4141Z" fill="#D1D3D4"/>
<path d="M91.6485 19.7126C91.5644 19.7129 91.4814 19.6931 91.4064 19.6549L54.0933 1.13007C54.0251 1.09685 53.9641 1.05049 53.9138 0.993628C53.8635 0.93677 53.825 0.87054 53.8003 0.79874C53.7757 0.726939 53.7655 0.650978 53.7702 0.575215C53.775 0.499452 53.7947 0.425379 53.8281 0.357239C53.8995 0.223544 54.0196 0.122534 54.1635 0.0752587C54.3074 0.0279838 54.464 0.0380902 54.6007 0.103473L91.9137 18.6168C92.0495 18.686 92.1524 18.8061 92.2 18.9509C92.2475 19.0957 92.2358 19.2534 92.1674 19.3896C92.1188 19.4859 92.0447 19.5669 91.9532 19.6239C91.8617 19.6808 91.7563 19.7115 91.6485 19.7126Z" fill="#D1D3D4"/>
<path d="M259.004 109.245C258.924 109.261 258.841 109.261 258.761 109.245L199.287 81.6658C199.218 81.6348 199.156 81.5903 199.104 81.535C199.053 81.4796 199.013 81.4145 198.988 81.3436C198.962 81.2726 198.95 81.1972 198.954 81.1218C198.958 81.0464 198.977 80.9725 199.01 80.9045C199.075 80.7676 199.191 80.6617 199.334 80.6099C199.476 80.5581 199.633 80.5645 199.771 80.6277L259.246 108.196C259.315 108.228 259.377 108.274 259.429 108.33C259.48 108.386 259.52 108.452 259.545 108.524C259.571 108.596 259.582 108.673 259.579 108.749C259.575 108.825 259.555 108.9 259.522 108.969C259.47 109.058 259.393 109.131 259.302 109.18C259.21 109.229 259.107 109.251 259.004 109.245Z" fill="#D1D3D4"/>
<path d="M199.529 48.2381C199.387 48.2386 199.25 48.1854 199.145 48.0892C199.04 47.993 198.976 47.8608 198.964 47.719C198.948 47.5677 198.992 47.4161 199.087 47.2973C199.182 47.1785 199.32 47.102 199.471 47.0846L274.42 38.7219C274.496 38.7139 274.573 38.7211 274.646 38.7429C274.719 38.7648 274.787 38.8008 274.846 38.8491C274.905 38.8974 274.953 38.9569 274.989 39.0241C275.025 39.0914 275.047 39.1651 275.054 39.241C275.071 39.3923 275.026 39.5439 274.931 39.6627C274.836 39.7815 274.698 39.858 274.547 39.8754L199.598 48.2266L199.529 48.2381Z" fill="#D1D3D4"/>
<path d="M192.391 23.4276C192.284 23.4252 192.179 23.394 192.088 23.3372C191.996 23.2804 191.922 23.2 191.873 23.1046C191.839 23.0365 191.819 22.9624 191.815 22.8866C191.81 22.8109 191.82 22.7349 191.845 22.6631C191.869 22.5913 191.908 22.5251 191.958 22.4682C192.008 22.4113 192.069 22.365 192.138 22.3318L229.439 3.87609C229.507 3.84277 229.581 3.8232 229.657 3.81849C229.733 3.81379 229.809 3.82405 229.88 3.84868C229.952 3.87332 230.018 3.91185 230.075 3.96207C230.132 4.01229 230.178 4.07323 230.212 4.14139C230.245 4.20956 230.265 4.28362 230.269 4.35935C230.274 4.43507 230.264 4.51099 230.239 4.58276C230.215 4.65452 230.176 4.72073 230.126 4.7776C230.076 4.83447 230.015 4.8809 229.947 4.91423L192.645 23.3699C192.567 23.4099 192.479 23.4297 192.391 23.4276Z" fill="#D1D3D4"/>
<path d="M38.0314 67.7783L39.9801 71.7348L44.3387 72.3692L41.1793 75.449L41.9288 79.786L38.0314 77.7444L34.1225 79.786L34.872 75.449L31.7126 72.3692L36.0827 71.7348L38.0314 67.7783Z" fill="#D1D3D4"/>
<path d="M242.93 119.789L243.622 122.419L246.193 123.342L243.899 124.818L243.829 127.54L241.708 125.822L239.102 126.595L240.082 124.045L238.537 121.796L241.258 121.946L242.93 119.789Z" fill="#D1D3D4"/>
<path d="M34.1225 15.8838L37.2819 22.2856L44.3386 23.3122L39.2305 28.2952L40.4413 35.3199L34.1225 31.9979L27.8037 35.3199L29.0144 28.2952L23.9064 23.3122L30.9631 22.2856L34.1225 15.8838Z" fill="#D1D3D4"/>
<path d="M229.266 19.5977L231.215 23.5541L235.585 24.1885L232.426 27.2683L233.164 31.6054L229.266 29.5637L225.369 31.6054L226.107 27.2683L222.959 24.1885L227.318 23.5541L229.266 19.5977Z" fill="#D1D3D4"/>
<path d="M10.669 123.803L16.2268 129.859L24.3443 128.705L20.3201 135.857L23.9177 143.239L15.8809 141.612L9.97719 147.322L9.03169 139.156L1.79047 135.314L9.25077 131.9L10.669 123.803Z" fill="#D1D3D4"/>
<path d="M238.79 198.906L239.897 203.855L244.602 205.758L240.243 208.342L239.897 213.405L236.092 210.049L231.169 211.283L233.175 206.623L230.488 202.332L235.539 202.805L238.79 198.906Z" fill="#D1D3D4"/>
<path d="M100.977 0L102.925 3.95643L107.284 4.59085L104.136 7.67064L104.874 12.0193L100.977 9.96606L97.0679 12.0193L97.8174 7.67064L94.658 4.59085L99.0281 3.95643L100.977 0Z" fill="#D1D3D4"/>
<path d="M246.977 56.7627L247.934 67.7438L257.516 73.1882L247.369 77.4907L245.167 88.2988L237.937 79.9707L226.983 81.2049L232.668 71.7579L228.102 61.7227L238.848 64.2026L246.977 56.7627Z" fill="#D1D3D4"/>
<path d="M188.263 275.393H188.194C188.043 275.373 187.906 275.294 187.813 275.173C187.72 275.052 187.679 274.899 187.698 274.747L195.989 211.618C195.997 211.542 196.021 211.469 196.058 211.403C196.096 211.336 196.146 211.278 196.206 211.232C196.267 211.186 196.336 211.152 196.409 211.133C196.483 211.114 196.559 211.11 196.635 211.122C196.786 211.142 196.923 211.221 197.016 211.342C197.109 211.463 197.15 211.616 197.13 211.767L188.84 274.886C188.823 275.027 188.755 275.156 188.648 275.25C188.542 275.343 188.405 275.394 188.263 275.393Z" fill="#231F20"/>
</svg>
