<svg width="24" height="24" viewBox="0 0 24 24" fill="none" xmlns="http://www.w3.org/2000/svg">
<path d="M4.5 19C4.0875 19 3.73438 18.8531 3.44063 18.5594C3.14688 18.2656 3 17.9125 3 17.5V6.5C3 6.0875 3.14688 5.73438 3.44063 5.44063C3.73438 5.14688 4.0875 5 4.5 5H15C15.3667 5 15.7 5.09583 16 5.2875C16.3 5.47917 16.5583 5.725 16.775 6.025L20.4 11.125C20.5833 11.3912 20.675 11.6828 20.675 11.9997C20.675 12.3166 20.5833 12.6083 20.4 12.875L16.775 17.975C16.5583 18.275 16.3 18.5208 16 18.7125C15.7 18.9042 15.3667 19 15 19H4.5ZM4.5 17.5H15.275L19.125 12L15.275 6.5H4.5V17.5ZM4.5 12V17.5V6.5V12ZM9.5 13.075L10.225 14.775C10.2895 14.925 10.4056 15 10.5734 15C10.7411 15 10.8583 14.925 10.925 14.775L11.65 13.075L13.475 12.275C13.625 12.2105 13.7 12.0944 13.7 11.9266C13.7 11.7589 13.625 11.6417 13.475 11.575L11.65 10.8L10.925 9.175C10.8605 9.025 10.7444 8.95 10.5766 8.95C10.4089 8.95 10.2917 9.025 10.225 9.175L9.5 10.8L7.675 11.575C7.525 11.6395 7.45 11.7556 7.45 11.9234C7.45 12.0911 7.525 12.2083 7.675 12.275L9.5 13.075Z" fill="#148532"/>
</svg>
