<svg width="200" height="80" viewBox="0 0 200 80" fill="none" xmlns="http://www.w3.org/2000/svg">
<path d="M12.452 13.765C12.452 12.745 12.687 11.83 13.157 11.02C13.637 10.21 14.282 9.58 15.092 9.13C15.912 8.67 16.807 8.44 17.777 8.44C18.887 8.44 19.872 8.715 20.732 9.265C21.602 9.805 22.232 10.575 22.622 11.575H20.567C20.297 11.025 19.922 10.615 19.442 10.345C18.962 10.075 18.407 9.94 17.777 9.94C17.087 9.94 16.472 10.095 15.932 10.405C15.392 10.715 14.967 11.16 14.657 11.74C14.357 12.32 14.207 12.995 14.207 13.765C14.207 14.535 14.357 15.21 14.657 15.79C14.967 16.37 15.392 16.82 15.932 17.14C16.472 17.45 17.087 17.605 17.777 17.605C18.407 17.605 18.962 17.47 19.442 17.2C19.922 16.93 20.297 16.52 20.567 15.97H22.622C22.232 16.97 21.602 17.74 20.732 18.28C19.872 18.82 18.887 19.09 17.777 19.09C16.797 19.09 15.902 18.865 15.092 18.415C14.282 17.955 13.637 17.32 13.157 16.51C12.687 15.7 12.452 14.785 12.452 13.765ZM26.3335 11.935C26.5835 11.515 26.9135 11.19 27.3235 10.96C27.7435 10.72 28.2385 10.6 28.8085 10.6V12.37H28.3735C27.7035 12.37 27.1935 12.54 26.8435 12.88C26.5035 13.22 26.3335 13.81 26.3335 14.65V19H24.6235V10.735H26.3335V11.935ZM37.9554 14.665C37.9554 14.975 37.9354 15.255 37.8954 15.505H31.5804C31.6304 16.165 31.8754 16.695 32.3154 17.095C32.7554 17.495 33.2954 17.695 33.9354 17.695C34.8554 17.695 35.5054 17.31 35.8854 16.54H37.7304C37.4804 17.3 37.0254 17.925 36.3654 18.415C35.7154 18.895 34.9054 19.135 33.9354 19.135C33.1454 19.135 32.4354 18.96 31.8054 18.61C31.1854 18.25 30.6954 17.75 30.3354 17.11C29.9854 16.46 29.8104 15.71 29.8104 14.86C29.8104 14.01 29.9804 13.265 30.3204 12.625C30.6704 11.975 31.1554 11.475 31.7754 11.125C32.4054 10.775 33.1254 10.6 33.9354 10.6C34.7154 10.6 35.4104 10.77 36.0204 11.11C36.6304 11.45 37.1054 11.93 37.4454 12.55C37.7854 13.16 37.9554 13.865 37.9554 14.665ZM36.1704 14.125C36.1604 13.495 35.9354 12.99 35.4954 12.61C35.0554 12.23 34.5104 12.04 33.8604 12.04C33.2704 12.04 32.7654 12.23 32.3454 12.61C31.9254 12.98 31.6754 13.485 31.5954 14.125H36.1704ZM35.4354 8.515L32.1204 10.15V8.89L35.4354 7.06V8.515ZM39.0682 14.83C39.0682 14 39.2382 13.265 39.5782 12.625C39.9282 11.985 40.3982 11.49 40.9882 11.14C41.5882 10.78 42.2532 10.6 42.9832 10.6C43.5232 10.6 44.0532 10.72 44.5732 10.96C45.1032 11.19 45.5232 11.5 45.8332 11.89V7.9H47.5582V19H45.8332V17.755C45.5532 18.155 45.1632 18.485 44.6632 18.745C44.1732 19.005 43.6082 19.135 42.9682 19.135C42.2482 19.135 41.5882 18.955 40.9882 18.595C40.3982 18.225 39.9282 17.715 39.5782 17.065C39.2382 16.405 39.0682 15.66 39.0682 14.83ZM45.8332 14.86C45.8332 14.29 45.7132 13.795 45.4732 13.375C45.2432 12.955 44.9382 12.635 44.5582 12.415C44.1782 12.195 43.7682 12.085 43.3282 12.085C42.8882 12.085 42.4782 12.195 42.0982 12.415C41.7182 12.625 41.4082 12.94 41.1682 13.36C40.9382 13.77 40.8232 14.26 40.8232 14.83C40.8232 15.4 40.9382 15.9 41.1682 16.33C41.4082 16.76 41.7182 17.09 42.0982 17.32C42.4882 17.54 42.8982 17.65 43.3282 17.65C43.7682 17.65 44.1782 17.54 44.5582 17.32C44.9382 17.1 45.2432 16.78 45.4732 16.36C45.7132 15.93 45.8332 15.43 45.8332 14.86ZM50.6742 9.64C50.3642 9.64 50.1042 9.535 49.8942 9.325C49.6842 9.115 49.5792 8.855 49.5792 8.545C49.5792 8.235 49.6842 7.975 49.8942 7.765C50.1042 7.555 50.3642 7.45 50.6742 7.45C50.9742 7.45 51.2292 7.555 51.4392 7.765C51.6492 7.975 51.7542 8.235 51.7542 8.545C51.7542 8.855 51.6492 9.115 51.4392 9.325C51.2292 9.535 50.9742 9.64 50.6742 9.64ZM51.5142 10.735V19H49.8042V10.735H51.5142ZM55.7543 12.13V16.705C55.7543 17.015 55.8243 17.24 55.9643 17.38C56.1143 17.51 56.3643 17.575 56.7143 17.575H57.7643V19H56.4143C55.6443 19 55.0543 18.82 54.6443 18.46C54.2343 18.1 54.0293 17.515 54.0293 16.705V12.13H53.0543V10.735H54.0293V8.68H55.7543V10.735H57.7643V12.13H55.7543ZM69.5218 16.87H65.1568L64.4068 19H62.6218L66.3568 8.56H68.3368L72.0718 19H70.2718L69.5218 16.87ZM69.0418 15.475L67.3468 10.63L65.6368 15.475H69.0418ZM77.0258 10.6C77.6658 10.6 78.2308 10.73 78.7208 10.99C79.2208 11.24 79.6108 11.555 79.8908 11.935V10.735H81.6158V19.135C81.6158 19.895 81.4558 20.57 81.1358 21.16C80.8158 21.76 80.3508 22.23 79.7408 22.57C79.1408 22.91 78.4208 23.08 77.5808 23.08C76.4608 23.08 75.5308 22.815 74.7908 22.285C74.0508 21.765 73.6308 21.055 73.5308 20.155H75.2258C75.3558 20.585 75.6308 20.93 76.0508 21.19C76.4808 21.46 76.9908 21.595 77.5808 21.595C78.2708 21.595 78.8258 21.385 79.2458 20.965C79.6758 20.545 79.8908 19.935 79.8908 19.135V17.755C79.6008 18.145 79.2058 18.475 78.7058 18.745C78.2158 19.005 77.6558 19.135 77.0258 19.135C76.3058 19.135 75.6458 18.955 75.0458 18.595C74.4558 18.225 73.9858 17.715 73.6358 17.065C73.2958 16.405 73.1258 15.66 73.1258 14.83C73.1258 14 73.2958 13.265 73.6358 12.625C73.9858 11.985 74.4558 11.49 75.0458 11.14C75.6458 10.78 76.3058 10.6 77.0258 10.6ZM79.8908 14.86C79.8908 14.29 79.7708 13.795 79.5308 13.375C79.3008 12.955 78.9958 12.635 78.6158 12.415C78.2358 12.195 77.8258 12.085 77.3858 12.085C76.9458 12.085 76.5358 12.195 76.1558 12.415C75.7758 12.625 75.4658 12.94 75.2258 13.36C74.9958 13.77 74.8808 14.26 74.8808 14.83C74.8808 15.4 74.9958 15.9 75.2258 16.33C75.4658 16.76 75.7758 17.09 76.1558 17.32C76.5458 17.54 76.9558 17.65 77.3858 17.65C77.8258 17.65 78.2358 17.54 78.6158 17.32C78.9958 17.1 79.3008 16.78 79.5308 16.36C79.7708 15.93 79.8908 15.43 79.8908 14.86ZM85.5718 11.935C85.8218 11.515 86.1518 11.19 86.5618 10.96C86.9818 10.72 87.4768 10.6 88.0468 10.6V12.37H87.6118C86.9418 12.37 86.4318 12.54 86.0818 12.88C85.7418 13.22 85.5718 13.81 85.5718 14.65V19H83.8618V10.735H85.5718V11.935ZM90.4887 9.64C90.1787 9.64 89.9187 9.535 89.7087 9.325C89.4987 9.115 89.3937 8.855 89.3937 8.545C89.3937 8.235 89.4987 7.975 89.7087 7.765C89.9187 7.555 90.1787 7.45 90.4887 7.45C90.7887 7.45 91.0437 7.555 91.2537 7.765C91.4637 7.975 91.5687 8.235 91.5687 8.545C91.5687 8.855 91.4637 9.115 91.2537 9.325C91.0437 9.535 90.7887 9.64 90.4887 9.64ZM91.3287 10.735V19H89.6187V10.735H91.3287ZM93.0037 14.86C93.0037 14.01 93.1737 13.265 93.5137 12.625C93.8637 11.975 94.3437 11.475 94.9537 11.125C95.5637 10.775 96.2637 10.6 97.0537 10.6C98.0537 10.6 98.8787 10.84 99.5287 11.32C100.189 11.79 100.634 12.465 100.864 13.345H99.0187C98.8687 12.935 98.6287 12.615 98.2987 12.385C97.9687 12.155 97.5537 12.04 97.0537 12.04C96.3537 12.04 95.7937 12.29 95.3737 12.79C94.9637 13.28 94.7587 13.97 94.7587 14.86C94.7587 15.75 94.9637 16.445 95.3737 16.945C95.7937 17.445 96.3537 17.695 97.0537 17.695C98.0437 17.695 98.6987 17.26 99.0187 16.39H100.864C100.624 17.23 100.174 17.9 99.5137 18.4C98.8537 18.89 98.0337 19.135 97.0537 19.135C96.2637 19.135 95.5637 18.96 94.9537 18.61C94.3437 18.25 93.8637 17.75 93.5137 17.11C93.1737 16.46 93.0037 15.71 93.0037 14.86ZM106.153 19.135C105.373 19.135 104.668 18.96 104.038 18.61C103.408 18.25 102.913 17.75 102.553 17.11C102.193 16.46 102.013 15.71 102.013 14.86C102.013 14.02 102.198 13.275 102.568 12.625C102.938 11.975 103.443 11.475 104.083 11.125C104.723 10.775 105.438 10.6 106.228 10.6C107.018 10.6 107.733 10.775 108.373 11.125C109.013 11.475 109.518 11.975 109.888 12.625C110.258 13.275 110.443 14.02 110.443 14.86C110.443 15.7 110.253 16.445 109.873 17.095C109.493 17.745 108.973 18.25 108.313 18.61C107.663 18.96 106.943 19.135 106.153 19.135ZM106.153 17.65C106.593 17.65 107.003 17.545 107.383 17.335C107.773 17.125 108.088 16.81 108.328 16.39C108.568 15.97 108.688 15.46 108.688 14.86C108.688 14.26 108.573 13.755 108.343 13.345C108.113 12.925 107.808 12.61 107.428 12.4C107.048 12.19 106.638 12.085 106.198 12.085C105.758 12.085 105.348 12.19 104.968 12.4C104.598 12.61 104.303 12.925 104.083 13.345C103.863 13.755 103.753 14.26 103.753 14.86C103.753 15.75 103.978 16.44 104.428 16.93C104.888 17.41 105.463 17.65 106.153 17.65ZM113.843 7.9V19H112.133V7.9H113.843ZM123.663 14.665C123.663 14.975 123.643 15.255 123.603 15.505H117.288C117.338 16.165 117.583 16.695 118.023 17.095C118.463 17.495 119.003 17.695 119.643 17.695C120.563 17.695 121.213 17.31 121.593 16.54H123.438C123.188 17.3 122.733 17.925 122.073 18.415C121.423 18.895 120.613 19.135 119.643 19.135C118.853 19.135 118.143 18.96 117.513 18.61C116.893 18.25 116.403 17.75 116.043 17.11C115.693 16.46 115.518 15.71 115.518 14.86C115.518 14.01 115.688 13.265 116.028 12.625C116.378 11.975 116.863 11.475 117.483 11.125C118.113 10.775 118.833 10.6 119.643 10.6C120.423 10.6 121.118 10.77 121.728 11.11C122.338 11.45 122.813 11.93 123.153 12.55C123.493 13.16 123.663 13.865 123.663 14.665ZM121.878 14.125C121.868 13.495 121.643 12.99 121.203 12.61C120.763 12.23 120.218 12.04 119.568 12.04C118.978 12.04 118.473 12.23 118.053 12.61C117.633 12.98 117.383 13.485 117.303 14.125H121.878ZM128.673 13.765C128.673 12.745 128.908 11.83 129.378 11.02C129.858 10.21 130.503 9.58 131.313 9.13C132.133 8.67 133.028 8.44 133.998 8.44C135.108 8.44 136.093 8.715 136.953 9.265C137.823 9.805 138.453 10.575 138.843 11.575H136.788C136.518 11.025 136.143 10.615 135.663 10.345C135.183 10.075 134.628 9.94 133.998 9.94C133.308 9.94 132.693 10.095 132.153 10.405C131.613 10.715 131.188 11.16 130.878 11.74C130.578 12.32 130.428 12.995 130.428 13.765C130.428 14.535 130.578 15.21 130.878 15.79C131.188 16.37 131.613 16.82 132.153 17.14C132.693 17.45 133.308 17.605 133.998 17.605C134.628 17.605 135.183 17.47 135.663 17.2C136.143 16.93 136.518 16.52 136.788 15.97H138.843C138.453 16.97 137.823 17.74 136.953 18.28C136.093 18.82 135.108 19.09 133.998 19.09C133.018 19.09 132.123 18.865 131.313 18.415C130.503 17.955 129.858 17.32 129.378 16.51C128.908 15.7 128.673 14.785 128.673 13.765ZM144.429 19.135C143.649 19.135 142.944 18.96 142.314 18.61C141.684 18.25 141.189 17.75 140.829 17.11C140.469 16.46 140.289 15.71 140.289 14.86C140.289 14.02 140.474 13.275 140.844 12.625C141.214 11.975 141.719 11.475 142.359 11.125C142.999 10.775 143.714 10.6 144.504 10.6C145.294 10.6 146.009 10.775 146.649 11.125C147.289 11.475 147.794 11.975 148.164 12.625C148.534 13.275 148.719 14.02 148.719 14.86C148.719 15.7 148.529 16.445 148.149 17.095C147.769 17.745 147.249 18.25 146.589 18.61C145.939 18.96 145.219 19.135 144.429 19.135ZM144.429 17.65C144.869 17.65 145.279 17.545 145.659 17.335C146.049 17.125 146.364 16.81 146.604 16.39C146.844 15.97 146.964 15.46 146.964 14.86C146.964 14.26 146.849 13.755 146.619 13.345C146.389 12.925 146.084 12.61 145.704 12.4C145.324 12.19 144.914 12.085 144.474 12.085C144.034 12.085 143.624 12.19 143.244 12.4C142.874 12.61 142.579 12.925 142.359 13.345C142.139 13.755 142.029 14.26 142.029 14.86C142.029 15.75 142.254 16.44 142.704 16.93C143.164 17.41 143.739 17.65 144.429 17.65ZM154.58 10.6C155.23 10.6 155.81 10.735 156.32 11.005C156.84 11.275 157.245 11.675 157.535 12.205C157.825 12.735 157.97 13.375 157.97 14.125V19H156.275V14.38C156.275 13.64 156.09 13.075 155.72 12.685C155.35 12.285 154.845 12.085 154.205 12.085C153.565 12.085 153.055 12.285 152.675 12.685C152.305 13.075 152.12 13.64 152.12 14.38V19H150.41V10.735H152.12V11.68C152.4 11.34 152.755 11.075 153.185 10.885C153.625 10.695 154.09 10.6 154.58 10.6ZM163.151 19.135C162.501 19.135 161.916 19.02 161.396 18.79C160.886 18.55 160.481 18.23 160.181 17.83C159.881 17.42 159.721 16.965 159.701 16.465H161.471C161.501 16.815 161.666 17.11 161.966 17.35C162.276 17.58 162.661 17.695 163.121 17.695C163.601 17.695 163.971 17.605 164.231 17.425C164.501 17.235 164.636 16.995 164.636 16.705C164.636 16.395 164.486 16.165 164.186 16.015C163.896 15.865 163.431 15.7 162.791 15.52C162.171 15.35 161.666 15.185 161.276 15.025C160.886 14.865 160.546 14.62 160.256 14.29C159.976 13.96 159.836 13.525 159.836 12.985C159.836 12.545 159.966 12.145 160.226 11.785C160.486 11.415 160.856 11.125 161.336 10.915C161.826 10.705 162.386 10.6 163.016 10.6C163.956 10.6 164.711 10.84 165.281 11.32C165.861 11.79 166.171 12.435 166.211 13.255H164.501C164.471 12.885 164.321 12.59 164.051 12.37C163.781 12.15 163.416 12.04 162.956 12.04C162.506 12.04 162.161 12.125 161.921 12.295C161.681 12.465 161.561 12.69 161.561 12.97C161.561 13.19 161.641 13.375 161.801 13.525C161.961 13.675 162.156 13.795 162.386 13.885C162.616 13.965 162.956 14.07 163.406 14.2C164.006 14.36 164.496 14.525 164.876 14.695C165.266 14.855 165.601 15.095 165.881 15.415C166.161 15.735 166.306 16.16 166.316 16.69C166.316 17.16 166.186 17.58 165.926 17.95C165.666 18.32 165.296 18.61 164.816 18.82C164.346 19.03 163.791 19.135 163.151 19.135ZM175.739 14.665C175.739 14.975 175.719 15.255 175.679 15.505H169.364C169.414 16.165 169.659 16.695 170.099 17.095C170.539 17.495 171.079 17.695 171.719 17.695C172.639 17.695 173.289 17.31 173.669 16.54H175.514C175.264 17.3 174.809 17.925 174.149 18.415C173.499 18.895 172.689 19.135 171.719 19.135C170.929 19.135 170.219 18.96 169.589 18.61C168.969 18.25 168.479 17.75 168.119 17.11C167.769 16.46 167.594 15.71 167.594 14.86C167.594 14.01 167.764 13.265 168.104 12.625C168.454 11.975 168.939 11.475 169.559 11.125C170.189 10.775 170.909 10.6 171.719 10.6C172.499 10.6 173.194 10.77 173.804 11.11C174.414 11.45 174.889 11.93 175.229 12.55C175.569 13.16 175.739 13.865 175.739 14.665ZM173.954 14.125C173.944 13.495 173.719 12.99 173.279 12.61C172.839 12.23 172.294 12.04 171.644 12.04C171.054 12.04 170.549 12.23 170.129 12.61C169.709 12.98 169.459 13.485 169.379 14.125H173.954ZM178.291 9.64C177.981 9.64 177.721 9.535 177.511 9.325C177.301 9.115 177.196 8.855 177.196 8.545C177.196 8.235 177.301 7.975 177.511 7.765C177.721 7.555 177.981 7.45 178.291 7.45C178.591 7.45 178.846 7.555 179.056 7.765C179.266 7.975 179.371 8.235 179.371 8.545C179.371 8.855 179.266 9.115 179.056 9.325C178.846 9.535 178.591 9.64 178.291 9.64ZM179.131 10.735V19H177.421V10.735H179.131ZM183.086 7.9V19H181.376V7.9H183.086ZM14.8367 40L13.5467 38.71C13.0467 39.21 12.5017 39.585 11.9117 39.835C11.3217 40.075 10.6617 40.195 9.93174 40.195C9.19174 40.195 8.53674 40.065 7.96674 39.805C7.39674 39.545 6.95674 39.175 6.64674 38.695C6.33674 38.205 6.18174 37.64 6.18174 37C6.18174 36.28 6.38674 35.64 6.79674 35.08C7.20674 34.51 7.81674 34.06 8.62674 33.73C8.33674 33.38 8.13174 33.055 8.01174 32.755C7.89174 32.445 7.83174 32.105 7.83174 31.735C7.83174 31.275 7.94674 30.865 8.17674 30.505C8.41674 30.145 8.75674 29.86 9.19674 29.65C9.63674 29.44 10.1467 29.335 10.7267 29.335C11.3167 29.335 11.8167 29.45 12.2267 29.68C12.6467 29.9 12.9567 30.205 13.1567 30.595C13.3667 30.985 13.4517 31.42 13.4117 31.9H11.7017C11.7117 31.53 11.6217 31.245 11.4317 31.045C11.2417 30.835 10.9817 30.73 10.6517 30.73C10.3217 30.73 10.0517 30.83 9.84174 31.03C9.64174 31.22 9.54174 31.455 9.54174 31.735C9.54174 32.005 9.61674 32.275 9.76674 32.545C9.92674 32.805 10.2017 33.145 10.5917 33.565L13.3517 36.31L14.4167 34.555H16.2617L14.9117 36.865L14.5367 37.48L17.0717 40H14.8367ZM9.93174 38.74C10.8717 38.74 11.7017 38.355 12.4217 37.585L9.66174 34.81C8.48174 35.28 7.89174 35.99 7.89174 36.94C7.89174 37.45 8.08174 37.88 8.46174 38.23C8.84174 38.57 9.33174 38.74 9.93174 38.74ZM25.4944 29.575C26.6044 29.575 27.5744 29.79 28.4044 30.22C29.2444 30.64 29.8894 31.25 30.3394 32.05C30.7994 32.84 31.0294 33.765 31.0294 34.825C31.0294 35.885 30.7994 36.805 30.3394 37.585C29.8894 38.365 29.2444 38.965 28.4044 39.385C27.5744 39.795 26.6044 40 25.4944 40H22.0894V29.575H25.4944ZM25.4944 38.605C26.7144 38.605 27.6494 38.275 28.2994 37.615C28.9494 36.955 29.2744 36.025 29.2744 34.825C29.2744 33.615 28.9494 32.67 28.2994 31.99C27.6494 31.31 26.7144 30.97 25.4944 30.97H23.7994V38.605H25.4944ZM40.2991 35.665C40.2991 35.975 40.2791 36.255 40.2391 36.505H33.9241C33.9741 37.165 34.2191 37.695 34.6591 38.095C35.0991 38.495 35.6391 38.695 36.2791 38.695C37.1991 38.695 37.8491 38.31 38.2291 37.54H40.0741C39.8241 38.3 39.3691 38.925 38.7091 39.415C38.0591 39.895 37.2491 40.135 36.2791 40.135C35.4891 40.135 34.7791 39.96 34.1491 39.61C33.5291 39.25 33.0391 38.75 32.6791 38.11C32.3291 37.46 32.1541 36.71 32.1541 35.86C32.1541 35.01 32.3241 34.265 32.6641 33.625C33.0141 32.975 33.4991 32.475 34.1191 32.125C34.7491 31.775 35.4691 31.6 36.2791 31.6C37.0591 31.6 37.7541 31.77 38.3641 32.11C38.9741 32.45 39.4491 32.93 39.7891 33.55C40.1291 34.16 40.2991 34.865 40.2991 35.665ZM38.5141 35.125C38.5041 34.495 38.2791 33.99 37.8391 33.61C37.3991 33.23 36.8541 33.04 36.2041 33.04C35.6141 33.04 35.1091 33.23 34.6891 33.61C34.2691 33.98 34.0191 34.485 33.9391 35.125H38.5141ZM37.7791 29.515L34.4641 31.15V29.89L37.7791 28.06V29.515ZM45.1769 38.47L47.5169 31.735H49.3319L46.1819 40H44.1419L41.0069 31.735H42.8369L45.1769 38.47ZM58.1995 35.665C58.1995 35.975 58.1795 36.255 58.1395 36.505H51.8245C51.8745 37.165 52.1195 37.695 52.5595 38.095C52.9995 38.495 53.5395 38.695 54.1795 38.695C55.0995 38.695 55.7495 38.31 56.1295 37.54H57.9745C57.7245 38.3 57.2695 38.925 56.6095 39.415C55.9595 39.895 55.1495 40.135 54.1795 40.135C53.3895 40.135 52.6795 39.96 52.0495 39.61C51.4295 39.25 50.9395 38.75 50.5795 38.11C50.2295 37.46 50.0545 36.71 50.0545 35.86C50.0545 35.01 50.2245 34.265 50.5645 33.625C50.9145 32.975 51.3995 32.475 52.0195 32.125C52.6495 31.775 53.3695 31.6 54.1795 31.6C54.9595 31.6 55.6545 31.77 56.2645 32.11C56.8745 32.45 57.3495 32.93 57.6895 33.55C58.0295 34.16 58.1995 34.865 58.1995 35.665ZM56.4145 35.125C56.4045 34.495 56.1795 33.99 55.7395 33.61C55.2995 33.23 54.7545 33.04 54.1045 33.04C53.5145 33.04 53.0095 33.23 52.5895 33.61C52.1695 33.98 51.9195 34.485 51.8395 35.125H56.4145ZM61.5923 28.9V40H59.8823V28.9H61.5923ZM67.4224 40.135C66.6424 40.135 65.9374 39.96 65.3074 39.61C64.6774 39.25 64.1824 38.75 63.8224 38.11C63.4624 37.46 63.2824 36.71 63.2824 35.86C63.2824 35.02 63.4674 34.275 63.8374 33.625C64.2074 32.975 64.7124 32.475 65.3524 32.125C65.9924 31.775 66.7074 31.6 67.4974 31.6C68.2874 31.6 69.0024 31.775 69.6424 32.125C70.2824 32.475 70.7874 32.975 71.1574 33.625C71.5274 34.275 71.7124 35.02 71.7124 35.86C71.7124 36.7 71.5224 37.445 71.1424 38.095C70.7624 38.745 70.2424 39.25 69.5824 39.61C68.9324 39.96 68.2124 40.135 67.4224 40.135ZM67.4224 38.65C67.8624 38.65 68.2724 38.545 68.6524 38.335C69.0424 38.125 69.3574 37.81 69.5974 37.39C69.8374 36.97 69.9574 36.46 69.9574 35.86C69.9574 35.26 69.8424 34.755 69.6124 34.345C69.3824 33.925 69.0774 33.61 68.6974 33.4C68.3174 33.19 67.9074 33.085 67.4674 33.085C67.0274 33.085 66.6174 33.19 66.2374 33.4C65.8674 33.61 65.5724 33.925 65.3524 34.345C65.1324 34.755 65.0224 35.26 65.0224 35.86C65.0224 36.75 65.2474 37.44 65.6974 37.93C66.1574 38.41 66.7324 38.65 67.4224 38.65ZM75.1128 32.95C75.4028 32.57 75.7978 32.25 76.2978 31.99C76.7978 31.73 77.3628 31.6 77.9928 31.6C78.7128 31.6 79.3678 31.78 79.9578 32.14C80.5578 32.49 81.0278 32.985 81.3678 33.625C81.7078 34.265 81.8778 35 81.8778 35.83C81.8778 36.66 81.7078 37.405 81.3678 38.065C81.0278 38.715 80.5578 39.225 79.9578 39.595C79.3678 39.955 78.7128 40.135 77.9928 40.135C77.3628 40.135 76.8028 40.01 76.3128 39.76C75.8228 39.5 75.4228 39.18 75.1128 38.8V43.93H73.4028V31.735H75.1128V32.95ZM80.1378 35.83C80.1378 35.26 80.0178 34.77 79.7778 34.36C79.5478 33.94 79.2378 33.625 78.8478 33.415C78.4678 33.195 78.0578 33.085 77.6178 33.085C77.1878 33.085 76.7778 33.195 76.3878 33.415C76.0078 33.635 75.6978 33.955 75.4578 34.375C75.2278 34.795 75.1128 35.29 75.1128 35.86C75.1128 36.43 75.2278 36.93 75.4578 37.36C75.6978 37.78 76.0078 38.1 76.3878 38.32C76.7778 38.54 77.1878 38.65 77.6178 38.65C78.0578 38.65 78.4678 38.54 78.8478 38.32C79.2378 38.09 79.5478 37.76 79.7778 37.33C80.0178 36.9 80.1378 36.4 80.1378 35.83ZM85.2788 32.95C85.5688 32.57 85.9638 32.25 86.4638 31.99C86.9638 31.73 87.5288 31.6 88.1588 31.6C88.8788 31.6 89.5338 31.78 90.1238 32.14C90.7238 32.49 91.1938 32.985 91.5338 33.625C91.8738 34.265 92.0438 35 92.0438 35.83C92.0438 36.66 91.8738 37.405 91.5338 38.065C91.1938 38.715 90.7238 39.225 90.1238 39.595C89.5338 39.955 88.8788 40.135 88.1588 40.135C87.5288 40.135 86.9688 40.01 86.4788 39.76C85.9888 39.5 85.5888 39.18 85.2788 38.8V43.93H83.5688V31.735H85.2788V32.95ZM90.3038 35.83C90.3038 35.26 90.1838 34.77 89.9438 34.36C89.7138 33.94 89.4038 33.625 89.0138 33.415C88.6338 33.195 88.2238 33.085 87.7838 33.085C87.3538 33.085 86.9438 33.195 86.5538 33.415C86.1738 33.635 85.8638 33.955 85.6238 34.375C85.3938 34.795 85.2788 35.29 85.2788 35.86C85.2788 36.43 85.3938 36.93 85.6238 37.36C85.8638 37.78 86.1738 38.1 86.5538 38.32C86.9438 38.54 87.3538 38.65 87.7838 38.65C88.2238 38.65 88.6338 38.54 89.0138 38.32C89.4038 38.09 89.7138 37.76 89.9438 37.33C90.1838 36.9 90.3038 36.4 90.3038 35.83ZM101.31 35.665C101.31 35.975 101.29 36.255 101.25 36.505H94.9349C94.9849 37.165 95.2299 37.695 95.6699 38.095C96.1099 38.495 96.6499 38.695 97.2899 38.695C98.2099 38.695 98.8599 38.31 99.2399 37.54H101.085C100.835 38.3 100.38 38.925 99.7199 39.415C99.0699 39.895 98.2599 40.135 97.2899 40.135C96.4999 40.135 95.7899 39.96 95.1599 39.61C94.5399 39.25 94.0499 38.75 93.6899 38.11C93.3399 37.46 93.1649 36.71 93.1649 35.86C93.1649 35.01 93.3349 34.265 93.6749 33.625C94.0249 32.975 94.5099 32.475 95.1299 32.125C95.7599 31.775 96.4799 31.6 97.2899 31.6C98.0699 31.6 98.7649 31.77 99.3749 32.11C99.9849 32.45 100.46 32.93 100.8 33.55C101.14 34.16 101.31 34.865 101.31 35.665ZM99.5249 35.125C99.5149 34.495 99.2899 33.99 98.8499 33.61C98.4099 33.23 97.8649 33.04 97.2149 33.04C96.6249 33.04 96.1199 33.23 95.6999 33.61C95.2799 33.98 95.0299 34.485 94.9499 35.125H99.5249ZM112.998 31.6C113.648 31.6 114.228 31.735 114.738 32.005C115.258 32.275 115.663 32.675 115.953 33.205C116.253 33.735 116.403 34.375 116.403 35.125V40H114.708V35.38C114.708 34.64 114.523 34.075 114.153 33.685C113.783 33.285 113.278 33.085 112.638 33.085C111.998 33.085 111.488 33.285 111.108 33.685C110.738 34.075 110.553 34.64 110.553 35.38V40H108.858V35.38C108.858 34.64 108.673 34.075 108.303 33.685C107.933 33.285 107.428 33.085 106.788 33.085C106.148 33.085 105.638 33.285 105.258 33.685C104.888 34.075 104.703 34.64 104.703 35.38V40H102.993V31.735H104.703V32.68C104.983 32.34 105.338 32.075 105.768 31.885C106.198 31.695 106.658 31.6 107.148 31.6C107.808 31.6 108.398 31.74 108.918 32.02C109.438 32.3 109.838 32.705 110.118 33.235C110.368 32.735 110.758 32.34 111.288 32.05C111.818 31.75 112.388 31.6 112.998 31.6ZM126.154 35.665C126.154 35.975 126.134 36.255 126.094 36.505H119.779C119.829 37.165 120.074 37.695 120.514 38.095C120.954 38.495 121.494 38.695 122.134 38.695C123.054 38.695 123.704 38.31 124.084 37.54H125.929C125.679 38.3 125.224 38.925 124.564 39.415C123.914 39.895 123.104 40.135 122.134 40.135C121.344 40.135 120.634 39.96 120.004 39.61C119.384 39.25 118.894 38.75 118.534 38.11C118.184 37.46 118.009 36.71 118.009 35.86C118.009 35.01 118.179 34.265 118.519 33.625C118.869 32.975 119.354 32.475 119.974 32.125C120.604 31.775 121.324 31.6 122.134 31.6C122.914 31.6 123.609 31.77 124.219 32.11C124.829 32.45 125.304 32.93 125.644 33.55C125.984 34.16 126.154 34.865 126.154 35.665ZM124.369 35.125C124.359 34.495 124.134 33.99 123.694 33.61C123.254 33.23 122.709 33.04 122.059 33.04C121.469 33.04 120.964 33.23 120.544 33.61C120.124 33.98 119.874 34.485 119.794 35.125H124.369ZM132.006 31.6C132.656 31.6 133.236 31.735 133.746 32.005C134.266 32.275 134.671 32.675 134.961 33.205C135.251 33.735 135.396 34.375 135.396 35.125V40H133.701V35.38C133.701 34.64 133.516 34.075 133.146 33.685C132.776 33.285 132.271 33.085 131.631 33.085C130.991 33.085 130.481 33.285 130.101 33.685C129.731 34.075 129.546 34.64 129.546 35.38V40H127.836V31.735H129.546V32.68C129.826 32.34 130.181 32.075 130.611 31.885C131.051 31.695 131.516 31.6 132.006 31.6ZM139.573 33.13V37.705C139.573 38.015 139.643 38.24 139.783 38.38C139.933 38.51 140.183 38.575 140.533 38.575H141.583V40H140.233C139.463 40 138.873 39.82 138.463 39.46C138.053 39.1 137.848 38.515 137.848 37.705V33.13H136.873V31.735H137.848V29.68H139.573V31.735H141.583V33.13H139.573ZM150.46 29.575C151.57 29.575 152.54 29.79 153.37 30.22C154.21 30.64 154.855 31.25 155.305 32.05C155.765 32.84 155.995 33.765 155.995 34.825C155.995 35.885 155.765 36.805 155.305 37.585C154.855 38.365 154.21 38.965 153.37 39.385C152.54 39.795 151.57 40 150.46 40H147.055V29.575H150.46ZM150.46 38.605C151.68 38.605 152.615 38.275 153.265 37.615C153.915 36.955 154.24 36.025 154.24 34.825C154.24 33.615 153.915 32.67 153.265 31.99C152.615 31.31 151.68 30.97 150.46 30.97H148.765V38.605H150.46ZM158.56 30.64C158.25 30.64 157.99 30.535 157.78 30.325C157.57 30.115 157.465 29.855 157.465 29.545C157.465 29.235 157.57 28.975 157.78 28.765C157.99 28.555 158.25 28.45 158.56 28.45C158.86 28.45 159.115 28.555 159.325 28.765C159.535 28.975 159.64 29.235 159.64 29.545C159.64 29.855 159.535 30.115 159.325 30.325C159.115 30.535 158.86 30.64 158.56 30.64ZM159.4 31.735V40H157.69V31.735H159.4ZM164.975 31.6C165.615 31.6 166.18 31.73 166.67 31.99C167.17 32.24 167.56 32.555 167.84 32.935V31.735H169.565V40.135C169.565 40.895 169.405 41.57 169.085 42.16C168.765 42.76 168.3 43.23 167.69 43.57C167.09 43.91 166.37 44.08 165.53 44.08C164.41 44.08 163.48 43.815 162.74 43.285C162 42.765 161.58 42.055 161.48 41.155H163.175C163.305 41.585 163.58 41.93 164 42.19C164.43 42.46 164.94 42.595 165.53 42.595C166.22 42.595 166.775 42.385 167.195 41.965C167.625 41.545 167.84 40.935 167.84 40.135V38.755C167.55 39.145 167.155 39.475 166.655 39.745C166.165 40.005 165.605 40.135 164.975 40.135C164.255 40.135 163.595 39.955 162.995 39.595C162.405 39.225 161.935 38.715 161.585 38.065C161.245 37.405 161.075 36.66 161.075 35.83C161.075 35 161.245 34.265 161.585 33.625C161.935 32.985 162.405 32.49 162.995 32.14C163.595 31.78 164.255 31.6 164.975 31.6ZM167.84 35.86C167.84 35.29 167.72 34.795 167.48 34.375C167.25 33.955 166.945 33.635 166.565 33.415C166.185 33.195 165.775 33.085 165.335 33.085C164.895 33.085 164.485 33.195 164.105 33.415C163.725 33.625 163.415 33.94 163.175 34.36C162.945 34.77 162.83 35.26 162.83 35.83C162.83 36.4 162.945 36.9 163.175 37.33C163.415 37.76 163.725 38.09 164.105 38.32C164.495 38.54 164.905 38.65 165.335 38.65C165.775 38.65 166.185 38.54 166.565 38.32C166.945 38.1 167.25 37.78 167.48 37.36C167.72 36.93 167.84 36.43 167.84 35.86ZM172.681 30.64C172.371 30.64 172.111 30.535 171.901 30.325C171.691 30.115 171.586 29.855 171.586 29.545C171.586 29.235 171.691 28.975 171.901 28.765C172.111 28.555 172.371 28.45 172.681 28.45C172.981 28.45 173.236 28.555 173.446 28.765C173.656 28.975 173.761 29.235 173.761 29.545C173.761 29.855 173.656 30.115 173.446 30.325C173.236 30.535 172.981 30.64 172.681 30.64ZM173.521 31.735V40H171.811V31.735H173.521ZM177.761 33.13V37.705C177.761 38.015 177.831 38.24 177.971 38.38C178.121 38.51 178.371 38.575 178.721 38.575H179.771V40H178.421C177.651 40 177.061 39.82 176.651 39.46C176.241 39.1 176.036 38.515 176.036 37.705V33.13H175.061V31.735H176.036V29.68H177.761V31.735H179.771V33.13H177.761ZM180.777 35.83C180.777 35 180.947 34.265 181.287 33.625C181.637 32.985 182.107 32.49 182.697 32.14C183.297 31.78 183.957 31.6 184.677 31.6C185.327 31.6 185.892 31.73 186.372 31.99C186.862 32.24 187.252 32.555 187.542 32.935V31.735H189.267V40H187.542V38.77C187.252 39.16 186.857 39.485 186.357 39.745C185.857 40.005 185.287 40.135 184.647 40.135C183.937 40.135 183.287 39.955 182.697 39.595C182.107 39.225 181.637 38.715 181.287 38.065C180.947 37.405 180.777 36.66 180.777 35.83ZM187.542 35.86C187.542 35.29 187.422 34.795 187.182 34.375C186.952 33.955 186.647 33.635 186.267 33.415C185.887 33.195 185.477 33.085 185.037 33.085C184.597 33.085 184.187 33.195 183.807 33.415C183.427 33.625 183.117 33.94 182.877 34.36C182.647 34.77 182.532 35.26 182.532 35.83C182.532 36.4 182.647 36.9 182.877 37.33C183.117 37.76 183.427 38.09 183.807 38.32C184.197 38.54 184.607 38.65 185.037 38.65C185.477 38.65 185.887 38.54 186.267 38.32C186.647 38.1 186.952 37.78 187.182 37.36C187.422 36.93 187.542 36.43 187.542 35.86ZM193.223 28.9V40H191.513V28.9H193.223Z" fill="#181818"/>
<path d="M92.3296 66.925L92.6474 66.8911L92.9818 66.8396L93.7673 66.7372L94.6362 66.5484L95.5223 66.3436L96.3917 66.0869L97.2944 65.8132L98.197 65.4885L98.8845 65.2657L99.1686 65.1294L99.4362 64.9581L99.67 64.7358L99.8872 64.4965L100.055 64.2058L104.384 54.8993L111.321 72.5817L111.405 72.787L111.522 72.9754L111.673 73.1462L111.84 73.283L112.04 73.4029L112.24 73.4713L112.458 73.5228H112.675L118.574 73.5441L107.775 49.8557H101.39L92.3296 66.925Z" fill="#848484"/>
<path d="M122.586 51.2761V47L112.037 52.8834L111.937 52.9348L111.719 53.0202L111.486 53.0887H111.268L111.084 53.0548L110.884 52.9863L110.717 52.9179L110.65 52.8834L110.733 53.1571L110.9 53.7045L111.118 54.269L111.404 54.8334L111.738 55.3463L112.089 55.7739L112.42 56.081L112.721 56.2518L113.005 56.3202H113.29L113.557 56.2863L113.759 56.2178L113.925 56.1494L113.992 56.098L122.586 51.2761Z" fill="#848484"/>
<path d="M122.586 58.4248V53.3621L119.109 55.3805L115.749 57.313L112.606 59.0916L109.745 60.6825L107.171 62.085L104.866 63.2987L102.76 64.3427L100.871 65.2148L99.0977 65.9845L97.4096 66.6173L95.7376 67.1812L94.1164 67.6602L92.4952 68.0539L90.9247 68.3982L89.4368 68.6549L88.0328 68.858L86.7791 68.9949L85.6588 69.0628L84.723 69.1142L83.9022 69.0798L82.6667 68.9456L81.8155 68.7381L81.197 68.4814L80.6961 68.1393L80.2949 67.7462L79.977 67.2841L79.793 66.7712L79.7261 66.1723L79.793 65.454L80.0439 64.6329L80.4436 63.7449L80.9787 62.8383L81.6469 61.9318L82.3992 61.0597L83.1681 60.2555L83.9557 59.5537L84.8081 58.8694L85.761 58.1341L86.747 57.4668L87.7011 56.8685L88.6872 56.304L89.707 55.7735L90.7241 55.3143L91.7605 54.8867L92.7466 54.5445L93.6664 54.2539L94.485 54.0655L95.2373 53.9456L95.9896 53.9117L96.7755 53.9801L97.1934 54.0316L96.9762 53.2444L96.5915 51.9103L96.2903 50.9675L96.0564 50.4031L95.8729 50.0955L95.6889 49.9072L95.4882 49.7703L95.1704 49.6504L94.6691 49.5995L93.9505 49.6334L93.0478 49.7533L92.028 49.9756L90.9745 50.2832L89.8712 50.6938L88.8011 51.1559L87.7813 51.6349L86.7952 52.1648L85.8283 52.7292L84.8423 53.3621L83.8225 54.0634L82.8192 54.7986L81.931 55.5332L81.1456 56.2011L80.4436 56.8854L79.7582 57.6036L79.1231 58.3903L78.5377 59.2115L78.0198 60.0496L77.6019 60.9562L77.2675 61.8628L77.0835 62.7858L77 63.6754L77.0669 64.6334L77.2338 65.6423L77.5013 66.6513L77.8523 67.6093L78.2536 68.4814L78.7218 69.2511L79.2734 70.0038L79.9085 70.6876L80.594 71.2865L81.3291 71.8L82.1488 72.21L83.1183 72.5692L84.2714 72.8943L85.5074 73.1166L86.7781 73.2535L88.0317 73.2874L89.2351 73.2189L90.3228 73.1335L91.3592 72.9797L92.3956 72.7914L93.432 72.5861L94.4015 72.3469L95.3523 72.1071L96.3556 71.8L97.3914 71.4918L98.4284 71.1496L99.4808 70.7735L100.534 70.3629L101.587 69.9348L102.641 69.4733L103.711 68.9604L104.85 68.3982L105.501 68.0391L106.354 67.577L107.524 66.9272L109.229 65.9867L111.583 64.6526L114.709 62.8909L118.455 60.7526L122.586 58.4248Z" fill="#848484"/>
</svg>
