<svg width="24" height="24" viewBox="0 0 24 24" fill="none" xmlns="http://www.w3.org/2000/svg">
<g clip-path="url(#clip0_1784_17686)">
<g clip-path="url(#clip1_1784_17686)">
<path d="M12 20.5C13.3833 20.5 14.5625 20.0125 15.5375 19.0375C16.5125 18.0625 17 16.8833 17 15.5C17 14.1167 16.5125 12.9375 15.5375 11.9625C14.5625 10.9875 13.3833 10.5 12 10.5C10.6167 10.5 9.4375 10.9875 8.4625 11.9625C7.4875 12.9375 7 14.1167 7 15.5C7 16.8833 7.4875 18.0625 8.4625 19.0375C9.4375 20.0125 10.6167 20.5 12 20.5ZM8.65 9.925C9.11667 9.64167 9.61667 9.42083 10.15 9.2625C10.6833 9.10417 11.2417 9.01667 11.825 9L9.075 3.5H5.425L8.65 9.925ZM6.825 19.425C6.40833 18.875 6.08333 18.2708 5.85 17.6125C5.61667 16.9542 5.5 16.25 5.5 15.5C5.5 14.75 5.61667 14.0458 5.85 13.3875C6.08333 12.7292 6.40833 12.125 6.825 11.575C5.875 11.7417 5.08333 12.1875 4.45 12.9125C3.81667 13.6375 3.5 14.5 3.5 15.5C3.5 16.5 3.81667 17.3625 4.45 18.0875C5.08333 18.8125 5.875 19.2583 6.825 19.425ZM17.175 19.425C18.125 19.2583 18.9167 18.8125 19.55 18.0875C20.1833 17.3625 20.5 16.5 20.5 15.5C20.5 14.5 20.1833 13.6375 19.55 12.9125C18.9167 12.1875 18.125 11.7417 17.175 11.575C17.5917 12.125 17.9167 12.7292 18.15 13.3875C18.3833 14.0458 18.5 14.75 18.5 15.5C18.5 16.25 18.3833 16.9542 18.15 17.6125C17.9167 18.2708 17.5917 18.875 17.175 19.425ZM12 22C11.3333 22 10.6958 21.9042 10.0875 21.7125C9.47917 21.5208 8.91667 21.2583 8.4 20.925C8.25 20.9583 8.1 20.9792 7.95 20.9875C7.8 20.9958 7.64167 21 7.475 21C5.95833 21 4.66667 20.4667 3.6 19.4C2.53333 18.3333 2 17.0417 2 15.525C2 14.075 2.48333 12.8333 3.45 11.8C4.41667 10.7667 5.60833 10.1917 7.025 10.075L3.55 3.075C3.41667 2.825 3.425 2.58333 3.575 2.35C3.725 2.11667 3.94167 2 4.225 2H9.075C9.35833 2 9.62083 2.075 9.8625 2.225C10.1042 2.375 10.2917 2.575 10.425 2.825L12 6L13.575 2.825C13.7083 2.575 13.8958 2.375 14.1375 2.225C14.3792 2.075 14.6417 2 14.925 2H19.775C20.0583 2 20.275 2.11667 20.425 2.35C20.575 2.58333 20.5833 2.825 20.45 3.075L17 10.025C18.4167 10.1583 19.6042 10.7417 20.5625 11.775C21.5208 12.8083 22 14.05 22 15.5C22 17.0333 21.4667 18.3333 20.4 19.4C19.3333 20.4667 18.0333 21 16.5 21C16.35 21 16.1958 20.9958 16.0375 20.9875C15.8792 20.9792 15.725 20.9583 15.575 20.925C15.0583 21.2583 14.5 21.5208 13.9 21.7125C13.3 21.9042 12.6667 22 12 22ZM12 16.85L10.625 17.9C10.5417 17.95 10.4625 17.95 10.3875 17.9C10.3125 17.85 10.2917 17.7833 10.325 17.7L10.85 15.975L9.475 15C9.39167 14.95 9.36667 14.8792 9.4 14.7875C9.43333 14.6958 9.49167 14.65 9.575 14.65H11.275L11.825 12.85C11.8583 12.7667 11.9167 12.725 12 12.725C12.0833 12.725 12.1417 12.7667 12.175 12.85L12.725 14.65H14.425C14.5083 14.65 14.5667 14.6958 14.6 14.7875C14.6333 14.8792 14.6083 14.95 14.525 15L13.15 15.975L13.675 17.7C13.7083 17.7833 13.6875 17.85 13.6125 17.9C13.5375 17.95 13.4583 17.95 13.375 17.9L12 16.85ZM15.35 9.925L18.575 3.5H14.925L12.85 7.675L13.6 9.175C13.9167 9.25833 14.2208 9.3625 14.5125 9.4875C14.8042 9.6125 15.0833 9.75833 15.35 9.925Z" fill="#148532"/>
</g>
</g>
<defs>
<clipPath id="clip0_1784_17686">
<rect width="24" height="24" fill="white"/>
</clipPath>
<clipPath id="clip1_1784_17686">
<rect width="24" height="24" fill="white"/>
</clipPath>
</defs>
</svg>
