<svg width="57" height="70" viewBox="0 0 57 70" fill="none" xmlns="http://www.w3.org/2000/svg">
<path d="M56.4217 61.7288H0.150122C0.110307 61.7288 0.0721227 61.7128 0.0439695 61.6844C0.0158162 61.6561 0 61.6176 0 61.5774C0 61.5373 0.0158162 61.4988 0.0439695 61.4704C0.0721227 61.442 0.110307 61.426 0.150122 61.426H56.4217C56.4615 61.426 56.4997 61.442 56.5279 61.4704C56.556 61.4988 56.5718 61.5373 56.5718 61.5774C56.5718 61.6176 56.556 61.6561 56.5279 61.6844C56.4997 61.7128 56.4615 61.7288 56.4217 61.7288Z" fill="#D1D3D4"/>
<path d="M12.9465 64.8411C12.7844 64.8835 16.2492 65.5071 17.0298 65.8523C17.294 65.9673 17.258 67.4932 17.258 67.4932L8.12158 67.9231V63.8359L12.9465 64.8411Z" fill="white"/>
<path d="M8.1218 68.0623C8.08275 68.0619 8.04526 68.0468 8.01672 68.0199C7.98901 67.9904 7.97299 67.9516 7.97168 67.9109V63.8359C7.97166 63.8138 7.97649 63.7921 7.98584 63.7722C7.99519 63.7523 8.00882 63.7347 8.02573 63.7208C8.04268 63.7057 8.06305 63.6951 8.08504 63.6898C8.10702 63.6845 8.12996 63.6848 8.15183 63.6905L12.9737 64.6957C12.999 64.6994 13.0228 64.7099 13.0428 64.726C13.1749 64.7683 13.6433 64.8652 14.0906 64.9621C15.1058 65.1499 16.1085 65.4006 17.0931 65.7129C17.3933 65.8431 17.4293 66.7544 17.4113 67.4962C17.4114 67.5345 17.3967 67.5713 17.3704 67.599C17.3441 67.6266 17.3082 67.6429 17.2702 67.6445L8.13081 68.0593L8.1218 68.0623ZM8.27192 64.0236V67.7505L17.1111 67.3478C17.1111 66.6817 17.051 66.0732 16.958 65.9854C15.9966 65.6874 15.0193 65.4448 14.0306 65.2588C13.642 65.1911 13.2579 65.0991 12.8807 64.9833L8.27192 64.0236Z" fill="#231F20"/>
<path d="M10.2715 66.4094V69.6519C10.2715 69.6519 17.8406 70.0636 18.0057 69.6519C18.1709 69.2401 18.0057 68.2986 18.0057 68.2986C18.0057 68.2986 13.2019 66.9846 13.2019 66.8211C13.2019 66.6576 10.2715 66.4094 10.2715 66.4094Z" fill="white"/>
<path d="M15.6488 70C14.3547 70 12.5593 69.9395 10.2774 69.8154C10.2387 69.8138 10.202 69.7972 10.1751 69.7689C10.1483 69.7407 10.1333 69.7031 10.1333 69.664V66.4094C10.1332 66.3888 10.1374 66.3685 10.1457 66.3497C10.154 66.3309 10.1661 66.3141 10.1813 66.3004C10.1965 66.2861 10.2145 66.2751 10.2342 66.2684C10.2539 66.2616 10.2747 66.2591 10.2954 66.261C12.8055 66.4699 13.2618 66.6062 13.3459 66.7363C13.7002 66.9271 16.3904 67.6961 18.0567 68.1532C18.0839 68.1607 18.1085 68.1757 18.1276 68.1966C18.1467 68.2175 18.1596 68.2434 18.1648 68.2713C18.1828 68.3742 18.3299 69.2704 18.1648 69.7094C18.0777 69.9092 17.2431 70 15.6488 70ZM10.4335 69.5217C13.7903 69.7003 17.4682 69.779 17.8886 69.5792C17.9576 69.1999 17.9576 68.8111 17.8886 68.4318C14.0965 67.3933 13.2889 67.0875 13.1177 66.9362C12.9436 66.8453 11.6555 66.694 10.4396 66.588L10.4335 69.5217Z" fill="#231F20"/>
<path d="M6.5542 39.5004C6.5542 39.7456 7.36786 65.5615 7.36786 65.5615C7.36786 65.5615 12.496 66.2185 12.496 65.5615C12.496 64.9046 13.6369 38.7617 13.6369 38.7617L6.5542 39.5004Z" fill="#231F20"/>
<path d="M5.82178 37.3661C5.82178 37.6143 5.82178 39.994 6.39224 40.8962C6.9627 41.7984 9.39467 67.0391 9.39467 67.0391H14.1745C14.1745 67.0391 16.9608 38.5983 16.8767 36.9573L5.82178 37.3661Z" fill="#231F20"/>
<path d="M23.725 44.178L12.9463 47.6809L15.7055 48.4953L26.8596 44.6896L23.725 44.178Z" fill="white"/>
<path d="M15.7057 48.6466H15.6637L12.9045 47.8322C12.8738 47.8222 12.8469 47.8029 12.8276 47.7769C12.8082 47.7508 12.7973 47.7194 12.7964 47.6869C12.7962 47.6545 12.8063 47.623 12.8252 47.5968C12.8441 47.5706 12.8708 47.5513 12.9015 47.5416L23.6772 44.0387C23.6998 44.0327 23.7236 44.0327 23.7463 44.0387L26.8838 44.5473C26.9169 44.5537 26.9471 44.5707 26.9698 44.5958C26.9925 44.6209 27.0066 44.6528 27.0099 44.6866C27.0118 44.72 27.0028 44.7531 26.9844 44.781C26.966 44.8088 26.9391 44.8299 26.9078 44.841L15.7538 48.6376C15.7385 48.6438 15.7222 48.6469 15.7057 48.6466ZM13.4569 47.6718L15.7027 48.3348L26.2383 44.7411L23.7342 44.3324L13.4569 47.6718Z" fill="#231F20"/>
<path d="M12.9463 47.681L13.3216 58.017L16.1018 58.7739L15.7055 48.4954L12.9463 47.681Z" fill="white"/>
<path d="M16.1021 58.9251H16.063L13.2828 58.1682C13.252 58.1599 13.2247 58.1419 13.2047 58.1169C13.1847 58.0919 13.1732 58.0611 13.1717 58.029L12.7964 47.6929C12.7962 47.6685 12.8014 47.6444 12.8118 47.6223C12.8222 47.6003 12.8375 47.5809 12.8564 47.5658C12.8746 47.5507 12.8963 47.5406 12.9194 47.5364C12.9425 47.5321 12.9663 47.5339 12.9886 47.5415L15.7478 48.3559C15.7785 48.3639 15.8057 48.3819 15.8253 48.4071C15.8448 48.4323 15.8556 48.4632 15.8559 48.4952L16.2522 58.7737C16.2523 58.7974 16.2473 58.8208 16.2374 58.8422C16.2276 58.8637 16.2131 58.8827 16.1951 58.8979C16.1679 58.9169 16.1352 58.9264 16.1021 58.9251ZM13.4689 57.8988L15.9429 58.5739L15.5616 48.6103L13.1056 47.8836L13.4689 57.8988Z" fill="#231F20"/>
<path d="M16.1019 58.774L26.5774 54.4022L26.8596 44.6898L15.7056 48.4955L16.1019 58.774Z" fill="white"/>
<path d="M16.1022 58.9251C16.0734 58.9251 16.0453 58.9166 16.0211 58.9009C16.0005 58.8882 15.9833 58.8704 15.9712 58.8493C15.9592 58.8281 15.9526 58.8042 15.9521 58.7798L15.5558 48.4861C15.5546 48.4532 15.5638 48.4208 15.5822 48.3936C15.6005 48.3663 15.6271 48.3457 15.6579 48.3348L26.8119 44.5291C26.8347 44.5218 26.8589 44.5202 26.8824 44.5244C26.906 44.5286 26.9281 44.5385 26.947 44.5534C26.967 44.5671 26.9832 44.5856 26.9943 44.6073C27.0053 44.629 27.0107 44.6531 27.01 44.6775L26.7278 54.3899C26.7264 54.419 26.7169 54.4472 26.7005 54.4713C26.684 54.4954 26.6613 54.5143 26.6347 54.5261L16.1593 58.8979C16.1428 58.9116 16.1232 58.9209 16.1022 58.9251ZM15.862 48.6012L16.2433 58.5376L26.4306 54.299L26.7038 44.9136L15.862 48.6012Z" fill="#231F20"/>
<path d="M14.5255 57.3267C14.4867 57.3268 14.4494 57.3116 14.4214 57.2846C14.3935 57.2575 14.377 57.2205 14.3754 57.1814L14.0361 48.7769C14.0361 48.7368 14.052 48.6983 14.0801 48.6699C14.1083 48.6415 14.1464 48.6255 14.1863 48.6255C14.2261 48.6255 14.2643 48.6415 14.2924 48.6699C14.3206 48.6983 14.3364 48.7368 14.3364 48.7769L14.6757 57.1844C14.6765 57.2244 14.662 57.2631 14.6351 57.2925C14.6082 57.3218 14.5711 57.3395 14.5315 57.3419L14.5255 57.3267Z" fill="#E6E7E8"/>
<path d="M22.0708 45.6434C22.031 45.6434 21.9928 45.6274 21.9646 45.599C21.9365 45.5707 21.9207 45.5322 21.9207 45.492V43.8813L20.1192 44.5474C20.1005 44.5548 20.0806 44.5584 20.0605 44.5579C20.0405 44.5574 20.0207 44.5529 20.0024 44.5445C19.9841 44.5362 19.9677 44.5243 19.954 44.5094C19.9404 44.4946 19.9298 44.4771 19.923 44.4581C19.9162 44.439 19.9132 44.4188 19.9143 44.3986C19.9153 44.3784 19.9204 44.3586 19.9292 44.3404C19.9379 44.3222 19.9502 44.3059 19.9654 44.2926C19.9805 44.2793 19.9981 44.2692 20.0171 44.2628L22.0288 43.5241C22.0514 43.5158 22.0757 43.5132 22.0996 43.5164C22.1235 43.5196 22.1463 43.5286 22.166 43.5425C22.1857 43.5565 22.2019 43.575 22.213 43.5966C22.2241 43.6181 22.2299 43.6421 22.2299 43.6664V45.4829C22.2312 45.5043 22.228 45.5258 22.2205 45.5459C22.213 45.5659 22.2013 45.5842 22.1862 45.5993C22.1712 45.6145 22.1531 45.6263 22.1332 45.6339C22.1133 45.6415 22.092 45.6447 22.0708 45.6434Z" fill="#231F20"/>
<path d="M20.4348 41.4138C20.4348 41.4532 21.1944 44.4414 21.0833 44.8228C20.8821 45.4737 19.8493 45.8098 19.2458 45.8613C18.885 45.8633 18.5297 45.7716 18.2142 45.5951C17.8986 45.4185 17.6335 45.163 17.4443 44.8531C17.339 44.6851 17.2772 44.4931 17.2646 44.2947C17.252 44.0963 17.289 43.898 17.3723 43.7178C17.5021 43.5056 17.6701 43.3197 17.8677 43.1698C17.923 43.1299 17.9632 43.0722 17.9818 43.0063C17.9867 42.9568 17.9795 42.9069 17.9608 42.861L17.3843 41.1262C17.8407 41.0111 18.4742 41.2079 18.9366 41.2564C19.0506 41.2806 20.4107 41.329 20.4348 41.4138Z" fill="white"/>
<path d="M19.1374 46.0159C18.7689 45.9972 18.4104 45.8889 18.0925 45.7002C17.7746 45.5114 17.5068 45.2478 17.3119 44.932C17.1927 44.7414 17.1233 44.5234 17.1102 44.2984C17.0971 44.0734 17.1406 43.8487 17.2368 43.6453C17.3678 43.427 17.5379 43.235 17.7382 43.0791L17.7653 43.0549C17.7653 43.0398 17.8283 42.9974 17.8313 42.9823C17.8286 42.9573 17.8225 42.9329 17.8133 42.9096L17.2398 41.1748C17.2318 41.1557 17.2276 41.1351 17.2276 41.1143C17.2276 41.0935 17.2318 41.0729 17.2398 41.0537C17.2499 41.0355 17.2636 41.0196 17.2802 41.007C17.2968 40.9945 17.3157 40.9857 17.3359 40.9811C17.7261 40.9207 18.1243 40.9403 18.5069 41.0386C18.66 41.0658 18.8071 41.0931 18.9392 41.1052H19.1284C20.5185 41.19 20.5335 41.2323 20.5695 41.3595L20.4224 41.3958L20.5695 41.3625C20.8007 42.289 21.3232 44.4839 21.2151 44.8472C20.9899 45.5799 19.888 45.9372 19.2455 45.9916L19.1374 46.0159ZM17.5791 41.2475L18.0985 42.8157C18.1255 42.8839 18.1358 42.9577 18.1286 43.0307C18.1044 43.1314 18.046 43.2203 17.9634 43.282L17.9334 43.3062C17.7623 43.4398 17.6159 43.6027 17.5011 43.7876C17.4305 43.9455 17.3999 44.1186 17.4119 44.2914C17.424 44.4641 17.4783 44.6312 17.5701 44.7776C17.7462 45.0625 17.9913 45.2975 18.2823 45.4606C18.5732 45.6237 18.9006 45.7096 19.2335 45.7101C19.8339 45.6586 20.7677 45.3347 20.9388 44.7776C20.9989 44.5626 20.6626 42.9611 20.3083 41.523C20.0922 41.4776 19.3716 41.4352 19.1074 41.42H18.9062C18.7651 41.42 18.606 41.3777 18.4498 41.3474C18.1646 41.2788 17.8723 41.2453 17.5791 41.2475Z" fill="#231F20"/>
<path d="M16.5493 39.655L16.9606 41.7167H20.9239L20.3054 39.1494L16.5493 39.655Z" fill="#231F20"/>
<path d="M10.5506 15.6675C10.3174 15.6376 10.0886 15.5797 9.86904 15.4949C9.69328 15.4431 9.53794 15.3373 9.42467 15.1922C9.36873 15.12 9.3409 15.0297 9.34643 14.9382C9.35196 14.8467 9.39047 14.7605 9.4547 14.6957C9.49673 14.6624 9.54778 14.6351 9.55979 14.5837C9.56174 14.5574 9.55791 14.531 9.54857 14.5064C9.53922 14.4818 9.5246 14.4596 9.50574 14.4414C8.8171 13.5952 8.30635 12.6166 8.00453 11.5652C7.85213 11.0919 7.80599 10.5903 7.86942 10.0968C7.91627 9.75848 8.06269 9.4421 8.28976 9.18856C8.4669 8.99782 8.72511 8.9403 8.81518 8.68296C9.41567 7.04505 11.3012 6.89065 12.7424 7.03597C13.58 7.12074 14.6759 7.43863 14.9792 8.28332C15.5406 9.83645 15.2404 11.5773 14.4477 12.9912C13.6551 14.405 12.238 15.8764 10.5506 15.6675Z" fill="white"/>
<path d="M10.8718 15.8492C10.7584 15.8482 10.6451 15.8411 10.5325 15.828C10.287 15.7962 10.0462 15.7352 9.81491 15.6464C9.61224 15.5832 9.43326 15.4598 9.3015 15.2921C9.22457 15.1881 9.18791 15.0594 9.19842 14.9301C9.20892 14.8008 9.26586 14.6797 9.35854 14.5897L9.39457 14.5625C8.69248 13.6933 8.1735 12.6889 7.86934 11.6106C7.70733 11.1175 7.65505 10.5945 7.71621 10.0787C7.76939 9.71688 7.92707 9.37887 8.16958 9.10686C8.24327 9.03126 8.32597 8.96516 8.41578 8.91006C8.53288 8.82832 8.62595 8.76777 8.66498 8.65272C9.26546 6.93307 11.2261 6.75445 12.7483 6.90583C13.3488 6.96638 14.7359 7.20858 15.1112 8.25309C15.6516 9.74567 15.4535 11.5077 14.5678 13.0972C13.592 14.835 12.2319 15.8492 10.8718 15.8492ZM10.5715 15.5283C12.5621 15.7735 13.9403 13.6149 14.3126 12.9458C15.1562 11.432 15.3454 9.77292 14.835 8.3651C14.5197 7.48711 13.2557 7.26913 12.7333 7.21766C11.3131 7.07537 9.50866 7.21766 8.95922 8.76474C8.88751 8.93701 8.75924 9.07918 8.59592 9.16741C8.52613 9.21247 8.46078 9.26417 8.40077 9.32181C8.19831 9.55044 8.06587 9.83331 8.01946 10.1362C7.96199 10.6075 8.01127 11.0857 8.16357 11.5349C8.45827 12.5573 8.95344 13.5096 9.61975 14.3354C9.65439 14.3708 9.68031 14.4139 9.69543 14.4612C9.71055 14.5086 9.71445 14.5588 9.70682 14.6079C9.68617 14.6827 9.6378 14.7467 9.57171 14.7865C9.53304 14.8261 9.50943 14.8781 9.50503 14.9335C9.50064 14.9889 9.51574 15.044 9.54769 15.0893C9.64541 15.2053 9.77494 15.2895 9.92 15.3315C10.1291 15.4121 10.3467 15.4679 10.5685 15.498L10.5715 15.5283Z" fill="#231F20"/>
<path d="M15.4116 12.1101C15.4116 12.1101 16.6847 13.5391 16.5195 13.8994C16.3544 14.2597 15.6038 14.1507 15.6038 14.1507" fill="white"/>
<path d="M15.859 14.3354C15.7665 14.3361 15.6741 14.329 15.5827 14.3142C15.5439 14.3082 15.5089 14.2871 15.4854 14.2554C15.4618 14.2237 15.4515 14.1839 15.4566 14.1446C15.4626 14.1047 15.4838 14.0686 15.5158 14.0443C15.5478 14.0199 15.588 14.0092 15.6278 14.0144C15.8349 14.0477 16.2913 14.0477 16.3814 13.8509C16.4715 13.6542 15.928 12.9427 15.3005 12.2252C15.2865 12.2113 15.2754 12.1949 15.2678 12.1767C15.2603 12.1585 15.2563 12.1389 15.2563 12.1192C15.2563 12.0995 15.2603 12.0799 15.2678 12.0617C15.2754 12.0435 15.2865 12.027 15.3005 12.0132C15.3145 11.999 15.3311 11.9878 15.3494 11.9801C15.3676 11.9724 15.3873 11.9684 15.4071 11.9684C15.4269 11.9684 15.4465 11.9724 15.4648 11.9801C15.4831 11.9878 15.4997 11.999 15.5137 12.0132C15.916 12.4674 16.8317 13.5633 16.6426 13.972C16.5165 14.2627 16.1292 14.3354 15.859 14.3354Z" fill="#231F20"/>
<path d="M14.8829 10.0484C15.6245 10.4935 15.6005 11.6742 15.7056 12.422C15.8527 13.4756 15.9758 14.5413 16.0749 15.5949C16.1349 16.267 14.4235 16.5395 14.0932 16.3851L14.7478 18.9797L10.9407 18.1259L10.6074 15.0651C10.6074 15.0651 11.7423 14.9016 12.2107 13.4423C12.6791 11.983 12.3458 9.89401 12.3458 9.89401C12.3458 9.89401 14.1743 9.61245 14.8829 10.0484Z" fill="white"/>
<path d="M14.7479 19.1311H14.7149L10.9078 18.2713C10.877 18.264 10.8493 18.2473 10.8283 18.2234C10.8073 18.1996 10.7942 18.1698 10.7907 18.1381L10.4574 15.0772C10.4532 15.038 10.4643 14.9986 10.4884 14.9675C10.5125 14.9364 10.5477 14.916 10.5865 14.9107C10.6286 14.9107 11.6344 14.7382 12.0697 13.397C12.5231 11.9891 12.2019 9.93949 12.1988 9.9183C12.1957 9.89875 12.1965 9.87877 12.2011 9.85953C12.2058 9.84029 12.2142 9.82219 12.2259 9.80628C12.237 9.79017 12.2512 9.77649 12.2678 9.76608C12.2843 9.75568 12.3027 9.74875 12.322 9.74573C12.4 9.74573 14.1985 9.46114 14.9581 9.9183C15.6396 10.327 15.7327 11.2534 15.8078 11.9952C15.8228 12.1405 15.8378 12.2768 15.8528 12.4009C15.9999 13.4545 16.126 14.5202 16.2221 15.5798C16.2263 15.6955 16.1989 15.8101 16.1427 15.911C16.0866 16.012 16.0039 16.0953 15.9038 16.152C15.4178 16.4424 14.8591 16.5853 14.2945 16.5638L14.895 18.9343C14.9021 18.9592 14.9025 18.9854 14.8962 19.0104C14.8898 19.0354 14.877 19.0583 14.859 19.0766C14.8453 19.093 14.8283 19.1063 14.8092 19.1157C14.79 19.1251 14.7692 19.1303 14.7479 19.1311ZM11.0789 18.0019L14.5407 18.7799L13.9403 16.4215C13.9332 16.3939 13.9341 16.3648 13.9427 16.3376C13.9514 16.3105 13.9674 16.2863 13.9891 16.268C14.0107 16.2496 14.0371 16.2378 14.0651 16.2339C14.0931 16.23 14.1217 16.2341 14.1474 16.2459C14.6948 16.3104 15.2481 16.1935 15.7237 15.9128C15.8618 15.816 15.9279 15.713 15.9189 15.6101C15.8198 14.5565 15.6967 13.4908 15.5496 12.4433C15.5315 12.3161 15.5195 12.1738 15.5045 12.0255C15.4355 11.3503 15.3514 10.5117 14.799 10.1787C14.2435 9.84564 12.9495 9.96977 12.5111 10.0243C12.5802 10.542 12.7543 12.2253 12.349 13.4908C12.2468 13.8836 12.0484 14.2441 11.7719 14.5393C11.4954 14.8345 11.1497 15.0549 10.7667 15.1802L11.0789 18.0019Z" fill="#231F20"/>
<path d="M15.9337 14.8138C15.4934 14.69 15.0358 14.6409 14.5796 14.6684L15.9337 14.8138Z" fill="white"/>
<path d="M15.9339 14.9652C15.9161 14.9695 15.8976 14.9695 15.8799 14.9652C15.4551 14.8579 15.0173 14.8131 14.5798 14.832C14.5602 14.8324 14.5408 14.8289 14.5226 14.8216C14.5044 14.8143 14.4878 14.8035 14.4738 14.7896C14.4599 14.7758 14.4487 14.7593 14.4412 14.7411C14.4336 14.7229 14.4297 14.7034 14.4297 14.6837C14.4312 14.6615 14.4371 14.6398 14.447 14.62C14.4569 14.6002 14.4707 14.5825 14.4875 14.5682C14.5043 14.5538 14.5237 14.5429 14.5448 14.5362C14.5658 14.5295 14.5879 14.5272 14.6098 14.5292C15.0745 14.5034 15.5402 14.5556 15.9879 14.6837C16.0063 14.691 16.023 14.7019 16.0372 14.7158C16.0513 14.7296 16.0626 14.7462 16.0705 14.7645C16.0783 14.7827 16.0824 14.8024 16.0827 14.8223C16.083 14.8422 16.0793 14.862 16.072 14.8804C16.0597 14.9066 16.0401 14.9286 16.0155 14.9437C15.991 14.9587 15.9626 14.9662 15.9339 14.9652Z" fill="#231F20"/>
<path d="M13.5079 13.085C13.4394 12.8253 13.3012 12.5896 13.1085 12.4038C12.9842 12.2432 12.8376 12.1014 12.6732 11.983C12.5864 11.923 12.4872 11.8839 12.3831 11.8687C12.279 11.8535 12.1728 11.8625 12.0727 11.8952C11.9886 11.9299 11.9129 11.9825 11.8507 12.0494C11.7885 12.1163 11.7414 12.1958 11.7124 12.2827C11.6525 12.4566 11.634 12.6422 11.6584 12.8247C11.6982 13.222 11.8406 13.6018 12.0713 13.9264C12.3021 14.2509 12.6131 14.5088 12.9734 14.6745L12.9074 14.62" fill="white"/>
<path d="M12.9733 14.826C12.9535 14.8302 12.9331 14.8302 12.9133 14.826C12.5263 14.65 12.1919 14.3749 11.9432 14.028C11.6946 13.6812 11.5404 13.2746 11.4961 12.849C11.4708 12.6449 11.4924 12.4378 11.5592 12.2435C11.5956 12.1361 11.6548 12.038 11.7326 11.9559C11.8103 11.8738 11.9048 11.8098 12.0095 11.7681C12.1289 11.7291 12.2554 11.7179 12.3797 11.7352C12.5039 11.7525 12.6227 11.7979 12.7271 11.8681C12.9094 11.9936 13.0723 12.1456 13.2105 12.3192C13.4231 12.5253 13.574 12.7876 13.6459 13.076C13.6511 13.1157 13.6409 13.1558 13.6173 13.188C13.5938 13.2202 13.5588 13.2419 13.5198 13.2486C13.5004 13.2521 13.4806 13.2516 13.4614 13.2472C13.4422 13.2428 13.4242 13.2345 13.4082 13.223C13.3923 13.2114 13.3788 13.1967 13.3685 13.1798C13.3583 13.1629 13.3515 13.1441 13.3486 13.1245C13.2832 12.8936 13.1578 12.6846 12.9853 12.519C12.8669 12.369 12.7273 12.2374 12.571 12.1284C12.5047 12.0825 12.4291 12.0519 12.3497 12.0388C12.2703 12.0257 12.189 12.0305 12.1116 12.0527C12.0473 12.0807 11.9897 12.1222 11.9426 12.1744C11.8955 12.2266 11.86 12.2883 11.8384 12.3555C11.7892 12.5087 11.7738 12.671 11.7934 12.8308C11.8305 13.1769 11.9505 13.5087 12.143 13.7977C12.3354 14.0867 12.5946 14.3243 12.8982 14.4899C12.9352 14.488 12.9715 14.4998 13.0003 14.5232L13.0664 14.5777C13.0951 14.6005 13.1146 14.633 13.1212 14.6692C13.1279 14.7055 13.1212 14.7429 13.1024 14.7745C13.0864 14.7927 13.0664 14.8069 13.044 14.8158C13.0215 14.8248 12.9973 14.8283 12.9733 14.826Z" fill="#231F20"/>
<path d="M14.0935 16.3852C13.5636 16.2937 13.0707 16.051 12.6733 15.6859C12.7582 16.098 12.9629 16.4754 13.2613 16.7698C13.5596 17.0642 13.9382 17.2623 14.3487 17.3389L14.0935 16.3852Z" fill="#231F20"/>
<path d="M14.3335 17.4903H14.3065C13.8665 17.4048 13.4611 17.1908 13.1408 16.8748C12.8205 16.5588 12.5994 16.1548 12.505 15.7131C12.499 15.6807 12.5036 15.6473 12.5181 15.6179C12.5326 15.5884 12.5562 15.5645 12.5854 15.5498C12.6146 15.5351 12.6477 15.5304 12.6798 15.5363C12.7119 15.5423 12.7412 15.5586 12.7632 15.5829C13.1403 15.9257 13.6072 16.1516 14.1083 16.2338C14.1375 16.2382 14.1647 16.2512 14.1866 16.2711C14.2085 16.2911 14.2241 16.317 14.2314 16.3458L14.4716 17.3025C14.4777 17.3248 14.4785 17.3481 14.4741 17.3707C14.4697 17.3933 14.4601 17.4145 14.4461 17.4327C14.4321 17.451 14.4141 17.4656 14.3935 17.4756C14.3729 17.4856 14.3503 17.4906 14.3275 17.4903H14.3335ZM12.9734 16.1279C13.0848 16.3685 13.2454 16.5827 13.4446 16.7564C13.6438 16.9302 13.8771 17.0595 14.1293 17.136L13.9732 16.5305C13.6202 16.4529 13.2823 16.3168 12.9734 16.1279Z" fill="#231F20"/>
<path d="M14.8596 11.4763C14.8639 11.2657 14.8015 11.0936 14.7203 11.0919C14.6391 11.0902 14.5697 11.2596 14.5654 11.4702C14.5611 11.6809 14.6235 11.853 14.7047 11.8547C14.7859 11.8564 14.8553 11.687 14.8596 11.4763Z" fill="#231F20"/>
<path d="M9.896 18.6194L10.2833 17.257C10.2833 17.257 14.9941 17.6475 15.4205 17.9382C15.8468 18.2288 16.2311 19.7395 16.2311 19.7395L9.896 18.6194Z" fill="white"/>
<path d="M16.2309 19.8911H16.2069L9.86874 18.7678C9.82695 18.7591 9.79027 18.7341 9.76666 18.6982C9.75857 18.6791 9.75439 18.6585 9.75439 18.6377C9.75439 18.6168 9.75857 18.5963 9.76666 18.5771L10.154 17.2147C10.164 17.1815 10.1849 17.1526 10.2133 17.1329C10.2416 17.1131 10.2757 17.1035 10.3101 17.1057C11.1027 17.1693 15.084 17.5144 15.5193 17.8111C15.9547 18.1078 16.351 19.5429 16.393 19.7034C16.3985 19.7258 16.3989 19.7492 16.394 19.7717C16.3892 19.7943 16.3793 19.8154 16.3651 19.8336C16.3509 19.8517 16.3328 19.8663 16.3121 19.8762C16.2914 19.8862 16.2688 19.8913 16.2459 19.8911H16.2309ZM10.0849 18.4984L16.0237 19.5489C15.8616 18.9858 15.5794 18.2259 15.3362 18.0624C15.093 17.8989 12.2076 17.5689 10.3912 17.4176L10.0849 18.4984Z" fill="#231F20"/>
<path d="M17.4561 19.7397C15.1922 18.2592 12.5741 17.4751 8.87213 18.5287C5.96878 19.3613 5.26921 32.8551 5.82166 38.2592H19.4407L19.3116 35.8644C19.3116 35.8644 19.7169 21.2232 17.4561 19.7397Z" fill="#1E1E1E"/>
<path d="M16.2313 40.4481H21.2754C20.9541 37.905 18.1078 20.5117 17.9727 20.3846C15.4177 17.9383 13.5231 24.0358 13.6372 25.8887C13.7333 27.4297 15.7719 37.1905 16.2313 40.4481Z" fill="#1E1E1E"/>
<path d="M15.7208 38.0956C15.685 38.0955 15.6503 38.0827 15.6229 38.0595C15.5955 38.0362 15.577 38.004 15.5707 37.9685L13.2738 24.0236C13.2677 23.9839 13.2771 23.9434 13.3001 23.9106C13.323 23.8778 13.3578 23.8554 13.3969 23.848C13.4362 23.8418 13.4764 23.8513 13.5089 23.8745C13.5414 23.8976 13.5637 23.9327 13.5711 23.9721L15.8619 37.9321C15.868 37.9715 15.8585 38.0116 15.8355 38.0439C15.8124 38.0762 15.7777 38.098 15.7388 38.1047L15.7208 38.0956Z" fill="#231F20"/>
<path d="M17.303 47.4235C17.2631 47.4235 17.225 47.4075 17.1968 47.3791C17.1687 47.3507 17.1528 47.3122 17.1528 47.2721V45.283C17.153 45.2523 17.1627 45.2224 17.1804 45.1975C17.1982 45.1725 17.2231 45.1537 17.2519 45.1437L18.7862 44.5382C18.8045 44.531 18.824 44.5275 18.8437 44.528C18.8633 44.5285 18.8827 44.533 18.9006 44.5412C18.9185 44.5494 18.9346 44.5611 18.948 44.5757C18.9613 44.5902 18.9716 44.6074 18.9783 44.626C18.9856 44.6443 18.9892 44.6638 18.9888 44.6835C18.9885 44.7032 18.9844 44.7226 18.9765 44.7406C18.9687 44.7587 18.9574 44.775 18.9433 44.7886C18.9291 44.8021 18.9125 44.8127 18.8942 44.8198L17.4531 45.3799V47.263C17.4543 47.2836 17.4513 47.3043 17.4443 47.3237C17.4374 47.3432 17.4265 47.3609 17.4124 47.376C17.3984 47.391 17.3814 47.403 17.3626 47.4111C17.3437 47.4193 17.3234 47.4235 17.303 47.4235Z" fill="#231F20"/>
<path d="M22.0707 51.8771H22.0377L15.7326 50.4784C15.7133 50.4745 15.6951 50.4667 15.6789 50.4555C15.6626 50.4443 15.6488 50.43 15.6382 50.4134C15.6276 50.3967 15.6203 50.3781 15.6169 50.3586C15.6136 50.3391 15.6141 50.3191 15.6185 50.2998C15.6227 50.2803 15.6308 50.2618 15.6422 50.2454C15.6536 50.229 15.668 50.2151 15.6848 50.2044C15.7015 50.1937 15.7202 50.1865 15.7398 50.1831C15.7593 50.1797 15.7793 50.1803 15.7986 50.1847L22.0197 51.5744L26.6915 46.6031C26.7051 46.5886 26.7214 46.577 26.7394 46.5688C26.7575 46.5607 26.777 46.5562 26.7968 46.5556C26.8166 46.555 26.8363 46.5584 26.8548 46.5655C26.8733 46.5727 26.8902 46.5834 26.9046 46.5971C26.919 46.6108 26.9306 46.6272 26.9387 46.6455C26.9468 46.6637 26.9512 46.6834 26.9518 46.7033C26.9523 46.7233 26.949 46.7432 26.9419 46.7618C26.9349 46.7805 26.9242 46.7975 26.9106 46.812L22.1818 51.8438C22.1504 51.8689 22.1106 51.8808 22.0707 51.8771Z" fill="#231F20"/>
<path d="M44.7995 1.81586e-05C44.932 -0.000782202 45.0633 0.0248825 45.1858 0.0755314C45.3084 0.12618 45.4198 0.200809 45.5136 0.295109C45.6074 0.389409 45.6817 0.501511 45.7323 0.624942C45.7829 0.748374 45.8088 0.880689 45.8084 1.01425V66.7121H43.8027V1.01425C43.8019 0.746582 43.9064 0.489516 44.0933 0.299397C44.2801 0.109279 44.5341 0.00161974 44.7995 1.81586e-05Z" fill="#231F20"/>
<path d="M51.8308 4.38687H38.7883V2.89429L33.4199 7.32662L38.7883 11.759V10.2664H51.8308V4.38687Z" fill="white"/>
<path d="M38.7946 11.9134C38.7599 11.9125 38.7264 11.9009 38.6985 11.8801L33.3272 7.44472C33.3096 7.43053 33.2955 7.41256 33.2858 7.39212C33.276 7.37168 33.271 7.34931 33.271 7.32664C33.271 7.30397 33.276 7.2816 33.2858 7.26116C33.2955 7.24073 33.3096 7.22275 33.3272 7.20857L38.6925 2.77623C38.7149 2.75894 38.7416 2.74821 38.7696 2.74523C38.7977 2.74226 38.826 2.74714 38.8514 2.75935C38.8769 2.77156 38.8985 2.79062 38.9139 2.81444C38.9293 2.83825 38.9379 2.86589 38.9387 2.89431V4.23551H51.8312C51.8707 4.23629 51.9085 4.25248 51.9365 4.28071C51.9645 4.30893 51.9805 4.34698 51.9813 4.38689V10.2664C51.9805 10.3063 51.9645 10.3444 51.9365 10.3726C51.9085 10.4008 51.8707 10.417 51.8312 10.4178H38.9387V11.759C38.9393 11.7878 38.9313 11.8162 38.9158 11.8405C38.9003 11.8647 38.8779 11.8838 38.8516 11.8952C38.8346 11.9063 38.8149 11.9125 38.7946 11.9134ZM33.6574 7.32664L38.6385 11.4411V10.2664C38.6385 10.2262 38.6543 10.1877 38.6824 10.1594C38.7106 10.131 38.7488 10.115 38.7886 10.115H51.681V4.53827H38.7946C38.7548 4.53827 38.7166 4.52232 38.6885 4.49393C38.6603 4.46554 38.6445 4.42704 38.6445 4.38689V3.21523L33.6574 7.32664Z" fill="#231F20"/>
<path d="M38.0107 14.4717H51.0533V12.9761L56.4217 17.4085L51.0533 21.8408V20.3482H38.0107V14.4717Z" fill="white"/>
<path d="M51.0535 21.9921C51.0328 21.9967 51.0112 21.9967 50.9905 21.9921C50.9644 21.9796 50.9424 21.9598 50.927 21.9352C50.9116 21.9106 50.9034 21.882 50.9034 21.8529V20.5117H38.011C37.9711 20.5117 37.933 20.4957 37.9048 20.4673C37.8767 20.439 37.8608 20.4004 37.8608 20.3603V14.4717C37.8608 14.4316 37.8767 14.3931 37.9048 14.3647C37.933 14.3363 37.9711 14.3203 38.011 14.3203H50.9034V12.9761C50.9032 12.9473 50.9114 12.9191 50.9269 12.8949C50.9423 12.8707 50.9644 12.8516 50.9905 12.8399C51.0161 12.8278 51.0445 12.8231 51.0726 12.8263C51.1007 12.8295 51.1273 12.8405 51.1496 12.858L56.5089 17.2934C56.5267 17.3067 56.5412 17.3241 56.5511 17.344C56.561 17.364 56.5661 17.3861 56.566 17.4084C56.5661 17.4312 56.561 17.4537 56.5511 17.4742C56.5412 17.4947 56.5268 17.5126 56.5089 17.5265L51.1436 21.9588C51.1182 21.98 51.0864 21.9917 51.0535 21.9921ZM38.1611 20.1968H51.0535C51.0933 20.1968 51.1315 20.2128 51.1597 20.2411C51.1878 20.2695 51.2036 20.308 51.2036 20.3482V21.5229L56.1847 17.4084L51.2036 13.297V14.4717C51.2036 14.5119 51.1878 14.5504 51.1597 14.5788C51.1315 14.6071 51.0933 14.6231 51.0535 14.6231H38.1611V20.1968Z" fill="#231F20"/>
<path d="M38.5484 23.0577L50.453 28.4316L51.0565 27.0662L54.1611 33.3242L47.4656 35.1589L48.0721 33.7965L36.1675 28.4226L38.5484 23.0577Z" fill="white"/>
<path d="M47.4655 35.3104C47.4408 35.31 47.4165 35.3035 47.3949 35.2913C47.3733 35.2792 47.355 35.2619 47.3417 35.2409C47.3283 35.22 47.3203 35.196 47.3183 35.1711C47.3163 35.1463 47.3205 35.1213 47.3304 35.0985L47.8738 33.8723L36.0923 28.565C36.0742 28.5571 36.0579 28.5454 36.0445 28.5308C36.0311 28.5162 36.0208 28.499 36.0142 28.4803C35.9992 28.4434 35.9992 28.4021 36.0142 28.3652L38.3951 23.0004C38.4029 22.9821 38.4143 22.9655 38.4286 22.9517C38.4428 22.9379 38.4597 22.9271 38.4782 22.9201C38.4967 22.913 38.5165 22.9098 38.5362 22.9106C38.556 22.9114 38.5754 22.9162 38.5933 22.9247L50.3598 28.232L50.9063 27.021C50.9169 26.9944 50.9352 26.9716 50.9587 26.9554C50.9822 26.9392 51.0099 26.9305 51.0384 26.9302C51.0669 26.9299 51.095 26.9377 51.1194 26.9527C51.1438 26.9677 51.1636 26.9892 51.1765 27.0149L54.281 33.2699C54.2898 33.2904 54.2944 33.3126 54.2944 33.3349C54.2944 33.3573 54.2898 33.3795 54.281 33.4C54.2716 33.4206 54.2579 33.4389 54.2408 33.4535C54.2237 33.4682 54.2036 33.4789 54.1819 33.4848L47.5015 35.3044L47.4655 35.3104ZM36.3565 28.3471L48.123 33.6574C48.1412 33.6652 48.1576 33.6767 48.1713 33.6911C48.185 33.7055 48.1956 33.7225 48.2027 33.7412C48.2097 33.7599 48.2129 33.7797 48.2121 33.7997C48.2113 33.8196 48.2065 33.8392 48.1981 33.8572L47.7327 34.9229L53.9447 33.2184L51.0654 27.4146L50.588 28.4863C50.5802 28.5047 50.5688 28.5212 50.5545 28.535C50.5403 28.5488 50.5234 28.5596 50.5049 28.5666C50.4864 28.5737 50.4667 28.5769 50.4469 28.5761C50.4271 28.5754 50.4077 28.5705 50.3898 28.562L38.6233 23.2517L36.3565 28.3471Z" fill="#231F20"/>
<path d="M49.0298 66.8545H41.6828C41.6433 66.8537 41.6055 66.8375 41.5775 66.8093C41.5495 66.781 41.5335 66.743 41.5327 66.7031C41.5327 66.6629 41.5485 66.6244 41.5767 66.596C41.6048 66.5676 41.643 66.5517 41.6828 66.5517H49.0298C49.0696 66.5517 49.1078 66.5676 49.1359 66.596C49.1641 66.6244 49.1799 66.6629 49.1799 66.7031C49.1791 66.743 49.1631 66.781 49.1351 66.8093C49.1071 66.8375 49.0694 66.8537 49.0298 66.8545Z" fill="#D1D3D4"/>
</svg>
