<svg width="70" height="70" viewBox="0 0 70 70" fill="none" xmlns="http://www.w3.org/2000/svg">
<path d="M63.4217 61.7288H7.15012C7.11031 61.7288 7.07212 61.7128 7.04397 61.6844C7.01582 61.6561 7 61.6176 7 61.5774C7 61.5373 7.01582 61.4988 7.04397 61.4704C7.07212 61.442 7.11031 61.426 7.15012 61.426H63.4217C63.4615 61.426 63.4997 61.442 63.5279 61.4704C63.556 61.4988 63.5718 61.5373 63.5718 61.5774C63.5718 61.6176 63.556 61.6561 63.5279 61.6844C63.4997 61.7128 63.4615 61.7288 63.4217 61.7288Z" fill="#E6E7E8"/>
<path d="M19.9465 64.8411C19.7844 64.8835 23.2492 65.5071 24.0298 65.8523C24.294 65.9673 24.258 67.4932 24.258 67.4932L15.1216 67.9231V63.8359L19.9465 64.8411Z" fill="white"/>
<path d="M15.1218 68.0623C15.0827 68.0619 15.0453 68.0468 15.0167 68.0199C14.989 67.9904 14.973 67.9516 14.9717 67.9109V63.8359C14.9717 63.8138 14.9765 63.7921 14.9858 63.7722C14.9952 63.7523 15.0088 63.7347 15.0257 63.7208C15.0427 63.7057 15.063 63.6951 15.085 63.6898C15.107 63.6845 15.13 63.6848 15.1518 63.6905L19.9737 64.6957C19.999 64.6994 20.0228 64.7099 20.0428 64.726C20.1749 64.7683 20.6433 64.8652 21.0906 64.9621C22.1058 65.1499 23.1085 65.4006 24.0931 65.7129C24.3933 65.8431 24.4293 66.7544 24.4113 67.4962C24.4114 67.5345 24.3967 67.5713 24.3704 67.599C24.3441 67.6266 24.3082 67.6429 24.2702 67.6445L15.1308 68.0593L15.1218 68.0623ZM15.2719 64.0236V67.7505L24.1111 67.3478C24.1111 66.6817 24.051 66.0732 23.958 65.9854C22.9966 65.6874 22.0193 65.4448 21.0306 65.2588C20.642 65.1911 20.2579 65.0991 19.8807 64.9833L15.2719 64.0236Z" fill="#1E1E1E"/>
<path d="M17.2715 66.4094V69.6519C17.2715 69.6519 24.8406 70.0636 25.0057 69.6519C25.1709 69.2401 25.0057 68.2986 25.0057 68.2986C25.0057 68.2986 20.2019 66.9846 20.2019 66.8211C20.2019 66.6576 17.2715 66.4094 17.2715 66.4094Z" fill="white"/>
<path d="M22.6488 70C21.3547 70 19.5593 69.9395 17.2774 69.8154C17.2387 69.8138 17.202 69.7972 17.1751 69.7689C17.1483 69.7407 17.1333 69.7031 17.1333 69.664V66.4094C17.1332 66.3888 17.1374 66.3685 17.1457 66.3497C17.154 66.3309 17.1661 66.3141 17.1813 66.3004C17.1965 66.2861 17.2145 66.2751 17.2342 66.2684C17.2539 66.2616 17.2747 66.2591 17.2954 66.261C19.8055 66.4699 20.2618 66.6062 20.3459 66.7363C20.7002 66.9271 23.3904 67.6961 25.0567 68.1532C25.0839 68.1607 25.1085 68.1757 25.1276 68.1966C25.1467 68.2175 25.1596 68.2434 25.1648 68.2713C25.1828 68.3742 25.3299 69.2704 25.1648 69.7094C25.0777 69.9092 24.2431 70 22.6488 70ZM17.4335 69.5217C20.7903 69.7003 24.4682 69.779 24.8886 69.5792C24.9576 69.1999 24.9576 68.8111 24.8886 68.4318C21.0965 67.3933 20.2889 67.0875 20.1177 66.9362C19.9436 66.8453 18.6555 66.694 17.4396 66.588L17.4335 69.5217Z" fill="#1E1E1E"/>
<path d="M13.5542 39.5004C13.5542 39.7456 14.3679 65.5615 14.3679 65.5615C14.3679 65.5615 19.496 66.2185 19.496 65.5615C19.496 64.9046 20.6369 38.7617 20.6369 38.7617L13.5542 39.5004Z" fill="white"/>
<path d="M12.8218 37.3661C12.8218 37.6143 12.8218 39.994 13.3922 40.8962C13.9627 41.7984 16.3947 67.0391 16.3947 67.0391H21.1745C21.1745 67.0391 23.9608 38.5983 23.8767 36.9573L12.8218 37.3661Z" fill="white"/>
<path d="M30.725 44.178L19.9463 47.6809L22.7055 48.4953L33.8596 44.6896L30.725 44.178Z" fill="white"/>
<path d="M22.7057 48.6466H22.6637L19.9045 47.8322C19.8738 47.8222 19.8469 47.8029 19.8276 47.7769C19.8082 47.7508 19.7973 47.7194 19.7964 47.6869C19.7962 47.6545 19.8063 47.623 19.8252 47.5968C19.8441 47.5706 19.8708 47.5513 19.9015 47.5416L30.6772 44.0387C30.6998 44.0327 30.7236 44.0327 30.7463 44.0387L33.8838 44.5473C33.9169 44.5537 33.9471 44.5707 33.9698 44.5958C33.9925 44.6209 34.0066 44.6528 34.0099 44.6866C34.0118 44.72 34.0028 44.7531 33.9844 44.781C33.966 44.8088 33.9391 44.8299 33.9078 44.841L22.7538 48.6376C22.7385 48.6438 22.7222 48.6469 22.7057 48.6466ZM20.4569 47.6718L22.7027 48.3348L33.2383 44.7411L30.7342 44.3324L20.4569 47.6718Z" fill="#1E1E1E"/>
<path d="M19.9463 47.681L20.3216 58.017L23.1018 58.7739L22.7055 48.4954L19.9463 47.681Z" fill="white"/>
<path d="M23.1021 58.9251H23.063L20.2828 58.1682C20.252 58.1599 20.2247 58.1419 20.2047 58.1169C20.1847 58.0919 20.1732 58.0611 20.1717 58.029L19.7964 47.6929C19.7962 47.6685 19.8014 47.6444 19.8118 47.6223C19.8222 47.6003 19.8375 47.5809 19.8564 47.5658C19.8746 47.5507 19.8963 47.5406 19.9194 47.5364C19.9425 47.5321 19.9663 47.5339 19.9886 47.5415L22.7478 48.3559C22.7785 48.3639 22.8057 48.3819 22.8253 48.4071C22.8448 48.4323 22.8556 48.4632 22.8559 48.4952L23.2522 58.7737C23.2523 58.7974 23.2473 58.8208 23.2374 58.8422C23.2276 58.8637 23.2131 58.8827 23.1951 58.8979C23.1679 58.9169 23.1352 58.9264 23.1021 58.9251ZM20.4689 57.8988L22.9429 58.5739L22.5616 48.6103L20.1056 47.8836L20.4689 57.8988Z" fill="#1E1E1E"/>
<path d="M23.1019 58.774L33.5774 54.4022L33.8596 44.6898L22.7056 48.4955L23.1019 58.774Z" fill="white"/>
<path d="M23.1022 58.9251C23.0734 58.9251 23.0453 58.9166 23.0211 58.9009C23.0005 58.8882 22.9833 58.8704 22.9712 58.8493C22.9592 58.8281 22.9526 58.8042 22.9521 58.7798L22.5558 48.4861C22.5546 48.4532 22.5638 48.4208 22.5822 48.3936C22.6005 48.3663 22.6271 48.3457 22.6579 48.3348L33.8119 44.5291C33.8347 44.5218 33.8589 44.5202 33.8824 44.5244C33.906 44.5286 33.9281 44.5385 33.947 44.5534C33.967 44.5671 33.9832 44.5856 33.9943 44.6073C34.0053 44.629 34.0107 44.6531 34.01 44.6775L33.7278 54.3899C33.7264 54.419 33.7169 54.4472 33.7005 54.4713C33.684 54.4954 33.6613 54.5143 33.6347 54.5261L23.1593 58.8979C23.1428 58.9116 23.1232 58.9209 23.1022 58.9251ZM22.862 48.6012L23.2433 58.5376L33.4306 54.299L33.7038 44.9136L22.862 48.6012Z" fill="#1E1E1E"/>
<path d="M21.5255 57.3267C21.4867 57.3268 21.4494 57.3116 21.4214 57.2846C21.3935 57.2575 21.377 57.2205 21.3754 57.1814L21.0361 48.7769C21.0361 48.7368 21.052 48.6983 21.0801 48.6699C21.1083 48.6415 21.1464 48.6255 21.1863 48.6255C21.2261 48.6255 21.2643 48.6415 21.2924 48.6699C21.3206 48.6983 21.3364 48.7368 21.3364 48.7769L21.6757 57.1844C21.6765 57.2244 21.662 57.2631 21.6351 57.2925C21.6082 57.3218 21.5711 57.3395 21.5315 57.3419L21.5255 57.3267Z" fill="#1E1E1E"/>
<path d="M29.0708 45.6434C29.031 45.6434 28.9928 45.6274 28.9646 45.599C28.9365 45.5707 28.9207 45.5322 28.9207 45.492V43.8813L27.1192 44.5474C27.1005 44.5548 27.0806 44.5584 27.0605 44.5579C27.0405 44.5574 27.0207 44.5529 27.0024 44.5445C26.9841 44.5362 26.9677 44.5243 26.954 44.5094C26.9404 44.4946 26.9298 44.4771 26.923 44.4581C26.9162 44.439 26.9132 44.4188 26.9143 44.3986C26.9153 44.3784 26.9204 44.3586 26.9292 44.3404C26.9379 44.3222 26.9502 44.3059 26.9654 44.2926C26.9805 44.2793 26.9981 44.2692 27.0171 44.2628L29.0288 43.5241C29.0514 43.5158 29.0757 43.5132 29.0996 43.5164C29.1235 43.5196 29.1463 43.5286 29.166 43.5425C29.1857 43.5565 29.2019 43.575 29.213 43.5966C29.2241 43.6181 29.2299 43.6421 29.2299 43.6664V45.4829C29.2312 45.5043 29.228 45.5258 29.2205 45.5459C29.213 45.5659 29.2013 45.5842 29.1862 45.5993C29.1712 45.6145 29.1531 45.6263 29.1332 45.6339C29.1133 45.6415 29.092 45.6447 29.0708 45.6434Z" fill="white"/>
<path d="M27.4348 41.4138C27.4348 41.4532 28.1944 44.4414 28.0833 44.8228C27.8821 45.4737 26.8493 45.8098 26.2458 45.8613C25.885 45.8633 25.5297 45.7716 25.2142 45.5951C24.8986 45.4185 24.6335 45.163 24.4443 44.8531C24.339 44.6851 24.2772 44.4931 24.2646 44.2947C24.252 44.0963 24.289 43.898 24.3723 43.7178C24.5021 43.5056 24.6701 43.3197 24.8677 43.1698C24.923 43.1299 24.9632 43.0722 24.9818 43.0063C24.9867 42.9568 24.9795 42.9069 24.9608 42.861L24.3843 41.1262C24.8407 41.0111 25.4742 41.2079 25.9366 41.2564C26.0506 41.2806 27.4107 41.329 27.4348 41.4138Z" fill="white"/>
<path d="M26.1374 46.0159C25.7689 45.9972 25.4104 45.8889 25.0925 45.7002C24.7746 45.5114 24.5068 45.2478 24.3119 44.932C24.1927 44.7414 24.1233 44.5234 24.1102 44.2984C24.0971 44.0734 24.1406 43.8487 24.2368 43.6453C24.3678 43.427 24.5379 43.235 24.7382 43.0791L24.7653 43.0549C24.7653 43.0398 24.8283 42.9974 24.8313 42.9823C24.8286 42.9573 24.8225 42.9329 24.8133 42.9096L24.2398 41.1748C24.2318 41.1557 24.2276 41.1351 24.2276 41.1143C24.2276 41.0935 24.2318 41.0729 24.2398 41.0537C24.2499 41.0355 24.2636 41.0196 24.2802 41.007C24.2968 40.9945 24.3157 40.9857 24.3359 40.9811C24.7261 40.9207 25.1243 40.9403 25.5069 41.0386C25.66 41.0658 25.8071 41.0931 25.9392 41.1052H26.1284C27.5185 41.19 27.5335 41.2323 27.5695 41.3595L27.4224 41.3958L27.5695 41.3625C27.8007 42.289 28.3232 44.4839 28.2151 44.8472C27.9899 45.5799 26.888 45.9372 26.2455 45.9916L26.1374 46.0159ZM24.5791 41.2475L25.0985 42.8157C25.1255 42.8839 25.1358 42.9577 25.1286 43.0307C25.1044 43.1314 25.046 43.2203 24.9634 43.282L24.9334 43.3062C24.7623 43.4398 24.6159 43.6027 24.5011 43.7876C24.4305 43.9455 24.3999 44.1186 24.4119 44.2914C24.424 44.4641 24.4783 44.6312 24.5701 44.7776C24.7462 45.0625 24.9913 45.2975 25.2823 45.4606C25.5732 45.6237 25.9006 45.7096 26.2335 45.7101C26.8339 45.6586 27.7677 45.3347 27.9388 44.7776C27.9989 44.5626 27.6626 42.9611 27.3083 41.523C27.0922 41.4776 26.3716 41.4352 26.1074 41.42H25.9062C25.7651 41.42 25.606 41.3777 25.4498 41.3474C25.1646 41.2788 24.8723 41.2453 24.5791 41.2475Z" fill="white"/>
<path d="M23.5493 39.655L23.9606 41.7167H27.9239L27.3054 39.1494L23.5493 39.655Z" fill="white"/>
<path d="M17.5506 15.6675C17.3174 15.6376 17.0886 15.5797 16.869 15.4949C16.6933 15.4431 16.5379 15.3373 16.4247 15.1922C16.3687 15.12 16.3409 15.0297 16.3464 14.9382C16.352 14.8467 16.3905 14.7605 16.4547 14.6957C16.4967 14.6624 16.5478 14.6351 16.5598 14.5837C16.5617 14.5574 16.5579 14.531 16.5486 14.5064C16.5392 14.4818 16.5246 14.4596 16.5057 14.4414C15.8171 13.5952 15.3063 12.6166 15.0045 11.5652C14.8521 11.0919 14.806 10.5903 14.8694 10.0968C14.9163 9.75848 15.0627 9.4421 15.2898 9.18856C15.4669 8.99782 15.7251 8.9403 15.8152 8.68296C16.4157 7.04505 18.3012 6.89065 19.7424 7.03597C20.58 7.12074 21.6759 7.43863 21.9792 8.28332C22.5406 9.83645 22.2404 11.5773 21.4477 12.9912C20.6551 14.405 19.238 15.8764 17.5506 15.6675Z" fill="white"/>
<path d="M17.8718 15.8492C17.7584 15.8482 17.6451 15.8411 17.5325 15.828C17.287 15.7962 17.0462 15.7352 16.8149 15.6464C16.6122 15.5832 16.4333 15.4598 16.3015 15.2921C16.2246 15.1881 16.1879 15.0594 16.1984 14.9301C16.2089 14.8008 16.2659 14.6797 16.3585 14.5897L16.3946 14.5625C15.6925 13.6933 15.1735 12.6889 14.8693 11.6106C14.7073 11.1175 14.655 10.5945 14.7162 10.0787C14.7694 9.71688 14.9271 9.37887 15.1696 9.10686C15.2433 9.03126 15.326 8.96516 15.4158 8.91006C15.5329 8.82832 15.6259 8.76777 15.665 8.65272C16.2655 6.93307 18.2261 6.75445 19.7483 6.90583C20.3488 6.96638 21.7359 7.20858 22.1112 8.25309C22.6516 9.74567 22.4535 11.5077 21.5678 13.0972C20.592 14.835 19.2319 15.8492 17.8718 15.8492ZM17.5715 15.5283C19.5621 15.7735 20.9403 13.6149 21.3126 12.9458C22.1562 11.432 22.3454 9.77292 21.835 8.3651C21.5197 7.48711 20.2557 7.26913 19.7333 7.21766C18.3131 7.07537 16.5087 7.21766 15.9592 8.76474C15.8875 8.93701 15.7592 9.07918 15.5959 9.16741C15.5261 9.21247 15.4608 9.26417 15.4008 9.32181C15.1983 9.55044 15.0659 9.83331 15.0195 10.1362C14.962 10.6075 15.0113 11.0857 15.1636 11.5349C15.4583 12.5573 15.9534 13.5096 16.6198 14.3354C16.6544 14.3708 16.6803 14.4139 16.6954 14.4612C16.7106 14.5086 16.7145 14.5588 16.7068 14.6079C16.6862 14.6827 16.6378 14.7467 16.5717 14.7865C16.533 14.8261 16.5094 14.8781 16.505 14.9335C16.5006 14.9889 16.5157 15.044 16.5477 15.0893C16.6454 15.2053 16.7749 15.2895 16.92 15.3315C17.1291 15.4121 17.3467 15.4679 17.5685 15.498L17.5715 15.5283Z" fill="white"/>
<path d="M22.4116 12.1101C22.4116 12.1101 23.6847 13.5391 23.5195 13.8994C23.3544 14.2597 22.6038 14.1507 22.6038 14.1507" fill="white"/>
<path d="M22.859 14.3354C22.7665 14.3361 22.6741 14.329 22.5827 14.3142C22.5439 14.3082 22.5089 14.2871 22.4854 14.2554C22.4618 14.2237 22.4515 14.1839 22.4566 14.1446C22.4626 14.1047 22.4838 14.0686 22.5158 14.0443C22.5478 14.0199 22.588 14.0092 22.6278 14.0144C22.8349 14.0477 23.2913 14.0477 23.3814 13.8509C23.4715 13.6542 22.928 12.9427 22.3005 12.2252C22.2865 12.2113 22.2754 12.1949 22.2678 12.1767C22.2603 12.1585 22.2563 12.1389 22.2563 12.1192C22.2563 12.0995 22.2603 12.0799 22.2678 12.0617C22.2754 12.0435 22.2865 12.027 22.3005 12.0132C22.3145 11.999 22.3311 11.9878 22.3494 11.9801C22.3676 11.9724 22.3873 11.9684 22.4071 11.9684C22.4269 11.9684 22.4465 11.9724 22.4648 11.9801C22.4831 11.9878 22.4997 11.999 22.5137 12.0132C22.916 12.4674 23.8317 13.5633 23.6426 13.972C23.5165 14.2627 23.1292 14.3354 22.859 14.3354Z" fill="white"/>
<path d="M21.8829 10.0484C22.6245 10.4935 22.6005 11.6742 22.7056 12.422C22.8527 13.4756 22.9758 14.5413 23.0749 15.5949C23.1349 16.267 21.4235 16.5395 21.0932 16.3851L21.7478 18.9797L17.9407 18.1259L17.6074 15.0651C17.6074 15.0651 18.7423 14.9016 19.2107 13.4423C19.6791 11.983 19.3458 9.89401 19.3458 9.89401C19.3458 9.89401 21.1743 9.61245 21.8829 10.0484Z" fill="white"/>
<path d="M21.7479 19.1311H21.7149L17.9078 18.2713C17.877 18.264 17.8493 18.2473 17.8283 18.2234C17.8073 18.1996 17.7942 18.1698 17.7907 18.1381L17.4574 15.0772C17.4532 15.038 17.4643 14.9986 17.4884 14.9675C17.5125 14.9364 17.5477 14.916 17.5865 14.9107C17.6286 14.9107 18.6344 14.7382 19.0697 13.397C19.5231 11.9891 19.2019 9.93949 19.1988 9.9183C19.1957 9.89875 19.1965 9.87877 19.2011 9.85953C19.2058 9.84029 19.2142 9.82219 19.2259 9.80628C19.237 9.79017 19.2512 9.77649 19.2678 9.76608C19.2843 9.75568 19.3027 9.74875 19.322 9.74573C19.4 9.74573 21.1985 9.46114 21.9581 9.9183C22.6396 10.327 22.7327 11.2534 22.8078 11.9952C22.8228 12.1405 22.8378 12.2768 22.8528 12.4009C22.9999 13.4545 23.126 14.5202 23.2221 15.5798C23.2263 15.6955 23.1989 15.8101 23.1427 15.911C23.0866 16.012 23.0039 16.0953 22.9038 16.152C22.4178 16.4424 21.8591 16.5853 21.2945 16.5638L21.895 18.9343C21.9021 18.9592 21.9025 18.9854 21.8962 19.0104C21.8898 19.0354 21.877 19.0583 21.859 19.0766C21.8453 19.093 21.8283 19.1063 21.8092 19.1157C21.79 19.1251 21.7692 19.1303 21.7479 19.1311ZM18.0789 18.0019L21.5407 18.7799L20.9403 16.4215C20.9332 16.3939 20.9341 16.3648 20.9427 16.3376C20.9514 16.3105 20.9674 16.2863 20.9891 16.268C21.0107 16.2496 21.0371 16.2378 21.0651 16.2339C21.0931 16.23 21.1217 16.2341 21.1474 16.2459C21.6948 16.3104 22.2481 16.1935 22.7237 15.9128C22.8618 15.816 22.9279 15.713 22.9189 15.6101C22.8198 14.5565 22.6967 13.4908 22.5496 12.4433C22.5315 12.3161 22.5195 12.1738 22.5045 12.0255C22.4355 11.3503 22.3514 10.5117 21.799 10.1787C21.2435 9.84564 19.9495 9.96977 19.5111 10.0243C19.5802 10.542 19.7543 12.2253 19.349 13.4908C19.2468 13.8836 19.0484 14.2441 18.7719 14.5393C18.4954 14.8345 18.1497 15.0549 17.7667 15.1802L18.0789 18.0019Z" fill="#1E1E1E"/>
<path d="M22.9337 14.8138C22.4934 14.69 22.0358 14.6409 21.5796 14.6684L22.9337 14.8138Z" fill="white"/>
<path d="M22.9339 14.9652C22.9161 14.9695 22.8976 14.9695 22.8799 14.9652C22.4551 14.8579 22.0173 14.8131 21.5798 14.832C21.5602 14.8324 21.5408 14.8289 21.5226 14.8216C21.5044 14.8143 21.4878 14.8035 21.4738 14.7896C21.4599 14.7758 21.4487 14.7593 21.4412 14.7411C21.4336 14.7229 21.4297 14.7034 21.4297 14.6837C21.4312 14.6615 21.4371 14.6398 21.447 14.62C21.4569 14.6002 21.4707 14.5825 21.4875 14.5682C21.5043 14.5538 21.5237 14.5429 21.5448 14.5362C21.5658 14.5295 21.5879 14.5272 21.6098 14.5292C22.0745 14.5034 22.5402 14.5556 22.9879 14.6837C23.0063 14.691 23.023 14.7019 23.0372 14.7158C23.0513 14.7296 23.0626 14.7462 23.0705 14.7645C23.0783 14.7827 23.0824 14.8024 23.0827 14.8223C23.083 14.8422 23.0793 14.862 23.072 14.8804C23.0597 14.9066 23.0401 14.9286 23.0155 14.9437C22.991 14.9587 22.9626 14.9662 22.9339 14.9652Z" fill="#1E1E1E"/>
<path d="M20.5079 13.085C20.4394 12.8253 20.3012 12.5896 20.1085 12.4038C19.9842 12.2432 19.8376 12.1014 19.6732 11.983C19.5864 11.923 19.4872 11.8839 19.3831 11.8687C19.279 11.8535 19.1728 11.8625 19.0727 11.8952C18.9886 11.9299 18.9129 11.9825 18.8507 12.0494C18.7885 12.1163 18.7414 12.1958 18.7124 12.2827C18.6525 12.4566 18.634 12.6422 18.6584 12.8247C18.6982 13.222 18.8406 13.6018 19.0713 13.9264C19.3021 14.2509 19.6131 14.5088 19.9734 14.6745L19.9074 14.62" fill="white"/>
<path d="M19.9733 14.826C19.9535 14.8302 19.9331 14.8302 19.9133 14.826C19.5263 14.65 19.1919 14.3749 18.9432 14.028C18.6946 13.6812 18.5404 13.2746 18.4961 12.849C18.4708 12.6449 18.4924 12.4378 18.5592 12.2435C18.5956 12.1361 18.6548 12.038 18.7326 11.9559C18.8103 11.8738 18.9048 11.8098 19.0095 11.7681C19.1289 11.7291 19.2554 11.7179 19.3797 11.7352C19.5039 11.7525 19.6227 11.7979 19.7271 11.8681C19.9094 11.9936 20.0723 12.1456 20.2105 12.3192C20.4231 12.5253 20.574 12.7876 20.6459 13.076C20.6511 13.1157 20.6409 13.1558 20.6173 13.188C20.5938 13.2202 20.5588 13.2419 20.5198 13.2486C20.5004 13.2521 20.4806 13.2516 20.4614 13.2472C20.4422 13.2428 20.4242 13.2345 20.4082 13.223C20.3923 13.2114 20.3788 13.1967 20.3685 13.1798C20.3583 13.1629 20.3515 13.1441 20.3486 13.1245C20.2832 12.8936 20.1578 12.6846 19.9853 12.519C19.8669 12.369 19.7273 12.2374 19.571 12.1284C19.5047 12.0825 19.4291 12.0519 19.3497 12.0388C19.2703 12.0257 19.189 12.0305 19.1116 12.0527C19.0473 12.0807 18.9897 12.1222 18.9426 12.1744C18.8955 12.2266 18.86 12.2883 18.8384 12.3555C18.7892 12.5087 18.7738 12.671 18.7934 12.8308C18.8305 13.1769 18.9505 13.5087 19.143 13.7977C19.3354 14.0867 19.5946 14.3243 19.8982 14.4899C19.9352 14.488 19.9715 14.4998 20.0003 14.5232L20.0664 14.5777C20.0951 14.6005 20.1146 14.633 20.1212 14.6692C20.1279 14.7055 20.1212 14.7429 20.1024 14.7745C20.0864 14.7927 20.0664 14.8069 20.044 14.8158C20.0215 14.8248 19.9973 14.8283 19.9733 14.826Z" fill="#1E1E1E"/>
<path d="M21.0935 16.3852C20.5636 16.2937 20.0707 16.051 19.6733 15.6859C19.7582 16.098 19.9629 16.4754 20.2613 16.7698C20.5596 17.0642 20.9382 17.2623 21.3487 17.3389L21.0935 16.3852Z" fill="#1E1E1E"/>
<path d="M21.3335 17.4903H21.3065C20.8665 17.4048 20.4611 17.1908 20.1408 16.8748C19.8205 16.5588 19.5994 16.1548 19.505 15.7131C19.499 15.6807 19.5036 15.6473 19.5181 15.6179C19.5326 15.5884 19.5562 15.5645 19.5854 15.5498C19.6146 15.5351 19.6477 15.5304 19.6798 15.5363C19.7119 15.5423 19.7412 15.5586 19.7632 15.5829C20.1403 15.9257 20.6072 16.1516 21.1083 16.2338C21.1375 16.2382 21.1647 16.2512 21.1866 16.2711C21.2085 16.2911 21.2241 16.317 21.2314 16.3458L21.4716 17.3025C21.4777 17.3248 21.4785 17.3481 21.4741 17.3707C21.4697 17.3933 21.4601 17.4145 21.4461 17.4327C21.4321 17.451 21.4141 17.4656 21.3935 17.4756C21.3729 17.4856 21.3503 17.4906 21.3275 17.4903H21.3335ZM19.9734 16.1279C20.0848 16.3685 20.2454 16.5827 20.4446 16.7564C20.6438 16.9302 20.8771 17.0595 21.1293 17.136L20.9732 16.5305C20.6202 16.4529 20.2823 16.3168 19.9734 16.1279Z" fill="#1E1E1E"/>
<path d="M21.8596 11.4763C21.8639 11.2657 21.8015 11.0936 21.7203 11.0919C21.6391 11.0902 21.5697 11.2596 21.5654 11.4702C21.5611 11.6809 21.6235 11.853 21.7047 11.8547C21.7859 11.8564 21.8553 11.687 21.8596 11.4763Z" fill="#1E1E1E"/>
<path d="M16.896 18.6194L17.2833 17.257C17.2833 17.257 21.9941 17.6475 22.4205 17.9382C22.8468 18.2288 23.2311 19.7395 23.2311 19.7395L16.896 18.6194Z" fill="white"/>
<path d="M23.2309 19.8911H23.2069L16.8687 18.7678C16.827 18.7591 16.7903 18.7341 16.7667 18.6982C16.7586 18.6791 16.7544 18.6585 16.7544 18.6377C16.7544 18.6168 16.7586 18.5963 16.7667 18.5771L17.154 17.2147C17.164 17.1815 17.1849 17.1526 17.2133 17.1329C17.2416 17.1131 17.2757 17.1035 17.3101 17.1057C18.1027 17.1693 22.084 17.5144 22.5193 17.8111C22.9547 18.1078 23.351 19.5429 23.393 19.7034C23.3985 19.7258 23.3989 19.7492 23.394 19.7717C23.3892 19.7943 23.3793 19.8154 23.3651 19.8336C23.3509 19.8517 23.3328 19.8663 23.3121 19.8762C23.2914 19.8862 23.2688 19.8913 23.2459 19.8911H23.2309ZM17.0849 18.4984L23.0237 19.5489C22.8616 18.9858 22.5794 18.2259 22.3362 18.0624C22.093 17.8989 19.2076 17.5689 17.3912 17.4176L17.0849 18.4984Z" fill="white"/>
<path d="M24.4561 19.7397C22.1922 18.2592 19.5741 17.4751 15.8721 18.5287C12.9688 19.3613 12.2692 32.8551 12.8217 38.2592H26.4407L26.3116 35.8644C26.3116 35.8644 26.7169 21.2232 24.4561 19.7397Z" fill="white"/>
<path d="M23.2313 40.4481H28.2754C27.9541 37.905 25.1078 20.5117 24.9727 20.3846C22.4177 17.9383 20.5231 24.0358 20.6372 25.8887C20.7333 27.4297 22.7719 37.1905 23.2313 40.4481Z" fill="white"/>
<path d="M22.7208 38.0956C22.685 38.0955 22.6503 38.0827 22.6229 38.0595C22.5955 38.0362 22.577 38.004 22.5707 37.9685L20.2738 24.0236C20.2677 23.9839 20.2771 23.9434 20.3001 23.9106C20.323 23.8778 20.3578 23.8554 20.3969 23.848C20.4362 23.8418 20.4764 23.8513 20.5089 23.8745C20.5414 23.8976 20.5637 23.9327 20.5711 23.9721L22.8619 37.9321C22.868 37.9715 22.8585 38.0116 22.8355 38.0439C22.8124 38.0762 22.7777 38.098 22.7388 38.1047L22.7208 38.0956Z" fill="#1E1E1E"/>
<path d="M24.303 47.4235C24.2631 47.4235 24.225 47.4075 24.1968 47.3791C24.1687 47.3507 24.1528 47.3122 24.1528 47.2721V45.283C24.153 45.2523 24.1627 45.2224 24.1804 45.1975C24.1982 45.1725 24.2231 45.1537 24.2519 45.1437L25.7862 44.5382C25.8045 44.531 25.824 44.5275 25.8437 44.528C25.8633 44.5285 25.8827 44.533 25.9006 44.5412C25.9185 44.5494 25.9346 44.5611 25.948 44.5757C25.9613 44.5902 25.9716 44.6074 25.9783 44.626C25.9856 44.6443 25.9892 44.6638 25.9888 44.6835C25.9885 44.7032 25.9844 44.7226 25.9765 44.7406C25.9687 44.7587 25.9574 44.775 25.9433 44.7886C25.9291 44.8021 25.9125 44.8127 25.8942 44.8198L24.4531 45.3799V47.263C24.4543 47.2836 24.4513 47.3043 24.4443 47.3237C24.4374 47.3432 24.4265 47.3609 24.4124 47.376C24.3984 47.391 24.3814 47.403 24.3626 47.4111C24.3437 47.4193 24.3234 47.4235 24.303 47.4235Z" fill="white"/>
<path d="M29.0707 51.8771H29.0377L22.7326 50.4784C22.7133 50.4745 22.6951 50.4667 22.6789 50.4555C22.6626 50.4443 22.6488 50.43 22.6382 50.4134C22.6276 50.3967 22.6203 50.3781 22.6169 50.3586C22.6136 50.3391 22.6141 50.3191 22.6185 50.2998C22.6227 50.2803 22.6308 50.2618 22.6422 50.2454C22.6536 50.229 22.668 50.2151 22.6848 50.2044C22.7015 50.1937 22.7202 50.1865 22.7398 50.1831C22.7593 50.1797 22.7793 50.1803 22.7986 50.1847L29.0197 51.5744L33.6915 46.6031C33.7051 46.5886 33.7214 46.577 33.7394 46.5688C33.7575 46.5607 33.777 46.5562 33.7968 46.5556C33.8166 46.555 33.8363 46.5584 33.8548 46.5655C33.8733 46.5727 33.8902 46.5834 33.9046 46.5971C33.919 46.6108 33.9306 46.6272 33.9387 46.6455C33.9468 46.6637 33.9512 46.6834 33.9518 46.7033C33.9523 46.7233 33.949 46.7432 33.9419 46.7618C33.9349 46.7805 33.9242 46.7975 33.9106 46.812L29.1818 51.8438C29.1504 51.8689 29.1106 51.8808 29.0707 51.8771Z" fill="#1E1E1E"/>
<path d="M51.7995 1.81586e-05C51.932 -0.000782202 52.0633 0.0248825 52.1858 0.0755314C52.3084 0.12618 52.4198 0.200809 52.5136 0.295109C52.6074 0.389409 52.6817 0.501511 52.7323 0.624942C52.7829 0.748374 52.8088 0.880689 52.8084 1.01425V66.7121H50.8027V1.01425C50.8019 0.746582 50.9064 0.489516 51.0933 0.299397C51.2801 0.109279 51.5341 0.00161974 51.7995 1.81586e-05Z" fill="white"/>
<path d="M58.8308 4.38687H45.7883V2.89429L40.4199 7.32662L45.7883 11.759V10.2664H58.8308V4.38687Z" fill="white"/>
<path d="M45.7946 11.9134C45.7599 11.9125 45.7264 11.9009 45.6985 11.8801L40.3272 7.44472C40.3096 7.43053 40.2955 7.41256 40.2858 7.39212C40.276 7.37168 40.271 7.34931 40.271 7.32664C40.271 7.30397 40.276 7.2816 40.2858 7.26116C40.2955 7.24073 40.3096 7.22275 40.3272 7.20857L45.6925 2.77623C45.7149 2.75894 45.7416 2.74821 45.7696 2.74523C45.7977 2.74226 45.826 2.74714 45.8514 2.75935C45.8769 2.77156 45.8985 2.79062 45.9139 2.81444C45.9293 2.83825 45.9379 2.86589 45.9387 2.89431V4.23551H58.8312C58.8707 4.23629 58.9085 4.25248 58.9365 4.28071C58.9645 4.30893 58.9805 4.34698 58.9813 4.38689V10.2664C58.9805 10.3063 58.9645 10.3444 58.9365 10.3726C58.9085 10.4008 58.8707 10.417 58.8312 10.4178H45.9387V11.759C45.9393 11.7878 45.9313 11.8162 45.9158 11.8405C45.9003 11.8647 45.8779 11.8838 45.8516 11.8952C45.8346 11.9063 45.8149 11.9125 45.7946 11.9134ZM40.6574 7.32664L45.6385 11.4411V10.2664C45.6385 10.2262 45.6543 10.1877 45.6824 10.1594C45.7106 10.131 45.7488 10.115 45.7886 10.115H58.681V4.53827H45.7946C45.7548 4.53827 45.7166 4.52232 45.6885 4.49393C45.6603 4.46554 45.6445 4.42704 45.6445 4.38689V3.21523L40.6574 7.32664Z" fill="#231F20"/>
<path d="M45.0107 14.4717H58.0533V12.9761L63.4217 17.4085L58.0533 21.8408V20.3482H45.0107V14.4717Z" fill="white"/>
<path d="M58.0535 21.9921C58.0328 21.9967 58.0112 21.9967 57.9905 21.9921C57.9644 21.9796 57.9424 21.9598 57.927 21.9352C57.9116 21.9106 57.9034 21.882 57.9034 21.8529V20.5117H45.011C44.9711 20.5117 44.933 20.4957 44.9048 20.4673C44.8767 20.439 44.8608 20.4004 44.8608 20.3603V14.4717C44.8608 14.4316 44.8767 14.3931 44.9048 14.3647C44.933 14.3363 44.9711 14.3203 45.011 14.3203H57.9034V12.9761C57.9032 12.9473 57.9114 12.9191 57.9269 12.8949C57.9423 12.8707 57.9644 12.8516 57.9905 12.8399C58.0161 12.8278 58.0445 12.8231 58.0726 12.8263C58.1007 12.8295 58.1273 12.8405 58.1496 12.858L63.5089 17.2934C63.5267 17.3067 63.5412 17.3241 63.5511 17.344C63.561 17.364 63.5661 17.3861 63.566 17.4084C63.5661 17.4312 63.561 17.4537 63.5511 17.4742C63.5412 17.4947 63.5268 17.5126 63.5089 17.5265L58.1436 21.9588C58.1182 21.98 58.0864 21.9917 58.0535 21.9921ZM45.1611 20.1968H58.0535C58.0933 20.1968 58.1315 20.2128 58.1597 20.2411C58.1878 20.2695 58.2036 20.308 58.2036 20.3482V21.5229L63.1847 17.4084L58.2036 13.297V14.4717C58.2036 14.5119 58.1878 14.5504 58.1597 14.5788C58.1315 14.6071 58.0933 14.6231 58.0535 14.6231H45.1611V20.1968Z" fill="#231F20"/>
<path d="M45.5484 23.0577L57.453 28.4316L58.0565 27.0662L61.1611 33.3242L54.4656 35.1589L55.0721 33.7965L43.1675 28.4226L45.5484 23.0577Z" fill="white"/>
<path d="M54.4655 35.3104C54.4408 35.31 54.4165 35.3035 54.3949 35.2913C54.3733 35.2792 54.355 35.2619 54.3417 35.2409C54.3283 35.22 54.3203 35.196 54.3183 35.1711C54.3163 35.1463 54.3205 35.1213 54.3304 35.0985L54.8738 33.8723L43.0923 28.565C43.0742 28.5571 43.0579 28.5454 43.0445 28.5308C43.0311 28.5162 43.0208 28.499 43.0142 28.4803C42.9992 28.4434 42.9992 28.4021 43.0142 28.3652L45.3951 23.0004C45.4029 22.9821 45.4143 22.9655 45.4286 22.9517C45.4428 22.9379 45.4597 22.9271 45.4782 22.9201C45.4967 22.913 45.5165 22.9098 45.5362 22.9106C45.556 22.9114 45.5754 22.9162 45.5933 22.9247L57.3598 28.232L57.9063 27.021C57.9169 26.9944 57.9352 26.9716 57.9587 26.9554C57.9822 26.9392 58.0099 26.9305 58.0384 26.9302C58.0669 26.9299 58.095 26.9377 58.1194 26.9527C58.1438 26.9677 58.1636 26.9892 58.1765 27.0149L61.281 33.2699C61.2898 33.2904 61.2944 33.3126 61.2944 33.3349C61.2944 33.3573 61.2898 33.3795 61.281 33.4C61.2716 33.4206 61.2579 33.4389 61.2408 33.4535C61.2237 33.4682 61.2036 33.4789 61.1819 33.4848L54.5015 35.3044L54.4655 35.3104ZM43.3565 28.3471L55.123 33.6574C55.1412 33.6652 55.1576 33.6767 55.1713 33.6911C55.185 33.7055 55.1956 33.7225 55.2027 33.7412C55.2097 33.7599 55.2129 33.7797 55.2121 33.7997C55.2113 33.8196 55.2065 33.8392 55.1981 33.8572L54.7327 34.9229L60.9447 33.2184L58.0654 27.4146L57.588 28.4863C57.5802 28.5047 57.5688 28.5212 57.5545 28.535C57.5403 28.5488 57.5234 28.5596 57.5049 28.5666C57.4864 28.5737 57.4667 28.5769 57.4469 28.5761C57.4271 28.5754 57.4077 28.5705 57.3898 28.562L45.6233 23.2517L43.3565 28.3471Z" fill="#231F20"/>
<path d="M56.0298 66.8545H48.6828C48.6433 66.8537 48.6055 66.8375 48.5775 66.8093C48.5495 66.781 48.5335 66.743 48.5327 66.7031C48.5327 66.6629 48.5485 66.6244 48.5767 66.596C48.6048 66.5676 48.643 66.5517 48.6828 66.5517H56.0298C56.0696 66.5517 56.1078 66.5676 56.1359 66.596C56.1641 66.6244 56.1799 66.6629 56.1799 66.7031C56.1791 66.743 56.1631 66.781 56.1351 66.8093C56.1071 66.8375 56.0694 66.8537 56.0298 66.8545Z" fill="white"/>
</svg>
