<svg width="24" height="24" viewBox="0 0 24 24" fill="none" xmlns="http://www.w3.org/2000/svg">
<g clip-path="url(#clip0_1098_9547)">
<path d="M4.5 21C4.1 21 3.75 20.85 3.45 20.55C3.15 20.25 3 19.9 3 19.5V4.5C3 4.1 3.15 3.75 3.45 3.45C3.75 3.15 4.1 3 4.5 3H19.5C19.9 3 20.25 3.15 20.55 3.45C20.85 3.75 21 4.1 21 4.5V19.5C21 19.9 20.85 20.25 20.55 20.55C20.25 20.85 19.9 21 19.5 21H4.5ZM4.5 19.5H19.5V4.5H4.5V19.5ZM12 14.475L14.175 15.8C14.3083 15.8833 14.4417 15.875 14.575 15.775C14.7083 15.675 14.7583 15.5417 14.725 15.375L14.15 12.925L16.075 11.25C16.2083 11.1333 16.2458 11 16.1875 10.85C16.1292 10.7 16.0167 10.6167 15.85 10.6L13.325 10.4L12.35 8.075C12.2855 7.925 12.1694 7.85 12.0016 7.85C11.8339 7.85 11.7167 7.925 11.65 8.075L10.675 10.4L8.15 10.6C7.98333 10.6167 7.87083 10.7 7.8125 10.85C7.75417 11 7.79167 11.1333 7.925 11.25L9.85 12.925L9.275 15.375C9.24167 15.5417 9.29167 15.675 9.425 15.775C9.55833 15.875 9.69167 15.8833 9.825 15.8L12 14.475Z" fill="#148532"/>
</g>
<defs>
<clipPath id="clip0_1098_9547">
<rect width="24" height="24" fill="white"/>
</clipPath>
</defs>
</svg>
