<svg width="245" height="199" viewBox="0 0 245 199" fill="none" xmlns="http://www.w3.org/2000/svg">
<path d="M72.1295 64.2646H58.9845C58.902 64.2646 58.8229 64.2319 58.7645 64.1735C58.7062 64.1152 58.6734 64.0361 58.6734 63.9536C58.6725 63.9125 58.6799 63.8716 58.6952 63.8335C58.7105 63.7953 58.7334 63.7607 58.7625 63.7316C58.7915 63.7025 58.8262 63.6796 58.8643 63.6643C58.9025 63.649 58.9434 63.6416 58.9845 63.6425H72.1295C72.212 63.6425 72.2911 63.6753 72.3495 63.7336C72.4078 63.792 72.4406 63.8711 72.4406 63.9536C72.4389 64.0355 72.4055 64.1137 72.3476 64.1716C72.2896 64.2296 72.2115 64.2629 72.1295 64.2646Z" fill="#D1D3D4"/>
<path d="M78.2556 58.6928H58.8761C58.7936 58.6928 58.7145 58.6601 58.6561 58.6017C58.5978 58.5434 58.565 58.4643 58.565 58.3818C58.5641 58.3407 58.5715 58.2998 58.5868 58.2617C58.6021 58.2235 58.625 58.1889 58.6541 58.1598C58.6831 58.1307 58.7178 58.1079 58.7559 58.0926C58.7941 58.0772 58.835 58.0698 58.8761 58.0708H78.2556C78.2967 58.0698 78.3375 58.0772 78.3757 58.0926C78.4138 58.1079 78.4485 58.1307 78.4776 58.1598C78.5066 58.1889 78.5295 58.2235 78.5448 58.2617C78.5601 58.2998 78.5675 58.3407 78.5666 58.3818C78.5666 58.4643 78.5338 58.5434 78.4755 58.6017C78.4172 58.6601 78.3381 58.6928 78.2556 58.6928Z" fill="#D1D3D4"/>
<path d="M65.2324 53.1212H58.9371C58.8546 53.1212 58.7755 53.0884 58.7172 53.0301C58.6588 52.9718 58.6261 52.8926 58.6261 52.8101C58.6251 52.769 58.6325 52.7282 58.6478 52.69C58.6632 52.6519 58.686 52.6172 58.7151 52.5881C58.7442 52.5591 58.7788 52.5362 58.817 52.5209C58.8551 52.5056 58.896 52.4982 58.9371 52.4991H65.2324C65.3149 52.4991 65.394 52.5319 65.4523 52.5902C65.5107 52.6485 65.5434 52.7277 65.5434 52.8101C65.5417 52.8921 65.5084 52.9702 65.4504 53.0282C65.3925 53.0861 65.3144 53.1195 65.2324 53.1212Z" fill="#D1D3D4"/>
<path d="M80.325 53.3172H69.1206C69.0381 53.3172 68.959 53.2844 68.9007 53.2261C68.8423 53.1677 68.8096 53.0886 68.8096 53.0061C68.8113 52.9242 68.8446 52.846 68.9026 52.7881C68.9605 52.7301 69.0387 52.6968 69.1206 52.6951H80.325C80.407 52.6968 80.4851 52.7301 80.5431 52.7881C80.601 52.846 80.6344 52.9242 80.6361 53.0061C80.6361 53.047 80.628 53.0874 80.6124 53.1251C80.5968 53.1629 80.5739 53.1972 80.545 53.2261C80.5161 53.2549 80.4818 53.2778 80.4441 53.2935C80.4063 53.3091 80.3659 53.3172 80.325 53.3172Z" fill="#D1D3D4"/>
<path d="M72.1295 64.2646H58.9845C58.902 64.2646 58.8229 64.2319 58.7645 64.1735C58.7062 64.1152 58.6734 64.0361 58.6734 63.9536C58.6725 63.9125 58.6799 63.8716 58.6952 63.8335C58.7105 63.7953 58.7334 63.7607 58.7625 63.7316C58.7915 63.7025 58.8262 63.6796 58.8643 63.6643C58.9025 63.649 58.9434 63.6416 58.9845 63.6425H72.1295C72.212 63.6425 72.2911 63.6753 72.3495 63.7336C72.4078 63.792 72.4406 63.8711 72.4406 63.9536C72.4389 64.0355 72.4055 64.1137 72.3476 64.1716C72.2896 64.2296 72.2115 64.2629 72.1295 64.2646Z" stroke="#E6E7E8" stroke-linecap="round" stroke-linejoin="round"/>
<path d="M78.2556 58.6928H58.8761C58.7936 58.6928 58.7145 58.6601 58.6561 58.6017C58.5978 58.5434 58.565 58.4643 58.565 58.3818C58.5641 58.3407 58.5715 58.2998 58.5868 58.2617C58.6021 58.2235 58.625 58.1889 58.6541 58.1598C58.6831 58.1307 58.7178 58.1079 58.7559 58.0926C58.7941 58.0772 58.835 58.0698 58.8761 58.0708H78.2556C78.2967 58.0698 78.3375 58.0772 78.3757 58.0926C78.4138 58.1079 78.4485 58.1307 78.4776 58.1598C78.5066 58.1889 78.5295 58.2235 78.5448 58.2617C78.5601 58.2998 78.5675 58.3407 78.5666 58.3818C78.5666 58.4643 78.5338 58.5434 78.4755 58.6017C78.4172 58.6601 78.3381 58.6928 78.2556 58.6928Z" stroke="#E6E7E8" stroke-linecap="round" stroke-linejoin="round"/>
<path d="M65.2324 53.1212H58.9371C58.8546 53.1212 58.7755 53.0884 58.7172 53.0301C58.6588 52.9718 58.6261 52.8926 58.6261 52.8101C58.6251 52.769 58.6325 52.7282 58.6478 52.69C58.6632 52.6519 58.686 52.6172 58.7151 52.5881C58.7442 52.5591 58.7788 52.5362 58.817 52.5209C58.8551 52.5056 58.896 52.4982 58.9371 52.4991H65.2324C65.3149 52.4991 65.394 52.5319 65.4523 52.5902C65.5107 52.6485 65.5434 52.7277 65.5434 52.8101C65.5417 52.8921 65.5084 52.9702 65.4504 53.0282C65.3925 53.0861 65.3144 53.1195 65.2324 53.1212Z" stroke="#E6E7E8" stroke-linecap="round" stroke-linejoin="round"/>
<path d="M80.325 53.3172H69.1206C69.0381 53.3172 68.959 53.2844 68.9007 53.2261C68.8423 53.1677 68.8096 53.0886 68.8096 53.0061C68.8113 52.9242 68.8446 52.846 68.9026 52.7881C68.9605 52.7301 69.0387 52.6968 69.1206 52.6951H80.325C80.407 52.6968 80.4851 52.7301 80.5431 52.7881C80.601 52.846 80.6344 52.9242 80.6361 53.0061C80.6361 53.047 80.628 53.0874 80.6124 53.1251C80.5968 53.1629 80.5739 53.1972 80.545 53.2261C80.5161 53.2549 80.4818 53.2778 80.4441 53.2935C80.4063 53.3091 80.3659 53.3172 80.325 53.3172Z" stroke="#E6E7E8" stroke-linecap="round" stroke-linejoin="round"/>
<path d="M182.517 80.4796H169.352C169.269 80.4796 169.19 80.4469 169.132 80.3885C169.073 80.3302 169.041 80.2511 169.041 80.1686C169.042 80.0866 169.076 80.0085 169.134 79.9506C169.191 79.8926 169.27 79.8593 169.352 79.8575H182.517C182.599 79.8593 182.677 79.8926 182.735 79.9506C182.793 80.0085 182.826 80.0866 182.828 80.1686C182.828 80.2511 182.795 80.3302 182.737 80.3885C182.679 80.4469 182.599 80.4796 182.517 80.4796Z" fill="#D1D3D4"/>
<path d="M187.453 80.4796H184.958C184.917 80.4806 184.876 80.4731 184.838 80.4578C184.8 80.4425 184.765 80.4197 184.736 80.3906C184.707 80.3615 184.684 80.3269 184.669 80.2887C184.654 80.2505 184.646 80.2097 184.647 80.1686C184.647 80.0861 184.68 80.007 184.738 79.9486C184.796 79.8903 184.876 79.8575 184.958 79.8575H187.453C187.536 79.8575 187.615 79.8903 187.673 79.9486C187.732 80.007 187.764 80.0861 187.764 80.1686C187.765 80.2097 187.758 80.2505 187.742 80.2887C187.727 80.3269 187.704 80.3615 187.675 80.3906C187.646 80.4197 187.611 80.4425 187.573 80.4578C187.535 80.4731 187.494 80.4806 187.453 80.4796Z" fill="#D1D3D4"/>
<path d="M188.602 74.9146H169.243C169.168 74.9035 169.099 74.8657 169.049 74.8079C168.999 74.7502 168.972 74.6765 168.972 74.6002C168.972 74.5239 168.999 74.4502 169.049 74.3925C169.099 74.3347 169.168 74.2969 169.243 74.2858H188.602C188.678 74.2969 188.747 74.3347 188.797 74.3925C188.847 74.4502 188.874 74.5239 188.874 74.6002C188.874 74.6765 188.847 74.7502 188.797 74.8079C188.747 74.8657 188.678 74.9035 188.602 74.9146Z" fill="#D1D3D4"/>
<path d="M175.606 69.3429H169.311C169.229 69.3429 169.15 69.3101 169.091 69.2518C169.033 69.1934 169 69.1143 169 69.0318C168.999 68.9907 169.007 68.9499 169.022 68.9117C169.037 68.8736 169.06 68.8389 169.089 68.8098C169.118 68.7808 169.153 68.7579 169.191 68.7426C169.229 68.7273 169.27 68.7199 169.311 68.7208H175.606C175.689 68.7208 175.768 68.7536 175.826 68.8119C175.885 68.8702 175.917 68.9493 175.917 69.0318C175.916 69.1138 175.882 69.1919 175.824 69.2499C175.766 69.3078 175.688 69.3411 175.606 69.3429Z" fill="#D1D3D4"/>
<path d="M190.699 69.5388H179.495C179.412 69.5388 179.333 69.5061 179.275 69.4477C179.216 69.3894 179.184 69.3103 179.184 69.2278C179.184 69.1453 179.216 69.0662 179.275 69.0078C179.333 68.9495 179.412 68.9167 179.495 68.9167H190.699C190.782 68.9167 190.861 68.9495 190.919 69.0078C190.977 69.0662 191.01 69.1453 191.01 69.2278C191.01 69.3103 190.977 69.3894 190.919 69.4477C190.861 69.5061 190.782 69.5388 190.699 69.5388Z" fill="#D1D3D4"/>
<path d="M182.517 80.4796H169.352C169.269 80.4796 169.19 80.4469 169.132 80.3885C169.073 80.3302 169.041 80.2511 169.041 80.1686C169.042 80.0866 169.076 80.0085 169.134 79.9506C169.191 79.8926 169.27 79.8593 169.352 79.8575H182.517C182.599 79.8593 182.677 79.8926 182.735 79.9506C182.793 80.0085 182.826 80.0866 182.828 80.1686C182.828 80.2511 182.795 80.3302 182.737 80.3885C182.679 80.4469 182.599 80.4796 182.517 80.4796Z" stroke="#E6E7E8" stroke-linecap="round" stroke-linejoin="round"/>
<path d="M187.453 80.4796H184.958C184.917 80.4806 184.876 80.4731 184.838 80.4578C184.8 80.4425 184.765 80.4197 184.736 80.3906C184.707 80.3615 184.684 80.3269 184.669 80.2887C184.654 80.2505 184.646 80.2097 184.647 80.1686C184.647 80.0861 184.68 80.007 184.738 79.9486C184.796 79.8903 184.876 79.8575 184.958 79.8575H187.453C187.536 79.8575 187.615 79.8903 187.673 79.9486C187.732 80.007 187.764 80.0861 187.764 80.1686C187.765 80.2097 187.758 80.2505 187.742 80.2887C187.727 80.3269 187.704 80.3615 187.675 80.3906C187.646 80.4197 187.611 80.4425 187.573 80.4578C187.535 80.4731 187.494 80.4806 187.453 80.4796Z" stroke="#E6E7E8" stroke-linecap="round" stroke-linejoin="round"/>
<path d="M188.602 74.9146H169.243C169.168 74.9035 169.099 74.8657 169.049 74.8079C168.999 74.7502 168.972 74.6765 168.972 74.6002C168.972 74.5239 168.999 74.4502 169.049 74.3925C169.099 74.3347 169.168 74.2969 169.243 74.2858H188.602C188.678 74.2969 188.747 74.3347 188.797 74.3925C188.847 74.4502 188.874 74.5239 188.874 74.6002C188.874 74.6765 188.847 74.7502 188.797 74.8079C188.747 74.8657 188.678 74.9035 188.602 74.9146Z" stroke="#E6E7E8" stroke-linecap="round" stroke-linejoin="round"/>
<path d="M175.606 69.3429H169.311C169.229 69.3429 169.15 69.3101 169.091 69.2518C169.033 69.1934 169 69.1143 169 69.0318C168.999 68.9907 169.007 68.9499 169.022 68.9117C169.037 68.8736 169.06 68.8389 169.089 68.8098C169.118 68.7808 169.153 68.7579 169.191 68.7426C169.229 68.7273 169.27 68.7199 169.311 68.7208H175.606C175.689 68.7208 175.768 68.7536 175.826 68.8119C175.885 68.8702 175.917 68.9493 175.917 69.0318C175.916 69.1138 175.882 69.1919 175.824 69.2499C175.766 69.3078 175.688 69.3411 175.606 69.3429Z" stroke="#E6E7E8" stroke-linecap="round" stroke-linejoin="round"/>
<path d="M190.699 69.5388H179.495C179.412 69.5388 179.333 69.5061 179.275 69.4477C179.216 69.3894 179.184 69.3103 179.184 69.2278C179.184 69.1453 179.216 69.0662 179.275 69.0078C179.333 68.9495 179.412 68.9167 179.495 68.9167H190.699C190.782 68.9167 190.861 68.9495 190.919 69.0078C190.977 69.0662 191.01 69.1453 191.01 69.2278C191.01 69.3103 190.977 69.3894 190.919 69.4477C190.861 69.5061 190.782 69.5388 190.699 69.5388Z" stroke="#E6E7E8" stroke-linecap="round" stroke-linejoin="round"/>
<path d="M69.4178 143.041C69.3513 143.038 69.2871 143.016 69.2339 142.976C69.1807 142.936 69.141 142.881 69.1203 142.817L62.9467 125.629L56.1848 138.828C56.1579 138.878 56.1192 138.921 56.0721 138.952C56.025 138.984 55.9708 139.004 55.9144 139.01C55.8574 139.015 55.8002 139.005 55.7482 138.981C55.6962 138.958 55.651 138.921 55.6168 138.875L48.8955 130.085L44.6897 136.847C44.6674 136.885 44.6377 136.918 44.6024 136.945C44.5671 136.971 44.5268 136.99 44.484 137.001C44.4411 137.012 44.3966 137.014 44.3529 137.007C44.3093 137 44.2675 136.985 44.2299 136.962L40.5176 134.75C40.4415 134.703 40.3869 134.628 40.3655 134.54C40.344 134.453 40.3574 134.361 40.4026 134.284C40.4256 134.246 40.4559 134.212 40.4918 134.186C40.5277 134.159 40.5686 134.14 40.612 134.129C40.6553 134.118 40.7004 134.116 40.7446 134.123C40.7887 134.13 40.8311 134.146 40.8692 134.169L44.2501 136.197L48.5372 129.321C48.5669 129.275 48.6068 129.238 48.6538 129.211C48.7008 129.184 48.7535 129.168 48.8076 129.165C48.8622 129.159 48.9174 129.168 48.9673 129.19C49.0173 129.213 49.0603 129.249 49.0916 129.294L55.7859 138.05L62.683 124.635C62.7118 124.575 62.7584 124.525 62.8165 124.492C62.8746 124.46 62.9413 124.446 63.0076 124.452C63.0729 124.456 63.1356 124.479 63.1875 124.519C63.2393 124.559 63.278 124.613 63.2983 124.675L69.4584 141.823L72.3863 135.63C72.4285 135.555 72.4974 135.5 72.579 135.474C72.6605 135.448 72.7488 135.455 72.8259 135.492C72.903 135.528 72.9633 135.593 72.9947 135.673C73.026 135.752 73.0261 135.841 72.9948 135.92L69.7221 142.851C69.6949 142.909 69.6517 142.957 69.5978 142.991C69.5438 143.024 69.4813 143.041 69.4178 143.041Z" fill="#D1D3D4"/>
<path d="M44.3587 137.496C44.8367 137.496 45.2242 137.108 45.2242 136.63C45.2242 136.152 44.8367 135.765 44.3587 135.765C43.8807 135.765 43.4932 136.152 43.4932 136.63C43.4932 137.108 43.8807 137.496 44.3587 137.496Z" fill="white"/>
<path d="M44.3656 137.834C44.1273 137.835 43.8939 137.766 43.6951 137.634C43.4963 137.503 43.341 137.315 43.2488 137.095C43.1567 136.876 43.1319 136.633 43.1776 136.399C43.2233 136.166 43.3374 135.95 43.5054 135.781C43.6735 135.612 43.8879 135.497 44.1216 135.45C44.3552 135.403 44.5976 135.427 44.8179 135.517C45.0382 135.608 45.2266 135.763 45.3592 135.961C45.4917 136.159 45.5625 136.392 45.5625 136.63C45.5625 136.948 45.4366 137.253 45.2124 137.479C44.9881 137.704 44.6837 137.832 44.3656 137.834ZM44.3656 136.109C44.2967 136.109 44.2283 136.121 44.1643 136.147C44.1004 136.173 44.0422 136.211 43.9931 136.26C43.944 136.308 43.9051 136.366 43.8785 136.429C43.8519 136.493 43.8382 136.561 43.8382 136.63C43.8298 136.704 43.8371 136.779 43.8596 136.849C43.8821 136.92 43.9193 136.986 43.9688 137.041C44.0183 137.096 44.0789 137.141 44.1467 137.171C44.2145 137.201 44.288 137.217 44.3623 137.217C44.4366 137.217 44.51 137.201 44.5778 137.171C44.6456 137.141 44.7063 137.096 44.7557 137.041C44.8052 136.986 44.8424 136.92 44.8649 136.849C44.8874 136.779 44.8947 136.704 44.8863 136.63C44.8863 136.492 44.8315 136.36 44.7338 136.262C44.6362 136.164 44.5037 136.109 44.3656 136.109Z" fill="#D1D3D4"/>
<path d="M48.8284 130.362C49.3064 130.362 49.6939 129.974 49.6939 129.496C49.6939 129.018 49.3064 128.631 48.8284 128.631C48.3504 128.631 47.9629 129.018 47.9629 129.496C47.9629 129.974 48.3504 130.362 48.8284 130.362Z" fill="white"/>
<path d="M48.8285 130.693C48.5899 130.695 48.3563 130.625 48.1573 130.493C47.9583 130.362 47.803 130.174 47.7111 129.953C47.6191 129.733 47.5947 129.491 47.641 129.257C47.6872 129.022 47.802 128.807 47.9707 128.639C48.1394 128.47 48.3545 128.355 48.5886 128.309C48.8227 128.263 49.0653 128.287 49.2855 128.379C49.5057 128.471 49.6936 128.626 49.8253 128.825C49.9571 129.024 50.0267 129.258 50.0254 129.496C50.0236 129.813 49.8969 130.117 49.6729 130.341C49.4488 130.565 49.1454 130.692 48.8285 130.693ZM48.8285 128.969C48.6886 128.969 48.5545 129.025 48.4556 129.124C48.3567 129.222 48.3011 129.357 48.3011 129.496C48.3011 129.601 48.332 129.703 48.39 129.79C48.4479 129.876 48.5303 129.944 48.6267 129.984C48.7231 130.024 48.8291 130.034 48.9314 130.014C49.0337 129.993 49.1277 129.943 49.2015 129.869C49.2752 129.796 49.3255 129.702 49.3458 129.599C49.3662 129.497 49.3557 129.391 49.3158 129.295C49.2759 129.198 49.2083 129.116 49.1215 129.058C49.0348 129 48.9328 128.969 48.8285 128.969Z" fill="#D1D3D4"/>
<path d="M62.9808 125.649C63.4588 125.649 63.8463 125.261 63.8463 124.783C63.8463 124.305 63.4588 123.918 62.9808 123.918C62.5027 123.918 62.1152 124.305 62.1152 124.783C62.1152 125.261 62.5027 125.649 62.9808 125.649Z" fill="white"/>
<path d="M62.9809 125.98C62.7426 125.98 62.5096 125.909 62.3116 125.777C62.1135 125.644 61.9592 125.456 61.8683 125.236C61.7774 125.015 61.754 124.773 61.801 124.539C61.848 124.306 61.9633 124.091 62.1323 123.923C62.3013 123.755 62.5164 123.641 62.7503 123.595C62.9842 123.55 63.2264 123.574 63.4462 123.667C63.6661 123.759 63.8536 123.914 63.985 124.113C64.1164 124.312 64.1859 124.545 64.1845 124.783C64.1846 124.941 64.1534 125.097 64.0928 125.243C64.0322 125.389 63.9435 125.521 63.8316 125.632C63.7198 125.743 63.587 125.831 63.441 125.891C63.295 125.951 63.1387 125.981 62.9809 125.98ZM62.9809 124.256C62.8766 124.256 62.7746 124.287 62.6879 124.345C62.6012 124.403 62.5336 124.485 62.4937 124.582C62.4537 124.678 62.4433 124.784 62.4636 124.886C62.484 124.989 62.5342 125.083 62.608 125.156C62.6818 125.23 62.7757 125.28 62.878 125.301C62.9804 125.321 63.0864 125.311 63.1828 125.271C63.2791 125.231 63.3615 125.163 63.4195 125.076C63.4774 124.99 63.5084 124.888 63.5084 124.783C63.5084 124.643 63.4528 124.509 63.3539 124.41C63.255 124.312 63.1208 124.256 62.9809 124.256Z" fill="#D1D3D4"/>
<path d="M69.4183 143.568C69.8963 143.568 70.2838 143.18 70.2838 142.702C70.2838 142.224 69.8963 141.837 69.4183 141.837C68.9402 141.837 68.5527 142.224 68.5527 142.702C68.5527 143.18 68.9402 143.568 69.4183 143.568Z" fill="white"/>
<path d="M69.4179 143.899C69.1793 143.9 68.9456 143.831 68.7467 143.699C68.5477 143.567 68.3924 143.379 68.3004 143.159C68.2085 142.939 68.1841 142.697 68.2303 142.462C68.2765 142.228 68.3913 142.013 68.56 141.844C68.7288 141.676 68.9439 141.561 69.178 141.515C69.4121 141.469 69.6546 141.493 69.8748 141.585C70.0951 141.677 70.283 141.832 70.4147 142.031C70.5464 142.23 70.6161 142.464 70.6147 142.702C70.613 143.019 70.4863 143.323 70.2622 143.547C70.0381 143.771 69.7348 143.897 69.4179 143.899ZM69.4179 142.175C69.3441 142.166 69.2693 142.174 69.1985 142.196C69.1277 142.219 69.0624 142.256 69.007 142.305C68.9516 142.355 68.9073 142.416 68.8769 142.483C68.8465 142.551 68.8308 142.625 68.8308 142.699C68.8308 142.773 68.8465 142.847 68.8769 142.914C68.9073 142.982 68.9516 143.043 69.007 143.092C69.0624 143.142 69.1277 143.179 69.1985 143.202C69.2693 143.224 69.3441 143.231 69.4179 143.223C69.5466 143.208 69.6654 143.147 69.7517 143.05C69.838 142.954 69.8857 142.828 69.8857 142.699C69.8857 142.569 69.838 142.444 69.7517 142.348C69.6654 142.251 69.5466 142.19 69.4179 142.175Z" fill="#D1D3D4"/>
<path d="M55.847 139.538C56.325 139.538 56.7125 139.15 56.7125 138.672C56.7125 138.194 56.325 137.807 55.847 137.807C55.369 137.807 54.9814 138.194 54.9814 138.672C54.9814 139.15 55.369 139.538 55.847 139.538Z" fill="white"/>
<path d="M55.8471 139.869C55.6085 139.87 55.3748 139.801 55.1759 139.669C54.9769 139.537 54.8216 139.349 54.7296 139.129C54.6377 138.909 54.6133 138.666 54.6595 138.432C54.7057 138.198 54.8205 137.983 54.9892 137.814C55.158 137.646 55.3731 137.531 55.6072 137.485C55.8413 137.438 56.0838 137.463 56.3041 137.555C56.5243 137.647 56.7122 137.802 56.8439 138.001C56.9756 138.2 57.0453 138.434 57.0439 138.672C57.0422 138.989 56.9155 139.293 56.6914 139.517C56.4673 139.741 56.164 139.867 55.8471 139.869ZM55.8471 138.145C55.7072 138.145 55.573 138.2 55.4741 138.299C55.3752 138.398 55.3197 138.532 55.3197 138.672C55.3197 138.777 55.3506 138.879 55.4085 138.965C55.4665 139.052 55.5489 139.12 55.6452 139.16C55.7416 139.199 55.8477 139.21 55.95 139.19C56.0523 139.169 56.1463 139.119 56.22 139.045C56.2938 138.971 56.344 138.877 56.3644 138.775C56.3847 138.673 56.3743 138.567 56.3344 138.47C56.2944 138.374 56.2268 138.292 56.1401 138.234C56.0534 138.176 55.9514 138.145 55.8471 138.145Z" fill="#D1D3D4"/>
<path d="M35.4466 70.2894C35.4466 70.2894 34.6013 61.0392 51.337 61.0392L50.8366 96.3632L37.4413 90.433L35.4466 70.2894Z" fill="white"/>
<path d="M50.8635 96.7014C50.8166 96.711 50.7683 96.711 50.7215 96.7014L37.333 90.7712C37.2779 90.7468 37.2302 90.7083 37.1946 90.6597C37.159 90.611 37.1368 90.5539 37.1301 90.494L35.1016 70.3504C35.0858 69.3849 35.2604 68.4257 35.6154 67.5277C35.9704 66.6296 36.4989 65.8104 37.1707 65.1167C39.8214 62.2091 44.6088 60.735 51.3706 60.735C51.416 60.7344 51.461 60.743 51.5029 60.7605C51.5447 60.7779 51.5826 60.8038 51.6141 60.8364C51.6753 60.9 51.7092 60.9849 51.7087 61.0731L51.2016 96.3701C51.1998 96.4254 51.1847 96.4794 51.1577 96.5277C51.1306 96.5759 51.0923 96.6169 51.0461 96.6473C50.9922 96.6836 50.9284 96.7024 50.8635 96.7014ZM37.8131 90.2168L50.5592 95.8629L51.0461 61.3774C44.6764 61.4247 40.2271 62.8177 37.7184 65.5224C36.489 66.7906 35.8046 68.4895 35.8116 70.2557L37.8131 90.2168Z" fill="#231F20"/>
<path d="M37.1371 77.3692C37.0491 77.3558 36.9698 77.3089 36.9156 77.2383C36.8614 77.1678 36.8366 77.079 36.8463 76.9905C36.8463 76.9026 38.0296 68.2948 49.4707 67.6659C49.5151 67.6632 49.5597 67.6692 49.6017 67.6837C49.6438 67.6982 49.6826 67.7209 49.7159 67.7504C49.7492 67.7799 49.7763 67.8158 49.7958 67.8558C49.8152 67.8958 49.8265 67.9393 49.8291 67.9837C49.8328 68.0283 49.8274 68.0732 49.8132 68.1157C49.7991 68.1582 49.7765 68.1974 49.7468 68.2308C49.7171 68.2643 49.6809 68.2915 49.6404 68.3106C49.6 68.3297 49.556 68.3404 49.5113 68.3421C38.6314 68.9169 37.5428 76.693 37.5022 77.0514C37.4953 77.1417 37.4531 77.2257 37.3848 77.2851C37.3165 77.3446 37.2275 77.3748 37.1371 77.3692Z" fill="#231F20"/>
<path d="M37.725 83.9553C37.6806 83.9544 37.6368 83.9448 37.5961 83.927C37.5554 83.9092 37.5186 83.8835 37.4879 83.8515C37.4571 83.8195 37.4329 83.7817 37.4168 83.7403C37.4006 83.699 37.3927 83.6548 37.3936 83.6104C37.3936 83.5293 37.5694 74.82 48.8888 72.9064C48.9785 72.8921 49.0702 72.9139 49.1437 72.9672C49.2173 73.0204 49.2666 73.1007 49.281 73.1904C49.2953 73.2801 49.2735 73.3718 49.2202 73.4453C49.167 73.5189 49.0867 73.5682 48.997 73.5826C38.2727 75.4151 38.0833 83.2926 38.0833 83.624C38.0816 83.6693 38.0709 83.7138 38.052 83.7549C38.033 83.7961 38.0061 83.8332 37.9728 83.8639C37.9396 83.8947 37.9005 83.9186 37.858 83.9343C37.8155 83.95 37.7703 83.9571 37.725 83.9553Z" fill="#231F20"/>
<path d="M37.8127 88.0597C37.7236 88.058 37.6386 88.0218 37.5755 87.9588C37.5125 87.8958 37.4763 87.8108 37.4746 87.7216C37.4746 87.6337 37.6572 78.9312 48.9698 77.0108C49.0584 76.997 49.1489 77.0182 49.2221 77.07C49.2953 77.1217 49.3455 77.2 49.362 77.2881C49.3697 77.3321 49.3687 77.3771 49.3589 77.4207C49.3492 77.4643 49.3309 77.5055 49.3051 77.542C49.2793 77.5784 49.2466 77.6094 49.2088 77.6332C49.1709 77.6569 49.1288 77.6729 49.0847 77.6803C38.3401 79.5195 38.1643 87.6405 38.1643 87.7216C38.1644 87.7672 38.1552 87.8123 38.1374 87.8542C38.1195 87.8962 38.0934 87.934 38.0606 87.9656C38.0277 87.9972 37.9888 88.0218 37.9462 88.038C37.9036 88.0542 37.8582 88.0616 37.8127 88.0597Z" fill="#231F20"/>
<path d="M156.098 37.6769C156.052 37.6785 156.006 37.6696 155.964 37.6509C155.922 37.6322 155.885 37.6041 155.855 37.5687C155.855 37.5687 155.524 37.2374 154.881 36.6762C154.85 36.6453 154.825 36.6085 154.808 36.5679C154.791 36.5272 154.782 36.4836 154.782 36.4395C154.782 36.3954 154.791 36.3518 154.808 36.3112C154.825 36.2705 154.85 36.2337 154.881 36.2029C154.946 36.1405 155.032 36.1056 155.121 36.1056C155.211 36.1056 155.297 36.1405 155.361 36.2029C156.037 36.7844 156.362 37.1225 156.376 37.136C156.407 37.1674 156.432 37.2048 156.45 37.246C156.467 37.2872 156.476 37.3314 156.476 37.376C156.476 37.4207 156.467 37.4649 156.45 37.5061C156.432 37.5473 156.407 37.5847 156.376 37.6161C156.337 37.6461 156.292 37.6672 156.244 37.6777C156.196 37.6882 156.146 37.688 156.098 37.6769Z" fill="#D1D3D4"/>
<path d="M110.402 152.358H110.3L109.016 151.959C108.971 151.947 108.93 151.926 108.894 151.897C108.857 151.869 108.827 151.834 108.804 151.793C108.782 151.753 108.767 151.709 108.762 151.663C108.756 151.618 108.76 151.571 108.772 151.527C108.785 151.482 108.806 151.441 108.834 151.405C108.863 151.368 108.898 151.338 108.938 151.315C108.978 151.293 109.023 151.278 109.068 151.273C109.114 151.267 109.161 151.271 109.205 151.283L110.51 151.689C110.554 151.696 110.597 151.712 110.635 151.735C110.674 151.759 110.707 151.79 110.733 151.826C110.76 151.863 110.779 151.904 110.789 151.948C110.799 151.991 110.801 152.037 110.794 152.081C110.787 152.126 110.771 152.168 110.748 152.206C110.724 152.245 110.693 152.278 110.657 152.304C110.62 152.331 110.579 152.35 110.535 152.36C110.492 152.371 110.446 152.372 110.402 152.365V152.358Z" fill="#D1D3D4"/>
<path d="M71.9807 45.7034C74.4359 44.4767 76.3031 42.325 77.1718 39.7216C78.0404 37.1182 77.8393 34.2764 76.6126 31.8213C75.386 29.3662 73.2343 27.4989 70.6309 26.6303C68.0275 25.7616 65.1856 25.9627 62.7305 27.1894L67.3556 36.4464L58.0986 41.0715C58.7058 42.2874 59.5465 43.3717 60.5728 44.2626C61.5991 45.1534 62.7909 45.8334 64.0801 46.2635C65.3692 46.6936 66.7305 46.8656 68.0861 46.7695C69.4418 46.6734 70.7652 46.3111 71.9807 45.7034Z" fill="white"/>
<path d="M67.3623 47.1368C65.3767 47.134 63.4308 46.5801 61.7415 45.5366C60.0521 44.4932 58.6857 43.0012 57.7943 41.2269C57.7542 41.1471 57.7473 41.0546 57.7752 40.9697C57.803 40.8848 57.8634 40.8144 57.943 40.7739L66.889 36.2975L62.4261 27.3313C62.3923 27.249 62.3923 27.1567 62.4261 27.0743C62.4394 27.0318 62.4612 26.9924 62.4903 26.9587C62.5194 26.925 62.5551 26.8976 62.5952 26.8782C64.0371 26.17 65.62 25.7958 67.2264 25.7834C68.8328 25.771 70.4213 26.1209 71.8739 26.8069C73.3265 27.4929 74.6058 28.4975 75.6168 29.7459C76.6277 30.9944 77.3443 32.4546 77.7133 34.0181C78.0823 35.5816 78.0942 37.2081 77.7481 38.7768C77.402 40.3455 76.7068 41.8161 75.7142 43.0792C74.7216 44.3423 73.4571 45.3654 72.0147 46.0726C70.5722 46.7797 68.989 47.1527 67.3826 47.1638L67.3623 47.1368ZM58.5719 41.2202C59.8125 43.5019 61.8905 45.2128 64.3679 45.9923C66.8453 46.7719 69.5286 46.5592 71.8522 45.399C74.2481 44.2495 76.0893 42.1952 76.9706 39.6882C77.8519 37.1812 77.7012 34.4267 76.5517 32.0308C75.4021 29.6349 73.3479 27.7937 70.8409 26.9124C68.3338 26.0311 65.5794 26.1817 63.1835 27.3313L67.6531 36.284C67.6739 36.3234 67.6865 36.3665 67.6902 36.4108C67.694 36.4552 67.6888 36.4998 67.6749 36.5421C67.661 36.5844 67.6387 36.6234 67.6094 36.6569C67.5801 36.6904 67.5444 36.7177 67.5043 36.737L58.5719 41.2202Z" fill="#231F20"/>
<path d="M54.7922 39.9355L64.0492 35.3103L59.4511 26.0533C58.2329 26.6581 57.1459 27.4971 56.2522 28.5223C55.3586 29.5476 54.6759 30.739 54.2432 32.0284C53.8105 33.3178 53.6362 34.6798 53.7304 36.0366C53.8246 37.3934 54.1854 38.7183 54.7922 39.9355Z" fill="white"/>
<path d="M54.7922 40.2735C54.7297 40.2735 54.6684 40.2565 54.6148 40.2243C54.5612 40.1922 54.5174 40.146 54.488 40.0909C53.2226 37.5539 53.016 34.6184 53.9137 31.9292C54.8113 29.24 56.7398 27.0172 59.2754 25.749C59.3563 25.7111 59.4488 25.7062 59.5333 25.7352C59.6178 25.7642 59.6877 25.8249 59.7284 25.9045L64.3535 35.1615C64.3873 35.2438 64.3873 35.3361 64.3535 35.4184C64.3219 35.5037 64.2591 35.5738 64.1777 35.6145L54.9207 40.2396C54.8812 40.2609 54.8371 40.2725 54.7922 40.2735ZM59.2754 26.5131C57.041 27.7255 55.3509 29.7417 54.5474 32.1535C53.7439 34.5653 53.887 37.1924 54.9478 39.5026L63.5962 35.1818L59.2754 26.5131Z" fill="#231F20"/>
<path d="M159.526 57.9896C159.526 57.9896 161.332 51.5185 161.494 50.6056C161.656 49.6928 161.163 46.0481 162.17 45.4937C163.178 44.9392 163.807 48.239 163.807 50.6056C163.807 50.6056 167.904 41.6664 169.054 42.9782C170.203 44.29 170.366 47.0759 169.872 48.55C169.378 50.0241 162.907 62.6485 162.907 62.6485L159.526 57.9896Z" fill="white"/>
<path d="M162.908 62.9867C162.855 62.9878 162.803 62.9761 162.756 62.9525C162.709 62.9289 162.668 62.8943 162.637 62.8515L159.195 58.1925C159.166 58.1509 159.146 58.1033 159.136 58.0531C159.127 58.0029 159.129 57.9513 159.141 57.9018C159.141 57.8342 160.94 51.4374 161.102 50.5516C161.134 50.1014 161.134 49.6495 161.102 49.1992C161.102 47.1707 161.102 45.629 161.9 45.1827C162.015 45.1129 162.147 45.076 162.282 45.076C162.417 45.076 162.549 45.1129 162.664 45.1827C163.449 45.6425 163.834 47.6305 163.976 49.2398C165.092 46.9408 167.31 42.7011 168.567 42.478C168.686 42.4574 168.809 42.4692 168.922 42.512C169.035 42.5548 169.134 42.6271 169.21 42.7214C170.488 44.1819 170.562 47.1436 170.096 48.6245C169.629 50.1053 163.449 62.2564 163.192 62.7703C163.166 62.8229 163.127 62.8676 163.078 62.8997C163.029 62.9319 162.973 62.9502 162.914 62.9529L162.908 62.9867ZM159.838 57.9221L162.854 61.9792C164.037 59.6463 169.047 49.6861 169.473 48.4149C169.96 46.9475 169.737 44.3578 168.716 43.1744C168.128 43.0595 165.937 46.5554 164.037 50.7207C164.006 50.7914 163.951 50.8491 163.882 50.8837C163.813 50.9183 163.734 50.9276 163.658 50.91C163.582 50.8944 163.513 50.8529 163.464 50.7925C163.415 50.7322 163.388 50.6566 163.388 50.5787C163.388 48.4554 162.874 46.0685 162.346 45.7575C162.333 45.7476 162.316 45.7422 162.299 45.7422C162.282 45.7422 162.266 45.7476 162.252 45.7575C161.738 46.0482 161.778 48.0768 161.799 49.1384C161.838 49.6245 161.838 50.1129 161.799 50.599C161.643 51.5186 160.149 56.901 159.865 57.9221H159.838Z" fill="#231F20"/>
<path d="M149.823 145.569C149.823 145.569 145.611 155.185 146.923 155.84C148.234 156.496 161.582 160.865 161.467 159.992C161.352 159.12 154.07 154.035 154.07 154.035L157.417 145.569H149.823Z" fill="#231F20"/>
<path d="M161.204 160.418C158.641 160.418 146.889 156.199 146.774 156.145C146.179 155.841 145.74 154.055 149.513 145.434C149.538 145.373 149.582 145.321 149.637 145.285C149.693 145.249 149.758 145.23 149.824 145.231H157.417C157.472 145.231 157.526 145.245 157.575 145.271C157.623 145.297 157.664 145.334 157.695 145.38C157.728 145.424 157.749 145.476 157.754 145.531C157.76 145.586 157.751 145.641 157.728 145.691L154.483 153.913C156.809 155.543 161.684 159.052 161.806 159.945C161.816 160.02 161.805 160.097 161.774 160.166C161.743 160.236 161.693 160.295 161.63 160.337C161.498 160.403 161.351 160.431 161.204 160.418ZM150.06 145.907C147.978 150.702 146.625 155.09 147.099 155.543C148.492 156.219 158.729 159.512 160.947 159.763C160.102 158.85 156.89 156.422 153.888 154.312C153.825 154.27 153.779 154.207 153.758 154.134C153.737 154.061 153.742 153.983 153.773 153.913L156.93 145.907H150.06Z" fill="#231F20"/>
<path d="M128.348 164.638C128.51 165.131 128.51 173.158 128.348 175.126C128.185 177.093 135.069 188.264 137.212 186.114C139.356 183.963 135.569 174.47 135.569 174.47L136.245 163.651L128.348 164.638Z" fill="#231F20"/>
<path d="M136.536 186.715C136.245 186.709 135.959 186.639 135.698 186.513C132.776 185.16 127.847 176.931 127.996 175.098C128.165 173.07 128.145 165.267 127.996 164.739C127.974 164.642 127.991 164.54 128.043 164.455C128.07 164.414 128.104 164.379 128.145 164.353C128.186 164.326 128.232 164.308 128.28 164.3L136.184 163.319C136.233 163.312 136.283 163.317 136.33 163.332C136.377 163.347 136.42 163.373 136.455 163.407C136.492 163.441 136.521 163.483 136.54 163.53C136.558 163.577 136.566 163.627 136.563 163.678L135.887 174.416C136.394 175.7 139.613 184.173 137.429 186.35C137.313 186.469 137.174 186.563 137.02 186.626C136.867 186.688 136.702 186.719 136.536 186.715ZM128.706 164.929C128.841 166.721 128.807 173.509 128.672 175.159C128.55 176.586 133.223 184.626 135.982 185.897C136.556 186.161 136.807 186.012 136.949 185.897C138.565 184.281 136.272 177.208 135.224 174.625C135.211 174.576 135.211 174.525 135.224 174.476L135.9 164.063L128.706 164.929Z" fill="#231F20"/>
<path d="M118.801 65.1234C112.627 63.3653 101.754 66.8747 95.134 73.001C89.8733 77.8898 99.8673 101.076 104.858 112.896L134.961 103.909C134.961 103.909 124.967 66.8883 118.801 65.1234Z" fill="#148532"/>
<path d="M134.974 103.903C134.974 103.903 165.612 113.207 166.207 119.854C166.803 126.501 157.884 150.154 157.884 150.154L147.524 148.369C147.524 148.369 156.41 123.573 152.204 121.7C147.998 119.827 130.951 116.588 130.951 116.588C130.951 116.588 132.709 130.7 135.813 140.221C138.917 149.741 137.74 166.741 137.74 166.741L126.921 168.519C126.921 168.519 126.515 146.651 121.958 136.664C117.4 126.677 104.871 112.869 104.871 112.869L134.974 103.903Z" fill="#231F20"/>
<path d="M126.921 168.878C126.843 168.878 126.767 168.851 126.705 168.803C126.667 168.772 126.636 168.733 126.614 168.689C126.593 168.644 126.583 168.595 126.583 168.546C126.583 168.33 126.13 146.631 121.647 136.826C117.164 127.022 104.742 113.254 104.621 113.112C104.581 113.071 104.553 113.02 104.54 112.964C104.527 112.908 104.529 112.849 104.546 112.795C104.561 112.741 104.589 112.691 104.628 112.651C104.667 112.611 104.716 112.581 104.769 112.565L134.88 103.578C134.942 103.558 135.008 103.558 135.069 103.578C136.334 103.957 165.904 113.045 166.546 119.807C167.175 126.474 158.567 149.295 158.195 150.235C158.168 150.308 158.115 150.369 158.047 150.408C157.979 150.446 157.9 150.459 157.823 150.445L147.464 148.646C147.415 148.638 147.368 148.619 147.327 148.591C147.287 148.563 147.252 148.527 147.227 148.484C147.207 148.439 147.197 148.391 147.197 148.342C147.197 148.293 147.207 148.244 147.227 148.2C153.644 130.267 153.644 122.674 152.089 121.998C148.35 120.334 134.109 117.555 131.371 117.034C131.702 119.543 133.399 131.721 136.151 140.146C139.241 149.613 138.105 166.626 138.099 166.795C138.092 166.871 138.061 166.943 138.01 166.999C137.958 167.055 137.89 167.093 137.815 167.106L126.996 168.884L126.921 168.878ZM105.473 113.058C107.555 115.405 118.165 127.576 122.262 136.542C126.468 145.745 127.165 165.145 127.246 168.147L137.389 166.477C137.524 164.273 138.302 149.052 135.462 140.349C132.385 130.883 130.607 116.791 130.586 116.683C130.58 116.629 130.586 116.575 130.605 116.524C130.624 116.474 130.655 116.428 130.694 116.392C130.733 116.356 130.779 116.33 130.83 116.316C130.88 116.301 130.934 116.3 130.985 116.311C131.661 116.439 148.12 119.536 152.312 121.409C154.26 122.275 154.07 127.001 151.737 135.846C150.297 141.316 148.451 146.665 147.951 148.125L157.634 149.809C158.607 147.206 166.424 126.055 165.843 119.915C165.674 118.109 162.82 114.877 150.202 109.725C143.042 106.804 135.861 104.565 134.948 104.315L105.473 113.058Z" fill="#231F20"/>
<path d="M94.5518 50.3623C94.9431 50.2883 95.348 50.3553 95.6946 50.5516C94.9508 48.9152 96.4654 47.6508 97.4459 46.6094C97.9865 46.0158 98.6503 45.5472 99.3907 45.2366C100.131 44.9259 100.93 44.7806 101.733 44.8108C103.648 44.9794 105.49 45.6282 107.088 46.6973C108.441 47.475 109.888 48.3878 111.369 47.9821C111.805 47.8033 112.258 47.6674 112.721 47.5764C113.188 47.5358 113.742 47.8198 113.749 48.2931C113.732 48.5465 113.627 48.7858 113.451 48.9693C112.981 49.5558 112.375 50.0197 111.686 50.3217C112.024 50.8694 112.795 50.8829 113.438 50.8356L115.466 50.6869C115.845 50.6869 116.325 50.6868 116.467 51.0385C116.521 51.2398 116.499 51.4539 116.406 51.6403C115.892 53.0117 114.969 54.192 113.762 55.0212C114.754 55.2427 115.792 55.1036 116.69 54.629C116.913 57.5366 114.763 60.2143 112.146 61.5261C109.514 62.7248 106.637 63.2877 103.748 63.1693C101.598 63.1152 98.8659 63.6358 96.9861 62.1888C94.6705 60.3682 93.0808 57.781 92.503 54.8927C92.205 53.7887 92.308 52.6147 92.7937 51.5794C92.9786 51.2592 93.2322 50.984 93.5362 50.7736C93.8402 50.5631 94.187 50.4226 94.5518 50.3623Z" fill="white"/>
<path d="M100.996 63.5547C99.5154 63.5547 98.0008 63.3924 96.8039 62.4592C94.4235 60.5849 92.7886 57.924 92.1923 54.9536C91.8693 53.7714 91.987 52.5121 92.5237 51.4104C92.7352 51.0554 93.0213 50.7507 93.3623 50.5172C93.7032 50.2837 94.0907 50.127 94.4981 50.058C94.7223 50.0255 94.9501 50.0255 95.1743 50.058C94.9647 48.7056 96.0466 47.5967 96.858 46.7582L97.1893 46.4201C97.7611 45.7909 98.4634 45.2943 99.2471 44.9649C100.031 44.6356 100.877 44.4814 101.727 44.5132C103.698 44.6904 105.594 45.355 107.244 46.4471L107.346 46.5012C108.57 47.2315 109.963 48.0497 111.261 47.6981C111.423 47.6508 111.572 47.5967 111.727 47.5358C112.026 47.4028 112.343 47.3162 112.667 47.2789C112.858 47.2632 113.05 47.2856 113.233 47.3448C113.415 47.404 113.584 47.4988 113.729 47.6237C113.827 47.7083 113.907 47.8118 113.964 47.928C114.021 48.0442 114.053 48.1707 114.06 48.2999C114.049 48.6348 113.917 48.9542 113.688 49.1992C113.289 49.6794 112.806 50.0827 112.262 50.3893C112.623 50.5077 113.008 50.5401 113.384 50.484L115.413 50.3352C116.089 50.2811 116.576 50.4705 116.765 50.9032C116.851 51.1804 116.83 51.4799 116.704 51.7417C116.27 52.92 115.544 53.9692 114.594 54.7913C115.262 54.8029 115.922 54.6471 116.515 54.3382C116.564 54.3124 116.619 54.2992 116.675 54.2997C116.73 54.3002 116.785 54.3145 116.834 54.3413C116.883 54.368 116.924 54.4065 116.955 54.4531C116.985 54.4998 117.004 54.5532 117.008 54.6087C117.259 57.8409 114.818 60.5659 112.275 61.8371C109.596 63.0645 106.666 63.6436 103.721 63.5276C103.248 63.5276 102.748 63.5276 102.234 63.5276C101.72 63.5276 101.422 63.5547 100.996 63.5547ZM94.6063 50.7071C94.2961 50.7628 94.0017 50.8854 93.7436 51.0664C93.4855 51.2474 93.27 51.4825 93.1119 51.7552C92.659 52.7189 92.5678 53.8133 92.855 54.8386C93.4182 57.6486 94.9645 60.1659 97.2164 61.9386C98.5688 62.9867 100.428 62.9258 102.227 62.865C102.761 62.865 103.275 62.865 103.762 62.865C106.595 62.9863 109.416 62.43 111.991 61.2421C114.189 60.1399 116.319 57.8612 116.359 55.1564C115.498 55.4927 114.557 55.5656 113.654 55.366C113.591 55.3496 113.533 55.3155 113.487 55.2677C113.442 55.2199 113.411 55.1602 113.398 55.0956C113.388 55.0306 113.396 54.9643 113.421 54.9036C113.446 54.843 113.487 54.7901 113.54 54.7507C114.693 53.9571 115.576 52.8291 116.068 51.5185C116.119 51.4061 116.14 51.2828 116.129 51.1602C116.082 51.0452 115.832 50.9911 115.453 51.0182L113.425 51.1669C112.694 51.221 111.795 51.1669 111.396 50.4907C111.372 50.4491 111.357 50.4032 111.351 50.3555C111.345 50.3079 111.349 50.2596 111.362 50.2135C111.378 50.1677 111.403 50.1256 111.436 50.0896C111.468 50.0537 111.508 50.0245 111.552 50.0039C112.189 49.7328 112.751 49.3104 113.188 48.7732C113.31 48.6536 113.389 48.4965 113.411 48.3269C113.41 48.2852 113.399 48.2443 113.381 48.207C113.362 48.1696 113.335 48.1367 113.303 48.1106C113.145 47.9879 112.948 47.9277 112.748 47.9415C112.49 47.9783 112.238 48.0488 111.998 48.1511C111.825 48.221 111.649 48.282 111.47 48.3337C109.888 48.7665 108.367 47.8671 107.028 47.0692L106.926 47.0151C105.375 45.9809 103.59 45.3489 101.733 45.1759C100.98 45.148 100.23 45.2848 99.5349 45.5767C98.84 45.8687 98.2172 46.3088 97.71 46.8664L97.3719 47.218C96.4253 48.1849 95.4515 49.1857 96.0195 50.4366C96.0485 50.5023 96.0563 50.5754 96.0417 50.6457C96.0272 50.716 95.9911 50.78 95.9384 50.8288C95.8865 50.8777 95.8201 50.9082 95.7492 50.9155C95.6783 50.9228 95.607 50.9066 95.5462 50.8694C95.263 50.7168 94.9366 50.6644 94.6198 50.7206L94.6063 50.7071Z" fill="#231F20"/>
<path d="M110.165 65.874L112.511 71.2226C112.511 71.2226 111.517 75.158 107.609 75.0431C103.7 74.9281 102.47 72.2234 102.463 72.2166L100.833 66.2729L99.8257 62.6215C99.6686 62.2643 99.5638 61.8862 99.5146 61.499C99.6093 60.6132 100.597 59.9776 100.759 59.0513C101.081 57.1978 100.681 55.2916 99.6431 53.7229C101.442 54.7372 103.47 55.7515 105.479 55.2714C104.99 54.9098 104.537 54.5022 104.126 54.0542L108.339 54.8251C108.882 54.9112 109.432 54.9519 109.982 54.9468C110.604 54.9468 110.3 54.6222 110.861 55.2714C112.268 56.8942 112.923 59.8965 113.038 61.9791C113.18 64.9679 110.165 65.874 110.165 65.874Z" fill="white"/>
<path d="M107.744 75.3948H107.568C103.383 75.2731 102.118 72.3519 102.112 72.3249L99.4745 62.723C99.4455 62.6245 99.4117 62.5274 99.373 62.4323C99.2286 62.1326 99.1525 61.8047 99.1499 61.4721C99.249 60.9564 99.4822 60.476 99.8261 60.0791C100.096 59.7684 100.292 59.4009 100.401 59.004C100.711 57.2365 100.333 55.4174 99.346 53.9191C99.2982 53.861 99.272 53.7881 99.272 53.7128C99.272 53.6376 99.2982 53.5647 99.346 53.5066C99.3972 53.4507 99.4657 53.4137 99.5405 53.4014C99.6153 53.3892 99.6921 53.4024 99.7585 53.439C101.239 54.2842 102.93 55.1362 104.613 55.0551C104.338 54.82 104.078 54.567 103.836 54.2977C103.786 54.2467 103.754 54.1806 103.746 54.1097C103.737 54.0388 103.752 53.967 103.789 53.9056C103.823 53.8445 103.875 53.7955 103.938 53.7652C104 53.7349 104.071 53.7249 104.14 53.7365L108.36 54.5074C108.87 54.5849 109.385 54.6233 109.901 54.6223C110.007 54.6319 110.113 54.6181 110.212 54.5818C110.557 54.46 110.686 54.5818 111.037 55.0145C112.559 56.7726 113.221 59.8492 113.336 61.9725C113.472 64.5352 111.409 65.705 110.557 66.0702L112.768 71.101C112.788 71.174 112.788 71.2511 112.768 71.3241C112.802 71.3647 111.734 75.3948 107.744 75.3948ZM102.761 72.1356C102.761 72.1356 103.951 74.6172 107.589 74.7186H107.744C110.902 74.7186 111.943 71.8718 112.126 71.2633L109.827 66.0228C109.807 65.9794 109.796 65.9321 109.796 65.8842C109.796 65.8363 109.807 65.7891 109.827 65.7456C109.848 65.7025 109.877 65.6641 109.913 65.6327C109.949 65.6013 109.991 65.5776 110.037 65.563C110.151 65.5292 112.829 64.6772 112.687 62.0063C112.572 59.8357 111.876 56.9822 110.591 55.5081C110.483 55.3796 110.422 55.2985 110.375 55.2512C110.239 55.2822 110.101 55.2981 109.962 55.2985C109.394 55.3026 108.826 55.2596 108.265 55.17L105.141 54.602L105.655 55.0145C105.707 55.0518 105.748 55.1038 105.771 55.164C105.793 55.2242 105.798 55.2899 105.783 55.3526C105.77 55.4155 105.74 55.4735 105.696 55.5201C105.652 55.5667 105.595 55.6 105.533 55.6163C103.775 56.022 102.044 55.3932 100.482 54.5885C101.131 56.007 101.334 57.5893 101.064 59.1257C100.943 59.6218 100.712 60.0841 100.387 60.4781C100.116 60.7816 99.9279 61.1494 99.8396 61.5465C99.8608 61.78 99.9202 62.0084 100.015 62.2227C100.063 62.3396 100.104 62.4593 100.137 62.581L102.774 72.1694L102.761 72.1356Z" fill="#231F20"/>
<path d="M111.369 68.7005C110.754 68.9603 110.086 69.0665 109.422 69.0099C108.757 68.9534 108.116 68.7357 107.555 68.3759C105.58 67.1452 105.432 65.7928 105.432 65.7928C106.938 66.4341 108.634 66.468 110.165 65.8875L111.369 68.7005Z" fill="#231F20"/>
<path d="M109.766 69.363C108.923 69.367 108.095 69.1326 107.379 68.6869C105.29 67.3818 105.101 65.9145 105.094 65.8469C105.088 65.7875 105.098 65.7277 105.123 65.6736C105.148 65.6194 105.187 65.5728 105.236 65.5385C105.284 65.5041 105.341 65.4833 105.401 65.4781C105.46 65.4729 105.52 65.4835 105.574 65.5088C106.986 66.0981 108.569 66.1295 110.003 65.5967C110.085 65.5626 110.176 65.562 110.259 65.5948C110.341 65.6277 110.407 65.6915 110.442 65.7725L111.68 68.5854C111.715 68.6655 111.717 68.7559 111.687 68.8379C111.657 68.9198 111.596 68.9868 111.518 69.025C110.964 69.2578 110.367 69.373 109.766 69.363ZM105.993 66.354C106.411 67.077 107.013 67.6766 107.738 68.0918C108.205 68.3917 108.733 68.5848 109.283 68.6573C109.834 68.7298 110.394 68.6798 110.923 68.511L109.956 66.3202C108.67 66.7415 107.286 66.7533 105.993 66.354Z" fill="#231F20"/>
<path d="M107.325 57.6921C107.325 57.6921 109.976 60.0994 109.645 60.7215C109.313 61.3435 107.941 61.3233 107.941 61.3233" fill="white"/>
<path d="M107.954 61.6614C107.91 61.6614 107.866 61.6527 107.826 61.6356C107.785 61.6185 107.748 61.5935 107.717 61.562C107.687 61.5305 107.662 61.4932 107.646 61.4522C107.63 61.4112 107.622 61.3674 107.623 61.3233C107.623 61.2337 107.658 61.1477 107.722 61.0843C107.785 61.0209 107.871 60.9852 107.961 60.9852C108.434 60.9852 109.192 60.85 109.354 60.5593C109.354 60.2753 108.312 59.0446 107.102 57.9424C107.042 57.8809 107.007 57.7986 107.005 57.7124C107.004 57.6262 107.035 57.5426 107.093 57.4787C107.151 57.4148 107.231 57.3754 107.317 57.3686C107.403 57.3618 107.488 57.3881 107.555 57.442C108.86 58.6254 110.328 60.1468 109.949 60.8771C109.57 61.6073 108.184 61.6614 107.954 61.6614Z" fill="#231F20"/>
<path d="M106.139 58.5371C106.408 58.4941 106.577 58.1513 106.516 57.7714C106.456 57.3916 106.188 57.1186 105.919 57.1616C105.65 57.2046 105.481 57.5474 105.542 57.9272C105.602 58.3071 105.87 58.5801 106.139 58.5371Z" fill="#231F20"/>
<path d="M110.547 57.1989C110.791 57.0785 110.852 56.7012 110.682 56.3561C110.512 56.011 110.176 55.8288 109.932 55.9492C109.687 56.0696 109.626 56.447 109.796 56.7921C109.966 57.1372 110.302 57.3194 110.547 57.1989Z" fill="#231F20"/>
<path d="M107.961 63.9469C107.196 63.9302 106.446 63.7283 105.777 63.3586C105.697 63.3181 105.637 63.2477 105.609 63.1628C105.581 63.0779 105.588 62.9854 105.628 62.9056C105.647 62.8655 105.674 62.8297 105.708 62.8004C105.741 62.7711 105.78 62.7489 105.823 62.735C105.865 62.7211 105.91 62.7159 105.954 62.7196C105.998 62.7234 106.041 62.736 106.081 62.7568C109.137 64.3323 110.632 61.7763 110.692 61.6681C110.739 61.5952 110.812 61.5429 110.895 61.5219C110.979 61.501 111.068 61.5129 111.143 61.5554C111.219 61.5978 111.275 61.6675 111.3 61.7501C111.326 61.8327 111.319 61.9219 111.281 61.9995C110.929 62.5711 110.442 63.0477 109.864 63.3873C109.285 63.7268 108.631 63.919 107.961 63.9469Z" fill="#231F20"/>
<path d="M101.03 60.7621C100.766 60.5823 100.47 60.4562 100.158 60.3913C99.8458 60.3263 99.5239 60.3236 99.2107 60.3834C98.899 60.4496 98.6128 60.6039 98.3862 60.8281C98.1596 61.0523 98.0022 61.3368 97.9328 61.6479C97.9044 62.0071 97.9692 62.3676 98.1208 62.6945C98.2724 63.0214 98.5058 63.3037 98.7983 63.5141C99.2205 63.8633 99.7113 64.1201 100.239 64.268C100.766 64.4159 101.319 64.4517 101.861 64.3729" fill="white"/>
<path d="M101.287 64.7515C100.3 64.749 99.3442 64.405 98.5821 63.7778C98.242 63.53 97.973 63.1972 97.8021 62.8127C97.6312 62.4281 97.5644 62.0055 97.6084 61.587C97.6925 61.212 97.8815 60.8687 98.1532 60.5969C98.425 60.3252 98.7683 60.1362 99.1433 60.052C99.5003 59.9819 99.8676 59.9835 100.224 60.0567C100.58 60.1298 100.919 60.273 101.219 60.478C101.295 60.5278 101.348 60.6053 101.367 60.6939C101.386 60.7825 101.369 60.8749 101.321 60.9514C101.27 61.0259 101.192 61.0776 101.103 61.0953C101.015 61.113 100.923 61.0953 100.847 61.046C100.624 60.8889 100.371 60.7786 100.103 60.7216C99.8362 60.6647 99.5602 60.6623 99.2921 60.7147C99.0447 60.7631 98.8167 60.8821 98.6355 61.0572C98.4543 61.2324 98.3277 61.4563 98.271 61.7019C98.2569 62.0031 98.3181 62.3031 98.4491 62.5747C98.5802 62.8463 98.777 63.0808 99.0216 63.2572C99.4059 63.5763 99.8535 63.8106 100.335 63.9446C100.816 64.0786 101.32 64.1094 101.814 64.0348C101.904 64.0228 101.994 64.0457 102.067 64.0985C102.14 64.1513 102.19 64.2302 102.206 64.3188C102.218 64.4073 102.195 64.4969 102.142 64.5688C102.089 64.6407 102.01 64.6892 101.922 64.7042C101.712 64.7371 101.5 64.753 101.287 64.7515Z" fill="#231F20"/>
<path d="M109.82 74.5968L108.731 76.8823L110.246 77.3218C110.246 77.3218 118.428 99.8997 135.941 95.775L140.492 89.8448L134.332 87.4376C134.332 87.4376 131.316 89.98 125.541 88.5127C118.739 86.7817 111.342 77.119 111.342 77.119L111.659 75.2054L109.82 74.5968Z" fill="#231F20"/>
<path d="M131.803 96.6135C117.806 96.6135 110.74 79.4654 110.016 77.5991L108.664 77.2069C108.616 77.1932 108.572 77.1691 108.535 77.1364C108.497 77.1036 108.468 77.0631 108.448 77.0176C108.427 76.9729 108.417 76.9245 108.417 76.8756C108.417 76.8266 108.427 76.7782 108.448 76.7336L109.536 74.4548C109.569 74.3797 109.629 74.3198 109.705 74.2871C109.78 74.2545 109.865 74.2516 109.942 74.279L111.815 74.8876C111.891 74.9137 111.956 74.9663 111.996 75.0357C112.037 75.1051 112.052 75.1869 112.038 75.2662L111.747 77.0243C112.606 78.113 119.463 86.6059 125.677 88.1882C131.174 89.5879 134.122 87.2009 134.149 87.1806C134.196 87.1418 134.251 87.1158 134.31 87.1051C134.37 87.0944 134.431 87.0995 134.488 87.1198L140.654 89.527C140.702 89.5468 140.744 89.5772 140.778 89.6159C140.812 89.6546 140.837 89.7005 140.85 89.7502C140.866 89.8005 140.869 89.8537 140.859 89.9054C140.85 89.9572 140.828 90.0059 140.796 90.0477L136.239 95.9846C136.19 96.0444 136.124 96.0871 136.05 96.1063C134.658 96.4374 133.233 96.6076 131.803 96.6135ZM109.205 76.693L110.341 77.0311C110.392 77.0432 110.44 77.0682 110.479 77.1037C110.518 77.1391 110.547 77.184 110.564 77.2339C110.645 77.4571 118.814 99.3791 135.759 95.491L139.971 90.0071L134.4 87.8298C133.683 88.3504 130.667 90.1762 125.487 88.8576C118.651 87.113 111.409 77.7343 111.105 77.3624C111.076 77.3255 111.055 77.2831 111.043 77.2377C111.032 77.1923 111.03 77.1449 111.037 77.0987L111.308 75.4759L109.996 75.0499L109.205 76.693Z" fill="#231F20"/>
<path d="M105.432 61.2084C104.871 61.2098 104.322 61.0446 103.855 60.7338C103.388 60.423 103.024 59.9805 102.809 59.4626C102.593 58.9446 102.537 58.3744 102.646 57.8241C102.755 57.2739 103.025 56.7685 103.422 56.3718C103.818 55.9752 104.324 55.7052 104.874 55.5961C105.424 55.487 105.994 55.5437 106.512 55.759C107.03 55.9742 107.473 56.3384 107.784 56.8054C108.094 57.2723 108.26 57.821 108.258 58.382C108.256 59.131 107.958 59.8489 107.428 60.3786C106.899 60.9083 106.181 61.2066 105.432 61.2084ZM105.432 56.2249C105.005 56.2236 104.587 56.349 104.232 56.5852C103.876 56.8214 103.598 57.1578 103.434 57.5518C103.27 57.9458 103.226 58.3798 103.309 58.7986C103.391 59.2175 103.596 59.6025 103.897 59.9048C104.199 60.2072 104.583 60.4133 105.002 60.497C105.42 60.5808 105.854 60.5385 106.249 60.3754C106.643 60.2124 106.981 59.9359 107.218 59.5811C107.455 59.2262 107.582 58.8089 107.582 58.382C107.582 57.8111 107.356 57.2634 106.953 56.8591C106.55 56.4548 106.003 56.2267 105.432 56.2249Z" fill="#231F20"/>
<path d="M109.942 59.6192C109.382 59.6192 108.834 59.453 108.368 59.1417C107.902 58.8304 107.539 58.3879 107.325 57.8702C107.11 57.3525 107.054 56.7828 107.163 56.2332C107.273 55.6837 107.542 55.1788 107.939 54.7826C108.335 54.3864 108.84 54.1165 109.389 54.0072C109.939 53.8979 110.509 53.954 111.026 54.1684C111.544 54.3829 111.987 54.746 112.298 55.2119C112.609 55.6779 112.775 56.2256 112.775 56.786C112.775 57.5374 112.477 58.258 111.945 58.7894C111.414 59.3207 110.694 59.6192 109.942 59.6192ZM109.942 54.6357C109.515 54.6357 109.098 54.7624 108.743 54.9997C108.388 55.237 108.112 55.5743 107.949 55.9689C107.786 56.3634 107.743 56.7974 107.827 57.2161C107.911 57.6347 108.117 58.019 108.419 58.3204C108.722 58.6218 109.107 58.8267 109.525 58.9092C109.944 58.9916 110.378 58.9479 110.772 58.7836C111.166 58.6193 111.503 58.3418 111.739 57.9862C111.975 57.6306 112.1 57.2129 112.099 56.786C112.097 56.2151 111.869 55.6682 111.465 55.2651C111.061 54.862 110.513 54.6357 109.942 54.6357Z" fill="#231F20"/>
<path d="M100.239 60.7484C100.149 60.7628 100.057 60.7409 99.9839 60.6876C99.9103 60.6344 99.8609 60.5541 99.8466 60.4644C99.8322 60.3748 99.8541 60.2831 99.9074 60.2095C99.9606 60.136 100.041 60.0866 100.131 60.0722L102.835 59.1661C102.925 59.1383 103.022 59.1473 103.105 59.1911C103.188 59.2348 103.25 59.3098 103.278 59.3994C103.306 59.4891 103.297 59.5861 103.253 59.6692C103.21 59.7523 103.135 59.8145 103.045 59.8423L100.34 60.7417C100.307 60.7496 100.273 60.7519 100.239 60.7484Z" fill="#231F20"/>
<path d="M171.022 34.9385C171.022 34.9385 170.65 34.6748 170.096 34.33C170.096 34.33 169.474 35.5606 169.46 35.5133C169.447 35.4659 171.022 34.9385 171.022 34.9385Z" fill="#231F20"/>
<path d="M169.5 35.8581H169.413C169.344 35.8517 169.279 35.8242 169.227 35.7794C169.175 35.7345 169.138 35.6746 169.122 35.6079C169.081 35.4524 169.061 35.3645 169.216 35.2563C169.372 35.1481 169.568 34.5801 169.784 34.1879C169.804 34.1451 169.834 34.1072 169.87 34.0769C169.906 34.0465 169.948 34.0244 169.994 34.0121C170.038 33.9984 170.085 33.9949 170.131 34.002C170.176 34.009 170.22 34.0263 170.258 34.0527C170.826 34.3975 171.204 34.668 171.204 34.668C171.257 34.7027 171.299 34.7517 171.325 34.8094C171.351 34.8671 171.36 34.9311 171.351 34.9936C171.341 35.0562 171.315 35.1148 171.273 35.1626C171.232 35.2103 171.177 35.2452 171.117 35.2631C170.528 35.4659 169.872 35.6958 169.669 35.7837C169.649 35.8086 169.623 35.8283 169.594 35.8413C169.565 35.8542 169.532 35.86 169.5 35.8581ZM170.217 34.8168V34.8573H170.271L170.217 34.8168Z" fill="#231F20"/>
<path d="M165.247 56.3465L164.348 55.7649L164.727 54.8115L165.247 56.3465Z" fill="#231F20"/>
<path d="M165.254 56.6846C165.187 56.6867 165.12 56.6678 165.064 56.6305L164.165 56.049C164.1 56.0073 164.051 55.9437 164.027 55.8695C164.004 55.7953 164.007 55.7153 164.037 55.6433L164.415 54.6899C164.443 54.6268 164.489 54.573 164.546 54.5347C164.604 54.4964 164.671 54.4752 164.74 54.4735C164.809 54.4763 164.875 54.4998 164.931 54.5408C164.986 54.5817 165.028 54.6384 165.051 54.7034L165.572 56.2384C165.595 56.3055 165.596 56.3783 165.575 56.4463C165.555 56.5142 165.513 56.574 165.457 56.617C165.398 56.6614 165.327 56.6851 165.254 56.6846Z" fill="#231F20"/>
<path d="M165.66 56.3601L174.173 53.5742C174.347 53.5168 174.496 53.3984 174.59 53.2406C174.684 53.0829 174.719 52.8964 174.687 52.7154L171.211 35.2766C171.197 35.1942 171.164 35.1163 171.115 35.0488C171.066 34.9812 171.002 34.926 170.928 34.8874C170.854 34.8487 170.772 34.8277 170.689 34.826C170.605 34.8243 170.523 34.842 170.447 34.8776L162.008 38.218C161.844 38.2905 161.708 38.4155 161.623 38.5733C161.537 38.7312 161.506 38.913 161.535 39.0902L164.916 55.9341C164.928 56.0155 164.959 56.0931 165.006 56.161C165.052 56.2289 165.114 56.2855 165.185 56.3264C165.256 56.3673 165.336 56.3916 165.418 56.3975C165.501 56.4033 165.583 56.3905 165.66 56.3601Z" fill="#231F20"/>
<path d="M165.47 56.7319C165.313 56.7326 165.159 56.6905 165.024 56.6102C164.914 56.5446 164.819 56.4564 164.745 56.3515C164.672 56.2466 164.622 56.1274 164.598 56.0016L161.217 39.1578C161.17 38.9035 161.212 38.6409 161.335 38.4134C161.458 38.186 161.655 38.0073 161.893 37.9068L170.332 34.5259C170.457 34.4742 170.592 34.4505 170.728 34.4563C170.863 34.4621 170.996 34.4974 171.116 34.5597C171.23 34.6242 171.328 34.7127 171.404 34.8189C171.48 34.9252 171.531 35.0467 171.556 35.175L175.031 52.6139C175.081 52.8763 175.033 53.1478 174.898 53.3779C174.762 53.608 174.548 53.781 174.294 53.8648L165.774 56.6507C165.679 56.696 165.575 56.7235 165.47 56.7319ZM170.683 35.1683H170.568L162.13 38.5492C162.039 38.5916 161.965 38.6617 161.918 38.7493C161.87 38.8369 161.852 38.9374 161.866 39.0361L165.247 55.8799C165.251 55.9123 165.262 55.9435 165.28 55.9709C165.298 55.9983 165.322 56.0214 165.35 56.0383C165.378 56.0552 165.409 56.0656 165.442 56.0686C165.474 56.0716 165.507 56.0672 165.538 56.0557L174.058 53.2698C174.152 53.2352 174.231 53.1694 174.283 53.0833C174.335 52.9972 174.355 52.8959 174.342 52.7965L170.866 35.3576C170.863 35.3255 170.852 35.2946 170.834 35.2676C170.816 35.2405 170.793 35.2181 170.764 35.2021C170.74 35.1854 170.712 35.1739 170.683 35.1683Z" fill="#231F20"/>
<path d="M164.72 55.765L173.24 52.9791C173.412 52.9193 173.558 52.8001 173.651 52.6428C173.744 52.4855 173.778 52.3004 173.747 52.1204L170.278 34.6815C170.263 34.599 170.23 34.521 170.18 34.4535C170.13 34.386 170.065 34.3309 169.991 34.2924C169.916 34.2538 169.834 34.2329 169.75 34.2312C169.666 34.2295 169.583 34.2471 169.507 34.2826L161.068 37.6229C160.904 37.6947 160.768 37.8198 160.684 37.978C160.599 38.1363 160.57 38.3185 160.602 38.4952L163.983 55.339C163.996 55.4196 164.026 55.4963 164.072 55.5636C164.118 55.6309 164.179 55.687 164.25 55.7278C164.32 55.7686 164.399 55.7932 164.481 55.7996C164.562 55.806 164.644 55.7942 164.72 55.765Z" fill="white"/>
<path d="M164.531 56.1369C164.376 56.1374 164.224 56.0953 164.091 56.0152C163.98 55.95 163.884 55.8621 163.81 55.7572C163.735 55.6523 163.683 55.5329 163.658 55.4067L160.277 38.5628C160.231 38.3085 160.273 38.0459 160.395 37.8185C160.518 37.591 160.715 37.4123 160.953 37.3119L169.392 33.9648C169.514 33.908 169.647 33.8785 169.781 33.8785C169.915 33.8785 170.048 33.908 170.17 33.9648C170.285 34.0282 170.385 34.1162 170.462 34.2226C170.539 34.3289 170.592 34.451 170.616 34.5801L174.085 52.019C174.135 52.2814 174.087 52.5529 173.952 52.7829C173.816 53.013 173.602 53.1861 173.348 53.2699L164.828 56.0558C164.735 56.1009 164.634 56.1284 164.531 56.1369ZM169.744 34.5733C169.708 34.5669 169.672 34.5669 169.636 34.5733L161.197 37.9205C161.105 37.961 161.03 38.0308 160.982 38.1189C160.934 38.207 160.917 38.3084 160.933 38.4073L164.314 55.2511C164.32 55.2843 164.332 55.316 164.351 55.3439C164.369 55.3719 164.394 55.3956 164.422 55.4134C164.481 55.4371 164.546 55.4371 164.605 55.4134L173.125 52.6275C173.22 52.594 173.3 52.5284 173.352 52.442C173.404 52.3556 173.424 52.2538 173.409 52.1542L169.947 34.7694C169.942 34.7378 169.93 34.7075 169.913 34.6806C169.895 34.6538 169.872 34.631 169.845 34.6139C169.815 34.5931 169.78 34.5792 169.744 34.5733Z" fill="#231F20"/>
<path d="M168.107 53.3984L169.764 52.8575C169.87 52.8207 169.959 52.7474 170.016 52.6508C170.073 52.5542 170.094 52.4406 170.075 52.3301L169.94 51.6539C169.932 51.6034 169.913 51.5554 169.884 51.5132C169.856 51.471 169.818 51.4357 169.774 51.4098C169.73 51.3839 169.681 51.3681 169.63 51.3636C169.579 51.359 169.528 51.3658 169.48 51.3834L167.817 51.9379C167.714 51.9758 167.628 52.0489 167.573 52.1441C167.519 52.2393 167.5 52.3506 167.519 52.4585L167.648 53.1347C167.656 53.1845 167.676 53.2318 167.705 53.2732C167.734 53.3146 167.772 53.3492 167.816 53.3743C167.86 53.3995 167.908 53.4147 167.959 53.4189C168.009 53.423 168.06 53.4161 168.107 53.3984Z" fill="#E6E7E8"/>
<path d="M164.706 37.4201C164.689 37.4201 164.672 37.415 164.658 37.4053C164.643 37.3957 164.632 37.382 164.625 37.366C164.618 37.3453 164.619 37.3228 164.628 37.3028C164.637 37.2828 164.653 37.2668 164.673 37.2578L167.141 36.2841C167.162 36.2751 167.186 36.2751 167.208 36.284C167.229 36.2928 167.247 36.3099 167.256 36.3314C167.265 36.353 167.265 36.3772 167.256 36.3987C167.247 36.4203 167.23 36.4374 167.208 36.4464L164.733 37.4133L164.706 37.4201Z" fill="#E6E7E8"/>
<path d="M164.03 37.6838C164.008 37.6838 163.988 37.6752 163.972 37.66C163.957 37.6448 163.949 37.6241 163.949 37.6026C163.949 37.5811 163.957 37.5605 163.972 37.5452C163.988 37.53 164.008 37.5215 164.03 37.5215L164.354 37.393C164.375 37.3861 164.398 37.387 164.418 37.3958C164.438 37.4045 164.454 37.4204 164.463 37.4403C164.468 37.4503 164.471 37.4615 164.472 37.4729C164.472 37.4843 164.47 37.4957 164.466 37.5061C164.461 37.5166 164.454 37.5258 164.445 37.5332C164.437 37.5406 164.426 37.5458 164.415 37.5485L164.091 37.677L164.03 37.6838Z" fill="#E6E7E8"/>
<path d="M169.399 35.8784L161.785 39.043L164.632 52.4991L172.056 49.7943L169.399 35.8784Z" fill="#E6E7E8"/>
<path d="M83.7938 111.178C83.7126 111.584 83.8749 115.601 83.7938 116.338C83.6991 117.223 85.0515 118.048 85.4978 118.677C86.37 119.915 86.8907 121.652 87.4317 123.059C87.506 123.255 87.5737 123.498 87.4317 123.64C87.36 123.703 87.2698 123.741 87.1747 123.749C86.3159 123.864 85.6262 123.072 85.1123 122.396L83.7938 120.645C84.1251 121.105 83.361 124.371 83.2596 125.06C83.1677 126.243 82.9409 127.412 82.5834 128.543C81.9072 130.247 77.5458 130.024 77.0522 128.455C76.4504 126.548 75.4834 122.674 76.7411 118.927C76.66 117.393 75.7539 108.683 75.7539 108.683L83.7938 111.178Z" fill="white"/>
<path d="M79.8853 130.037H79.6757C78.5059 129.99 77.0318 129.571 76.7005 128.529C75.5645 124.905 75.4495 121.653 76.3691 118.86C76.2677 117.183 75.4022 108.778 75.3887 108.717C75.3857 108.661 75.3958 108.605 75.4181 108.553C75.4404 108.502 75.4743 108.456 75.5171 108.42C75.5611 108.387 75.6119 108.364 75.6657 108.354C75.7196 108.343 75.7751 108.345 75.8282 108.359L83.8613 110.901C83.9407 110.928 84.0077 110.982 84.05 111.054C84.0923 111.126 84.1069 111.211 84.0912 111.293C84.0574 111.469 84.0912 112.646 84.0912 113.626C84.0912 114.864 84.1318 116.027 84.0912 116.426C84.0506 116.825 84.6119 117.393 85.0649 117.825C85.3122 118.028 85.5387 118.254 85.7411 118.502C86.4335 119.602 86.9833 120.786 87.3775 122.025C87.4947 122.349 87.6096 122.66 87.7223 122.958C87.8056 123.105 87.8418 123.273 87.8261 123.441C87.8104 123.61 87.7435 123.769 87.6344 123.898C87.5138 124.015 87.356 124.087 87.1881 124.1C86.1536 124.249 85.3692 123.377 84.808 122.606L84.1318 121.72C84.0641 122.315 83.9221 123.147 83.6855 124.33C83.6246 124.668 83.5705 124.932 83.5435 125.081C83.5435 125.338 83.4759 125.595 83.4421 125.865C83.361 126.812 83.1634 127.746 82.8538 128.644C82.4413 129.679 81.0484 130.037 79.8853 130.037ZM76.119 109.15C76.315 111.05 76.9777 117.568 77.0521 118.901C77.0585 118.941 77.0585 118.982 77.0521 119.022C76.1731 121.653 76.2812 124.878 77.3699 128.34C77.5457 128.895 78.5329 129.327 79.7163 129.375C80.7779 129.408 81.9747 129.131 82.2655 128.408C82.5522 127.561 82.7361 126.682 82.8132 125.791C82.8132 125.52 82.8808 125.257 82.9214 124.993C82.9214 124.844 82.9958 124.56 83.0634 124.209C83.2324 123.384 83.6652 121.186 83.5029 120.828C83.4572 120.754 83.4415 120.666 83.4591 120.581C83.4766 120.496 83.5261 120.421 83.5972 120.372C83.6683 120.322 83.7557 120.302 83.8414 120.315C83.927 120.328 84.0043 120.374 84.0574 120.442L85.3557 122.227C85.8155 122.843 86.424 123.546 87.1002 123.451H87.1678C87.1678 123.451 87.1678 123.377 87.1002 123.235C86.9785 122.937 86.8636 122.62 86.7486 122.288C86.377 121.1 85.8568 119.964 85.2001 118.907C85.0251 118.687 84.8305 118.484 84.6186 118.299C84.0236 117.744 83.3542 117.109 83.4353 116.338C83.4759 115.986 83.4353 114.728 83.4353 113.633C83.4353 112.538 83.4353 111.834 83.4353 111.462L76.119 109.15Z" fill="#231F20"/>
<path d="M99.8869 69.4578C97.8583 71.1618 78.9251 79.1543 73.3533 87.6607C70.5201 91.9951 74.9897 116.358 74.9897 116.358L85.0717 114.397L85.2137 92.9214C86.3835 91.4609 99.4812 84.1648 99.4812 84.1648L99.8869 69.4578Z" fill="#148532"/>
<path d="M118.8 65.1235C118.8 65.1235 143.819 68.3692 146.672 67.409C149.526 66.4488 160.696 52.7493 160.696 52.7493L166.241 58.6659C166.241 58.6659 160.257 76.8688 152.17 78.7622C144.082 80.6555 121.356 78.7622 121.356 78.7622L118.8 65.1235Z" fill="#148532"/>
<path d="M85.2137 93.2459C85.1572 93.2452 85.1018 93.2307 85.0523 93.2036C85.0028 93.1765 84.9606 93.1376 84.9297 93.0904C84.9051 93.053 84.8884 93.011 84.8806 92.9669C84.8728 92.9228 84.8739 92.8776 84.8841 92.834C84.8942 92.7904 84.913 92.7493 84.9394 92.7132C84.9659 92.6771 84.9993 92.6467 85.0379 92.6239L101.679 82.1024C101.716 82.0779 101.758 82.0612 101.802 82.0533C101.846 82.0455 101.892 82.0467 101.935 82.0568C101.979 82.0669 102.02 82.0857 102.056 82.1122C102.092 82.1386 102.123 82.1721 102.145 82.2106C102.194 82.2859 102.21 82.3774 102.191 82.4648C102.172 82.5523 102.119 82.6286 102.044 82.6771L85.3962 93.1851C85.3426 93.2226 85.2791 93.2438 85.2137 93.2459Z" fill="#231F20"/>
<path d="M130.045 87.9921C129.973 87.993 129.903 87.9713 129.845 87.93C129.787 87.8887 129.743 87.8299 129.72 87.7622C129.497 87.086 122.336 68.7208 122.282 68.5382C122.262 68.4962 122.251 68.4506 122.25 68.4041C122.248 68.3576 122.256 68.3113 122.274 68.2681C122.291 68.2249 122.317 68.1857 122.35 68.1529C122.383 68.1202 122.422 68.0946 122.466 68.0778C122.509 68.0611 122.555 68.0534 122.602 68.0554C122.648 68.0573 122.694 68.0688 122.736 68.0892C122.777 68.1095 122.815 68.1383 122.845 68.1737C122.875 68.2091 122.898 68.2503 122.911 68.2948C123.209 69.0521 130.153 86.8697 130.383 87.5459C130.398 87.588 130.404 87.6327 130.402 87.6774C130.399 87.722 130.388 87.7657 130.368 87.806C130.349 87.8462 130.322 87.8822 130.288 87.9119C130.255 87.9415 130.216 87.9642 130.173 87.9786C130.132 87.9919 130.088 87.9965 130.045 87.9921Z" fill="#231F20"/>
<path d="M130.924 17.5131L115.771 14.3959C115.436 14.3268 115.091 14.3245 114.755 14.3891C114.419 14.4537 114.1 14.584 113.814 14.7725C113.529 14.961 113.284 15.2039 113.093 15.4874C112.902 15.7709 112.769 16.0893 112.701 16.4244L111.173 23.8625C111.104 24.1969 111.101 24.5416 111.166 24.8769C111.231 25.2122 111.361 25.5313 111.55 25.816C111.738 26.1007 111.981 26.3453 112.265 26.5357C112.548 26.7262 112.866 26.8587 113.201 26.9256L112.606 30.8881L116.217 27.5477L128.388 30.0496C128.723 30.1187 129.068 30.121 129.404 30.0563C129.74 29.9917 130.059 29.8614 130.345 29.6729C130.63 29.4845 130.875 29.2415 131.066 28.958C131.257 28.6746 131.39 28.3561 131.458 28.021L132.986 20.583C133.056 20.2457 133.058 19.898 132.991 19.56C132.925 19.2221 132.792 18.9008 132.6 18.615C132.408 18.3291 132.161 18.0844 131.873 17.8952C131.585 17.706 131.263 17.5761 130.924 17.5131Z" fill="white"/>
<path d="M112.579 31.2262C112.523 31.2257 112.467 31.2118 112.417 31.1856C112.356 31.1523 112.307 31.1017 112.276 31.0402C112.245 30.9787 112.233 30.9092 112.241 30.8408L112.796 27.1758C112.113 26.9476 111.538 26.478 111.178 25.8553C110.819 25.2326 110.699 24.4998 110.841 23.7949L112.37 16.3568C112.447 15.9768 112.598 15.6158 112.815 15.2944C113.032 14.973 113.31 14.6975 113.634 14.4838C113.955 14.27 114.315 14.1227 114.694 14.0507C115.072 13.9787 115.462 13.9834 115.838 14.0646L130.992 17.1886C131.369 17.2651 131.728 17.4155 132.047 17.6312C132.366 17.8469 132.64 18.1237 132.851 18.4454C133.063 18.7672 133.209 19.1277 133.281 19.5062C133.353 19.8846 133.349 20.2736 133.27 20.6506L131.736 28.0887C131.579 28.8507 131.127 29.5195 130.478 29.948C129.828 30.3766 129.036 30.5299 128.273 30.3742L116.291 27.9061L112.809 31.1315C112.747 31.1911 112.665 31.225 112.579 31.2262ZM115.243 14.6799C114.803 14.6771 114.372 14.8066 114.006 15.0518C113.753 15.2168 113.537 15.4313 113.369 15.6823C113.202 15.9334 113.087 16.2157 113.032 16.5124L111.518 23.9504C111.397 24.5339 111.512 25.1413 111.838 25.6403C112.163 26.1393 112.673 26.4895 113.255 26.6146C113.339 26.6326 113.413 26.6817 113.462 26.7519C113.511 26.8222 113.531 26.9085 113.519 26.9933L113.066 30.0091L115.974 27.3043C116.013 27.2679 116.061 27.241 116.112 27.2258C116.164 27.2105 116.218 27.2073 116.271 27.2164L128.442 29.7183C128.736 29.7836 129.039 29.7897 129.335 29.7363C129.63 29.683 129.912 29.5711 130.164 29.4074C130.416 29.2437 130.633 29.0314 130.802 28.7829C130.97 28.5344 131.088 28.2547 131.147 27.9602L132.675 20.5222C132.736 20.2317 132.738 19.9323 132.682 19.641C132.626 19.3497 132.513 19.0723 132.35 18.8247C132.187 18.5772 131.976 18.3643 131.73 18.1984C131.484 18.0325 131.208 17.9168 130.917 17.858L115.771 14.734C115.597 14.6983 115.421 14.6802 115.243 14.6799Z" fill="#231F20"/>
<path d="M128.658 23.4298H128.591L115.392 20.9076C115.304 20.8912 115.226 20.8407 115.175 20.7673C115.125 20.6938 115.105 20.6033 115.121 20.5154C115.139 20.4272 115.191 20.3495 115.265 20.2989C115.34 20.2484 115.431 20.229 115.52 20.245L128.719 22.7671C128.807 22.7851 128.885 22.837 128.936 22.9115C128.986 22.9861 129.006 23.0774 128.99 23.1661C128.973 23.2412 128.931 23.3083 128.87 23.3562C128.81 23.4042 128.735 23.4301 128.658 23.4298Z" fill="#D1D3D4"/>
<path d="M124.013 25.979H123.952L114.81 24.2345C114.766 24.2264 114.724 24.2096 114.687 24.1851C114.649 24.1605 114.617 24.1288 114.591 24.0917C114.566 24.0545 114.549 24.0128 114.54 23.9688C114.531 23.9248 114.531 23.8795 114.54 23.8355C114.548 23.7923 114.564 23.7511 114.589 23.7143C114.613 23.6776 114.644 23.646 114.681 23.6214C114.717 23.5969 114.758 23.5799 114.801 23.5713C114.844 23.5628 114.889 23.563 114.932 23.5718L124.081 25.3028C124.17 25.3118 124.253 25.356 124.31 25.4258C124.367 25.4955 124.394 25.5851 124.385 25.6747C124.376 25.7644 124.332 25.8468 124.262 25.9039C124.192 25.961 124.103 25.988 124.013 25.979Z" fill="#D1D3D4"/>
<path d="M57.1586 82.3933C57.1586 82.3933 39.9429 83.4549 35.4463 70.2896L38.151 104.64C38.151 104.64 41.7348 111.692 57.8551 113.234L57.1586 82.3933Z" fill="white"/>
<path d="M57.8616 113.572H57.8278C41.7075 112.03 38.002 105.093 37.8533 104.782C37.8432 104.739 37.8432 104.695 37.8533 104.653L35.1485 70.3029C35.1419 70.2205 35.1658 70.1384 35.2157 70.0724C35.2655 70.0063 35.3379 69.9608 35.419 69.9446C35.4996 69.9256 35.5844 69.9381 35.656 69.9796C35.7277 70.0211 35.7808 70.0884 35.8044 70.1677C40.1658 82.9409 57.0096 82.0551 57.1787 82.0415C57.2247 82.0386 57.2709 82.0456 57.314 82.0619C57.3571 82.0782 57.3963 82.1036 57.4289 82.1362C57.4939 82.1984 57.5326 82.283 57.5371 82.3729L58.2133 113.214C58.2119 113.31 58.1731 113.402 58.1051 113.471C58.039 113.533 57.9525 113.569 57.8616 113.572ZM38.4889 104.545C38.8608 105.181 42.8571 111.361 57.51 112.862L56.8338 82.7448C54.4807 82.7921 40.9976 82.6298 35.96 72.3924L38.4889 104.545Z" fill="#231F20"/>
<path d="M168.73 118.826L188.522 96.3563L210.37 111.645L185.053 138.625L168.73 118.826Z" fill="white"/>
<path d="M185.053 138.963C185.005 138.96 184.958 138.948 184.915 138.927C184.872 138.907 184.834 138.877 184.802 138.841L168.479 119.036C168.429 118.975 168.401 118.899 168.401 118.819C168.401 118.74 168.429 118.664 168.479 118.603L188.271 96.1334C188.328 96.072 188.405 96.0328 188.488 96.0229C188.571 96.013 188.655 96.0329 188.724 96.0793L210.572 111.368C210.612 111.396 210.645 111.432 210.669 111.474C210.694 111.516 210.709 111.563 210.714 111.611C210.72 111.659 210.715 111.708 210.7 111.753C210.685 111.799 210.66 111.841 210.626 111.875L185.303 138.855C185.271 138.889 185.232 138.917 185.189 138.935C185.146 138.954 185.099 138.963 185.053 138.963ZM169.176 118.833L185.066 138.111L209.855 111.699L188.575 96.8231L169.176 118.833Z" fill="#231F20"/>
<path d="M195.06 105.897C194.981 105.897 194.904 105.868 194.844 105.816L188.305 100.359C188.237 100.303 188.193 100.221 188.184 100.132C188.175 100.044 188.202 99.9553 188.258 99.8861C188.317 99.8184 188.399 99.7759 188.489 99.7671C188.578 99.7583 188.667 99.7839 188.738 99.8387L195.277 105.302C195.311 105.33 195.339 105.365 195.36 105.404C195.381 105.443 195.393 105.486 195.397 105.53C195.401 105.575 195.396 105.619 195.382 105.661C195.368 105.703 195.346 105.742 195.317 105.776C195.287 105.814 195.247 105.845 195.203 105.866C195.158 105.887 195.11 105.898 195.06 105.897Z" fill="#D1D3D4"/>
<path d="M192.185 115.236C192.073 115.235 191.965 115.194 191.881 115.119L182.69 107.297C182.593 107.215 182.532 107.098 182.519 106.971C182.507 106.844 182.544 106.717 182.623 106.618C182.706 106.521 182.822 106.46 182.947 106.448C183.073 106.435 183.198 106.472 183.298 106.55L192.489 114.383C192.537 114.423 192.577 114.472 192.606 114.529C192.635 114.585 192.653 114.646 192.658 114.71C192.664 114.773 192.656 114.837 192.637 114.897C192.618 114.957 192.587 115.013 192.546 115.061C192.503 115.116 192.448 115.161 192.385 115.191C192.323 115.221 192.254 115.236 192.185 115.236Z" fill="#D1D3D4"/>
<path d="M191.179 106.864C191.1 106.863 191.023 106.834 190.963 106.783L186.351 102.936C186.282 102.878 186.239 102.796 186.23 102.707C186.222 102.617 186.25 102.528 186.307 102.459C186.365 102.39 186.447 102.347 186.536 102.338C186.626 102.33 186.715 102.358 186.784 102.415L191.395 106.269C191.43 106.297 191.459 106.331 191.48 106.37C191.502 106.409 191.515 106.452 191.519 106.496C191.524 106.54 191.519 106.585 191.506 106.627C191.493 106.669 191.471 106.709 191.443 106.743C191.411 106.781 191.37 106.812 191.325 106.833C191.279 106.854 191.229 106.865 191.179 106.864Z" fill="#D1D3D4"/>
<path d="M109.878 137.746L81.4697 143.834L85.5082 162.68L113.917 156.592L109.878 137.746Z" fill="white"/>
<path d="M85.8222 162.156C85.7442 162.156 85.6687 162.129 85.6083 162.08C85.5479 162.031 85.5064 161.962 85.4908 161.886L81.3796 143.101C81.3702 143.059 81.3696 143.014 81.3777 142.971C81.3859 142.928 81.4026 142.887 81.427 142.851C81.4496 142.813 81.48 142.78 81.516 142.755C81.5521 142.729 81.5932 142.711 81.6366 142.702L109.955 136.508C109.999 136.498 110.044 136.497 110.088 136.505C110.132 136.512 110.174 136.528 110.212 136.552C110.249 136.576 110.282 136.607 110.308 136.644C110.333 136.68 110.351 136.722 110.361 136.765L114.465 155.55C114.476 155.592 114.478 155.636 114.471 155.679C114.464 155.722 114.448 155.763 114.425 155.8C114.401 155.838 114.369 155.871 114.332 155.897C114.295 155.922 114.253 155.94 114.208 155.949L85.8965 162.149L85.8222 162.156ZM82.1167 143.291L86.0791 161.412L113.735 155.36L109.773 137.239L82.1167 143.291Z" fill="#231F20"/>
<path d="M103.642 154.24L106.608 153.591L104.33 143.18L101.365 143.829L103.642 154.24Z" fill="white"/>
<path d="M98.7748 155.307L101.741 154.658L100.041 146.89L97.0754 147.539L98.7748 155.307Z" fill="white"/>
<path d="M93.9052 156.37L96.8711 155.721L95.9448 151.487L92.9789 152.136L93.9052 156.37Z" fill="white"/>
<path d="M158.756 108.028C162.001 108.028 164.632 105.397 164.632 102.151C164.632 98.9062 162.001 96.2754 158.756 96.2754C155.511 96.2754 152.88 98.9062 152.88 102.151C152.88 105.397 155.511 108.028 158.756 108.028Z" fill="white"/>
<path d="M158.756 108.366C157.527 108.366 156.325 108.001 155.303 107.318C154.281 106.635 153.485 105.665 153.015 104.529C152.544 103.394 152.421 102.145 152.661 100.939C152.901 99.7337 153.493 98.6264 154.362 97.7573C155.231 96.8883 156.338 96.2964 157.543 96.0567C158.749 95.8169 159.998 95.9399 161.134 96.4103C162.269 96.8806 163.24 97.6771 163.923 98.699C164.605 99.7209 164.97 100.922 164.97 102.151C164.97 103.8 164.315 105.38 163.15 106.545C161.984 107.711 160.404 108.366 158.756 108.366ZM158.756 96.6202C157.66 96.6202 156.589 96.9452 155.678 97.554C154.767 98.1628 154.058 99.0281 153.639 100.04C153.22 101.053 153.11 102.167 153.325 103.241C153.539 104.316 154.067 105.302 154.842 106.077C155.617 106.851 156.605 107.378 157.679 107.591C158.754 107.803 159.868 107.693 160.88 107.273C161.891 106.852 162.756 106.142 163.364 105.23C163.971 104.318 164.295 103.247 164.294 102.151C164.292 100.684 163.708 99.277 162.669 98.2399C161.631 97.2027 160.223 96.6202 158.756 96.6202Z" fill="#231F20"/>
<path d="M158.756 106.445C157.906 106.445 157.076 106.193 156.37 105.721C155.664 105.25 155.114 104.579 154.789 103.794C154.464 103.01 154.379 102.147 154.544 101.314C154.71 100.481 155.119 99.7157 155.72 99.1152C156.32 98.5147 157.085 98.1057 157.918 97.94C158.751 97.7744 159.614 97.8594 160.399 98.1844C161.183 98.5094 161.854 99.0597 162.326 99.7658C162.798 100.472 163.049 101.302 163.049 102.151C163.049 103.29 162.597 104.382 161.792 105.187C160.987 105.993 159.894 106.445 158.756 106.445ZM158.756 98.4864C158.031 98.4864 157.322 98.7013 156.72 99.104C156.117 99.5068 155.647 100.079 155.37 100.749C155.092 101.418 155.02 102.155 155.161 102.866C155.303 103.577 155.652 104.23 156.164 104.743C156.677 105.255 157.33 105.604 158.041 105.746C158.752 105.887 159.489 105.815 160.158 105.537C160.828 105.26 161.4 104.79 161.803 104.187C162.206 103.585 162.421 102.876 162.421 102.151C162.421 101.179 162.034 100.247 161.347 99.5598C160.66 98.8725 159.728 98.4864 158.756 98.4864Z" fill="#D1D3D4"/>
<path d="M158.755 104.565C158.278 104.565 157.811 104.424 157.414 104.158C157.017 103.893 156.708 103.516 156.525 103.075C156.342 102.634 156.295 102.149 156.388 101.68C156.481 101.212 156.711 100.782 157.048 100.444C157.386 100.107 157.816 99.8768 158.284 99.7837C158.753 99.6905 159.238 99.7384 159.679 99.9211C160.12 100.104 160.497 100.413 160.762 100.81C161.028 101.207 161.169 101.674 161.169 102.151C161.169 102.792 160.915 103.406 160.462 103.858C160.01 104.311 159.396 104.565 158.755 104.565ZM158.755 100.359C158.401 100.359 158.054 100.464 157.76 100.661C157.465 100.858 157.235 101.138 157.1 101.466C156.964 101.793 156.929 102.153 156.998 102.501C157.067 102.848 157.238 103.168 157.488 103.418C157.739 103.669 158.058 103.84 158.406 103.909C158.753 103.978 159.114 103.942 159.441 103.807C159.768 103.671 160.048 103.442 160.245 103.147C160.442 102.852 160.547 102.506 160.547 102.151C160.547 101.676 160.358 101.22 160.022 100.884C159.686 100.548 159.231 100.359 158.755 100.359Z" fill="#D1D3D4"/>
<path d="M129.633 20.4409H129.565L116.366 17.9255C116.278 17.9075 116.2 17.8557 116.149 17.7811C116.099 17.7066 116.079 17.6152 116.095 17.5266C116.103 17.4824 116.12 17.4404 116.145 17.4028C116.169 17.3652 116.201 17.3329 116.238 17.3078C116.275 17.2826 116.317 17.2651 116.361 17.2562C116.405 17.2473 116.45 17.2473 116.494 17.2561L129.693 19.7783C129.782 19.7963 129.859 19.8481 129.91 19.9227C129.96 19.9972 129.98 20.0886 129.964 20.1772C129.947 20.2523 129.905 20.3194 129.845 20.3674C129.784 20.4153 129.71 20.4413 129.633 20.4409Z" fill="#D1D3D4"/>
<path d="M143.345 45.9467C142.716 45.9481 142.101 45.7626 141.577 45.4139C141.054 45.0652 140.645 44.569 140.404 43.988C140.162 43.407 140.099 42.7674 140.221 42.1503C140.344 41.5332 140.647 40.9663 141.091 40.5214C141.536 40.0765 142.103 39.7737 142.72 39.6513C143.337 39.5289 143.977 39.5924 144.558 39.8338C145.139 40.0752 145.635 40.4836 145.984 41.0072C146.333 41.5309 146.518 42.1463 146.517 42.7754C146.515 43.6159 146.18 44.4215 145.586 45.0159C144.992 45.6102 144.186 45.9449 143.345 45.9467ZM143.345 40.2735C142.85 40.2722 142.366 40.4178 141.954 40.6919C141.541 40.966 141.22 41.3562 141.029 41.8133C140.839 42.2703 140.788 42.7736 140.884 43.2593C140.98 43.7451 141.218 44.1915 141.567 44.5421C141.917 44.8927 142.363 45.1316 142.848 45.2287C143.334 45.3258 143.837 45.2767 144.295 45.0875C144.752 44.8983 145.143 44.5777 145.418 44.1661C145.694 43.7545 145.841 43.2705 145.841 42.7754C145.841 42.113 145.578 41.4777 145.11 41.0087C144.642 40.5397 144.008 40.2753 143.345 40.2735Z" fill="#D1D3D4"/>
<path d="M66.0373 82.4068C67.1352 82.4068 68.0253 81.5167 68.0253 80.4188C68.0253 79.3208 67.1352 78.4308 66.0373 78.4308C64.9394 78.4308 64.0493 79.3208 64.0493 80.4188C64.0493 81.5167 64.9394 82.4068 66.0373 82.4068Z" fill="#D1D3D4"/>
</svg>
