<svg width="357" height="112" viewBox="0 0 357 112" fill="none" xmlns="http://www.w3.org/2000/svg">
<path d="M270.699 20.9327C270.699 20.9327 280.545 1.7289 282.22 1.04885C283.894 0.368796 288.767 2.3785 288.421 3.34275C288.076 4.307 286.016 13.5638 286.016 13.5638C286.016 13.5638 291.314 10.1432 291.862 11.5338C292.41 12.9243 285.935 19.8365 285.935 19.8365L277.114 34.5641L270.699 20.9327Z" fill="#D1D3D4"/>
<path d="M277.114 35.0715C277.02 35.0678 276.929 35.0384 276.85 34.9865C276.771 34.9346 276.708 34.8623 276.668 34.7772L270.253 21.1559C270.216 21.0855 270.196 21.0071 270.196 20.9275C270.196 20.8479 270.216 20.7695 270.253 20.6991C272.577 16.1519 280.312 1.26188 282.037 0.561533C283.763 -0.138817 287.366 1.24158 288.523 2.35808C288.702 2.48733 288.838 2.66874 288.91 2.8776C288.983 3.08646 288.989 3.31263 288.929 3.52533C288.685 4.18508 287.498 9.42248 286.818 12.4675C288.31 11.5946 290.644 10.4375 291.72 10.742C291.866 10.7853 291.999 10.8607 292.112 10.9626C292.224 11.0645 292.312 11.1902 292.37 11.3307C292.958 12.7923 288.888 17.4207 286.381 20.1409L277.581 34.8178C277.534 34.8991 277.466 34.9659 277.384 35.0107C277.301 35.0554 277.208 35.0765 277.114 35.0715ZM271.278 20.9427L277.165 33.4374L285.488 19.5522L285.559 19.4608C288.472 16.3448 291.507 12.4878 291.375 11.7062C290.959 11.4931 288.533 12.569 286.3 14.0103C286.214 14.0654 286.113 14.0947 286.011 14.0947C285.908 14.0947 285.808 14.0654 285.722 14.0103C285.636 13.9504 285.569 13.8663 285.532 13.7687C285.494 13.6711 285.486 13.5644 285.508 13.4622C285.59 13.0968 287.477 4.57078 287.894 3.31218C287.455 2.85156 286.912 2.5034 286.31 2.29718C284.767 1.62728 283.093 1.28218 282.413 1.59683C281.357 2.14493 275.906 11.9194 271.278 20.9427Z" fill="#231F20"/>
<path d="M271.41 51.2913L282.128 27.1241L270.141 16.9741C270.141 16.9741 240.706 54.8945 253.028 64.6182L281.144 92.1856L306.935 74.0577L271.41 51.2913Z" fill="#148532"/>
<path d="M305.007 34.625C306.073 30.7149 308.598 27.3622 312.061 25.2565C318.059 21.4097 334.492 23.9573 337.507 30.6766C340.521 37.3959 331.711 55.0366 331.711 55.0366L303.494 62.6491L305.007 34.625Z" fill="white"/>
<path d="M303.494 63.1465C303.374 63.1481 303.258 63.1046 303.169 63.0247C303.105 62.9749 303.053 62.91 303.02 62.8357C302.986 62.7613 302.971 62.6798 302.976 62.5984L304.479 34.625C304.474 34.6016 304.474 34.5774 304.479 34.554C305.563 30.4939 308.179 27.0121 311.777 24.8404C315.309 22.577 322.536 22.3232 328.96 24.2416C333.579 25.622 336.786 27.8347 337.974 30.494C341.019 37.3554 332.533 54.5393 332.178 55.2701C332.143 55.3358 332.096 55.3939 332.038 55.4409C331.981 55.488 331.914 55.5231 331.843 55.5442L303.626 63.1567L303.494 63.1465ZM305.524 34.7265L304.063 61.959L331.346 54.5901C332.361 52.5601 339.73 36.9494 337.03 30.9203C336.015 28.5858 332.97 26.5152 328.666 25.2464C322.576 23.4397 315.593 23.6427 312.345 25.7235C309.029 27.7554 306.595 30.957 305.524 34.6961V34.7265Z" fill="#231F20"/>
<path d="M330.351 114.81C332.381 99.6967 333.701 84.7153 332.026 81.8631C326.291 72.0988 300.398 78.0671 295.597 80.2595C293.73 81.1121 294.846 96.4081 291.801 114.769L330.351 114.81Z" fill="#231F20"/>
<path d="M354.64 115.521C354.64 115.521 359.867 89.7092 351.981 82.0256C344.094 74.3421 325.185 75.489 325.185 75.489C325.185 75.489 295.252 71.358 286.056 76.0879C282.311 78.0164 277.48 94.8755 272.963 114.81H298.825L305.93 80.4625L329.113 81.2035L321.5 114.81L354.64 115.521Z" fill="#148532"/>
<path d="M307.95 67.0035L305.92 80.4929C305.92 80.4929 306.844 89.4147 315.877 88.288C318.544 87.9324 321.098 86.9873 323.354 85.5213C325.61 84.0553 327.512 82.1053 328.92 79.8128L331.65 55.0062C331.65 55.0062 325.56 50.7838 329.062 36.858C320.978 37.2769 312.875 36.5248 305.007 34.625C305.007 34.625 300.185 52.3063 300.469 59.2388C300.754 66.1712 307.95 67.0035 307.95 67.0035Z" fill="#D1D3D4"/>
<path d="M314.416 88.9175C312.448 88.9731 310.522 88.3454 308.965 87.1412C307.031 85.4422 305.783 83.0967 305.453 80.5437C305.448 80.4999 305.448 80.4556 305.453 80.4118L307.371 67.4299C305.626 67.0544 300.185 65.3999 299.932 59.3099C299.657 52.3775 304.286 35.2646 304.489 34.5338C304.525 34.4023 304.611 34.2902 304.728 34.2218C304.846 34.1534 304.986 34.1342 305.118 34.1684C312.956 36.049 321.023 36.7942 329.072 36.3811C329.155 36.3776 329.238 36.3921 329.315 36.4237C329.392 36.4552 329.462 36.503 329.519 36.5638C329.574 36.6263 329.613 36.7022 329.631 36.7839C329.648 36.8657 329.645 36.9507 329.62 37.0307C326.24 50.3881 331.945 54.5902 332.006 54.6308C332.083 54.6847 332.144 54.7583 332.184 54.8439C332.223 54.9296 332.238 55.0242 332.229 55.118L329.488 79.9246C329.487 79.9934 329.466 80.0604 329.427 80.1174C327.989 82.4919 326.034 84.5116 323.707 86.0263C321.38 87.5411 318.742 88.5119 315.989 88.8667C315.466 88.9123 314.94 88.9292 314.416 88.9175ZM306.509 80.493C306.821 82.7467 307.926 84.8155 309.625 86.3292C310.513 86.9803 311.525 87.4438 312.598 87.6915C313.671 87.9393 314.783 87.9662 315.867 87.7705C318.434 87.4221 320.894 86.5144 323.072 85.1113C325.251 83.7083 327.094 81.8441 328.473 79.6505L331.163 55.2398C330.006 54.2248 325.581 49.5558 328.453 37.4164C320.697 37.7356 312.934 37.0084 305.372 35.2544C304.611 38.1573 300.743 53.088 300.997 59.2186C301.251 65.6232 307.757 66.4454 308.031 66.4758C308.101 66.4843 308.168 66.5066 308.229 66.5415C308.29 66.5764 308.344 66.6231 308.386 66.6788C308.432 66.7334 308.465 66.7968 308.484 66.8649C308.503 66.9331 308.508 67.0046 308.498 67.0747L306.509 80.493Z" fill="#231F20"/>
<path d="M306.935 74.0576C306.935 74.0576 310.376 75.1538 314.669 71.8652C318.963 68.5766 318.882 66.374 318.882 66.374C315.424 67.8122 311.581 68.0341 307.98 67.0033L306.935 74.0576Z" fill="#231F20"/>
<path d="M308.427 74.7377C307.869 74.7495 307.312 74.6811 306.773 74.5347C306.66 74.4978 306.564 74.4229 306.501 74.3228C306.438 74.2227 306.412 74.1038 306.427 73.9866L307.442 66.8816C307.455 66.8094 307.482 66.7405 307.522 66.6794C307.562 66.6182 307.615 66.5661 307.676 66.5263C307.806 66.4543 307.959 66.4361 308.102 66.4756C311.582 67.4646 315.293 67.2536 318.638 65.8767C318.713 65.8389 318.797 65.8208 318.881 65.8241C318.965 65.8274 319.047 65.8521 319.119 65.8957C319.191 65.9393 319.251 66.0005 319.293 66.0735C319.335 66.1465 319.357 66.229 319.359 66.3132C319.359 66.5669 319.359 68.871 314.943 72.2306C313.11 73.7674 310.817 74.6496 308.427 74.7377ZM307.503 73.6618C308.518 73.8242 311.147 73.9256 314.365 71.4592C315.974 70.3898 317.279 68.9209 318.151 67.1962C315.014 68.3148 311.614 68.4738 308.386 67.6529L307.503 73.6618Z" fill="#231F20"/>
<path d="M316.07 47.353C316.07 47.353 311.076 54.6001 312.223 55.8892C313.37 57.1782 316.638 56.3764 316.638 56.3764" fill="#D1D3D4"/>
<path d="M314.578 57.1477C314.085 57.1907 313.588 57.1318 313.118 56.9746C312.648 56.8175 312.216 56.5655 311.848 56.2342C310.559 54.7929 314.081 49.3424 315.654 47.0992C315.739 46.9998 315.858 46.9356 315.987 46.9189C316.117 46.9022 316.248 46.9342 316.356 47.0088C316.463 47.0833 316.539 47.1951 316.569 47.3225C316.599 47.4498 316.58 47.5837 316.517 47.6981C314.03 51.3013 312.183 55.0568 312.629 55.5745C313.39 56.4271 315.755 56.0921 316.527 55.9094C316.593 55.8934 316.663 55.8907 316.73 55.9014C316.798 55.9122 316.863 55.9361 316.921 55.9719C316.98 56.0077 317.031 56.0547 317.071 56.1102C317.111 56.1656 317.14 56.2285 317.156 56.2951C317.172 56.3618 317.175 56.4309 317.164 56.4986C317.153 56.5663 317.129 56.6312 317.094 56.6896C317.058 56.7481 317.011 56.7989 316.955 56.8392C316.9 56.8794 316.837 56.9084 316.77 56.9244C316.05 57.0769 315.315 57.1518 314.578 57.1477Z" fill="#231F20"/>
<path d="M315.278 62.1316H314.933C310.751 61.959 307.727 58.64 307.595 58.4979C307.505 58.3969 307.458 58.2643 307.466 58.1291C307.473 57.994 307.534 57.8674 307.635 57.7772C307.736 57.687 307.869 57.6407 308.004 57.6483C308.139 57.6559 308.266 57.7169 308.356 57.8178C308.356 57.8178 311.239 60.9643 314.984 61.1166C316.082 61.1286 317.17 60.916 318.182 60.4918C319.195 60.0677 320.11 59.4409 320.871 58.6501C320.918 58.6026 320.974 58.5648 321.036 58.539C321.098 58.5133 321.164 58.5 321.231 58.5C321.298 58.5 321.365 58.5133 321.426 58.539C321.488 58.5648 321.544 58.6026 321.592 58.6501C321.685 58.7467 321.738 58.8759 321.738 59.0104C321.738 59.145 321.685 59.2742 321.592 59.3708C319.928 61.0799 317.662 62.0707 315.278 62.1316Z" fill="#231F20"/>
<path d="M322.74 46.456C322.783 45.3581 322.431 44.4532 321.955 44.4349C321.479 44.4165 321.058 45.2916 321.016 46.3895C320.974 47.4874 321.325 48.3923 321.801 48.4107C322.277 48.4291 322.698 47.5539 322.74 46.456Z" fill="#231F20"/>
<path d="M310.818 45.0015C310.862 43.9028 310.511 42.9967 310.034 42.9776C309.558 42.9585 309.136 43.8338 309.092 44.9325C309.048 46.0312 309.399 46.9373 309.875 46.9564C310.352 46.9754 310.774 46.1002 310.818 45.0015Z" fill="#231F20"/>
<path d="M326.443 50.7737C327.361 49.5224 328.512 48.4607 329.833 47.6475C330.527 47.1612 331.351 46.8958 332.198 46.8862C332.884 46.9686 333.534 47.2391 334.076 47.6678C334.885 48.2658 335.56 49.0261 336.058 49.9C336.556 50.7739 336.866 51.7421 336.969 52.7428C337.068 53.675 336.932 54.6172 336.573 55.4833C335.946 56.8233 334.868 57.9008 333.528 58.5283C332.185 59.1349 330.774 59.578 329.326 59.8478" fill="#D1D3D4"/>
<path d="M329.265 60.3855C329.15 60.3685 329.043 60.3136 328.962 60.2296C328.881 60.1456 328.83 60.0371 328.818 59.9211C328.805 59.8051 328.831 59.6882 328.892 59.5886C328.952 59.489 329.044 59.4123 329.153 59.3705C330.551 59.0987 331.913 58.6696 333.213 58.0916C334.453 57.5349 335.458 56.5617 336.055 55.341C336.38 54.5513 336.502 53.693 336.411 52.8441C336.319 51.9112 336.032 51.0081 335.568 50.1933C335.105 49.3784 334.476 48.6701 333.721 48.1142C333.264 47.7362 332.707 47.4998 332.117 47.4341C331.389 47.4614 330.685 47.6974 330.087 48.1142C328.828 48.8939 327.729 49.9067 326.849 51.0983C326.809 51.1542 326.758 51.2015 326.699 51.2374C326.641 51.2733 326.575 51.2972 326.507 51.3076C326.439 51.318 326.37 51.3147 326.303 51.2979C326.236 51.2812 326.174 51.2513 326.118 51.2099C326.006 51.1285 325.931 51.0062 325.908 50.8695C325.885 50.7328 325.917 50.5925 325.997 50.4791C326.96 49.1782 328.162 48.0725 329.539 47.221C330.323 46.6768 331.254 46.3862 332.208 46.3887C332.994 46.4679 333.741 46.7709 334.36 47.2616C335.235 47.9068 335.964 48.7294 336.499 49.6756C337.035 50.6219 337.364 51.6704 337.466 52.7527C337.581 53.7874 337.435 54.8345 337.04 55.7977C336.34 57.2441 335.16 58.4028 333.701 59.0762C332.321 59.695 330.873 60.1482 329.387 60.4261L329.265 60.3855Z" fill="#231F20"/>
<path d="M347.433 100.133C344.784 103.564 341.272 108.842 337.507 114.84H347.433V100.133Z" fill="#148532"/>
<path d="M337.507 115.368C337.433 115.366 337.361 115.349 337.294 115.318C337.231 115.29 337.174 115.25 337.126 115.201C337.079 115.151 337.041 115.092 337.017 115.028C336.992 114.964 336.981 114.895 336.983 114.826C336.985 114.757 337.001 114.69 337.03 114.627L346.956 91.9319C347.012 91.8045 347.116 91.7043 347.245 91.653C347.374 91.6017 347.519 91.6034 347.647 91.6579C347.71 91.6853 347.767 91.7251 347.814 91.7749C347.862 91.8246 347.899 91.8833 347.923 91.9476C347.948 92.0118 347.96 92.0804 347.957 92.1491C347.955 92.2179 347.939 92.2855 347.911 92.3481L337.984 115.054C337.944 115.147 337.877 115.227 337.793 115.283C337.708 115.339 337.608 115.368 337.507 115.368Z" fill="#231F20"/>
<path d="M278.058 16.9844C277.945 16.9867 277.834 16.9509 277.744 16.8829C277.688 16.8427 277.64 16.7918 277.605 16.7331C277.569 16.6743 277.545 16.609 277.534 16.541C277.524 16.4729 277.527 16.4035 277.544 16.3367C277.561 16.27 277.591 16.2072 277.632 16.1521C280.789 11.8587 285.925 13.0056 286.138 13.1071C286.273 13.1386 286.391 13.2224 286.465 13.3403C286.539 13.4581 286.564 13.6005 286.533 13.7364C286.518 13.8034 286.489 13.8666 286.449 13.9223C286.409 13.9781 286.358 14.0253 286.3 14.0612C286.241 14.0971 286.176 14.1209 286.108 14.1314C286.04 14.1419 285.971 14.1387 285.904 14.1221C285.711 14.1221 281.215 13.1071 278.474 16.822C278.422 16.8797 278.358 16.9244 278.286 16.9526C278.213 16.9808 278.135 16.9917 278.058 16.9844Z" fill="#231F20"/>
<path d="M94.3838 90.0644C94.3838 90.0644 94.3839 84.7864 110.786 76.0066C127.189 67.2269 152.117 69.5817 160.846 74.7887C169.575 79.9956 173.838 81.0207 177.391 92.5917C179.554 99.8859 180.692 107.446 180.771 115.054H91.6535L94.3838 90.0644Z" fill="#148532"/>
<path d="M125.666 99.4528C127.595 101.067 136.385 102.65 138.404 102.122C143.764 100.742 149.448 98.8337 152.736 94.185C154.604 91.5561 155.477 88.3285 156.187 85.1414C157.019 81.4062 157.649 77.4578 156.583 73.7936C152.959 61.4411 133.928 60.1724 124.458 65.1763C110.878 72.3524 116.115 91.4648 125.666 99.4528Z" fill="white"/>
<path d="M137.247 102.731C133.949 102.731 127.097 101.29 125.341 99.8489C119.008 94.581 114.998 85.0806 115.81 77.2651C116.02 74.628 116.905 72.0892 118.38 69.8936C119.856 67.698 121.872 65.9196 124.235 64.7299C130.761 61.2789 140.698 60.9541 147.844 63.9788C152.625 66.0088 155.812 69.338 157.08 73.6517C158.177 77.3869 157.537 81.4368 156.695 85.2532C156.025 88.2982 155.152 91.6781 153.162 94.4795C149.843 99.1688 144.17 101.158 138.536 102.6C138.113 102.694 137.681 102.739 137.247 102.731ZM125.991 99.0673C127.737 100.529 136.283 102.112 138.272 101.635C143.723 100.224 149.194 98.3162 152.32 93.8908C154.208 91.2417 155.05 87.9226 155.69 85.0299C156.512 81.3454 157.121 77.458 156.096 73.9359C154.918 69.9267 151.924 66.8309 147.438 64.9126C140.658 62.0503 130.883 62.3548 124.692 65.6231C122.482 66.7426 120.598 68.4119 119.22 70.4704C117.843 72.5289 117.018 74.9073 116.825 77.3768C116.044 84.8776 119.87 94.0025 125.96 99.0673H125.991Z" fill="#231F20"/>
<path d="M130.406 19.5015C121.19 21.1153 112.908 26.6775 113.09 36.9798C113.192 43.2525 116.582 49.1598 121.312 53.3111C128.244 59.4011 138.496 61.7762 147.052 58.3861C150.71 56.9117 153.884 54.4447 156.215 51.2633C158.547 48.0819 159.943 44.3125 160.247 40.38C160.592 34.1784 157.832 23.9776 151.305 21.7243C148.808 20.8514 145.723 22.8408 145.723 22.8408C144.535 19.268 134.233 18.8214 130.406 19.5015Z" fill="white"/>
<path d="M138.81 60.3855C132.264 60.344 125.949 57.9605 121.007 53.6662C115.79 49.0987 112.725 43.0188 112.623 36.9897C112.461 27.7329 119.079 21.0238 130.325 19.0445C134.152 18.3645 143.916 18.7096 145.926 22.2012C146.941 21.6632 149.346 20.567 151.457 21.2978C158.055 23.5816 161.069 33.8737 160.714 40.4204C160.392 44.4379 158.96 48.2868 156.578 51.538C154.197 54.7891 150.958 57.3145 147.225 58.8325C144.543 59.8747 141.688 60.4016 138.81 60.3855ZM134.141 19.7043C132.919 19.6887 131.696 19.7735 130.487 19.958C119.728 21.8459 113.395 28.21 113.547 36.9694C113.649 42.7448 116.592 48.5709 121.616 52.9658C128.721 59.1269 138.871 61.1467 146.89 57.9698C150.453 56.5137 153.543 54.0977 155.815 50.9905C158.087 47.8833 159.453 44.2067 159.76 40.3697C160.095 34.1173 157.294 24.3124 151.122 22.1809C148.869 21.3993 145.966 23.1959 145.936 23.2466C145.872 23.2772 145.803 23.2931 145.733 23.2931C145.662 23.2931 145.593 23.2772 145.53 23.2466C145.464 23.22 145.406 23.18 145.357 23.1294C145.308 23.0787 145.27 23.0184 145.246 22.9523C144.474 20.5772 138.587 19.7043 134.141 19.7043Z" fill="#231F20"/>
<path d="M146.727 68.2112L146.809 81.66C146.809 81.66 145.448 89.1811 137.268 86.8872C134.853 86.1883 132.625 84.9603 130.744 83.2924C128.864 81.6244 127.379 79.5585 126.397 77.2447C126.397 77.2447 125.717 48.9059 125.555 40.3698C135.491 40.2074 146.433 33.8027 146.433 33.8027C146.433 33.8027 149.854 38.9386 151.335 40.5626C152.514 41.7851 153.537 43.1488 154.38 44.6226C155.761 47.2109 155.71 50.4386 155.639 53.3009C155.612 56.7082 155.273 60.1058 154.624 63.4509C153.345 69.7743 146.727 68.2112 146.727 68.2112Z" fill="white"/>
<path d="M140.17 87.7907C139.139 87.7788 138.115 87.6251 137.125 87.334C134.64 86.6217 132.346 85.3599 130.413 83.6416C128.48 81.9234 126.959 79.7928 125.96 77.4073C125.951 77.357 125.951 77.3053 125.96 77.255C125.96 76.9708 125.28 48.835 125.118 40.3801C125.119 40.2559 125.166 40.1364 125.25 40.0451C125.291 40 125.341 39.9641 125.397 39.9396C125.453 39.9151 125.514 39.9027 125.575 39.903C135.278 39.7508 146.129 33.4679 146.23 33.407C146.332 33.3482 146.453 33.3302 146.568 33.3566C146.682 33.3829 146.783 33.4517 146.849 33.5491C146.849 33.5491 150.27 38.6749 151.711 40.2481C152.928 41.4934 153.982 42.8884 154.847 44.3995C156.309 47.1197 156.228 50.5605 156.167 53.3112C156.143 56.7388 155.803 60.1568 155.152 63.5221C155.019 64.3866 154.708 65.214 154.238 65.9515C153.768 66.6889 153.149 67.3204 152.422 67.8054C150.852 68.7045 149.022 69.0411 147.235 68.7595L147.316 81.6601C146.905 83.7267 145.698 85.5492 143.956 86.7351C142.824 87.447 141.508 87.8138 140.17 87.7907ZM126.854 77.1535C127.828 79.382 129.281 81.3691 131.108 82.974C132.936 84.5789 135.094 85.7624 137.43 86.4408C138.41 86.7973 139.454 86.941 140.494 86.8622C141.533 86.7835 142.544 86.4841 143.459 85.984C144.957 84.9373 146.004 83.3642 146.392 81.5789L146.301 68.2114C146.301 68.1414 146.317 68.0722 146.347 68.009C146.377 67.9459 146.421 67.8903 146.476 67.8464C146.53 67.8026 146.594 67.7715 146.662 67.7556C146.73 67.7398 146.801 67.7394 146.869 67.7546C148.594 68.1183 150.392 67.8594 151.944 67.0238C152.561 66.6002 153.085 66.0547 153.483 65.4211C153.881 64.7874 154.145 64.079 154.259 63.3394C154.904 60.0281 155.244 56.6644 155.274 53.2909C155.335 50.5098 155.406 47.343 154.066 44.8359C153.223 43.3929 152.199 42.0627 151.021 40.8774C149.742 39.4767 147.123 35.6299 146.311 34.422C144.281 35.5284 134.821 40.512 126.011 40.8165C126.194 49.5354 126.813 75.4889 126.854 77.1535Z" fill="#231F20"/>
<path d="M146.646 74.8191C146.646 74.8191 141.196 75.0525 137.684 71.4188C134.172 67.7851 134.689 64.1108 134.689 64.1108C134.689 64.1108 140.597 68.0693 146.727 68.1708L146.646 74.8191Z" fill="#231F20"/>
<path d="M146.403 75.2247C145.235 75.2247 140.566 75.0116 137.359 71.6925C133.735 67.937 134.223 64.1714 134.243 64.009C134.254 63.9337 134.284 63.8626 134.33 63.8022C134.376 63.7418 134.437 63.6942 134.507 63.6639C134.573 63.6265 134.649 63.6069 134.725 63.6069C134.801 63.6069 134.877 63.6265 134.943 63.6639C134.943 63.6639 140.81 67.5513 146.738 67.7239C146.854 67.7265 146.965 67.7748 147.047 67.8582C147.128 67.9417 147.174 68.0538 147.174 68.1705L147.093 74.7781C147.094 74.8354 147.084 74.8925 147.064 74.9459C147.043 74.9994 147.012 75.0483 146.972 75.0898C146.933 75.1312 146.885 75.1645 146.833 75.1877C146.78 75.2108 146.724 75.2234 146.667 75.2247H146.403ZM135.116 64.8717C135.287 67.2186 136.313 69.4213 137.998 71.0632C140.78 73.9458 144.89 74.2909 146.21 74.3315L146.271 68.5968C142.32 68.2359 138.504 66.9756 135.116 64.9123V64.8717Z" fill="#231F20"/>
<path d="M141.49 46.7441C141.49 46.7441 145.814 53.2097 144.789 54.3262C143.764 55.4427 140.881 54.7119 140.881 54.7119" fill="white"/>
<path d="M142.759 55.4019C142.075 55.3936 141.394 55.3084 140.729 55.1481C140.614 55.1171 140.516 55.0424 140.455 54.94C140.394 54.8377 140.376 54.7157 140.404 54.6C140.435 54.4851 140.51 54.3869 140.612 54.3263C140.714 54.2656 140.836 54.2473 140.952 54.2752C141.632 54.4478 143.733 54.7827 144.423 54.0316C144.829 53.5749 143.236 50.2254 141.084 46.9977C141.048 46.9491 141.023 46.8938 141.009 46.8352C140.995 46.7765 140.994 46.7157 141.004 46.6563C141.014 46.597 141.037 46.5404 141.069 46.4899C141.102 46.4393 141.145 46.396 141.195 46.3624C141.245 46.3288 141.301 46.3057 141.36 46.2945C141.42 46.2832 141.481 46.2841 141.539 46.297C141.598 46.3098 141.654 46.3345 141.703 46.3694C141.752 46.4044 141.794 46.4489 141.825 46.5003C143.185 48.5303 146.23 53.382 145.083 54.6203C144.771 54.9046 144.403 55.1209 144.003 55.2554C143.603 55.39 143.179 55.4398 142.759 55.4019Z" fill="#231F20"/>
<path d="M147.194 46.1239C147.603 46.1078 147.91 45.4727 147.88 44.7053C147.85 43.9379 147.494 43.3289 147.085 43.3449C146.676 43.361 146.369 43.9961 146.399 44.7635C146.429 45.5309 146.785 46.14 147.194 46.1239Z" fill="#231F20"/>
<path d="M135.395 44.3733C135.418 43.6056 135.105 42.9735 134.696 42.9613C134.287 42.9492 133.937 43.5616 133.914 44.3293C133.891 45.0969 134.204 45.7291 134.613 45.7412C135.022 45.7534 135.373 45.1409 135.395 44.3733Z" fill="#231F20"/>
<path d="M128.295 49.1088C126.864 47.0788 124.641 43.4451 121.657 44.5616C120.862 44.8785 120.162 45.3961 119.627 46.0638C117.242 48.8855 117.597 52.6512 119.18 55.7571C120.54 58.4367 124.814 62.5068 127.747 59.137" fill="white"/>
<path d="M125.189 60.873C125.03 60.8834 124.871 60.8834 124.712 60.873C122.043 60.5482 119.637 57.7062 118.795 56.001C116.886 52.2354 117.079 48.419 119.302 45.7901C119.883 45.0646 120.642 44.5016 121.505 44.156C124.55 43.009 126.844 46.186 128.336 48.3784L128.681 48.8656C128.717 48.9151 128.743 48.9715 128.758 49.0314C128.772 49.0913 128.774 49.1535 128.763 49.2142C128.753 49.2748 128.73 49.3328 128.697 49.3845C128.664 49.4362 128.62 49.4807 128.569 49.5152C128.52 49.5515 128.465 49.5775 128.406 49.5916C128.346 49.6057 128.285 49.6075 128.225 49.5971C128.165 49.5866 128.108 49.5641 128.057 49.5308C128.007 49.4975 127.963 49.4542 127.93 49.4035L127.574 48.9062C126.174 46.8762 124.245 44.1255 121.829 45.0187C121.118 45.3145 120.493 45.7859 120.013 46.389C117.983 48.7235 117.891 52.1643 119.627 55.5848C120.469 57.2393 122.672 59.6449 124.824 59.9595C125.314 60.0137 125.811 59.9414 126.265 59.7495C126.72 59.5576 127.118 59.2526 127.422 58.8633C127.511 58.7783 127.629 58.7309 127.752 58.7309C127.875 58.7309 127.993 58.7783 128.082 58.8633C128.169 58.9508 128.218 59.0695 128.218 59.1932C128.218 59.3169 128.169 59.4355 128.082 59.5231C127.725 59.9431 127.282 60.2811 126.783 60.5141C126.284 60.7471 125.74 60.8695 125.189 60.873Z" fill="#231F20"/>
<path d="M141.987 61.7354C141.737 61.7502 141.486 61.7502 141.236 61.7354C136.963 61.2482 133.989 56.8431 133.867 56.6604C133.801 56.5621 133.777 56.4417 133.8 56.3256C133.823 56.2095 133.891 56.1072 133.989 56.0412C134.089 55.9748 134.211 55.9504 134.329 55.9732C134.446 55.996 134.551 56.0641 134.618 56.163C134.618 56.163 137.491 60.4057 141.338 60.8421C142.359 60.9155 143.383 60.7584 144.336 60.3824C145.288 60.0064 146.143 59.4212 146.839 58.67C146.925 58.5879 147.04 58.5434 147.159 58.5463C147.278 58.5491 147.391 58.5991 147.473 58.6853C147.555 58.7714 147.6 58.8866 147.597 59.0056C147.594 59.1246 147.544 59.2375 147.458 59.3196C146.018 60.8056 144.056 61.6721 141.987 61.7354Z" fill="#231F20"/>
<path d="M109.01 115.561C108.875 115.561 108.746 115.508 108.651 115.412C108.556 115.317 108.503 115.188 108.503 115.054V93.9821C108.503 93.8475 108.556 93.7184 108.651 93.6233C108.746 93.5281 108.875 93.4746 109.01 93.4746C109.145 93.4746 109.274 93.5281 109.369 93.6233C109.464 93.7184 109.518 93.8475 109.518 93.9821V115.054C109.518 115.12 109.504 115.186 109.479 115.248C109.453 115.309 109.416 115.365 109.369 115.412C109.322 115.459 109.266 115.497 109.204 115.522C109.143 115.548 109.077 115.561 109.01 115.561Z" fill="#231F20"/>
<path d="M162.592 115.592C162.473 115.591 162.359 115.549 162.268 115.473C162.177 115.397 162.116 115.292 162.094 115.176L157.933 93.1805C157.909 93.0487 157.939 92.9128 158.015 92.8025C158.091 92.6922 158.207 92.6165 158.339 92.5918C158.404 92.5786 158.472 92.5788 158.537 92.5922C158.602 92.6056 158.664 92.6321 158.719 92.67C158.774 92.7078 158.821 92.7564 158.857 92.8127C158.893 92.869 158.917 92.932 158.928 92.9978L163.089 114.993C163.102 115.058 163.102 115.126 163.089 115.191C163.075 115.256 163.049 115.318 163.011 115.373C162.973 115.428 162.925 115.475 162.868 115.511C162.812 115.547 162.749 115.571 162.683 115.582L162.592 115.592Z" fill="#231F20"/>
<path d="M137.511 85.2429C137.511 85.2429 126.153 97.2706 126.732 109.055L145.875 111.247C145.875 111.247 142.383 90.3483 144.545 85.1211L137.511 85.2429Z" fill="white"/>
<path d="M145.875 111.765L126.722 109.572C126.601 109.558 126.49 109.501 126.408 109.411C126.326 109.322 126.279 109.206 126.275 109.085C125.686 97.2197 136.719 85.4051 137.197 84.8976C137.291 84.8029 137.418 84.7484 137.552 84.7454L144.596 84.6236C144.68 84.6223 144.763 84.6419 144.837 84.6806C144.912 84.7193 144.976 84.7759 145.023 84.8453C145.07 84.9147 145.1 84.9948 145.108 85.0783C145.117 85.1619 145.105 85.2463 145.073 85.3239C142.982 90.3989 146.392 110.963 146.433 111.176C146.445 111.252 146.439 111.331 146.416 111.404C146.394 111.478 146.354 111.546 146.301 111.602C146.247 111.66 146.18 111.704 146.106 111.732C146.033 111.76 145.953 111.771 145.875 111.765ZM127.219 108.608L145.276 110.638C144.708 107.126 142.302 91.2312 143.845 85.6081L137.755 85.7097C136.415 87.1611 126.965 98.0115 127.219 108.598V108.608Z" fill="#231F20"/>
<path d="M136.293 98.6917H136.212C136.146 98.6819 136.083 98.659 136.027 98.6244C135.97 98.5898 135.921 98.5442 135.882 98.4902C135.843 98.4363 135.815 98.3752 135.801 98.3104C135.786 98.2456 135.784 98.1786 135.796 98.1132C136.368 94.1142 137.889 90.3103 140.231 87.0192C140.272 86.9663 140.323 86.9221 140.381 86.8892C140.439 86.8563 140.503 86.8355 140.569 86.8279C140.636 86.8203 140.703 86.8262 140.767 86.8451C140.831 86.864 140.89 86.8956 140.942 86.938C141.046 87.0217 141.114 87.1434 141.129 87.2765C141.144 87.4096 141.106 87.5433 141.023 87.6485C138.81 90.816 137.361 94.4536 136.791 98.2756C136.769 98.3921 136.708 98.4974 136.617 98.5734C136.526 98.6494 136.412 98.6913 136.293 98.6917Z" fill="#D1D3D4"/>
<path d="M147.661 89.5164C147.594 89.5306 147.525 89.5306 147.458 89.5164C147.397 89.4909 147.342 89.4536 147.295 89.4064C147.249 89.3593 147.212 89.3034 147.188 89.2419C147.163 89.1805 147.151 89.1148 147.152 89.0486C147.153 88.9824 147.168 88.9172 147.194 88.8566C148.251 86.5679 149.103 84.1903 149.742 81.7516C150.366 79.3493 150.32 76.8219 149.61 74.4436C149.586 74.3796 149.576 74.3114 149.579 74.2433C149.583 74.1751 149.6 74.1083 149.63 74.0469C149.659 73.9855 149.701 73.9307 149.753 73.8859C149.804 73.841 149.864 73.8069 149.929 73.7858C149.994 73.7646 150.062 73.7567 150.13 73.7626C150.198 73.7686 150.264 73.7881 150.324 73.8201C150.385 73.8522 150.438 73.896 150.481 73.9491C150.524 74.0022 150.556 74.0633 150.574 74.129C151.342 76.681 151.395 79.395 150.726 81.9749C150.085 84.4818 149.215 86.9246 148.128 89.2728C148.08 89.3522 148.011 89.4169 147.929 89.4599C147.846 89.5028 147.754 89.5224 147.661 89.5164Z" fill="#D1D3D4"/>
<path d="M136.415 48.7434H130.711C129.746 48.7434 128.821 48.3609 128.138 47.6797C127.455 46.9985 127.07 46.0743 127.067 45.1097V41.2121C127.067 41.0775 127.12 40.9484 127.215 40.8532C127.311 40.7581 127.44 40.7046 127.574 40.7046H139.551C139.686 40.7046 139.815 40.7581 139.91 40.8532C140.005 40.9484 140.059 41.0775 140.059 41.2121V45.1097C140.056 46.0743 139.671 46.9985 138.988 47.6797C138.305 48.3609 137.38 48.7434 136.415 48.7434ZM128.122 41.7297V45.1198C128.125 45.8153 128.403 46.4813 128.896 46.9722C129.389 47.463 130.056 47.7385 130.751 47.7385H136.415C137.11 47.7385 137.778 47.463 138.27 46.9722C138.763 46.4813 139.041 45.8153 139.044 45.1198V41.7297H128.122Z" fill="#231F20"/>
<path d="M150.625 48.7434H144.911C144.433 48.7434 143.961 48.6494 143.52 48.4668C143.079 48.2842 142.679 48.0165 142.341 47.6791C142.004 47.3417 141.736 46.9411 141.553 46.5002C141.371 46.0594 141.277 45.5869 141.277 45.1097V41.2121C141.277 41.0775 141.33 40.9484 141.426 40.8532C141.521 40.7581 141.65 40.7046 141.784 40.7046H153.772C153.906 40.7046 154.035 40.7581 154.13 40.8532C154.226 40.9484 154.279 41.0775 154.279 41.2121V45.1097C154.278 45.5882 154.182 46.0618 153.998 46.5034C153.813 46.9449 153.544 47.3459 153.205 47.6833C152.865 48.0207 152.463 48.288 152.02 48.4699C151.578 48.6518 151.104 48.7447 150.625 48.7434ZM142.312 41.7297V45.1198C142.312 45.8144 142.588 46.4804 143.079 46.9715C143.57 47.4626 144.236 47.7385 144.931 47.7385H150.625C151.319 47.7359 151.983 47.4591 152.474 46.9686C152.964 46.4781 153.241 45.8135 153.244 45.1198V41.7297H142.312Z" fill="#231F20"/>
<path d="M144.941 41.7298H138.689C138.554 41.7298 138.425 41.6764 138.33 41.5812C138.235 41.486 138.181 41.3569 138.181 41.2223C138.181 41.0877 138.235 40.9587 138.33 40.8635C138.425 40.7683 138.554 40.7148 138.689 40.7148H144.941C145.076 40.7148 145.205 40.7683 145.3 40.8635C145.395 40.9587 145.448 41.0877 145.448 41.2223C145.448 41.3569 145.395 41.486 145.3 41.5812C145.205 41.6764 145.076 41.7298 144.941 41.7298Z" fill="#231F20"/>
<path d="M176.558 89.6479C178.71 82.756 182.648 80.3098 199.122 71.5301C215.595 62.7503 239.722 69.3783 248.42 74.5751C257.119 79.7719 263.513 87.4656 268.365 93.4947C273.217 99.5238 273.196 114.81 273.196 114.81H174.66C174.66 114.81 174.417 96.5397 176.558 89.6479Z" fill="#148532"/>
<path d="M247.842 115.358C247.717 115.358 247.596 115.312 247.504 115.227C247.411 115.142 247.355 115.026 247.344 114.901L245.396 91.7491C245.383 91.6145 245.425 91.4806 245.512 91.3768C245.598 91.2731 245.723 91.208 245.857 91.1959C245.992 91.1838 246.126 91.2256 246.23 91.3122C246.333 91.3989 246.398 91.5231 246.411 91.6577L248.349 114.81C248.356 114.876 248.35 114.943 248.33 115.007C248.311 115.07 248.279 115.129 248.237 115.18C248.194 115.232 248.142 115.274 248.083 115.304C248.023 115.335 247.959 115.353 247.892 115.358H247.842Z" fill="#231F20"/>
<path d="M220.548 17.3697C232.282 18.3847 237.803 24.0789 240.909 48.5302C243.386 67.8152 241.802 66.2927 254.368 78.087C254.368 78.087 242.919 93.7688 219.746 93.7688C205.767 93.7157 192.118 89.5156 180.527 81.7004C180.527 81.7004 198.046 71.0023 197.721 60.4869C196.574 23.886 208.815 16.3547 220.548 17.3697Z" fill="white"/>
<path d="M219.746 94.2868C205.662 94.1924 191.917 89.9565 180.222 82.1068C180.156 82.0559 180.102 81.9896 180.067 81.9136C180.032 81.8376 180.015 81.7541 180.019 81.6703C180.026 81.5884 180.051 81.509 180.093 81.4385C180.135 81.368 180.194 81.3084 180.263 81.2643C180.436 81.1628 197.518 70.6068 197.213 60.5076C196.604 40.9993 199.751 27.8347 206.572 21.3793C210.246 17.8979 214.966 16.3754 220.589 16.8626C233.591 17.9791 238.453 25.3683 241.417 48.4697C241.691 50.6316 241.924 52.5297 242.117 54.2146C243.69 67.4096 243.69 67.4096 254.632 77.6408L254.713 77.722C254.803 77.807 254.859 77.922 254.871 78.0454C254.882 78.1688 254.848 78.292 254.774 78.3919C254.662 78.5543 242.909 94.2868 219.746 94.2868ZM181.44 81.7312C192.845 89.1563 206.138 93.161 219.746 93.2718C226.16 93.3587 232.516 92.0513 238.375 89.4401C244.233 86.8288 249.455 82.9761 253.678 78.1483C242.726 67.8664 242.706 67.7648 241.112 54.3465C240.909 52.6616 240.686 50.7636 240.412 48.6118C237.215 23.6631 231.439 18.8317 220.508 17.8878C215.179 17.4209 210.723 18.852 207.313 22.1305C200.705 28.3727 197.67 41.2835 198.269 60.4873C198.533 70.1501 184.688 79.6404 181.44 81.7312Z" fill="#231F20"/>
<path d="M218.752 64.1412C226.017 64.1412 231.906 55.7297 231.906 45.3536C231.906 34.9774 226.017 26.5659 218.752 26.5659C211.487 26.5659 205.597 34.9774 205.597 45.3536C205.597 55.7297 211.487 64.1412 218.752 64.1412Z" fill="white"/>
<path d="M218.752 64.6486C206.744 64.6486 205.09 55.3715 205.09 45.3636C205.09 35.0106 205.09 26.0786 218.752 26.0786C232.414 26.0786 232.414 35.0208 232.414 45.3636C232.414 55.3715 230.81 64.6486 218.752 64.6486ZM218.752 27.0936C206.105 27.0936 206.105 34.7569 206.105 45.3636C206.105 56.3358 208.257 63.6336 218.752 63.6336C229.247 63.6336 231.399 56.3256 231.399 45.3636C231.399 34.7366 231.399 27.0733 218.752 27.0733V27.0936Z" fill="#231F20"/>
<path d="M216.346 42.4609C216.346 42.4609 211.342 48.3378 212.225 49.5659C213.108 50.7941 216.032 50.3881 216.032 50.3881" fill="white"/>
<path d="M214.956 50.9564C213.941 50.9564 212.479 50.7737 211.809 49.8602C210.845 48.5102 213.991 44.4401 215.961 42.1259C216.004 42.0752 216.057 42.0336 216.116 42.0034C216.176 41.9732 216.24 41.955 216.307 41.9498C216.373 41.9446 216.44 41.9525 216.503 41.9732C216.567 41.9938 216.625 42.0268 216.676 42.0701C216.727 42.1134 216.768 42.1663 216.799 42.2257C216.829 42.2851 216.847 42.3498 216.852 42.4163C216.857 42.4827 216.849 42.5496 216.829 42.6129C216.808 42.6763 216.775 42.735 216.732 42.7856C214.276 45.6682 212.367 48.6929 212.672 49.2613C213.24 50.053 215.311 49.9718 215.991 49.8805C216.124 49.8628 216.258 49.8974 216.366 49.9769C216.474 50.0564 216.547 50.1747 216.57 50.3068C216.587 50.4412 216.551 50.577 216.469 50.6852C216.388 50.7934 216.267 50.8652 216.133 50.8853C215.742 50.9311 215.349 50.9549 214.956 50.9564Z" fill="#231F20"/>
<path d="M211.601 41.1668C212.19 41.1609 212.66 40.4881 212.652 39.6641C212.644 38.8401 212.16 38.1768 211.571 38.1827C210.983 38.1886 210.512 38.8614 210.52 39.6854C210.529 40.5094 211.012 41.1727 211.601 41.1668Z" fill="#231F20"/>
<path d="M222.239 42.2135C222.828 42.2102 223.301 41.5395 223.297 40.7155C223.292 39.8915 222.811 39.2261 222.223 39.2294C221.634 39.2327 221.161 39.9034 221.165 40.7274C221.17 41.5514 221.651 42.2167 222.239 42.2135Z" fill="#231F20"/>
<path d="M212.54 53.7376L222.193 50.4287C222.689 51.6167 222.797 52.9315 222.5 54.1843C222.202 55.4372 221.516 56.5636 220.538 57.4018C216.793 61.1065 212.54 53.7376 212.54 53.7376Z" fill="white"/>
<path d="M218.265 58.985C218.109 59.0001 217.953 59.0001 217.798 58.985C214.753 58.579 212.215 54.2551 212.114 54.0622C212.081 53.9958 212.065 53.9229 212.065 53.8491C212.065 53.7752 212.081 53.7023 212.114 53.6359C212.142 53.5663 212.185 53.5033 212.239 53.4509C212.293 53.3985 212.358 53.3578 212.428 53.3314L222.071 50.0124C222.187 49.9724 222.314 49.9761 222.428 50.0228C222.542 50.0694 222.635 50.1559 222.69 50.2661C223.223 51.5514 223.341 52.9709 223.028 54.3266C222.715 55.6823 221.987 56.9063 220.944 57.8279C220.599 58.1917 220.183 58.4818 219.723 58.6806C219.262 58.8795 218.766 58.983 218.265 58.985ZM213.322 54.0419C214.063 55.1584 215.94 57.6756 217.93 57.9395C218.348 57.9892 218.772 57.9356 219.165 57.7834C219.558 57.6313 219.907 57.3852 220.183 57.0666C221.02 56.345 221.628 55.3955 221.935 54.334C222.241 53.2725 222.232 52.1448 221.908 51.0883L213.322 54.0419Z" fill="#231F20"/>
<path d="M197.619 115.358C197.485 115.358 197.356 115.304 197.261 115.209C197.165 115.114 197.112 114.985 197.112 114.85V94.6823C197.112 94.5477 197.165 94.4186 197.261 94.3235C197.356 94.2283 197.485 94.1748 197.619 94.1748C197.754 94.1748 197.883 94.2283 197.978 94.3235C198.074 94.4186 198.127 94.5477 198.127 94.6823V114.81C198.133 114.88 198.124 114.95 198.101 115.016C198.078 115.083 198.041 115.144 197.994 115.195C197.946 115.247 197.888 115.288 197.824 115.316C197.759 115.344 197.69 115.358 197.619 115.358Z" fill="#231F20"/>
<path d="M49.196 70.1498C49.196 70.1498 31.464 70.7182 24.4808 83.5478C17.4976 96.3774 17.2032 115.013 17.2032 115.013H98.2206C98.2206 115.013 89.187 84.2076 76.9766 76.8387C64.7662 69.4698 49.196 70.1498 49.196 70.1498Z" fill="#148532"/>
<path d="M29.4746 110.212C29.397 110.215 29.3201 110.197 29.2513 110.161C29.1912 110.132 29.1375 110.091 29.0933 110.041C29.049 109.991 29.0151 109.933 28.9934 109.87C28.9717 109.807 28.9627 109.74 28.9669 109.673C28.9711 109.607 28.9884 109.541 29.0179 109.481C29.3528 108.73 33.423 94.1244 36.1229 84.4819C36.1408 84.4153 36.1718 84.3528 36.2139 84.2981C36.2561 84.2434 36.3085 84.1976 36.3684 84.1632C36.4282 84.1288 36.4943 84.1065 36.5627 84.0976C36.6312 84.0887 36.7007 84.0934 36.7674 84.1114C36.834 84.1294 36.8965 84.1604 36.9512 84.2025C37.0058 84.2446 37.0517 84.2971 37.0861 84.357C37.1205 84.4168 37.1428 84.4829 37.1517 84.5513C37.1605 84.6198 37.1558 84.6893 37.1379 84.756C36.4477 87.2427 30.4287 109.116 30.0329 109.938C29.982 110.038 29.9001 110.119 29.7995 110.168C29.6988 110.218 29.5848 110.233 29.4746 110.212Z" fill="#231F20"/>
<path d="M58.7066 24.6272C58.7066 24.6272 63.1726 13.2389 51.6016 10.3563C40.0306 7.47368 29.4848 15.0456 30.855 25.2159C32.2253 35.3862 39.99 35.5486 39.99 35.5486L58.7066 24.6272Z" fill="white"/>
<path d="M39.99 36.0559C39.9088 36.0559 31.799 35.7616 30.3983 25.2868C30.0902 23.1127 30.3351 20.8961 31.1104 18.8417C31.8856 16.7874 33.1662 14.9616 34.8338 13.5331C39.1679 9.66594 45.5116 8.28554 51.8046 9.85879C55.2962 10.7317 57.7221 12.4572 59.0213 14.9845C61.2949 19.3896 59.3055 24.5864 59.2141 24.8097C59.1693 24.9133 59.0952 25.0015 59.001 25.0635L40.2133 35.9849C40.1463 36.0276 40.0694 36.0521 39.99 36.0559ZM46.6484 10.2648C42.5536 10.1959 38.5776 11.6417 35.4834 14.3248C33.9486 15.6481 32.772 17.3368 32.0624 19.235C31.3528 21.1332 31.133 23.1797 31.4234 25.1853C32.6313 34.168 38.8634 34.9902 39.9088 35.0714L58.26 24.2819C58.5645 23.3989 59.9043 19.0242 58.057 15.4413C56.8898 13.188 54.6771 11.6452 51.49 10.8433C49.9052 10.4567 48.2797 10.2624 46.6484 10.2648Z" fill="#231F20"/>
<path d="M41.8474 25.7946C43.5605 24.7337 45.4576 24.0038 47.4401 23.6428C52.8805 22.5365 59.0923 23.5109 62.8985 27.5607C61.102 26.1905 58.5848 27.2461 56.4533 27.9667C54.5857 28.596 52.6369 28.9817 50.7591 29.5095C48.2474 30.2917 45.8936 31.5115 43.8064 33.1128C42.5478 34.0669 39.7464 38.1878 38.2645 38.0863C35.5849 37.8934 36.7623 33.2346 37.2495 31.8339C38.0721 29.3677 39.6891 27.2438 41.8474 25.7946Z" fill="#D1D3D4"/>
<path d="M38.3153 38.6137H38.2239C37.8915 38.5993 37.5673 38.5063 37.2779 38.3422C36.9885 38.1781 36.7422 37.9476 36.5593 37.6697C35.3616 35.8427 36.6101 32.0872 36.7522 31.6609C37.6102 29.0834 39.2986 26.8632 41.5531 25.3476C43.3224 24.2542 45.2816 23.5036 47.3285 23.1349C52.2512 22.1199 59.0213 22.668 63.2741 27.1949C63.3648 27.291 63.4153 27.4181 63.4153 27.5502C63.4153 27.6822 63.3648 27.8093 63.2741 27.9054C63.1861 28.0041 63.0643 28.0662 62.9327 28.0793C62.8011 28.0925 62.6694 28.0558 62.5636 27.9765C61.1528 26.8904 59.1228 27.5908 57.1638 28.2708L56.6157 28.4637C55.6007 28.8088 54.5045 29.0727 53.4692 29.3264C52.6268 29.5294 51.7437 29.7527 50.9013 30.0065C48.4509 30.7708 46.1554 31.9633 44.1211 33.5285C43.5264 34.0607 42.9733 34.6375 42.4666 35.254C40.7411 37.213 39.4216 38.6137 38.3153 38.6137ZM51.6118 23.7439C50.2478 23.7441 48.8874 23.8835 47.5518 24.1601C45.6354 24.4852 43.799 25.1743 42.1418 26.1901C40.0784 27.5737 38.5353 29.6061 37.757 31.9654C37.2495 33.427 36.742 36.0254 37.4424 37.0404C37.5347 37.1882 37.6635 37.3097 37.8164 37.3932C37.9692 37.4768 38.141 37.5195 38.3153 37.5175C38.9953 37.5175 40.6904 35.6499 41.6952 34.4725C42.2468 33.8029 42.851 33.1784 43.5019 32.6049C45.6335 30.9659 48.0392 29.7184 50.6069 28.9204C51.4798 28.6464 52.373 28.4332 53.2459 28.2201C54.1188 28.0069 55.2759 27.7126 56.2909 27.3776L56.8289 27.1949C58.0763 26.6884 59.3944 26.3769 60.7366 26.2713C58.024 24.5178 54.84 23.6359 51.6118 23.7439Z" fill="#231F20"/>
<path d="M70.3385 28.3419C63.7994 24.9976 56.2314 24.2717 49.1758 26.3119C42.3854 28.3419 38.1326 33.8635 36.5492 40.6742C35.453 45.3533 34.6004 52.57 38.4168 56.0413C42.5881 59.7448 47.7755 62.1103 53.3068 62.8316C59.0923 63.735 66.2785 63.603 71.0896 59.8678C73.4923 57.8472 75.4532 55.3535 76.8502 52.5421C78.2472 49.7306 79.0503 46.6617 79.2096 43.5263C79.4532 36.3198 75.6876 31.2854 70.3385 28.3419Z" fill="white"/>
<path d="M59.0314 63.8468C57.087 63.8398 55.1461 63.6837 53.2256 63.3799C47.5988 62.6463 42.3225 60.2381 38.0818 56.4678C34.1842 52.9254 34.8236 45.8915 36.0518 40.6135C37.7874 33.1837 42.5173 27.8143 49.0336 25.8757C56.2145 23.8004 63.9151 24.5259 70.5821 27.9057C73.4596 29.3598 75.854 31.6169 77.4753 34.4037C79.0965 37.1905 79.8752 40.3875 79.7171 43.6077C79.554 46.8092 78.7368 49.9432 77.3158 52.8166C75.8948 55.69 73.9002 58.2418 71.455 60.3146C67.8314 63.045 63.1117 63.8468 59.0314 63.8468ZM57.245 25.7234C54.5563 25.7178 51.8805 26.0937 49.2975 26.8399C43.0451 28.6974 38.6908 33.6709 37.016 40.8469C36.0619 44.9069 34.986 52.3367 38.7415 55.7167C42.8323 59.3567 47.9264 61.6773 53.3575 62.3751C57.6205 63.0551 65.5375 63.5728 70.7648 59.5128C73.1083 57.5394 75.022 55.106 76.3872 52.3632C77.7525 49.6204 78.5404 46.6266 78.7021 43.5671C78.9558 35.4471 74.1549 31.0217 70.0746 28.7887C66.115 26.7279 61.7085 25.6751 57.245 25.7234Z" fill="#231F20"/>
<path d="M64.7662 69.5107L65.639 81.7516C65.639 81.7516 64.4515 87.4559 56.1184 86.1364C47.7852 84.8169 46.1409 79.2852 46.1409 79.2852L45.3391 56.3969C45.3391 56.3969 57.6003 48.5713 54.7684 35.5488C54.7684 35.5488 60.5336 42.6538 72.5613 40.1366C72.5613 40.1366 73.6779 54.7222 73.1907 61.1268C72.7035 67.5315 64.7662 69.5107 64.7662 69.5107Z" fill="white"/>
<path d="M58.4731 86.8367C57.6604 86.8338 56.8492 86.766 56.0473 86.6337C47.501 85.2736 45.7247 79.6707 45.6537 79.4271C45.6481 79.3833 45.6481 79.339 45.6537 79.2952L44.8518 56.4171C44.8384 56.3255 44.8513 56.2321 44.8891 56.1476C44.9268 56.0631 44.9878 55.9911 45.065 55.94C45.1766 55.8588 56.9912 48.1347 54.271 35.64C54.2459 35.5283 54.2592 35.4113 54.309 35.3081C54.3587 35.2049 54.442 35.1215 54.5451 35.0716C54.6494 35.0232 54.7669 35.0108 54.879 35.0366C54.9911 35.0623 55.0915 35.1246 55.1642 35.2137C55.1642 35.2848 60.9091 42.0345 72.4192 39.6188C72.5613 39.5969 72.7063 39.6295 72.8252 39.7102C72.8848 39.7538 72.934 39.8101 72.9691 39.8751C73.0042 39.94 73.0244 40.012 73.0282 40.0858C73.0282 40.2279 74.1346 54.7728 73.6575 61.147C73.2211 67.0543 66.9687 69.3482 65.2635 69.8658L66.1059 81.6906C66.111 81.7378 66.111 81.7855 66.1059 81.8327C66.1262 81.9037 65.0097 86.8367 58.4731 86.8367ZM46.6484 79.1937C46.8514 79.7926 48.6784 84.4412 56.1995 85.6288C63.5481 86.796 64.9691 82.33 65.1315 81.7109L64.2688 69.5309C64.2601 69.4129 64.2928 69.2957 64.3614 69.1993C64.43 69.1029 64.5301 69.0335 64.6443 69.0031C64.7255 69.0031 72.2467 67.0441 72.6933 61.0759C73.1094 55.4934 72.2974 43.4961 72.1046 40.7759C63.1929 42.4507 57.7626 38.9895 55.5398 37.061C57.0217 48.3275 47.5111 55.5239 45.8567 56.6912L46.6484 79.1937Z" fill="#231F20"/>
<path d="M49.125 55.4323C48.7596 54.3329 48.0473 53.3819 47.095 52.7222C46.1765 52.1522 45.1672 51.7437 44.1109 51.5144C43.5493 51.3263 42.9526 51.2673 42.3651 51.3418C41.959 51.4382 41.5761 51.6141 41.2384 51.8595C40.3861 52.3563 39.7439 53.1465 39.4317 54.0823C39.2657 54.8587 39.2936 55.664 39.5129 56.427C39.6793 57.2714 39.9557 58.0904 40.3351 58.863C40.7362 59.6227 41.2838 60.2955 41.9462 60.8425C42.6087 61.3896 43.373 61.7999 44.1949 62.05C45.0169 62.3001 45.8802 62.3849 46.7351 62.2995C47.5899 62.2142 48.4195 61.9604 49.1757 61.5527" fill="white"/>
<path d="M46.08 62.8418C45.3919 62.8424 44.7076 62.7398 44.05 62.5373C43.1641 62.2657 42.3405 61.8219 41.6264 61.2315C40.9123 60.6411 40.3217 59.9155 39.8885 59.0965C39.4848 58.283 39.1913 57.4195 39.0156 56.5285C38.7861 55.6724 38.7722 54.7727 38.975 53.9098C39.3245 52.8527 40.0458 51.9582 41.005 51.3926C41.4003 51.1153 41.8446 50.9156 42.3143 50.8039C42.9792 50.7057 43.6579 50.7683 44.2936 50.9866C45.4042 51.2313 46.4649 51.6638 47.4299 52.2655C48.4758 52.9853 49.2595 54.0255 49.6629 55.2293C49.6843 55.296 49.6922 55.3662 49.6864 55.4359C49.6806 55.5057 49.6612 55.5735 49.6291 55.6358C49.5971 55.698 49.5531 55.7533 49.4997 55.7985C49.4463 55.8437 49.3845 55.8779 49.3178 55.8992C49.2512 55.9206 49.181 55.9286 49.1113 55.9228C49.0415 55.917 48.9736 55.8975 48.9114 55.8654C48.8492 55.8334 48.7939 55.7894 48.7487 55.736C48.7035 55.6826 48.6693 55.6208 48.6479 55.5541C48.3153 54.5565 47.6668 53.6942 46.8006 53.0978C45.9501 52.584 45.0208 52.2136 44.05 52.0016C43.5642 51.8357 43.0476 51.7802 42.5376 51.8392C42.1919 51.9197 41.8668 52.0719 41.5835 52.2858C40.8437 52.7231 40.28 53.4053 39.99 54.2143C39.8483 54.9116 39.8797 55.633 40.0813 56.3154C40.2309 57.1167 40.4941 57.8925 40.8629 58.6194C41.2311 59.3174 41.7337 59.9358 42.3417 60.4389C42.9498 60.942 43.6513 61.32 44.4059 61.5511C45.1604 61.7821 45.9533 61.8618 46.7388 61.7855C47.5243 61.7091 48.2869 61.4783 48.9829 61.1062C49.0415 61.074 49.1059 61.0538 49.1723 61.0466C49.2388 61.0394 49.306 61.0454 49.3702 61.0643C49.4343 61.0831 49.4941 61.1145 49.5461 61.1565C49.598 61.1985 49.6412 61.2504 49.6731 61.3092C49.7353 61.4281 49.749 61.5666 49.7111 61.6953C49.6732 61.8241 49.5868 61.9331 49.4701 61.9994C48.4293 62.562 47.263 62.8519 46.08 62.8418Z" fill="#231F20"/>
<path d="M62.726 49.7788C62.726 49.7788 67.73 55.6557 66.8469 56.8838C65.9639 58.112 63.0407 57.706 63.0407 57.706" fill="white"/>
<path d="M64.1165 58.2743C63.7332 58.2716 63.3503 58.2479 62.9696 58.2032C62.8356 58.1831 62.7148 58.1112 62.6332 58.0031C62.5516 57.8949 62.5157 57.759 62.5331 57.6247C62.5556 57.4925 62.6285 57.3743 62.7364 57.2948C62.8443 57.2153 62.9788 57.1807 63.1117 57.1984C63.7917 57.2897 65.8623 57.3709 66.4307 56.5792C66.7048 56.021 64.7966 52.9861 62.3707 50.1035C62.2832 50.0012 62.24 49.8684 62.2504 49.7342C62.2609 49.6 62.3243 49.4754 62.4266 49.3879C62.5289 49.3005 62.6617 49.2572 62.7959 49.2677C62.9301 49.2781 63.0546 49.3415 63.1421 49.4438C65.1112 51.758 68.2171 55.8281 67.2935 57.1781C66.5931 58.0916 65.1518 58.2743 64.1165 58.2743Z" fill="#231F20"/>
<path d="M66.5221 61.0656L56.8695 57.7466C56.3726 58.9345 56.2651 60.2494 56.5624 61.5022C56.8597 62.7551 57.5464 63.8815 58.5239 64.7196C62.32 68.4244 66.5221 61.0656 66.5221 61.0656Z" fill="white"/>
<path d="M60.8076 66.2727C60.3099 66.2601 59.8199 66.1475 59.3665 65.9418C58.9132 65.736 58.5058 65.4413 58.1686 65.075C57.1262 64.1535 56.3977 62.9294 56.0847 61.5737C55.7717 60.218 55.8899 58.7985 56.4228 57.5132C56.4774 57.4053 56.5688 57.3204 56.6805 57.2739C56.7921 57.2274 56.9167 57.2223 57.0318 57.2595L66.6845 60.5785C66.755 60.605 66.8194 60.6456 66.8735 60.698C66.9277 60.7504 66.9704 60.8134 66.9991 60.883C67.0314 60.9494 67.0482 61.0223 67.0482 61.0962C67.0482 61.17 67.0314 61.2429 66.9991 61.3093C66.8976 61.5022 64.3703 65.8261 61.3151 66.2422C61.1469 66.2643 60.9773 66.2745 60.8076 66.2727ZM57.1638 58.376C56.8404 59.4324 56.8313 60.5602 57.1377 61.6217C57.4441 62.6832 58.0527 63.6327 58.8893 64.3543C59.165 64.6729 59.5145 64.919 59.9073 65.0711C60.3001 65.2233 60.7243 65.2769 61.1426 65.2272C63.1726 64.9633 65.0097 62.4461 65.7507 61.3296L57.1638 58.376Z" fill="#231F20"/>
<path d="M59.9043 48.5708C59.8107 48.5676 59.7196 48.5396 59.6404 48.4896C57.1131 46.9468 55.5804 47.4746 55.5804 47.5355C55.4597 47.5723 55.3296 47.5627 55.2156 47.5088C55.1015 47.4549 55.0117 47.3604 54.9635 47.2438C54.9153 47.1271 54.9123 46.9968 54.9551 46.8781C54.9978 46.7593 55.0833 46.6608 55.1947 46.6017C55.2759 46.6017 57.2247 45.7897 60.1987 47.6167C60.2562 47.6511 60.3064 47.6966 60.3463 47.7505C60.3862 47.8045 60.415 47.8658 60.431 47.9309C60.4471 47.996 60.45 48.0637 60.4398 48.1299C60.4295 48.1962 60.4062 48.2598 60.3712 48.317C60.3236 48.3976 60.255 48.4637 60.1728 48.5084C60.0906 48.5531 59.9978 48.5746 59.9043 48.5708Z" fill="#231F20"/>
<path d="M66.1465 48.5812C66.076 48.5823 66.006 48.5684 65.9413 48.5404C65.8765 48.5124 65.8185 48.4709 65.771 48.4188C65.7234 48.3716 65.6857 48.3155 65.6599 48.2536C65.6341 48.1918 65.6208 48.1254 65.6208 48.0584C65.6208 47.9914 65.6341 47.9251 65.6599 47.8633C65.6857 47.8014 65.7234 47.7453 65.771 47.6981C65.8199 47.6491 65.8787 47.6111 65.9434 47.5866C66.0082 47.5621 66.0774 47.5517 66.1465 47.556L66.5525 47.3327C67.5066 46.7846 69.4859 45.6377 71.4042 46.4497C71.4719 46.4703 71.5345 46.5048 71.5881 46.5511C71.6416 46.5973 71.6849 46.6542 71.7151 46.7182C71.7454 46.7821 71.7619 46.8517 71.7637 46.9225C71.7655 46.9932 71.7524 47.0635 71.7254 47.1289C71.6984 47.1943 71.658 47.2533 71.6069 47.3022C71.5557 47.351 71.4949 47.3887 71.4283 47.4126C71.3618 47.4366 71.2909 47.4464 71.2203 47.4414C71.1498 47.4363 71.081 47.4166 71.0185 47.3835C69.5569 46.7745 67.9735 47.7083 67.06 48.2056C66.7911 48.4041 66.4773 48.5331 66.1465 48.5812Z" fill="#231F20"/>
<path d="M64.7662 69.5103C64.7662 69.5103 58.4021 69.825 55.3571 68.2314C55.3571 68.2314 58.1687 75.3364 65.1722 76.8792L64.7662 69.5103Z" fill="#231F20"/>
<path d="M65.1722 77.3869H65.0707C57.8845 75.8441 55.012 68.729 54.9207 68.4245C54.8838 68.329 54.8767 68.2246 54.9002 68.1249C54.9238 68.0253 54.9769 67.9351 55.0526 67.8662C55.1285 67.7972 55.2238 67.7534 55.3256 67.7407C55.4273 67.7279 55.5305 67.747 55.621 67.7952C58.5138 69.2974 64.756 69.0132 64.756 69.0132C64.8222 69.0091 64.8885 69.0182 64.951 69.0401C65.0136 69.062 65.0712 69.0962 65.1203 69.1406C65.1695 69.185 65.2093 69.2389 65.2374 69.2989C65.2655 69.359 65.2812 69.424 65.2838 69.4902L65.6898 76.8591C65.6955 76.9286 65.6866 76.9986 65.6635 77.0644C65.6404 77.1302 65.6038 77.1904 65.5559 77.2412C65.5081 77.2919 65.4501 77.332 65.3857 77.3589C65.3213 77.3857 65.252 77.3987 65.1823 77.3971L65.1722 77.3869ZM56.3924 69.1959C57.4074 71.1345 60.0667 74.9611 64.6342 76.2298L64.2891 70.0282C61.6303 70.1398 58.9695 69.8594 56.3924 69.1959Z" fill="#231F20"/>
<path d="M33.2402 114.374C35.1281 107.441 28.7336 95.2611 26.9066 89.1406C25.2217 83.5074 17.4874 68.6985 18.949 62.913C18.949 62.913 22.4914 48.8553 19.1114 50.9563C17.2032 52.1439 15.8736 57.9395 15.8736 57.9395C15.8736 57.9395 13.7827 45.1505 10.4535 43.8412C7.12427 42.5318 0.526765 50.9462 1.51131 54.4987C4.77961 66.2219 6.03821 78.6354 7.50996 90.6733C8.83961 101.432 8.58586 118.697 23.415 119.499C29.5355 119.824 32.3369 117.703 33.2402 114.374Z" fill="white"/>
<path d="M24.6026 120.037C24.2067 120.037 23.8007 120.037 23.3846 120.037C9.86479 119.316 8.46409 105.137 7.43894 94.7736C7.29684 93.3729 7.16489 92.0331 7.01264 90.7745C6.86039 89.5159 6.67769 88.0137 6.50514 86.6232C5.22624 75.9961 3.90674 65.0138 1.02414 54.671C0.333943 52.1842 2.87144 47.7893 5.68299 45.2619C7.57089 43.5567 9.32684 42.9071 10.6362 43.4146C13.3665 44.4905 15.1935 51.8696 15.9751 55.7063C16.5638 53.8488 17.5483 51.3722 18.8475 50.5704C19.0531 50.3923 19.3117 50.2868 19.5832 50.2703C19.8547 50.2538 20.1241 50.3271 20.3497 50.479C22.126 51.7782 20.096 60.4463 19.4362 63.0752C18.4212 67.0134 22.0854 75.7728 24.7345 82.1775C25.8916 84.9586 26.8965 87.3641 27.3938 89.0389C27.8912 90.7136 28.6626 92.6421 29.505 94.7939C32.0324 101.239 35.1789 109.258 33.7376 114.556C32.7327 118.18 29.6674 120.037 24.6026 120.037ZM9.69224 44.2165C8.41323 44.4004 7.23708 45.0207 6.36304 45.9724C3.56164 48.4997 1.48089 52.4989 1.99854 54.3563C4.90144 64.7804 6.23109 75.8033 7.50999 86.4608C7.68254 87.8513 7.84494 89.2317 8.01749 90.6121C8.19004 91.9925 8.31184 93.2308 8.44379 94.6721C9.45879 105.228 10.7884 118.352 23.4455 119.032C28.7539 119.316 31.8091 117.763 32.753 114.282C34.1131 109.308 31.0275 101.462 28.5611 95.1593C27.7085 92.9872 26.9066 90.9369 26.4194 89.3231C25.9322 87.7092 24.9477 85.324 23.8007 82.5632C20.9384 75.6713 17.3758 67.0945 18.4517 62.8315C19.7407 57.7565 20.5629 51.8898 19.7509 51.3011C19.7509 51.3011 19.5986 51.3012 19.3855 51.4331C17.9645 52.3162 16.7262 56.5081 16.3405 58.0915C16.3185 58.2079 16.2548 58.3123 16.1614 58.3852C16.068 58.458 15.9513 58.4943 15.833 58.4874C15.7154 58.4823 15.6031 58.4373 15.5145 58.3598C15.426 58.2823 15.3665 58.1769 15.3458 58.0611C14.7774 54.5796 12.7474 45.3431 10.2708 44.3586C10.0895 44.2728 9.89269 44.2244 9.69224 44.2165Z" fill="#231F20"/>
<path d="M8.59601 64.06H8.47421C8.34387 64.0286 8.23122 63.947 8.16086 63.8329C8.0905 63.7188 8.06814 63.5815 8.09866 63.451C9.11366 59.5737 15.4574 57.6046 15.7315 57.5234C15.8539 57.5011 15.9802 57.5245 16.0865 57.5892C16.1927 57.654 16.2715 57.7555 16.3078 57.8745C16.3442 57.9935 16.3355 58.1217 16.2835 58.2347C16.2315 58.3477 16.1398 58.4377 16.0258 58.4876C15.9649 58.4876 9.93581 60.3755 9.08321 63.6946C9.05398 63.8008 8.99026 63.8944 8.90208 63.9605C8.81389 64.0267 8.70623 64.0617 8.59601 64.06Z" fill="#231F20"/>
<path d="M79.2299 115.561C79.11 115.56 78.9942 115.517 78.9032 115.439C78.8122 115.361 78.7517 115.253 78.7325 115.135L74.3477 86.3901C74.3301 86.2573 74.3646 86.1227 74.4441 86.0148C74.5236 85.9069 74.6419 85.834 74.774 85.8116C74.8402 85.8 74.908 85.8021 74.9734 85.8175C75.0387 85.8328 75.1003 85.8613 75.1543 85.9012C75.2084 85.941 75.2538 85.9914 75.2879 86.0492C75.322 86.1071 75.344 86.1713 75.3526 86.2379L79.7374 114.962C79.7548 115.094 79.72 115.227 79.6403 115.334C79.5606 115.44 79.4424 115.511 79.3111 115.531L79.2299 115.561Z" fill="#231F20"/>
<path d="M43.6136 97.5549C43.5535 97.5692 43.4909 97.5692 43.4309 97.5549C43.3688 97.5303 43.3123 97.4937 43.2644 97.4472C43.2166 97.4007 43.1783 97.3453 43.1519 97.284C43.1255 97.2227 43.1115 97.1568 43.1106 97.0901C43.1097 97.0234 43.1219 96.9572 43.1467 96.8952L48.6073 83.0912C48.6572 82.966 48.7546 82.8657 48.8784 82.8124C49.0021 82.7591 49.1419 82.7572 49.2671 82.807C49.3923 82.8568 49.4925 82.9543 49.5458 83.078C49.5991 83.2017 49.6011 83.3415 49.5513 83.4667L44.05 97.2707C44.0089 97.3524 43.9468 97.4218 43.8701 97.4717C43.7935 97.5216 43.7049 97.5503 43.6136 97.5549Z" fill="#231F20"/>
<path d="M50.3836 88.3387C50.3299 88.3484 50.2749 88.3484 50.2212 88.3387L44.3342 86.3899C44.208 86.3459 44.1037 86.2547 44.0431 86.1355C43.9826 86.0164 43.9705 85.8783 44.0094 85.7504C44.0555 85.6234 44.1486 85.519 44.2695 85.4585C44.3903 85.3981 44.5297 85.3864 44.659 85.4257L50.546 87.3948C50.6727 87.4408 50.7765 87.5344 50.8352 87.6557C50.894 87.777 50.9031 87.9164 50.8607 88.0444C50.8199 88.1357 50.7527 88.2126 50.6676 88.2651C50.5825 88.3176 50.4835 88.3433 50.3836 88.3387Z" fill="#231F20"/>
<path d="M49.125 93.0989C49.0611 93.1095 48.996 93.1095 48.9321 93.0989L42.9436 90.6832C42.8816 90.6586 42.825 90.622 42.7772 90.5755C42.7293 90.529 42.6911 90.4735 42.6647 90.4122C42.6383 90.351 42.6242 90.2851 42.6233 90.2184C42.6224 90.1517 42.6347 90.0854 42.6594 90.0234C42.684 89.9614 42.7206 89.9049 42.7671 89.857C42.8136 89.8092 42.8691 89.7709 42.9304 89.7445C42.9916 89.7181 43.0575 89.7041 43.1242 89.7032C43.1909 89.7023 43.2572 89.7145 43.3192 89.7392L49.3077 92.1549C49.4423 92.1792 49.5617 92.2559 49.6398 92.3682C49.7178 92.4805 49.748 92.6192 49.7238 92.7538C49.6996 92.8884 49.6229 93.0079 49.5106 93.0859C49.3983 93.1639 49.2596 93.1942 49.125 93.1699V93.0989Z" fill="#231F20"/>
<path d="M220.071 76.2399C215.461 76.171 210.88 75.4884 206.45 74.2099C206.321 74.1743 206.212 74.0893 206.145 73.9734C206.079 73.8575 206.06 73.72 206.095 73.5908C206.111 73.5251 206.141 73.4635 206.182 73.4097C206.222 73.3558 206.274 73.3109 206.333 73.2777C206.392 73.2444 206.457 73.2235 206.524 73.2163C206.591 73.209 206.659 73.2156 206.724 73.2355C218.254 76.3617 226.08 75.0524 230.617 73.4081C233.291 72.5324 235.724 71.0449 237.722 69.0639C237.81 68.9616 237.934 68.8982 238.068 68.8878C238.203 68.8773 238.335 68.9206 238.438 69.0081C238.54 69.0955 238.603 69.2201 238.614 69.3543C238.624 69.4885 238.581 69.6213 238.494 69.7236C238.28 70.089 232.84 76.2399 220.071 76.2399Z" fill="#D1D3D4"/>
<path d="M174.66 115.358C174.541 115.36 174.426 115.319 174.334 115.242C174.243 115.166 174.182 115.059 174.163 114.942C171.625 100.306 177.411 86.2784 177.472 86.1363C177.525 86.0146 177.624 85.9183 177.747 85.8672C177.87 85.8162 178.007 85.8144 178.131 85.8623C178.194 85.8878 178.25 85.9255 178.298 85.9731C178.346 86.0208 178.383 86.0774 178.409 86.1398C178.434 86.2021 178.447 86.2689 178.447 86.3363C178.446 86.4037 178.432 86.4703 178.406 86.5322C178.355 86.6641 172.681 100.428 175.158 114.769C175.181 114.901 175.152 115.037 175.076 115.147C175 115.258 174.883 115.333 174.752 115.358H174.66Z" fill="#231F20"/>
</svg>
