<svg width="245" height="199" viewBox="0 0 245 199" fill="none" xmlns="http://www.w3.org/2000/svg">
<path d="M211.943 170.692H82.1606L101.574 19.3567H231.356L211.943 170.692Z" fill="white"/>
<path d="M211.942 171.049H82.1604C81.9566 171.049 81.8037 170.896 81.8037 170.692C81.8037 170.692 81.8037 170.692 81.8037 170.642L101.217 19.3057C101.217 19.1019 101.37 19 101.574 19H231.356C231.458 19 231.56 19.051 231.611 19.1019C231.662 19.2038 231.713 19.3057 231.713 19.4076L212.299 170.743C212.299 170.947 212.146 171.1 211.942 171.049ZM82.568 170.336H211.637L230.948 19.7134H101.88L82.568 170.336Z" fill="#231F20"/>
<path d="M212.503 37.8023H130.262C128.733 37.8533 127.459 36.6304 127.408 35.1017C127.408 34.9489 127.408 34.745 127.459 34.5922L127.663 32.9107C127.918 31.0763 129.446 29.7515 131.281 29.7005H213.522C215.05 29.6496 216.324 30.8725 216.375 32.4011C216.375 32.554 216.375 32.7578 216.324 32.9107L216.121 34.5922C215.866 36.3756 214.337 37.7514 212.503 37.8023Z" fill="#D1D3D4"/>
<path d="M118.695 31.0253H111.357C111.153 31.0253 111 30.8724 111 30.6686C111 30.4648 111.153 30.3119 111.357 30.3119H118.695C118.898 30.3119 119.051 30.4648 119.051 30.6686C119.051 30.8724 118.898 31.0253 118.695 31.0253Z" fill="#231F20"/>
<path d="M118.287 34.2355H110.95C110.746 34.2355 110.593 34.0826 110.593 33.8788C110.593 33.675 110.746 33.5221 110.95 33.5221H118.287C118.491 33.5221 118.644 33.675 118.644 33.8788C118.644 34.0826 118.491 34.2355 118.287 34.2355Z" fill="#231F20"/>
<path d="M117.88 37.4457H110.542C110.338 37.4457 110.186 37.2928 110.186 37.089C110.186 36.8852 110.338 36.7323 110.542 36.7323H117.88C118.084 36.7323 118.236 36.8852 118.236 37.089C118.236 37.2928 118.084 37.4457 117.88 37.4457Z" fill="#231F20"/>
<path d="M207.255 77.4451H112.275C107.638 77.4451 104.377 73.6744 104.988 69.0885L106.568 56.9103C107.179 52.2734 111.358 48.5537 115.994 48.5537H210.974C215.611 48.5537 218.872 52.3244 218.261 56.9103L216.681 69.0885C216.019 73.7763 211.993 77.2922 207.255 77.4451Z" fill="white"/>
<path d="M207.254 77.7509H112.275C110.033 77.8018 107.892 76.8846 106.415 75.2031C104.937 73.4706 104.275 71.2286 104.631 68.9866L106.211 56.7575C106.822 51.9677 111.205 48.0952 115.994 48.0952H210.974C213.216 48.0442 215.356 48.9614 216.834 50.6429C218.312 52.3754 218.974 54.6174 218.617 56.8594L217.038 69.0376C216.426 73.8783 212.044 77.7509 207.254 77.7509ZM115.994 48.8595C111.408 48.9614 107.587 52.3754 106.924 56.9103L105.345 69.0885C105.039 71.1267 105.65 73.1649 106.975 74.7445C108.3 76.2732 110.287 77.0884 112.275 77.0375H207.254C211.687 77.0375 215.764 73.4197 216.324 68.9866L217.904 56.7575C218.21 54.7193 217.598 52.6811 216.273 51.1015C214.898 49.6238 213.012 48.8085 210.974 48.8085H115.994V48.8595Z" fill="#231F20"/>
<path d="M131.042 69.8051C135.352 65.7617 135.958 59.4059 132.396 55.609C128.834 51.8121 122.452 52.012 118.142 56.0554C113.832 60.0989 113.226 66.4547 116.788 70.2516C120.35 74.0484 126.732 73.8486 131.042 69.8051Z" fill="#8E59FF"/>
<path d="M131.485 59.7639C131.434 59.8658 131.332 59.9677 131.23 60.0696L122.72 67.6109C122.415 67.8657 122.211 67.8657 122.007 67.6109L118.338 63.2288C118.134 62.974 118.185 62.7702 118.44 62.5664L119.612 61.5982C119.867 61.3944 120.071 61.3944 120.223 61.5982C120.937 62.4645 121.701 63.3307 122.415 64.146C122.618 64.4008 122.822 64.4008 123.128 64.146L129.752 58.2862C130.058 58.0314 130.262 58.0314 130.465 58.2862C130.771 58.5919 131.026 58.9486 131.332 59.3053C131.383 59.4072 131.434 59.5091 131.485 59.611V59.7639Z" fill="white"/>
<path d="M205.165 58.5919H144.121C143.51 58.5919 143.051 58.1333 143.051 57.5218C143.051 56.9104 143.51 56.4518 144.121 56.4518H205.165C205.777 56.4518 206.235 56.9104 206.235 57.5218C206.235 58.0823 205.726 58.5919 205.165 58.5919Z" fill="#D1D3D4"/>
<path d="M191.357 68.8849H142.746C142.134 68.8849 141.676 68.4263 141.676 67.8148C141.676 67.2033 142.134 66.7448 142.746 66.7448H191.357C191.968 66.7448 192.427 67.2033 192.427 67.8148C192.427 68.3753 191.968 68.8849 191.357 68.8849Z" fill="#D1D3D4"/>
<path d="M202.974 110.871H107.994C103.358 110.871 100.097 107.152 100.708 102.515L102.288 90.2857C103.001 85.5978 106.975 82.031 111.714 81.9291H206.694C211.331 81.9291 214.592 85.6488 213.981 90.2857L212.401 102.515C211.688 107.254 207.713 110.77 202.974 110.871Z" fill="white"/>
<path d="M202.974 111.228H107.994C105.752 111.279 103.612 110.362 102.135 108.68C100.657 106.948 99.9944 104.706 100.351 102.464L101.931 90.2348C102.542 85.445 106.924 81.5724 111.714 81.5724H206.694C208.936 81.5215 211.076 82.4387 212.554 84.1202C214.031 85.8527 214.694 88.0947 214.337 90.3367L212.757 102.515C212.146 107.356 207.713 111.228 202.974 111.228ZM111.714 82.3368C107.128 82.4387 103.306 85.8527 102.644 90.3876L101.064 102.617C100.759 104.655 101.37 106.693 102.695 108.222C104.071 109.7 106.007 110.566 107.994 110.515H202.974C207.407 110.515 211.484 106.897 212.044 102.464L213.624 90.2348C213.929 88.1966 213.318 86.1584 211.993 84.5788C210.668 83.0501 208.681 82.2349 206.694 82.2858L111.714 82.3368Z" fill="#231F20"/>
<path d="M119.052 106.795C116.402 106.846 113.854 105.725 112.071 103.738C110.288 101.7 109.523 98.9991 109.931 96.2985C110.644 90.5916 115.893 85.9547 121.6 85.9547C124.249 85.9037 126.797 87.0247 128.58 89.012C130.364 91.0501 131.128 93.7508 130.72 96.4004C130.007 102.158 124.759 106.795 119.052 106.795ZM121.6 86.719C116.249 86.719 111.307 91.1011 110.644 96.4514C110.288 98.8972 111.001 101.445 112.682 103.279C114.313 105.114 116.657 106.133 119.103 106.082C124.453 106.082 129.396 101.7 130.058 96.3494C130.415 93.9036 129.701 91.4068 128.071 89.5215C126.44 87.6871 124.045 86.668 121.6 86.719Z" fill="#D1D3D4"/>
<path d="M127.204 93.2412C127.153 93.3431 127.051 93.445 126.949 93.5469L118.44 101.088C118.134 101.343 117.93 101.343 117.727 101.088L114.058 96.7061C113.854 96.4513 113.905 96.2475 114.16 96.0437L115.332 95.0755C115.587 94.8717 115.79 94.8717 115.943 95.0755L118.134 97.6233C118.338 97.878 118.542 97.878 118.848 97.6233L125.472 91.7635C125.777 91.5087 125.93 91.5087 126.185 91.7635C126.491 92.1202 126.746 92.4259 127.051 92.7826C127.102 92.8845 127.153 92.9864 127.204 93.0883V93.2412Z" fill="white"/>
<path d="M200.885 92.0183H139.79C139.179 92.0183 138.72 91.5597 138.72 90.9482C138.72 90.3368 139.179 89.8782 139.79 89.8782H200.834C201.446 89.8782 201.904 90.3368 201.904 90.9482C201.955 91.5597 201.446 92.0183 200.885 92.0183Z" fill="#D1D3D4"/>
<path d="M187.076 102.311H138.466C137.854 102.311 137.396 101.853 137.396 101.241C137.396 100.63 137.854 100.171 138.466 100.171H187.076C187.688 100.171 188.147 100.63 188.147 101.241C188.147 101.853 187.688 102.311 187.076 102.311Z" fill="#D1D3D4"/>
<path d="M198.643 144.349H103.714C99.0773 144.349 95.8162 140.578 96.4277 135.992L98.0073 123.763C98.7207 119.075 102.695 115.508 107.434 115.406H202.414C207.051 115.406 210.312 119.177 209.7 123.763L208.121 135.992C207.407 140.68 203.433 144.247 198.643 144.349Z" fill="white"/>
<path d="M198.643 144.705H103.714C101.472 144.756 99.3319 143.839 97.8542 142.158C96.3766 140.425 95.7141 138.183 96.0708 135.941L97.6504 123.712C98.2619 118.922 102.644 115.05 107.434 115.05H202.414C204.656 114.999 206.796 115.916 208.273 117.597C209.751 119.33 210.413 121.572 210.057 123.814L208.477 136.043C207.866 140.833 203.433 144.705 198.643 144.705ZM107.434 115.763C103.001 115.763 98.9243 119.381 98.3638 123.814L96.7842 136.043C96.4785 138.081 97.0899 140.12 98.4148 141.699C99.7905 143.177 101.727 144.043 103.714 143.992H198.694C203.127 143.992 207.203 140.374 207.764 135.941L209.343 123.712C209.649 121.674 209.038 119.636 207.713 118.056C206.337 116.578 204.401 115.712 202.414 115.763H107.434Z" fill="#231F20"/>
<path d="M114.772 140.272C112.122 140.323 109.574 139.202 107.791 137.266C106.007 135.228 105.243 132.527 105.651 129.878C106.364 124.171 111.612 119.534 117.319 119.534C119.969 119.483 122.517 120.604 124.3 122.591C126.033 124.629 126.848 127.33 126.44 129.98C125.676 135.636 120.478 140.272 114.772 140.272ZM117.319 120.196C111.969 120.196 107.026 124.578 106.364 129.929C106.007 132.375 106.721 134.871 108.351 136.808C109.982 138.642 112.326 139.661 114.772 139.61C120.122 139.61 125.064 135.228 125.727 129.878C126.083 127.432 125.37 124.935 123.74 123.05C122.109 121.164 119.765 120.145 117.319 120.196Z" fill="#D1D3D4"/>
<path d="M122.873 126.668C122.822 126.769 122.72 126.871 122.618 126.973L114.109 134.515C113.803 134.769 113.599 134.769 113.396 134.515L109.727 130.132C109.523 129.878 109.574 129.674 109.829 129.47L111.001 128.502C111.255 128.298 111.459 128.298 111.612 128.502L113.803 131.05C114.007 131.304 114.211 131.304 114.517 131.05L121.141 125.19C121.446 124.935 121.65 124.935 121.854 125.19C122.16 125.496 122.415 125.852 122.72 126.209C122.771 126.311 122.822 126.413 122.873 126.464V126.668Z" fill="white"/>
<path d="M196.605 125.496H135.51C134.899 125.496 134.44 125.037 134.44 124.426C134.44 123.814 134.899 123.355 135.51 123.355H196.554C197.165 123.355 197.624 123.814 197.624 124.426C197.624 125.037 197.165 125.496 196.605 125.496Z" fill="#D1D3D4"/>
<path d="M182.796 135.788H134.185C133.574 135.788 133.115 135.33 133.115 134.718C133.115 134.107 133.574 133.648 134.185 133.648H182.796C183.408 133.648 183.866 134.107 183.866 134.718C183.866 135.33 183.408 135.788 182.796 135.788Z" fill="#D1D3D4"/>
<path d="M193.038 163.151C192.987 163.151 192.885 163.151 192.834 163.1L187.28 159.228C187.178 159.177 187.127 159.024 187.127 158.922C187.127 158.82 187.178 158.667 187.28 158.616L193.853 154.744C194.006 154.642 194.261 154.693 194.363 154.846C194.465 154.998 194.414 155.202 194.261 155.355C194.261 155.355 194.261 155.355 194.21 155.355L188.147 158.922L193.242 162.489C193.395 162.591 193.446 162.846 193.344 162.998C193.293 163.1 193.14 163.151 193.038 163.151Z" fill="#D1D3D4"/>
<path d="M197.828 163.151C197.624 163.151 197.471 162.998 197.471 162.795C197.471 162.693 197.522 162.54 197.624 162.489L203.688 158.922L198.592 155.355C198.439 155.253 198.388 155.049 198.49 154.897C198.49 154.897 198.49 154.897 198.49 154.846C198.592 154.693 198.796 154.642 199 154.744L204.554 158.616C204.656 158.667 204.707 158.82 204.707 158.922C204.707 159.024 204.656 159.177 204.503 159.228L197.93 163.1C197.981 163.1 197.93 163.151 197.828 163.151Z" fill="#D1D3D4"/>
<path d="M58.9761 99.6104C58.9761 99.6104 64.9887 110.209 70.8485 111.177C78.0332 112.349 88.5808 106.031 88.5808 106.031L82.6191 100.222L70.4409 100.171L63.8168 86.6169L58.9761 99.6104Z" fill="#148532"/>
<path d="M68.8613 168.756L69.269 173.342L75.6383 172.832L75.0269 167.329L68.8613 168.756Z" fill="white"/>
<path d="M69.2689 173.699C69.0651 173.699 68.9122 173.546 68.9122 173.393L68.4536 168.807C68.4536 168.603 68.5555 168.45 68.7084 168.399L74.9249 166.973C75.0268 166.973 75.1287 166.973 75.2306 167.024C75.3325 167.075 75.3835 167.176 75.3835 167.278L75.9949 172.782C75.9949 172.883 75.9949 172.985 75.893 173.036C75.8421 173.087 75.7401 173.138 75.6382 173.138L69.2689 173.699ZM69.2179 169.011L69.6256 172.934L75.2816 172.476L74.772 167.737L69.2179 169.011Z" fill="#231F20"/>
<path d="M24.225 158.616L20.0977 161.877L22.4416 166.259L26.518 164.476L24.225 158.616Z" fill="white"/>
<path d="M22.4413 166.616C22.2884 166.616 22.1865 166.565 22.1355 166.412L19.8426 162.03C19.7407 161.877 19.7916 161.673 19.9445 161.571L24.0209 158.31C24.1228 158.259 24.2247 158.208 24.3266 158.259C24.4285 158.31 24.5304 158.361 24.5814 158.463L26.8743 164.323C26.9253 164.527 26.8743 164.68 26.6705 164.782L22.5941 166.565C22.5432 166.616 22.4922 166.616 22.4413 166.616ZM20.5559 161.979L22.5941 165.801L26.0591 164.272L24.0718 159.228L20.5559 161.979Z" fill="#231F20"/>
<path d="M36.505 117.088L36.9127 146.285L22.6963 158.616L25.6517 165.903C25.6517 165.903 46.4412 155.915 49.6514 151.431C52.8615 146.947 53.3711 136.043 53.3711 136.043L64.0206 146.744L68.097 169.928L76.1988 169.469C76.1988 169.469 75.1797 152.451 75.1797 146.132C75.1797 139.814 59.078 118.107 59.078 118.107L36.505 117.088Z" fill="#231F20"/>
<path d="M68.0461 170.234C67.8932 170.234 67.7404 170.132 67.6894 169.928L63.613 146.846L53.6259 136.808C53.473 139.406 52.6578 147.712 49.9062 151.584C46.6451 156.068 26.6708 165.75 25.8046 166.157C25.7027 166.208 25.6007 166.208 25.5498 166.157C25.4479 166.107 25.3969 166.056 25.346 165.954L22.3906 158.667C22.3396 158.514 22.3906 158.361 22.4925 158.259L36.607 146.03L36.1993 116.986C36.1993 116.884 36.2503 116.782 36.3013 116.731C36.3522 116.68 36.4541 116.629 36.556 116.629L59.0781 117.648C59.18 117.648 59.2819 117.699 59.3328 117.801C59.9952 118.719 75.4855 139.661 75.4855 146.03C75.4855 152.247 76.5046 169.164 76.5046 169.317C76.5046 169.52 76.3517 169.673 76.1989 169.673L68.0461 170.234ZM53.3202 135.686C53.4221 135.686 53.524 135.737 53.5749 135.788L64.2245 146.438C64.2755 146.489 64.3264 146.54 64.3264 146.642L68.3518 169.52L75.7912 169.113C75.6384 166.616 74.7721 151.89 74.7721 146.132C74.7721 140.272 60.1991 120.298 58.8742 118.464L36.8618 117.496L37.2694 146.285C37.2694 146.387 37.2184 146.489 37.1675 146.54L23.104 158.718L25.8046 165.393C28.5052 164.068 46.3903 155.253 49.2947 151.177C52.4539 146.795 52.9635 136.094 52.9635 135.992C52.9635 135.839 53.0654 135.737 53.1673 135.686C53.2183 135.686 53.2692 135.686 53.3202 135.686Z" fill="#231F20"/>
<path d="M35.0273 119.941L35.5878 105.674C35.5878 105.674 35.3331 87.9928 41.8553 84.8336C48.3775 81.6744 61.32 83.0502 63.8678 86.617C66.4155 90.1838 60.4028 119.941 60.4028 119.941H35.0273Z" fill="#148532"/>
<path d="M62.3393 71.4834C62.2883 69.9548 61.6259 68.579 60.5558 67.5089C58.2629 65.4198 53.1164 64.6045 51.2311 67.7128C50.6196 67.7637 50.0591 67.9675 49.5496 68.3752C48.9891 68.9357 48.5305 69.649 48.3267 70.4643C47.2566 73.4707 48.1229 76.6808 49.2948 79.6362C49.6515 80.6553 50.212 81.5215 50.9254 82.2858C52.7088 83.9673 55.2056 83.0502 57.1928 82.1839C58.5176 81.6744 59.7406 80.8081 60.7087 79.6871C61.8297 78.3114 62.3902 75.7636 62.3902 74.0312C62.4412 73.2159 62.3902 72.3496 62.3393 71.4834Z" fill="white"/>
<path d="M53.4218 83.5596C52.4027 83.6106 51.4346 83.203 50.7212 82.4896C49.9569 81.7253 49.3454 80.7571 48.9887 79.6871C47.9187 77.0374 46.8486 73.5725 48.0206 70.2604C48.2754 69.3942 48.734 68.6299 49.3454 68.0184C49.804 67.6108 50.4155 67.356 51.0269 67.2541C51.8422 66.1331 53.0651 65.4197 54.4409 65.2669C56.7339 65.0121 59.0268 65.6745 60.8103 67.1522C61.9313 68.1203 62.5427 69.4961 62.7465 71.3305C62.8485 72.1967 62.8485 73.0629 62.8485 73.9292C62.8485 75.7635 62.237 78.4132 61.065 79.789C60.0969 80.91 58.823 81.8272 57.4472 82.3877C56.3262 82.9482 54.8485 83.5596 53.4218 83.5596ZM55.3581 66.0312C55.0524 66.0312 54.7976 66.0312 54.4919 66.0821C53.2689 66.184 52.1479 66.8465 51.4855 67.8656C51.4346 67.9675 51.3327 68.0184 51.1798 68.0184C50.6703 68.0694 50.1607 68.2732 49.7531 68.6299C49.2435 69.1394 48.8359 69.8018 48.6321 70.5662C47.562 73.6234 48.5811 76.9355 49.6002 79.4833C49.9569 80.4514 50.4664 81.3176 51.1798 82.031C52.7594 83.5087 54.9505 82.7953 57.0906 81.8781C58.3644 81.3686 59.5364 80.5533 60.4536 79.4833C61.4727 78.2094 62.0332 75.7635 62.0841 74.082C62.0841 73.2158 62.0841 72.4005 61.9822 71.5343C61.7784 69.8528 61.2689 68.6808 60.3007 67.7636C58.874 66.6426 57.1415 66.0312 55.3581 66.0312Z" fill="#231F20"/>
<path d="M57.5491 82.8973L57.0905 87.2284C57.0905 87.2284 56.0714 89.5214 53.4218 88.3494C51.8422 87.687 50.8231 86.1584 50.7212 84.4769L51.5874 76.7317C51.5874 76.7317 53.8294 75.9674 54.0333 71.3815C54.0333 71.3815 56.7339 71.3815 60.9631 71.5853C60.9631 71.5853 61.5236 78.719 60.8612 80.8081C60.1988 82.8973 57.5491 82.8973 57.5491 82.8973Z" fill="white"/>
<path d="M54.8488 89.0627C54.3392 89.0627 53.7787 88.9099 53.3201 88.706C51.6386 87.9927 50.4667 86.3621 50.3647 84.5278L51.231 76.7317C51.231 76.5788 51.3329 76.4769 51.4858 76.4259C51.4858 76.4259 53.5239 75.6616 53.6768 71.4324C53.6768 71.2285 53.8297 71.0757 54.0335 71.0757C54.0335 71.0757 56.7851 71.0757 60.9633 71.2795C61.1672 71.2795 61.2691 71.4324 61.32 71.5852C61.371 71.891 61.8805 78.8208 61.1672 80.9609C60.6067 82.6424 58.9761 83.152 57.957 83.2539L57.5494 87.2793C57.5494 87.3303 57.5494 87.3303 57.5494 87.3812C56.9889 88.4003 55.9698 89.0118 54.8488 89.0627ZM51.8934 76.9864L51.0781 84.5278C51.18 86.0564 52.1482 87.4322 53.5749 88.0436C55.715 88.9608 56.6322 87.4322 56.7851 87.1264L57.2436 82.8462C57.2436 82.6424 57.3965 82.5405 57.6003 82.5405C57.7022 82.5405 59.8423 82.5405 60.4538 80.7061C61.0653 78.8718 60.6576 73.3177 60.5557 71.9419C57.3965 71.789 55.1545 71.789 54.3392 71.7381C54.0844 75.5087 52.5048 76.6807 51.8934 76.9864Z" fill="#231F20"/>
<path d="M53.2182 76.8845C53.1672 76.4769 53.0144 76.1202 52.7596 75.8145C52.5048 75.5597 52.1991 75.3049 51.8424 75.1521C51.6895 75.0502 51.4857 74.9482 51.2819 74.9482C51.129 74.9482 50.9762 74.9482 50.8743 74.9992C50.5685 75.1011 50.2628 75.3049 50.059 75.5597C49.9571 75.8145 49.8552 76.0692 49.9061 76.375C49.9061 76.6807 49.9061 76.9864 49.9571 77.2412C50.2628 78.4641 51.4348 79.1775 52.6577 78.9227C52.6577 78.9227 52.6577 78.9227 52.7086 78.9227" fill="white"/>
<path d="M52.199 79.3814C51.7404 79.3814 51.2818 79.2286 50.8232 79.0247C50.2117 78.6681 49.8041 78.0566 49.6512 77.3942C49.6003 77.0885 49.5493 76.7318 49.5493 76.4261C49.5493 76.1203 49.6003 75.7636 49.7531 75.4579C49.957 75.1012 50.3136 74.8464 50.7213 74.6936C50.8741 74.6426 51.078 74.5917 51.2818 74.5917C51.5366 74.6426 51.7913 74.6936 51.9951 74.8464C52.3518 75.0503 52.7085 75.305 52.9633 75.5598C53.269 75.9165 53.4219 76.3751 53.4728 76.8337C53.4728 77.0375 53.32 77.1904 53.1671 77.1904C52.9633 77.1904 52.8104 77.0375 52.7595 76.8846C52.7595 76.5789 52.6066 76.2732 52.4028 76.0184C52.148 75.7636 51.8932 75.5598 51.5875 75.4579C51.4856 75.356 51.3327 75.305 51.1799 75.305C51.078 75.305 50.9761 75.305 50.8741 75.356C50.6194 75.407 50.4155 75.5598 50.2627 75.7636C50.1608 75.9675 50.1098 76.1713 50.1608 76.3751C50.1608 76.6299 50.1608 76.8846 50.2117 77.1904C50.4665 78.2095 51.4346 78.8209 52.4537 78.5662C52.4537 78.5662 52.4537 78.5662 52.5047 78.5662C52.7085 78.5152 52.9123 78.6171 52.9123 78.8209C52.9633 79.0247 52.8614 79.2286 52.6576 79.2286C52.6066 79.3305 52.4028 79.3814 52.199 79.3814Z" fill="#231F20"/>
<path d="M57.3456 84.9863C56.4284 84.7315 55.6132 84.171 55.0017 83.4577C54.4922 82.8972 54.2883 82.1329 54.4922 81.3685C55.2565 82.2857 56.3775 82.8462 57.5495 82.8972L57.3456 84.9863Z" fill="#231F20"/>
<path d="M57.3456 85.3431H57.2946C56.2755 85.0883 55.4093 84.5278 54.7469 83.7125C54.1354 83.0501 53.9316 82.1329 54.1864 81.2667C54.2373 81.1648 54.3392 81.0629 54.4921 81.0629C54.645 81.0629 54.7469 81.1138 54.8488 81.2157C55.5112 82.031 56.5303 82.5406 57.6003 82.5915C57.7023 82.5915 57.8042 82.6425 57.8551 82.6934C57.9061 82.7953 57.957 82.8463 57.957 82.9992L57.7532 85.0883C57.7532 85.1902 57.7023 85.2921 57.6003 85.3431C57.4984 85.2921 57.4475 85.3431 57.3456 85.3431ZM54.7469 82.1839C54.7978 82.5915 55.0017 82.9482 55.2564 83.2539C55.766 83.8144 56.3774 84.2221 57.0398 84.5278L57.1418 83.2539C56.2755 83.152 55.4602 82.7953 54.7469 82.1839Z" fill="#231F20"/>
<path d="M58.4664 79.1266C58.1097 79.1266 57.753 79.0247 57.4473 78.9228C57.2435 78.8718 57.1925 78.6171 57.2435 78.4642C57.2944 78.2604 57.5492 78.2094 57.7021 78.2604C58.0078 78.4132 58.3135 78.4132 58.6193 78.4132C58.4664 77.598 58.2116 76.8336 57.804 76.0693C57.7021 75.9164 57.804 75.6617 57.9568 75.6107C58.1097 75.5088 58.3645 75.6107 58.4154 75.7636C59.6893 78.4132 59.2307 78.7699 59.0778 78.9228C58.9759 79.0247 58.7212 79.1266 58.4664 79.1266Z" fill="#231F20"/>
<path d="M57.3964 80.5534C56.9378 80.5534 56.5301 80.4515 56.1734 80.1967C55.7658 79.891 55.511 79.4324 55.4601 78.8719C55.4091 78.668 55.562 78.5152 55.7658 78.4642C55.9696 78.4133 56.1225 78.5661 56.1734 78.7699C56.1734 79.0757 56.3773 79.3814 56.632 79.5852C56.9378 79.789 57.3454 79.84 57.7021 79.789C57.9059 79.7381 58.0588 79.891 58.1097 80.0948C58.1607 80.2986 58.0078 80.4515 57.804 80.5024C57.6511 80.5534 57.5492 80.5534 57.3964 80.5534Z" fill="#231F20"/>
<path d="M56.8867 75.1012C56.7848 75.1012 56.6829 75.0502 56.632 74.9993C56.53 74.8464 56.3262 74.7445 56.1224 74.7445C55.8676 74.7445 55.5619 74.8464 55.3581 75.0502C55.2052 75.2031 55.0014 75.1521 54.8485 74.9993C54.6957 74.8464 54.6957 74.6426 54.8485 74.4897C55.2052 74.184 55.6638 74.0311 56.1224 74.0311C56.53 74.0311 56.8867 74.2349 57.0905 74.5407C57.2434 74.6935 57.1925 74.8974 57.0905 75.0502C57.0396 75.0502 56.9886 75.1012 56.8867 75.1012Z" fill="#231F20"/>
<path d="M59.0269 75.5597C58.976 75.5597 58.925 75.5597 58.8741 75.5088C58.7212 75.4069 58.6193 75.203 58.7212 75.0502C58.8741 74.7444 59.1798 74.4897 59.5365 74.4387C59.9951 74.4387 60.4027 74.6425 60.6575 74.9992C60.7594 75.1521 60.7084 75.4069 60.5556 75.5088C60.4537 75.5597 60.3008 75.5597 60.1479 75.5088C59.9441 75.305 59.7403 75.203 59.6384 75.203C59.5365 75.203 59.3836 75.4069 59.3836 75.4069C59.3327 75.4578 59.1798 75.5597 59.0269 75.5597Z" fill="#231F20"/>
<path d="M54.6448 88.859L52.3009 90.0819L53.6767 91.9673L49.5493 109.598L53.4728 114.031L56.8868 108.018L54.8996 91.9673L56.4792 90.2857L54.6448 88.859Z" fill="white"/>
<path d="M20.0974 161.877L15.3076 165.138C15.3076 165.138 23.4604 178.947 25.7024 175.38C26.3139 174.412 22.3903 166.259 22.3903 166.259L20.0974 161.877Z" fill="#231F20"/>
<path d="M24.7344 176.348C21.5752 176.297 15.7154 166.463 15.053 165.342C14.9511 165.189 15.0021 164.985 15.1549 164.883L19.9447 161.622C20.0975 161.52 20.3523 161.571 20.4542 161.724C20.4542 161.724 20.4542 161.724 20.4542 161.775L22.7472 166.157C23.9192 168.654 26.6198 174.616 25.9573 175.635C25.7535 176.043 25.244 176.348 24.7344 176.348ZM15.8173 165.24C17.7027 168.348 22.4924 175.584 24.7344 175.635C25.0402 175.635 25.2949 175.482 25.4478 175.227C25.7026 174.616 23.9192 170.183 22.1357 166.463L19.9956 162.438L15.8173 165.24Z" fill="#231F20"/>
<path d="M69.2178 173.342C69.2178 173.342 69.0649 178.692 69.5745 178.743C70.084 178.794 85.1666 176.756 84.0456 175.635C82.9246 174.514 75.689 172.832 75.689 172.832L69.2178 173.342Z" fill="#231F20"/>
<path d="M69.5237 179.1C69.2179 179.049 68.7593 178.947 68.9122 173.342C68.9122 173.138 69.0651 173.036 69.2179 172.985L75.6382 172.476C75.6892 172.476 75.6892 172.476 75.7401 172.476C76.5045 172.629 83.0776 174.157 84.3006 175.38C84.5044 175.533 84.5044 175.788 84.4025 175.992C83.5872 177.52 69.8294 179.1 69.5237 179.1ZM69.5746 173.648C69.5237 175.635 69.5746 177.826 69.7275 178.386C71.409 178.336 82.2114 176.654 83.6381 175.737C82.5681 174.972 78.3388 173.801 75.6382 173.189L69.5746 173.648Z" fill="#231F20"/>
<path d="M60.8103 118.26C60.5555 118.26 60.4027 118.056 60.4536 117.852C61.0141 113.521 63.7147 96.7569 63.7657 96.6041C63.7657 96.4002 63.9695 96.2474 64.1733 96.2983C64.3771 96.3493 64.53 96.5021 64.479 96.706C64.479 96.706 64.479 96.706 64.479 96.7569C64.4281 96.9098 61.7275 113.623 61.2179 117.954C61.167 118.107 61.0141 118.26 60.8103 118.26Z" fill="#231F20"/>
<path d="M90.2113 112.808C101.834 112.808 111.256 103.386 111.256 91.7633C111.256 80.1409 101.834 70.719 90.2113 70.719C78.5889 70.719 69.167 80.1409 69.167 91.7633C69.167 103.386 78.5889 112.808 90.2113 112.808Z" fill="#231F20"/>
<path d="M90.2116 113.113C78.3901 113.113 68.8105 103.534 68.8105 91.7124C68.8105 79.8909 78.3901 70.3114 90.2116 70.3114C101.574 70.3114 110.95 79.1775 111.562 90.4895C112.224 102.26 103.256 112.4 91.4854 113.062C91.0268 113.113 90.6192 113.113 90.2116 113.113ZM90.2625 71.0757C89.8549 71.0757 89.4472 71.0757 89.0396 71.1267C77.6257 71.7891 68.9634 81.5724 69.6258 92.9863C70.2882 104.4 80.0716 113.062 91.4854 112.4C102.899 111.738 111.562 101.954 110.899 90.5405C110.237 79.6361 101.167 71.0757 90.2625 71.0757Z" fill="#231F20"/>
<path d="M86.9501 113.011C98.5726 113.011 107.994 103.59 107.994 91.9671C107.994 80.3446 98.5726 70.9227 86.9501 70.9227C75.3276 70.9227 65.9058 80.3446 65.9058 91.9671C65.9058 103.59 75.3276 113.011 86.9501 113.011Z" fill="#8E59FF"/>
<path d="M86.9502 113.317C75.1287 113.317 65.6001 103.687 65.6511 91.9161C65.6511 80.0946 75.2815 70.5661 87.0521 70.617C98.8736 70.617 108.402 80.2475 108.351 92.018C108.351 103.33 99.4851 112.655 88.2241 113.317C87.7655 113.317 87.3578 113.317 86.9502 113.317ZM87.0011 71.2794C86.5935 71.2794 86.1859 71.2794 85.7782 71.3304C74.3644 71.9928 65.702 81.7761 66.3644 93.19C67.0269 104.604 76.8102 113.266 88.2241 112.604C99.6379 111.941 108.3 102.158 107.638 90.7442C106.975 79.7889 97.9055 71.2794 87.0011 71.2794Z" fill="#231F20"/>
<path d="M100.198 84.8334C100.045 85.0373 99.8926 85.2411 99.7397 85.4449L83.4342 101.75C82.8737 102.311 82.4661 102.311 81.9055 101.75L72.7337 92.2728C72.326 91.9671 72.2751 91.4066 72.5808 90.999C72.6318 90.8971 72.7337 90.8461 72.8356 90.7951L75.1286 88.706C75.4343 88.3493 75.9948 88.2984 76.3515 88.6041C76.4024 88.655 76.4534 88.706 76.5043 88.757L81.9565 94.311C82.517 94.8715 82.9246 94.8715 83.4852 94.311L96.1219 81.7252C96.6824 81.1647 97.0901 81.1647 97.6506 81.7252C98.364 82.4386 99.0773 83.1519 99.7907 83.8653C99.9436 84.0691 100.096 84.2729 100.249 84.4767L100.198 84.8334Z" fill="white"/>
<path d="M66.6699 103.84C66.6699 103.84 70.9501 103.279 71.6125 102.871C72.2749 102.464 74.0584 99.5084 75.0265 99.3046C75.9946 99.1008 75.7908 101.241 75.0265 102.107C74.2622 102.973 78.6443 99.7632 79.3577 100.477C80.3258 101.75 80.3258 103.534 79.3577 104.808C78.1348 106.285 70.8992 109.139 67.1285 109.343" fill="white"/>
<path d="M67.0779 109.649C66.8741 109.649 66.7212 109.496 66.7212 109.292C66.7212 109.088 66.8741 108.935 67.0779 108.935C70.6957 108.731 77.8803 105.929 79.0523 104.553C79.9185 103.432 79.9185 101.852 79.1032 100.68C78.6956 100.528 76.7593 101.649 76.0969 102.005C75.0778 102.566 74.874 102.719 74.6702 102.413C74.5173 102.26 74.5683 102.056 74.7721 101.801C75.2816 101.19 75.4345 99.9671 75.2307 99.6614C75.2307 99.6104 75.1797 99.6104 75.1288 99.6104C74.6702 99.7123 73.753 100.935 73.0906 101.7C72.7339 102.209 72.3262 102.668 71.8167 103.126C71.1033 103.585 67.4346 104.094 66.7212 104.145C66.5174 104.145 66.3645 104.043 66.3136 103.84C66.2626 103.636 66.4155 103.483 66.6193 103.432C68.3518 103.228 71.0014 102.77 71.4091 102.515C71.8167 102.107 72.1734 101.7 72.4791 101.241C73.4982 99.9671 74.2625 99.0499 74.9249 98.897C75.2816 98.7951 75.6383 98.948 75.7912 99.2537C76.046 99.9161 76.046 100.68 75.7912 101.343C77.5746 100.324 79.0013 99.5595 79.5618 100.171C80.4281 101.037 80.8867 103.381 79.5618 104.961C78.237 106.54 71.0014 109.445 67.0779 109.649Z" fill="#231F20"/>
<path d="M43.333 84.7316C43.333 84.7316 45.1674 103.024 50.4667 103.126C56.9379 103.228 67.9951 102.973 67.9951 102.973L70.1352 109.852C70.1352 109.852 53.0144 113.98 45.7788 110.82C38.5432 107.661 38.0337 95.3811 38.0337 95.3811L43.333 84.7316Z" fill="#148532"/>
<path d="M55.6642 103.687C52.7597 103.687 50.2629 103.585 49.6005 103.279C47.7152 102.464 44.2503 90.4894 43.5369 88.0436C43.486 87.8398 43.5879 87.636 43.7917 87.585C43.9955 87.5341 44.1993 87.636 44.2503 87.8398C45.7789 93.241 48.6833 102.056 49.9063 102.566C51.1292 103.075 61.4221 102.871 67.9443 102.566C68.1481 102.566 68.301 102.719 68.3519 102.922C68.3519 103.126 68.199 103.279 67.9952 103.33C66.9252 103.381 60.6577 103.687 55.6642 103.687Z" fill="#231F20"/>
<path d="M53.4731 112.247C50.5686 112.247 47.7152 111.992 45.677 111.177C38.849 108.578 37.728 98.9989 37.728 98.5912C37.728 98.3874 37.8299 98.1836 38.0338 98.1836C38.2376 98.1836 38.4414 98.2855 38.4414 98.4893C38.4414 98.5912 39.5624 108.069 45.9318 110.464C52.454 112.91 67.1799 110.056 67.3328 110.056C67.5366 110.005 67.7404 110.158 67.7404 110.362C67.7914 110.566 67.6385 110.769 67.4347 110.769C62.8488 111.687 58.1609 112.145 53.4731 112.247Z" fill="#231F20"/>
</svg>
