<svg width="316" height="241" viewBox="0 0 316 241" fill="none" xmlns="http://www.w3.org/2000/svg">
<path d="M51.5421 70.6254C62.6077 70.6254 71.5782 61.655 71.5782 50.5893C71.5782 39.5237 62.6077 30.5532 51.5421 30.5532C40.4764 30.5532 31.506 39.5237 31.506 50.5893C31.506 61.655 40.4764 70.6254 51.5421 70.6254Z" fill="#8E59FF"/>
<path d="M51.5421 71.1331C47.4785 71.1351 43.5056 69.932 40.1259 67.6758C36.7462 65.4197 34.1115 62.2119 32.5551 58.4582C30.9986 54.7046 30.5903 50.5736 31.3819 46.5879C32.1734 42.6021 34.1292 38.9407 37.0018 36.0666C39.8745 33.1925 43.535 31.2349 47.5204 30.4414C51.5057 29.6479 55.6369 30.0541 59.3913 31.6087C63.1457 33.1633 66.3548 35.7964 68.6126 39.175C70.8704 42.5536 72.0756 46.5259 72.0756 50.5895C72.0702 56.0346 69.9054 61.2553 66.0561 65.1065C62.2068 68.9577 56.9872 71.125 51.5421 71.1331ZM51.5421 31.0711C47.6788 31.069 43.9018 32.2129 40.6888 34.358C37.4758 36.503 34.9712 39.5529 33.4918 43.1217C32.0125 46.6905 31.6249 50.6179 32.3781 54.407C33.1313 58.1961 34.9914 61.6767 37.7231 64.4085C40.4549 67.1402 43.9355 69.0003 47.7246 69.7535C51.5137 70.5067 55.4411 70.1191 59.0099 68.6398C62.5787 67.1605 65.6286 64.6558 67.7736 61.4428C69.9187 58.2298 71.0626 54.4528 71.0606 50.5895C71.0525 45.4154 68.9935 40.4554 65.3348 36.7968C61.6762 33.1381 56.7162 31.0791 51.5421 31.0711Z" fill="#D1D3D4"/>
<path d="M191.856 92.062L258.247 115.316L223.382 124.258L182.538 104.069L191.856 92.062Z" fill="#231F20"/>
<path d="M223.412 124.705C223.349 124.72 223.283 124.72 223.219 124.705L182.376 104.517C182.315 104.487 182.262 104.444 182.22 104.392C182.178 104.339 182.148 104.278 182.132 104.212C182.117 104.147 182.117 104.08 182.131 104.015C182.145 103.95 182.173 103.889 182.213 103.836L191.5 91.7783C191.56 91.7045 191.64 91.6504 191.73 91.6232C191.821 91.596 191.918 91.597 192.008 91.626L258.399 114.88C258.49 114.912 258.567 114.974 258.62 115.054C258.674 115.135 258.699 115.23 258.693 115.326C258.689 115.421 258.654 115.512 258.594 115.585C258.534 115.659 258.451 115.71 258.358 115.732L223.493 124.685L223.412 124.705ZM183.228 103.958L223.412 123.781L256.684 115.245L192.018 92.5903L183.228 103.958Z" fill="#231F20"/>
<path d="M114.076 169.426C114.076 169.426 78.876 180.093 61.347 169.426C61.347 169.426 74.745 186.153 92.9744 184.285C111.204 182.418 114.076 169.426 114.076 169.426Z" fill="#D1D3D4"/>
<path d="M126.348 160.179C126.348 160.179 99.5211 186.173 69.061 179.332C26.7659 169.893 -5.81559 119.599 22.5029 56.5171C22.5029 56.5171 -6.93208 99.2689 8.29292 146.954C29.1613 212.228 79.5662 209.528 130.885 196.201" fill="#D1D3D4"/>
<path d="M199.285 42.7432C199.285 42.7432 191.622 77.6288 191.856 92.0621C191.856 92.7726 194.139 94.5488 194.19 95.1071C195.297 107.987 153.753 97.1371 153.753 97.1371C153.753 97.1371 152.21 69.8234 155.306 60.049C158.401 50.2745 161.72 48.1329 161.72 48.1329C161.72 48.1329 189.511 37.2115 194.393 38.7441C199.275 40.2768 199.285 42.7432 199.285 42.7432Z" fill="#148532"/>
<path d="M184.375 57.6334L237.226 29.9137L233.014 16.333L176.499 44.9763L184.375 57.6334Z" fill="#148532"/>
<path d="M109.052 169.821C109.052 169.821 108.27 175.475 112.797 186.833C117.324 198.19 121.78 201.743 121.78 201.743L137.878 199.713L122.095 160.128L109.052 169.821Z" fill="#148532"/>
<path d="M121.78 202.19C121.681 202.191 121.585 202.158 121.506 202.098C121.323 201.946 116.898 198.333 112.371 186.995C107.844 175.658 108.565 169.994 108.595 169.74C108.604 169.681 108.625 169.625 108.656 169.574C108.688 169.524 108.729 169.48 108.778 169.446L121.821 159.803C121.875 159.762 121.938 159.734 122.005 159.722C122.072 159.71 122.141 159.713 122.206 159.732C122.273 159.749 122.335 159.782 122.386 159.828C122.437 159.874 122.477 159.932 122.501 159.996L138.284 199.581C138.314 199.643 138.329 199.711 138.329 199.779C138.329 199.848 138.314 199.915 138.284 199.977C138.249 200.035 138.202 200.084 138.146 200.121C138.09 200.158 138.026 200.181 137.959 200.19L121.861 202.169L121.78 202.19ZM109.478 170.065C109.397 171.08 109.225 176.683 113.213 186.66C117.202 196.638 121.151 200.576 121.922 201.276L137.249 199.399L121.912 160.879L109.478 170.065Z" fill="#231F20"/>
<path d="M189.166 196.201C189.166 196.201 184.68 209.122 170.328 221.241C155.975 233.36 119.831 240.526 119.831 240.526L139.644 199.104L189.166 196.201Z" fill="white"/>
<path d="M119.882 240.983C119.806 240.984 119.73 240.966 119.662 240.933C119.593 240.9 119.533 240.851 119.486 240.79C119.427 240.715 119.391 240.625 119.38 240.53C119.369 240.435 119.385 240.339 119.425 240.252L139.167 198.84C139.207 198.76 139.267 198.691 139.342 198.641C139.417 198.591 139.503 198.562 139.593 198.556L189.115 195.694C189.199 195.687 189.284 195.702 189.36 195.738C189.437 195.773 189.503 195.828 189.552 195.897C189.601 195.963 189.635 196.039 189.649 196.121C189.663 196.202 189.657 196.285 189.633 196.364C189.582 196.496 184.933 209.559 170.632 221.627C156.331 233.696 120.278 240.912 119.882 240.983ZM140.03 199.541L120.745 239.775C126.662 238.517 157.285 231.655 170.013 220.846C182.193 210.574 187.268 199.612 188.415 196.739L140.03 199.541Z" fill="#231F20"/>
<path d="M161.761 127.476C161.761 127.476 149.642 123.172 130.885 124.258C112.127 125.344 80.9771 143.056 80.9771 143.056L123.861 159.479L161.761 127.476Z" fill="white"/>
<path d="M123.861 159.986C123.8 159.995 123.739 159.995 123.678 159.986L80.7944 143.543C80.7057 143.507 80.6286 143.447 80.5714 143.37C80.5142 143.293 80.479 143.202 80.4696 143.106C80.4627 143.011 80.4828 142.916 80.5277 142.831C80.5726 142.747 80.6404 142.677 80.7233 142.629C81.038 142.447 112.188 124.836 130.854 123.761C149.52 122.685 161.812 126.958 161.923 126.998C162.009 127.027 162.086 127.078 162.146 127.147C162.205 127.215 162.245 127.298 162.262 127.387C162.278 127.476 162.271 127.568 162.24 127.653C162.209 127.738 162.156 127.814 162.086 127.871L124.186 159.874C124.092 159.945 123.978 159.984 123.861 159.986ZM82.1748 142.975L123.79 158.89L160.756 127.678C157.711 126.755 146.546 123.852 130.946 124.765C114.3 125.73 87.5238 140.031 82.1748 142.975Z" fill="#231F20"/>
<path d="M114.107 156.2C129.87 140.752 155.295 124.847 185.796 112.677C232.019 94.2446 266.255 110.15 277.593 116.849C278.825 117.577 279.782 118.693 280.312 120.023C280.843 121.352 280.918 122.82 280.526 124.197C276.913 136.864 263.007 171.953 216.784 190.385C186.283 202.565 156.899 208.513 134.833 208.148C134.833 208.148 127.728 201.865 120.491 183.788C113.254 165.711 114.107 156.2 114.107 156.2Z" fill="white"/>
<path d="M136.731 208.675H134.823C134.7 208.677 134.581 208.633 134.488 208.554C134.194 208.29 127.2 201.976 120.024 183.97C112.848 165.964 113.569 156.565 113.599 156.169C113.612 156.05 113.666 155.939 113.751 155.855C130.113 139.818 156.3 123.913 185.613 112.21C231.502 93.9398 265.403 109.053 277.857 116.412C279.183 117.198 280.212 118.401 280.783 119.833C281.354 121.265 281.435 122.846 281.013 124.329C277.045 138.245 262.865 172.562 216.977 190.862C188.476 202.23 159.376 208.675 136.731 208.675ZM135.036 207.66C157.752 207.965 187.501 201.57 216.601 189.928C262.073 171.79 276.111 137.828 280.039 124.065C280.398 122.797 280.328 121.445 279.84 120.221C279.352 118.997 278.472 117.968 277.339 117.295C265.017 110.017 231.451 95.0259 185.989 113.164C156.889 124.765 130.885 140.569 114.604 156.433C114.543 157.824 114.421 167.172 120.968 183.585C127.515 199.997 134.031 206.676 135.036 207.65V207.66Z" fill="#231F20"/>
<path d="M280.526 124.197C275.789 139.858 267.172 154.068 255.476 165.508C255.476 165.508 245.62 158.768 237.054 137.27C228.487 115.773 230.964 104.11 230.964 104.11C247.323 104.356 263.353 108.738 277.562 116.849C278.8 117.572 279.763 118.687 280.299 120.017C280.836 121.347 280.915 122.817 280.526 124.197Z" fill="white"/>
<path d="M255.476 166.015C255.374 166.013 255.275 165.982 255.192 165.924C254.786 165.64 245.113 158.819 236.577 137.504C228.04 116.189 230.395 104.527 230.487 104.009C230.512 103.895 230.574 103.793 230.665 103.72C230.755 103.646 230.867 103.605 230.984 103.603C247.435 103.834 263.557 108.241 277.836 116.412C279.163 117.198 280.192 118.401 280.763 119.833C281.334 121.266 281.415 122.846 280.993 124.329C276.277 140.079 267.641 154.373 255.892 165.873C255.837 165.926 255.772 165.966 255.7 165.991C255.628 166.015 255.551 166.024 255.476 166.015ZM231.42 104.628C231.096 106.871 229.999 118.219 237.51 137.108C245.021 155.997 253.639 163.498 255.425 164.858C266.918 153.543 275.378 139.518 280.029 124.076C280.388 122.807 280.318 121.456 279.83 120.232C279.341 119.007 278.462 117.978 277.329 117.306C263.335 109.289 247.545 104.928 231.42 104.628Z" fill="#231F20"/>
<path d="M121.161 154.028C121.088 154.027 121.016 154.012 120.95 153.982C120.884 153.952 120.824 153.909 120.775 153.855C120.732 153.805 120.699 153.747 120.678 153.684C120.658 153.62 120.65 153.554 120.656 153.487C120.661 153.421 120.68 153.357 120.711 153.298C120.742 153.239 120.785 153.187 120.836 153.145C132.244 143.812 144.209 135.182 156.666 127.303C156.781 127.234 156.918 127.213 157.049 127.243C157.179 127.273 157.293 127.353 157.366 127.465C157.401 127.521 157.425 127.584 157.436 127.649C157.447 127.714 157.444 127.78 157.429 127.845C157.414 127.909 157.387 127.969 157.348 128.023C157.309 128.076 157.26 128.121 157.204 128.156C144.792 136.012 132.865 144.608 121.486 153.896C121.397 153.978 121.282 154.025 121.161 154.028Z" fill="white"/>
<path d="M160.096 206.767C159.969 206.768 159.846 206.721 159.751 206.635C159.609 206.503 145.897 193.44 139.086 176.348C132.275 159.255 133.229 140.336 133.239 140.153C133.241 140.085 133.256 140.018 133.284 139.956C133.312 139.894 133.352 139.838 133.403 139.793C133.453 139.747 133.513 139.712 133.577 139.69C133.641 139.669 133.71 139.66 133.777 139.666C133.911 139.676 134.036 139.738 134.125 139.838C134.214 139.939 134.26 140.07 134.254 140.204C134.254 140.386 133.311 159.113 140.03 175.972C146.749 192.831 160.33 205.763 160.452 205.894C160.499 205.942 160.537 205.998 160.563 206.06C160.588 206.121 160.602 206.188 160.602 206.255C160.602 206.322 160.588 206.388 160.563 206.45C160.537 206.512 160.499 206.568 160.452 206.615C160.357 206.71 160.23 206.764 160.096 206.767Z" fill="#231F20"/>
<path d="M276.192 115.59C276.192 115.59 295.7 110.515 296.857 113.418C298.015 116.321 280.374 126.065 280.374 126.065" fill="#148532"/>
<path d="M280.374 126.511C280.277 126.509 280.183 126.475 280.107 126.414C280.031 126.353 279.977 126.27 279.953 126.176C279.929 126.081 279.936 125.982 279.974 125.892C280.011 125.803 280.077 125.728 280.161 125.679C288.484 121.071 297.081 115.143 296.401 113.58C295.721 112.017 285.459 113.631 276.263 116.026C276.206 116.041 276.146 116.044 276.088 116.036C276.029 116.027 275.973 116.008 275.922 115.977C275.871 115.947 275.826 115.907 275.791 115.86C275.755 115.813 275.73 115.759 275.715 115.702C275.7 115.644 275.697 115.585 275.705 115.526C275.714 115.467 275.734 115.411 275.764 115.36C275.794 115.309 275.834 115.265 275.881 115.229C275.929 115.194 275.982 115.168 276.04 115.153C280.709 113.946 296.025 110.231 297.233 113.255C298.441 116.28 284.769 124.126 280.546 126.45C280.493 126.48 280.434 126.501 280.374 126.511Z" fill="#231F20"/>
<path d="M277.928 127.902C275.256 124.438 273.604 120.297 273.157 115.945C273.129 115.26 273.36 114.589 273.804 114.066C274.248 113.544 274.872 113.207 275.553 113.123C275.843 113.057 276.144 113.05 276.437 113.103C276.73 113.156 277.009 113.268 277.258 113.432C277.507 113.597 277.719 113.809 277.883 114.058C278.047 114.307 278.159 114.586 278.212 114.879C278.59 118.627 279.998 122.196 282.282 125.192C282.448 125.44 282.561 125.719 282.615 126.012C282.669 126.306 282.662 126.607 282.596 126.898C282.529 127.189 282.404 127.463 282.228 127.703C282.052 127.944 281.828 128.146 281.572 128.298C281.024 128.698 280.347 128.879 279.673 128.806C278.999 128.732 278.376 128.41 277.928 127.902Z" fill="white"/>
<path d="M279.948 129.333C279.483 129.341 279.023 129.243 278.603 129.046C278.182 128.849 277.813 128.558 277.522 128.196C274.807 124.663 273.121 120.448 272.65 116.016C272.603 115.197 272.871 114.39 273.399 113.762C273.928 113.134 274.676 112.731 275.492 112.636C275.895 112.574 276.307 112.592 276.702 112.692C277.098 112.791 277.47 112.969 277.796 113.215C278.053 113.41 278.268 113.655 278.427 113.937C278.585 114.218 278.685 114.528 278.719 114.849C279.103 118.507 280.491 121.989 282.729 124.908C282.925 125.163 283.067 125.456 283.145 125.769C283.224 126.081 283.238 126.407 283.185 126.725C283.121 127.132 282.974 127.522 282.754 127.871C282.534 128.22 282.246 128.521 281.906 128.755C281.331 129.149 280.645 129.352 279.948 129.333ZM275.959 113.591H275.624C275.072 113.656 274.565 113.926 274.203 114.347C273.84 114.768 273.648 115.309 273.665 115.864C274.113 120.119 275.725 124.168 278.324 127.567C278.694 127.98 279.206 128.239 279.758 128.293C280.311 128.348 280.863 128.194 281.308 127.861C281.535 127.71 281.73 127.514 281.88 127.286C282.03 127.057 282.132 126.801 282.181 126.532C282.207 126.354 282.199 126.173 282.155 125.999C282.112 125.825 282.034 125.661 281.927 125.517C279.573 122.447 278.112 118.787 277.704 114.941C277.683 114.756 277.626 114.578 277.535 114.416C277.445 114.253 277.323 114.111 277.177 113.997C276.826 113.732 276.397 113.592 275.959 113.601V113.591Z" fill="#231F20"/>
<path d="M164.126 198.16C163.991 198.168 163.859 198.123 163.758 198.033C163.657 197.944 163.596 197.818 163.588 197.683C163.58 197.549 163.626 197.416 163.715 197.315C163.805 197.215 163.93 197.153 164.065 197.145C164.522 197.094 209.791 191.664 245.833 162.463C245.937 162.379 246.07 162.339 246.203 162.352C246.336 162.365 246.459 162.431 246.544 162.534C246.626 162.64 246.665 162.774 246.651 162.908C246.638 163.042 246.574 163.166 246.473 163.254C210.197 192.689 164.644 198.099 164.187 198.15L164.126 198.16Z" fill="#D1D3D4"/>
<path d="M185.167 36.4404C186.068 36.0589 186.793 35.3524 187.197 34.4612C188.872 31.8814 189.78 28.879 189.816 25.8032C189.726 21.2978 187.885 17.0046 184.682 13.8343C181.48 10.6641 177.168 8.86625 172.662 8.82227L176.255 11.7455C173.176 11.6243 170.114 12.2617 167.339 13.6015C164.564 14.9413 162.16 16.9425 160.34 19.429C161.556 19.0738 162.857 19.1345 164.035 19.6016C162.198 20.0795 160.392 20.6659 158.625 21.3575C158.344 21.4339 158.095 21.5974 157.914 21.8244C157.766 22.1429 157.745 22.5055 157.853 22.8394C159.152 28.8787 163.679 34.451 169.719 35.7299C170.734 35.9431 171.749 36.0344 172.835 36.1664C175.139 36.4607 177.412 36.9479 179.737 37.0697C181.196 37.1734 182.662 37.0675 184.091 36.7551C184.456 36.6726 184.815 36.5675 185.167 36.4404Z" fill="white"/>
<path d="M180.782 37.5872H179.645C178.128 37.4793 176.617 37.293 175.118 37.029C174.316 36.9072 173.515 36.7854 172.713 36.6839L171.962 36.5925C171.17 36.491 170.358 36.3997 169.556 36.2271C163.679 34.9888 158.777 29.6702 157.376 23.0321C157.3 22.8044 157.271 22.5634 157.292 22.3241C157.313 22.0849 157.383 21.8525 157.498 21.6416C157.728 21.3336 158.052 21.1091 158.422 21.0021C159.619 20.5251 160.837 20.1089 162.065 19.7334C161.516 19.7178 160.968 19.7897 160.441 19.9465C160.349 19.9734 160.251 19.9712 160.16 19.9403C160.07 19.9095 159.991 19.8514 159.934 19.774C159.879 19.6932 159.85 19.5977 159.85 19.4999C159.85 19.4022 159.879 19.3067 159.934 19.2259C161.671 16.8657 163.921 14.9299 166.514 13.5639C169.107 12.198 171.976 11.4374 174.905 11.3393L172.337 9.24842C172.264 9.18636 172.212 9.1038 172.186 9.01148C172.161 8.91916 172.164 8.82135 172.195 8.73077C172.23 8.6408 172.291 8.56353 172.371 8.50917C172.451 8.4548 172.545 8.4259 172.642 8.42627C177.261 8.47218 181.681 10.3095 184.972 13.5511C188.263 16.7927 190.167 21.1853 190.282 25.8031C190.26 28.9797 189.326 32.0832 187.593 34.7452C187.138 35.7241 186.334 36.4984 185.339 36.9173C184.965 37.0693 184.578 37.1882 184.182 37.2726C183.065 37.5104 181.924 37.616 180.782 37.5872ZM161.923 18.6981C162.698 18.7006 163.466 18.8486 164.187 19.1345C164.277 19.1735 164.354 19.2389 164.406 19.3223C164.459 19.4056 164.485 19.503 164.481 19.6014C164.472 19.6976 164.435 19.7888 164.373 19.8631C164.312 19.9374 164.229 19.9913 164.136 20.0176C162.312 20.4875 160.518 21.0706 158.767 21.7634C158.651 21.7671 158.538 21.8028 158.441 21.8665C158.344 21.9303 158.266 22.0196 158.217 22.1247C158.168 22.2297 158.148 22.3464 158.161 22.4618C158.174 22.5771 158.218 22.6867 158.29 22.7784C159.65 29.112 164.268 34.1464 169.79 35.3136C170.551 35.476 171.343 35.5674 172.104 35.6587L172.875 35.7501C173.677 35.8516 174.489 35.9835 175.301 36.1053C176.769 36.3647 178.25 36.5477 179.737 36.6534C181.152 36.76 182.575 36.6539 183.959 36.3388C184.305 36.262 184.645 36.1568 184.974 36.0241C185.783 35.6869 186.43 35.0506 186.781 34.2479C188.422 31.7336 189.316 28.8053 189.359 25.8031C189.272 21.6594 187.662 17.6928 184.837 14.6601C182.012 11.6273 178.17 9.7407 174.042 9.36007L176.529 11.3901C176.604 11.4529 176.658 11.5372 176.683 11.6316C176.709 11.726 176.705 11.8259 176.671 11.9179C176.641 12.0124 176.579 12.0935 176.496 12.1473C176.413 12.201 176.313 12.224 176.215 12.2122C173.415 12.115 170.63 12.6535 168.068 13.7874C165.507 14.9214 163.236 16.6211 161.426 18.759L161.923 18.6981Z" fill="#231F20"/>
<path d="M172.794 45.5552C172.794 45.5552 172.977 56.1721 177.97 56.507C182.964 56.842 183.045 47.1183 183.045 47.1183" fill="#231F20"/>
<path d="M178.214 56.9637H177.94C172.591 56.6085 172.347 46.022 172.337 45.5754C172.327 45.5104 172.332 45.4441 172.35 45.381C172.368 45.3178 172.4 45.2593 172.443 45.2095C172.486 45.1597 172.539 45.1198 172.599 45.0924C172.658 45.065 172.723 45.0508 172.789 45.0508C172.855 45.0508 172.92 45.065 172.979 45.0924C173.039 45.1198 173.092 45.1597 173.135 45.2095C173.178 45.2593 173.21 45.3178 173.228 45.381C173.246 45.4441 173.25 45.5104 173.241 45.5754C173.241 45.6769 173.474 55.7762 178.001 56.0807C178.394 56.1166 178.79 56.0662 179.162 55.933C179.534 55.7997 179.872 55.5869 180.153 55.3093C182.528 53.1169 182.639 47.1893 182.639 47.1284C182.647 47.0133 182.697 46.9051 182.779 46.8245C182.862 46.7439 182.971 46.6967 183.086 46.6919C183.205 46.6919 183.318 46.739 183.402 46.8227C183.486 46.9065 183.533 47.0201 183.533 47.1385C183.533 47.4024 183.421 53.5127 180.762 55.969C180.072 56.6161 179.16 56.9723 178.214 56.9637Z" fill="#231F20"/>
<path d="M182.619 40.4191L183.086 47.1181C183.086 47.1181 182.65 50.8939 178.498 50.0109C177.276 49.7387 176.13 49.1976 175.143 48.4268C174.156 47.656 173.354 46.675 172.794 45.555C172.794 45.555 171.779 29.518 171.403 25.255C174.385 24.8992 177.259 23.9205 179.838 22.3826C180.221 22.0889 180.641 21.8467 181.087 21.6619C181.919 21.5401 181.817 22.007 182.183 22.6769C182.85 23.9589 183.92 24.9861 185.228 25.6001C185.395 25.6556 185.543 25.7577 185.654 25.8945C185.717 26.0063 185.752 26.1317 185.756 26.2599C186.182 30.0864 186.963 33.8927 186.415 37.7395C185.969 41.0281 182.619 40.4191 182.619 40.4191Z" fill="white"/>
<path d="M179.686 50.6097C179.256 50.6104 178.827 50.5628 178.407 50.4676C177.11 50.1866 175.893 49.6161 174.847 48.7989C173.801 47.9816 172.954 46.9386 172.368 45.7478C172.358 45.6941 172.358 45.6392 172.368 45.5854C172.368 45.423 171.353 29.5078 170.987 25.2854C170.979 25.1603 171.019 25.0367 171.099 24.9403C171.138 24.8942 171.186 24.8567 171.24 24.8305C171.294 24.8042 171.353 24.7898 171.414 24.7881C174.328 24.4357 177.136 23.4743 179.655 21.9664L180 21.7431C180.296 21.4897 180.642 21.3027 181.015 21.195C181.165 21.156 181.321 21.1479 181.473 21.1712C181.626 21.1944 181.772 21.2485 181.904 21.3302C182.035 21.4119 182.148 21.5194 182.236 21.6463C182.324 21.7731 182.385 21.9165 182.416 22.0679C182.465 22.2148 182.526 22.3573 182.599 22.4942C183.21 23.688 184.203 24.6423 185.421 25.2042C185.674 25.2959 185.893 25.4622 186.05 25.6813C186.147 25.852 186.203 26.0433 186.212 26.2395C186.304 27.0617 186.415 27.8838 186.517 28.6958C187.057 31.7097 187.177 34.7841 186.872 37.8308C186.83 38.2957 186.691 38.7467 186.466 39.1555C186.241 39.5642 185.933 39.9219 185.563 40.2059C184.838 40.6818 183.983 40.9228 183.117 40.8961L183.543 47.047C183.478 47.6064 183.303 48.1474 183.027 48.6386C182.752 49.1299 182.382 49.5618 181.939 49.9093C181.282 50.3782 180.493 50.6237 179.686 50.6097ZM173.251 45.4433C173.79 46.4775 174.547 47.3818 175.471 48.0935C176.395 48.8051 177.462 49.307 178.6 49.5642C179.031 49.7203 179.492 49.7769 179.949 49.7297C180.405 49.6825 180.845 49.5328 181.236 49.2917C181.626 49.0506 181.957 48.7244 182.203 48.3375C182.45 47.9506 182.606 47.5129 182.66 47.0572L182.193 40.4597C182.187 40.3905 182.197 40.3208 182.222 40.2558C182.246 40.1909 182.285 40.1322 182.335 40.0841C182.388 40.0354 182.45 39.9991 182.519 39.978C182.588 39.9569 182.66 39.9516 182.731 39.9623C183.534 40.0815 184.354 39.9125 185.045 39.4853C185.313 39.2719 185.535 39.0062 185.697 38.7043C185.86 38.4024 185.959 38.0707 185.989 37.7293C186.267 34.7663 186.148 31.7794 185.634 28.8481C185.522 28.0259 185.421 27.2038 185.329 26.3715C185.329 26.3715 185.329 26.2294 185.329 26.1989L185.116 26.0873C183.689 25.4447 182.519 24.3398 181.797 22.9509C181.71 22.7827 181.632 22.6099 181.564 22.4333C181.529 22.3281 181.484 22.2262 181.432 22.1288C181.347 22.1198 181.262 22.1198 181.178 22.1288C180.936 22.2273 180.711 22.3607 180.508 22.5246C180.346 22.6261 180.203 22.7378 180.082 22.7987C177.589 24.2793 174.83 25.2585 171.962 25.6813C172.266 30.2894 173.17 44.1847 173.251 45.4433Z" fill="#231F20"/>
<path d="M182.812 43.7178C181.165 43.8484 179.531 43.3435 178.245 42.307C177.718 41.8766 177.291 41.337 176.993 40.7254C176.695 40.1138 176.533 39.4448 176.519 38.7646C178.382 39.8083 180.474 40.3765 182.609 40.4191L182.812 43.7178Z" fill="#231F20"/>
<path d="M182.305 44.1849C180.703 44.2168 179.144 43.6648 177.92 42.632C177.344 42.157 176.879 41.5623 176.556 40.8892C176.233 40.216 176.061 39.4807 176.052 38.7344C176.06 38.6584 176.087 38.5856 176.129 38.522C176.172 38.4584 176.229 38.4059 176.296 38.369C176.362 38.3316 176.438 38.312 176.514 38.312C176.59 38.312 176.666 38.3316 176.732 38.369C178.523 39.39 180.538 39.9547 182.599 40.0133C182.716 40.0128 182.829 40.0564 182.915 40.1354C183.002 40.2143 183.056 40.3229 183.066 40.4396L183.238 43.7282C183.247 43.8424 183.21 43.9553 183.136 44.0426C183.062 44.13 182.957 44.1847 182.842 44.1951C182.663 44.2071 182.483 44.2037 182.305 44.1849ZM177.027 39.5362C177.263 40.4816 177.784 41.3317 178.519 41.9722C179.588 42.8526 180.94 43.3175 182.325 43.2816L182.193 40.876C180.397 40.7903 178.638 40.3342 177.027 39.5362Z" fill="#231F20"/>
<path d="M181.594 28.5332C181.594 28.5332 183.949 31.5782 183.472 32.2075C182.995 32.8368 181.543 32.5222 181.543 32.5222" fill="white"/>
<path d="M182.284 33.0402C182.008 33.0428 181.732 33.0156 181.462 32.959C181.404 32.9484 181.349 32.9264 181.299 32.8943C181.25 32.8623 181.207 32.8208 181.174 32.7723C181.14 32.7237 181.117 32.6691 181.104 32.6114C181.092 32.5538 181.091 32.4943 181.102 32.4363C181.112 32.3783 181.134 32.323 181.166 32.2735C181.198 32.224 181.24 32.1813 181.288 32.1479C181.337 32.1144 181.392 32.0908 181.449 32.0785C181.507 32.0662 181.567 32.0653 181.624 32.076C182.122 32.1775 182.924 32.1775 183.127 31.9237C182.656 30.8095 182.019 29.7726 181.239 28.8483C181.203 28.8017 181.176 28.7485 181.16 28.6915C181.145 28.6346 181.141 28.5752 181.148 28.5167C181.156 28.4582 181.175 28.4017 181.204 28.3506C181.234 28.2995 181.273 28.2548 181.32 28.219C181.367 28.1833 181.421 28.1573 181.478 28.1425C181.536 28.1278 181.595 28.1246 181.654 28.133C181.712 28.1415 181.769 28.1616 181.819 28.192C181.87 28.2225 181.914 28.2627 181.949 28.3103C183.654 30.5332 184.284 31.9542 183.827 32.5327C183.619 32.719 183.374 32.8602 183.109 32.9475C182.843 33.0348 182.562 33.0664 182.284 33.0402Z" fill="#231F20"/>
<path d="M181.3 36.5215H181.117C178.874 36.3997 177.189 34.2276 177.118 34.1363C177.082 34.0896 177.055 34.0364 177.04 33.9795C177.025 33.9226 177.021 33.8633 177.028 33.8048C177.036 33.7464 177.055 33.69 177.084 33.6389C177.113 33.5878 177.152 33.543 177.199 33.507C177.246 33.471 177.299 33.4446 177.356 33.4292C177.413 33.4138 177.472 33.4097 177.531 33.4173C177.589 33.4248 177.645 33.4438 177.696 33.4731C177.748 33.5024 177.792 33.5415 177.828 33.5882C177.828 33.5882 179.341 35.5268 181.158 35.6182C181.637 35.6242 182.111 35.5203 182.544 35.3144C182.977 35.1086 183.357 34.8062 183.654 34.4306C183.739 34.35 183.852 34.305 183.969 34.305C184.086 34.305 184.199 34.35 184.284 34.4306C184.326 34.4723 184.36 34.522 184.384 34.5769C184.407 34.6318 184.419 34.6908 184.419 34.7504C184.419 34.81 184.407 34.8689 184.384 34.9239C184.36 34.9788 184.326 35.0285 184.284 35.0701C183.917 35.5085 183.461 35.8645 182.947 36.1146C182.433 36.3647 181.871 36.5034 181.3 36.5215Z" fill="#231F20"/>
<path d="M184.629 130.906L177.209 161.092C177.209 161.092 214.165 148.719 215.495 144.68C216.825 140.64 196.383 145.289 196.383 145.289L197.834 136.661L184.629 130.906Z" fill="white"/>
<path d="M177.209 161.6C177.133 161.599 177.057 161.581 176.989 161.547C176.92 161.513 176.86 161.464 176.813 161.403C176.767 161.343 176.734 161.272 176.718 161.197C176.702 161.123 176.704 161.045 176.722 160.971L184.132 130.785C184.149 130.712 184.182 130.644 184.229 130.586C184.275 130.528 184.334 130.481 184.401 130.448C184.468 130.415 184.541 130.397 184.615 130.396C184.69 130.394 184.764 130.409 184.832 130.44L198.027 136.195C198.13 136.241 198.215 136.32 198.269 136.419C198.324 136.517 198.346 136.631 198.331 136.743L197.022 144.629C201.082 143.736 213.688 141.178 215.729 143.432C215.901 143.616 216.017 143.846 216.062 144.094C216.107 144.343 216.08 144.599 215.982 144.832C214.612 149.004 181.188 160.301 177.412 161.57C177.348 161.597 177.278 161.607 177.209 161.6ZM184.974 131.617L177.93 160.311C192.14 155.51 214.115 147.228 215.018 144.518C215.089 144.274 215.018 144.183 214.967 144.112C213.577 142.579 202.899 144.325 196.494 145.786C196.413 145.803 196.329 145.8 196.249 145.777C196.17 145.754 196.097 145.712 196.038 145.654C195.976 145.597 195.93 145.525 195.904 145.445C195.877 145.366 195.871 145.28 195.885 145.198L197.276 136.966L184.974 131.617Z" fill="#231F20"/>
<path d="M153.753 97.1475C153.753 97.1475 148.627 118.462 158.746 121.355C168.866 124.248 185.796 112.677 185.796 112.677L180.315 132.48C180.315 132.48 176.641 141.422 181.97 141.026C186.771 134.804 193.327 133.16 197.834 136.661C204.888 128.836 217.271 104.252 209.273 95.8178C201.275 87.3832 153.753 97.1475 153.753 97.1475Z" fill="#231F20"/>
<path d="M181.635 141.513C181.185 141.544 180.734 141.462 180.323 141.277C179.912 141.091 179.554 140.806 179.28 140.447C177.565 138.093 179.808 132.581 179.899 132.327L185.045 113.733C181.218 116.179 167.516 124.349 158.655 121.853C148.241 118.879 153.133 97.9899 153.347 97.1068C153.366 97.0239 153.409 96.9483 153.47 96.8889C153.531 96.8296 153.608 96.789 153.692 96.7719C155.651 96.3659 201.559 87.0482 209.628 95.5742C217.698 104.1 205.568 128.876 198.199 137.017C198.125 137.102 198.02 137.156 197.907 137.168C197.794 137.179 197.681 137.147 197.59 137.078C196.736 136.411 195.758 135.922 194.712 135.64C193.666 135.357 192.574 135.287 191.5 135.433C188.252 135.849 185.025 137.95 182.365 141.361C182.329 141.411 182.281 141.452 182.227 141.482C182.173 141.512 182.113 141.529 182.051 141.533L181.635 141.513ZM185.796 112.261C185.892 112.262 185.984 112.294 186.06 112.352C186.135 112.404 186.192 112.477 186.223 112.563C186.254 112.649 186.257 112.742 186.233 112.829L180.782 132.601C180.173 134.114 178.864 138.265 180.051 139.899C180.256 140.153 180.522 140.349 180.824 140.47C181.126 140.591 181.454 140.632 181.777 140.589C184.538 137.088 187.928 134.926 191.358 134.499C193.631 134.176 195.941 134.735 197.814 136.063C204.817 128.014 216.54 104.11 208.979 96.1324C201.417 88.1545 158.097 96.7516 154.169 97.5433C153.621 100.03 149.926 118.371 158.909 120.888C168.693 123.68 185.421 112.383 185.583 112.271C185.65 112.241 185.723 112.227 185.796 112.23V112.261Z" fill="#231F20"/>
<path d="M177.209 161.092C177.209 161.092 181.269 165.071 192.84 161.092C204.411 157.114 219.027 146.446 215.495 144.68C211.963 142.914 181.127 155.52 177.209 161.092Z" fill="#231F20"/>
<path d="M183.634 163.315C178.935 163.315 177.016 161.519 176.905 161.407C176.827 161.334 176.778 161.235 176.767 161.129C176.756 161.023 176.783 160.916 176.844 160.828C180.701 155.358 211.567 142.203 215.698 144.274C215.949 144.388 216.159 144.577 216.299 144.815C216.439 145.053 216.502 145.328 216.48 145.603C216.236 149.115 203.071 158.037 192.992 161.519C189.993 162.627 186.831 163.234 183.634 163.315ZM177.849 161.011C178.996 161.772 183.33 163.894 192.698 160.666C202.848 157.164 215.394 148.405 215.586 145.542C215.597 145.443 215.573 145.343 215.52 145.258C215.467 145.173 215.386 145.109 215.292 145.076C212.247 143.543 182.67 155.358 177.849 161.011Z" fill="#231F20"/>
<path d="M198.037 143.371C195.367 144.363 192.777 145.561 190.293 146.953L190.709 142.284C190.709 142.284 196.707 139.371 198.037 139.544V143.371Z" fill="white"/>
<path d="M190.313 147.461C190.223 147.462 190.135 147.437 190.059 147.39C189.976 147.341 189.908 147.269 189.865 147.183C189.821 147.096 189.804 146.999 189.816 146.903L190.232 142.244C190.237 142.158 190.266 142.075 190.314 142.004C190.362 141.933 190.428 141.875 190.506 141.838C191.521 141.341 196.728 138.874 198.128 139.036C198.251 139.052 198.364 139.112 198.445 139.206C198.525 139.3 198.568 139.42 198.565 139.544V143.371C198.564 143.473 198.533 143.574 198.475 143.659C198.417 143.743 198.335 143.809 198.24 143.848C195.606 144.828 193.051 146.009 190.597 147.38C190.512 147.432 190.413 147.46 190.313 147.461ZM191.216 142.619L190.912 145.999C193.066 144.883 195.283 143.89 197.55 143.025V140.082C195.369 140.743 193.25 141.592 191.216 142.619Z" fill="#231F20"/>
<path d="M166.196 46.4482C166.196 46.4482 129.545 61.3281 126.439 65.5099C123.333 69.6917 118.004 95.0464 118.004 95.0464L129.078 93.4529C129.078 93.4529 139.096 77.7204 142.202 74.3912C145.308 71.062 162.857 66.4031 162.857 66.4031L166.196 46.4482Z" fill="#148532"/>
<path d="M135.107 86.2767L127.657 99.0251C127.657 99.0251 133.991 104.1 132.448 104.932C130.905 105.765 129.403 106.424 129.403 106.424C129.403 106.424 129.24 110.596 127.373 111.093C125.505 111.591 115.081 110.667 115.548 107.094C117.172 94.7723 119.192 80.7551 119.06 82.3588L135.107 86.2767Z" fill="white"/>
<path d="M125.911 111.723C123.12 111.723 118.106 111.023 116.066 109.236C115.727 108.983 115.46 108.646 115.293 108.257C115.126 107.869 115.063 107.444 115.112 107.024C115.792 101.796 116.634 95.6657 117.405 90.2151C118.085 85.4548 118.42 83.3436 118.613 82.4199C118.608 82.3829 118.608 82.3453 118.613 82.3083C118.608 82.3317 118.608 82.356 118.613 82.3793C118.786 81.6891 118.918 81.6993 119.161 81.7297C119.233 81.735 119.303 81.7559 119.366 81.791C119.43 81.8261 119.484 81.8744 119.527 81.9328L135.209 85.7796C135.284 85.7999 135.355 85.8369 135.414 85.8878C135.474 85.9387 135.522 86.0023 135.554 86.0739C135.589 86.145 135.607 86.2231 135.607 86.3023C135.607 86.3815 135.589 86.4596 135.554 86.5307L128.307 98.8832C129.829 100.132 133.311 103.146 133.179 104.598C133.165 104.757 133.111 104.91 133.022 105.043C132.933 105.176 132.813 105.285 132.671 105.359C131.534 105.968 130.428 106.506 129.92 106.739C129.839 107.825 129.443 111.053 127.576 111.561C127.029 111.679 126.47 111.734 125.911 111.723ZM119.496 82.9782C119.07 85.6477 117.466 96.6198 116.116 107.155C116.096 107.41 116.143 107.666 116.251 107.897C116.36 108.129 116.527 108.328 116.736 108.475C118.989 110.444 125.871 110.982 127.302 110.596C128.51 110.272 128.885 107.389 128.926 106.404C128.93 106.312 128.96 106.222 129.012 106.145C129.064 106.068 129.136 106.007 129.22 105.968C129.22 105.968 130.682 105.298 132.194 104.486C132.255 103.948 129.991 101.553 127.332 99.411C127.236 99.3365 127.17 99.2291 127.148 99.1094C127.125 98.9897 127.148 98.8659 127.21 98.7614L134.315 86.5814L119.496 82.9782Z" fill="#231F20"/>
<path d="M233.877 33.862C233.877 33.3545 228.873 16.3329 228.873 16.3329L239.703 12.5368C239.703 12.5368 239.54 8.53774 241.865 7.03554C244.189 5.53334 247.366 7.03554 247.366 7.03554C247.366 7.03554 256.856 -0.952513 258.024 0.712087C259.191 2.37669 255.689 6.04083 250.36 9.84708C250.36 9.84708 253.192 17.8453 250.025 20.3422C248.172 21.8262 245.924 22.7333 243.56 22.9507L233.877 33.862Z" fill="white"/>
<path d="M233.877 34.3697C233.816 34.3793 233.755 34.3793 233.694 34.3697C233.602 34.3356 233.522 34.2751 233.464 34.1956C233.406 34.1161 233.373 34.0213 233.369 33.9231C233.258 33.2126 230.324 23.1336 228.386 16.5057C228.352 16.3792 228.367 16.2447 228.427 16.1284C228.487 16.0122 228.588 15.9223 228.71 15.8764L239.195 12.2021C239.195 11.116 239.469 8.01011 241.591 6.63986C243.712 5.26961 246.382 6.1222 247.275 6.47745C249.092 4.9651 255.527 -0.282445 257.689 0.0119053C257.837 0.0278332 257.981 0.0749299 258.111 0.150129C258.24 0.225328 258.352 0.326943 258.44 0.448356C260.125 2.85391 254.623 7.43156 250.959 10.0909C251.487 11.7453 253.385 18.3936 250.34 20.789C248.459 22.2886 246.194 23.2279 243.803 23.499L234.252 34.2276C234.203 34.2755 234.144 34.3129 234.079 34.3373C234.015 34.3618 233.946 34.3728 233.877 34.3697ZM229.502 16.6681C231.055 21.9867 233.379 29.9544 234.13 32.8269L243.184 22.6769C243.277 22.5764 243.403 22.5147 243.539 22.5043C245.795 22.287 247.939 21.4196 249.711 20.0074C252.076 18.1398 250.634 12.2122 249.883 10.0807C249.847 9.97745 249.846 9.86537 249.879 9.76112C249.912 9.65688 249.977 9.56605 250.066 9.50215C256.257 5.05645 258.308 2.04191 257.607 1.03706C256.887 0.600605 252.269 3.61516 247.691 7.47216C247.617 7.53318 247.526 7.57141 247.431 7.58221C247.335 7.59302 247.239 7.57595 247.153 7.53305C247.153 7.53305 244.199 6.1831 242.139 7.53305C240.078 8.88301 240.21 12.5472 240.21 12.6081C240.214 12.717 240.182 12.8242 240.12 12.9138C240.058 13.0034 239.969 13.0706 239.865 13.1054L229.502 16.6681Z" fill="#231F20"/>
<path d="M192.302 84.125H192.211C192.09 84.1005 191.984 84.0291 191.915 83.9264C191.847 83.8237 191.822 83.698 191.846 83.5769C194.819 68.9406 197.641 42.6216 197.499 41.3427C197.484 41.2854 197.48 41.2256 197.488 41.1669C197.497 41.1082 197.516 41.0516 197.547 41.0006C197.577 40.9496 197.617 40.9051 197.665 40.8697C197.712 40.8344 197.766 40.8088 197.824 40.7946C197.946 40.7639 198.076 40.7829 198.184 40.8476C198.293 40.9123 198.371 41.0174 198.402 41.1397C198.656 42.0837 195.733 69.1131 192.759 83.7697C192.732 83.8708 192.673 83.9603 192.591 84.0245C192.508 84.0887 192.407 84.124 192.302 84.125Z" fill="#231F20"/>
<path d="M145.501 71.9855C145.393 71.9825 145.289 71.942 145.207 71.871C145.126 71.8001 145.071 71.703 145.053 71.5964C145.035 71.4898 145.055 71.3802 145.109 71.2864C145.163 71.1926 145.247 71.1204 145.348 71.0821L166.044 64.2816C166.158 64.2535 166.279 64.2694 166.381 64.326C166.484 64.3827 166.562 64.476 166.599 64.5873C166.636 64.6987 166.63 64.8199 166.582 64.9269C166.533 65.0339 166.447 65.1188 166.339 65.1647L145.643 71.9652C145.597 71.9813 145.549 71.9882 145.501 71.9855Z" fill="#231F20"/>
<path d="M247.559 17.6833C247.471 17.693 247.383 17.693 247.295 17.6833C246.51 17.513 245.782 17.1433 245.181 16.61C244.58 16.0767 244.127 15.3977 243.864 14.6383C243.792 15.3064 243.529 15.9396 243.106 16.4617C242.683 16.9838 242.118 17.3727 241.479 17.5818C241.421 17.6011 241.36 17.6082 241.299 17.6028C241.238 17.5973 241.179 17.5794 241.125 17.5502C241.071 17.5209 241.024 17.481 240.986 17.4327C240.949 17.3845 240.921 17.3291 240.906 17.2698C240.891 17.2106 240.888 17.1489 240.897 17.0884C240.907 17.028 240.929 16.9702 240.961 16.9185C240.994 16.8669 241.037 16.8225 241.088 16.7882C241.138 16.7539 241.196 16.7303 241.256 16.719C243.519 16.1303 243.123 12.182 243.113 12.1414C243.102 12.0233 243.137 11.9054 243.21 11.8125C243.284 11.7197 243.391 11.6593 243.509 11.644C243.625 11.6347 243.74 11.6691 243.832 11.7405C243.924 11.8118 243.987 11.915 244.006 12.0297C244.006 12.0297 244.636 16.2927 247.427 16.7089C247.52 16.7336 247.618 16.7314 247.709 16.7027C247.801 16.6739 247.883 16.6198 247.945 16.5465C248.96 15.43 247.843 10.1824 246.93 7.14758C246.895 7.03452 246.906 6.91223 246.961 6.80756C247.016 6.7029 247.111 6.62441 247.224 6.58933C247.281 6.57225 247.34 6.56659 247.399 6.57269C247.458 6.57879 247.515 6.59651 247.567 6.62484C247.619 6.65317 247.664 6.69154 247.701 6.73772C247.738 6.7839 247.766 6.83696 247.782 6.89383C248.036 7.74643 250.218 15.2777 248.604 17.1352C248.483 17.2998 248.326 17.4346 248.145 17.5296C247.964 17.6245 247.763 17.6771 247.559 17.6833Z" fill="#231F20"/>
<path d="M18.6662 156.119C17.1437 153.074 2.28414 127.506 0.000385806 111.124C0.000385806 111.124 -0.263514 143.046 13.0127 159.479C26.2889 175.911 18.6662 156.119 18.6662 156.119Z" fill="#D1D3D4"/>
<path d="M174.53 27.2441L169.414 29.4467V30.5632L176.326 28.5332L174.53 27.2441Z" fill="#231F20"/>
<path d="M169.414 31.0098C169.315 31.0105 169.219 30.9784 169.14 30.9184C169.085 30.8769 169.041 30.8232 169.011 30.7614C168.981 30.6997 168.966 30.6318 168.967 30.5632V29.4467C168.966 29.3591 168.99 29.2729 169.037 29.1989C169.084 29.1249 169.151 29.0663 169.231 29.0305L174.306 26.828C174.377 26.7981 174.455 26.7871 174.531 26.796C174.608 26.8049 174.681 26.8334 174.743 26.8787L176.539 28.1779C176.606 28.2275 176.657 28.2946 176.688 28.3717C176.718 28.4487 176.726 28.5328 176.712 28.6144C176.699 28.6976 176.663 28.7755 176.607 28.8385C176.551 28.9015 176.478 28.9471 176.397 28.9696L169.485 30.9996L169.414 31.0098ZM169.861 29.741V29.9643L175.321 28.3606L174.479 27.7516L169.861 29.741Z" fill="#231F20"/>
<path d="M172.855 31.4972C172.083 30.5431 170.825 28.7973 169.414 29.4672C169.029 29.648 168.7 29.9284 168.46 30.2792C167.986 30.9992 167.74 31.8455 167.754 32.7074C167.769 33.5694 168.043 34.407 168.541 35.1106C169.302 36.4098 171.586 38.2977 172.906 36.5215" fill="white"/>
<path d="M171.556 37.6888H171.424C170.74 37.5522 170.093 37.2716 169.526 36.8656C168.959 36.4596 168.485 35.9375 168.135 35.334C167.596 34.5445 167.307 33.6106 167.307 32.6544C167.307 31.6983 167.596 30.7643 168.135 29.9748C168.423 29.5621 168.815 29.2329 169.272 29.0207C170.937 28.2798 172.317 29.9647 173.078 30.9695L173.261 31.203C173.338 31.2994 173.375 31.4221 173.364 31.5452C173.352 31.6682 173.294 31.7821 173.2 31.8627C173.152 31.9017 173.097 31.9307 173.038 31.9483C172.979 31.9658 172.917 31.9714 172.855 31.9648C172.794 31.9582 172.734 31.9395 172.68 31.9098C172.626 31.8801 172.579 31.8399 172.54 31.7917L172.347 31.5481C171.454 30.4214 170.571 29.4572 169.647 29.8632C169.337 30.0171 169.072 30.2477 168.876 30.5331C168.459 31.1819 168.247 31.9412 168.267 32.7122C168.287 33.4833 168.538 34.2305 168.988 34.857C169.256 35.3322 169.62 35.7464 170.057 36.0732C170.493 36.4 170.994 36.6322 171.525 36.755C171.726 36.7558 171.923 36.7071 172.1 36.6132C172.277 36.5194 172.428 36.3833 172.54 36.2171C172.616 36.1211 172.727 36.0587 172.848 36.0436C172.97 36.0284 173.093 36.0615 173.19 36.1359C173.239 36.1727 173.279 36.2189 173.31 36.2717C173.34 36.3246 173.36 36.383 173.368 36.4435C173.375 36.5041 173.37 36.5655 173.354 36.6243C173.337 36.683 173.309 36.7378 173.271 36.7855C173.077 37.0615 172.821 37.2875 172.523 37.4446C172.224 37.6017 171.893 37.6854 171.556 37.6888Z" fill="#231F20"/>
<path d="M177.872 29.2986C179.578 29.1172 180.848 27.9083 180.709 26.5983C180.569 25.2884 179.074 24.3735 177.368 24.5549C175.662 24.7363 174.392 25.9452 174.532 27.2552C174.671 28.5651 176.167 29.48 177.872 29.2986Z" fill="white"/>
<path d="M177.453 29.7821C176.683 29.8492 175.916 29.6338 175.294 29.1761C174.672 28.7184 174.238 28.0498 174.073 27.2953C173.9 25.7322 175.362 24.2503 177.321 24.0778C178.205 23.9754 179.098 24.1605 179.869 24.6056C180.222 24.8021 180.523 25.0792 180.749 25.4143C180.975 25.7494 181.118 26.1331 181.168 26.5341C181.34 28.0972 179.879 29.5791 177.92 29.7516C177.765 29.7719 177.609 29.782 177.453 29.7821ZM177.798 24.9811H177.412C175.971 25.1334 174.885 26.1179 174.997 27.1735C175.108 28.2291 176.367 28.9599 177.828 28.8077C179.29 28.6554 180.366 27.6709 180.254 26.6153C180.213 26.3561 180.112 26.1098 179.961 25.8952C179.81 25.6806 179.611 25.5034 179.381 25.377C178.899 25.1034 178.352 24.9665 177.798 24.9811Z" fill="#231F20"/>
<path d="M184.23 28.9939C185.935 28.8126 187.205 27.6036 187.066 26.2936C186.927 24.9837 185.431 24.0688 183.725 24.2502C182.019 24.4316 180.75 25.6405 180.889 26.9505C181.028 28.2604 182.524 29.1753 184.23 28.9939Z" fill="white"/>
<path d="M183.827 29.4775C183.058 29.5446 182.29 29.3292 181.668 28.8715C181.046 28.4138 180.612 27.7452 180.447 26.9907C180.285 25.4276 181.746 23.9457 183.695 23.7732C185.644 23.6006 187.39 24.6664 187.552 26.2295C187.714 27.7926 186.263 29.2745 184.304 29.4369L183.827 29.4775ZM184.182 24.6765H183.797C182.345 24.8288 181.259 25.8133 181.371 26.8689C181.482 27.9245 182.761 28.6553 184.203 28.5031C185.644 28.3508 186.74 27.3663 186.628 26.3107C186.484 25.7865 186.154 25.3324 185.701 25.0321C185.248 24.7318 184.701 24.6055 184.162 24.6765H184.182Z" fill="#231F20"/>
<path d="M56.6679 137.108C59.2521 137.108 61.347 135.013 61.347 132.429C61.347 129.844 59.2521 127.75 56.6679 127.75C54.0836 127.75 51.9887 129.844 51.9887 132.429C51.9887 135.013 54.0836 137.108 56.6679 137.108Z" fill="white"/>
<path d="M56.6678 137.615C55.6396 137.617 54.6338 137.314 53.7779 136.744C52.9219 136.175 52.2543 135.364 51.8594 134.414C51.4645 133.465 51.3601 132.42 51.5595 131.411C51.7589 130.402 52.253 129.475 52.9794 128.747C53.7058 128.02 54.6317 127.524 55.6401 127.322C56.6484 127.121 57.6939 127.223 58.6441 127.616C59.5942 128.009 60.4065 128.675 60.9779 129.53C61.5494 130.385 61.8545 131.39 61.8545 132.418C61.8545 133.795 61.3084 135.115 60.336 136.09C59.3636 137.064 58.0443 137.613 56.6678 137.615ZM56.6678 128.247C55.8399 128.245 55.03 128.489 54.3407 128.947C53.6515 129.406 53.1139 130.059 52.7962 130.824C52.4784 131.588 52.3947 132.43 52.5558 133.242C52.7168 134.054 53.1153 134.8 53.7007 135.386C54.2862 135.971 55.0322 136.37 55.8443 136.531C56.6565 136.692 57.4981 136.608 58.2627 136.29C59.0272 135.972 59.6802 135.435 60.1389 134.746C60.5977 134.056 60.8415 133.246 60.8395 132.418C60.8368 131.313 60.3964 130.253 59.6147 129.472C58.8329 128.69 57.7734 128.249 56.6678 128.247Z" fill="#8E59FF"/>
<path d="M233.004 77.1927C234.299 77.1927 235.348 76.143 235.348 74.8481C235.348 73.5532 234.299 72.5034 233.004 72.5034C231.709 72.5034 230.659 73.5532 230.659 74.8481C230.659 76.143 231.709 77.1927 233.004 77.1927Z" fill="white"/>
<path d="M233.004 77.6999C232.439 77.7019 231.887 77.5363 231.416 77.2242C230.946 76.912 230.579 76.4672 230.361 75.9463C230.144 75.4253 230.086 74.8515 230.195 74.2976C230.304 73.7436 230.575 73.2345 230.973 72.8346C231.372 72.4347 231.88 72.162 232.433 72.0512C232.987 71.9403 233.561 71.9962 234.083 72.2117C234.604 72.4273 235.051 72.7929 235.364 73.2621C235.678 73.7314 235.846 74.2832 235.846 74.8477C235.846 75.6024 235.547 76.3263 235.014 76.8609C234.481 77.3955 233.758 77.6972 233.004 77.6999ZM233.004 73.0106C232.64 73.0086 232.284 73.1146 231.98 73.3153C231.677 73.5159 231.44 73.8021 231.299 74.1376C231.159 74.4731 231.121 74.8428 231.191 75.1999C231.26 75.5569 231.434 75.8852 231.691 76.1432C231.947 76.4011 232.275 76.5771 232.631 76.6488C232.988 76.7205 233.358 76.6847 233.694 76.546C234.031 76.4072 234.318 76.1718 234.52 75.8695C234.723 75.5671 234.831 75.2115 234.831 74.8477C234.831 74.3622 234.639 73.8965 234.296 73.5523C233.954 73.208 233.489 73.0133 233.004 73.0106Z" fill="#8E59FF"/>
<path d="M266.184 69.4076C268.768 69.4076 270.863 67.3127 270.863 64.7285C270.863 62.1442 268.768 60.0493 266.184 60.0493C263.6 60.0493 261.505 62.1442 261.505 64.7285C261.505 67.3127 263.6 69.4076 266.184 69.4076Z" fill="#8E59FF"/>
<path d="M273.939 238.537C288.497 238.537 300.298 226.735 300.298 212.177C300.298 197.619 288.497 185.818 273.939 185.818C259.381 185.818 247.579 197.619 247.579 212.177C247.579 226.735 259.381 238.537 273.939 238.537Z" fill="#8E59FF"/>
<path d="M273.949 239.044C268.942 239.044 264.035 237.645 259.781 235.005C255.528 232.365 252.096 228.588 249.874 224.102C247.652 219.615 246.727 214.597 247.205 209.614C247.683 204.63 249.543 199.879 252.577 195.896C255.611 191.913 259.698 188.858 264.376 187.074C269.054 185.29 274.137 184.848 279.053 185.799C283.968 186.75 288.52 189.056 292.195 192.456C295.87 195.856 298.522 200.215 299.852 205.042C300.948 209.03 301.109 213.218 300.323 217.278C299.536 221.339 297.823 225.164 295.316 228.454C292.81 231.745 289.578 234.412 285.871 236.249C282.165 238.086 278.085 239.042 273.949 239.044ZM273.949 186.315C268.537 186.313 263.262 188.009 258.865 191.164C254.468 194.319 251.172 198.773 249.44 203.9C247.708 209.027 247.628 214.568 249.211 219.743C250.794 224.917 253.96 229.465 258.264 232.746C262.568 236.026 267.792 237.874 273.202 238.029C278.611 238.184 283.932 236.638 288.417 233.609C292.901 230.58 296.323 226.221 298.199 221.145C300.076 216.07 300.313 210.533 298.877 205.316C297.369 199.858 294.113 195.045 289.609 191.614C285.105 188.182 279.601 186.321 273.939 186.315H273.949Z" fill="#D1D3D4"/>
<path d="M242.2 226.6C237.49 226.6 233.227 225.92 232.577 223.555C231.532 219.668 241.388 214.593 247.386 211.893C247.51 211.839 247.65 211.837 247.776 211.886C247.902 211.936 248.002 212.033 248.056 212.157C248.11 212.281 248.113 212.421 248.063 212.547C248.014 212.672 247.916 212.773 247.792 212.827C236.546 217.831 233.065 221.505 233.582 223.281C234.1 225.058 238.952 226.448 251.162 224.987C268.001 222.717 284.459 218.198 300.095 211.548C311.331 206.564 314.813 202.88 314.305 201.093C313.798 199.307 308.946 197.937 296.726 199.398C296.591 199.415 296.455 199.377 296.349 199.293C296.242 199.209 296.173 199.086 296.157 198.952C296.141 198.817 296.179 198.682 296.263 198.575C296.346 198.469 296.469 198.4 296.604 198.383C303.12 197.602 314.204 196.891 315.28 200.819C316.356 204.747 306.48 209.812 300.491 212.461C284.757 219.178 268.188 223.74 251.233 226.022C248.236 226.388 245.219 226.582 242.2 226.6Z" fill="#D1D3D4"/>
<path d="M220.367 205.245C220.232 205.245 220.103 205.191 220.008 205.096C219.913 205.001 219.86 204.872 219.86 204.737V198.759C219.86 198.624 219.913 198.495 220.008 198.4C220.103 198.305 220.232 198.251 220.367 198.251C220.502 198.251 220.631 198.305 220.726 198.4C220.821 198.495 220.875 198.624 220.875 198.759V204.737C220.875 204.872 220.821 205.001 220.726 205.096C220.631 205.191 220.502 205.245 220.367 205.245Z" fill="#D1D3D4"/>
<path d="M223.412 202.251H217.434C217.299 202.251 217.17 202.197 217.075 202.102C216.98 202.007 216.926 201.878 216.926 201.743C216.929 201.61 216.983 201.482 217.078 201.387C217.172 201.293 217.3 201.238 217.434 201.236H223.412C223.547 201.236 223.676 201.289 223.771 201.384C223.866 201.48 223.92 201.609 223.92 201.743C223.92 201.878 223.866 202.007 223.771 202.102C223.676 202.197 223.547 202.251 223.412 202.251Z" fill="#D1D3D4"/>
<path d="M289.549 84.1657C289.415 84.1657 289.286 84.1122 289.191 84.0171C289.095 83.9219 289.042 83.7928 289.042 83.6582V77.6799C289.042 77.5453 289.095 77.4162 289.191 77.321C289.286 77.2258 289.415 77.1724 289.549 77.1724C289.684 77.1724 289.813 77.2258 289.908 77.321C290.003 77.4162 290.057 77.5453 290.057 77.6799V83.6582C290.057 83.7928 290.003 83.9219 289.908 84.0171C289.813 84.1122 289.684 84.1657 289.549 84.1657Z" fill="#D1D3D4"/>
<path d="M292.544 81.1815H286.565C286.431 81.1815 286.302 81.128 286.206 81.0329C286.111 80.9377 286.058 80.8086 286.058 80.674C286.058 80.5394 286.111 80.4103 286.206 80.3151C286.302 80.22 286.431 80.1665 286.565 80.1665H292.544C292.678 80.1665 292.807 80.22 292.903 80.3151C292.998 80.4103 293.051 80.5394 293.051 80.674C293.049 80.8078 292.994 80.9354 292.9 81.03C292.805 81.1246 292.677 81.1789 292.544 81.1815Z" fill="#D1D3D4"/>
<path d="M37.4742 215.212C37.3396 215.212 37.2105 215.159 37.1153 215.063C37.0201 214.968 36.9667 214.839 36.9667 214.705V208.726C36.9667 208.592 37.0201 208.463 37.1153 208.367C37.2105 208.272 37.3396 208.219 37.4742 208.219C37.6088 208.219 37.7379 208.272 37.833 208.367C37.9282 208.463 37.9817 208.592 37.9817 208.726V214.705C37.9817 214.839 37.9282 214.968 37.833 215.063C37.7379 215.159 37.6088 215.212 37.4742 215.212Z" fill="#D1D3D4"/>
<path d="M40.4583 212.228H34.4799C34.3461 212.225 34.2185 212.171 34.1239 212.076C34.0293 211.982 33.975 211.854 33.9724 211.72C33.9724 211.586 34.0259 211.457 34.1211 211.362C34.2162 211.266 34.3453 211.213 34.4799 211.213H40.4583C40.5929 211.213 40.7219 211.266 40.8171 211.362C40.9123 211.457 40.9658 211.586 40.9658 211.72C40.9658 211.855 40.9123 211.984 40.8171 212.079C40.7219 212.174 40.5929 212.228 40.4583 212.228Z" fill="#D1D3D4"/>
<path d="M97.7347 87.1599C97.6001 87.1599 97.4711 87.1064 97.3759 87.0112C97.2807 86.916 97.2272 86.787 97.2272 86.6524V80.674C97.2272 80.5394 97.2807 80.4103 97.3759 80.3151C97.4711 80.22 97.6001 80.1665 97.7347 80.1665C97.8693 80.1665 97.9984 80.22 98.0936 80.3151C98.1888 80.4103 98.2422 80.5394 98.2422 80.674V86.7031C98.2296 86.8287 98.1706 86.9451 98.0768 87.0296C97.9829 87.114 97.861 87.1605 97.7347 87.1599Z" fill="#D1D3D4"/>
<path d="M100.719 84.1654H94.7405C94.6059 84.1654 94.4768 84.1119 94.3816 84.0167C94.2864 83.9216 94.233 83.7925 94.233 83.6579C94.233 83.5233 94.2864 83.3942 94.3816 83.299C94.4768 83.2039 94.6059 83.1504 94.7405 83.1504H100.719C100.853 83.1504 100.983 83.2039 101.078 83.299C101.173 83.3942 101.226 83.5233 101.226 83.6579C101.226 83.7925 101.173 83.9216 101.078 84.0167C100.983 84.1119 100.853 84.1654 100.719 84.1654Z" fill="#D1D3D4"/>
</svg>
