<svg width="112" height="80" viewBox="0 0 112 80" fill="none" xmlns="http://www.w3.org/2000/svg">
<g id="Group 66">
<path id="Vector" d="M67.3635 79.7003C66.4555 79.7105 65.5508 79.5888 64.6777 79.3391C62.3745 78.6457 60.3131 76.7135 59.0279 74.0446C57.8763 71.6537 57.4143 69.0209 56.9702 66.4603C56.9656 66.4374 56.9657 66.4139 56.9705 66.3911C56.9754 66.3682 56.9849 66.3467 56.9984 66.3277C57.012 66.3087 57.0293 66.2927 57.0493 66.2808C57.0693 66.2688 57.0915 66.261 57.1146 66.258C57.1372 66.2539 57.1603 66.2542 57.1827 66.2591C57.2051 66.2639 57.2263 66.2732 57.2451 66.2863C57.2639 66.2994 57.2799 66.3161 57.2922 66.3354C57.3045 66.3547 57.3129 66.3763 57.3168 66.3989C57.7572 68.927 58.2121 71.5345 59.342 73.882C60.5875 76.4643 62.5694 78.3243 64.7787 78.9924C66.3852 79.4727 68.1361 79.3535 69.7895 79.1585C73.3309 78.7396 75.4898 77.6417 76.3959 75.807C76.4284 75.7348 76.4608 75.6698 76.4825 75.6084C75.9157 75.7673 75.3562 75.9695 74.8074 76.1754C74.3526 76.3415 73.8833 76.5113 73.414 76.6593C71.1299 77.3764 68.7071 77.535 66.3491 77.1216C65.212 76.9194 64.5188 76.3704 64.4936 75.6553C64.4683 74.9402 65.0856 74.3696 66.1867 74.0518C69.2036 73.1746 72.3994 73.116 75.4464 73.882C76.3128 74.0987 76.7894 74.4599 76.8904 74.9836C76.9012 75.0408 76.9085 75.0987 76.9121 75.1569C77.0493 75.1244 77.1865 75.0955 77.3273 75.0702C78.7929 74.8102 80.3236 74.9583 81.8037 75.0991C83.9048 75.3014 85.8903 75.4928 87.6809 74.6116C87.723 74.5917 87.7713 74.5893 87.8153 74.6048C87.8592 74.6204 87.8952 74.6527 87.9155 74.6946C87.926 74.7152 87.9322 74.7377 87.9339 74.7607C87.9355 74.7837 87.9326 74.8069 87.9252 74.8287C87.9178 74.8506 87.9061 74.8708 87.8908 74.888C87.8755 74.9053 87.8569 74.9194 87.8361 74.9294C85.9553 75.8503 83.829 75.6517 81.7712 75.4494C80.3272 75.3086 78.8074 75.1641 77.3886 75.4169C77.2154 75.4458 77.0276 75.4856 76.8724 75.5253C76.83 75.6852 76.7707 75.8402 76.6955 75.9876C75.7352 77.9378 73.4826 79.0971 69.8184 79.5341C69.0041 79.6381 68.1844 79.6936 67.3635 79.7003ZM71.1288 73.6906C69.4895 73.6911 67.8585 73.9233 66.2841 74.3804C65.8437 74.5068 64.8185 74.8897 64.8401 75.6373C64.8618 76.3848 66.0423 76.7207 66.4033 76.7677C68.7039 77.1784 71.0694 77.0323 73.3021 76.3415C73.7641 76.197 74.2298 76.0273 74.6775 75.8648C75.2948 75.6373 75.923 75.4061 76.5692 75.2364C76.5766 75.1752 76.5766 75.1134 76.5692 75.0522C76.4861 74.6694 76.0926 74.3985 75.367 74.2143C73.9813 73.8656 72.5577 73.6897 71.1288 73.6906Z" fill="#E6E7E8"/>
<path id="Vector_2" d="M109.879 24.4289H86.381C85.4319 24.4289 84.6626 25.1986 84.6626 26.148V76.4209C84.6626 77.3704 85.4319 78.14 86.381 78.14H109.879C110.828 78.14 111.597 77.3704 111.597 76.4209V26.148C111.597 25.1986 110.828 24.4289 109.879 24.4289Z" fill="#148532"/>
<path id="Vector_3" d="M109.879 78.3131H86.3809C85.8795 78.3121 85.3989 78.1124 85.0444 77.7577C84.6898 77.403 84.4902 76.9222 84.4893 76.4206V26.1441C84.4902 25.6425 84.6898 25.1617 85.0444 24.807C85.3989 24.4523 85.8795 24.2526 86.3809 24.2516H109.879C110.381 24.2516 110.862 24.4509 111.218 24.8057C111.573 25.1605 111.773 25.6419 111.774 26.1441V76.4206C111.773 76.9229 111.573 77.4042 111.218 77.759C110.862 78.1138 110.381 78.3131 109.879 78.3131ZM86.3809 24.602C85.9721 24.602 85.58 24.7644 85.2909 25.0536C85.0018 25.3429 84.8394 25.7351 84.8394 26.1441V76.4206C84.8394 76.8296 85.0018 77.2219 85.2909 77.5111C85.58 77.8003 85.9721 77.9628 86.3809 77.9628H109.879C110.288 77.9628 110.68 77.8003 110.969 77.5111C111.258 77.2219 111.42 76.8296 111.42 76.4206V26.1441C111.42 25.7351 111.258 25.3429 110.969 25.0536C110.68 24.7644 110.288 24.602 109.879 24.602H86.3809Z" fill="#148532"/>
<path id="Vector_4" d="M110.182 29.2864H86.0781V70.6207H110.182V29.2864Z" fill="white"/>
<path id="Vector_5" d="M100.424 72.6324H95.8359C95.2537 72.6324 94.7817 73.1045 94.7817 73.6869V75.4458C94.7817 76.0282 95.2537 76.5003 95.8359 76.5003H100.424C101.006 76.5003 101.478 76.0282 101.478 75.4458V73.6869C101.478 73.1045 101.006 72.6324 100.424 72.6324Z" fill="white"/>
<path id="Vector_6" d="M100.421 76.6735H95.8394C95.5129 76.6735 95.1998 76.5437 94.969 76.3128C94.7381 76.0818 94.6084 75.7686 94.6084 75.442V73.6903C94.6084 73.3637 94.7381 73.0505 94.969 72.8195C95.1998 72.5886 95.5129 72.4588 95.8394 72.4588H100.421C100.583 72.4583 100.743 72.4898 100.893 72.5515C101.043 72.6132 101.179 72.7038 101.293 72.8182C101.408 72.9326 101.499 73.0686 101.561 73.2182C101.623 73.3679 101.655 73.5283 101.655 73.6903V75.442C101.654 75.7689 101.524 76.0822 101.292 76.313C101.061 76.5439 100.747 76.6735 100.421 76.6735ZM95.8394 72.8091C95.6058 72.8091 95.3818 72.902 95.2166 73.0672C95.0514 73.2325 94.9586 73.4566 94.9586 73.6903V75.442C94.9586 75.6757 95.0514 75.8998 95.2166 76.0651C95.3818 76.2303 95.6058 76.3232 95.8394 76.3232H100.421C100.654 76.3232 100.878 76.2303 101.043 76.0651C101.209 75.8998 101.301 75.6757 101.301 75.442V73.6903C101.301 73.4566 101.209 73.2325 101.043 73.0672C100.878 72.902 100.654 72.8091 100.421 72.8091H95.8394Z" fill="#E6E7E8"/>
<path id="Vector_7" d="M100.565 26.9209H93.7057C93.6826 26.9214 93.6597 26.9172 93.6383 26.9087C93.6168 26.9002 93.5973 26.8875 93.5808 26.8714C93.5644 26.8553 93.5513 26.836 93.5423 26.8147C93.5334 26.7934 93.5288 26.7706 93.5288 26.7475C93.5288 26.7006 93.5474 26.6556 93.5806 26.6224C93.6138 26.5892 93.6588 26.5706 93.7057 26.5706H100.565C100.588 26.5706 100.611 26.5752 100.632 26.5841C100.653 26.593 100.672 26.6061 100.689 26.6226C100.705 26.6391 100.717 26.6586 100.726 26.6801C100.734 26.7015 100.739 26.7245 100.738 26.7475C100.739 26.7704 100.734 26.7932 100.726 26.8144C100.717 26.8357 100.705 26.855 100.688 26.8712C100.672 26.8874 100.653 26.9001 100.632 26.9087C100.61 26.9172 100.588 26.9214 100.565 26.9209Z" fill="#E6E7E8"/>
<path id="Vector_8" d="M102.446 26.9209H101.525C101.479 26.9209 101.435 26.9026 101.403 26.8701C101.37 26.8376 101.352 26.7935 101.352 26.7475C101.352 26.7012 101.37 26.6567 101.403 26.6237C101.435 26.5906 101.479 26.5715 101.525 26.5706H102.446C102.493 26.5706 102.538 26.5892 102.571 26.6224C102.604 26.6556 102.623 26.7006 102.623 26.7475C102.623 26.7706 102.618 26.7934 102.609 26.8147C102.6 26.836 102.587 26.8553 102.571 26.8714C102.554 26.8875 102.535 26.9002 102.513 26.9087C102.492 26.9172 102.469 26.9214 102.446 26.9209Z" fill="#E6E7E8"/>
<path id="Vector_9" d="M107.121 55.2571H89.1251C88.767 55.2571 88.4236 55.1148 88.1704 54.8615C87.9171 54.6082 87.7749 54.2646 87.7749 53.9064V45.0147C87.7744 44.8371 87.809 44.661 87.8766 44.4967C87.9443 44.3324 88.0437 44.1831 88.1691 44.0573C88.2945 43.9315 88.4435 43.8317 88.6075 43.7636C88.7716 43.6955 88.9475 43.6604 89.1251 43.6604H107.107C107.466 43.6604 107.81 43.8031 108.064 44.0571C108.318 44.3111 108.46 44.6555 108.46 45.0147V53.9064C108.46 54.2625 108.318 54.6039 108.068 54.8567C107.817 55.1095 107.477 55.2533 107.121 55.2571ZM89.1251 44.0143C88.8598 44.0143 88.6055 44.1197 88.418 44.3073C88.2304 44.495 88.1251 44.7494 88.1251 45.0147V53.9064C88.1251 54.1717 88.2304 54.4262 88.418 54.6138C88.6055 54.8014 88.8598 54.9068 89.1251 54.9068H107.107C107.372 54.9068 107.626 54.8014 107.814 54.6138C108.001 54.4262 108.107 54.1717 108.107 53.9064V45.0147C108.107 44.7494 108.001 44.495 107.814 44.3073C107.626 44.1197 107.372 44.0143 107.107 44.0143H89.1251Z" fill="#148532"/>
<path id="Vector_10" d="M87.9621 54.2349C87.9259 54.2342 87.8907 54.2224 87.8614 54.2011C87.8321 54.1798 87.8101 54.15 87.7982 54.1157C87.7864 54.0814 87.7854 54.0443 87.7954 54.0094C87.8053 53.9746 87.8257 53.9436 87.8538 53.9207L96.7634 46.8673C96.7979 46.841 96.8409 46.8283 96.8842 46.8317C96.9274 46.835 96.968 46.8541 96.9981 46.8854L102.316 52.4039C102.349 52.437 102.367 52.4818 102.367 52.5285C102.367 52.5751 102.349 52.6199 102.316 52.6531C102.3 52.6692 102.28 52.682 102.259 52.6908C102.238 52.6995 102.216 52.704 102.193 52.704C102.17 52.704 102.148 52.6995 102.126 52.6908C102.105 52.682 102.086 52.6692 102.07 52.6531L96.8645 47.2357L88.0776 54.1916C88.0459 54.22 88.0047 54.2355 87.9621 54.2349Z" fill="#148532"/>
<path id="Vector_11" d="M108.298 52.4652C108.273 52.4649 108.249 52.4592 108.226 52.4486C108.204 52.4381 108.184 52.4228 108.168 52.4038L105.215 49.0559L101.839 51.8766C101.804 51.9062 101.758 51.9206 101.712 51.9166C101.666 51.9125 101.624 51.8903 101.594 51.8549C101.564 51.8194 101.55 51.7737 101.554 51.7276C101.558 51.6815 101.58 51.639 101.616 51.6093L105.121 48.6767C105.153 48.6452 105.197 48.6275 105.242 48.6275C105.287 48.6275 105.33 48.6452 105.363 48.6767L108.428 52.1546C108.444 52.1707 108.457 52.1899 108.465 52.211C108.474 52.232 108.479 52.2546 108.479 52.2774C108.479 52.3003 108.474 52.3228 108.465 52.3439C108.457 52.365 108.444 52.3841 108.428 52.4002C108.413 52.4206 108.393 52.4372 108.371 52.4485C108.348 52.4598 108.323 52.4655 108.298 52.4652Z" fill="#148532"/>
<path id="Vector_12" d="M102.19 48.3734C101.919 48.3741 101.654 48.2944 101.428 48.1442C101.203 47.9941 101.027 47.7804 100.923 47.5301C100.819 47.2799 100.791 47.0043 100.844 46.7385C100.897 46.4726 101.027 46.2284 101.219 46.0368C101.41 45.8451 101.654 45.7147 101.92 45.662C102.186 45.6093 102.461 45.6367 102.711 45.7407C102.961 45.8448 103.175 46.0208 103.325 46.2464C103.475 46.4721 103.555 46.7372 103.554 47.0083C103.553 47.37 103.409 47.7167 103.154 47.9725C102.898 48.2283 102.551 48.3725 102.19 48.3734ZM102.19 45.9898C101.988 45.9891 101.791 46.0482 101.623 46.1597C101.455 46.2711 101.324 46.43 101.247 46.616C101.169 46.802 101.148 47.0069 101.187 47.2047C101.226 47.4025 101.323 47.5843 101.465 47.7271C101.607 47.8699 101.789 47.9673 101.986 48.0069C102.184 48.0465 102.389 48.0265 102.575 47.9495C102.761 47.8726 102.92 47.742 103.032 47.5745C103.144 47.4069 103.204 47.2098 103.204 47.0083C103.204 46.7388 103.097 46.4803 102.907 46.2894C102.717 46.0985 102.459 45.9907 102.19 45.9898Z" fill="#148532"/>
<path id="Vector_13" d="M90.5256 63.8925H89.5545C88.8726 63.8925 88.3198 64.4455 88.3198 65.1276V66.6445C88.3198 67.3266 88.8726 67.8796 89.5545 67.8796H90.5256C91.2074 67.8796 91.7602 67.3266 91.7602 66.6445V65.1276C91.7602 64.4455 91.2074 63.8925 90.5256 63.8925Z" fill="#148532"/>
<path id="Vector_14" d="M95.9186 63.8925H94.9475C94.2657 63.8925 93.7129 64.4455 93.7129 65.1276V66.6445C93.7129 67.3266 94.2657 67.8796 94.9475 67.8796H95.9186C96.6005 67.8796 97.1533 67.3266 97.1533 66.6445V65.1276C97.1533 64.4455 96.6005 63.8925 95.9186 63.8925Z" fill="#148532"/>
<path id="Vector_15" d="M101.312 63.8925H100.341C99.6592 63.8925 99.1064 64.4455 99.1064 65.1276V66.6445C99.1064 67.3266 99.6592 67.8796 100.341 67.8796H101.312C101.994 67.8796 102.547 67.3266 102.547 66.6445V65.1276C102.547 64.4455 101.994 63.8925 101.312 63.8925Z" fill="#148532"/>
<path id="Vector_16" d="M106.706 63.8925H105.735C105.053 63.8925 104.5 64.4455 104.5 65.1276V66.6445C104.5 67.3266 105.053 67.8796 105.735 67.8796H106.706C107.388 67.8796 107.94 67.3266 107.94 66.6445V65.1276C107.94 64.4455 107.388 63.8925 106.706 63.8925Z" fill="#148532"/>
<path id="Vector_17" d="M108.042 32.7317H88.2189C88.1958 32.7322 88.1729 32.7281 88.1515 32.7196C88.13 32.7111 88.1105 32.6984 88.094 32.6822C88.0775 32.6661 88.0645 32.6468 88.0555 32.6256C88.0466 32.6043 88.042 32.5814 88.042 32.5584C88.042 32.5114 88.0606 32.4664 88.0938 32.4332C88.127 32.4001 88.172 32.3814 88.2189 32.3814H108.042C108.089 32.3814 108.134 32.4001 108.167 32.4332C108.2 32.4664 108.219 32.5114 108.219 32.5584C108.219 32.5814 108.214 32.6043 108.205 32.6256C108.196 32.6468 108.183 32.6661 108.167 32.6822C108.15 32.6984 108.131 32.7111 108.109 32.7196C108.088 32.7281 108.065 32.7322 108.042 32.7317Z" fill="#148532"/>
<path id="Vector_18" d="M108.041 35.527H88.2186C88.1707 35.527 88.1248 35.508 88.091 35.4741C88.0571 35.4403 88.0381 35.3943 88.0381 35.3464C88.0381 35.2985 88.0571 35.2526 88.091 35.2188C88.1248 35.1849 88.1707 35.1659 88.2186 35.1659H108.041C108.089 35.1659 108.135 35.1849 108.169 35.2188C108.203 35.2526 108.222 35.2985 108.222 35.3464C108.222 35.3943 108.203 35.4403 108.169 35.4741C108.135 35.508 108.089 35.527 108.041 35.527Z" fill="#148532"/>
<path id="Vector_19" d="M108.042 38.3225H88.2189C88.172 38.3225 88.127 38.3038 88.0938 38.2706C88.0606 38.2374 88.042 38.1924 88.042 38.1455C88.042 38.1224 88.0466 38.0996 88.0555 38.0783C88.0645 38.057 88.0775 38.0378 88.094 38.0216C88.1105 38.0055 88.13 37.9928 88.1515 37.9843C88.1729 37.9758 88.1958 37.9717 88.2189 37.9721H108.042C108.065 37.9717 108.088 37.9758 108.109 37.9843C108.131 37.9928 108.15 38.0055 108.167 38.0216C108.183 38.0378 108.196 38.057 108.205 38.0783C108.214 38.0996 108.219 38.1224 108.219 38.1455C108.219 38.1924 108.2 38.2374 108.167 38.2706C108.134 38.3038 108.089 38.3225 108.042 38.3225Z" fill="#148532"/>
<path id="Vector_20" d="M108.041 41.1177H88.2186C88.1707 41.1177 88.1248 41.0987 88.091 41.0649C88.0571 41.031 88.0381 40.9851 88.0381 40.9372C88.0381 40.8893 88.0571 40.8433 88.091 40.8095C88.1248 40.7756 88.1707 40.7566 88.2186 40.7566H108.041C108.089 40.7566 108.135 40.7756 108.169 40.8095C108.203 40.8433 108.222 40.8893 108.222 40.9372C108.222 40.9851 108.203 41.031 108.169 41.0649C108.135 41.0987 108.089 41.1177 108.041 41.1177Z" fill="#148532"/>
<path id="Vector_21" d="M108.041 58.4317H88.2186C88.1707 58.4317 88.1248 58.4126 88.091 58.3788C88.0571 58.3449 88.0381 58.299 88.0381 58.2511C88.0381 58.2032 88.0571 58.1573 88.091 58.1234C88.1248 58.0895 88.1707 58.0705 88.2186 58.0705H108.041C108.089 58.0705 108.135 58.0895 108.169 58.1234C108.203 58.1573 108.222 58.2032 108.222 58.2511C108.222 58.299 108.203 58.3449 108.169 58.3788C108.135 58.4126 108.089 58.4317 108.041 58.4317Z" fill="#148532"/>
<path id="Vector_22" d="M108.042 61.2305H88.2189C88.1958 61.231 88.1729 61.2269 88.1515 61.2184C88.13 61.2099 88.1105 61.1972 88.094 61.181C88.0775 61.1649 88.0645 61.1456 88.0555 61.1243C88.0466 61.1031 88.042 61.0802 88.042 61.0572C88.042 61.0102 88.0606 60.9652 88.0938 60.932C88.127 60.8988 88.172 60.8802 88.2189 60.8802H108.042C108.089 60.8802 108.134 60.8988 108.167 60.932C108.2 60.9652 108.219 61.0102 108.219 61.0572C108.219 61.0802 108.214 61.1031 108.205 61.1243C108.196 61.1456 108.183 61.1649 108.167 61.181C108.15 61.1972 108.131 61.2099 108.109 61.2184C108.088 61.2269 108.065 61.231 108.042 61.2305Z" fill="#148532"/>
<path id="Vector_23" d="M104.348 5.55839C104.348 5.55839 104.792 3.66593 104.381 2.58969C104.26 2.28618 104.046 2.02878 103.769 1.85429C103.493 1.6798 103.169 1.59715 102.843 1.61818C102.843 1.61818 99.8538 0.95365 98.991 0.173553L99.3809 1.55317C98.8607 1.51661 98.3529 1.37794 97.8863 1.14506C97.8261 1.38091 97.8301 1.62861 97.8981 1.86236C97.966 2.0961 98.0953 2.30736 98.2726 2.47412C98.0574 2.57729 97.8217 2.63085 97.5831 2.63085C97.3444 2.63085 97.1088 2.57729 96.8936 2.47412C96.8936 2.47412 97.713 4.48575 99.6191 4.2799C100.861 4.09571 103.06 5.97372 104.348 5.55839Z" fill="white"/>
<path id="Vector_24" d="M103.926 5.79681C103.244 5.79681 102.446 5.43565 101.666 5.0745C100.886 4.71334 100.154 4.35219 99.6302 4.42803C97.6122 4.66278 96.7422 2.55363 96.7205 2.53196C96.7076 2.49792 96.7055 2.46072 96.7145 2.42543C96.7235 2.39015 96.7431 2.3585 96.7708 2.33481C96.7984 2.31111 96.8327 2.29652 96.8689 2.29302C96.9051 2.28952 96.9415 2.29729 96.9732 2.31527C97.2735 2.47213 97.6232 2.50581 97.9479 2.40917C97.8162 2.22275 97.7264 2.01002 97.6846 1.78559C97.6429 1.56116 97.6502 1.33035 97.706 1.109C97.7119 1.08431 97.7234 1.06132 97.7397 1.04188C97.756 1.02244 97.7766 1.00708 97.7999 0.997047C97.8233 0.987214 97.8485 0.982149 97.8739 0.982149C97.8993 0.982149 97.9245 0.987214 97.9479 0.997047C98.3245 1.17039 98.7228 1.29188 99.132 1.3582L98.8107 0.224173C98.8007 0.187298 98.8027 0.148202 98.8163 0.112509C98.8299 0.0768164 98.8545 0.0463663 98.8865 0.0255379C98.919 0.00565502 98.957 -0.00299581 98.9949 0.000920412C99.0327 0.00483664 99.0682 0.0211021 99.0959 0.047207C99.8757 0.769519 102.558 1.37987 102.847 1.44849C103.208 1.42485 103.567 1.51718 103.873 1.71206C104.178 1.90694 104.413 2.19418 104.543 2.53196C104.973 3.64432 104.543 5.52233 104.518 5.60179C104.513 5.63094 104.499 5.65804 104.479 5.68027C104.46 5.7025 104.435 5.71905 104.406 5.72819C104.251 5.77669 104.089 5.79986 103.926 5.79681ZM99.7529 4.05604C100.345 4.05604 101.06 4.39191 101.814 4.74223C102.677 5.14673 103.569 5.56206 104.201 5.41759C104.284 5.02032 104.562 3.52875 104.219 2.65475C104.111 2.38349 103.919 2.15365 103.672 1.99847C103.424 1.8433 103.134 1.77085 102.843 1.79159H102.789C102.681 1.76631 100.432 1.2643 99.2764 0.596164L99.5327 1.50266C99.54 1.52905 99.5412 1.55674 99.5362 1.58364C99.5311 1.61054 99.5201 1.63596 99.5038 1.65796C99.4872 1.67944 99.4659 1.69681 99.4414 1.70871C99.417 1.72061 99.3902 1.72672 99.363 1.72658C98.8942 1.69867 98.4344 1.5861 98.0057 1.39432C97.9849 1.56895 98.0068 1.74603 98.0697 1.91026C98.1326 2.07448 98.2345 2.22093 98.3667 2.33694C98.3884 2.35615 98.4053 2.38024 98.416 2.40723C98.4266 2.43421 98.4308 2.46334 98.428 2.49223C98.4251 2.52161 98.4146 2.54972 98.3975 2.57379C98.3804 2.59786 98.3573 2.61705 98.3306 2.62947C97.9914 2.78232 97.6149 2.83254 97.2476 2.77393C97.5797 3.31567 98.3306 4.21856 99.5905 4.07048C99.6442 4.06195 99.6985 4.05712 99.7529 4.05604Z" fill="#148532"/>
<path id="Vector_25" d="M106.872 21.3951C106.872 21.3951 109.478 15.6925 109.16 11.9545C108.843 8.21653 106.395 7.98178 105.55 7.93483C104.705 7.88788 100.204 7.28113 98.5612 9.29277C96.9186 11.3044 97.3446 20.9942 97.3446 20.9942L106.872 21.3951Z" fill="#148532"/>
<path id="Vector_26" d="M97.1533 19.0766C95.2363 19.9538 93.4053 21.0082 91.6841 22.2258C90.1606 23.2588 89.2979 34.1621 89.2979 34.1621C89.2979 34.1621 89.6119 35.9137 91.6372 35.6392L96.9692 23.4935C96.9692 23.4935 98.8717 19.0296 97.1533 19.0766Z" fill="#148532"/>
<path id="Vector_27" d="M91.2223 35.834C90.7347 35.8464 90.2581 35.6879 89.8751 35.3858C89.492 35.0837 89.2266 34.6571 89.1249 34.1799C89.1231 34.1655 89.1231 34.151 89.1249 34.1366C89.2151 33.0098 90.0418 23.1213 91.5869 22.0703C93.3209 20.8507 95.1638 19.794 97.0922 18.9138C97.1123 18.9085 97.1335 18.9085 97.1536 18.9138C97.2886 18.9036 97.424 18.9289 97.5462 18.9872C97.6684 19.0455 97.7733 19.1347 97.8504 19.2461C98.5254 20.2393 97.28 23.2188 97.1283 23.58L91.7963 35.7293C91.7841 35.7565 91.765 35.7801 91.741 35.7979C91.717 35.8156 91.6888 35.8268 91.6591 35.8304C91.5138 35.8415 91.3678 35.8427 91.2223 35.834ZM89.4859 34.1438C89.5256 34.3316 89.8721 35.6426 91.5292 35.4692L96.8215 23.4175C97.1825 22.5507 98.0489 20.1382 97.5688 19.4447C97.5289 19.3864 97.4748 19.3392 97.4117 19.3076C97.3485 19.276 97.2783 19.2611 97.2078 19.2642C95.3146 20.1403 93.5025 21.1821 91.7927 22.3773C90.5942 23.1683 89.7169 31.1101 89.4859 34.1438Z" fill="#148532"/>
<path id="Vector_28" d="M107.085 20.1959C107.085 20.1959 99.4276 20.4162 97.6262 20.1526C97.6262 20.1526 97.5251 20.1743 96.2039 22.6084C94.8826 25.0426 96.7815 36.1699 96.7815 36.1699C96.7815 36.1699 98.5215 38.0117 99.8969 37.7481L101.525 25.0607C101.525 25.0607 104.301 25.1438 105.857 24.0386C106.926 23.2621 106.879 21.6044 107.085 20.1959Z" fill="#148532"/>
<path id="Vector_29" d="M99.6157 37.9506C98.2367 37.9506 96.7277 36.3615 96.6519 36.2893C96.6283 36.2645 96.6131 36.2329 96.6086 36.199C96.5291 35.744 94.7133 25.0032 96.049 22.5256C97.3847 20.0481 97.493 19.9976 97.5905 19.9976H97.6518C99.4172 20.2612 107.005 20.0445 107.081 20.0409C107.107 20.0393 107.133 20.0437 107.157 20.0537C107.181 20.0637 107.202 20.079 107.219 20.0985C107.236 20.1181 107.249 20.1413 107.256 20.1663C107.262 20.1914 107.263 20.2177 107.258 20.2431C107.222 20.5032 107.19 20.774 107.161 21.0449C107.027 22.2656 106.89 23.5261 105.944 24.205C104.572 25.1874 102.305 25.2596 101.681 25.2596L100.071 37.7556C100.066 37.7925 100.05 37.827 100.025 37.8542C99.9994 37.8814 99.9662 37.9 99.9298 37.9073C99.8266 37.931 99.7215 37.9455 99.6157 37.9506ZM96.9443 36.0871C97.1862 36.3326 98.5977 37.6978 99.7385 37.5931L101.352 25.0393C101.357 24.9955 101.378 24.9553 101.412 24.927C101.445 24.8987 101.489 24.8846 101.533 24.8876C101.562 24.8876 104.265 24.9526 105.742 23.898C106.558 23.3094 106.688 22.1284 106.825 20.9835C106.847 20.7813 106.868 20.5754 106.894 20.3768C105.659 20.4093 99.5038 20.561 97.7132 20.337C97.6085 20.4887 97.2872 20.998 96.3667 22.6918C95.1248 24.9635 96.8035 35.2456 96.9443 36.0871Z" fill="#148532"/>
<path id="Vector_30" d="M98.558 9.29282C98.558 9.29282 97.345 11.6295 96.6302 12.8285C95.9466 13.8573 95.1876 14.8339 94.3595 15.7503C94.3595 15.7503 88.8542 17.7077 88.8217 17.8125C88.7892 17.9172 89.3415 19.7699 89.3415 19.7699C89.3415 19.7699 95.1176 19.3546 96.0707 18.9032C97.0237 18.4517 98.9587 16.2306 98.9587 16.2306L98.558 9.29282Z" fill="#148532"/>
<path id="Vector_31" d="M100.8 8.03966L101.128 10.0332C101.333 10.3292 101.639 10.5401 101.989 10.6265C102.339 10.7129 102.708 10.6689 103.027 10.5027C104.287 9.94656 104.287 8.99311 104.287 8.99311L103.615 5.30932C103.615 5.30932 102.453 4.85787 101.85 2.58981C101.85 2.58981 98.9621 2.81012 99.1607 3.88997C99.1607 3.88997 99.1246 5.92328 99.4314 6.91285C99.5415 7.20367 99.7257 7.46065 99.9657 7.65831C100.206 7.85596 100.493 7.98742 100.8 8.03966Z" fill="white"/>
<path id="Vector_32" d="M102.319 10.8421C102.056 10.8338 101.797 10.7642 101.565 10.6388C101.332 10.5135 101.132 10.3358 100.98 10.1198C100.969 10.0995 100.96 10.0776 100.955 10.0548L100.644 8.17316C100.327 8.1098 100.033 7.96441 99.7894 7.75148C99.5462 7.53856 99.363 7.26554 99.2582 6.95967C98.9441 5.95205 98.9766 3.96208 98.9766 3.87901C98.9628 3.77979 98.9698 3.67878 98.9972 3.58241C99.0245 3.48604 99.0716 3.39641 99.1354 3.31922C99.7022 2.59691 101.612 2.42356 101.829 2.40911C101.87 2.40599 101.91 2.41726 101.944 2.44099C101.978 2.46472 102.002 2.49942 102.013 2.53913C102.579 4.67356 103.662 5.13584 103.673 5.13945C103.701 5.15005 103.725 5.16757 103.744 5.19034C103.763 5.2131 103.776 5.24034 103.782 5.26946L104.453 8.95325C104.453 9.0291 104.453 10.0692 103.099 10.6579C102.855 10.773 102.589 10.8357 102.319 10.8421ZM101.294 9.96449C101.48 10.2168 101.75 10.3939 102.056 10.4635C102.361 10.5331 102.682 10.4906 102.958 10.3437C104.078 9.85253 104.106 9.02549 104.106 8.98937L103.453 5.42837C103.157 5.27308 102.247 4.64828 101.713 2.77749C101.085 2.8425 99.7816 3.06641 99.4098 3.54314C99.3735 3.58608 99.3473 3.63655 99.3329 3.69089C99.3186 3.74523 99.3165 3.80209 99.3268 3.85734C99.3268 3.91152 99.2979 5.90871 99.5939 6.86216C99.6891 7.12231 99.8521 7.35226 100.066 7.52816C100.28 7.70407 100.537 7.81952 100.81 7.86256L100.883 7.88423C100.906 7.89745 100.926 7.91562 100.942 7.93745C100.957 7.95929 100.968 7.98426 100.973 8.01064L101.294 9.96449Z" fill="#148532"/>
<path id="Vector_33" d="M102.843 5.38141C102.857 5.19485 102.93 5.01769 103.052 4.87579C103.172 4.74821 103.312 4.64196 103.467 4.56158C103.548 4.51017 103.639 4.4769 103.734 4.46407C103.802 4.46347 103.87 4.47572 103.933 4.50019C104.081 4.54638 104.208 4.64201 104.294 4.77105C104.35 4.88302 104.379 5.0069 104.377 5.13221C104.387 5.27132 104.377 5.41117 104.348 5.54754C104.317 5.68302 104.259 5.81092 104.178 5.92377C104.097 6.03662 103.994 6.13217 103.875 6.20484C103.636 6.34833 103.35 6.39362 103.077 6.33125" fill="white"/>
<path id="Vector_34" d="M103.323 6.54796C103.226 6.54684 103.129 6.53472 103.034 6.51184C102.989 6.50072 102.95 6.47206 102.925 6.43213C102.901 6.3922 102.894 6.34425 102.904 6.29876C102.91 6.27634 102.92 6.25524 102.933 6.2367C102.947 6.21815 102.965 6.20254 102.984 6.19076C103.004 6.17899 103.026 6.1713 103.049 6.16814C103.072 6.16498 103.095 6.16641 103.117 6.17236C103.345 6.22381 103.584 6.18635 103.785 6.06762C103.983 5.94303 104.124 5.74602 104.179 5.51866C104.203 5.39986 104.211 5.27848 104.204 5.15751C104.207 5.05765 104.186 4.95851 104.143 4.86858C104.076 4.77189 103.978 4.7016 103.865 4.66995C103.822 4.65653 103.779 4.64805 103.735 4.64467C103.666 4.65724 103.601 4.68432 103.543 4.72412C103.408 4.79297 103.286 4.8846 103.182 4.99499C103.084 5.10766 103.025 5.24996 103.016 5.39948C103.013 5.4461 102.991 5.48947 102.956 5.52046C102.921 5.55144 102.875 5.56763 102.829 5.56561C102.806 5.56425 102.783 5.55827 102.762 5.54804C102.741 5.5378 102.723 5.5235 102.708 5.506C102.693 5.4885 102.681 5.46813 102.674 5.44612C102.667 5.4241 102.664 5.40088 102.666 5.37781C102.682 5.15296 102.769 4.93905 102.915 4.76746C103.046 4.62038 103.203 4.49805 103.377 4.4063C103.487 4.3385 103.61 4.29651 103.738 4.28351C103.829 4.28328 103.92 4.29917 104.005 4.33046C104.2 4.38892 104.366 4.51763 104.471 4.69162C104.543 4.83103 104.581 4.986 104.579 5.14306C104.589 5.29791 104.578 5.45328 104.547 5.60534C104.483 5.87534 104.33 6.11589 104.112 6.28821C103.895 6.46053 103.626 6.55457 103.348 6.55518L103.323 6.54796Z" fill="#148532"/>
<path id="Vector_35" d="M101.016 4.84708C101.016 4.84708 100.475 5.97388 100.655 6.12918C100.836 6.28448 101.287 6.10029 101.287 6.10029" fill="white"/>
<path id="Vector_36" d="M100.886 6.36365C100.767 6.36961 100.65 6.33385 100.554 6.26253C100.478 6.20113 100.258 6.02055 100.861 4.77095C100.881 4.72988 100.917 4.69828 100.96 4.68279C101.003 4.6673 101.05 4.66913 101.092 4.68788C101.113 4.69756 101.132 4.71137 101.148 4.72851C101.164 4.74566 101.176 4.76577 101.183 4.78767C101.191 4.80957 101.194 4.8328 101.193 4.85598C101.192 4.87917 101.186 4.90184 101.175 4.92264C101 5.263 100.878 5.62848 100.814 6.0061C100.96 6.02357 101.107 5.9998 101.24 5.93749C101.283 5.92039 101.332 5.92061 101.375 5.9381C101.418 5.95559 101.452 5.989 101.471 6.03139C101.48 6.05296 101.485 6.07606 101.484 6.09938C101.484 6.12269 101.48 6.14574 101.471 6.16722C101.461 6.1887 101.448 6.20817 101.432 6.22453C101.415 6.24088 101.395 6.2538 101.374 6.26253C101.219 6.3253 101.054 6.35955 100.886 6.36365Z" fill="#148532"/>
<path id="Vector_37" d="M101.907 4.80007C102.003 4.7904 102.069 4.67477 102.055 4.54182C102.042 4.40886 101.954 4.30893 101.858 4.3186C101.763 4.32828 101.697 4.4439 101.71 4.57686C101.724 4.70981 101.812 4.80975 101.907 4.80007Z" fill="#148532"/>
<path id="Vector_38" d="M100.446 5.05768C100.541 5.04867 100.608 4.93351 100.595 4.80047C100.583 4.66742 100.495 4.56687 100.4 4.57588C100.305 4.58489 100.238 4.70005 100.25 4.83309C100.263 4.96614 100.35 5.06669 100.446 5.05768Z" fill="#148532"/>
<path id="Vector_39" d="M101.175 7.24869C100.844 7.2417 100.518 7.17438 100.211 7.05006C100.19 7.04104 100.171 7.02785 100.154 7.01127C100.138 6.99469 100.126 6.97505 100.117 6.95351C100.109 6.93197 100.105 6.90897 100.106 6.88585C100.106 6.86274 100.111 6.83998 100.121 6.81892C100.141 6.77718 100.175 6.74457 100.218 6.72778C100.261 6.71099 100.309 6.71129 100.352 6.72863C100.352 6.72863 101.171 7.08978 101.724 6.77558C101.868 6.68169 101.989 6.55553 102.077 6.40702C102.165 6.25851 102.217 6.09168 102.229 5.91964C102.237 5.87175 102.263 5.82886 102.302 5.80041C102.342 5.77197 102.391 5.76029 102.439 5.76795C102.486 5.77562 102.529 5.80199 102.558 5.84127C102.586 5.88056 102.598 5.92953 102.59 5.97742C102.57 6.20246 102.498 6.41967 102.379 6.6116C102.259 6.80353 102.097 6.96484 101.904 7.08256C101.68 7.20104 101.428 7.25834 101.175 7.24869Z" fill="#148532"/>
<path id="Vector_40" d="M100.8 8.03948C100.8 8.03948 102.085 8.11893 102.749 7.58081C102.749 7.58081 102.215 9.38659 101.027 9.38659L100.8 8.03948Z" fill="#148532"/>
<path id="Vector_41" d="M101.038 9.58518C100.996 9.58552 100.956 9.57064 100.925 9.54336C100.894 9.51607 100.873 9.47827 100.868 9.43711L100.641 8.07194C100.636 8.04559 100.637 8.01843 100.645 7.99269C100.652 7.96696 100.666 7.94337 100.684 7.92387C100.701 7.90415 100.723 7.8887 100.748 7.87868C100.772 7.86867 100.798 7.86436 100.825 7.86608C100.825 7.86608 102.052 7.9347 102.651 7.44714C102.681 7.4246 102.717 7.41188 102.754 7.41078C102.791 7.40968 102.827 7.42026 102.858 7.44102C102.889 7.46177 102.912 7.49166 102.925 7.52646C102.938 7.56125 102.939 7.5992 102.929 7.63494C102.908 7.71078 102.348 9.56351 101.041 9.58518H101.038ZM101.038 8.22362L101.204 9.22041C101.818 9.11568 102.225 8.44393 102.438 7.98165C101.979 8.14757 101.494 8.22834 101.005 8.22001L101.038 8.22362Z" fill="#148532"/>
<path id="Vector_42" d="M107.94 8.86284C108.969 9.04342 113.131 18.6718 111.705 19.7697C109.482 21.4852 101.742 19.7697 101.742 19.7697L102.373 16.783C102.373 16.783 107.348 16.9238 107.428 15.9018C107.507 14.8797 104.539 10.1486 104.922 9.44069C105.305 8.73282 107.94 8.86284 107.94 8.86284Z" fill="#148532"/>
<path id="Vector_43" d="M102.908 17.751C102.082 17.8036 101.252 17.7636 100.435 17.6318C99.8299 17.4847 99.2091 17.4132 98.5865 17.4187C97.7663 17.4578 96.9595 17.6424 96.2039 17.964C96.1718 17.9742 96.1431 17.9929 96.1209 18.0182C96.0487 18.1193 96.2219 18.2205 96.3483 18.2241C96.6762 18.2305 97.0034 18.1891 97.3194 18.1013C96.5372 18.3904 95.7977 18.784 95.1209 19.2714C95.0415 19.3256 94.9584 19.4123 94.9945 19.499C95.0306 19.5856 95.1895 19.5712 95.2905 19.5242L97.0667 18.7116C96.6059 18.8964 96.179 19.1564 95.8032 19.4809C95.7526 19.5278 95.6913 19.5892 95.7093 19.6579C95.7274 19.7265 95.9115 19.7554 96.0234 19.7012C96.5645 19.4305 97.0814 19.1139 97.5685 18.755L96.4855 19.6001C96.4855 19.6868 96.5685 19.7626 96.6588 19.7662C96.7492 19.7605 96.8365 19.7306 96.9115 19.6795L98.1353 18.9572L97.3736 19.4917C97.2508 19.5748 97.1136 19.712 97.175 19.8529C97.2364 19.9937 97.4782 19.9612 97.6371 19.8926C98.2649 19.6203 98.9212 19.4192 99.5937 19.2931C99.828 19.2167 100.07 19.167 100.316 19.145C100.694 19.195 101.067 19.2771 101.431 19.3906C101.987 19.5134 102.54 19.6398 103.092 19.7518" fill="white"/>
<path id="Vector_44" d="M97.3521 20.1237C97.2993 20.1248 97.2467 20.1162 97.1969 20.0984C97.1561 20.0835 97.1187 20.0604 97.0871 20.0306C97.0554 20.0009 97.0302 19.9649 97.0128 19.9251C96.9969 19.8899 96.9883 19.8518 96.9875 19.8131C96.888 19.8833 96.7699 19.9223 96.6482 19.9251C96.5991 19.9226 96.551 19.9101 96.507 19.8883C96.4629 19.8666 96.4237 19.8361 96.3919 19.7987C96.3716 19.7745 96.3546 19.7478 96.3413 19.7192C96.2655 19.7626 96.1861 19.8023 96.1067 19.842C96.0465 19.8752 95.9798 19.895 95.9113 19.9C95.8427 19.9049 95.7739 19.895 95.7096 19.8709C95.6728 19.8536 95.6405 19.828 95.6155 19.796C95.5904 19.764 95.5732 19.7266 95.5652 19.6867C95.558 19.651 95.558 19.6141 95.5652 19.5784L95.3702 19.6687C95.2591 19.7271 95.1297 19.7401 95.0092 19.7048C94.9753 19.6925 94.9443 19.6734 94.9182 19.6485C94.8921 19.6236 94.8715 19.5936 94.8576 19.5603C94.8251 19.4917 94.7854 19.3147 95.0345 19.1378C95.4328 18.8504 95.8528 18.5944 96.2908 18.3721C96.2268 18.3649 96.1653 18.3433 96.1109 18.3089C96.0565 18.2745 96.0107 18.2282 95.9767 18.1735C95.957 18.1334 95.9485 18.0886 95.9524 18.0441C95.9562 17.9995 95.9721 17.9569 95.9984 17.9207C96.0366 17.8714 96.0879 17.8338 96.1464 17.8123C96.9202 17.4829 97.7467 17.2945 98.5868 17.2561C99.1442 17.243 99.7011 17.3013 100.244 17.4295L100.471 17.4692C101.278 17.5992 102.096 17.6391 102.912 17.5884C102.953 17.5884 102.994 17.6045 103.024 17.6334C103.054 17.6624 103.072 17.7019 103.074 17.7437C103.074 17.786 103.058 17.8267 103.029 17.8575C103 17.8884 102.961 17.9071 102.919 17.9098C102.081 17.959 101.239 17.9179 100.41 17.787L100.179 17.7437C99.6607 17.6223 99.1296 17.5653 98.5976 17.574C97.8383 17.6123 97.0906 17.7758 96.3846 18.0579C96.6872 18.0645 96.989 18.0255 97.2799 17.9423C97.3201 17.9289 97.364 17.9321 97.4019 17.951C97.4398 17.97 97.4687 18.0032 97.4821 18.0435C97.4955 18.0837 97.4924 18.1276 97.4734 18.1655C97.4545 18.2035 97.4212 18.2323 97.381 18.2457C96.6294 18.5229 95.917 18.8969 95.2619 19.3581L96.5868 18.7513C96.724 18.6827 96.8612 18.6177 97.002 18.5635C97.0407 18.5468 97.0846 18.5461 97.1238 18.5617C97.1631 18.5773 97.1946 18.6078 97.2113 18.6466C97.2281 18.6854 97.2288 18.7293 97.2132 18.7685C97.1976 18.8078 97.1671 18.8393 97.1283 18.8561L96.7276 19.0403C96.4582 19.1808 96.2041 19.3491 95.9695 19.5423C96.4976 19.2778 97.0014 18.9672 97.4749 18.6141C97.4916 18.6014 97.5108 18.5921 97.5312 18.5869C97.5515 18.5816 97.5728 18.5805 97.5936 18.5835C97.6144 18.5865 97.6344 18.5937 97.6525 18.6045C97.6705 18.6153 97.6862 18.6296 97.6987 18.6466C97.7116 18.6632 97.7211 18.6821 97.7266 18.7024C97.7321 18.7226 97.7336 18.7438 97.7309 18.7646C97.7282 18.7854 97.7214 18.8055 97.711 18.8237C97.7005 18.8418 97.6865 18.8578 97.6698 18.8705L96.7962 19.535H96.8178L98.0416 18.8127C98.0772 18.7967 98.1173 18.794 98.1547 18.8051C98.1921 18.8162 98.2242 18.8404 98.2452 18.8733C98.2663 18.9061 98.2748 18.9455 98.2692 18.9841C98.2636 19.0227 98.2444 19.058 98.2149 19.0836L97.4496 19.6181C97.3269 19.7048 97.3016 19.7698 97.3052 19.777C97.3919 19.794 97.4818 19.7786 97.5579 19.7337C98.1984 19.4554 98.868 19.2494 99.5543 19.1197L99.7853 19.0583C99.9568 19.0031 100.136 18.9751 100.316 18.9753C100.592 18.9969 100.864 19.0502 101.128 19.1342C101.244 19.1667 101.356 19.1992 101.464 19.2208L103.125 19.6037C103.145 19.6084 103.164 19.6171 103.181 19.6293C103.198 19.6415 103.213 19.6569 103.224 19.6747C103.235 19.6925 103.242 19.7122 103.246 19.7329C103.249 19.7536 103.248 19.7747 103.244 19.7951C103.239 19.8155 103.23 19.8347 103.218 19.8518C103.206 19.8688 103.19 19.8832 103.173 19.8943C103.155 19.9054 103.135 19.9128 103.115 19.9163C103.094 19.9197 103.073 19.919 103.052 19.9143C102.5 19.7879 101.948 19.6578 101.392 19.5531C101.28 19.5278 101.164 19.4953 101.031 19.4628C100.796 19.3875 100.554 19.3379 100.309 19.3147C100.159 19.3172 100.01 19.344 99.8683 19.3942C99.7853 19.4159 99.7023 19.4411 99.6156 19.4556C98.9528 19.5851 98.3063 19.7874 97.6879 20.0587C97.5813 20.1022 97.4672 20.1243 97.3521 20.1237Z" fill="#148532"/>
<path id="Vector_45" d="M99.0921 10.1377C98.8177 10.4158 98.1282 14.793 97.8755 16.8588L99.0921 10.1377Z" fill="white"/>
<path id="Vector_46" d="M97.8754 17.0214H97.8537C97.8121 17.016 97.7744 16.9944 97.7487 16.9612C97.723 16.9281 97.7114 16.8861 97.7165 16.8445C97.8718 15.5588 98.6154 10.3978 98.98 10.0259C99.0109 10.0018 99.0495 9.9898 99.0885 9.99194C99.1276 9.99408 99.1646 10.0103 99.1927 10.0375C99.2208 10.0647 99.2381 10.1012 99.2415 10.1402C99.2449 10.1792 99.2341 10.2181 99.2111 10.2498C98.9764 10.5712 98.3122 14.6053 98.0342 16.8842C98.0282 16.9222 98.009 16.9568 97.9799 16.9819C97.9508 17.0071 97.9138 17.0211 97.8754 17.0214Z" fill="#148532"/>
<path id="Vector_47" d="M88.7095 20.9799L88.8322 21.7997L100.161 23.4538L99.9692 22.6087L88.7095 20.9799Z" fill="white"/>
<path id="Vector_48" d="M100.16 23.6309H100.135L88.8069 21.9732C88.7697 21.9675 88.7353 21.95 88.7086 21.9234C88.682 21.8967 88.6646 21.8623 88.6589 21.8251L88.5361 21.0053C88.531 20.9781 88.5326 20.95 88.5408 20.9236C88.549 20.8972 88.5635 20.8731 88.5831 20.8536C88.6032 20.8347 88.6272 20.8204 88.6534 20.8117C88.6795 20.803 88.7073 20.8 88.7347 20.803L99.9944 22.4354C100.029 22.4404 100.062 22.4559 100.087 22.4798C100.113 22.5036 100.131 22.5348 100.139 22.5691L100.316 23.4178C100.323 23.4449 100.323 23.4735 100.316 23.5007C100.309 23.5279 100.295 23.5528 100.276 23.5731C100.246 23.6065 100.205 23.6272 100.16 23.6309ZM88.9694 21.6445L99.9186 23.2444L99.8103 22.7641L88.9008 21.1858L88.9694 21.6445Z" fill="#148532"/>
<path id="Vector_49" d="M88.7095 20.9798C88.7095 20.9798 91.287 18.766 91.3737 18.7876C91.4603 18.8093 103.045 20.1961 103.045 20.1961L99.9548 22.6087L88.7095 20.9798Z" fill="white"/>
<path id="Vector_50" d="M99.9551 22.7854L88.6846 21.1422C88.651 21.1368 88.6197 21.1221 88.5942 21.0997C88.5686 21.0774 88.5499 21.0483 88.5402 21.0158C88.5303 20.9837 88.5302 20.9494 88.5399 20.9172C88.5495 20.8851 88.5684 20.8565 88.5943 20.8352C91.2441 18.5599 91.3018 18.5779 91.4138 18.6032C91.587 18.6321 99.114 19.535 103.067 20.0081C103.102 20.0127 103.134 20.0275 103.161 20.0506C103.187 20.0738 103.206 20.1042 103.215 20.1381C103.225 20.1714 103.225 20.2071 103.214 20.2401C103.203 20.2732 103.182 20.3019 103.154 20.3223L100.078 22.7349C100.062 22.7509 100.043 22.7637 100.022 22.7724C100 22.781 99.9779 22.7855 99.9551 22.7854ZM89.125 20.8605L99.9262 22.4243L102.612 20.3187C99.1248 19.8998 92.1935 19.0691 91.421 18.968C91.161 19.1305 89.9878 20.1165 89.125 20.8605Z" fill="#148532"/>
<path id="Vector_51" d="M100.161 23.4536L103.117 20.9796L103.045 20.1959L99.9692 22.6084L100.161 23.4536Z" fill="white"/>
<path id="Vector_52" d="M100.161 23.6309C100.143 23.6343 100.124 23.6343 100.107 23.6309C100.078 23.6223 100.052 23.606 100.031 23.5837C100.011 23.5615 99.997 23.5341 99.9911 23.5045L99.7997 22.6594C99.7915 22.6271 99.7929 22.5931 99.8038 22.5617C99.8147 22.5302 99.8346 22.5026 99.8611 22.4824L102.937 20.0591C102.962 20.0395 102.992 20.027 103.023 20.0229C103.055 20.0188 103.087 20.0233 103.116 20.0358C103.145 20.0484 103.17 20.0686 103.189 20.0943C103.208 20.12 103.219 20.1502 103.222 20.1819L103.291 20.9656C103.294 20.994 103.29 21.0227 103.279 21.0491C103.268 21.0756 103.251 21.099 103.229 21.1173L100.273 23.5948C100.24 23.6187 100.201 23.6314 100.161 23.6309ZM100.161 22.6774L100.265 23.1361L102.93 20.9042L102.897 20.543L100.161 22.6774Z" fill="#148532"/>
<path id="Vector_53" d="M88.7096 20.9798L86.5327 13.6808L98.4747 15.7178L99.9693 22.6086L88.7096 20.9798Z" fill="white"/>
<path id="Vector_54" d="M99.9547 22.7856L88.6841 21.1423C88.6503 21.1378 88.6185 21.1234 88.5928 21.1009C88.5672 21.0784 88.5487 21.0489 88.5397 21.0159L86.3737 13.7205C86.3654 13.6918 86.3645 13.6615 86.371 13.6323C86.3776 13.6032 86.3914 13.5762 86.4113 13.5538C86.4311 13.5315 86.4563 13.5145 86.4844 13.5045C86.5126 13.4945 86.5428 13.4918 86.5723 13.4966L98.5107 15.5444C98.5448 15.5501 98.5764 15.5658 98.6015 15.5896C98.6266 15.6134 98.644 15.6442 98.6515 15.678L100.139 22.5869C100.145 22.6144 100.145 22.643 100.137 22.6702C100.13 22.6974 100.115 22.7221 100.095 22.7422C100.077 22.7593 100.054 22.7721 100.03 22.7796C100.006 22.7871 99.9799 22.7891 99.9547 22.7856ZM88.8285 20.8209L99.7309 22.3991L98.3266 15.8694L86.7744 13.9011L88.8285 20.8209Z" fill="#148532"/>
<path id="Vector_55" d="M105.507 20.8102H105.478L103.063 20.3949C103.023 20.3875 102.987 20.3667 102.96 20.3359C102.933 20.3051 102.917 20.266 102.915 20.2251L102.84 17.3359C102.838 17.2914 102.853 17.248 102.883 17.2149C102.912 17.1818 102.954 17.1617 102.998 17.1589L107.269 16.7183L105.37 10.185C105.358 10.1404 105.363 10.0928 105.386 10.0524C105.408 10.0119 105.445 9.98169 105.489 9.96828C105.512 9.96162 105.535 9.95942 105.558 9.96181C105.581 9.9642 105.604 9.97112 105.624 9.98219C105.645 9.99326 105.663 10.0083 105.677 10.0263C105.692 10.0444 105.703 10.0652 105.71 10.0875L107.663 16.8086C107.67 16.8327 107.672 16.8583 107.668 16.8833C107.664 16.9083 107.655 16.9321 107.641 16.953C107.627 16.9744 107.608 16.9925 107.586 17.0061C107.564 17.0198 107.54 17.0288 107.515 17.0325L103.182 17.4767L103.255 20.0662L105.529 20.4563C105.553 20.4584 105.576 20.4652 105.597 20.4762C105.618 20.4873 105.637 20.5024 105.652 20.5206C105.667 20.5389 105.679 20.56 105.686 20.5827C105.693 20.6055 105.695 20.6294 105.693 20.6531C105.691 20.6768 105.684 20.6999 105.673 20.7209C105.662 20.742 105.647 20.7607 105.629 20.776C105.611 20.7913 105.59 20.8028 105.567 20.8099C105.544 20.817 105.52 20.8195 105.497 20.8174L105.507 20.8102Z" fill="#148532"/>
<path id="Vector_56" d="M89.6626 32.2155C89.4636 32.0314 89.2552 31.8578 89.0381 31.6954C88.5688 31.3342 87.5616 30.825 87.2728 31.6557C87.0923 32.1685 87.3703 32.8511 87.5616 33.3242C87.9395 34.229 88.5156 35.0374 89.2475 35.6898C89.8865 36.2676 91.9225 37.1019 91.7745 35.4911C91.7353 35.1996 91.6423 34.918 91.5001 34.6605C91.0408 33.7408 90.4182 32.9124 89.6626 32.2155Z" fill="white"/>
<path id="Vector_57" d="M91.0239 36.5888C90.3307 36.5327 89.6726 36.2598 89.1431 35.8087C88.3928 35.1404 87.8019 34.3123 87.4139 33.3854C87.2189 32.9014 86.9229 32.1755 87.1214 31.6013C87.1569 31.4809 87.2211 31.371 87.3085 31.281C87.3959 31.191 87.504 31.1237 87.6232 31.0848C88.2117 30.9079 88.9878 31.446 89.1358 31.5688C89.3565 31.7336 89.5686 31.9096 89.7712 32.0961C90.5434 32.8055 91.1796 33.65 91.6484 34.588C91.799 34.8637 91.897 35.165 91.9372 35.4765C91.995 36.1049 91.7351 36.3758 91.504 36.4877C91.3543 36.5593 91.1897 36.5939 91.0239 36.5888ZM87.8759 31.3701C87.8222 31.3695 87.7687 31.3768 87.7171 31.3918C87.6454 31.4155 87.5808 31.4571 87.5297 31.5128C87.4785 31.5684 87.4424 31.6361 87.4247 31.7096C87.2658 32.1647 87.533 32.8256 87.7099 33.2626C88.079 34.1454 88.6416 34.9341 89.3561 35.5704C89.8109 35.9857 90.8795 36.4444 91.3632 36.2024C91.569 36.0977 91.652 35.8701 91.6196 35.5054C91.5801 35.2342 91.4921 34.9724 91.3596 34.7325C90.9117 33.8281 90.2996 33.015 89.5546 32.3344C89.3597 32.1538 89.1539 31.9733 88.9445 31.8252C88.6392 31.5744 88.2683 31.4164 87.8759 31.3701Z" fill="#148532"/>
<path id="Vector_58" d="M96.5398 33.1147C96.4008 33.0173 96.2327 32.9701 96.0633 32.981C95.9571 33.0063 95.8598 33.06 95.7817 33.1363C95.6363 33.2863 95.5263 33.467 95.4601 33.6652C95.3939 33.8633 95.373 34.0739 95.3991 34.2812C95.451 34.695 95.5795 35.0955 95.7781 35.4622C96.3305 36.6106 97.0777 37.723 98.186 38.3514C98.3849 38.4695 98.6021 38.5538 98.8286 38.6006C100.8 38.9618 99.9838 37.0043 99.5001 36.1195C98.8144 34.8601 97.7886 33.8189 96.5398 33.1147Z" fill="white"/>
<path id="Vector_59" d="M99.2511 38.7954C99.0997 38.7939 98.9487 38.7794 98.7999 38.7521C98.5567 38.7021 98.3237 38.6118 98.1103 38.4848C97.1356 37.9358 96.327 36.9716 95.6338 35.5342C95.4286 35.1483 95.2941 34.7287 95.2367 34.2954C95.2081 34.0637 95.2325 33.8284 95.3082 33.6076C95.3839 33.3867 95.5088 33.1859 95.6736 33.0205C95.7725 32.9219 95.8979 32.8542 96.0346 32.8255C96.2396 32.8059 96.4451 32.8583 96.6158 32.9736C97.8886 33.6924 98.9361 34.7516 99.641 36.0326C100.002 36.6754 100.518 37.8383 100.085 38.4487C99.9853 38.5707 99.857 38.6662 99.7115 38.7267C99.5661 38.7872 99.4079 38.8108 99.2511 38.7954ZM96.132 33.1361H96.0887C96.0132 33.1557 95.9445 33.1957 95.8902 33.2517C95.7618 33.384 95.6653 33.5438 95.6077 33.719C95.5502 33.8942 95.5332 34.0802 95.558 34.2629C95.607 34.6578 95.7294 35.0399 95.919 35.3897C96.5797 36.7693 97.3631 37.6866 98.2583 38.1995C98.4409 38.31 98.6412 38.3882 98.8504 38.4306C99.345 38.5209 99.6699 38.4595 99.8143 38.2573C100.096 37.8636 99.7601 36.9282 99.3522 36.1842C98.6808 34.9571 97.6807 33.9415 96.4642 33.2517C96.3643 33.1871 96.2504 33.1475 96.132 33.1361Z" fill="#148532"/>
<path id="Vector_60" d="M95.7493 26.9208C95.7057 26.9209 95.6637 26.9047 95.6316 26.8752C95.5994 26.8458 95.5796 26.8053 95.576 26.7619C95.576 26.6824 95.3774 24.743 95.7095 23.6379C95.7159 23.6158 95.7266 23.5952 95.741 23.5773C95.7553 23.5594 95.7731 23.5445 95.7932 23.5334C95.8133 23.5223 95.8354 23.5153 95.8582 23.5128C95.881 23.5103 95.9041 23.5123 95.9261 23.5187C95.9482 23.5251 95.9688 23.5358 95.9867 23.5501C96.0046 23.5645 96.0195 23.5822 96.0306 23.6023C96.0416 23.6225 96.0486 23.6446 96.0512 23.6674C96.0537 23.6902 96.0517 23.7133 96.0453 23.7354C95.7348 24.7755 95.9189 26.7113 95.9225 26.7294C95.9266 26.7758 95.9121 26.8219 95.8824 26.8577C95.8527 26.8935 95.81 26.9162 95.7637 26.9208H95.7493Z" fill="white"/>
<path id="Vector_61" d="M74.6053 13.3089H2.88818C1.38288 13.3089 0.162598 14.5297 0.162598 16.0357V65.2648C0.162598 66.7707 1.38288 67.9915 2.88818 67.9915H74.6053C76.1106 67.9915 77.3309 66.7707 77.3309 65.2648V16.0357C77.3309 14.5297 76.1106 13.3089 74.6053 13.3089Z" fill="white"/>
<path id="Vector_62" d="M74.6052 68.1683H2.88804C2.12354 68.1636 1.39171 67.8577 0.851117 67.3169C0.310528 66.7761 0.00473384 66.0439 0 65.2791V16.0355C0 15.2692 0.304275 14.5343 0.845887 13.9925C1.3875 13.4506 2.12208 13.1462 2.88804 13.1462H74.6052C75.3712 13.1462 76.1057 13.4506 76.6473 13.9925C77.189 14.5343 77.4932 15.2692 77.4932 16.0355V65.2683C77.4947 65.6486 77.421 66.0255 77.2765 66.3773C77.132 66.729 76.9195 67.0488 76.6512 67.3183C76.3829 67.5877 76.064 67.8015 75.7129 67.9474C75.3618 68.0933 74.9854 68.1684 74.6052 68.1683ZM2.88804 13.4857C2.21175 13.4857 1.56311 13.7542 1.08456 14.2323C0.606016 14.7104 0.336691 15.3589 0.335734 16.0355V65.2683C0.336691 65.9448 0.606016 66.5934 1.08456 67.0714C1.56311 67.5495 2.21175 67.818 2.88804 67.818H74.6052C75.2809 67.8171 75.9286 67.5481 76.4063 67.0702C76.8841 66.5922 77.1529 65.9442 77.1539 65.2683V16.0355C77.1529 15.3595 76.8841 14.7116 76.4063 14.2336C75.9286 13.7556 75.2809 13.4867 74.6052 13.4857H2.88804Z" fill="#148532"/>
<path id="Vector_63" d="M74.475 20.3804H3.01416V65.1167H74.475V20.3804Z" fill="white"/>
<path id="Vector_64" d="M74.4753 65.2971H3.01449C2.96661 65.2971 2.9207 65.2781 2.88685 65.2443C2.853 65.2104 2.83398 65.1645 2.83398 65.1166V20.3802C2.83398 20.3323 2.853 20.2864 2.88685 20.2525C2.9207 20.2186 2.96661 20.1996 3.01449 20.1996H74.4934C74.5413 20.1996 74.5872 20.2186 74.621 20.2525C74.6549 20.2864 74.6739 20.3323 74.6739 20.3802V65.1166C74.674 65.1419 74.6688 65.1669 74.6586 65.1901C74.6485 65.2133 74.6335 65.2341 74.6148 65.2511C74.5961 65.2681 74.574 65.281 74.55 65.289C74.5259 65.2969 74.5005 65.2997 74.4753 65.2971ZM3.20582 64.936H74.3237V20.5608H3.20582V64.936Z" fill="#148532"/>
<path id="Vector_65" d="M74.475 16.1835H3.01416V20.3802H74.475V16.1835Z" fill="#148532"/>
<path id="Vector_66" d="M74.4753 20.5608H3.01449C2.96661 20.5608 2.9207 20.5418 2.88685 20.5079C2.853 20.474 2.83398 20.4281 2.83398 20.3802V16.1836C2.83398 16.1357 2.853 16.0897 2.88685 16.0559C2.9207 16.022 2.96661 16.003 3.01449 16.003H74.4934C74.5413 16.003 74.5872 16.022 74.621 16.0559C74.6549 16.0897 74.6739 16.1357 74.6739 16.1836V20.3802C74.674 20.4055 74.6688 20.4306 74.6586 20.4537C74.6485 20.4769 74.6335 20.4977 74.6148 20.5147C74.5961 20.5318 74.574 20.5447 74.55 20.5526C74.5259 20.5605 74.5005 20.5633 74.4753 20.5608ZM3.20582 20.1996H74.3237V16.3641H3.20582V20.1996Z" fill="#148532"/>
<path id="Vector_67" d="M17.3428 24.8332H11.2057C11.1826 24.8337 11.1597 24.8296 11.1383 24.8211C11.1168 24.8126 11.0973 24.7999 11.0808 24.7838C11.0644 24.7676 11.0513 24.7483 11.0423 24.7271C11.0334 24.7058 11.0288 24.6829 11.0288 24.6599C11.0288 24.6129 11.0474 24.5679 11.0806 24.5347C11.1138 24.5016 11.1588 24.4829 11.2057 24.4829H17.3428C17.3658 24.4829 17.3887 24.4875 17.4099 24.4964C17.4312 24.5054 17.4505 24.5185 17.4666 24.535C17.4827 24.5514 17.4954 24.571 17.5039 24.5924C17.5124 24.6139 17.5165 24.6368 17.5161 24.6599C17.5166 24.6828 17.5124 24.7055 17.5039 24.7268C17.4953 24.7481 17.4826 24.7674 17.4664 24.7836C17.4502 24.7998 17.4309 24.8125 17.4097 24.821C17.3884 24.8296 17.3657 24.8337 17.3428 24.8332Z" fill="#148532"/>
<path id="Vector_68" d="M31.1872 24.8332H18.9131C18.8902 24.8337 18.8674 24.8296 18.8462 24.821C18.8249 24.8125 18.8056 24.7998 18.7894 24.7836C18.7733 24.7674 18.7605 24.7481 18.752 24.7268C18.7434 24.7055 18.7393 24.6828 18.7398 24.6599C18.7393 24.6368 18.7434 24.6139 18.7519 24.5924C18.7604 24.571 18.7731 24.5514 18.7892 24.535C18.8054 24.5185 18.8246 24.5054 18.8459 24.4964C18.8672 24.4875 18.89 24.4829 18.9131 24.4829H31.1872C31.2341 24.4829 31.2791 24.5016 31.3123 24.5347C31.3455 24.5679 31.3641 24.6129 31.3641 24.6599C31.3641 24.6829 31.3595 24.7058 31.3506 24.7271C31.3417 24.7483 31.3286 24.7676 31.3121 24.7838C31.2956 24.7999 31.2761 24.8126 31.2546 24.8211C31.2332 24.8296 31.2103 24.8337 31.1872 24.8332Z" fill="#148532"/>
<path id="Vector_69" d="M35.4288 27.4049H23.1546C23.1068 27.4049 23.0608 27.3859 23.027 27.352C22.9931 27.3182 22.9741 27.2722 22.9741 27.2243C22.9741 27.1764 22.9931 27.1305 23.027 27.0967C23.0608 27.0628 23.1068 27.0438 23.1546 27.0438H35.4288C35.4766 27.0438 35.5226 27.0628 35.5564 27.0967C35.5903 27.1305 35.6093 27.1764 35.6093 27.2243C35.6093 27.2722 35.5903 27.3182 35.5564 27.352C35.5226 27.3859 35.4766 27.4049 35.4288 27.4049Z" fill="#148532"/>
<path id="Vector_70" d="M18.7829 27.4049H12.6458C12.598 27.4049 12.5521 27.3859 12.5182 27.352C12.4843 27.3182 12.4653 27.2722 12.4653 27.2243C12.4653 27.1764 12.4843 27.1305 12.5182 27.0967C12.5521 27.0628 12.598 27.0438 12.6458 27.0438H18.7829C18.8308 27.0438 18.8767 27.0628 18.9105 27.0967C18.9444 27.1305 18.9634 27.1764 18.9634 27.2243C18.9634 27.2722 18.9444 27.3182 18.9105 27.352C18.8767 27.3859 18.8308 27.4049 18.7829 27.4049Z" fill="#148532"/>
<path id="Vector_71" d="M20.2271 29.9726H14.09C14.0431 29.9726 13.9981 29.9539 13.9649 29.9207C13.9317 29.8876 13.9131 29.8425 13.9131 29.7956C13.9131 29.7725 13.9177 29.7497 13.9266 29.7284C13.9355 29.7072 13.9486 29.6879 13.9651 29.6717C13.9816 29.6556 14.0011 29.6429 14.0226 29.6344C14.044 29.6259 14.0669 29.6218 14.09 29.6223H20.2271C20.2499 29.6218 20.2727 29.6259 20.2939 29.6345C20.3152 29.643 20.3345 29.6557 20.3507 29.6719C20.3669 29.6881 20.3796 29.7074 20.3881 29.7287C20.3967 29.75 20.4008 29.7727 20.4003 29.7956C20.4008 29.8187 20.3967 29.8416 20.3882 29.8631C20.3797 29.8845 20.367 29.9041 20.3509 29.9205C20.3347 29.937 20.3155 29.9501 20.2942 29.959C20.2729 29.968 20.2501 29.9726 20.2271 29.9726Z" fill="#148532"/>
<path id="Vector_72" d="M37.6202 29.9726H22.2739C22.2508 29.9726 22.228 29.968 22.2068 29.959C22.1855 29.9501 22.1662 29.937 22.1501 29.9205C22.1339 29.9041 22.1213 29.8845 22.1128 29.8631C22.1043 29.8416 22.1001 29.8187 22.1006 29.7956C22.1001 29.7727 22.1043 29.75 22.1128 29.7287C22.1213 29.7074 22.1341 29.6881 22.1503 29.6719C22.1665 29.6557 22.1858 29.643 22.207 29.6345C22.2283 29.6259 22.251 29.6218 22.2739 29.6223H37.6202C37.6433 29.6218 37.6662 29.6259 37.6876 29.6344C37.7091 29.6429 37.7286 29.6556 37.7451 29.6717C37.7615 29.6879 37.7746 29.7072 37.7836 29.7284C37.7925 29.7497 37.7971 29.7725 37.7971 29.7956C37.7971 29.8425 37.7785 29.8876 37.7453 29.9207C37.7121 29.9539 37.6671 29.9726 37.6202 29.9726Z" fill="#148532"/>
<path id="Vector_73" d="M21.6673 32.5404H15.5302C15.4839 32.5394 15.4399 32.5204 15.4075 32.4873C15.3751 32.4542 15.3569 32.4097 15.3569 32.3634C15.3569 32.3174 15.3752 32.2733 15.4077 32.2408C15.4402 32.2083 15.4843 32.19 15.5302 32.19H21.6673C21.6903 32.1896 21.7133 32.1937 21.7347 32.2022C21.7562 32.2107 21.7757 32.2234 21.7922 32.2395C21.8086 32.2557 21.8217 32.2749 21.8307 32.2962C21.8396 32.3175 21.8442 32.3403 21.8442 32.3634C21.8442 32.4103 21.8255 32.4553 21.7924 32.4885C21.7592 32.5217 21.7142 32.5404 21.6673 32.5404Z" fill="#148532"/>
<path id="Vector_74" d="M40.7936 32.5404H22.5485C22.5016 32.5404 22.4566 32.5217 22.4234 32.4885C22.3902 32.4553 22.3716 32.4103 22.3716 32.3634C22.3716 32.3403 22.3762 32.3175 22.3851 32.2962C22.394 32.2749 22.4071 32.2557 22.4236 32.2395C22.4401 32.2234 22.4596 32.2107 22.4811 32.2022C22.5025 32.1937 22.5254 32.1896 22.5485 32.19H40.7936C40.8167 32.1896 40.8396 32.1937 40.8611 32.2022C40.8825 32.2107 40.902 32.2234 40.9185 32.2395C40.935 32.2557 40.9481 32.2749 40.957 32.2962C40.9659 32.3175 40.9705 32.3403 40.9705 32.3634C40.9705 32.4103 40.9519 32.4553 40.9187 32.4885C40.8855 32.5217 40.8406 32.5404 40.7936 32.5404Z" fill="#148532"/>
<path id="Vector_75" d="M20.0393 35.1083H13.9022C13.8543 35.1083 13.8084 35.0893 13.7745 35.0554C13.7407 35.0215 13.7217 34.9756 13.7217 34.9277C13.7217 34.8798 13.7407 34.8339 13.7745 34.8C13.8084 34.7662 13.8543 34.7471 13.9022 34.7471H20.0393C20.0871 34.7471 20.133 34.7662 20.1669 34.8C20.2007 34.8339 20.2198 34.8798 20.2198 34.9277C20.2198 34.9756 20.2007 35.0215 20.1669 35.0554C20.133 35.0893 20.0871 35.1083 20.0393 35.1083Z" fill="#148532"/>
<path id="Vector_76" d="M31.187 35.1083H21.2918C21.244 35.1083 21.198 35.0893 21.1642 35.0554C21.1303 35.0215 21.1113 34.9756 21.1113 34.9277C21.1113 34.8798 21.1303 34.8339 21.1642 34.8C21.198 34.7662 21.244 34.7471 21.2918 34.7471H31.187C31.2348 34.7471 31.2807 34.7662 31.3146 34.8C31.3484 34.8339 31.3675 34.8798 31.3675 34.9277C31.3675 34.9756 31.3484 35.0215 31.3146 35.0554C31.2807 35.0893 31.2348 35.1083 31.187 35.1083Z" fill="#148532"/>
<path id="Vector_77" d="M44.8619 35.1083H34.974C34.9261 35.1083 34.8802 35.0893 34.8463 35.0554C34.8125 35.0215 34.7935 34.9756 34.7935 34.9277C34.7935 34.8798 34.8125 34.8339 34.8463 34.8C34.8802 34.7662 34.9261 34.7471 34.974 34.7471H44.8691C44.917 34.7471 44.9629 34.7662 44.9967 34.8C45.0306 34.8339 45.0496 34.8798 45.0496 34.9277C45.0496 34.9756 45.0306 35.0215 44.9967 35.0554C44.9629 35.0893 44.917 35.1083 44.8691 35.1083H44.8619Z" fill="#148532"/>
<path id="Vector_78" d="M20.0393 37.6761H13.9022C13.8543 37.6761 13.8084 37.6571 13.7745 37.6232C13.7407 37.5893 13.7217 37.5434 13.7217 37.4955C13.7217 37.4476 13.7407 37.4017 13.7745 37.3678C13.8084 37.334 13.8543 37.3149 13.9022 37.3149H20.0393C20.0871 37.3149 20.133 37.334 20.1669 37.3678C20.2007 37.4017 20.2198 37.4476 20.2198 37.4955C20.2198 37.5434 20.2007 37.5893 20.1669 37.6232C20.133 37.6571 20.0871 37.6761 20.0393 37.6761Z" fill="#148532"/>
<path id="Vector_79" d="M31.187 37.6761H22.5482C22.5003 37.6761 22.4544 37.6571 22.4205 37.6232C22.3867 37.5893 22.3677 37.5434 22.3677 37.4955C22.3677 37.4476 22.3867 37.4017 22.4205 37.3678C22.4544 37.334 22.5003 37.3149 22.5482 37.3149H31.187C31.2349 37.3149 31.2808 37.334 31.3147 37.3678C31.3485 37.4017 31.3675 37.4476 31.3675 37.4955C31.3675 37.5434 31.3485 37.5893 31.3147 37.6232C31.2808 37.6571 31.2349 37.6761 31.187 37.6761Z" fill="#148532"/>
<path id="Vector_80" d="M36.1765 37.6761H32.6458C32.598 37.6761 32.552 37.6571 32.5182 37.6232C32.4843 37.5893 32.4653 37.5434 32.4653 37.4955C32.4653 37.4476 32.4843 37.4017 32.5182 37.3678C32.552 37.334 32.598 37.3149 32.6458 37.3149H36.1765C36.2243 37.3149 36.2702 37.334 36.3041 37.3678C36.3379 37.4017 36.357 37.4476 36.357 37.4955C36.357 37.5434 36.3379 37.5893 36.3041 37.6232C36.2702 37.6571 36.2243 37.6761 36.1765 37.6761Z" fill="#148532"/>
<path id="Vector_81" d="M20.0391 40.2439H13.902C13.8789 40.2444 13.856 40.2403 13.8346 40.2318C13.8131 40.2233 13.7936 40.2106 13.7771 40.1945C13.7606 40.1783 13.7476 40.159 13.7386 40.1378C13.7297 40.1165 13.7251 40.0937 13.7251 40.0706C13.7251 40.0236 13.7437 39.9786 13.7769 39.9455C13.8101 39.9123 13.8551 39.8936 13.902 39.8936H20.0391C20.0621 39.8936 20.085 39.8982 20.1062 39.9072C20.1275 39.9161 20.1468 39.9292 20.1629 39.9457C20.179 39.9621 20.1917 39.9817 20.2002 40.0031C20.2087 40.0246 20.2128 40.0475 20.2123 40.0706C20.2128 40.0935 20.2087 40.1162 20.2002 40.1375C20.1916 40.1588 20.1789 40.1781 20.1627 40.1943C20.1465 40.2105 20.1272 40.2232 20.106 40.2317C20.0847 40.2403 20.062 40.2444 20.0391 40.2439Z" fill="#148532"/>
<path id="Vector_82" d="M34.2879 40.2439H21.6528C21.6068 40.2439 21.5627 40.2257 21.5302 40.1932C21.4977 40.1607 21.4795 40.1166 21.4795 40.0706C21.4795 40.0243 21.4976 39.9798 21.53 39.9467C21.5624 39.9136 21.6065 39.8946 21.6528 39.8936H34.2879C34.3348 39.8936 34.3798 39.9123 34.413 39.9455C34.4462 39.9786 34.4648 40.0236 34.4648 40.0706C34.4648 40.0937 34.4602 40.1165 34.4513 40.1378C34.4424 40.159 34.4293 40.1783 34.4128 40.1945C34.3963 40.2106 34.3768 40.2233 34.3554 40.2318C34.3339 40.2403 34.311 40.2444 34.2879 40.2439Z" fill="#148532"/>
<path id="Vector_83" d="M41.9199 40.2439H35.7829C35.7598 40.2444 35.7369 40.2403 35.7154 40.2318C35.694 40.2233 35.6745 40.2106 35.658 40.1945C35.6415 40.1783 35.6284 40.159 35.6195 40.1378C35.6106 40.1165 35.606 40.0937 35.606 40.0706C35.606 40.0236 35.6246 39.9786 35.6578 39.9455C35.6909 39.9123 35.7359 39.8936 35.7829 39.8936H41.9199C41.9662 39.8946 42.0103 39.9136 42.0427 39.9467C42.0751 39.9798 42.0932 40.0243 42.0932 40.0706C42.0932 40.1166 42.0749 40.1607 42.0425 40.1932C42.01 40.2257 41.9659 40.2439 41.9199 40.2439Z" fill="#148532"/>
<path id="Vector_84" d="M15.7108 42.8117H12.4618C12.4139 42.8117 12.368 42.7927 12.3341 42.7588C12.3003 42.7249 12.2812 42.679 12.2812 42.6311C12.2812 42.5832 12.3003 42.5373 12.3341 42.5034C12.368 42.4696 12.4139 42.4505 12.4618 42.4505H15.7108C15.7587 42.4505 15.8046 42.4696 15.8384 42.5034C15.8723 42.5373 15.8913 42.5832 15.8913 42.6311C15.8913 42.679 15.8723 42.7249 15.8384 42.7588C15.8046 42.7927 15.7587 42.8117 15.7108 42.8117Z" fill="#148532"/>
<path id="Vector_85" d="M32.6456 42.8117H18.4076C18.3597 42.8117 18.3138 42.7927 18.2799 42.7588C18.2461 42.7249 18.2271 42.679 18.2271 42.6311C18.2271 42.5832 18.2461 42.5373 18.2799 42.5034C18.3138 42.4696 18.3597 42.4505 18.4076 42.4505H32.6456C32.6934 42.4505 32.7394 42.4696 32.7732 42.5034C32.8071 42.5373 32.8261 42.5832 32.8261 42.6311C32.8261 42.679 32.8071 42.7249 32.7732 42.7588C32.7394 42.7927 32.6934 42.8117 32.6456 42.8117Z" fill="#148532"/>
<path id="Vector_86" d="M18.5954 45.3832H12.4583C12.4105 45.3832 12.3646 45.3642 12.3307 45.3303C12.2968 45.2964 12.2778 45.2505 12.2778 45.2026C12.2778 45.1547 12.2968 45.1088 12.3307 45.0749C12.3646 45.0411 12.4105 45.022 12.4583 45.022H18.5954C18.6433 45.022 18.6892 45.0411 18.723 45.0749C18.7569 45.1088 18.7759 45.1547 18.7759 45.2026C18.7759 45.2505 18.7569 45.2964 18.723 45.3303C18.6892 45.3642 18.6433 45.3832 18.5954 45.3832Z" fill="#148532"/>
<path id="Vector_87" d="M25.6203 47.9511H13.3462C13.3231 47.9511 13.3003 47.9465 13.279 47.9375C13.2578 47.9286 13.2385 47.9155 13.2223 47.899C13.2062 47.8825 13.1935 47.863 13.185 47.8416C13.1765 47.8201 13.1724 47.7972 13.1729 47.7741C13.1724 47.7512 13.1765 47.7284 13.1851 47.7072C13.1936 47.6859 13.2064 47.6666 13.2225 47.6504C13.2387 47.6342 13.258 47.6215 13.2793 47.6129C13.3005 47.6044 13.3233 47.6003 13.3462 47.6007H25.6203C25.6434 47.6003 25.6663 47.6044 25.6877 47.6129C25.7092 47.6214 25.7287 47.6341 25.7452 47.6502C25.7617 47.6664 25.7748 47.6856 25.7837 47.7069C25.7926 47.7282 25.7972 47.751 25.7972 47.7741C25.7972 47.821 25.7786 47.8661 25.7454 47.8992C25.7122 47.9324 25.6672 47.9511 25.6203 47.9511Z" fill="#148532"/>
<path id="Vector_88" d="M36.1761 47.9511H27.6528C27.6298 47.9511 27.6069 47.9465 27.5857 47.9375C27.5644 47.9286 27.5451 47.9155 27.529 47.899C27.5129 47.8825 27.5002 47.863 27.4917 47.8416C27.4832 47.8201 27.4791 47.7972 27.4795 47.7741C27.479 47.7512 27.4832 47.7284 27.4917 47.7072C27.5003 47.6859 27.513 47.6666 27.5292 47.6504C27.5454 47.6342 27.5647 47.6215 27.5859 47.6129C27.6072 47.6044 27.6299 47.6003 27.6528 47.6007H36.1761C36.1992 47.6003 36.2221 47.6044 36.2436 47.6129C36.265 47.6214 36.2845 47.6341 36.301 47.6502C36.3175 47.6664 36.3306 47.6856 36.3395 47.7069C36.3484 47.7282 36.353 47.751 36.353 47.7741C36.353 47.821 36.3344 47.8661 36.3012 47.8992C36.268 47.9324 36.223 47.9511 36.1761 47.9511Z" fill="#148532"/>
<path id="Vector_89" d="M47.9486 47.9511H37.3965C37.3734 47.9511 37.3506 47.9465 37.3293 47.9375C37.308 47.9286 37.2888 47.9155 37.2726 47.899C37.2565 47.8825 37.2438 47.863 37.2353 47.8416C37.2268 47.8201 37.2227 47.7972 37.2232 47.7741C37.2227 47.7512 37.2268 47.7284 37.2354 47.7072C37.2439 47.6859 37.2567 47.6666 37.2728 47.6504C37.289 47.6342 37.3083 47.6215 37.3296 47.6129C37.3508 47.6044 37.3736 47.6003 37.3965 47.6007H47.9486C47.9946 47.6007 48.0387 47.619 48.0712 47.6515C48.1037 47.684 48.1219 47.7281 48.1219 47.7741C48.1219 47.8204 48.1038 47.8649 48.0714 47.898C48.039 47.9311 47.9949 47.9501 47.9486 47.9511Z" fill="#148532"/>
<path id="Vector_90" d="M31.7649 50.5189H13.8952C13.8482 50.5189 13.8032 50.5002 13.7701 50.467C13.7369 50.4339 13.7183 50.3888 13.7183 50.3419C13.7183 50.3188 13.7229 50.296 13.7318 50.2747C13.7407 50.2535 13.7538 50.2342 13.7703 50.218C13.7868 50.2019 13.8063 50.1892 13.8277 50.1807C13.8492 50.1722 13.8721 50.1681 13.8952 50.1686H31.7649C31.7879 50.1681 31.8109 50.1722 31.8323 50.1807C31.8537 50.1892 31.8733 50.2019 31.8897 50.218C31.9062 50.2342 31.9193 50.2535 31.9282 50.2747C31.9372 50.296 31.9418 50.3188 31.9418 50.3419C31.9418 50.3888 31.9231 50.4339 31.89 50.467C31.8568 50.5002 31.8118 50.5189 31.7649 50.5189Z" fill="#148532"/>
<path id="Vector_91" d="M41.0246 50.5189H32.985C32.9381 50.5189 32.8931 50.5002 32.8599 50.467C32.8267 50.4339 32.8081 50.3889 32.8081 50.3419C32.8081 50.3188 32.8127 50.296 32.8216 50.2747C32.8306 50.2535 32.8437 50.2342 32.8601 50.218C32.8766 50.2019 32.8961 50.1892 32.9176 50.1807C32.939 50.1722 32.9619 50.1681 32.985 50.1686H41.0246C41.0475 50.1681 41.0702 50.1722 41.0915 50.1808C41.1127 50.1893 41.132 50.202 41.1482 50.2182C41.1644 50.2344 41.1771 50.2537 41.1857 50.275C41.1942 50.2962 41.1983 50.319 41.1979 50.3419C41.1983 50.365 41.1942 50.3879 41.1857 50.4094C41.1772 50.4308 41.1645 50.4504 41.1484 50.4668C41.1323 50.4833 41.113 50.4964 41.0917 50.5053C41.0705 50.5143 41.0476 50.5189 41.0246 50.5189Z" fill="#148532"/>
<path id="Vector_92" d="M66.2914 50.5189H42.3857C42.3394 50.5179 42.2953 50.4989 42.2629 50.4658C42.2305 50.4327 42.2124 50.3882 42.2124 50.3419C42.2124 50.2959 42.2307 50.2518 42.2632 50.2193C42.2956 50.1868 42.3397 50.1686 42.3857 50.1686H66.2914C66.3145 50.1681 66.3374 50.1722 66.3588 50.1807C66.3803 50.1892 66.3998 50.2019 66.4163 50.218C66.4327 50.2342 66.4458 50.2535 66.4548 50.2747C66.4637 50.296 66.4683 50.3188 66.4683 50.3419C66.4683 50.3888 66.4497 50.4339 66.4165 50.467C66.3833 50.5002 66.3383 50.5189 66.2914 50.5189Z" fill="#148532"/>
<path id="Vector_93" d="M22.2737 53.0866H13.8226C13.7747 53.0866 13.7288 53.0675 13.695 53.0337C13.6611 52.9998 13.6421 52.9539 13.6421 52.906C13.6421 52.8581 13.6611 52.8122 13.695 52.7783C13.7288 52.7444 13.7747 52.7254 13.8226 52.7254H22.2737C22.3216 52.7254 22.3675 52.7444 22.4013 52.7783C22.4352 52.8122 22.4542 52.8581 22.4542 52.906C22.4542 52.9539 22.4352 52.9998 22.4013 53.0337C22.3675 53.0675 22.3216 53.0866 22.2737 53.0866Z" fill="#148532"/>
<path id="Vector_94" d="M30.1801 53.0866H23.9564C23.9085 53.0866 23.8626 53.0675 23.8287 53.0337C23.7949 52.9998 23.7759 52.9539 23.7759 52.906C23.7759 52.8581 23.7949 52.8122 23.8287 52.7783C23.8626 52.7444 23.9085 52.7254 23.9564 52.7254H30.1801C30.228 52.7254 30.2739 52.7444 30.3077 52.7783C30.3416 52.8122 30.3606 52.8581 30.3606 52.906C30.3606 52.9539 30.3416 52.9998 30.3077 53.0337C30.2739 53.0675 30.228 53.0866 30.1801 53.0866Z" fill="#148532"/>
<path id="Vector_95" d="M38.0785 53.0866H31.8548C31.8069 53.0866 31.761 53.0675 31.7272 53.0337C31.6933 52.9998 31.6743 52.9539 31.6743 52.906C31.6743 52.8581 31.6933 52.8122 31.7272 52.7783C31.761 52.7444 31.8069 52.7254 31.8548 52.7254H38.0785C38.1264 52.7254 38.1723 52.7444 38.2062 52.7783C38.24 52.8122 38.259 52.8581 38.259 52.906C38.259 52.9539 38.24 52.9998 38.2062 53.0337C38.1723 53.0675 38.1264 53.0866 38.0785 53.0866Z" fill="#148532"/>
<path id="Vector_96" d="M28.7649 55.6544H13.8229C13.7998 55.6549 13.7769 55.6508 13.7555 55.6423C13.734 55.6338 13.7145 55.6211 13.698 55.6049C13.6815 55.5888 13.6685 55.5695 13.6595 55.5483C13.6506 55.527 13.646 55.5041 13.646 55.4811C13.646 55.4341 13.6646 55.3891 13.6978 55.3559C13.731 55.3228 13.776 55.3041 13.8229 55.3041H28.7649C28.8118 55.3041 28.8568 55.3228 28.8899 55.3559C28.9231 55.3891 28.9418 55.4341 28.9418 55.4811C28.9418 55.5041 28.9372 55.527 28.9282 55.5483C28.9193 55.5695 28.9062 55.5888 28.8897 55.6049C28.8733 55.6211 28.8537 55.6338 28.8323 55.6423C28.8108 55.6508 28.7879 55.6549 28.7649 55.6544Z" fill="#148532"/>
<path id="Vector_97" d="M38.0787 55.6544H30.6059C30.583 55.6549 30.5603 55.6508 30.5391 55.6422C30.5178 55.6337 30.4985 55.621 30.4823 55.6048C30.4661 55.5886 30.4534 55.5692 30.4448 55.548C30.4363 55.5267 30.4322 55.504 30.4327 55.4811C30.4322 55.458 30.4363 55.4351 30.4448 55.4136C30.4533 55.3922 30.466 55.3726 30.4821 55.3562C30.4983 55.3397 30.5175 55.3266 30.5388 55.3176C30.56 55.3087 30.5829 55.3041 30.6059 55.3041H38.0787C38.1018 55.3041 38.1246 55.3087 38.1459 55.3176C38.1672 55.3266 38.1864 55.3397 38.2026 55.3562C38.2187 55.3726 38.2314 55.3922 38.2399 55.4136C38.2484 55.4351 38.2525 55.458 38.252 55.4811C38.2525 55.504 38.2484 55.5267 38.2398 55.548C38.2313 55.5692 38.2185 55.5886 38.2024 55.6048C38.1862 55.621 38.1669 55.6337 38.1456 55.6422C38.1244 55.6508 38.1016 55.6549 38.0787 55.6544Z" fill="#148532"/>
<path id="Vector_98" d="M51.2914 55.6544H39.9126C39.8897 55.6549 39.8669 55.6508 39.8457 55.6422C39.8244 55.6337 39.8051 55.621 39.789 55.6048C39.7728 55.5886 39.76 55.5692 39.7515 55.548C39.743 55.5267 39.7388 55.504 39.7393 55.4811C39.7388 55.458 39.7429 55.4351 39.7514 55.4136C39.7599 55.3922 39.7726 55.3726 39.7888 55.3562C39.8049 55.3397 39.8242 55.3266 39.8454 55.3176C39.8667 55.3087 39.8895 55.3041 39.9126 55.3041H51.2914C51.3147 55.3041 51.3377 55.3087 51.3591 55.3176C51.3806 55.3265 51.4001 55.3395 51.4165 55.3559C51.4329 55.3724 51.446 55.3919 51.4549 55.4134C51.4638 55.4348 51.4683 55.4578 51.4683 55.4811C51.4683 55.5041 51.4637 55.527 51.4548 55.5483C51.4459 55.5695 51.4328 55.5888 51.4163 55.6049C51.3998 55.6211 51.3803 55.6338 51.3589 55.6423C51.3374 55.6508 51.3145 55.6549 51.2914 55.6544Z" fill="#148532"/>
<path id="Vector_99" d="M63.8543 55.6544H52.4899C52.4668 55.6549 52.4439 55.6508 52.4225 55.6423C52.401 55.6338 52.3815 55.6211 52.365 55.6049C52.3485 55.5888 52.3355 55.5695 52.3265 55.5483C52.3176 55.527 52.313 55.5041 52.313 55.4811C52.313 55.4341 52.3316 55.3891 52.3648 55.3559C52.398 55.3228 52.443 55.3041 52.4899 55.3041H63.8543C63.9012 55.3041 63.9462 55.3228 63.9794 55.3559C64.0126 55.3891 64.0312 55.4341 64.0312 55.4811C64.0312 55.5041 64.0266 55.527 64.0177 55.5483C64.0087 55.5695 63.9956 55.5888 63.9792 55.6049C63.9627 55.6211 63.9432 55.6338 63.9217 55.6423C63.9003 55.6508 63.8774 55.6549 63.8543 55.6544Z" fill="#148532"/>
<path id="Vector_100" d="M26.5159 58.222H17.6027C17.5796 58.2224 17.5567 58.2183 17.5353 58.2098C17.5138 58.2013 17.4943 58.1886 17.4778 58.1725C17.4613 58.1563 17.4482 58.1371 17.4393 58.1158C17.4304 58.0945 17.4258 58.0717 17.4258 58.0486C17.4258 58.0254 17.4304 58.0024 17.4392 57.9809C17.4481 57.9594 17.4612 57.9399 17.4776 57.9235C17.494 57.907 17.5135 57.894 17.535 57.8851C17.5564 57.8762 17.5794 57.8716 17.6027 57.8716H26.5159C26.5389 57.8716 26.5618 57.8762 26.583 57.8852C26.6043 57.8941 26.6236 57.9072 26.6397 57.9237C26.6558 57.9402 26.6685 57.9597 26.677 57.9812C26.6855 58.0026 26.6896 58.0255 26.6892 58.0486C26.6896 58.0715 26.6855 58.0943 26.677 58.1155C26.6684 58.1368 26.6557 58.1561 26.6395 58.1723C26.6233 58.1885 26.604 58.2012 26.5828 58.2098C26.5615 58.2183 26.5388 58.2225 26.5159 58.222Z" fill="#148532"/>
<path id="Vector_101" d="M37.1007 58.222H28.1875C28.1646 58.2225 28.1418 58.2183 28.1206 58.2098C28.0993 58.2012 28.08 58.1885 28.0639 58.1723C28.0477 58.1561 28.0349 58.1368 28.0264 58.1155C28.0179 58.0943 28.0137 58.0715 28.0142 58.0486C28.0137 58.0255 28.0178 58.0026 28.0263 57.9812C28.0348 57.9597 28.0475 57.9402 28.0637 57.9237C28.0798 57.9072 28.0991 57.8941 28.1203 57.8852C28.1416 57.8762 28.1644 57.8716 28.1875 57.8716H37.1007C37.1239 57.8716 37.1469 57.8762 37.1684 57.8851C37.1898 57.894 37.2093 57.907 37.2258 57.9235C37.2422 57.9399 37.2552 57.9594 37.2641 57.9809C37.273 58.0024 37.2776 58.0254 37.2776 58.0486C37.2776 58.0717 37.273 58.0945 37.264 58.1158C37.2551 58.1371 37.242 58.1563 37.2256 58.1725C37.2091 58.1886 37.1895 58.2013 37.1681 58.2098C37.1467 58.2183 37.1237 58.2224 37.1007 58.222Z" fill="#148532"/>
<path id="Vector_102" d="M47.761 58.222H38.8478C38.8247 58.2224 38.8018 58.2183 38.7804 58.2098C38.7589 58.2013 38.7394 58.1886 38.7229 58.1725C38.7064 58.1563 38.6934 58.1371 38.6844 58.1158C38.6755 58.0945 38.6709 58.0717 38.6709 58.0486C38.6709 58.0254 38.6755 58.0024 38.6844 57.9809C38.6933 57.9594 38.7063 57.9399 38.7227 57.9235C38.7391 57.907 38.7586 57.894 38.7801 57.8851C38.8016 57.8762 38.8246 57.8716 38.8478 57.8716H47.761C47.7841 57.8716 47.8069 57.8762 47.8281 57.8852C47.8494 57.8941 47.8687 57.9072 47.8848 57.9237C47.901 57.9402 47.9136 57.9597 47.9221 57.9812C47.9306 58.0026 47.9348 58.0255 47.9343 58.0486C47.9348 58.0715 47.9306 58.0943 47.9221 58.1155C47.9136 58.1368 47.9008 58.1561 47.8846 58.1723C47.8684 58.1885 47.8491 58.2012 47.8279 58.2098C47.8066 58.2183 47.7839 58.2225 47.761 58.222Z" fill="#148532"/>
<path id="Vector_103" d="M58.8004 58.5111H49.8836C49.8358 58.5111 49.7898 58.4921 49.756 58.4582C49.7221 58.4244 49.7031 58.3784 49.7031 58.3305C49.7031 58.2826 49.7221 58.2367 49.756 58.2029C49.7898 58.169 49.8358 58.15 49.8836 58.15H58.8004C58.8483 58.15 58.8942 58.169 58.9281 58.2029C58.9619 58.2367 58.9809 58.2826 58.9809 58.3305C58.9809 58.3784 58.9619 58.4244 58.9281 58.4582C58.8942 58.4921 58.8483 58.5111 58.8004 58.5111Z" fill="#148532"/>
<path id="Vector_104" d="M25.0716 60.79H18.9346C18.9117 60.7905 18.8889 60.7864 18.8677 60.7778C18.8464 60.7693 18.8271 60.7565 18.8109 60.7403C18.7947 60.7241 18.782 60.7048 18.7735 60.6836C18.7649 60.6623 18.7608 60.6396 18.7613 60.6167C18.7608 60.5936 18.7649 60.5707 18.7734 60.5492C18.7819 60.5278 18.7946 60.5082 18.8107 60.4917C18.8269 60.4753 18.8461 60.4622 18.8674 60.4532C18.8887 60.4443 18.9115 60.4397 18.9346 60.4397H25.0716C25.1185 60.4397 25.1635 60.4583 25.1967 60.4915C25.2299 60.5247 25.2485 60.5697 25.2485 60.6167C25.2485 60.6397 25.2439 60.6626 25.235 60.6838C25.2261 60.7051 25.213 60.7244 25.1965 60.7405C25.18 60.7567 25.1605 60.7694 25.1391 60.7779C25.1176 60.7864 25.0947 60.7905 25.0716 60.79Z" fill="#148532"/>
<path id="Vector_105" d="M32.6602 60.79H26.5231C26.5 60.7905 26.4771 60.7864 26.4557 60.7779C26.4342 60.7694 26.4147 60.7567 26.3982 60.7405C26.3817 60.7244 26.3687 60.7051 26.3597 60.6838C26.3508 60.6626 26.3462 60.6397 26.3462 60.6167C26.3462 60.5697 26.3648 60.5247 26.398 60.4915C26.4312 60.4583 26.4762 60.4397 26.5231 60.4397H32.6602C32.6832 60.4397 32.7061 60.4443 32.7273 60.4532C32.7486 60.4622 32.7678 60.4753 32.784 60.4917C32.8001 60.5082 32.8128 60.5278 32.8213 60.5492C32.8298 60.5707 32.8339 60.5936 32.8334 60.6167C32.8339 60.6396 32.8298 60.6623 32.8213 60.6836C32.8127 60.7048 32.8 60.7241 32.7838 60.7403C32.7676 60.7565 32.7483 60.7693 32.727 60.7778C32.7058 60.7864 32.6831 60.7905 32.6602 60.79Z" fill="#148532"/>
<path id="Vector_106" d="M46.8473 61.0502L34.1616 60.7901C34.1385 60.7901 34.1157 60.7855 34.0944 60.7766C34.0732 60.7677 34.0539 60.7546 34.0378 60.7381C34.0216 60.7216 34.009 60.7021 34.0005 60.6806C33.992 60.6592 33.9878 60.6362 33.9883 60.6132C33.9878 60.5896 33.9921 60.5662 34.0011 60.5445C34.0101 60.5227 34.0235 60.5031 34.0404 60.4867C34.0574 60.4704 34.0776 60.4579 34.0997 60.4498C34.1218 60.4417 34.1453 60.4383 34.1688 60.4398L46.8545 60.6998C46.9024 60.6998 46.9483 60.7189 46.9822 60.7527C47.016 60.7866 47.035 60.8325 47.035 60.8804C47.035 60.9283 47.016 60.9742 46.9822 61.0081C46.9483 61.042 46.9024 61.061 46.8545 61.061L46.8473 61.0502Z" fill="#148532"/>
<path id="Vector_107" d="M51.5804 32.5404H43.2773C43.2543 32.5404 43.2314 32.5358 43.2102 32.5268C43.1889 32.5179 43.1696 32.5048 43.1535 32.4883C43.1374 32.4718 43.1247 32.4523 43.1162 32.4308C43.1077 32.4094 43.1036 32.3865 43.104 32.3634C43.1036 32.3405 43.1077 32.3177 43.1162 32.2965C43.1248 32.2752 43.1375 32.2559 43.1537 32.2397C43.1699 32.2235 43.1892 32.2108 43.2104 32.2022C43.2317 32.1937 43.2544 32.1895 43.2773 32.19H51.5804C51.6035 32.1896 51.6264 32.1937 51.6479 32.2022C51.6693 32.2107 51.6888 32.2234 51.7053 32.2395C51.7218 32.2557 51.7349 32.2749 51.7438 32.2962C51.7527 32.3175 51.7573 32.3403 51.7573 32.3634C51.7573 32.4103 51.7387 32.4553 51.7055 32.4885C51.6723 32.5217 51.6273 32.5404 51.5804 32.5404Z" fill="#148532"/>
<path id="Vector_108" d="M57.7176 32.5657C56.093 32.5657 54.8873 32.5657 54.8295 32.5295C54.8075 32.5234 54.7869 32.5129 54.7689 32.4988C54.7509 32.4847 54.7358 32.4671 54.7246 32.4472C54.7019 32.4069 54.6961 32.3592 54.7086 32.3147C54.721 32.2701 54.7507 32.2323 54.7909 32.2097C54.8312 32.187 54.8789 32.1812 54.9234 32.1937C55.2411 32.2334 60.7211 32.2117 64.3456 32.1937C64.3687 32.1932 64.3916 32.1973 64.413 32.2058C64.4345 32.2143 64.454 32.227 64.4705 32.2431C64.4869 32.2593 64.5 32.2786 64.509 32.2998C64.5179 32.3211 64.5225 32.3439 64.5225 32.367C64.5225 32.414 64.5039 32.459 64.4707 32.4922C64.4375 32.5253 64.3925 32.544 64.3456 32.544C62.4106 32.5512 59.7392 32.5657 57.7176 32.5657Z" fill="#148532"/>
<path id="Vector_109" d="M50.2556 27.4049H38.1981C38.1502 27.4049 38.1043 27.3859 38.0704 27.352C38.0366 27.3182 38.0176 27.2722 38.0176 27.2243C38.0176 27.1764 38.0366 27.1305 38.0704 27.0967C38.1043 27.0628 38.1502 27.0438 38.1981 27.0438H50.2556C50.3035 27.0438 50.3494 27.0628 50.3833 27.0967C50.4171 27.1305 50.4361 27.1764 50.4361 27.2243C50.4361 27.2722 50.4171 27.3182 50.3833 27.352C50.3494 27.3859 50.3035 27.4049 50.2556 27.4049Z" fill="#148532"/>
<path id="Vector_110" d="M64.6776 27.4049H52.6634C52.6155 27.4049 52.5696 27.3859 52.5358 27.352C52.5019 27.3182 52.4829 27.2722 52.4829 27.2243C52.4829 27.1764 52.5019 27.1305 52.5358 27.0967C52.5696 27.0628 52.6155 27.0438 52.6634 27.0438H64.6632C64.7111 27.0438 64.757 27.0628 64.7908 27.0967C64.8247 27.1305 64.8437 27.1764 64.8437 27.2243C64.8437 27.2722 64.8247 27.3182 64.7908 27.352C64.757 27.3859 64.7111 27.4049 64.6632 27.4049H64.6776Z" fill="#148532"/>
<path id="Vector_111" d="M38.945 24.8477C36.7176 24.8477 35.0209 24.8477 34.9523 24.8477C34.9065 24.8398 34.8656 24.8141 34.8386 24.7762C34.8116 24.7384 34.8005 24.6914 34.8079 24.6455C34.815 24.6007 34.8394 24.5604 34.8759 24.5334C34.9123 24.5064 34.9579 24.4948 35.0028 24.501C35.3097 24.5227 44.212 24.501 48.8834 24.501C48.9304 24.501 48.9754 24.5196 49.0085 24.5528C49.0417 24.586 49.0603 24.631 49.0603 24.678C49.0603 24.701 49.0557 24.7239 49.0468 24.7452C49.0379 24.7664 49.0248 24.7857 49.0083 24.8018C48.9918 24.818 48.9723 24.8307 48.9509 24.8392C48.9294 24.8477 48.9065 24.8518 48.8834 24.8513C46.9232 24.8405 42.3168 24.8477 38.945 24.8477Z" fill="#148532"/>
<path id="Vector_112" d="M52.1361 24.8441C52.1038 24.8434 52.0724 24.8335 52.0456 24.8156C52.0187 24.7977 51.9975 24.7725 51.9845 24.743C51.9669 24.6982 51.9668 24.6485 51.9842 24.6036C52.0015 24.5588 52.0352 24.5221 52.0783 24.501C52.2191 24.4324 55.0241 24.4251 60.4103 24.501C60.4563 24.5028 60.4999 24.5222 60.5321 24.5551C60.5643 24.5879 60.5827 24.6319 60.5836 24.678C60.5836 24.701 60.579 24.7239 60.5701 24.7451C60.5611 24.7664 60.5481 24.7857 60.5316 24.8018C60.5151 24.818 60.4956 24.8307 60.4741 24.8392C60.4527 24.8477 60.4298 24.8518 60.4067 24.8513C57.2696 24.8188 52.5007 24.7899 52.2047 24.8513C52.1816 24.8555 52.1578 24.853 52.1361 24.8441Z" fill="#148532"/>
<path id="Vector_113" d="M40.5044 42.8117H34.2879C34.2401 42.8117 34.1941 42.7927 34.1603 42.7588C34.1264 42.7249 34.1074 42.679 34.1074 42.6311C34.1074 42.5832 34.1264 42.5373 34.1603 42.5034C34.1941 42.4696 34.2401 42.4505 34.2879 42.4505H40.5044C40.5523 42.4505 40.5982 42.4696 40.6321 42.5034C40.6659 42.5373 40.6849 42.5832 40.6849 42.6311C40.6849 42.679 40.6659 42.7249 40.6321 42.7588C40.5982 42.7927 40.5523 42.8117 40.5044 42.8117Z" fill="#148532"/>
<path id="Vector_114" d="M26.2412 45.3832H21.6673C21.6194 45.3832 21.5735 45.3642 21.5397 45.3303C21.5058 45.2964 21.4868 45.2505 21.4868 45.2026C21.4868 45.1547 21.5058 45.1088 21.5397 45.0749C21.5735 45.0411 21.6194 45.022 21.6673 45.022H26.2412C26.2891 45.022 26.335 45.0411 26.3689 45.0749C26.4027 45.1088 26.4217 45.1547 26.4217 45.2026C26.4217 45.2505 26.4027 45.2964 26.3689 45.3303C26.335 45.3642 26.2891 45.3832 26.2412 45.3832Z" fill="#148532"/>
<path id="Vector_115" d="M38.8477 45.3832H27.9779C27.93 45.3832 27.8841 45.3642 27.8502 45.3303C27.8164 45.2964 27.7974 45.2505 27.7974 45.2026C27.7974 45.1547 27.8164 45.1088 27.8502 45.0749C27.8841 45.0411 27.93 45.022 27.9779 45.022H38.8477C38.8956 45.022 38.9415 45.0411 38.9753 45.0749C39.0092 45.1088 39.0282 45.1547 39.0282 45.2026C39.0282 45.2505 39.0092 45.2964 38.9753 45.3303C38.9415 45.3642 38.8956 45.3832 38.8477 45.3832Z" fill="#148532"/>
<path id="Vector_116" d="M62.0821 45.3832H41.0247C40.9769 45.3832 40.931 45.3642 40.8971 45.3303C40.8633 45.2964 40.8442 45.2505 40.8442 45.2026C40.8442 45.1547 40.8633 45.1088 40.8971 45.0749C40.931 45.0411 40.9769 45.022 41.0247 45.022H62.0821C62.13 45.022 62.1759 45.0411 62.2098 45.0749C62.2436 45.1088 62.2626 45.1547 62.2626 45.2026C62.2626 45.2505 62.2436 45.2964 62.2098 45.3303C62.1759 45.3642 62.13 45.3832 62.0821 45.3832Z" fill="#148532"/>
<path id="Vector_117" d="M5.73285 18.8959C6.07179 18.8959 6.34656 18.621 6.34656 18.2819C6.34656 17.9429 6.07179 17.668 5.73285 17.668C5.39391 17.668 5.11914 17.9429 5.11914 18.2819C5.11914 18.621 5.39391 18.8959 5.73285 18.8959Z" fill="#148532"/>
<path id="Vector_118" d="M7.88422 18.8959C8.22316 18.8959 8.49793 18.621 8.49793 18.2819C8.49793 17.9429 8.22316 17.668 7.88422 17.668C7.54527 17.668 7.27051 17.9429 7.27051 18.2819C7.27051 18.621 7.54527 18.8959 7.88422 18.8959Z" fill="white"/>
<path id="Vector_119" d="M10.0361 18.8959C10.375 18.8959 10.6498 18.621 10.6498 18.2819C10.6498 17.9429 10.375 17.668 10.0361 17.668C9.69713 17.668 9.42236 17.9429 9.42236 18.2819C9.42236 18.621 9.69713 18.8959 10.0361 18.8959Z" fill="white"/>
<path id="Vector_120" d="M50.2267 75.9081H27.2632L29.8588 67.9915H47.6311L50.2267 75.9081Z" fill="white"/>
<path id="Vector_121" d="M50.2266 76.0887H27.2631C27.2344 76.0897 27.2059 76.0837 27.18 76.0712C27.1542 76.0587 27.1317 76.0401 27.1147 76.017C27.0976 75.9939 27.0864 75.9669 27.0821 75.9385C27.0778 75.9101 27.0804 75.8811 27.0898 75.854L29.6854 67.9374C29.697 67.9006 29.7201 67.8684 29.7513 67.8457C29.7825 67.8229 29.8201 67.8108 29.8587 67.811H47.631C47.6696 67.8108 47.7072 67.8229 47.7384 67.8457C47.7696 67.8684 47.7927 67.9006 47.8042 67.9374L50.3999 75.854C50.4093 75.8811 50.4119 75.9101 50.4076 75.9385C50.4032 75.9669 50.3921 75.9939 50.375 76.017C50.358 76.0401 50.3355 76.0587 50.3097 76.0712C50.2838 76.0837 50.2553 76.0897 50.2266 76.0887ZM27.5122 75.7275H49.9775L47.501 68.1722H29.9887L27.5122 75.7275Z" fill="#148532"/>
<path id="Vector_122" d="M52.122 75.9081H25.3679C24.7519 75.9081 24.2524 76.4069 24.2524 77.0222C24.2524 77.6376 24.7519 78.1364 25.3679 78.1364H52.122C52.7381 78.1364 53.2375 77.6376 53.2375 77.0222C53.2375 76.4069 52.7381 75.9081 52.122 75.9081Z" fill="white"/>
<path id="Vector_123" d="M52.1254 78.3207H25.3678C25.0241 78.3207 24.6944 78.1841 24.4514 77.9409C24.2083 77.6978 24.0718 77.368 24.0718 77.0241C24.0718 76.6803 24.2083 76.3505 24.4514 76.1073C24.6944 75.8642 25.0241 75.7276 25.3678 75.7276H52.1254C52.4692 75.7276 52.7988 75.8642 53.0418 76.1073C53.2849 76.3505 53.4214 76.6803 53.4214 77.0241C53.4214 77.368 53.2849 77.6978 53.0418 77.9409C52.7988 78.1841 52.4692 78.3207 52.1254 78.3207ZM25.3678 76.0887C25.1198 76.0887 24.882 76.1873 24.7066 76.3627C24.5313 76.5381 24.4328 76.776 24.4328 77.0241C24.4328 77.2722 24.5313 77.5101 24.7066 77.6855C24.882 77.861 25.1198 77.9595 25.3678 77.9595H52.1254C52.3734 77.9595 52.6112 77.861 52.7866 77.6855C52.9619 77.5101 53.0604 77.2722 53.0604 77.0241C53.0604 76.776 52.9619 76.5381 52.7866 76.3627C52.6112 76.1873 52.3734 76.0887 52.1254 76.0887H25.3678Z" fill="#148532"/>
<path id="Vector_124" d="M27.9526 73.8097C28.3136 73.6147 48.205 69.9815 48.205 69.9815L47.5516 67.9915H29.7793L27.9526 73.8097Z" fill="#148532"/>
<path id="Vector_125" d="M27.9488 73.9901C27.9075 73.9898 27.8677 73.9744 27.8369 73.9468C27.8107 73.9241 27.7918 73.8941 27.7828 73.8607C27.7738 73.8272 27.775 73.7918 27.7863 73.759L29.613 67.9408C29.6234 67.9049 29.6452 67.8734 29.6752 67.8512C29.7053 67.829 29.7418 67.8173 29.7791 67.818H47.5513C47.5882 67.8171 47.6244 67.8282 47.6543 67.8498C47.6843 67.8713 47.7064 67.9019 47.7174 67.9372L48.3708 69.9235C48.3778 69.9475 48.3798 69.9727 48.3766 69.9974C48.3733 70.0222 48.365 70.046 48.3521 70.0674C48.3392 70.0888 48.322 70.1072 48.3017 70.1216C48.2813 70.136 48.2581 70.1461 48.2336 70.151C42.7825 71.1478 28.5192 73.7807 28.0174 73.9721C27.9958 73.9822 27.9726 73.9884 27.9488 73.9901ZM29.9199 68.1683L28.2232 73.5676C30.613 73.0258 44.5333 70.4761 47.9846 69.8441L47.4358 68.1683H29.9199Z" fill="#148532"/>
</g>
</svg>
