<svg width="48" height="48" viewBox="0 0 48 48" fill="none" xmlns="http://www.w3.org/2000/svg">
<path d="M22.5 25.7L19.85 23.05C19.55 22.75 19.2 22.6 18.8 22.6C18.4 22.6 18.05 22.75 17.75 23.05C17.45 23.35 17.3 23.7 17.3 24.1C17.3 24.5 17.45 24.85 17.75 25.15L22.95 30.35C23.25 30.65 23.6 30.8 24 30.8C24.4 30.8 24.75 30.65 25.05 30.35L30.25 25.15C30.55 24.85 30.7 24.5 30.7 24.1C30.7 23.7 30.55 23.35 30.25 23.05C29.95 22.75 29.6 22.6 29.2 22.6C28.8 22.6 28.45 22.75 28.15 23.05L25.5 25.7V18.1C25.5 17.6667 25.3583 17.3083 25.075 17.025C24.7917 16.7417 24.4333 16.6 24 16.6C23.5667 16.6 23.2083 16.7417 22.925 17.025C22.6417 17.3083 22.5 17.6667 22.5 18.1V25.7ZM24 44C21.2667 44 18.6833 43.475 16.25 42.425C13.8167 41.375 11.6917 39.9417 9.875 38.125C8.05833 36.3083 6.625 34.1833 5.575 31.75C4.525 29.3167 4 26.7333 4 24C4 21.2333 4.525 18.6333 5.575 16.2C6.625 13.7667 8.05833 11.65 9.875 9.85C11.6917 8.05 13.8167 6.625 16.25 5.575C18.6833 4.525 21.2667 4 24 4C26.7667 4 29.3667 4.525 31.8 5.575C34.2333 6.625 36.35 8.05 38.15 9.85C39.95 11.65 41.375 13.7667 42.425 16.2C43.475 18.6333 44 21.2333 44 24C44 26.7333 43.475 29.3167 42.425 31.75C41.375 34.1833 39.95 36.3083 38.15 38.125C36.35 39.9417 34.2333 41.375 31.8 42.425C29.3667 43.475 26.7667 44 24 44ZM24 41C28.7333 41 32.75 39.3417 36.05 36.025C39.35 32.7083 41 28.7 41 24C41 19.2667 39.35 15.25 36.05 11.95C32.75 8.65 28.7333 7 24 7C19.3 7 15.2917 8.65 11.975 11.95C8.65833 15.25 7 19.2667 7 24C7 28.7 8.65833 32.7083 11.975 36.025C15.2917 39.3417 19.3 41 24 41Z" fill="#148532"/>
</svg>
