<svg width="127" height="95" viewBox="0 0 127 95" fill="none" xmlns="http://www.w3.org/2000/svg">
<g id="Mobile Testing_Flatline 1">
<g id="006">
<path id="Vector" d="M12.5029 67.6075V69.9897C12.5029 70.6767 13.4745 71.2313 13.938 71.3605C14.4016 71.4897 73.6598 88.947 76.022 88.884C78.3842 88.821 79.2319 88.5689 79.7367 88.2317C80.2416 87.8945 112.395 69.7408 113.243 69.2177C114.09 68.6946 114.147 68.3637 114.179 67.9572C114.265 66.8323 114.56 64.3019 114.56 64.3019L12.5029 67.6075Z" fill="white"/>
<path id="Vector_2" d="M76.0093 89.0289C73.9361 89.0289 36.9759 78.2741 15.0938 71.852L13.8968 71.5023C13.3602 71.351 12.3569 70.7523 12.3569 69.9897V67.6074C12.3569 67.5701 12.3714 67.5341 12.3974 67.5071C12.4235 67.4801 12.459 67.4641 12.4966 67.4625L114.554 64.1506C114.575 64.1482 114.597 64.1512 114.617 64.1595C114.637 64.1678 114.655 64.181 114.668 64.1979C114.682 64.2136 114.693 64.2321 114.699 64.2523C114.705 64.2725 114.706 64.2937 114.703 64.3145C114.703 64.3397 114.408 66.8354 114.325 67.9604C114.29 68.4267 114.198 68.7986 113.322 69.3406C112.884 69.6116 104.172 74.5463 95.7451 79.3139C88.0331 83.6814 80.0606 88.197 79.8162 88.3514C79.3367 88.6665 78.5462 88.9596 76.0252 89.0289H76.0093ZM12.649 67.7492V69.9897C12.649 70.5601 13.4999 71.0863 13.9762 71.2218L15.1763 71.5716C52.3619 82.4777 74.5139 88.739 76.003 88.739C78.4509 88.6697 79.2002 88.3955 79.6447 88.1088C79.8955 87.9481 87.5187 83.631 95.5864 79.065C104.01 74.2942 112.731 69.3626 113.154 69.0948C113.973 68.5874 113.995 68.2881 114.02 67.9415C114.09 66.9961 114.316 65.0298 114.382 64.4468L12.649 67.7492Z" fill="#D1D3D4"/>
<path id="Vector_3" d="M46.99 52.2267L13.1286 66.9678C12.4047 67.2829 12.5222 68.1148 13.316 68.3007L75.0411 83.9493C76.4614 84.2849 77.9561 84.0979 79.248 83.423L114.135 65.0172C114.808 64.6548 114.605 63.8481 113.817 63.7063L47.6568 52.1385C47.4306 52.1049 47.1994 52.1355 46.99 52.2267Z" fill="white"/>
<path id="Vector_4" d="M76.4632 84.2613C75.9724 84.261 75.4833 84.2039 75.0059 84.0911L13.2807 68.4425C13.0861 68.4093 12.9067 68.3168 12.7673 68.1779C12.6279 68.0391 12.5355 67.8606 12.5028 67.6673C12.4945 67.4868 12.545 67.3084 12.6468 67.1586C12.7486 67.0088 12.8963 66.8955 13.068 66.8354L46.9262 52.0818C47.164 51.9796 47.427 51.95 47.6818 51.9967L113.83 63.5708C114.032 63.589 114.222 63.6707 114.374 63.8038C114.526 63.937 114.631 64.1148 114.674 64.3114C114.696 64.4821 114.662 64.6552 114.578 64.8055C114.493 64.9557 114.362 65.0752 114.204 65.1464L79.3144 83.5649C78.4363 84.0265 77.4569 84.2657 76.4632 84.2613ZM47.4469 52.2645C47.3078 52.2633 47.1702 52.2924 47.0437 52.3496L13.1855 67.1001C13.0703 67.1367 12.97 67.2092 12.8997 67.3069C12.8293 67.4045 12.7926 67.5221 12.7949 67.6421C12.8182 67.7769 12.885 67.9005 12.9852 67.9942C13.0854 68.088 13.2137 68.1469 13.3506 68.1621L75.0757 83.8106C76.4595 84.1414 77.9172 83.9622 79.1778 83.3065L114.065 64.9006C114.168 64.8556 114.253 64.7796 114.31 64.6835C114.367 64.5874 114.392 64.476 114.382 64.3649C114.345 64.2292 114.266 64.1082 114.157 64.0181C114.048 63.9279 113.914 63.873 113.773 63.8607L47.6247 52.2834C47.5662 52.2712 47.5066 52.2648 47.4469 52.2645Z" fill="#D1D3D4"/>
<path id="Vector_5" d="M106.766 64.7368L75.6348 80.7194L22.0186 68.0013L49.6665 55.2108L106.766 64.7368Z" fill="white"/>
<path id="Vector_6" d="M75.6349 80.8643H75.6L21.9838 68.14C21.9541 68.1334 21.9274 68.1176 21.9074 68.095C21.8875 68.0723 21.8753 68.0439 21.8726 68.0139C21.87 67.9839 21.8768 67.9538 21.8922 67.9279C21.9075 67.9019 21.9307 67.8813 21.9584 67.869L49.6063 55.0785C49.6343 55.0707 49.6639 55.0707 49.692 55.0785L106.791 64.6075C106.822 64.612 106.85 64.626 106.871 64.6476C106.893 64.6691 106.907 64.6971 106.912 64.7273C106.917 64.7572 106.912 64.7879 106.898 64.8151C106.885 64.8422 106.863 64.8644 106.836 64.8785L75.7016 80.8611C75.6798 80.8665 75.6571 80.8676 75.6349 80.8643ZM22.46 67.9446L75.6159 80.5492L106.312 64.7935L49.6888 55.34L22.46 67.9446Z" fill="#D1D3D4"/>
<path id="Vector_7" d="M72.536 17.6744C72.3963 17.5862 72.1836 17.5074 72.0884 17.6398C71.9931 17.7721 72.0884 17.9076 72.1804 18.0147C72.6151 18.5601 73.0975 19.0662 73.6219 19.5273C73.6913 19.6065 73.7895 19.6552 73.8949 19.6628C74.06 19.6628 74.1489 19.4485 74.1267 19.2815C74.0156 18.4748 73.171 18.0904 72.536 17.6744Z" fill="white"/>
<path id="Vector_8" d="M73.8819 19.8046C73.746 19.7945 73.6189 19.7337 73.5263 19.6344C72.994 19.1686 72.5052 18.6561 72.0658 18.103C71.8531 17.8383 71.8975 17.6587 71.9706 17.5578C72.0976 17.3845 72.3484 17.3814 72.6056 17.5578L72.9072 17.7501C73.4946 18.1093 74.1581 18.5158 74.2597 19.2658C74.2696 19.3379 74.2648 19.4113 74.2457 19.4817C74.2266 19.552 74.1936 19.6179 74.1486 19.6754C74.117 19.7136 74.0779 19.745 74.0337 19.7677C73.9895 19.7905 73.9411 19.8041 73.8914 19.8078L73.8819 19.8046ZM72.2404 17.7122C72.2292 17.7081 72.2168 17.7081 72.2055 17.7122C72.2055 17.7343 72.2055 17.8131 72.2944 17.9139C72.7227 18.4529 73.1987 18.9528 73.7168 19.4076C73.7635 19.4539 73.8215 19.4876 73.8851 19.5052C73.8851 19.5052 73.9105 19.5052 73.9359 19.4769C73.9737 19.4215 73.9895 19.3541 73.9803 19.2878C73.8978 18.6733 73.3231 18.3204 72.7643 17.9769L72.4468 17.7847C72.3854 17.7434 72.3144 17.7184 72.2404 17.7122Z" fill="#148532"/>
<path id="Vector_9" d="M77.8984 22.9715L77.0602 22.064C77.0602 22.064 77.0951 20.7846 76.9268 20.5168C76.7586 20.2489 73.8312 18.3425 73.8566 18.4149C73.882 18.4874 74.0503 20.9043 74.0503 20.9043L77.1681 24.6857L77.8984 22.9715Z" fill="white"/>
<path id="Vector_10" d="M77.1683 24.8118C77.147 24.8114 77.126 24.8065 77.1068 24.7972C77.0876 24.788 77.0706 24.7746 77.0572 24.7582L73.9393 20.9768C73.9205 20.9534 73.9094 20.9248 73.9076 20.8949C73.8409 19.9496 73.7361 18.5378 73.7171 18.4276C73.7059 18.3954 73.708 18.3601 73.7228 18.3294C73.7377 18.2987 73.7641 18.2751 73.7965 18.2637C73.879 18.2259 73.9171 18.207 75.4284 19.209C76.4158 19.8739 76.9619 20.2773 77.0477 20.4128C77.2191 20.6806 77.2128 21.6732 77.2064 21.9883L78.0065 22.8518C78.0252 22.8724 78.0375 22.8979 78.042 22.9253C78.0465 22.9526 78.043 22.9807 78.0319 23.0062L77.3017 24.7078C77.2923 24.7307 77.2771 24.7508 77.2577 24.7662C77.2382 24.7817 77.2151 24.7919 77.1905 24.796L77.1683 24.8118ZM74.1933 20.8413L77.1302 24.3927L77.7303 22.9936L76.9524 22.1554C76.9274 22.1277 76.9138 22.0917 76.9143 22.0545C76.9302 21.5409 76.9143 20.7468 76.8032 20.5892C76.6921 20.4317 74.7077 19.083 74.0282 18.667C74.0568 18.9758 74.1044 19.5903 74.1933 20.8476V20.8413Z" fill="#148532"/>
<path id="Vector_11" d="M84.8391 20.9044L81.9816 26.5764L78.07 22.2562L76.165 25.1584C76.165 25.1584 82.8611 34.3913 84.3216 33.6665C85.7821 32.9417 88.5825 26.2708 88.5825 26.2708L84.8391 20.9044Z" fill="#148532"/>
<path id="Vector_12" d="M89.8743 41.7649L82.8893 62.7074C82.8893 62.7074 76.0186 61.7873 75.9234 61.5037C75.8281 61.2201 80.2477 60.2023 80.2477 60.2023L85.8453 39.9971" fill="white"/>
<path id="Vector_13" d="M82.902 62.865H82.8671C75.8821 61.9196 75.8123 61.6707 75.7742 61.5573C75.7601 61.5056 75.7658 61.4506 75.79 61.4029C75.971 61.0877 78.5396 60.4418 80.1207 60.0731L85.6928 39.9562C85.7042 39.9144 85.7318 39.8788 85.7697 39.8572C85.8075 39.8356 85.8524 39.8299 85.8945 39.8412C85.9366 39.8524 85.9724 39.8799 85.9942 39.9174C86.0159 39.9549 86.0217 39.9995 86.0103 40.0413L80.4096 60.2464C80.4029 60.2739 80.3887 60.299 80.3685 60.319C80.3484 60.339 80.323 60.3531 80.2953 60.3598C78.9217 60.6516 77.5668 61.0241 76.2377 61.4753C77.114 61.7211 80.5335 62.2316 82.7877 62.5373L89.7219 41.7177C89.735 41.678 89.7634 41.6451 89.8009 41.6262C89.8384 41.6073 89.882 41.6039 89.9219 41.6168C89.9614 41.6305 89.9941 41.6588 90.013 41.6958C90.0319 41.7328 90.0357 41.7756 90.0236 41.8153L83.0386 62.761C83.0279 62.7893 83.0095 62.8141 82.9854 62.8325C82.9612 62.8509 82.9323 62.8621 82.902 62.865Z" fill="#148532"/>
<path id="Vector_14" d="M97.4534 40.1893L98.9043 63.7504C98.9043 63.7504 92.0019 65.2378 91.9733 65.0613C91.9447 64.8848 95.6944 62.2253 95.6944 62.2253L92.875 40.4824" fill="white"/>
<path id="Vector_15" d="M92.0208 65.222C91.9747 65.2281 91.928 65.2193 91.8874 65.1968C91.8504 65.1693 91.8254 65.1287 91.8176 65.0834C91.8017 64.97 91.7795 64.8124 95.526 62.1654L92.7097 40.5013C92.707 40.4806 92.7085 40.4596 92.7139 40.4395C92.7194 40.4193 92.7288 40.4004 92.7417 40.3839C92.7545 40.3674 92.7705 40.3535 92.7887 40.3431C92.8069 40.3327 92.827 40.326 92.8479 40.3233C92.8687 40.3206 92.8899 40.322 92.9102 40.3274C92.9305 40.3329 92.9495 40.3422 92.9662 40.3549C92.9828 40.3677 92.9968 40.3835 93.0073 40.4016C93.0177 40.4197 93.0245 40.4397 93.0272 40.4604L95.8466 62.219C95.8498 62.2473 95.8452 62.276 95.8335 62.302C95.8218 62.328 95.8033 62.3505 95.78 62.3671C94.6782 63.1454 93.005 64.3586 92.3637 64.888C93.4368 64.7368 96.6086 64.0845 98.7327 63.6276L97.2881 40.1988C97.2864 40.1575 97.301 40.1172 97.3289 40.0866C97.3568 40.0559 97.3958 40.0374 97.4373 40.035C97.4581 40.0328 97.4791 40.0349 97.499 40.0411C97.519 40.0473 97.5374 40.0575 97.5532 40.0711C97.569 40.0847 97.5818 40.1014 97.5908 40.1201C97.5998 40.1388 97.6048 40.1592 97.6056 40.1799L99.0597 63.741C99.0628 63.7786 99.052 63.8161 99.0291 63.8462C99.0063 63.8764 98.9732 63.8973 98.9359 63.9049C93.6622 65.0456 92.3637 65.222 92.0208 65.222Z" fill="#148532"/>
<path id="Vector_16" d="M78.8035 60.1046L79.7338 61.5163L83.3724 61.9417L83.0136 63.325C83.0136 63.325 75.0031 62.3324 74.8189 61.6045C74.6348 60.8766 78.8035 60.1046 78.8035 60.1046Z" fill="#148532"/>
<path id="Vector_17" d="M88.2424 18.4401C88.2424 18.4401 85.7278 19.0357 84.969 20.5829C84.2102 22.1301 85.1182 30.4113 85.1182 30.4113L96.2847 30.8872C96.2847 30.8872 97.4277 24.7834 96.8689 22.1679C96.3101 19.5525 94.0749 16.0642 88.2424 18.4401Z" fill="#148532"/>
<path id="Vector_18" d="M88.2648 17.3026L88.3442 19.7164C88.3442 19.7164 88.6427 21.0556 90.1063 20.5861C90.5393 20.4449 90.935 20.2095 91.2646 19.8971C91.5942 19.5847 91.8493 19.2032 92.0113 18.7805L91.678 14.6084C91.4017 14.4666 91.1904 14.2253 91.0874 13.934C91.0021 13.7188 90.9538 13.4908 90.9445 13.2597C90.9445 13.1714 90.9446 12.6483 91.0271 12.6105C90.7523 12.7141 90.4562 12.7501 90.1643 12.7156C89.8724 12.681 89.5933 12.5768 89.3507 12.412C89.0879 12.2147 88.8557 11.98 88.6617 11.7156C88.5058 11.5624 88.4139 11.3565 88.4045 11.1389C87.9981 11.5339 87.6108 11.9467 87.2425 12.3773C87.0375 12.6057 86.8605 12.8575 86.7154 13.1273C86.5287 13.6306 86.4719 14.1723 86.5504 14.7029C86.5808 15.3121 86.6658 15.9174 86.8043 16.5116C87.0869 17.6303 88.2648 17.3026 88.2648 17.3026Z" fill="white"/>
<path id="Vector_19" d="M89.535 20.8287C89.3062 20.8325 89.0805 20.776 88.8809 20.6648C88.5473 20.4565 88.3083 20.1277 88.2142 19.7479L88.1348 17.4759C87.8205 17.5247 87.4987 17.4716 87.2172 17.3246C87.0756 17.2379 86.9535 17.1233 86.8584 16.9877C86.7634 16.8522 86.6975 16.6987 86.6648 16.5368C86.5232 15.9345 86.4371 15.3207 86.4076 14.7029C86.3269 14.1505 86.3881 13.5869 86.5854 13.0643C86.735 12.7838 86.9183 12.5225 87.1315 12.286C87.4998 11.8511 87.8935 11.432 88.3031 11.0255C88.3239 11.0049 88.3508 10.9914 88.3799 10.9868C88.409 10.9823 88.4388 10.987 88.465 11.0003C88.4921 11.0122 88.5148 11.0323 88.5296 11.0578C88.5444 11.0833 88.5507 11.1128 88.5475 11.1421C88.5637 11.3219 88.6449 11.4898 88.7761 11.6148C88.9611 11.869 89.1826 12.0951 89.4334 12.286C89.6571 12.4353 89.9134 12.5298 90.1811 12.5615C90.4488 12.5933 90.7203 12.5615 90.9732 12.4687C90.9909 12.4616 91.0099 12.4581 91.029 12.4584C91.048 12.4587 91.0669 12.4628 91.0843 12.4705C91.1018 12.4781 91.1175 12.4891 91.1306 12.5029C91.1437 12.5167 91.1539 12.5329 91.1606 12.5506C91.1724 12.5779 91.1751 12.6083 91.1682 12.6372C91.1614 12.6662 91.1453 12.6922 91.1225 12.7114C91.089 12.8868 91.0784 13.0658 91.0907 13.2439C91.0965 13.4599 91.1405 13.6733 91.2209 13.8741C91.3131 14.1292 91.496 14.3421 91.7352 14.4728C91.7598 14.4827 91.7811 14.4991 91.7968 14.5202C91.8125 14.5414 91.8219 14.5664 91.8241 14.5926L92.1416 18.7616C92.1463 18.7802 92.1463 18.7997 92.1416 18.8183C91.977 19.2608 91.7144 19.6609 91.3731 19.9893C91.0319 20.3176 90.6207 20.5657 90.17 20.7153C89.9658 20.7868 89.7514 20.8251 89.535 20.8287ZM88.4999 19.71C88.5378 19.8717 88.6119 20.0228 88.7168 20.1521C88.8217 20.2813 88.9546 20.3854 89.1057 20.4566C89.2568 20.5278 89.4221 20.5642 89.5893 20.5632C89.7565 20.5621 89.9214 20.5236 90.0715 20.4506C90.4757 20.3143 90.8453 20.0927 91.155 19.8012C91.4646 19.5096 91.707 19.1549 91.8654 18.7616L91.5479 14.7029C91.2777 14.5356 91.0711 14.284 90.9605 13.9876C90.8684 13.7564 90.8168 13.5113 90.8081 13.2628C90.797 13.1213 90.7959 12.9791 90.805 12.8374C90.5415 12.895 90.269 12.8985 90.0041 12.8475C89.7393 12.7966 89.4878 12.6923 89.2651 12.5412C88.9901 12.335 88.7473 12.0897 88.5444 11.8133C88.4475 11.7019 88.3683 11.5765 88.3094 11.4414C87.9771 11.7755 87.6596 12.1221 87.3569 12.4813C87.1592 12.6991 86.9896 12.9404 86.8521 13.1998C86.6755 13.677 86.6231 14.1907 86.6997 14.6934C86.7284 15.2943 86.8123 15.8913 86.9505 16.477C86.9739 16.6009 87.0229 16.7187 87.0945 16.8228C87.1661 16.927 87.2587 17.0152 87.3664 17.082C87.6379 17.2124 87.9467 17.2447 88.2396 17.1734C88.2606 17.1683 88.2825 17.1676 88.3038 17.1714C88.3251 17.1752 88.3454 17.1834 88.3634 17.1954C88.3808 17.209 88.3949 17.2262 88.4048 17.2458C88.4147 17.2654 88.4201 17.2869 88.4205 17.3089L88.5031 19.7195L88.4999 19.71Z" fill="#148532"/>
<path id="Vector_20" d="M90.8047 14.435C90.8345 14.2549 90.9239 14.0897 91.0587 13.9655C91.1885 13.854 91.3367 13.7655 91.4968 13.704C91.5805 13.6613 91.6727 13.6376 91.7667 13.6346C91.8321 13.6403 91.8957 13.6584 91.954 13.6882C92.1033 13.7468 92.2247 13.8594 92.2938 14.0033C92.3371 14.1201 92.3523 14.2452 92.3382 14.3689C92.331 14.5045 92.3075 14.6389 92.2684 14.7691C92.1769 15.0272 91.9863 15.2391 91.7381 15.3583C91.4893 15.4746 91.2047 15.4904 90.9444 15.4024" fill="white"/>
<path id="Vector_21" d="M91.2873 15.5726C91.1554 15.5724 91.0244 15.55 90.9 15.5064C90.869 15.4944 90.8438 15.471 90.8297 15.4411C90.8155 15.4112 90.8134 15.3771 90.8238 15.3457C90.8353 15.3144 90.8587 15.289 90.8891 15.2748C90.9194 15.2606 90.9541 15.2589 90.9857 15.2701C91.2134 15.3493 91.4635 15.3357 91.681 15.2323C91.8952 15.1297 92.0612 14.9491 92.1446 14.7281C92.1824 14.6086 92.2037 14.4846 92.2081 14.3594C92.2224 14.2531 92.2104 14.145 92.1732 14.0443C92.1129 13.9355 92.0164 13.8508 91.9001 13.8048C91.8561 13.7809 91.8073 13.767 91.7572 13.7638C91.6831 13.7679 91.6107 13.7872 91.5445 13.8206C91.397 13.8764 91.2606 13.9574 91.1413 14.06C91.0263 14.1658 90.9503 14.3067 90.9254 14.4602C90.9159 14.4889 90.8964 14.5132 90.8705 14.5288C90.8445 14.5444 90.8138 14.5502 90.7839 14.5452C90.7539 14.5403 90.7268 14.5249 90.7073 14.5018C90.6878 14.4787 90.6774 14.4494 90.6777 14.4193C90.7116 14.2114 90.8144 14.0206 90.9698 13.8773C91.1091 13.7553 91.2693 13.6592 91.4429 13.5937C91.5411 13.5428 91.6497 13.5148 91.7604 13.5117C91.8435 13.5173 91.9246 13.5398 91.9985 13.5779C92.1681 13.6482 92.3075 13.7753 92.3922 13.9372C92.4452 14.0724 92.4637 14.2185 92.4462 14.3626C92.4412 14.5093 92.4156 14.6546 92.37 14.7943C92.2932 15.0219 92.1459 15.2197 91.9493 15.3594C91.7526 15.4992 91.5165 15.5738 91.2746 15.5726H91.2873Z" fill="#148532"/>
<path id="Vector_22" d="M88.3345 18.4874C88.9304 18.4719 89.4979 18.2319 89.922 17.8162C90.0953 17.642 90.2287 17.4328 90.3131 17.2027C90.3975 16.9727 90.4309 16.7273 90.411 16.4833C90.411 16.4833 89.2552 17.4286 88.2646 17.3026L88.3345 18.4874Z" fill="#148532"/>
<path id="Vector_23" d="M88.3347 18.6261C88.3167 18.6265 88.2989 18.6234 88.2822 18.617C88.2654 18.6105 88.2502 18.6009 88.2372 18.5886C88.2242 18.5763 88.2138 18.5616 88.2066 18.5453C88.1993 18.529 88.1954 18.5115 88.195 18.4937L88.1346 17.3089C88.1331 17.2888 88.1364 17.2687 88.1441 17.2501C88.1518 17.2315 88.1638 17.2149 88.1791 17.2017C88.1937 17.1878 88.2113 17.1772 88.2305 17.1707C88.2496 17.1642 88.27 17.1618 88.2902 17.1639C89.2141 17.2805 90.319 16.3856 90.3317 16.3761C90.3506 16.361 90.3731 16.351 90.3971 16.3472C90.421 16.3433 90.4455 16.3457 90.4683 16.3541C90.4907 16.3626 90.5106 16.3766 90.5261 16.3948C90.5417 16.413 90.5523 16.4347 90.5572 16.4581C90.5824 16.7228 90.5489 16.9898 90.4589 17.2402C90.369 17.4907 90.2248 17.7185 90.0365 17.9076C89.5847 18.3573 88.9744 18.615 88.3347 18.6261ZM88.4204 17.4507L88.468 18.3393C88.9829 18.2994 89.4657 18.0755 89.8269 17.7091C90.0781 17.4437 90.2382 17.1061 90.2841 16.7448C89.7524 17.1426 89.1187 17.3839 88.4553 17.4412L88.4204 17.4507Z" fill="#148532"/>
<path id="Vector_24" d="M88.4044 13.7513C88.4044 13.7513 87.6709 14.9392 87.8646 15.1346C88.0583 15.33 88.5726 15.1756 88.5726 15.1756" fill="white"/>
<path id="Vector_25" d="M88.1888 15.3583C88.0342 15.3693 87.8814 15.3195 87.7634 15.2197C87.5411 14.9928 87.9253 14.2491 88.2873 13.6662C88.2967 13.6503 88.3093 13.6365 88.3242 13.6255C88.3391 13.6145 88.3561 13.6066 88.3741 13.6022C88.3921 13.5978 88.4109 13.597 88.4292 13.5999C88.4476 13.6027 88.4651 13.6092 88.4809 13.6189C88.512 13.639 88.5341 13.6702 88.5424 13.7061C88.5506 13.742 88.5446 13.7796 88.5254 13.8111C88.2079 14.3468 87.938 14.9203 87.9729 15.0369C88.0555 15.1125 88.3571 15.081 88.5317 15.0369C88.5495 15.0316 88.5681 15.0299 88.5865 15.0317C88.6049 15.0336 88.6227 15.0391 88.639 15.0479C88.6552 15.0567 88.6695 15.0686 88.6811 15.083C88.6927 15.0973 88.7013 15.1138 88.7064 15.1315C88.7173 15.1666 88.7137 15.2045 88.6965 15.237C88.6792 15.2695 88.6496 15.2939 88.6143 15.3048C88.4754 15.3408 88.3324 15.3588 88.1888 15.3583Z" fill="#148532"/>
<path id="Vector_26" d="M89.8961 13.7926C89.9222 13.6452 89.858 13.5107 89.7527 13.4923C89.6473 13.4739 89.5407 13.5785 89.5146 13.7259C89.4885 13.8733 89.5527 14.0077 89.658 14.0261C89.7634 14.0445 89.87 13.94 89.8961 13.7926Z" fill="#148532"/>
<path id="Vector_27" d="M87.5196 14.1537C87.5458 14.0063 87.4816 13.8719 87.3762 13.8535C87.2709 13.8351 87.1643 13.9396 87.1381 14.087C87.112 14.2345 87.1762 14.3689 87.2816 14.3873C87.3869 14.4057 87.4935 14.3011 87.5196 14.1537Z" fill="#148532"/>
<path id="Vector_28" d="M87.6519 15.7932C87.6519 15.7932 88.3948 16.7952 89.5886 15.7554L87.6519 15.7932Z" fill="white"/>
<path id="Vector_29" d="M88.5378 16.3667H88.4045C88.0632 16.3223 87.7525 16.1484 87.5377 15.8814C87.5163 15.8512 87.5076 15.8138 87.5135 15.7773C87.5195 15.7408 87.5395 15.7081 87.5694 15.686C87.5998 15.6652 87.637 15.6566 87.6735 15.6618C87.71 15.6671 87.7431 15.6859 87.7663 15.7144C87.934 15.9204 88.1749 16.0546 88.4394 16.0894C88.636 16.0934 88.8314 16.0571 89.0133 15.9828C89.1952 15.9085 89.3598 15.7979 89.4967 15.6577C89.5228 15.6319 89.5582 15.6174 89.5951 15.6174C89.632 15.6174 89.6673 15.6319 89.6935 15.6577C89.7197 15.6842 89.7343 15.7198 89.7343 15.7569C89.7343 15.7941 89.7197 15.8297 89.6935 15.8562C89.3845 16.1615 88.9731 16.3432 88.5378 16.3667Z" fill="#148532"/>
<path id="Vector_30" d="M95.1576 30.7989C95.1576 30.7989 97.8532 33.7736 98.6025 37.054C100.19 43.955 99.7423 57.4135 99.7423 57.4135L79.5811 54.0323L84.6293 30.2506L95.1576 30.7989Z" fill="#148532"/>
<path id="Vector_31" d="M99.5489 64.0687L99.3393 62.6476L95.1198 63.804L94.2974 62.7263C94.2974 62.7263 91.2113 64.951 91.6304 65.43C92.0495 65.909 96.6247 65.0361 99.5489 64.0687Z" fill="#148532"/>
<path id="Vector_32" d="M97.1548 37.243C97.2056 37.388 97.6914 38.4625 97.6183 39.2251C97.5453 39.9877 97.2151 41.5443 97.4342 41.579C97.6533 41.6137 98.1295 41.6546 98.2756 39.9121C98.2756 39.9121 98.5931 43.3563 99.0788 42.6315C99.5646 41.9067 98.9328 40.057 98.9328 40.057C98.9328 40.057 99.4821 42.559 99.8091 42.3794C100.136 42.1998 99.663 40.0223 99.663 40.0223C99.663 40.0223 100.028 42.4141 100.431 42.162C100.835 41.9099 100.393 39.8049 100.393 39.8049C100.393 39.8049 100.711 42.559 101.162 42.0517C101.612 41.5443 100.285 36.6947 100.285 36.6947" fill="white"/>
<path id="Vector_33" d="M98.9548 42.8773H98.8977C98.5802 42.8016 98.3865 41.8721 98.2627 40.9614C98.2108 41.2157 98.081 41.4479 97.8912 41.6263C97.8257 41.6762 97.75 41.7114 97.6694 41.7294C97.5888 41.7473 97.5052 41.7476 97.4245 41.7303C97.1514 41.683 97.1895 41.2796 97.3737 40.0444C97.4213 39.7293 97.4658 39.4394 97.4848 39.2156C97.5451 38.5854 97.1895 37.6999 97.0721 37.4069C97.053 37.3533 97.0371 37.3155 97.0308 37.2934C97.0187 37.2571 97.0216 37.2175 97.0389 37.1832C97.0561 37.149 97.0863 37.1229 97.1229 37.1107C97.1408 37.1048 97.1597 37.1025 97.1785 37.1039C97.1974 37.1053 97.2157 37.1104 97.2326 37.1189C97.2494 37.1274 97.2643 37.1391 97.2766 37.1534C97.2888 37.1677 97.2981 37.1842 97.3038 37.2021C97.3038 37.221 97.3261 37.2556 97.3419 37.2997C97.4785 37.6432 97.8404 38.5602 97.7737 39.244C97.7515 39.474 97.7071 39.7734 97.6626 40.0854C97.5747 40.5361 97.529 40.9939 97.5261 41.453C97.5593 41.4571 97.5931 41.4544 97.6253 41.4452C97.6575 41.436 97.6875 41.4204 97.7134 41.3994C97.8626 41.2828 98.0563 40.933 98.142 39.9057C98.146 39.8701 98.1631 39.8372 98.19 39.8133C98.217 39.7894 98.252 39.7763 98.2881 39.7765C98.3239 39.7764 98.3584 39.7896 98.3849 39.8135C98.4113 39.8375 98.4278 39.8704 98.431 39.9057C98.5421 41.0559 98.7739 42.3573 98.958 42.5779C98.9571 42.5716 98.9571 42.5653 98.958 42.559C99.1612 42.2439 99.1326 41.6578 99.0406 41.1126C98.9358 40.7282 98.8469 40.3469 98.7897 40.0948C98.7827 40.0586 98.7896 40.0211 98.809 39.9896C98.8283 39.9581 98.8588 39.935 98.8945 39.9247C98.9303 39.9148 98.9685 39.9192 99.0011 39.9368C99.0337 39.9545 99.0581 39.984 99.0691 40.0192C99.1767 40.3503 99.2616 40.6882 99.3231 41.0307C99.4165 41.4429 99.5638 41.8412 99.7613 42.2155C99.8015 41.7943 99.7779 41.3694 99.6914 40.9551C99.6121 40.6053 99.5549 40.2618 99.52 40.0349C99.5168 40.0165 99.5173 39.9977 99.5215 39.9794C99.5257 39.9612 99.5335 39.944 99.5444 39.9288C99.5553 39.9135 99.5692 39.9006 99.5851 39.8907C99.6011 39.8808 99.6189 39.8741 99.6375 39.8711C99.6744 39.8645 99.7125 39.8722 99.7439 39.8928C99.7752 39.9133 99.7974 39.945 99.8057 39.9814C99.8724 40.2965 99.9359 40.6116 99.9835 40.9267C100.041 41.3109 100.172 41.6808 100.368 42.017C100.463 41.9193 100.479 41.4939 100.425 40.9362C100.345 40.5454 100.288 40.1358 100.25 39.8112C100.249 39.776 100.261 39.7415 100.283 39.7143C100.305 39.687 100.337 39.6687 100.372 39.6629C100.407 39.6571 100.443 39.6642 100.473 39.6828C100.503 39.7014 100.526 39.7302 100.536 39.7639C100.58 39.9877 100.666 40.4257 100.714 40.8795C100.754 41.2515 100.862 41.6133 101.031 41.9477C101.26 41.5727 100.752 39.0234 100.13 36.7136C100.12 36.6769 100.125 36.6378 100.144 36.6048C100.163 36.5718 100.194 36.5475 100.231 36.5372C100.269 36.5276 100.308 36.5332 100.342 36.5527C100.375 36.5722 100.399 36.604 100.409 36.6412C100.726 37.7976 101.708 41.6105 101.257 42.1368C101.224 42.1812 101.179 42.2148 101.127 42.2328C101.074 42.2509 101.018 42.2525 100.965 42.2376C100.863 42.2061 100.771 42.0863 100.688 41.9225C100.673 42.0642 100.602 42.1942 100.492 42.2849C100.456 42.308 100.414 42.3218 100.372 42.3251C100.329 42.3284 100.286 42.3211 100.247 42.3038C100.16 42.2509 100.089 42.1744 100.044 42.0832C100.022 42.2975 99.9677 42.4487 99.8629 42.5086C99.8317 42.5234 99.7975 42.5311 99.7629 42.5311C99.7283 42.5311 99.6941 42.5234 99.6629 42.5086C99.5269 42.4076 99.425 42.2681 99.3708 42.1084C99.3584 42.3201 99.2941 42.5257 99.1834 42.7071C99.1627 42.7522 99.1309 42.7914 99.091 42.8211C99.0511 42.8508 99.0042 42.8702 98.9548 42.8773Z" fill="#148532"/>
<path id="Vector_34" d="M96.2469 20.2962L101.933 36.5655L96.4564 38.0875C96.4564 38.0875 93.8974 26.1983 93.8243 25.1678C93.7513 24.1374 96.2469 20.2962 96.2469 20.2962Z" fill="#148532"/>
<path id="Vector_35" d="M96.5199 20.1008C96.4862 20.0997 96.4538 20.0875 96.4278 20.0661C96.4004 20.0419 96.3834 20.008 96.3804 19.9716C96.3775 19.9352 96.3888 19.8991 96.412 19.8708C96.9549 19.2405 96.8342 18.2952 96.4374 17.665C95.9522 16.9927 95.2672 16.4881 94.4784 16.2217C93.987 15.98 93.4359 15.8838 92.8909 15.9444C92.8608 15.9493 92.8299 15.9442 92.8029 15.93C92.776 15.9158 92.7544 15.8932 92.7417 15.8657C92.7283 15.8386 92.7242 15.808 92.7299 15.7785C92.7356 15.7489 92.7509 15.722 92.7734 15.7018C93.8148 14.7911 94.2815 13.4172 93.9386 12.286C93.7536 11.7689 93.4421 11.3056 93.032 10.9376C92.6219 10.5696 92.1261 10.3086 91.5891 10.1778C90.4887 9.92418 89.3364 10.0111 88.2871 10.4268C88.264 10.4358 88.2388 10.4385 88.2143 10.4346C88.1897 10.4307 88.1666 10.4204 88.1474 10.4047C87.8992 10.199 87.6079 10.0507 87.2948 9.97044C86.9817 9.8902 86.6545 9.88007 86.3369 9.94078C86.0194 10.0015 85.7194 10.1315 85.4587 10.3215C85.198 10.5114 84.9831 10.7565 84.8296 11.039C84.6761 11.3215 84.5879 11.6344 84.5712 11.9549C84.5545 12.2755 84.6099 12.5957 84.7333 12.8924C84.8566 13.1891 85.0449 13.4548 85.2845 13.6704C85.5241 13.886 85.809 14.046 86.1186 14.1388C86.1548 14.1498 86.1851 14.1745 86.203 14.2075C86.2208 14.2406 86.2247 14.2794 86.2139 14.3153C86.2022 14.3506 86.177 14.38 86.1438 14.3971C86.1105 14.4142 86.0719 14.4176 86.0361 14.4067C85.5693 14.2666 85.155 13.9918 84.8461 13.6173C84.5371 13.2428 84.3474 12.7855 84.3011 12.3037C84.2548 11.8219 84.354 11.3373 84.5861 10.9116C84.8181 10.4859 85.1726 10.1383 85.6043 9.91315C86.0252 9.70207 86.4971 9.61149 86.9671 9.65156C87.437 9.69163 87.8864 9.86077 88.2649 10.14C89.3483 9.72654 90.5318 9.6453 91.6622 9.90685C92.2455 10.048 92.7838 10.3323 93.2276 10.7337C93.6714 11.135 94.0065 11.6406 94.2022 12.204C94.5419 13.329 94.1545 14.6682 93.2497 15.6388C93.7126 15.6569 94.1676 15.7639 94.5895 15.9539C95.5833 16.3572 96.2691 16.8646 96.6787 17.5043C97.1327 18.2164 97.2629 19.3162 96.6342 20.0472C96.6204 20.0641 96.603 20.0776 96.5832 20.0869C96.5634 20.0962 96.5418 20.1009 96.5199 20.1008Z" fill="#148532"/>
<path id="Vector_36" d="M91.7575 13.6347C91.7575 13.6347 91.6273 10.4268 89.9097 9.91946C90.476 9.84886 91.0508 9.88847 91.6019 10.0361C91.6019 10.0361 92.7322 12.1284 91.7575 13.6347Z" fill="#148532"/>
<path id="Vector_37" d="M91.7572 13.7827H91.7191C91.6905 13.7747 91.6653 13.7579 91.647 13.7346C91.6287 13.7114 91.6184 13.683 91.6175 13.6536C91.6175 13.622 91.4715 10.5371 89.8713 10.0644C89.8409 10.0553 89.8144 10.0365 89.796 10.0108C89.7776 9.9851 89.7683 9.95408 89.7697 9.9226C89.7728 9.89045 89.7868 9.86027 89.8092 9.83687C89.8316 9.81346 89.8613 9.79816 89.8935 9.7934C90.4812 9.72095 91.0776 9.76269 91.6493 9.91629C91.682 9.92838 91.7091 9.95192 91.7255 9.98247C91.7731 10.0707 92.8748 12.1662 91.8747 13.7229C91.8614 13.7415 91.8438 13.7567 91.8233 13.7671C91.8029 13.7775 91.7802 13.7829 91.7572 13.7827ZM90.4491 10.0329C91.4365 10.7104 91.7509 12.3175 91.8525 13.1368C92.3033 11.9047 91.6429 10.4425 91.5032 10.1589C91.1624 10.0638 90.8095 10.0181 90.4555 10.0234L90.4491 10.0329Z" fill="#148532"/>
<path id="Vector_38" d="M84.7721 29.8158H84.7403C84.7224 29.8117 84.7054 29.8041 84.6904 29.7935C84.6754 29.7829 84.6627 29.7694 84.6529 29.7539C84.6432 29.7384 84.6367 29.7211 84.6337 29.7031C84.6307 29.685 84.6313 29.6666 84.6356 29.6488L86.4612 21.7457C86.4653 21.7279 86.4729 21.711 86.4836 21.6961C86.4943 21.6813 86.5079 21.6686 86.5235 21.659C86.5392 21.6493 86.5566 21.6428 86.5748 21.6398C86.593 21.6369 86.6115 21.6375 86.6295 21.6417C86.6659 21.65 86.6976 21.6721 86.7178 21.7034C86.738 21.7346 86.745 21.7724 86.7374 21.8087L84.9086 29.7118C84.9008 29.7418 84.8832 29.7683 84.8584 29.7871C84.8337 29.806 84.8033 29.8161 84.7721 29.8158Z" fill="#148532"/>
<path id="Vector_39" d="M94.8242 30.4838C94.7918 30.4839 94.7603 30.473 94.7349 30.453C94.7095 30.433 94.6917 30.4049 94.6845 30.3735L93.078 22.4453C93.0743 22.4272 93.0743 22.4087 93.0779 22.3907C93.0815 22.3726 93.0887 22.3555 93.099 22.3402C93.1093 22.325 93.1226 22.3119 93.1381 22.3018C93.1536 22.2917 93.1709 22.2848 93.1891 22.2814C93.2073 22.2777 93.226 22.2777 93.2441 22.2813C93.2623 22.2849 93.2796 22.292 93.2949 22.3023C93.3103 22.3125 93.3234 22.3257 93.3336 22.3411C93.3438 22.3564 93.3508 22.3736 93.3542 22.3917L94.9608 30.3168C94.9684 30.3531 94.9613 30.391 94.9411 30.4222C94.9209 30.4534 94.8892 30.4755 94.8528 30.4838H94.8242Z" fill="#148532"/>
<path id="Vector_40" d="M83.331 27.9062C83.3121 27.9069 83.2933 27.9036 83.2758 27.8966C83.2583 27.8895 83.2425 27.8788 83.2294 27.8652L77.9684 22.3539C77.9557 22.3406 77.9458 22.325 77.9391 22.308C77.9325 22.2909 77.9293 22.2727 77.9297 22.2544C77.9302 22.2361 77.9342 22.2181 77.9417 22.2014C77.9492 22.1847 77.9599 22.1696 77.9732 22.1569C77.9866 22.1443 78.0023 22.1344 78.0195 22.1278C78.0367 22.1212 78.055 22.1181 78.0734 22.1185C78.0918 22.1189 78.11 22.123 78.1269 22.1304C78.1437 22.1378 78.1589 22.1484 78.1716 22.1617L83.4326 27.673C83.4459 27.6857 83.4564 27.7008 83.4636 27.7176C83.4708 27.7344 83.4745 27.7525 83.4745 27.7707C83.4745 27.7889 83.4708 27.807 83.4636 27.8238C83.4564 27.8406 83.4459 27.8557 83.4326 27.8684C83.4193 27.8814 83.4034 27.8915 83.3859 27.898C83.3684 27.9045 83.3497 27.9073 83.331 27.9062Z" fill="#148532"/>
<path id="Vector_41" d="M77.0315 21.6795H74.0089L70.98 15.1787H73.9994L77.0315 21.6795Z" fill="#148532"/>
<path id="Vector_42" d="M77.0604 22.064C77.0604 22.064 77.1684 20.3056 77.0604 20.1733C76.9525 20.0409 75.9492 18.8498 75.8571 19.105C75.8137 19.5106 75.8898 19.92 76.0762 20.2836C76.2222 20.5357 76.6794 21.2289 76.6794 21.2289" fill="white"/>
<path id="Vector_43" d="M77.0603 22.2089C77.0219 22.2057 76.9862 22.1878 76.9607 22.159C76.9352 22.1302 76.922 22.0928 76.9238 22.0545C76.9796 21.4458 76.9902 20.8339 76.9555 20.2237C76.675 19.8617 76.3556 19.5309 76.003 19.2374C76.0095 19.5652 76.0875 19.8877 76.2316 20.1827C76.3713 20.4285 76.8222 21.1092 76.8285 21.1281C76.8392 21.1437 76.8465 21.1614 76.8502 21.1799C76.8539 21.1984 76.8538 21.2175 76.85 21.236C76.8461 21.2545 76.8386 21.272 76.8278 21.2876C76.8171 21.3031 76.8033 21.3164 76.7873 21.3266C76.7547 21.3472 76.7152 21.3545 76.6773 21.3469C76.6394 21.3392 76.606 21.3173 76.5841 21.2856C76.5841 21.2573 76.1237 20.5892 75.9776 20.3403C75.8316 20.0914 75.6347 19.3634 75.749 19.042C75.7609 19.0074 75.7824 18.9769 75.8111 18.9541C75.8397 18.9312 75.8744 18.9169 75.911 18.9128C76.2634 18.8719 77.2064 20.0725 77.2127 20.0851C77.2889 20.2079 77.2921 20.876 77.2127 22.0734C77.2119 22.0923 77.2073 22.1109 77.1992 22.128C77.191 22.1451 77.1795 22.1604 77.1653 22.1731C77.1511 22.1857 77.1345 22.1954 77.1165 22.2015C77.0984 22.2077 77.0793 22.2102 77.0603 22.2089Z" fill="#148532"/>
<path id="Vector_44" d="M72.7769 19.4548C72.793 19.3538 72.8386 19.2596 72.908 19.184C72.9774 19.1084 73.0676 19.0546 73.1675 19.0294C73.271 19.0215 73.375 19.0389 73.4702 19.0801C73.5654 19.1213 73.649 19.185 73.7136 19.2657C74.0755 19.6439 74.447 20.7657 73.7675 21.0367C73.0881 21.3077 72.6817 19.9306 72.7769 19.4548Z" fill="white"/>
<path id="Vector_45" d="M73.5771 21.2163C73.4283 21.2151 73.2849 21.1603 73.1739 21.0619C72.7484 20.7153 72.5548 19.8298 72.6373 19.4233C72.6579 19.2938 72.7169 19.1734 72.8068 19.0774C72.8968 18.9814 73.0135 18.9142 73.1421 18.8845C73.2695 18.871 73.3983 18.8897 73.5165 18.9387C73.6347 18.9877 73.7385 19.0655 73.8184 19.1649C73.9914 19.3643 74.1206 19.5973 74.1977 19.8491C74.2748 20.1009 74.2981 20.3658 74.2661 20.627C74.2453 20.7473 74.1934 20.8602 74.1154 20.9547C74.0375 21.0491 73.9363 21.1219 73.8216 21.1659C73.7443 21.1986 73.6612 21.2157 73.5771 21.2163ZM73.2374 19.1649H73.1929C73.1222 19.1866 73.059 19.2277 73.0107 19.2834C72.9624 19.3392 72.9309 19.4073 72.9199 19.48C72.8981 19.7244 72.9257 19.9707 73.0009 20.2044C73.0761 20.4382 73.1975 20.6547 73.358 20.8413C73.4042 20.8859 73.4629 20.9155 73.5264 20.9262C73.5899 20.9369 73.6552 20.9282 73.7136 20.9012C73.7842 20.8739 73.8462 20.8287 73.8936 20.77C73.941 20.7114 73.972 20.6414 73.9835 20.5672C74.005 20.3516 73.9826 20.134 73.9177 19.9272C73.8528 19.7205 73.7467 19.5287 73.6057 19.3634C73.5119 19.2543 73.3807 19.1836 73.2374 19.1649Z" fill="#148532"/>
<path id="Vector_46" d="M84.1371 20.3718C84.1127 20.3717 84.0886 20.3653 84.0675 20.3531C84.0463 20.341 84.0287 20.3235 84.0165 20.3025C83.7847 19.9008 83.6485 19.452 83.6183 18.9901C83.588 18.5283 83.6645 18.0657 83.8418 17.6376C84.0192 17.2096 84.2927 16.8274 84.6416 16.5203C84.9905 16.2132 85.4054 15.9893 85.8548 15.8657C85.891 15.8567 85.9292 15.8619 85.9617 15.8801C85.9941 15.8982 86.0184 15.928 86.0294 15.9633C86.0384 15.9992 86.0332 16.0372 86.0149 16.0694C85.9966 16.1016 85.9666 16.1257 85.931 16.1366C85.5231 16.2489 85.1464 16.4521 84.8295 16.7307C84.5127 17.0093 84.2641 17.356 84.1028 17.7444C83.9414 18.1328 83.8715 18.5526 83.8983 18.9719C83.9252 19.3912 84.0481 19.7988 84.2578 20.1638C84.27 20.1849 84.2765 20.2087 84.2765 20.2331C84.2765 20.2574 84.2701 20.2812 84.2579 20.3023C84.2456 20.3234 84.2281 20.3409 84.2069 20.3531C84.1857 20.3653 84.1616 20.3717 84.1371 20.3718Z" fill="#148532"/>
<path id="Vector_47" d="M84.9376 35.5635C84.9176 35.5667 84.8972 35.5667 84.8773 35.5635C84.8579 35.5559 84.8402 35.5445 84.8254 35.53C84.8105 35.5155 84.7987 35.4982 84.7907 35.4791C84.7827 35.4599 84.7787 35.4394 84.7788 35.4188C84.779 35.3981 84.7833 35.3776 84.7916 35.3586L86.5442 31.1991C86.5579 31.1666 86.5823 31.1396 86.6134 31.1224C86.6445 31.1053 86.6805 31.099 86.7156 31.1046C86.7508 31.1107 86.783 31.1283 86.8072 31.1545C86.8313 31.1807 86.846 31.2141 86.849 31.2495L87.0426 33.7704C87.0444 33.791 87.0419 33.8117 87.0355 33.8313C87.029 33.8508 87.0187 33.869 87.0051 33.8845C86.9915 33.9001 86.9749 33.9128 86.9562 33.9219C86.9376 33.931 86.9173 33.9363 86.8966 33.9375C86.855 33.9401 86.814 33.9263 86.7825 33.8992C86.751 33.8721 86.7316 33.8338 86.7283 33.7925L86.5823 31.927L85.09 35.4658C85.0773 35.4953 85.056 35.5204 85.0289 35.5378C85.0017 35.5552 84.9699 35.5641 84.9376 35.5635Z" fill="white"/>
<path id="Vector_48" d="M74.1299 35.9133C74.1299 35.9133 74.4982 27.4367 74.6601 27.3075C74.822 27.1783 80.3053 27.9094 80.3053 27.9094L79.0924 35.9983L74.1299 35.9133Z" fill="#148532"/>
<path id="Vector_49" d="M65.3411 73.79C65.3411 73.79 65.2459 75.7752 66.0904 76.1281C67.9954 76.9254 74.6026 73.2385 73.7707 72.2459C72.9389 71.2533 70.7481 71.8331 70.7481 71.8331" fill="white"/>
<path id="Vector_50" d="M66.7384 76.3897C66.496 76.3976 66.2543 76.358 66.0273 76.2731C65.1097 75.8886 65.1732 73.9948 65.1827 73.7805C65.1831 73.7598 65.1877 73.7394 65.1963 73.7206C65.205 73.7017 65.2174 73.6848 65.2329 73.6709C65.2484 73.6571 65.2666 73.6465 65.2863 73.6399C65.3061 73.6332 65.327 73.6307 65.3478 73.6324C65.3687 73.6332 65.3891 73.6381 65.4081 73.6468C65.427 73.6555 65.4441 73.6678 65.4582 73.683C65.4724 73.6982 65.4834 73.7161 65.4906 73.7355C65.4978 73.7549 65.5011 73.7756 65.5002 73.7963C65.4748 74.3194 65.5447 75.7279 66.1352 75.9832C67.6497 76.6134 72.4852 74.1933 73.5012 72.8131C73.6123 72.6619 73.7266 72.4602 73.6314 72.3468C72.8757 71.4455 70.7929 71.9812 70.7739 71.9875C70.7318 71.9984 70.687 71.9922 70.6495 71.9704C70.612 71.9485 70.5848 71.9127 70.5738 71.8709C70.5629 71.8292 70.5691 71.7848 70.5912 71.7475C70.6132 71.7103 70.6492 71.6833 70.6913 71.6724C70.7866 71.6472 72.99 71.08 73.8663 72.1356C73.9933 72.2869 74.0727 72.5547 73.7457 72.9896C72.7995 74.3036 68.8022 76.3897 66.7384 76.3897Z" fill="#148532"/>
<path id="Vector_51" d="M55.6926 72.0285C55.6926 72.0285 54.6385 75.3309 56.3022 75.4412C58.9597 75.6145 64.7318 72.0537 63.2332 71.1462C61.7346 70.2386 57.6039 71.2029 57.6039 71.2029" fill="white"/>
<path id="Vector_52" d="M56.5149 75.605C56.4419 75.605 56.372 75.605 56.3022 75.605C56.142 75.6007 55.9852 75.5585 55.8449 75.4817C55.7046 75.405 55.5849 75.296 55.4957 75.1639C54.8607 74.2185 55.5243 72.0789 55.5529 71.9875C55.5659 71.9478 55.5944 71.9149 55.6319 71.896C55.6694 71.8771 55.7129 71.8738 55.7529 71.8867C55.7729 71.8927 55.7915 71.9028 55.8076 71.9161C55.8236 71.9295 55.8368 71.9459 55.8463 71.9645C55.8558 71.983 55.8614 72.0033 55.8628 72.024C55.8642 72.0448 55.8614 72.0656 55.8545 72.0852C55.8545 72.1041 55.2004 74.1744 55.7592 74.9874C55.821 75.0812 55.9046 75.1588 56.003 75.2136C56.1013 75.2685 56.2116 75.299 56.3244 75.3025C58.1405 75.4223 62.8331 73.185 63.3094 71.7071C63.342 71.634 63.3453 71.5513 63.3188 71.4758C63.2923 71.4004 63.2378 71.3377 63.1665 71.3006C61.7409 70.4372 57.696 71.3636 57.6579 71.3731C57.6371 71.3778 57.6155 71.3784 57.5944 71.3749C57.5733 71.3714 57.5531 71.3638 57.535 71.3525C57.5168 71.3413 57.5011 71.3266 57.4887 71.3093C57.4763 71.292 57.4674 71.2724 57.4626 71.2517C57.4578 71.231 57.4572 71.2096 57.4607 71.1887C57.4643 71.1677 57.472 71.1477 57.4833 71.1297C57.4947 71.1117 57.5095 71.0961 57.5269 71.0838C57.5443 71.0715 57.564 71.0627 57.5849 71.0579C57.7563 71.017 61.7981 70.0905 63.3316 71.0201C63.4634 71.0945 63.564 71.2133 63.6152 71.3548C63.6664 71.4964 63.665 71.6516 63.611 71.7922C63.157 73.1534 58.8898 75.6019 56.5149 75.605Z" fill="#148532"/>
<path id="Vector_53" d="M54.2924 37.076C54.2924 37.076 51.8508 44.3426 53.5145 44.7806C55.1782 45.2186 58.5056 42.9088 58.5056 42.9088L57.4674 36.0298L54.2924 37.076Z" fill="white"/>
<path id="Vector_54" d="M53.9938 44.9791C53.8247 44.9807 53.656 44.9606 53.4921 44.9192C53.3891 44.89 53.2934 44.8395 53.2113 44.7711C53.1293 44.7027 53.0627 44.6179 53.0159 44.5222C52.1809 42.9844 54.0859 37.2745 54.1684 37.0287C54.1746 37.007 54.1863 36.9871 54.2024 36.9711C54.2186 36.9551 54.2385 36.9435 54.2605 36.9374L57.4196 35.8912C57.4383 35.8818 57.459 35.8769 57.4799 35.8769C57.5009 35.8769 57.5216 35.8818 57.5403 35.8912C57.5587 35.9017 57.5746 35.9163 57.5867 35.9337C57.5988 35.9512 57.6068 35.9711 57.6101 35.992L58.6642 42.8741C58.6676 42.9005 58.6638 42.9272 58.6532 42.9516C58.6426 42.976 58.6255 42.9971 58.6039 43.0128C58.4769 43.1167 55.7686 44.9791 53.9938 44.9791ZM54.4192 37.1863C54.2033 37.8449 52.5428 43.0411 53.2731 44.3867C53.3006 44.4471 53.3409 44.5009 53.3913 44.5444C53.4417 44.5879 53.501 44.6201 53.5652 44.6388C55.013 45.0232 57.8673 43.1703 58.3626 42.8395L57.3498 36.222L54.4192 37.1863Z" fill="#148532"/>
<path id="Vector_55" d="M55.9687 30.1404C55.9687 30.1404 53.8065 35.4784 53.4731 37.7913L56.4132 37.848L55.9687 30.1404Z" fill="#148532"/>
<path id="Vector_56" d="M69.1133 44.2323L70.7485 71.8331C70.7485 71.8331 70.8882 72.5768 68.3355 73.4591C65.7828 74.3415 65.3414 73.79 65.3414 73.79C65.3414 73.79 63.954 61.1287 63.2332 53.6983L60.6932 72.0285C60.6932 72.0285 58.9184 74.3383 55.7021 72.0285L56.6991 44.0117L69.1133 44.2323Z" fill="#148532"/>
<path id="Vector_57" d="M65.0207 29.0248L64.9382 26.0123C64.9382 26.0123 66.1859 26.715 66.5257 25.2687C66.8654 23.8223 65.8907 20.9359 65.8907 20.9359L64.0174 21.0997C64.0777 21.8197 64.0957 22.5425 64.0714 23.2645C63.9952 24.1803 63.6765 25.0598 63.1475 25.8138C62.7188 26.381 62.0235 26.2203 61.3155 26.2203L61.1885 28.6971L65.0207 29.0248Z" fill="white"/>
<path id="Vector_58" d="M65.0209 29.1698L61.195 28.8547C61.1576 28.8515 61.123 28.8338 61.0987 28.8055C61.0743 28.7772 61.0622 28.7406 61.0648 28.7034L61.1886 26.2266C61.1903 26.1896 61.2065 26.1546 61.2338 26.1293C61.2611 26.104 61.2973 26.0903 61.3347 26.0911H61.7284C62.2745 26.1163 62.7476 26.1352 63.0492 25.7351C63.566 24.9966 63.872 24.1332 63.935 23.2362C63.9572 23.044 63.935 21.3833 63.8969 21.1564C63.8872 21.1366 63.8808 21.1153 63.8779 21.0934C63.8769 21.0565 63.8902 21.0207 63.915 20.9931C63.9397 20.9656 63.9742 20.9485 64.0112 20.9453L65.8845 20.7783C65.9166 20.7764 65.9485 20.7849 65.9754 20.8025C66.0023 20.8201 66.0228 20.8459 66.0337 20.876C66.0718 20.9957 66.9862 23.8223 66.6687 25.2876C66.6611 25.4696 66.608 25.6469 66.5143 25.8035C66.4205 25.9601 66.2891 26.0912 66.1317 26.1849C65.9743 26.2787 65.7959 26.3321 65.6125 26.3405C65.4292 26.3489 65.2466 26.3119 65.0812 26.2329L65.1574 29.0185C65.1576 29.0597 65.1417 29.0992 65.1129 29.1288C65.088 29.1527 65.0554 29.1672 65.0209 29.1698ZM61.3474 28.5648L64.8716 28.8799L64.7954 26.025C64.7943 25.9996 64.8003 25.9745 64.8126 25.9522C64.8249 25.93 64.8431 25.9116 64.8653 25.8989C64.8874 25.8859 64.9126 25.879 64.9383 25.879C64.964 25.879 64.9892 25.8859 65.0113 25.8989C65.143 25.972 65.2882 26.0181 65.4382 26.0343C65.5882 26.0506 65.74 26.0367 65.8845 25.9934C66.0197 25.9164 66.135 25.809 66.221 25.6799C66.307 25.5508 66.3613 25.4035 66.3798 25.2498C66.6623 24.0177 65.9607 21.6354 65.7924 21.0997L64.1858 21.2415C64.2557 21.8245 64.2239 23.2772 64.2239 23.2929C64.1488 24.2357 63.8199 25.1412 63.2714 25.9147C62.865 26.422 62.2808 26.3873 61.703 26.3873C61.6236 26.3873 61.5411 26.3873 61.4585 26.3873L61.3474 28.5648Z" fill="#148532"/>
<path id="Vector_59" d="M69.9989 44.8908C69.9989 44.8908 69.3893 33.2316 66.935 29.2738C65.2046 26.4819 58.6578 26.5228 56.2448 29.4124C53.8318 32.302 55.3589 45.9937 55.3589 45.9937C55.3589 45.9937 66.9223 49.5167 69.9989 44.8908Z" fill="#148532"/>
<path id="Vector_60" d="M60.3822 26.5134C60.3623 26.5178 60.3417 26.5178 60.3218 26.5134C59.6036 26.1908 59.0004 25.6603 58.5915 24.9914C58.3877 24.6494 58.2683 24.2645 58.2429 23.868C58.2175 23.4716 58.2869 23.0747 58.4454 22.7099C58.5501 22.5029 58.6733 22.3057 58.8137 22.1207C58.9872 21.8959 59.1272 21.6476 59.2296 21.3833C59.306 21.0914 59.3338 20.7892 59.3122 20.4884C59.3034 20.2323 59.3183 19.976 59.3566 19.7226C59.4228 19.4097 59.551 19.113 59.7335 18.8496C59.9161 18.5862 60.1495 18.3613 60.4203 18.188C60.9533 17.8496 61.5637 17.6502 62.1951 17.6082C62.2967 17.6082 62.3951 17.5925 62.5126 17.5893C63.1689 17.5846 63.8064 17.3715 64.3319 16.9812C64.6928 16.743 65.0863 16.5573 65.5003 16.4297C65.8061 16.3576 66.1235 16.3481 66.4332 16.4016C66.7428 16.4551 67.0383 16.5705 67.3016 16.7409C67.5649 16.9113 67.7905 17.1331 67.9648 17.3928C68.139 17.6524 68.2582 17.9445 68.3151 18.2513C68.372 18.5581 68.3655 18.8732 68.2958 19.1775C68.2262 19.4817 68.0949 19.7686 67.91 20.0209C67.7251 20.2732 67.4905 20.4855 67.2203 20.645C66.9501 20.8044 66.6501 20.9077 66.3385 20.9484C66.3015 20.952 66.2646 20.9412 66.2356 20.9183C66.2066 20.8953 66.1877 20.8621 66.1829 20.8256C66.1802 20.8073 66.1814 20.7886 66.1862 20.7708C66.1911 20.7529 66.1996 20.7363 66.2112 20.7218C66.2228 20.7073 66.2373 20.6954 66.2537 20.6867C66.2701 20.678 66.2882 20.6727 66.3067 20.6711C66.5772 20.6316 66.8368 20.5383 67.0702 20.397C67.3036 20.2556 67.5058 20.0691 67.6649 19.8484C67.8241 19.6278 67.9367 19.3776 67.9963 19.1128C68.0558 18.8479 68.061 18.5739 68.0115 18.3071C67.962 18.0402 67.8588 17.786 67.7081 17.5596C67.5575 17.3332 67.3624 17.1393 67.1345 16.9893C66.9067 16.8394 66.6507 16.7366 66.3819 16.687C66.1131 16.6374 65.837 16.6421 65.5701 16.7007C65.1745 16.8145 64.798 16.9855 64.4525 17.208C64.0799 17.4554 63.6707 17.6436 63.2397 17.7658C62.9983 17.8165 62.7529 17.846 62.5062 17.854L62.23 17.8792C61.6455 17.917 61.0799 18.1002 60.5854 18.4118C60.3443 18.564 60.136 18.7621 59.9725 18.9946C59.809 19.2272 59.6936 19.4897 59.6329 19.7668C59.596 20.0023 59.5833 20.2409 59.5948 20.4789C59.6158 20.8098 59.5825 21.1418 59.4963 21.4621C59.391 21.7505 59.2422 22.0215 59.055 22.2656C58.9246 22.4391 58.8098 22.6236 58.7121 22.8171C58.5732 23.1419 58.5135 23.4947 58.5378 23.8468C58.562 24.1988 58.6696 24.5402 58.8518 24.8433C59.233 25.4612 59.7928 25.9509 60.4584 26.2487C60.4749 26.2567 60.4896 26.2679 60.5017 26.2816C60.5138 26.2953 60.5231 26.3113 60.529 26.3286C60.5349 26.3458 60.5373 26.3641 60.5361 26.3823C60.5348 26.4005 60.53 26.4182 60.5219 26.4346C60.51 26.4607 60.49 26.4824 60.4649 26.4965C60.4398 26.5107 60.4109 26.5166 60.3822 26.5134Z" fill="#148532"/>
<path id="Vector_61" d="M64.3477 23.5324C64.2306 23.2348 64.0314 22.976 63.773 22.7856C63.6423 22.6942 63.4851 22.6476 63.3253 22.6527C63.1655 22.6578 63.0117 22.7144 62.8872 22.8139C62.8061 22.9005 62.7482 23.0058 62.7188 23.1203C62.6894 23.2349 62.6894 23.3549 62.7189 23.4694C62.7734 23.7013 62.8822 23.9172 63.0364 24.0996C63.3076 24.4761 63.7169 24.7319 64.1762 24.8117" fill="white"/>
<path id="Vector_62" d="M64.1763 24.9567C63.9281 24.9163 63.6907 24.8268 63.478 24.6937C63.2653 24.5605 63.0817 24.3864 62.938 24.1815C62.7664 23.9852 62.6425 23.7523 62.5761 23.5009C62.5409 23.3622 62.5417 23.217 62.5784 23.0787C62.615 22.9404 62.6863 22.8135 62.7856 22.7099C62.9346 22.5889 63.1192 22.5192 63.3116 22.5112C63.504 22.5033 63.6938 22.5575 63.8524 22.6658C64.1358 22.8706 64.3558 23.15 64.4874 23.4725C64.5026 23.5077 64.5036 23.5474 64.4899 23.5832C64.4763 23.6191 64.4492 23.6483 64.4144 23.6647C64.3794 23.6797 64.3399 23.6805 64.3043 23.667C64.2687 23.6534 64.2398 23.6266 64.2239 23.5923C64.1118 23.3258 63.9298 23.0941 63.6968 22.9211C63.5945 22.8456 63.4703 22.8049 63.3428 22.8049C63.2153 22.8049 63.0912 22.8456 62.9888 22.9211C62.9251 22.9907 62.8799 23.075 62.8571 23.1663C62.8344 23.2576 62.8349 23.3531 62.8586 23.4442C62.919 23.6531 63.0277 23.8452 63.1761 24.0051C63.4204 24.3494 63.7887 24.5875 64.2048 24.67C64.2436 24.672 64.2799 24.6893 64.3058 24.718C64.3317 24.7466 64.3451 24.7843 64.3429 24.8228C64.3408 24.8612 64.3234 24.8973 64.2946 24.923C64.2657 24.9487 64.2277 24.962 64.189 24.9599L64.1763 24.9567Z" fill="#148532"/>
<path id="Vector_63" d="M67.5321 35.2326C67.5321 35.2326 67.6147 37.6275 68.1957 37.5865C68.7767 37.5455 73.3424 34.0761 73.3424 34.0761C73.3424 34.0761 73.6758 31.6813 74.0504 31.5993C74.4251 31.5174 74.3425 33.3703 74.3393 33.4144C74.3393 33.2694 75.2918 32.2831 75.53 31.9743C75.9215 31.3512 76.3956 30.7831 76.9397 30.2853C77.0984 30.3956 77.0698 30.6351 77.0191 30.821C76.8537 31.3997 76.6203 31.9571 76.3237 32.4817C76.4105 32.2664 76.5364 32.0688 76.6952 31.8987C76.736 31.8398 76.792 31.7929 76.8574 31.7629C76.9227 31.733 76.9951 31.7211 77.0667 31.7285C77.1126 31.7474 77.1543 31.7753 77.1892 31.8105C77.2241 31.8457 77.2515 31.8874 77.2699 31.9334C77.762 32.9134 76.8285 34.3912 76.2539 35.1507C75.0061 36.8019 70.0976 42.1935 67.1035 42.8552C64.1095 43.517 63.1094 37.2147 63.1094 37.2147" fill="white"/>
<path id="Vector_64" d="M66.675 43.0474C66.2572 43.0457 65.8502 42.9158 65.5097 42.6756C63.6524 41.4152 62.9983 37.4069 62.9697 37.2367C62.9666 37.2181 62.9672 37.199 62.9716 37.1806C62.976 37.1622 62.9841 37.1448 62.9953 37.1296C63.0065 37.1143 63.0207 37.1014 63.0371 37.0917C63.0534 37.082 63.0715 37.0756 63.0904 37.0729C63.1092 37.0697 63.1284 37.0704 63.147 37.0747C63.1655 37.0791 63.183 37.0871 63.1984 37.0982C63.2137 37.1094 63.2267 37.1235 63.2365 37.1397C63.2463 37.1559 63.2528 37.1739 63.2555 37.1926C63.2555 37.2304 63.9191 41.2513 65.6717 42.4361C65.872 42.5792 66.101 42.678 66.3431 42.7258C66.5851 42.7736 66.8347 42.7694 67.075 42.7134C70.0722 42.0548 75.0125 36.5592 76.1396 35.0624C76.6 34.4574 77.616 32.9417 77.1429 31.9995C77.1048 31.9239 77.0667 31.8798 77.0286 31.8672C76.9778 31.8672 76.8921 31.8987 76.8064 31.9932C76.746 32.0582 76.6908 32.1277 76.6413 32.2012C76.581 32.321 76.5175 32.4375 76.4508 32.5541C76.4333 32.586 76.404 32.61 76.3692 32.6212C76.3343 32.6323 76.2965 32.6298 76.2635 32.614C76.2296 32.5982 76.2032 32.5701 76.1896 32.5355C76.176 32.5009 76.1763 32.4625 76.1904 32.4281C76.2437 32.2975 76.3108 32.1729 76.3905 32.0563C76.5928 31.6518 76.7575 31.2299 76.8826 30.7958C76.911 30.7041 76.9207 30.6077 76.9112 30.5122C76.4954 30.9147 76.1259 31.3618 75.8094 31.8451L75.6507 32.0689C75.5586 32.1981 75.3332 32.4312 75.1332 32.677C74.9045 32.9212 74.6923 33.1802 74.4982 33.4522C74.4942 33.4876 74.4763 33.5201 74.4483 33.5425C74.4204 33.5649 74.3847 33.5755 74.3489 33.572C74.3108 33.5695 74.2751 33.5523 74.2495 33.524C74.224 33.4957 74.2107 33.4586 74.2124 33.4207C74.2442 32.6613 74.1838 31.9176 74.0791 31.7663C73.9076 31.9302 73.6441 33.0867 73.5012 34.1076C73.4991 34.1262 73.4932 34.1441 73.484 34.1604C73.4747 34.1766 73.4622 34.1908 73.4472 34.2022C72.6757 34.7883 68.8054 37.7 68.2117 37.7409C68.1607 37.7434 68.1097 37.7357 68.0617 37.7184C68.0138 37.7011 67.9698 37.6745 67.9323 37.6401C67.4719 37.2273 67.3957 35.4343 67.3893 35.2484C67.3945 35.214 67.4119 35.1826 67.4384 35.1599C67.4649 35.1372 67.4988 35.1247 67.5338 35.1247C67.5688 35.1247 67.6027 35.1372 67.6292 35.1599C67.6557 35.1826 67.6731 35.214 67.6783 35.2484C67.7037 35.9637 67.8465 37.1863 68.1259 37.4353C68.1609 37.4636 68.1831 37.4668 68.1894 37.4636C68.58 37.4353 71.4629 35.3524 73.2218 34.0194C73.3552 33.0741 73.6314 31.571 74.0346 31.4796C74.0726 31.4716 74.1119 31.4726 74.1494 31.4824C74.1869 31.4923 74.2215 31.5107 74.2505 31.5363C74.4664 31.7159 74.5109 32.4407 74.5109 32.9701C74.6125 32.8503 74.749 32.6959 74.9268 32.4943C75.1046 32.2926 75.3427 32.0279 75.4284 31.9113L75.584 31.6907C75.9375 31.1382 76.3647 30.6358 76.854 30.1971C76.8785 30.1782 76.9087 30.1679 76.9397 30.1679C76.9708 30.1679 77.001 30.1782 77.0255 30.1971C77.1556 30.2822 77.2826 30.4744 77.1652 30.8903C77.0955 31.1361 77.0129 31.378 76.9175 31.6151C76.9819 31.5972 77.05 31.5972 77.1144 31.6151C77.1802 31.638 77.2403 31.6746 77.2906 31.7224C77.341 31.7702 77.3805 31.8282 77.4065 31.8924C77.9303 32.9386 76.9874 34.4511 76.3746 35.2578C75.2316 36.7735 70.2151 42.3384 67.1417 43.0191C66.9876 43.0455 66.8311 43.055 66.675 43.0474Z" fill="#148532"/>
<path id="Vector_65" d="M62.1538 37.4636C62.1269 37.4631 62.1006 37.4555 62.0776 37.4416C62.0579 37.4296 62.0415 37.413 62.0299 37.3932C62.0183 37.3734 62.0118 37.351 62.011 37.3281L61.8459 31.6561C61.845 31.6377 61.8479 31.6194 61.8544 31.6023C61.8608 31.5851 61.8708 31.5694 61.8835 31.5561C61.8963 31.5429 61.9116 31.5323 61.9286 31.5251C61.9456 31.5179 61.9639 31.5142 61.9824 31.5143C62.0009 31.5129 62.0196 31.5155 62.0371 31.5217C62.0546 31.528 62.0706 31.5378 62.0841 31.5506C62.0975 31.5633 62.1082 31.5788 62.1152 31.5958C62.1223 31.6129 62.1257 31.6313 62.1253 31.6498L62.2872 37.1012L67.3926 34.949C67.4259 34.94 67.4613 34.9432 67.4924 34.9581C67.5235 34.9731 67.5481 34.9986 67.5616 35.0301C67.5752 35.0616 67.5768 35.0969 67.5661 35.1295C67.5555 35.1621 67.5333 35.1898 67.5037 35.2074L62.2078 37.4353C62.1926 37.4491 62.174 37.4589 62.1538 37.4636Z" fill="#148532"/>
<path id="Vector_66" d="M62.5697 53.1941C62.5423 53.1943 62.5153 53.1874 62.4914 53.1741C62.4675 53.1609 62.4474 53.1417 62.4332 53.1185C62.3665 53.0082 60.8457 50.4211 60.6361 48.3193C60.6339 48.299 60.6358 48.2785 60.6417 48.2589C60.6475 48.2393 60.6572 48.2211 60.6702 48.2053C60.6832 48.1895 60.6992 48.1764 60.7174 48.1667C60.7355 48.1571 60.7554 48.1511 60.7758 48.1491C60.7966 48.146 60.8178 48.1472 60.8381 48.1527C60.8583 48.1581 60.8773 48.1676 60.8937 48.1806C60.9101 48.1936 60.9236 48.2099 60.9333 48.2283C60.9431 48.2468 60.949 48.267 60.9505 48.2878C61.1664 50.3203 62.6904 52.9326 62.7062 52.9578C62.7263 52.994 62.7315 53.0364 62.7208 53.0763C62.7102 53.1162 62.6845 53.1505 62.6491 53.1721C62.6252 53.1867 62.5977 53.1943 62.5697 53.1941Z" fill="white"/>
<path id="Vector_67" d="M66.4559 24.5408C66.4559 24.5408 66.0495 25.0418 65.5923 24.6889L66.4559 24.5408Z" fill="white"/>
<path id="Vector_68" d="M65.932 24.9599C65.7753 24.957 65.6242 24.9015 65.5034 24.8023C65.4871 24.791 65.4732 24.7765 65.4628 24.7597C65.4523 24.7429 65.4454 24.7241 65.4425 24.7045C65.4396 24.685 65.4407 24.665 65.4459 24.6459C65.4511 24.6268 65.4601 24.609 65.4725 24.5935C65.4848 24.578 65.5003 24.5651 65.5178 24.5558C65.5354 24.5464 65.5546 24.5407 65.5745 24.539C65.5944 24.5373 65.6143 24.5397 65.6332 24.5459C65.6521 24.5522 65.6695 24.5622 65.6844 24.5754C65.7357 24.6104 65.7936 24.635 65.8545 24.6476C65.9155 24.6602 65.9784 24.6606 66.0396 24.6489C66.1007 24.6372 66.1589 24.6135 66.2108 24.5792C66.2626 24.545 66.3071 24.5008 66.3416 24.4494C66.3536 24.4344 66.3685 24.4219 66.3855 24.4127C66.4024 24.4035 66.421 24.3977 66.4402 24.3956C66.4594 24.3936 66.4788 24.3953 66.4973 24.4008C66.5158 24.4062 66.533 24.4152 66.548 24.4273C66.5769 24.4518 66.5952 24.4863 66.5994 24.5238C66.6035 24.5613 66.5931 24.5989 66.5702 24.629C66.4937 24.726 66.3971 24.8057 66.2871 24.8628C66.177 24.9198 66.056 24.9529 65.932 24.9599Z" fill="#148532"/>
<path id="Vector_69" d="M35.7598 51.6122L35.5884 65.4962C35.5884 65.4962 42.4242 66.6432 42.5988 66.4037C42.7734 66.1642 38.8586 63.8828 38.8586 63.8828L39.4079 52.441" fill="white"/>
<path id="Vector_70" d="M42.3322 66.577C41.6972 66.577 40.062 66.4069 35.5599 65.6537C35.5229 65.647 35.4895 65.6275 35.4657 65.5987C35.4418 65.5698 35.4291 65.5335 35.4297 65.4962L35.6012 51.6122C35.6012 51.5705 35.6179 51.5304 35.6477 51.5008C35.6774 51.4713 35.7178 51.4547 35.7599 51.4547C35.802 51.4563 35.842 51.4738 35.8715 51.5037C35.901 51.5336 35.9179 51.5735 35.9187 51.6154L35.7472 65.3638C37.9919 65.7388 41.4082 66.2588 42.3163 66.2808C41.1819 65.4594 39.9998 64.705 38.7762 64.0214C38.7513 64.0065 38.7311 63.9851 38.7176 63.9595C38.7042 63.934 38.6981 63.9053 38.7 63.8765L39.2492 52.4378C39.25 52.4169 39.2551 52.3963 39.264 52.3772C39.2729 52.3582 39.2856 52.3412 39.3013 52.3271C39.317 52.313 39.3353 52.3021 39.3553 52.2952C39.3752 52.2882 39.3964 52.2853 39.4175 52.2866C39.4382 52.2874 39.4586 52.2923 39.4774 52.301C39.4961 52.3097 39.513 52.3221 39.5269 52.3373C39.5408 52.3526 39.5515 52.3705 39.5583 52.3899C39.5652 52.4093 39.568 52.4299 39.5667 52.4504L39.0206 63.7946C40.4208 64.6107 42.6814 65.9783 42.7576 66.3375C42.7665 66.3911 42.7552 66.4461 42.7259 66.4919C42.7036 66.5298 42.6655 66.577 42.3322 66.577Z" fill="#148532"/>
<path id="Vector_71" d="M40.278 64.2326L38.9635 65.3071L35.3631 64.6422L35.29 66.0665C35.29 66.0665 43.2275 67.4814 43.6308 66.8386C44.034 66.1957 40.278 64.2326 40.278 64.2326Z" fill="#148532"/>
<path id="Vector_72" d="M42.5259 52.5954L42.7259 65.6916C42.7259 65.6916 49.5617 66.8386 49.7363 66.5991C49.9109 66.3596 45.9962 64.0782 45.9962 64.0782L46.8915 52.1038" fill="white"/>
<path id="Vector_73" d="M49.4697 66.7724C48.8347 66.7724 47.2027 66.6022 42.6974 65.846C42.661 65.8406 42.6277 65.8224 42.6038 65.7946C42.5798 65.7668 42.5669 65.7313 42.5672 65.6947L42.3672 52.5986C42.3668 52.5776 42.3706 52.5568 42.3784 52.5373C42.3862 52.5178 42.3978 52.5001 42.4126 52.4851C42.4274 52.4701 42.445 52.4583 42.4645 52.4501C42.4839 52.442 42.5049 52.4378 42.526 52.4379C42.5467 52.4374 42.5672 52.4411 42.5865 52.4487C42.6057 52.4563 42.6233 52.4676 42.638 52.4819C42.6528 52.4963 42.6646 52.5135 42.6726 52.5324C42.6806 52.5514 42.6847 52.5717 42.6847 52.5923L42.8816 65.5592C45.1263 65.9342 48.5426 66.4541 49.4538 66.4762C48.3195 65.6548 47.1374 64.9004 45.9137 64.2168C45.8883 64.2017 45.8678 64.1797 45.8543 64.1536C45.8408 64.1274 45.835 64.098 45.8375 64.0687L46.7328 52.0786C46.734 52.058 46.7394 52.0379 46.7485 52.0194C46.7577 52.0009 46.7705 51.9844 46.7862 51.9709C46.8019 51.9574 46.8201 51.9472 46.8399 51.9408C46.8596 51.9344 46.8804 51.932 46.9011 51.9337C46.9223 51.9349 46.943 51.9402 46.962 51.9495C46.981 51.9587 46.998 51.9717 47.0119 51.9875C47.0258 52.0034 47.0363 52.0219 47.043 52.0418C47.0496 52.0618 47.0521 52.0829 47.0503 52.1038L46.1613 63.9931C47.5615 64.8092 49.8189 66.1737 49.8951 66.5361C49.9038 66.5897 49.8925 66.6445 49.8634 66.6905C49.8475 66.722 49.8031 66.7724 49.4697 66.7724Z" fill="#148532"/>
<path id="Vector_74" d="M47.4152 64.4279L46.1007 65.5025L42.5003 64.8313L42.4272 66.2556C42.4272 66.2556 50.3647 67.6705 50.768 67.0276C51.1712 66.3848 47.4152 64.4279 47.4152 64.4279Z" fill="#148532"/>
<path id="Vector_75" d="M33.7055 32.1413C32.4895 40.2933 34.3881 59.2411 34.3881 59.2411L40.2206 59.1151L41.9097 41.0212L42.0113 59.0867L47.0913 59.3136C47.0913 59.3136 49.2217 46.6838 48.9169 39.2345C48.6121 31.7852 47.0913 30.8588 47.0913 30.8588L33.7055 32.1413Z" fill="#148532"/>
<path id="Vector_76" d="M39.8397 17.895C39.8397 17.895 35.9789 17.8761 34.2294 20.2174C32.48 22.5587 32.4038 23.9137 32.4038 23.9137L35.8963 25.0071L35.4391 32.0279L47.4565 31.1613L47.2279 24.8968L49.4313 24.1406C49.4313 24.1406 48.2153 18.6324 43.1956 18.2542C38.176 17.8761 39.8397 17.895 39.8397 17.895Z" fill="#148532"/>
<path id="Vector_77" d="M43.402 16.2816L43.2687 18.6796C43.2687 18.6796 42.9702 20.0189 41.5066 19.5493C41.0739 19.4075 40.6785 19.1719 40.349 18.8596C40.0195 18.5473 39.7642 18.1661 39.6016 17.7437C39.6016 17.7437 40.0365 11.8858 40.0746 11.4604C40.3159 11.5864 41.0049 11.8921 41.2716 11.8038C41.5383 11.7156 41.624 10.9026 41.6685 10.6411C41.8754 10.9967 42.0082 11.39 42.059 11.7975L43.0623 11.8795C43.2114 11.5317 43.2881 11.1576 43.2877 10.7797C43.4873 11.1127 43.6068 11.4869 43.637 11.8731C43.9196 11.8889 44.9832 11.7755 45.1483 12.0118C45.3864 12.3647 45.4372 14.6966 44.7482 15.4781C44.0593 16.2595 43.402 16.2816 43.402 16.2816Z" fill="white"/>
<path id="Vector_78" d="M42.0875 19.792C41.8714 19.7904 41.657 19.7542 41.4525 19.6849C40.9995 19.538 40.5856 19.2917 40.2415 18.9644C39.8974 18.6371 39.632 18.2372 39.465 17.7942C39.4602 17.7755 39.4602 17.7561 39.465 17.7374C39.465 17.498 39.8999 11.8763 39.938 11.4541C39.9398 11.4302 39.9478 11.4073 39.9611 11.3874C39.9745 11.3675 39.9928 11.3514 40.0142 11.3406C40.0353 11.3298 40.0587 11.3242 40.0825 11.3242C40.1062 11.3242 40.1296 11.3298 40.1508 11.3406C40.4683 11.5139 41.0525 11.7282 41.2303 11.6715C41.2842 11.6526 41.3922 11.5076 41.5128 10.7261L41.5319 10.6159C41.5363 10.5865 41.5498 10.5592 41.5707 10.5379C41.5915 10.5165 41.6186 10.5022 41.6481 10.497C41.6776 10.4918 41.708 10.4959 41.735 10.5087C41.762 10.5216 41.7842 10.5425 41.7986 10.5686C41.9959 10.9073 42.1293 11.2789 42.1923 11.6652L42.9733 11.7282C43.0896 11.4264 43.1488 11.106 43.148 10.7829C43.1473 10.7511 43.1573 10.72 43.1762 10.6944C43.1951 10.6688 43.222 10.65 43.2527 10.6411C43.2838 10.633 43.3166 10.6351 43.3463 10.647C43.376 10.659 43.4011 10.6801 43.4178 10.7072C43.6067 11.0204 43.7278 11.3692 43.7734 11.7314H43.9671C44.6021 11.7093 45.1196 11.7125 45.272 11.9393C45.5546 12.3521 45.5895 14.7565 44.8625 15.5789C44.5287 15.9975 44.0621 16.2918 43.5385 16.414C43.5385 16.6219 43.494 17.1828 43.4115 18.6922C43.321 19.0829 43.0792 19.4225 42.7384 19.6376C42.5388 19.7449 42.3144 19.7981 42.0875 19.792ZM39.7602 17.7217C39.917 18.1159 40.1584 18.4715 40.4676 18.7637C40.7769 19.0559 41.1465 19.2778 41.5509 19.4139C41.7176 19.482 41.8969 19.5141 42.077 19.5081C42.2571 19.5021 42.4338 19.4582 42.5955 19.3792C42.8595 19.2114 43.0492 18.9499 43.1257 18.6481C43.1257 18.6481 43.2559 16.3131 43.2591 16.2753C43.2606 16.239 43.2759 16.2047 43.3017 16.179C43.3276 16.1533 43.3622 16.1382 43.3988 16.1367C43.8974 16.0535 44.3451 15.784 44.6497 15.3835C45.2847 14.6493 45.2244 12.371 45.0371 12.0937C44.945 11.9803 44.2179 12.0055 43.9798 12.0118C43.8338 12.0118 43.7099 12.0118 43.6369 12.0118C43.6029 12.0121 43.57 12.0001 43.5443 11.9781C43.5186 11.9561 43.5018 11.9255 43.4972 11.8921C43.4812 11.7044 43.4428 11.5193 43.3829 11.3406C43.3443 11.5484 43.2825 11.7514 43.1988 11.9456C43.1865 11.9734 43.1658 11.9968 43.1397 12.0126C43.1136 12.0284 43.0832 12.0358 43.0527 12.0339L42.0494 11.9519C42.0167 11.9481 41.9863 11.9337 41.9627 11.9109C41.9392 11.8881 41.9239 11.8582 41.9192 11.8259C41.8875 11.5843 41.8267 11.3473 41.7383 11.12C41.6589 11.5265 41.5446 11.87 41.3223 11.9488C41.0429 12.0433 40.4968 11.8259 40.2047 11.6936C40.1254 12.7681 39.7888 17.3057 39.7602 17.7217Z" fill="#148532"/>
<path id="Vector_79" d="M40.3225 13.1714C40.292 12.9922 40.204 12.8275 40.0717 12.7019C39.9408 12.5918 39.7929 12.5035 39.6335 12.4404C39.5499 12.3977 39.4577 12.374 39.3637 12.371C39.2972 12.3762 39.2325 12.3944 39.1732 12.4246C39.025 12.4839 38.9049 12.5964 38.8366 12.7397C38.7917 12.8561 38.7764 12.9816 38.7922 13.1052C38.7963 13.2413 38.8198 13.376 38.862 13.5054C38.9527 13.7648 39.1434 13.9779 39.3922 14.0979C39.641 14.2145 39.9257 14.2303 40.186 14.142" fill="white"/>
<path id="Vector_80" d="M39.8395 14.309C39.5966 14.3119 39.3589 14.2385 39.1604 14.0993C38.962 13.9601 38.813 13.7621 38.7346 13.5338C38.6896 13.393 38.6639 13.2467 38.6584 13.099C38.6421 12.9547 38.6617 12.8086 38.7156 12.6736C38.8001 12.5097 38.9409 12.3811 39.1125 12.3112C39.1999 12.2646 39.298 12.2416 39.3972 12.2444C39.4963 12.2471 39.593 12.2756 39.6776 12.3269C39.8508 12.3933 40.0109 12.4893 40.1507 12.6105C40.305 12.7547 40.4076 12.9451 40.4428 13.1525C40.4475 13.1854 40.4392 13.2188 40.4197 13.2458C40.4001 13.2728 40.3709 13.2913 40.338 13.2975C40.3215 13.3002 40.3047 13.2996 40.2884 13.2959C40.2722 13.2921 40.2568 13.2852 40.2433 13.2755C40.2297 13.2659 40.2182 13.2537 40.2094 13.2396C40.2006 13.2255 40.1947 13.2099 40.192 13.1935C40.1664 13.0401 40.0905 12.8995 39.9761 12.7933C39.8567 12.6925 39.7216 12.6116 39.576 12.5538C39.5099 12.5204 39.4374 12.5011 39.3633 12.4971C39.3131 12.4993 39.2641 12.5134 39.2204 12.5381C39.1033 12.5839 39.0057 12.6685 38.9442 12.7776C38.9072 12.8783 38.8953 12.9864 38.9093 13.0927C38.9148 13.2169 38.9372 13.3399 38.9759 13.4582C39.0145 13.5704 39.075 13.6739 39.1542 13.7627C39.2333 13.8514 39.3294 13.9237 39.437 13.9753C39.5445 14.0269 39.6613 14.0568 39.7805 14.0632C39.8998 14.0697 40.0191 14.0525 40.1316 14.0128C40.1633 14.0025 40.1977 14.0046 40.2278 14.0186C40.2579 14.0327 40.2814 14.0577 40.2936 14.0884C40.2996 14.1039 40.3024 14.1205 40.3018 14.137C40.3012 14.1536 40.2972 14.1699 40.2901 14.1849C40.2829 14.2 40.2728 14.2134 40.2603 14.2244C40.2478 14.2355 40.2332 14.2439 40.2174 14.2491C40.0957 14.2898 39.968 14.31 39.8395 14.309Z" fill="#148532"/>
<path id="Vector_81" d="M43.3067 17.2238C43.3067 17.2238 42.3003 17.4538 41.6907 16.7763C41.5175 16.6028 41.3843 16.3941 41.3004 16.1645C41.2166 15.9349 41.184 15.6899 41.2049 15.4466C41.2049 15.4466 42.4019 16.4518 43.3925 16.3289L43.3067 17.2238Z" fill="#148532"/>
<path id="Vector_82" d="M42.9035 17.4034C42.6595 17.4111 42.4166 17.3677 42.1907 17.2759C41.9647 17.1841 41.7608 17.0461 41.5922 16.8709C41.4048 16.6811 41.2612 16.4532 41.1713 16.2029C41.0814 15.9527 41.0473 15.686 41.0715 15.4214C41.0763 15.3975 41.0874 15.3754 41.1035 15.3571C41.1197 15.3389 41.1404 15.3252 41.1636 15.3174C41.1862 15.3083 41.2109 15.3056 41.235 15.3095C41.259 15.3133 41.2816 15.3237 41.3001 15.3394C41.3001 15.3394 42.4653 16.3005 43.3829 16.1902C43.4036 16.1885 43.4243 16.191 43.444 16.1975C43.4637 16.204 43.4818 16.2144 43.4972 16.2281C43.5121 16.2428 43.5235 16.2606 43.5306 16.2802C43.5378 16.2998 43.5404 16.3207 43.5385 16.3415L43.4464 17.249C43.4442 17.278 43.4324 17.3054 43.4129 17.327C43.3933 17.3487 43.3672 17.3633 43.3385 17.3688C43.1954 17.3974 43.0494 17.4091 42.9035 17.4034ZM41.3414 15.727C41.3882 16.0819 41.5472 16.4128 41.7954 16.6724C41.9757 16.8474 42.1949 16.978 42.4354 17.0535C42.6758 17.129 42.9308 17.1474 43.1797 17.1072L43.24 16.477C42.5003 16.4864 41.7161 15.9886 41.3414 15.727Z" fill="#148532"/>
<path id="Vector_83" d="M43.2181 12.7145C43.2181 12.7145 43.9515 13.9025 43.7578 14.0979C43.5642 14.2932 43.0498 14.1357 43.0498 14.1357" fill="white"/>
<path id="Vector_84" d="M43.434 14.3342C43.29 14.3316 43.147 14.3104 43.0085 14.2712C42.9727 14.2603 42.9428 14.2358 42.9252 14.203C42.9076 14.1702 42.9039 14.1318 42.9149 14.0963C42.9258 14.0608 42.9505 14.031 42.9836 14.0136C43.0166 13.9962 43.0553 13.9925 43.0911 14.0033C43.2657 14.0537 43.5673 14.0884 43.6594 14.0033C43.5457 13.5692 43.3554 13.1584 43.0974 12.7901C43.0877 12.7745 43.0811 12.757 43.0782 12.7388C43.0754 12.7206 43.0761 12.702 43.0806 12.6841C43.085 12.6662 43.093 12.6494 43.1041 12.6346C43.1151 12.6198 43.1291 12.6073 43.1451 12.5979C43.1606 12.5883 43.1779 12.5819 43.196 12.579C43.2141 12.5762 43.2326 12.577 43.2504 12.5814C43.2682 12.5858 43.2849 12.5938 43.2995 12.6047C43.3141 12.6157 43.3264 12.6294 43.3356 12.6452C43.6975 13.2281 44.0849 13.9718 43.8594 14.1987C43.741 14.2974 43.5882 14.3461 43.434 14.3342Z" fill="#148532"/>
<path id="Vector_85" d="M41.9612 12.9947C42.0665 12.9763 42.1307 12.8419 42.1046 12.6945C42.0785 12.5471 41.9719 12.4426 41.8665 12.461C41.7612 12.4793 41.697 12.6138 41.7231 12.7612C41.7492 12.9086 41.8558 13.0131 41.9612 12.9947Z" fill="#148532"/>
<path id="Vector_86" d="M44.3376 13.3554C44.443 13.337 44.5072 13.2026 44.4811 13.0552C44.4549 12.9078 44.3483 12.8032 44.243 12.8216C44.1376 12.84 44.0734 12.9744 44.0996 13.1218C44.1257 13.2692 44.2323 13.3738 44.3376 13.3554Z" fill="#148532"/>
<path id="Vector_87" d="M43.9704 14.7565C43.9704 14.7565 43.2275 15.7585 42.0337 14.7187L43.9704 14.7565Z" fill="white"/>
<path id="Vector_88" d="M43.0847 15.33C42.654 15.3051 42.2474 15.1247 41.9417 14.8226C41.9162 14.7978 41.9013 14.7642 41.9 14.7288C41.8987 14.6934 41.9111 14.6588 41.9347 14.6322C41.9582 14.6056 41.9912 14.5889 42.0267 14.5857C42.0623 14.5824 42.0977 14.5928 42.1258 14.6147C42.2625 14.754 42.4267 14.864 42.608 14.9377C42.7893 15.0114 42.984 15.0473 43.1799 15.0432C43.4426 15.0078 43.682 14.875 43.8499 14.6714C43.8606 14.6563 43.8742 14.6436 43.89 14.6338C43.9057 14.6241 43.9233 14.6176 43.9416 14.6146C43.96 14.6117 43.9787 14.6124 43.9967 14.6167C44.0148 14.6211 44.0318 14.6289 44.0467 14.6399C44.0766 14.6619 44.0967 14.6946 44.1026 14.7311C44.1085 14.7676 44.0999 14.805 44.0785 14.8352C43.8628 15.1012 43.5526 15.2749 43.2117 15.3205L43.0847 15.33Z" fill="#148532"/>
<path id="Vector_89" d="M38.7667 15.8405H37.43C37.411 15.8402 37.3922 15.8362 37.3747 15.8286C37.3573 15.821 37.3415 15.8101 37.3284 15.7964C37.3158 15.7823 37.3061 15.7658 37.3001 15.7479C37.2941 15.7301 37.2919 15.7111 37.2935 15.6924L37.557 11.6747C37.6173 10.7766 37.7189 9.82809 38.2428 8.94892C38.5142 8.42512 38.9643 8.01412 39.5128 7.7893C39.8018 7.67629 40.1201 7.66007 40.4193 7.74312C40.7185 7.82617 40.9821 8.00393 41.1701 8.24936C41.1896 8.28049 41.1962 8.31789 41.1885 8.35372C41.1808 8.38956 41.1594 8.42104 41.1289 8.44158C41.1135 8.45156 41.0962 8.45841 41.0781 8.46175C41.06 8.46509 41.0415 8.46485 41.0235 8.46104C41.0055 8.45724 40.9884 8.44994 40.9733 8.43957C40.9581 8.4292 40.9452 8.41596 40.9352 8.40062C40.7814 8.20833 40.5691 8.07042 40.33 8.00741C40.0909 7.94439 39.8377 7.95962 39.608 8.05084C39.1206 8.25483 38.7214 8.62311 38.4809 9.09072C38.063 9.89559 37.8452 10.7881 37.8459 11.6936L37.5919 15.5632H38.7794C38.8164 15.5632 38.852 15.5778 38.8782 15.6038C38.9044 15.6298 38.9191 15.665 38.9191 15.7018C38.9191 15.7386 38.9044 15.7739 38.8782 15.7999C38.852 15.8259 38.8164 15.8405 38.7794 15.8405H38.7667Z" fill="#148532"/>
<path id="Vector_90" d="M45.6244 17.1041C45.2231 17.1042 44.8223 17.0789 44.4243 17.0284C44.3872 17.0238 44.3535 17.0048 44.3306 16.9756C44.3077 16.9463 44.2974 16.9092 44.302 16.8725C44.3067 16.8357 44.3258 16.8022 44.3553 16.7795C44.3848 16.7567 44.4221 16.7465 44.4592 16.7511C45.0782 16.8299 45.7038 16.8457 46.3261 16.7984C46.5883 15.6355 46.7623 14.4547 46.8468 13.266C46.9464 12.3177 46.8884 11.3596 46.6753 10.4299C46.4612 9.50958 45.9058 8.70296 45.1196 8.17057C44.3735 7.7042 42.5542 7.79243 41.7604 8.33443C41.7305 8.35658 41.693 8.36603 41.6561 8.36071C41.6192 8.35539 41.5859 8.33574 41.5636 8.30607C41.5413 8.2764 41.5317 8.23915 41.5371 8.20251C41.5425 8.16587 41.5623 8.13285 41.5922 8.1107C42.3954 7.55925 44.3576 7.37648 45.2625 7.94054C46.1075 8.51059 46.705 9.37587 46.9357 10.3638C47.1581 11.3251 47.2192 12.3164 47.1167 13.2975C47.0307 14.5336 46.847 15.761 46.5674 16.9686C46.5618 16.9976 46.5465 17.0239 46.5241 17.0433C46.5016 17.0627 46.4733 17.0741 46.4436 17.0757C46.1726 17.0946 45.8996 17.1041 45.6244 17.1041Z" fill="#148532"/>
<path id="Vector_91" d="M53.2416 28.8957H42.3672L43.888 21.3487H54.7624L53.2416 28.8957Z" fill="#148532"/>
<path id="Vector_92" d="M53.1906 28.8452H36.8647V29.6393H53.1906V28.8452Z" fill="#148532"/>
<path id="Vector_93" d="M52.3302 28.8263H42.9004C42.8583 28.8263 42.818 28.8097 42.7882 28.7802C42.7584 28.7506 42.7417 28.7105 42.7417 28.6688C42.7417 28.627 42.7584 28.5869 42.7882 28.5573C42.818 28.5278 42.8583 28.5112 42.9004 28.5112H52.3302C52.3718 28.512 52.4113 28.529 52.4404 28.5584C52.4695 28.5879 52.4858 28.6275 52.4858 28.6688C52.4862 28.6893 52.4825 28.7097 52.4749 28.7288C52.4672 28.7479 52.4558 28.7653 52.4413 28.78C52.4269 28.7947 52.4096 28.8063 52.3905 28.8143C52.3714 28.8222 52.3509 28.8263 52.3302 28.8263Z" fill="white"/>
<path id="Vector_94" d="M32.404 23.9137C32.404 23.9137 30.7054 32.5699 32.0865 33.7264C33.4676 34.8828 45.7771 32.1161 45.7771 32.1161L46.1327 29.6992L36.0934 29.5007L36.3728 25.1206" fill="white"/>
<path id="Vector_95" d="M33.6229 34.1549C32.3529 34.1549 32.1021 33.9375 31.9815 33.8398C31.375 33.3262 31.2417 31.4859 31.5814 28.3726C31.8322 26.0848 32.2577 23.9105 32.2609 23.8916C32.2686 23.8539 32.2908 23.8206 32.3228 23.7988C32.3548 23.7771 32.3941 23.7685 32.4323 23.775C32.4702 23.7826 32.5034 23.8048 32.5249 23.8367C32.5463 23.8686 32.5541 23.9076 32.5466 23.9452C32.0799 26.3306 31.0988 32.7148 32.1688 33.6192C33.2388 34.5236 42.1542 32.7779 45.634 31.9995L45.9515 29.8441L36.0772 29.6456C36.0378 29.6452 36.0001 29.6294 35.9724 29.6015C35.9477 29.5712 35.9343 29.5334 35.9343 29.4944L36.2137 25.1269C36.2145 25.1077 36.2192 25.0889 36.2276 25.0715C36.2359 25.0542 36.2477 25.0387 36.2623 25.026C36.2768 25.0134 36.2938 25.0038 36.3122 24.9978C36.3306 24.9918 36.35 24.9897 36.3693 24.9914C36.3877 24.991 36.4059 24.9941 36.423 25.0007C36.4401 25.0073 36.4558 25.0172 36.469 25.0298C36.4823 25.0423 36.4929 25.0574 36.5003 25.0741C36.5077 25.0907 36.5118 25.1087 36.5122 25.1269L36.2423 29.3557L46.1324 29.5542C46.1526 29.5542 46.1725 29.5588 46.1907 29.5675C46.2088 29.5762 46.2247 29.5889 46.2372 29.6047C46.2511 29.6198 46.2615 29.6379 46.2675 29.6575C46.2736 29.6771 46.2751 29.6978 46.2721 29.7181L45.9165 32.135C45.9116 32.1632 45.8985 32.1892 45.8787 32.21C45.8589 32.2307 45.8334 32.2452 45.8054 32.2516C45.7737 32.2516 42.6844 32.9512 39.4554 33.4932C36.455 34.0037 34.6834 34.1549 33.6229 34.1549Z" fill="#148532"/>
<path id="Vector_96" d="M44.9513 29.6866C44.9513 29.6866 48.7041 29.173 48.6533 29.3998C48.6025 29.6267 47.4119 30.1687 47.4119 30.1687C47.4119 30.1687 49.9519 29.3148 50.1996 29.5385C50.4472 29.7622 49.4884 30.4429 48.6533 30.8966C47.2277 31.7406 45.6204 32.2364 43.9639 32.343" fill="white"/>
<path id="Vector_97" d="M43.9639 32.4753C43.9252 32.4753 43.888 32.4601 43.8606 32.4329C43.8333 32.4057 43.8179 32.3688 43.8179 32.3304C43.8179 32.292 43.8333 32.2551 43.8606 32.2279C43.888 32.2007 43.9252 32.1854 43.9639 32.1854C45.5855 32.0832 47.1592 31.5993 48.555 30.7737H48.5899C49.5646 30.2443 50.1012 29.7622 50.1012 29.633C49.9234 29.57 48.5867 29.9261 47.4628 30.3042C47.4453 30.311 47.4266 30.3144 47.4078 30.314C47.3889 30.3137 47.3704 30.3097 47.3531 30.3022C47.3359 30.2948 47.3203 30.284 47.3072 30.2705C47.2942 30.2571 47.2839 30.2412 47.277 30.2239C47.2631 30.1888 47.2639 30.1496 47.279 30.115C47.2942 30.0805 47.3226 30.0533 47.358 30.0395C47.711 29.8858 48.0517 29.7057 48.3772 29.5007C47.8247 29.5007 46.3356 29.6582 44.9799 29.8473C44.9606 29.8508 44.9407 29.8505 44.9215 29.8462C44.9023 29.8419 44.8842 29.8339 44.8682 29.8225C44.8522 29.8111 44.8387 29.7966 44.8285 29.7799C44.8183 29.7632 44.8116 29.7446 44.8088 29.7252C44.806 29.7059 44.8072 29.6862 44.8123 29.6674C44.8174 29.6485 44.8262 29.6308 44.8384 29.6154C44.8505 29.6001 44.8656 29.5873 44.8829 29.5778C44.9001 29.5684 44.9191 29.5625 44.9386 29.5605C48.5454 29.0658 48.701 29.2454 48.7486 29.299C48.7654 29.3195 48.7777 29.3433 48.7848 29.3688C48.7919 29.3943 48.7937 29.4209 48.7899 29.4471C48.7644 29.5171 48.7206 29.5791 48.6629 29.6267C49.444 29.4093 50.1202 29.2801 50.2917 29.4345C50.3241 29.4634 50.3489 29.4998 50.3638 29.5405C50.3788 29.5811 50.3834 29.6248 50.3774 29.6677C50.3234 30.134 48.9836 30.8809 48.7169 31.0258L48.682 31.0447C47.2476 31.8919 45.63 32.3867 43.9639 32.488V32.4753Z" fill="#148532"/>
<path id="Vector_98" d="M42.1133 41.3301C42.1007 41.3331 42.0877 41.3331 42.0752 41.3301C42.0548 41.3257 42.0356 41.3172 42.0187 41.3052C42.0018 41.2931 41.9875 41.2778 41.9768 41.2601C41.9661 41.2423 41.9591 41.2226 41.9564 41.2022C41.9537 41.1817 41.9552 41.1609 41.9609 41.141L43.1261 36.5624C43.1313 36.5423 43.1404 36.5234 43.1529 36.5068C43.1655 36.4902 43.1812 36.4763 43.1992 36.4657C43.2172 36.4552 43.2371 36.4483 43.2578 36.4454C43.2785 36.4425 43.2995 36.4437 43.3198 36.4489C43.3595 36.46 43.3935 36.4858 43.4147 36.5209C43.436 36.5561 43.4429 36.598 43.4341 36.638L42.2657 41.1977C42.2604 41.2342 42.2421 41.2676 42.2141 41.2919C42.1862 41.3161 42.1504 41.3297 42.1133 41.3301Z" fill="white"/>
<path id="Vector_99" d="M53.8607 23.8664C53.6976 23.7201 53.492 23.6285 53.2734 23.6049C53.2423 23.601 53.2108 23.6034 53.1808 23.6121C53.1507 23.6208 53.1228 23.6355 53.0987 23.6553C53.0162 23.7404 53.0765 23.8822 53.1432 23.9704C53.34 24.2855 53.5496 24.566 53.7782 24.8496C53.5491 24.6595 53.28 24.5228 52.9908 24.4494C52.8885 24.4109 52.7756 24.4109 52.6733 24.4494C52.6091 24.4916 52.5613 24.5542 52.5376 24.6269C52.514 24.6996 52.5159 24.7781 52.5431 24.8496C52.6004 24.9914 52.6907 25.1178 52.8066 25.2183L53.2956 25.7162C53.0903 25.5454 52.8403 25.4362 52.5749 25.401C52.5199 25.3881 52.4626 25.388 52.4076 25.4005C52.3525 25.4131 52.3011 25.4381 52.2574 25.4735C52.1367 25.6059 52.2574 25.817 52.3717 25.9462C52.5206 26.0982 52.6945 26.224 52.886 26.318L52.4955 26.1542C52.4316 26.1162 52.3563 26.1017 52.2828 26.1132C52.1208 26.1542 52.1145 26.381 52.1621 26.5386C52.2077 26.7434 52.3078 26.9323 52.4518 27.0858C52.5959 27.2393 52.7787 27.3518 52.9813 27.4115C53.1392 27.4282 53.299 27.4128 53.4507 27.3662C53.6025 27.3196 53.7431 27.2428 53.8639 27.1405C54.12 26.9498 54.3278 26.7025 54.4708 26.4182C54.6138 26.1339 54.6881 25.8204 54.6878 25.5027C54.6875 25.1849 54.6126 24.8716 54.469 24.5876C54.3255 24.3036 54.1172 24.0566 53.8607 23.8664Z" fill="white"/>
<path id="Vector_100" d="M53.1367 27.5879C53.0796 27.5926 53.0223 27.5926 52.9652 27.5879C52.7371 27.5228 52.5307 27.3981 52.3676 27.2268C52.2046 27.0555 52.0908 26.844 52.0381 26.6142C51.9884 26.4655 51.9964 26.3037 52.0604 26.1605C52.0972 26.0968 52.1541 26.047 52.2223 26.0187C52.1464 25.9586 52.0939 25.8743 52.0737 25.7802C52.0534 25.686 52.0668 25.5878 52.1113 25.5023C52.1559 25.4168 52.229 25.3493 52.3181 25.3113C52.4073 25.2733 52.5069 25.2671 52.6001 25.2939H52.67C52.5539 25.1866 52.4647 25.0539 52.4096 24.9063C52.3728 24.8025 52.3729 24.6893 52.4099 24.5856C52.4468 24.4818 52.5184 24.3937 52.6128 24.3359C52.745 24.2874 52.8902 24.2874 53.0224 24.3359C53.0979 24.3543 53.1721 24.3774 53.2446 24.4053L53.0192 24.0902C52.8414 23.8129 52.9271 23.6521 52.997 23.5828C53.035 23.5487 53.0798 23.5227 53.1284 23.5064C53.177 23.4902 53.2284 23.484 53.2796 23.4883C53.5282 23.5141 53.7625 23.6166 53.9495 23.7813C54.2338 23.9948 54.4639 24.2712 54.6215 24.5885C54.7792 24.9058 54.86 25.2552 54.8575 25.609C54.8478 25.9352 54.7632 26.2548 54.6103 26.5437C54.4573 26.8326 54.24 27.083 53.9749 27.276C53.7357 27.4652 53.4423 27.5744 53.1367 27.5879ZM52.3429 26.2707C52.3263 26.3096 52.3178 26.3514 52.3178 26.3936C52.3178 26.4359 52.3263 26.4777 52.3429 26.5165C52.379 26.6926 52.4607 26.8564 52.5798 26.9917C52.6989 27.1271 52.8514 27.2294 53.0224 27.2886C53.3017 27.3117 53.579 27.2245 53.7939 27.0459C54.0298 26.876 54.2228 26.6541 54.3578 26.3977C54.4928 26.1413 54.566 25.8573 54.5718 25.568C54.5729 25.2586 54.5015 24.9532 54.3632 24.6759C54.2248 24.3987 54.0234 24.1571 53.7748 23.9704C53.6337 23.8445 53.4579 23.7633 53.27 23.7372C53.2491 23.7324 53.2274 23.7324 53.2065 23.7372C53.2121 23.7913 53.233 23.8426 53.2669 23.8853C53.4637 24.2004 53.6733 24.4777 53.9019 24.755C53.9229 24.7834 53.9327 24.8184 53.9296 24.8535C53.9265 24.8886 53.9107 24.9214 53.885 24.9457C53.8593 24.97 53.8256 24.9843 53.7901 24.9857C53.7547 24.9871 53.7199 24.9757 53.6923 24.9536C53.4816 24.777 53.2328 24.6509 52.9652 24.5849C52.8984 24.5621 52.8257 24.5621 52.7589 24.5849C52.6922 24.6164 52.6731 24.7298 52.6985 24.8118C52.7508 24.9328 52.8301 25.0405 52.9303 25.1269L53.4161 25.6248C53.4421 25.6507 53.4566 25.6858 53.4566 25.7224C53.4566 25.759 53.4421 25.7942 53.4161 25.8201C53.3895 25.8452 53.3543 25.8591 53.3176 25.8591C53.281 25.8591 53.2458 25.8452 53.2192 25.8201C53.0368 25.6728 52.8172 25.578 52.5842 25.546C52.5532 25.5384 52.5209 25.5369 52.4893 25.5418C52.4577 25.5467 52.4273 25.5577 52.4001 25.5743C52.3556 25.6248 52.4223 25.7603 52.508 25.8485C52.6454 25.9897 52.8066 26.1059 52.9843 26.192C53.0184 26.2083 53.0445 26.2374 53.057 26.2728C53.0695 26.3083 53.0673 26.3472 53.0509 26.381C53.0437 26.3982 53.0331 26.4138 53.0196 26.4268C53.0062 26.4398 52.9903 26.45 52.9728 26.4568C52.9553 26.4635 52.9366 26.4667 52.9179 26.4662C52.8991 26.4656 52.8807 26.4613 52.8636 26.4535L52.4731 26.2897C52.4313 26.2754 52.3871 26.269 52.3429 26.2707Z" fill="#148532"/>
<path id="Vector_101" d="M36.3344 24.7613C36.2962 24.7589 36.2606 24.7417 36.235 24.7134C36.2095 24.6851 36.1962 24.648 36.1979 24.6101L36.3916 21.0304C36.3902 21.0098 36.3933 20.9891 36.4006 20.9698C36.4079 20.9505 36.4193 20.9329 36.434 20.9183C36.4487 20.9037 36.4664 20.8924 36.4859 20.8851C36.5053 20.8778 36.5262 20.8748 36.5469 20.8761C36.5677 20.8775 36.5879 20.8832 36.6062 20.893C36.6246 20.9027 36.6406 20.9163 36.6533 20.9327C36.6659 20.949 36.6749 20.9679 36.6796 20.9881C36.6843 21.0082 36.6846 21.029 36.6805 21.0493L36.4773 24.6195C36.4777 24.6383 36.4743 24.6569 36.4673 24.6743C36.4603 24.6917 36.4498 24.7075 36.4364 24.7208C36.4231 24.734 36.4071 24.7444 36.3896 24.7514C36.3721 24.7584 36.3533 24.7618 36.3344 24.7613Z" fill="#148532"/>
<path id="Vector_102" d="M91.6206 74.5998C91.5937 74.6002 91.5671 74.5931 91.5441 74.5791C91.521 74.5652 91.5025 74.5451 91.4905 74.5211C91.4725 74.4872 91.4687 74.4476 91.48 74.411C91.4913 74.3744 91.5168 74.3438 91.5508 74.3257L100.222 69.8007C100.257 69.7829 100.297 69.7796 100.335 69.7914C100.372 69.8032 100.403 69.8291 100.422 69.8637C100.439 69.8981 100.441 69.9376 100.43 69.974C100.418 70.0105 100.392 70.0409 100.358 70.059L91.6873 74.5683C91.6677 74.5835 91.6449 74.5943 91.6206 74.5998Z" fill="#D1D3D4"/>
<path id="Vector_103" d="M31.8735 61.4753C32.9625 61.4753 33.8452 61.1635 33.8452 60.7789C33.8452 60.3943 32.9625 60.0825 31.8735 60.0825C30.7846 60.0825 29.9019 60.3943 29.9019 60.7789C29.9019 61.1635 30.7846 61.4753 31.8735 61.4753Z" fill="#E6E7E8"/>
<path id="Vector_104" d="M76.6124 88.3105C76.5752 88.3105 76.5395 88.2966 76.5123 88.2714C76.4852 88.2462 76.4688 88.2117 76.4663 88.175L76.2123 84.8473C76.2094 84.8089 76.222 84.7709 76.2473 84.7416C76.2726 84.7124 76.3085 84.6943 76.3473 84.6914C76.386 84.6884 76.4243 84.7009 76.4538 84.726C76.4833 84.7511 76.5015 84.7869 76.5044 84.8253L76.7584 88.1529C76.7602 88.1722 76.758 88.1916 76.752 88.2101C76.7461 88.2285 76.7364 88.2456 76.7237 88.2603C76.711 88.275 76.6954 88.287 76.6779 88.2956C76.6604 88.3042 76.6414 88.3093 76.6219 88.3105H76.6124Z" fill="#D1D3D4"/>
</g>
</g>
</svg>
