<svg width="87" height="79" viewBox="0 0 87 79" fill="none" xmlns="http://www.w3.org/2000/svg">
<g id="#561_online_report_flatline">
<path id="Vector" d="M83.8115 10.0611H5.71638C4.27684 10.0611 3.10986 11.2281 3.10986 12.6676V60.7989C3.10986 62.2384 4.27684 63.4054 5.71638 63.4054H83.8115C85.251 63.4054 86.418 62.2384 86.418 60.7989V12.6676C86.418 11.2281 85.251 10.0611 83.8115 10.0611Z" fill="white"/>
<path id="Vector_2" d="M83.8116 63.5915H5.71653C4.97616 63.5906 4.2664 63.296 3.74288 62.7725C3.21936 62.249 2.92481 61.5392 2.92383 60.7988V12.6713C2.92481 11.9306 3.21924 11.2204 3.74265 10.6963C4.26607 10.1722 4.97582 9.87683 5.71653 9.87486H83.8116C84.5523 9.87683 85.2621 10.1722 85.7855 10.6963C86.3089 11.2204 86.6033 11.9306 86.6043 12.6713V60.7988C86.6033 61.5392 86.3088 62.249 85.7853 62.7725C85.2618 63.296 84.552 63.5906 83.8116 63.5915ZM5.71653 10.2472C5.07427 10.2482 4.45866 10.504 4.00486 10.9585C3.55107 11.413 3.29619 12.029 3.29619 12.6713V60.7988C3.29717 61.4405 3.55249 62.0555 4.00618 62.5092C4.45987 62.9629 5.07492 63.2182 5.71653 63.2192H83.8116C84.4532 63.2182 85.0683 62.9629 85.522 62.5092C85.9757 62.0555 86.231 61.4405 86.232 60.7988V12.6713C86.232 12.029 85.9771 11.413 85.5233 10.9585C85.0695 10.504 84.4539 10.2482 83.8116 10.2472H5.71653Z" fill="#148532"/>
<path id="Vector_3" d="M86.4182 55.1576H3.11001C3.06093 55.1567 3.01413 55.1368 2.97942 55.102C2.9447 55.0673 2.92478 55.0205 2.92383 54.9715C2.92383 54.9221 2.94344 54.8747 2.97836 54.8398C3.01327 54.8049 3.06063 54.7853 3.11001 54.7853H86.4182C86.4675 54.7853 86.5149 54.8049 86.5498 54.8398C86.5847 54.8747 86.6043 54.9221 86.6043 54.9715C86.6043 55.0208 86.5847 55.0682 86.5498 55.1031C86.5149 55.138 86.4675 55.1576 86.4182 55.1576Z" fill="#148532"/>
<path id="Vector_4" d="M55.4115 73.7198H34.1162L38.0446 63.4054H51.4868L55.4115 73.7198Z" fill="white"/>
<path id="Vector_5" d="M55.4114 73.9059H34.1162C34.0859 73.906 34.0561 73.8985 34.0295 73.8842C34.0028 73.8699 33.9802 73.8492 33.9635 73.824C33.9462 73.7994 33.9351 73.7709 33.9313 73.7411C33.9274 73.7113 33.9308 73.6809 33.9411 73.6527L37.8695 63.3421C37.8826 63.3061 37.9063 63.275 37.9377 63.253C37.969 63.231 38.0063 63.2192 38.0446 63.2192H51.4942C51.532 63.2194 51.5687 63.2314 51.5994 63.2534C51.6301 63.2754 51.6532 63.3064 51.6655 63.3421L55.5902 73.6527C55.6002 73.681 55.6034 73.7113 55.5994 73.7411C55.5954 73.7709 55.5844 73.7993 55.5674 73.824C55.5503 73.8487 55.5276 73.8691 55.5011 73.8833C55.4747 73.8975 55.4452 73.9053 55.4152 73.9059H55.4114ZM34.388 73.5336H55.1433L51.3564 63.5915H38.1712L34.388 73.5336Z" fill="#148532"/>
<path id="Vector_6" d="M57.9099 73.1131H31.6175C30.9286 73.1131 30.3701 73.6716 30.3701 74.3605V74.6473C30.3701 75.3362 30.9286 75.8947 31.6175 75.8947H57.9099C58.5988 75.8947 59.1573 75.3362 59.1573 74.6473V74.3605C59.1573 73.6716 58.5988 73.1131 57.9099 73.1131Z" fill="white"/>
<path id="Vector_7" d="M57.91 76.0808H31.6177C31.2375 76.0808 30.8728 75.9298 30.604 75.6609C30.3351 75.3921 30.1841 75.0274 30.1841 74.6472V74.3642C30.1841 73.9837 30.335 73.6186 30.6037 73.3492C30.8725 73.0798 31.2371 72.9279 31.6177 72.9269H57.91C58.2906 72.9279 58.6552 73.0798 58.9239 73.3492C59.1927 73.6186 59.3436 73.9837 59.3436 74.3642V74.6472C59.3436 74.8355 59.3065 75.0219 59.2345 75.1958C59.1624 75.3698 59.0568 75.5278 58.9237 75.6609C58.7906 75.794 58.6326 75.8996 58.4586 75.9717C58.2847 76.0437 58.0983 76.0808 57.91 76.0808ZM31.6177 73.2993C31.3359 73.3003 31.066 73.4129 30.867 73.6125C30.6681 73.8121 30.5564 74.0824 30.5564 74.3642V74.6472C30.5574 74.9284 30.6695 75.1977 30.8683 75.3965C31.0672 75.5953 31.3365 75.7075 31.6177 75.7084H57.91C58.1912 75.7075 58.4605 75.5953 58.6593 75.3965C58.8581 75.1977 58.9703 74.9284 58.9712 74.6472V74.3642C58.9713 74.0824 58.8596 73.8121 58.6606 73.6125C58.4617 73.4129 58.1918 73.3003 57.91 73.2993H31.6177Z" fill="#148532"/>
<path id="Vector_8" d="M83.4428 12.5746H6.08496V51.7022H83.4428V12.5746Z" fill="#68E1FD"/>
<path id="Vector_9" d="M83.4428 12.5746H6.08496V51.7022H83.4428V12.5746Z" fill="white"/>
<path id="Vector_10" d="M36.1011 68.1157L51.9562 65.0363L51.3343 63.4054H37.8921L36.1011 68.1157Z" fill="#148532"/>
<path id="Vector_11" d="M36.1011 68.3019C36.0707 68.3021 36.0408 68.2949 36.0139 68.2809C35.9869 68.2669 35.9639 68.2465 35.9466 68.2216C35.9293 68.1966 35.9185 68.1678 35.9149 68.1377C35.9113 68.1076 35.9151 68.077 35.9261 68.0487L37.7171 63.3421C37.7306 63.3064 37.7545 63.2756 37.7857 63.2536C37.8169 63.2317 37.854 63.2197 37.8921 63.2192H51.3343C51.3726 63.2192 51.4099 63.231 51.4412 63.253C51.4725 63.275 51.4963 63.3061 51.5093 63.3421L52.1312 64.9693C52.1423 64.9938 52.148 65.0205 52.148 65.0475C52.148 65.0744 52.1423 65.1011 52.1312 65.1257C52.1172 65.1494 52.0983 65.17 52.0759 65.186C52.0534 65.2021 52.0279 65.2132 52.0009 65.2187L36.1458 68.2982L36.1011 68.3019ZM38.0225 63.5915L36.3915 67.87L51.703 64.8911L51.2077 63.5878L38.0225 63.5915Z" fill="#148532"/>
<path id="Vector_12" d="M72.9645 3.38456V51.7057H16.5854V0.185989H69.7659C70.6143 0.185989 71.4278 0.522981 72.0277 1.12283C72.6275 1.72268 72.9645 2.53625 72.9645 3.38456Z" fill="white"/>
<path id="Vector_13" d="M72.9647 51.8921H16.5856C16.5365 51.8912 16.4897 51.8713 16.455 51.8365C16.4203 51.8018 16.4004 51.755 16.3994 51.706V0.186199C16.3994 0.136821 16.419 0.0894648 16.4539 0.0545493C16.4889 0.0196338 16.5362 1.85581e-05 16.5856 1.85581e-05H69.7661C70.211 -0.0014571 70.6518 0.0850839 71.0631 0.254661C71.4744 0.424238 71.8482 0.673501 72.1628 0.988099C72.4773 1.3027 72.7266 1.67642 72.8962 2.08774C73.0658 2.49906 73.1523 2.93987 73.1508 3.38477V51.706C73.1508 51.7553 73.1312 51.8027 73.0963 51.8376C73.0614 51.8725 73.014 51.8921 72.9647 51.8921ZM16.7718 51.5198H72.7785V3.38477C72.778 2.98984 72.6996 2.59888 72.548 2.23425C72.3963 1.86962 72.1742 1.53846 71.8944 1.25973C71.6146 0.980987 71.2826 0.760133 70.9174 0.609791C70.5522 0.45945 70.161 0.38257 69.7661 0.383549H16.7718V51.5198Z" fill="#148532"/>
<path id="Vector_14" d="M43.943 16.9721H19.922C19.8726 16.9721 19.8253 16.9525 19.7904 16.9176C19.7555 16.8827 19.7358 16.8353 19.7358 16.786V8.36691C19.7358 8.31753 19.7555 8.27017 19.7904 8.23526C19.8253 8.20034 19.8726 8.18073 19.922 8.18073C19.9714 8.18073 20.0188 8.20034 20.0537 8.23526C20.0886 8.27017 20.1082 8.31753 20.1082 8.36691V16.5998H43.9393C43.9886 16.5998 44.036 16.6194 44.0709 16.6543C44.1058 16.6892 44.1254 16.7366 44.1254 16.786C44.1254 16.8347 44.1063 16.8815 44.0722 16.9163C44.0381 16.9511 43.9917 16.9712 43.943 16.9721Z" fill="#D1D3D4"/>
<path id="Vector_15" d="M39.266 37.2472H20.1378C20.0885 37.2472 20.0411 37.2276 20.0062 37.1927C19.9713 37.1578 19.9517 37.1104 19.9517 37.061V19.5191C19.9517 19.4698 19.9713 19.4224 20.0062 19.3875C20.0411 19.3526 20.0885 19.333 20.1378 19.333H39.266C39.3154 19.333 39.3627 19.3526 39.3976 19.3875C39.4326 19.4224 39.4522 19.4698 39.4522 19.5191V37.0759C39.4484 37.1227 39.4272 37.1663 39.3926 37.198C39.3581 37.2298 39.3129 37.2474 39.266 37.2472ZM20.324 36.8749H39.0798V19.7053H20.324V36.8749Z" fill="#D1D3D4"/>
<path id="Vector_16" d="M69.1929 49.0623H21.2589C21.2096 49.0623 21.1622 49.0427 21.1273 49.0077C21.0924 48.9728 21.0728 48.9255 21.0728 48.8761V40.3751C21.0728 40.3257 21.0924 40.2784 21.1273 40.2435C21.1622 40.2085 21.2096 40.1889 21.2589 40.1889H69.1929C69.2419 40.1899 69.2887 40.2098 69.3235 40.2445C69.3582 40.2792 69.3781 40.326 69.379 40.3751V48.8761C69.379 48.9255 69.3594 48.9728 69.3245 49.0077C69.2896 49.0427 69.2422 49.0623 69.1929 49.0623ZM21.4451 48.6899H68.9955V40.5613H21.4451V48.6899Z" fill="#D1D3D4"/>
<path id="Vector_17" d="M69.1929 43.5776H21.2589C21.2096 43.5776 21.1622 43.558 21.1273 43.523C21.0924 43.4881 21.0728 43.4408 21.0728 43.3914C21.0728 43.342 21.0924 43.2947 21.1273 43.2597C21.1622 43.2248 21.2096 43.2052 21.2589 43.2052H69.1929C69.2419 43.2062 69.2887 43.2261 69.3235 43.2608C69.3582 43.2955 69.3781 43.3423 69.379 43.3914C69.379 43.4408 69.3594 43.4881 69.3245 43.523C69.2896 43.558 69.2422 43.5776 69.1929 43.5776Z" fill="#D1D3D4"/>
<path id="Vector_18" d="M0.525879 74.6804V77.4173C0.525879 77.4173 6.83738 78.162 6.69589 77.8678C6.55439 77.5737 3.08772 75.1012 3.08772 75.1012L0.525879 74.6804Z" fill="#148532"/>
<path id="Vector_19" d="M6.20403 78.11C5.48538 78.11 3.93263 78.002 0.506919 77.6036C0.460835 77.599 0.418131 77.5773 0.387147 77.5429C0.356163 77.5085 0.339126 77.4637 0.339358 77.4174V74.6806C0.339329 74.6535 0.345327 74.6267 0.35692 74.6023C0.368513 74.5778 0.38541 74.5562 0.406383 74.5391C0.426949 74.5208 0.451306 74.5073 0.477703 74.4996C0.5041 74.4919 0.531881 74.4901 0.559049 74.4944L3.08737 74.9189C3.11599 74.9228 3.143 74.9344 3.16557 74.9524C4.22307 75.6971 6.70299 77.4919 6.85194 77.786C6.8683 77.8184 6.87682 77.8541 6.87682 77.8903C6.87682 77.9265 6.8683 77.9622 6.85194 77.9946C6.81098 78.043 6.76629 78.11 6.20403 78.11ZM0.711718 77.2536C2.98684 77.5142 5.45186 77.7488 6.29712 77.7488C5.75347 77.2945 4.31244 76.2296 2.97939 75.2801L0.696823 74.9077L0.711718 77.2536Z" fill="#148532"/>
<path id="Vector_20" d="M0.529297 72.2676V74.6805L3.06879 75.1012L3.48956 72.2676H0.529297Z" fill="white"/>
<path id="Vector_21" d="M3.08762 75.291H3.05783L0.481098 74.8554C0.437677 74.8483 0.398149 74.8262 0.369522 74.7928C0.340895 74.7594 0.32502 74.7169 0.324707 74.6729V72.26C0.324707 72.2107 0.344322 72.1633 0.379238 72.1284C0.414153 72.0935 0.461509 72.0739 0.510887 72.0739H3.48977C3.51655 72.0734 3.54312 72.0788 3.56757 72.0897C3.59203 72.1007 3.61377 72.1169 3.63126 72.1372C3.64922 72.1572 3.66254 72.1809 3.67027 72.2066C3.67799 72.2324 3.67993 72.2595 3.67595 72.2861L3.25146 75.1235C3.2478 75.1479 3.23934 75.1713 3.22655 75.1924C3.21377 75.2135 3.19692 75.2318 3.17698 75.2464C3.15172 75.269 3.12086 75.2844 3.08762 75.291ZM0.730578 74.5203L2.93123 74.8926L3.30359 72.4574H0.711962L0.730578 74.5203Z" fill="#148532"/>
<path id="Vector_22" d="M9.29102 72.9863V75.5705L12.1731 75.779L12.3406 72.9863H9.29102Z" fill="white"/>
<path id="Vector_23" d="M12.173 75.9727L9.29464 75.7604C9.24755 75.7585 9.20303 75.7384 9.17041 75.7044C9.13779 75.6704 9.11959 75.6251 9.11963 75.578V72.9938C9.11963 72.9444 9.13924 72.8971 9.17416 72.8622C9.20908 72.8272 9.25643 72.8076 9.30581 72.8076H12.3554C12.3812 72.8079 12.4067 72.8133 12.4303 72.8235C12.454 72.8337 12.4754 72.8486 12.4932 72.8672C12.5102 72.8857 12.5232 72.9075 12.5315 72.9311C12.5398 72.9548 12.5433 72.9799 12.5416 73.005L12.3741 75.7977C12.371 75.8478 12.3483 75.8946 12.3108 75.928C12.2723 75.9602 12.223 75.9762 12.173 75.9727ZM9.4771 75.403L11.998 75.5891L12.1432 73.18H9.4771V75.403Z" fill="#148532"/>
<path id="Vector_24" d="M13.5473 46.828L12.6238 73.5225H8.87045L6.90439 53.6459L3.78773 73.1837L0.187012 72.9863L2.16424 47.044L13.5473 46.828Z" fill="#148532"/>
<path id="Vector_25" d="M12.6236 73.7087H8.87024C8.82393 73.7089 8.77919 73.6919 8.74476 73.6609C8.71033 73.6299 8.68869 73.5872 8.68406 73.5411L6.86322 55.0981L3.96998 73.2134C3.9635 73.2592 3.93991 73.3007 3.90397 73.3298C3.86804 73.3588 3.82243 73.3731 3.77635 73.3698L0.175631 73.1725C0.150829 73.1711 0.12656 73.1647 0.104254 73.1538C0.0819466 73.1428 0.0620516 73.1276 0.0457427 73.1088C0.0294338 73.0901 0.0170407 73.0683 0.00929134 73.0447C0.00154194 73.0211 -0.00140625 72.9961 0.000620968 72.9714L1.97041 47.0291C1.97325 46.9826 1.99373 46.939 2.02764 46.9072C2.06156 46.8754 2.10635 46.8577 2.15286 46.8578L13.5359 46.6418C13.5874 46.6417 13.6368 46.6618 13.6737 46.6977C13.7076 46.734 13.7263 46.782 13.7258 46.8317L12.8024 73.5299C12.8005 73.5767 12.7811 73.6211 12.748 73.6543C12.7148 73.6874 12.6704 73.7068 12.6236 73.7087ZM9.03781 73.3363H12.4449L13.3535 47.0179L2.34277 47.2264L0.395322 72.8113L3.63858 72.99L6.72917 53.6273C6.72917 53.5779 6.74879 53.5305 6.7837 53.4956C6.81862 53.4607 6.86597 53.4411 6.91535 53.4411C6.96473 53.4411 7.01208 53.4607 7.047 53.4956C7.08191 53.5305 7.10153 53.5779 7.10153 53.6273L9.03781 73.3363Z" fill="#148532"/>
<path id="Vector_26" d="M21.3332 39.2765C22.0553 38.9864 22.8201 38.8166 23.5971 38.7738C24.878 38.7068 25.3919 37.9099 25.3435 37.3439C25.2951 36.7779 24.0961 36.3125 23.2806 36.4503C22.4651 36.588 20.5698 37.869 20.5698 37.869L21.3332 39.2765Z" fill="white"/>
<path id="Vector_27" d="M21.3334 39.4812C21.2998 39.4817 21.2667 39.4729 21.2378 39.4558C21.2089 39.4388 21.1853 39.414 21.1695 39.3844L20.4025 37.9769C20.3807 37.9363 20.3748 37.8891 20.3858 37.8444C20.3968 37.7997 20.4239 37.7607 20.462 37.7348C20.5402 37.679 22.3983 36.4316 23.2436 36.2863C23.912 36.1984 24.5892 36.3631 25.1426 36.7481C25.2423 36.8173 25.3267 36.9062 25.3907 37.0093C25.4548 37.1124 25.4971 37.2275 25.515 37.3476C25.5245 37.5219 25.499 37.6963 25.4402 37.8606C25.3814 38.0249 25.2903 38.1759 25.1724 38.3045C24.9701 38.5199 24.7254 38.691 24.4536 38.807C24.1819 38.923 23.889 38.9814 23.5936 38.9785C22.8396 39.0205 22.0976 39.1853 21.3967 39.4663C21.3766 39.4749 21.3552 39.4799 21.3334 39.4812ZM20.8121 37.9508L21.4153 39.0679C22.112 38.8085 22.8438 38.6554 23.5861 38.6136C23.8309 38.6189 24.0742 38.5733 24.3004 38.4797C24.5267 38.3862 24.731 38.2466 24.9006 38.07C24.9865 37.9793 25.0532 37.8722 25.0967 37.7551C25.1403 37.638 25.1596 37.5133 25.1538 37.3885C25.1389 37.3189 25.1101 37.253 25.0692 37.1948C25.0282 37.1366 24.9759 37.0872 24.9155 37.0497C24.4421 36.7347 23.8705 36.6024 23.3069 36.6773C22.6627 36.7444 21.2589 37.638 20.8121 37.9322V37.9508Z" fill="#148532"/>
<path id="Vector_28" d="M12.9886 30.5672C12.9886 30.5672 15.9154 37.8469 16.4926 37.9921C17.0697 38.1373 21.4598 36.9048 21.4598 36.9048L21.5604 39.6081C21.5604 39.6081 16.8649 42.4976 15.0552 41.4923C13.2456 40.4869 8.02881 35.2478 8.02881 35.2478L12.9886 30.5672Z" fill="#148532"/>
<path id="Vector_29" d="M24.1294 37.2807L26.4827 38.8111L29.5659 33.989L27.2125 32.4586L24.1294 37.2807Z" fill="#148532"/>
<path id="Vector_30" d="M26.4827 38.9972C26.4468 38.9989 26.4114 38.9884 26.3822 38.9674L24.0289 37.437C24.0085 37.4242 23.9908 37.4074 23.977 37.3876C23.9631 37.3679 23.9533 37.3456 23.9481 37.3221C23.9429 37.2985 23.9425 37.2742 23.9467 37.2505C23.951 37.2267 23.9599 37.2041 23.973 37.1838L27.0561 32.3432C27.0694 32.3221 27.0868 32.304 27.1073 32.2899C27.1278 32.2758 27.1509 32.2661 27.1753 32.2612C27.1988 32.2551 27.2233 32.2543 27.2471 32.2588C27.2709 32.2633 27.2935 32.273 27.3131 32.2873L29.6664 33.8177C29.6868 33.8306 29.7044 33.8474 29.7183 33.8671C29.7321 33.8868 29.7419 33.9091 29.7471 33.9327C29.7523 33.9562 29.7528 33.9805 29.7485 34.0043C29.7443 34.028 29.7353 34.0507 29.7222 34.0709L26.6391 38.9116C26.6266 38.9333 26.6094 38.9519 26.5888 38.9661C26.5682 38.9802 26.5447 38.9896 26.5199 38.9935L26.4827 38.9972ZM24.3863 37.2471L26.4269 38.5727L29.3089 34.0597L27.2684 32.7341L24.3863 37.2471Z" fill="#148532"/>
<path id="Vector_31" d="M26.5869 33.8176L37.7093 16.4098L39.5115 17.5827" fill="#148532"/>
<path id="Vector_32" d="M26.5872 34.0038C26.5517 34.0026 26.5171 33.9924 26.4867 33.974C26.4452 33.9473 26.4161 33.9053 26.4056 33.8571C26.3951 33.8089 26.4042 33.7586 26.4308 33.7171L37.5532 16.3093C37.5794 16.2678 37.6209 16.2384 37.6686 16.2273C37.7174 16.2171 37.7682 16.2265 37.8101 16.2534L39.6123 17.4263C39.651 17.4542 39.6775 17.4958 39.6864 17.5427C39.6953 17.5895 39.6859 17.638 39.6601 17.6781C39.6344 17.7182 39.5942 17.7469 39.5479 17.7582C39.5016 17.7696 39.4527 17.7627 39.4113 17.7391L37.7654 16.6667L26.7436 33.9182C26.7273 33.9449 26.7043 33.9669 26.6768 33.9819C26.6494 33.9969 26.6185 34.0045 26.5872 34.0038Z" fill="#148532"/>
<path id="Vector_33" d="M41.047 30.6627C44.043 25.808 43.2952 19.9122 39.3768 17.4941C35.4584 15.0759 29.8533 17.0511 26.8573 21.9058C23.8613 26.7604 24.6091 32.6562 28.5275 35.0744C32.4459 37.4925 38.0511 35.5173 41.047 30.6627Z" fill="#148532"/>
<path id="Vector_34" d="M32.2655 36.2938C30.8566 36.3063 29.4746 35.9077 28.2887 35.147C24.3491 32.5851 23.6863 26.5268 26.7992 21.6377C28.5158 18.953 31.0851 17.0726 33.848 16.4731C34.8228 16.242 35.8338 16.2073 36.8222 16.3709C37.8105 16.5346 38.7564 16.8934 39.6047 17.4263C43.5443 19.9882 44.2108 26.0465 41.0941 30.9318C39.3776 33.6203 36.8083 35.5007 34.0416 36.1002C33.4579 36.2261 32.8626 36.291 32.2655 36.2938ZM27.1194 21.8388C24.1071 26.5529 24.7252 32.384 28.4935 34.8342C29.2981 35.3454 30.1977 35.6887 31.1383 35.8436C32.0789 35.9984 33.0411 35.9616 33.9671 35.7353C36.637 35.1581 39.1206 33.3336 40.7813 30.7308C43.7937 26.0167 43.1793 20.1892 39.4111 17.7391C38.606 17.2274 37.7057 16.8838 36.7644 16.7289C35.8231 16.5741 34.8602 16.6112 33.9336 16.838C31.2638 17.4152 28.7839 19.236 27.1194 21.8388Z" fill="#148532"/>
<path id="Vector_35" d="M39.4973 29.7962C42.5208 24.9472 41.799 19.038 37.8852 16.5976C33.9714 14.1572 28.3476 16.1098 25.3241 20.9588C22.3006 25.8078 23.0224 31.717 26.9362 34.1574C30.85 36.5977 36.4738 34.6452 39.4973 29.7962Z" fill="white"/>
<path id="Vector_36" d="M30.4633 35.121C29.0544 35.1335 27.6724 34.7349 26.4865 33.9741C22.5469 31.4123 21.8804 25.3503 24.9971 20.4649C26.7137 17.7802 29.2829 15.8998 32.0496 15.3003C33.0243 15.0681 34.0355 15.0328 35.024 15.1965C36.0125 15.3602 36.9584 15.7196 37.8063 16.2535C41.7458 18.8153 42.4086 24.8736 39.2957 29.759C37.5829 32.4437 35.0136 34.3279 32.2469 34.9274C31.6607 35.0538 31.063 35.1187 30.4633 35.121ZM33.863 15.4753C33.2813 15.4724 32.7009 15.531 32.1315 15.6503C29.4617 16.2274 26.978 18.0483 25.3173 20.6511C22.3049 25.3652 22.9193 31.1963 26.6876 33.6464C27.4927 34.1582 28.3929 34.5018 29.3342 34.6566C30.2755 34.8115 31.2384 34.7744 32.165 34.5476C34.8348 33.9704 37.3185 32.1458 38.9792 29.543C41.9916 24.829 41.3735 19.0015 37.6052 16.5514C36.4906 15.8327 35.189 15.4584 33.863 15.4753Z" fill="#148532"/>
<path id="Vector_37" d="M37.7618 28.578C40.1324 24.7366 39.5402 20.0711 36.4391 18.1573C33.338 16.2435 28.9023 17.8061 26.5317 21.6475C24.161 25.4889 24.7532 30.1544 27.8543 32.0682C30.9554 33.982 35.3911 32.4193 37.7618 28.578Z" fill="white"/>
<path id="Vector_38" d="M30.8136 33.0693C29.6911 33.0798 28.5899 32.7628 27.6448 32.157C24.5133 30.1165 23.9808 25.2981 26.4607 21.4144C27.7105 19.3668 29.7176 17.8949 32.0461 17.3184C32.8213 17.1315 33.626 17.1011 34.413 17.2289C35.2001 17.3568 35.9538 17.6404 36.6299 18.0632C39.7651 20.1 40.2976 24.9183 37.8177 28.802C36.5673 30.8491 34.5605 32.3207 32.2323 32.898C31.7669 33.0059 31.2913 33.0634 30.8136 33.0693ZM33.5058 17.5121C33.0473 17.5142 32.5905 17.5654 32.1429 17.6647C29.9021 18.2176 27.9715 19.6354 26.7735 21.608C24.4053 25.3316 24.8856 29.9079 27.8496 31.8368C28.4823 32.2388 29.1898 32.5088 29.9296 32.6303C30.6693 32.7519 31.426 32.7226 32.1541 32.5442C34.3923 31.9903 36.321 30.5743 37.5198 28.6047C39.8917 24.8811 39.4114 20.301 36.4474 18.3722C35.5718 17.8046 34.5492 17.5056 33.5058 17.5121Z" fill="#148532"/>
<path id="Vector_39" d="M26.6171 21.5149C24.1893 25.3204 24.692 30.0158 27.7342 32.0005C27.9323 32.1295 28.1388 32.2452 28.3523 32.3468C25.8091 30.1722 25.5149 25.838 27.7863 22.2931C30.0577 18.7482 34.0904 17.2178 37.0953 18.6589C36.9155 18.5059 36.7265 18.3641 36.5293 18.2344C33.4946 16.2385 29.0486 17.7131 26.6171 21.5149Z" fill="#148532"/>
<path id="Vector_40" d="M28.3635 32.5332C28.3352 32.5328 28.3072 32.5265 28.2816 32.5146C28.0612 32.4049 27.8484 32.2805 27.6448 32.1422C24.5133 30.1054 23.9808 25.2871 26.4607 21.3997C27.7105 19.3521 29.7176 17.8802 32.0461 17.3037C32.8214 17.1178 33.6259 17.0879 34.4128 17.2157C35.1997 17.3436 35.9533 17.6266 36.6299 18.0484C36.8344 18.1816 37.0297 18.3284 37.2145 18.4878C37.2483 18.5173 37.2703 18.558 37.2765 18.6024C37.2827 18.6469 37.2727 18.6921 37.2482 18.7297C37.2237 18.7673 37.1865 18.7948 37.1433 18.8071C37.1002 18.8195 37.0541 18.8158 37.0134 18.7969C34.0345 17.3782 30.1433 18.9123 27.9353 22.3641C25.7272 25.8158 25.958 30.0421 28.464 32.1869C28.4928 32.2116 28.5134 32.2444 28.5231 32.2811C28.5327 32.3177 28.5309 32.3564 28.518 32.3921C28.505 32.4277 28.4815 32.4585 28.4506 32.4804C28.4196 32.5023 28.3828 32.5142 28.3449 32.5146L28.3635 32.5332ZM33.5058 17.5122C33.0473 17.5145 32.5905 17.5657 32.1429 17.6649C29.9028 18.2171 27.9732 19.6352 26.7772 21.6082C24.5728 25.0562 24.8298 29.2639 27.2538 31.3863C25.5708 28.9697 25.6639 25.2722 27.6262 22.1779C29.5885 19.0836 32.91 17.4638 35.7921 18.0186C35.0767 17.6832 34.2959 17.5103 33.5058 17.5122Z" fill="#148532"/>
<path id="Vector_41" d="M15.3756 52.2495L16.6043 53.0501C16.7478 53.143 16.9083 53.2065 17.0765 53.237C17.2447 53.2674 17.4172 53.2642 17.5841 53.2275C17.7511 53.1908 17.9091 53.1213 18.0489 53.0231C18.1888 52.9249 18.3079 52.7999 18.3991 52.6554L26.7996 39.5074C26.9883 39.2168 27.055 38.8637 26.9853 38.5243C26.9156 38.1849 26.7151 37.8867 26.4272 37.694L25.2021 36.8934C25.0584 36.8004 24.8976 36.7368 24.7291 36.7063C24.5607 36.6758 24.3878 36.679 24.2206 36.7157C24.0534 36.7524 23.8951 36.8219 23.7548 36.9202C23.6146 37.0184 23.4952 37.1435 23.4036 37.2881L15.0032 50.4361C14.8145 50.7267 14.7478 51.0798 14.8175 51.4192C14.8872 51.7586 15.0876 52.0568 15.3756 52.2495Z" fill="white"/>
<path id="Vector_42" d="M17.293 53.4448C17.0088 53.4434 16.731 53.3607 16.4924 53.2065L15.2636 52.406C15.0978 52.2998 14.9546 52.1618 14.8425 52C14.7303 51.8382 14.6513 51.6558 14.6101 51.4632C14.5689 51.2707 14.5663 51.0719 14.6024 50.8784C14.6385 50.6848 14.7126 50.5004 14.8205 50.3356L23.2209 37.1876C23.434 36.8556 23.7701 36.6217 24.1555 36.5373C24.5408 36.4528 24.9439 36.5246 25.2764 36.737L26.5014 37.5376C26.6672 37.6438 26.8104 37.7817 26.9225 37.9436C27.0347 38.1054 27.1137 38.2878 27.1549 38.4803C27.1961 38.6729 27.1987 38.8717 27.1626 39.0652C27.1265 39.2588 27.0524 39.4432 26.9445 39.6079L18.5441 52.756C18.4099 52.9664 18.2251 53.1398 18.0065 53.2602C17.7879 53.3805 17.5425 53.444 17.293 53.4448ZM15.4647 52.0932L16.6935 52.8938C16.9406 53.0523 17.2403 53.1071 17.5275 53.0464C17.6715 53.0149 17.8077 52.9553 17.9285 52.871C18.0493 52.7866 18.1522 52.6792 18.2313 52.5549L26.6317 39.4069C26.7133 39.2832 26.7694 39.1447 26.7969 38.9991C26.8243 38.8536 26.8226 38.7041 26.7918 38.5593C26.7609 38.4145 26.7016 38.2772 26.6172 38.1555C26.5329 38.0338 26.4252 37.9301 26.3003 37.8504L25.0716 37.0498C24.9497 36.9702 24.8131 36.9157 24.6699 36.8895C24.5267 36.8632 24.3797 36.8659 24.2375 36.8972C24.0936 36.9286 23.9573 36.9883 23.8365 37.0726C23.7157 37.157 23.6128 37.2644 23.5337 37.3887L15.137 50.5367C15.0553 50.6601 14.9989 50.7985 14.9712 50.9439C14.9434 51.0892 14.9449 51.2387 14.9753 51.3835C15.0058 51.5283 15.0648 51.6656 15.1488 51.7874C15.2328 51.9093 15.3402 52.0132 15.4647 52.0932Z" fill="#148532"/>
<path id="Vector_43" d="M28.5716 25.0298C28.5222 25.0401 28.4708 25.0304 28.4285 25.0029C28.3863 24.9753 28.3567 24.932 28.3463 24.8827C28.336 24.8333 28.3456 24.7818 28.3732 24.7396C28.4008 24.6973 28.444 24.6678 28.4934 24.6574L33.9932 22.1067C34.0151 22.0961 34.039 22.09 34.0633 22.0888C34.0877 22.0875 34.112 22.0912 34.1349 22.0995C34.1578 22.1079 34.1788 22.1207 34.1967 22.1373C34.2146 22.1539 34.2289 22.1739 34.2389 22.1961C34.2496 22.2183 34.2558 22.2424 34.2571 22.267C34.2583 22.2917 34.2547 22.3163 34.2464 22.3395C34.2381 22.3627 34.2253 22.384 34.2086 22.4023C34.192 22.4205 34.1719 22.4352 34.1496 22.4456L28.6424 25.0111C28.6201 25.0216 28.5961 25.0279 28.5716 25.0298Z" fill="#D1D3D4"/>
<path id="Vector_44" d="M33.0514 25.5851C33.002 25.5959 32.9504 25.5867 32.9078 25.5595C32.8652 25.5323 32.8351 25.4892 32.8243 25.4398C32.8134 25.3905 32.8226 25.3388 32.8498 25.2962C32.8771 25.2536 32.9201 25.2236 32.9695 25.2127L37.7171 22.9562C37.7608 22.9419 37.8081 22.944 37.8504 22.962C37.8927 22.98 37.927 23.0127 37.9471 23.054C37.9671 23.0954 37.9714 23.1426 37.9592 23.187C37.9471 23.2313 37.9192 23.2697 37.8809 23.2951L33.1333 25.5664C33.1083 25.5802 33.0799 25.5866 33.0514 25.5851Z" fill="#D1D3D4"/>
<path id="Vector_45" d="M28.151 30.4702C28.1163 30.4694 28.0824 30.4594 28.0529 30.441C28.0234 30.4227 27.9994 30.3968 27.9834 30.3659C27.9726 30.3439 27.9663 30.32 27.9647 30.2956C27.9632 30.2711 27.9665 30.2466 27.9744 30.2234C27.9824 30.2002 27.9949 30.1789 28.0111 30.1605C28.0273 30.1422 28.047 30.1272 28.0691 30.1165L36.8419 25.7785C36.8639 25.7641 36.8888 25.7545 36.9148 25.7504C36.9408 25.7463 36.9673 25.7478 36.9927 25.7547C37.0181 25.7616 37.0418 25.7739 37.0621 25.7906C37.0824 25.8073 37.099 25.8282 37.1106 25.8518C37.1223 25.8754 37.1288 25.9012 37.1298 25.9275C37.1308 25.9538 37.1261 25.98 37.1162 26.0044C37.1063 26.0288 37.0913 26.0508 37.0723 26.069C37.0532 26.0872 37.0305 26.1011 37.0057 26.1099L28.2329 30.4516C28.2072 30.4635 28.1793 30.4698 28.151 30.4702Z" fill="#D1D3D4"/>
<path id="Vector_46" d="M10.1625 27.8264C9.86086 27.7929 9.55925 27.7221 9.2055 27.67C8.85176 27.6179 8.46078 27.4689 8.46078 27.1375C8.46078 26.8061 8.83314 26.6386 8.76612 26.3593C8.74378 26.2835 8.70712 26.2128 8.65813 26.1508C8.2341 25.4885 8.07213 24.6919 8.20386 23.9166C8.3473 23.1402 8.78143 22.4478 9.41775 21.9804C9.32466 22.0027 9.23157 21.9059 9.22785 21.8053C9.23421 21.7068 9.27662 21.614 9.347 21.5447C9.60902 21.2899 9.93851 21.1155 10.2965 21.042C11.4319 20.7679 12.6238 20.8445 13.7148 21.2617C14.5526 21.567 15.5394 22.3155 15.3681 23.3506C15.344 23.5365 15.257 23.7085 15.1214 23.8379C14.9859 23.9673 14.8101 24.0464 14.6233 24.0618C14.3701 25.1789 13.7483 25.8864 12.9738 26.646C12.4576 27.1698 11.8171 27.5541 11.112 27.7631C10.8027 27.8463 10.4801 27.8679 10.1625 27.8264Z" fill="white"/>
<path id="Vector_47" d="M10.4527 28.0276C10.3448 28.033 10.2367 28.033 10.1288 28.0276C9.9463 28.0053 9.7564 27.9717 9.57394 27.9382L9.16435 27.8675C8.59463 27.7818 8.25951 27.4951 8.2744 27.1451C8.29243 26.9774 8.35836 26.8184 8.46431 26.6871C8.54623 26.5605 8.59836 26.4823 8.58346 26.4116C8.56793 26.3642 8.54396 26.32 8.51272 26.2812C8.04933 25.5723 7.87356 24.7135 8.0212 23.8795C8.15708 23.1472 8.53786 22.4828 9.10105 21.9954C9.06806 21.9399 9.0489 21.8773 9.04519 21.8129C9.04582 21.7399 9.06096 21.6677 9.08973 21.6006C9.11849 21.5335 9.16031 21.4727 9.21275 21.4219C9.49795 21.1395 9.85873 20.9455 10.2516 20.8634C11.4238 20.5788 12.6547 20.6567 13.7816 21.0868C14.7944 21.4592 15.7328 22.3081 15.554 23.3805C15.5236 23.5849 15.433 23.7755 15.2937 23.928C15.1544 24.0806 14.9728 24.1881 14.7721 24.237C14.4676 25.2244 13.8907 26.1059 13.1076 26.7802C12.567 27.3238 11.8987 27.7232 11.1639 27.942C10.9323 28.0049 10.6927 28.0338 10.4527 28.0276ZM10.1697 27.6552C10.4681 27.6918 10.7708 27.6677 11.0597 27.5845C11.734 27.3826 12.3472 27.0153 12.8433 26.5158C13.6848 25.6892 14.2135 25.0264 14.4444 24.021C14.4555 23.9805 14.4791 23.9447 14.5119 23.9186C14.5447 23.8924 14.585 23.8775 14.6269 23.8758C14.7694 23.8587 14.9022 23.7944 15.0041 23.6932C15.1059 23.592 15.1711 23.4597 15.1891 23.3172C15.353 22.3342 14.2992 21.6714 13.655 21.4331C12.598 21.0311 11.4444 20.9571 10.3447 21.2208C10.0218 21.2823 9.72475 21.4393 9.49202 21.6714C9.45515 21.7037 9.42914 21.7466 9.41755 21.7943C9.45334 21.792 9.48897 21.8008 9.51961 21.8195C9.55024 21.8381 9.57441 21.8657 9.58884 21.8985C9.60787 21.9375 9.6127 21.9819 9.60251 22.024C9.59231 22.0662 9.56772 22.1035 9.53298 22.1294C8.93215 22.5653 8.52266 23.2162 8.38984 23.9465C8.25856 24.681 8.41022 25.438 8.81433 26.0653C8.87671 26.1441 8.92119 26.2356 8.94465 26.3334C8.95657 26.4332 8.94749 26.5345 8.91799 26.6307C8.8885 26.7269 8.83924 26.8159 8.77337 26.8919C8.71094 26.9688 8.66757 27.0594 8.64677 27.1563C8.64677 27.3462 8.9521 27.4579 9.2202 27.4988C9.36914 27.5212 9.50692 27.5472 9.64469 27.5733C9.78246 27.5994 9.99471 27.6366 10.1697 27.6552Z" fill="#148532"/>
<path id="Vector_48" d="M14.8282 25.704C14.8282 25.704 15.5431 27.0594 15.3458 27.3089C15.1484 27.5584 14.6011 27.3089 14.6011 27.3089" fill="white"/>
<path id="Vector_49" d="M15.0476 27.5883C14.8646 27.5821 14.6843 27.543 14.5151 27.4729C14.4716 27.4524 14.4377 27.4158 14.4205 27.3709C14.4033 27.3259 14.4042 27.276 14.423 27.2317C14.4418 27.1874 14.477 27.1521 14.5212 27.1332C14.5655 27.1143 14.6153 27.1132 14.6604 27.1303C14.8391 27.2048 15.1333 27.2569 15.2003 27.1713C15.103 26.6773 14.9216 26.2037 14.6641 25.7712C14.6505 25.7495 14.6416 25.7254 14.6378 25.7001C14.634 25.6749 14.6354 25.6491 14.642 25.6245C14.6486 25.5998 14.6602 25.5767 14.676 25.5567C14.6919 25.5367 14.7117 25.5202 14.7342 25.5082C14.7567 25.4962 14.7815 25.4889 14.8069 25.4868C14.8323 25.4848 14.8579 25.488 14.8821 25.4962C14.9062 25.5045 14.9284 25.5176 14.9473 25.5348C14.9662 25.552 14.9813 25.5729 14.9918 25.5962C15.3641 26.2664 15.7365 27.1228 15.4907 27.4058C15.4355 27.4679 15.367 27.5165 15.2902 27.5481C15.2134 27.5797 15.1305 27.5935 15.0476 27.5883Z" fill="#148532"/>
<path id="Vector_50" d="M14.8094 23.9838C15.3009 24.4753 15.0589 25.3839 14.9956 25.9834C14.9099 26.8286 14.802 27.6739 14.6791 28.5117C14.5972 29.0442 13.2194 28.9176 12.9923 28.7314V30.8725L10.207 29.4575L10.49 27.7186C10.8138 27.7237 11.1327 27.6392 11.4114 27.4742C11.6901 27.3092 11.9176 27.0703 12.0688 26.784C12.7093 25.7451 12.8582 23.3657 12.8582 23.3657C12.8582 23.3657 14.3328 23.5035 14.8094 23.9838Z" fill="white"/>
<path id="Vector_51" d="M13.0073 31.0588C12.9773 31.059 12.9477 31.0513 12.9216 31.0364L10.1364 29.6215C10.1018 29.6034 10.0735 29.5752 10.0555 29.5405C10.0376 29.5059 10.0307 29.4665 10.0359 29.4278L10.3226 27.6889C10.3291 27.6418 10.3537 27.599 10.3913 27.5698C10.4289 27.5406 10.4764 27.5272 10.5236 27.5325C10.8129 27.5351 11.097 27.457 11.3443 27.307C11.5916 27.157 11.7923 26.9412 11.9237 26.6835C12.5344 25.6968 12.6684 23.377 12.6684 23.3546C12.6703 23.3297 12.6771 23.3053 12.6884 23.283C12.6998 23.2607 12.7154 23.2408 12.7344 23.2245C12.7535 23.2083 12.7755 23.1959 12.7994 23.1882C12.8232 23.1805 12.8483 23.1776 12.8732 23.1796C13.0296 23.1796 14.4111 23.3397 14.9249 23.8499C15.3941 24.3265 15.2973 25.0787 15.2042 25.6819C15.2042 25.7973 15.1744 25.9053 15.1633 26.0021C15.0776 26.8437 14.9696 27.7001 14.843 28.5379C14.8246 28.6412 14.7774 28.7371 14.707 28.8148C14.6365 28.8925 14.5456 28.9488 14.4446 28.9773C14.0279 29.1008 13.5857 29.1111 13.1637 29.0071V30.8689C13.1628 30.9183 13.143 30.9655 13.1084 31.0008C13.0737 31.0361 13.0269 31.0569 12.9775 31.0588H13.0073ZM10.4268 29.3534L12.8174 30.5673V28.7315C12.8173 28.6966 12.8271 28.6624 12.8455 28.6328C12.8639 28.6032 12.8903 28.5793 12.9216 28.564C12.9539 28.5484 12.9898 28.5422 13.0254 28.5461C13.061 28.5501 13.0947 28.564 13.1227 28.5863C13.5167 28.7281 13.9452 28.7424 14.3478 28.6273C14.4446 28.59 14.4967 28.5416 14.5042 28.4858C14.6308 27.648 14.735 26.8027 14.8207 25.9649C14.8207 25.8606 14.8356 25.7489 14.8654 25.6298C14.9398 25.1085 15.0292 24.4568 14.6904 24.1143C14.385 23.8089 13.5323 23.6376 13.0557 23.5706C13.0036 24.1738 12.8099 25.9798 12.2514 26.8809C12.0935 27.1689 11.8666 27.4132 11.5911 27.5919C11.3155 27.7706 10.9999 27.8782 10.6726 27.9049L10.4268 29.3534Z" fill="#148532"/>
<path id="Vector_52" d="M14.7162 27.8787C14.6295 27.9258 14.5337 27.9536 14.4353 27.96C14.3369 27.9664 14.2382 27.9514 14.1462 27.916C14.0541 27.8806 13.9708 27.8257 13.9021 27.7549C13.8334 27.6842 13.7808 27.5994 13.748 27.5064" fill="white"/>
<path id="Vector_53" d="M14.3552 28.1428C14.2534 28.1451 14.1522 28.1274 14.0573 28.0907C13.9443 28.0439 13.8427 27.9736 13.7592 27.8843C13.6757 27.795 13.6123 27.6889 13.5732 27.5731C13.5559 27.5271 13.5571 27.4762 13.5765 27.431C13.596 27.3859 13.6322 27.3501 13.6775 27.331C13.7002 27.3214 13.7245 27.3165 13.7492 27.3166C13.7738 27.3167 13.7981 27.3218 13.8207 27.3315C13.8434 27.3412 13.8638 27.3555 13.8807 27.3733C13.8977 27.3911 13.9109 27.4122 13.9195 27.4353C13.9407 27.503 13.9758 27.5655 14.0226 27.6187C14.0694 27.6719 14.1269 27.7147 14.1913 27.7444C14.3397 27.7854 14.4976 27.7736 14.6382 27.7108C14.6827 27.6905 14.7334 27.6884 14.7794 27.7051C14.8254 27.7218 14.8629 27.756 14.8839 27.8002C14.8946 27.8219 14.9009 27.8456 14.9024 27.8698C14.9039 27.8939 14.9006 27.9182 14.8926 27.941C14.8846 27.9639 14.8722 27.985 14.856 28.003C14.8398 28.021 14.8202 28.0356 14.7983 28.046C14.6591 28.1092 14.5081 28.1422 14.3552 28.1428Z" fill="#148532"/>
<path id="Vector_54" d="M13.1675 26.0763C13.1651 25.8625 13.1032 25.6536 12.9887 25.4731C12.9211 25.3212 12.8307 25.1806 12.7206 25.056C12.6655 24.9949 12.5975 24.9469 12.5215 24.9153C12.4455 24.8838 12.3634 24.8695 12.2812 24.8736C12.2063 24.8818 12.1341 24.9064 12.0698 24.9457C12.0054 24.9849 11.9505 25.0379 11.9089 25.1007C11.8305 25.2247 11.7809 25.3647 11.7637 25.5103C11.7217 25.8271 11.762 26.1494 11.8807 26.4461C11.9994 26.7429 12.1925 27.0041 12.4414 27.2046L12.4004 27.1487" fill="white"/>
<path id="Vector_55" d="M12.4601 27.3759C12.4192 27.3754 12.3798 27.3609 12.3484 27.3349C12.0716 27.1174 11.857 26.8308 11.7263 26.5039C11.5956 26.1771 11.5532 25.8215 11.6036 25.4731C11.6235 25.3003 11.6834 25.1346 11.7786 24.9891C11.832 24.9046 11.9034 24.8331 11.9878 24.7796C12.0721 24.7262 12.1673 24.6922 12.2664 24.68C12.3766 24.6734 12.4869 24.6913 12.5893 24.7325C12.6917 24.7737 12.7836 24.8372 12.8585 24.9183C12.9801 25.0566 13.0805 25.2122 13.1564 25.38C13.2891 25.5907 13.3588 25.8348 13.3575 26.0838C13.3527 26.1329 13.3291 26.1782 13.2916 26.2101C13.2541 26.2421 13.2056 26.2582 13.1564 26.2551C13.1319 26.2532 13.108 26.2465 13.0862 26.2354C13.0643 26.2242 13.0448 26.2089 13.0289 26.1902C13.013 26.1715 13.0009 26.1498 12.9934 26.1265C12.9859 26.1031 12.9831 26.0785 12.9851 26.054C12.9803 25.8747 12.9248 25.7004 12.825 25.5513C12.7657 25.4163 12.6866 25.2908 12.5904 25.179C12.555 25.1376 12.511 25.1045 12.4615 25.082C12.412 25.0595 12.3581 25.0481 12.3037 25.0486C12.2137 25.0675 12.1348 25.121 12.084 25.1976C12.0245 25.2993 11.9865 25.4121 11.9723 25.529C11.9368 25.791 11.9642 26.0577 12.0522 26.307C12.1403 26.5563 12.2865 26.781 12.4787 26.9626C12.5157 26.9752 12.5481 26.9985 12.5718 27.0296L12.6127 27.0854C12.6423 27.1188 12.6586 27.1619 12.6586 27.2065C12.6586 27.2511 12.6423 27.2941 12.6127 27.3275C12.593 27.3471 12.5688 27.3618 12.5423 27.3702C12.5157 27.3786 12.4875 27.3805 12.4601 27.3759Z" fill="#148532"/>
<path id="Vector_56" d="M14.7674 25.008C14.7741 24.8395 14.7263 24.7008 14.6606 24.6981C14.5948 24.6955 14.536 24.83 14.5293 24.9985C14.5226 25.167 14.5704 25.3057 14.6361 25.3083C14.7019 25.3109 14.7607 25.1765 14.7674 25.008Z" fill="#148532"/>
<path id="Vector_57" d="M9.58545 29.9191L9.92057 29.0105L13.5995 29.6026L13.8713 31.0287C12.3621 31.1127 10.8642 30.7249 9.58545 29.9191Z" fill="#148532"/>
<path id="Vector_58" d="M13.4578 31.2338C12.0536 31.2188 10.6805 30.8182 9.48844 30.0757C9.45233 30.0535 9.4249 30.0196 9.41068 29.9797C9.39646 29.9397 9.39631 29.8961 9.41024 29.8561L9.74536 28.9475C9.76085 28.9071 9.78944 28.873 9.82656 28.8507C9.86368 28.8284 9.9072 28.8192 9.95016 28.8246L13.6291 29.4204C13.6674 29.4259 13.703 29.4432 13.7311 29.4699C13.7591 29.4966 13.7781 29.5313 13.7855 29.5693L14.0536 30.9955C14.0585 31.0207 14.0581 31.0466 14.0523 31.0717C14.0465 31.0967 14.0356 31.1202 14.0201 31.1407C14.0056 31.1615 13.9868 31.179 13.9649 31.1919C13.9431 31.2047 13.9187 31.2127 13.8935 31.2152C13.7487 31.2296 13.6032 31.2358 13.4578 31.2338ZM9.81611 29.8374C10.9741 30.526 12.3006 30.8793 13.6477 30.8577L13.4429 29.7667L10.0433 29.2193L9.81611 29.8374Z" fill="#148532"/>
<path id="Vector_59" d="M21.2626 41.7157C21.8047 41.9828 22.3602 42.2214 22.9271 42.4306C23.184 42.4678 23.6718 41.8311 23.9585 42.0136C24.2453 42.196 25.2432 43.3429 25.2432 43.5254C25.2432 43.7078 24.7889 45.1042 24.3942 45.0148C23.9734 44.8861 23.5667 44.7152 23.1803 44.5047L20.6147 44.1323" fill="white"/>
<path id="Vector_60" d="M24.424 45.2269H24.3607C23.9292 45.095 23.5135 44.9165 23.1207 44.6944L20.5887 44.3221C20.5646 44.3189 20.5414 44.3109 20.5205 44.2987C20.4995 44.2864 20.4812 44.2701 20.4667 44.2507C20.4521 44.2313 20.4416 44.2091 20.4357 44.1856C20.4298 44.162 20.4286 44.1375 20.4323 44.1136C20.4397 44.0644 20.466 44.0201 20.5057 43.9902C20.5454 43.9602 20.5952 43.947 20.6445 43.9534L23.2064 44.3258H23.2697C23.6368 44.532 24.025 44.698 24.4277 44.821C24.6251 44.7875 25.0421 43.7524 25.057 43.4954C24.7163 42.9969 24.3148 42.5428 23.8617 42.1438C23.8021 42.1065 23.5713 42.2704 23.4596 42.3486C23.3099 42.4954 23.1105 42.5804 22.901 42.5869C22.3122 42.3759 21.7375 42.1272 21.1807 41.8422C21.1588 41.8318 21.1392 41.8172 21.123 41.7992C21.1068 41.7812 21.0944 41.7601 21.0864 41.7372C21.0784 41.7144 21.0751 41.6901 21.0766 41.6659C21.0781 41.6418 21.0844 41.6181 21.0951 41.5964C21.1161 41.5522 21.1536 41.518 21.1996 41.5013C21.2456 41.4846 21.2964 41.4866 21.3408 41.507C21.8645 41.7725 22.4042 42.0051 22.9569 42.2033C23.0607 42.1598 23.1574 42.1008 23.2436 42.0283C23.4894 41.857 23.791 41.656 24.0591 41.8161C24.3272 41.9762 25.4294 43.1752 25.4294 43.4843C25.4294 43.6667 25.098 44.7391 24.707 45.0631C24.6372 45.1521 24.5359 45.2107 24.424 45.2269Z" fill="#148532"/>
<path id="Vector_61" d="M15.0028 31.5947C15.0028 31.5947 16.0082 39.2058 16.5556 39.2058C17.103 39.2058 22.3197 41.7155 22.3197 41.7155L21.4298 45.0667C21.4298 45.0667 14.7496 44.0986 13.3012 43.3948C12.5341 43.0225 11.2085 34.8305 11.2085 34.8305L15.0028 31.5947Z" fill="#148532"/>
<path id="Vector_62" d="M14.7981 31.1928C12.7911 30.1092 10.0319 28.266 6.53914 30.9693C3.0464 33.6727 1.4043 48.8761 1.4043 48.8761L14.4853 47.8708C14.4853 47.8708 16.6748 32.2019 14.7981 31.1928Z" fill="#148532"/>
<path id="Vector_63" d="M12.5676 43.0672C12.5244 43.0679 12.4825 43.0534 12.4491 43.0261C12.4157 42.9988 12.393 42.9606 12.3851 42.9182C12.3851 42.8698 11.4691 38.1334 10.9329 34.771C10.9253 34.7227 10.9371 34.6733 10.9657 34.6336C10.9943 34.5939 11.0373 34.567 11.0856 34.5588C11.1347 34.5522 11.1846 34.5648 11.2248 34.5939C11.2649 34.623 11.2924 34.6664 11.3015 34.7151C11.834 38.0664 12.7388 42.7991 12.75 42.8475C12.7587 42.8959 12.7479 42.9457 12.72 42.9862C12.6921 43.0266 12.6494 43.0544 12.6011 43.0635L12.5676 43.0672Z" fill="#148532"/>
<path id="Vector_64" d="M20.8044 41.2949C20.7834 41.2985 20.762 41.2985 20.7411 41.2949L15.7961 39.5858C15.7617 39.5733 15.7315 39.5512 15.7091 39.5222C15.6867 39.4932 15.6729 39.4585 15.6695 39.422C15.6695 39.3587 15.2338 33.2371 14.7572 31.8221C14.7416 31.7752 14.745 31.724 14.7666 31.6795C14.7881 31.635 14.8262 31.6007 14.8727 31.5838C14.9201 31.5694 14.9712 31.5737 15.0156 31.5959C15.0599 31.618 15.094 31.6563 15.111 31.7029C15.569 33.0658 15.9674 38.3682 16.0344 39.273L20.8751 40.9449C20.9245 40.9528 20.9687 40.98 20.998 41.0205C21.0274 41.061 21.0394 41.1115 21.0315 41.1609C21.0236 41.2103 20.9964 41.2545 20.9559 41.2838C20.9154 41.3131 20.8649 41.3252 20.8155 41.3173L20.8044 41.2949Z" fill="#148532"/>
<path id="Vector_65" d="M22.4502 36.8747C22.4502 36.8747 23.7311 35.8023 24.1482 35.8246C24.5652 35.847 26.1366 36.0332 25.6897 36.372C25.2429 36.7109 24.1072 36.5507 24.1072 36.5507C24.1072 36.5507 24.2375 36.6885 23.705 37.0646" fill="white"/>
<path id="Vector_66" d="M23.6905 37.2473C23.6507 37.2476 23.6119 37.2352 23.5798 37.2118C23.5476 37.1885 23.5237 37.1555 23.5117 37.1176C23.4996 37.0798 23.5 37.039 23.5127 37.0014C23.5254 36.9638 23.5499 36.9312 23.5825 36.9084C23.7141 36.8308 23.8272 36.7253 23.9139 36.5994C23.8973 36.5549 23.8973 36.506 23.9139 36.4616C23.9318 36.428 23.9597 36.4006 23.9936 36.3833C24.0276 36.366 24.066 36.3596 24.1038 36.3648C24.5689 36.4422 25.0459 36.4038 25.4927 36.2531C25.0443 36.1087 24.5783 36.026 24.1075 36.0073C23.8841 35.985 23.1282 36.5212 22.5399 37.0164C22.5008 37.0466 22.4517 37.0607 22.4025 37.0559C22.3534 37.051 22.3079 37.0276 22.2755 36.9904C22.2595 36.9719 22.2474 36.9505 22.2399 36.9273C22.2324 36.9041 22.2295 36.8796 22.2316 36.8553C22.2337 36.831 22.2406 36.8074 22.252 36.7858C22.2634 36.7642 22.279 36.7452 22.2978 36.7297C22.6144 36.4653 23.683 35.6126 24.1261 35.635C24.1932 35.635 25.7757 35.7243 25.9135 36.1712C25.9317 36.2355 25.9281 36.304 25.9031 36.366C25.8782 36.428 25.8334 36.48 25.7757 36.5137C25.381 36.8116 24.6065 36.7856 24.2416 36.752C24.1268 36.9394 23.97 37.0975 23.7836 37.2138C23.756 37.2328 23.7239 37.2444 23.6905 37.2473Z" fill="#148532"/>
<path id="Vector_67" d="M9.29102 75.5705V77.9387C9.29102 77.9387 15.3046 78.2366 15.219 77.7712C15.1333 77.3057 12.1731 75.779 12.1731 75.779L9.29102 75.5705Z" fill="#148532"/>
<path id="Vector_68" d="M12.6871 78.2068C11.462 78.2068 10.1066 78.151 9.28371 78.11C9.23564 78.1081 9.19017 78.0876 9.15685 78.0529C9.12353 78.0182 9.10494 77.9719 9.10498 77.9238V75.5556C9.10503 75.5298 9.11033 75.5043 9.12058 75.4806C9.13082 75.4569 9.14579 75.4355 9.16456 75.4178C9.18325 75.4 9.20557 75.3865 9.23 75.3781C9.25443 75.3698 9.28037 75.3668 9.30605 75.3694L12.1844 75.5817C12.2077 75.5761 12.2319 75.5761 12.2551 75.5817C13.1712 76.0508 15.3122 77.2014 15.4053 77.7041C15.4114 77.7405 15.4092 77.7779 15.3989 77.8133C15.3886 77.8488 15.3704 77.8815 15.3457 77.9089C15.1558 78.1584 13.9978 78.2068 12.6871 78.2068ZM9.47734 77.7488C11.8642 77.8605 14.4186 77.8717 14.9845 77.7116C14.6941 77.3839 13.3462 76.5945 12.1211 75.9503L9.47734 75.753V77.7488Z" fill="#148532"/>
<path id="Vector_69" d="M69.7661 0.185989C68.9178 0.185989 68.1042 0.522981 67.5044 1.12283C66.9045 1.72268 66.5676 2.53625 66.5676 3.38456V6.57941H12.0503V3.38456C12.0503 2.53625 12.3873 1.72268 12.9871 1.12283C13.587 0.522981 14.4006 0.185989 15.2489 0.185989H69.7661Z" fill="#148532"/>
<path id="Vector_70" d="M66.5672 6.76569H12.0499C12.0009 6.76474 11.9541 6.74482 11.9194 6.71011C11.8846 6.67539 11.8647 6.62859 11.8638 6.57951V3.38466C11.8677 2.48921 12.2259 1.63172 12.8602 0.999582C13.4944 0.367443 14.3531 0.0120533 15.2485 0.0110779H69.7658C69.8152 0.0110779 69.8625 0.0306931 69.8974 0.0656086C69.9323 0.100524 69.952 0.14788 69.952 0.197258C69.952 0.246636 69.9323 0.293992 69.8974 0.328907C69.8625 0.363823 69.8152 0.383438 69.7658 0.383438C68.9704 0.386374 68.2083 0.703399 67.6455 1.2655C67.0827 1.82759 66.7647 2.58925 66.7608 3.38466V6.57951C66.7608 6.6046 66.7558 6.62944 66.746 6.65252C66.7362 6.67561 66.7218 6.69648 66.7037 6.71387C66.6856 6.73126 66.6642 6.74481 66.6407 6.75372C66.6173 6.76262 66.5923 6.7667 66.5672 6.76569ZM12.2361 6.39333H66.3885V3.38466C66.3908 2.76438 66.5632 2.15662 66.8868 1.62747C67.2105 1.09832 67.6731 0.668043 68.2242 0.383438H15.2485C14.4499 0.384423 13.6842 0.702116 13.1195 1.26684C12.5548 1.83156 12.2371 2.5972 12.2361 3.39583V6.39333Z" fill="#148532"/>
<path id="Vector_71" d="M48.7724 20.0331H44.6392V37.076H48.7724V20.0331Z" fill="#148532"/>
<path id="Vector_72" d="M48.7725 37.2472H44.6393C44.5899 37.2472 44.5426 37.2276 44.5077 37.1927C44.4727 37.1578 44.4531 37.1104 44.4531 37.061V20.033C44.4541 19.9839 44.474 19.9371 44.5087 19.9024C44.5434 19.8677 44.5902 19.8478 44.6393 19.8468H48.7725C48.8219 19.8468 48.8692 19.8664 48.9042 19.9014C48.9391 19.9363 48.9587 19.9836 48.9587 20.033V37.0759C48.9549 37.1227 48.9337 37.1663 48.8992 37.1981C48.8646 37.2298 48.8194 37.2474 48.7725 37.2472ZM44.8255 36.8749H48.5863V20.2192H44.8255V36.8749Z" fill="#148532"/>
<path id="Vector_73" d="M48.7724 20.0331H44.6392V26.285H48.7724V20.0331Z" fill="white"/>
<path id="Vector_74" d="M48.7725 26.4711H44.6393C44.5899 26.4711 44.5426 26.4515 44.5077 26.4166C44.4727 26.3817 44.4531 26.3343 44.4531 26.2849V20.033C44.4541 19.9839 44.474 19.9371 44.5087 19.9024C44.5434 19.8677 44.5902 19.8478 44.6393 19.8468H48.7725C48.8219 19.8468 48.8692 19.8664 48.9042 19.9014C48.9391 19.9363 48.9587 19.9836 48.9587 20.033V26.2849C48.9587 26.3343 48.9391 26.3817 48.9042 26.4166C48.8692 26.4515 48.8219 26.4711 48.7725 26.4711ZM44.8255 26.0988H48.5863V20.2192H44.8255V26.0988Z" fill="#148532"/>
<path id="Vector_75" d="M54.9608 20.0331H50.8276V37.076H54.9608V20.0331Z" fill="#148532"/>
<path id="Vector_76" d="M54.9573 37.2472H50.8278C50.7784 37.2472 50.731 37.2276 50.6961 37.1927C50.6612 37.1578 50.6416 37.1104 50.6416 37.061V20.033C50.6416 19.9836 50.6612 19.9363 50.6961 19.9014C50.731 19.8664 50.7784 19.8468 50.8278 19.8468H54.9573C55.0066 19.8468 55.054 19.8664 55.0889 19.9014C55.1238 19.9363 55.1434 19.9836 55.1434 20.033V37.0759C55.1397 37.1227 55.1184 37.1663 55.0839 37.1981C55.0494 37.2298 55.0042 37.2474 54.9573 37.2472ZM51.014 36.8749H54.7711V20.2192H51.014V36.8749Z" fill="#148532"/>
<path id="Vector_77" d="M54.9608 20.0331H50.8276V28.5527H54.9608V20.0331Z" fill="white"/>
<path id="Vector_78" d="M54.9573 28.7425H50.8278C50.7784 28.7425 50.731 28.7229 50.6961 28.688C50.6612 28.6531 50.6416 28.6057 50.6416 28.5563V20.033C50.6416 19.9836 50.6612 19.9363 50.6961 19.9014C50.731 19.8664 50.7784 19.8468 50.8278 19.8468H54.9573C55.0066 19.8468 55.054 19.8664 55.0889 19.9014C55.1238 19.9363 55.1434 19.9836 55.1434 20.033V28.5563C55.1434 28.6057 55.1238 28.6531 55.0889 28.688C55.054 28.7229 55.0066 28.7425 54.9573 28.7425ZM51.014 28.3702H54.7711V20.2192H51.014V28.3702Z" fill="#148532"/>
<path id="Vector_79" d="M61.1459 20.0331H57.0127V37.076H61.1459V20.0331Z" fill="#148532"/>
<path id="Vector_80" d="M61.146 37.2472H57.0128C56.9635 37.2472 56.9161 37.2276 56.8812 37.1927C56.8463 37.1578 56.8267 37.1104 56.8267 37.061V20.033C56.8267 19.9836 56.8463 19.9363 56.8812 19.9014C56.9161 19.8664 56.9635 19.8468 57.0128 19.8468H61.146C61.1951 19.8478 61.2419 19.8677 61.2766 19.9024C61.3113 19.9371 61.3313 19.9839 61.3322 20.033V37.0759C61.3285 37.1227 61.3072 37.1663 61.2727 37.1981C61.2382 37.2298 61.1929 37.2474 61.146 37.2472ZM57.199 36.8749H60.9599V20.2192H57.199V36.8749Z" fill="#148532"/>
<path id="Vector_81" d="M61.1459 20.0331H57.0127V23.1609H61.1459V20.0331Z" fill="white"/>
<path id="Vector_82" d="M61.146 23.347H57.0128C56.9635 23.347 56.9161 23.3274 56.8812 23.2925C56.8463 23.2576 56.8267 23.2102 56.8267 23.1608V20.033C56.8267 19.9836 56.8463 19.9363 56.8812 19.9014C56.9161 19.8664 56.9635 19.8468 57.0128 19.8468H61.146C61.1951 19.8478 61.2419 19.8677 61.2766 19.9024C61.3113 19.9371 61.3313 19.9839 61.3322 20.033V23.1608C61.3313 23.2099 61.3113 23.2567 61.2766 23.2914C61.2419 23.3261 61.1951 23.3461 61.146 23.347ZM57.199 22.9747H60.9599V20.2192H57.199V22.9747Z" fill="#148532"/>
<path id="Vector_83" d="M67.331 20.0331H63.1978V37.076H67.331V20.0331Z" fill="#148532"/>
<path id="Vector_84" d="M67.3306 37.2472H63.1974C63.148 37.2472 63.1007 37.2276 63.0658 37.1927C63.0308 37.1578 63.0112 37.1104 63.0112 37.061V20.033C63.0112 19.9836 63.0308 19.9363 63.0658 19.9014C63.1007 19.8664 63.148 19.8468 63.1974 19.8468H67.3306C67.3797 19.8478 67.4265 19.8677 67.4612 19.9024C67.4959 19.9371 67.5158 19.9839 67.5168 20.033V37.0759C67.513 37.1227 67.4918 37.1663 67.4573 37.1981C67.4227 37.2298 67.3775 37.2474 67.3306 37.2472ZM63.3836 36.8749H67.1333V20.2192H63.3724L63.3836 36.8749Z" fill="#148532"/>
<path id="Vector_85" d="M67.331 20.0331H63.1978V26.5419H67.331V20.0331Z" fill="white"/>
<path id="Vector_86" d="M67.3306 26.7281H63.1974C63.148 26.7281 63.1007 26.7084 63.0658 26.6735C63.0308 26.6386 63.0112 26.5912 63.0112 26.5419V20.033C63.0112 19.9836 63.0308 19.9363 63.0658 19.9014C63.1007 19.8664 63.148 19.8468 63.1974 19.8468H67.3306C67.3797 19.8478 67.4265 19.8677 67.4612 19.9024C67.4959 19.9371 67.5158 19.9839 67.5168 20.033V26.5419C67.5168 26.5912 67.4972 26.6386 67.4623 26.6735C67.4273 26.7084 67.38 26.7281 67.3306 26.7281ZM63.3836 26.3557H67.1333V20.2192H63.3724L63.3836 26.3557Z" fill="#148532"/>
<path id="Vector_87" d="M35.0509 49.0623C35.0015 49.0623 34.9542 49.0427 34.9193 49.0077C34.8844 48.9728 34.8647 48.9255 34.8647 48.8761V40.3751C34.8647 40.3257 34.8844 40.2784 34.9193 40.2435C34.9542 40.2085 35.0015 40.1889 35.0509 40.1889C35.1 40.1899 35.1468 40.2098 35.1815 40.2445C35.2162 40.2792 35.2362 40.326 35.2371 40.3751V48.8761C35.2371 48.9255 35.2175 48.9728 35.1826 49.0077C35.1477 49.0427 35.1003 49.0623 35.0509 49.0623Z" fill="#D1D3D4"/>
<path id="Vector_88" d="M57.4523 49.0623C57.4029 49.0623 57.3556 49.0427 57.3206 49.0077C57.2857 48.9728 57.2661 48.9255 57.2661 48.8761V40.3751C57.2671 40.326 57.287 40.2792 57.3217 40.2445C57.3564 40.2098 57.4032 40.1899 57.4523 40.1889C57.5017 40.1889 57.549 40.2085 57.5839 40.2435C57.6189 40.2784 57.6385 40.3257 57.6385 40.3751V48.8761C57.6385 48.9255 57.6189 48.9728 57.5839 49.0077C57.549 49.0427 57.5017 49.0623 57.4523 49.0623Z" fill="#D1D3D4"/>
<path id="Vector_89" d="M70.1347 37.247H41.0236C40.9742 37.247 40.9268 37.2274 40.8919 37.1925C40.857 37.1576 40.8374 37.1102 40.8374 37.0608C40.8374 37.0115 40.857 36.9641 40.8919 36.9292C40.9268 36.8943 40.9742 36.8747 41.0236 36.8747H70.1347C70.1841 36.8747 70.2314 36.8943 70.2663 36.9292C70.3013 36.9641 70.3209 37.0115 70.3209 37.0608C70.3209 37.1102 70.3013 37.1576 70.2663 37.1925C70.2314 37.2274 70.1841 37.247 70.1347 37.247Z" fill="#148532"/>
<path id="Vector_90" d="M21.486 15.5572C21.4536 15.5573 21.4217 15.5497 21.3929 15.5349C21.3524 15.5075 21.3237 15.4658 21.3126 15.4181C21.3016 15.3704 21.309 15.3204 21.3333 15.2779C22.0841 13.967 23.0984 12.826 24.3122 11.9267C25.258 11.2341 26.0809 10.9734 26.8257 11.1336C27.4287 11.3277 27.9731 11.671 28.4082 12.1315C28.546 12.2506 28.6837 12.3735 28.8215 12.5038C29.2342 12.834 29.6918 13.1036 30.1806 13.3044C30.3821 13.3991 30.6022 13.4475 30.8248 13.4459C31.0853 13.4041 31.3275 13.2862 31.5211 13.1071C31.8357 12.8422 32.133 12.5573 32.4111 12.2544C32.8683 11.7053 33.4287 11.2512 34.0606 10.9176C34.5328 10.7123 35.0505 10.6345 35.5622 10.692C36.0738 10.7495 36.5614 10.9403 36.9762 11.2453C37.1761 11.405 37.3652 11.5779 37.5422 11.7628C37.6887 11.9145 37.8428 12.0587 38.0039 12.1948C38.9683 12.973 40.4876 13.0959 41.8839 12.515C43.1983 11.9676 44.2819 10.9101 45.1979 9.96434C45.2152 9.94689 45.2358 9.93304 45.2585 9.92359C45.2812 9.91414 45.3055 9.90927 45.3301 9.90927C45.3547 9.90927 45.379 9.91414 45.4017 9.92359C45.4244 9.93304 45.445 9.94689 45.4623 9.96434C45.4966 9.99977 45.5158 10.0472 45.5158 10.0965C45.5158 10.1459 45.4966 10.1933 45.4623 10.2287C44.5202 11.2006 43.4031 12.2841 42.0217 12.8613C40.5062 13.498 38.8343 13.3491 37.7656 12.4889C37.5906 12.3437 37.4305 12.1836 37.2741 12.0272C37.1089 11.8553 36.9322 11.6948 36.7453 11.5469C36.3849 11.281 35.9609 11.1145 35.5158 11.0642C35.0707 11.0138 34.6203 11.0814 34.2096 11.2602C33.6224 11.5745 33.1015 11.9994 32.6754 12.5113C32.3896 12.8204 32.0836 13.1102 31.7594 13.3789C31.5093 13.6039 31.1985 13.7502 30.8658 13.7997C30.583 13.8082 30.3022 13.7495 30.0466 13.6284C29.5248 13.4161 29.0369 13.1288 28.5981 12.7757C28.4529 12.6602 28.3114 12.5374 28.1699 12.4033C27.7725 11.9898 27.2786 11.6814 26.7326 11.5059C26.0958 11.3681 25.3735 11.6102 24.4984 12.2506C23.3253 13.1123 22.3449 14.2093 21.6201 15.4715C21.6054 15.4948 21.5858 15.5146 21.5626 15.5294C21.5395 15.5442 21.5133 15.5537 21.486 15.5572Z" fill="#D1D3D4"/>
<path id="Vector_91" d="M66.6755 11.4242H51.3678C51.3187 11.4232 51.2719 11.4033 51.2372 11.3686C51.2025 11.3339 51.1826 11.2871 51.1816 11.238C51.1816 11.1886 51.2013 11.1413 51.2362 11.1063C51.2711 11.0714 51.3184 11.0518 51.3678 11.0518H66.6755C66.7249 11.0518 66.7723 11.0714 66.8072 11.1063C66.8421 11.1413 66.8617 11.1886 66.8617 11.238C66.8617 11.2874 66.8421 11.3347 66.8072 11.3696C66.7723 11.4046 66.7249 11.4242 66.6755 11.4242Z" fill="#D1D3D4"/>
<path id="Vector_92" d="M66.6753 13.4905H60.4308C60.3814 13.4905 60.3341 13.4709 60.2992 13.436C60.2642 13.4011 60.2446 13.3537 60.2446 13.3043C60.2446 13.255 60.2642 13.2076 60.2992 13.1727C60.3341 13.1378 60.3814 13.1181 60.4308 13.1181H66.6678C66.7172 13.1181 66.7646 13.1378 66.7995 13.1727C66.8344 13.2076 66.854 13.255 66.854 13.3043C66.8541 13.3524 66.8355 13.3987 66.8021 13.4334C66.7688 13.4681 66.7234 13.4886 66.6753 13.4905Z" fill="#D1D3D4"/>
<path id="Vector_93" d="M57.8245 13.4905H51.3678C51.3184 13.4905 51.2711 13.4709 51.2362 13.436C51.2013 13.4011 51.1816 13.3537 51.1816 13.3043C51.1826 13.2552 51.2025 13.2084 51.2372 13.1737C51.2719 13.139 51.3187 13.1191 51.3678 13.1181H57.8245C57.8736 13.1191 57.9204 13.139 57.9551 13.1737C57.9899 13.2084 58.0098 13.2552 58.0107 13.3043C58.0107 13.3537 57.9911 13.4011 57.9562 13.436C57.9213 13.4709 57.8739 13.4905 57.8245 13.4905Z" fill="#D1D3D4"/>
<path id="Vector_94" d="M66.6755 15.5609H53.3078C53.2584 15.5609 53.211 15.5412 53.1761 15.5063C53.1412 15.4714 53.1216 15.424 53.1216 15.3747C53.1216 15.3253 53.1412 15.2779 53.1761 15.243C53.211 15.2081 53.2584 15.1885 53.3078 15.1885H66.6755C66.7249 15.1885 66.7722 15.2081 66.8071 15.243C66.8421 15.2779 66.8617 15.3253 66.8617 15.3747C66.8617 15.424 66.8421 15.4714 66.8071 15.5063C66.7722 15.5412 66.7249 15.5609 66.6755 15.5609Z" fill="#D1D3D4"/>
</g>
</svg>
