<svg width="307" height="215" viewBox="0 0 307 215" fill="none" xmlns="http://www.w3.org/2000/svg">
<path d="M33 40.5C36 51.5 37.5 51 45 54C45.1667 51.8335 45.6 47.1004 46 45.5004C46.5 43.5004 45.5 41.5004 45 39.5004C51 37.0004 51 36.0004 52 35.5004C53 35.0004 53 33.0004 54.5 33.0004C59.5 34.0004 61.5 36.5004 63.5 39.0004C67 42.5004 66 49.5004 67 49.5004C68 49.5004 69.5 49.0004 70 47.5004C71.5 40.5004 69.5 34.5004 67 31.5001C61.5 26.0001 55.5 24.0001 51.5 25C47.5 25.9999 47 25.5 45 25C43 24.5 30 29.5 33 40.5Z" fill="white" stroke="white"/>
<path d="M19.4998 29.5002C23.4998 24.0002 30.4998 23.0002 34.9998 24.0002C34.3332 27.6668 32.8998 35.8 32.4998 39C31.9998 43 32.9998 46 35.9998 50.5C35.4998 54.5 34.9998 56.5 33.9998 58C30.7998 62.4 25.9998 63.8333 23.9998 64C24.4998 63.6667 25.5998 62.3 25.9998 59.5C26.4998 56 21.4998 49.5 19.4998 45.5C17.4998 41.5 15.4998 35.0002 19.4998 29.5002Z" fill="white" stroke="white"/>
<path d="M287.353 103.459H216.27V159.077H305.978V120.652C305.978 111.17 297.637 103.459 287.353 103.459Z" fill="#148532"/>
<path d="M305.977 159.382H216.269C216.186 159.38 216.107 159.346 216.049 159.286C215.991 159.227 215.958 159.147 215.958 159.064V103.459C215.958 103.376 215.991 103.297 216.049 103.239C216.108 103.18 216.187 103.148 216.269 103.148H287.352C297.795 103.148 306.295 111.011 306.295 120.673V159.078C306.29 159.159 306.254 159.236 306.196 159.292C306.137 159.348 306.059 159.38 305.977 159.382ZM216.587 158.746H305.659V120.652C305.659 111.336 297.45 103.756 287.352 103.756H216.587V158.746Z" fill="#231F20"/>
<path d="M234.895 121.344V159.057H197.645V121.344C197.633 116.856 199.318 112.531 202.362 109.234C204.037 107.405 206.075 105.945 208.346 104.947C210.617 103.95 213.07 103.436 215.551 103.438H217.141C220.745 103.466 224.257 104.579 227.218 106.634C230.179 108.688 232.452 111.587 233.74 114.953C234.003 115.629 234.22 116.323 234.39 117.028C234.415 117.097 234.431 117.169 234.438 117.242C234.751 118.587 234.905 119.963 234.895 121.344Z" fill="#231F20"/>
<path d="M234.895 159.43H197.645C197.554 159.429 197.467 159.392 197.403 159.327C197.338 159.263 197.301 159.176 197.299 159.085V121.344C197.301 116.504 199.225 111.862 202.647 108.44C206.069 105.018 210.711 103.094 215.551 103.092H217.141C220.814 103.126 224.391 104.266 227.407 106.363C230.422 108.461 232.735 111.418 234.044 114.85C234.322 115.524 234.554 116.218 234.736 116.924C234.765 117.014 234.783 117.107 234.791 117.201C235.113 118.544 235.273 119.921 235.268 121.302V159.022C235.278 159.075 235.276 159.129 235.261 159.181C235.246 159.233 235.22 159.28 235.184 159.32C235.147 159.359 235.102 159.39 235.052 159.409C235.002 159.428 234.948 159.436 234.895 159.43ZM197.991 158.739H234.549V121.344C234.551 120 234.396 118.661 234.086 117.353C234.091 117.298 234.091 117.242 234.086 117.187V117.111C233.901 116.434 233.675 115.769 233.408 115.119C232.143 111.822 229.916 108.981 227.014 106.967C224.113 104.952 220.673 103.858 217.141 103.825H215.558C213.254 103.821 210.971 104.271 208.841 105.149C206.711 106.027 204.775 107.316 203.143 108.943C201.512 110.57 200.217 112.503 199.333 114.631C198.449 116.758 197.993 119.04 197.991 121.344V158.739Z" fill="#231F20"/>
<path d="M197.652 159.078H234.895V192.081C234.895 196.582 233.107 200.899 229.924 204.082C226.741 207.265 222.424 209.053 217.923 209.053H214.617C210.116 209.053 205.799 207.265 202.616 204.082C199.433 200.899 197.645 196.582 197.645 192.081V159.078H197.652Z" fill="white"/>
<path d="M217.923 209.371H214.624C210.038 209.371 205.64 207.549 202.398 204.307C199.155 201.064 197.333 196.667 197.333 192.081V159.078C197.335 158.994 197.369 158.914 197.429 158.855C197.488 158.795 197.568 158.761 197.652 158.76H234.894C234.978 158.761 235.058 158.795 235.117 158.855C235.177 158.914 235.211 158.994 235.213 159.078V192.081C235.213 196.667 233.391 201.064 230.148 204.307C226.906 207.549 222.508 209.371 217.923 209.371ZM197.963 159.382V192.067C197.968 196.484 199.726 200.717 202.849 203.84C205.973 206.962 210.207 208.717 214.624 208.721H217.923C222.338 208.717 226.572 206.962 229.695 203.839C232.817 200.717 234.573 196.483 234.576 192.067V159.382H197.963Z" fill="#231F20"/>
<path d="M254.889 131.441C256.856 131.441 258.451 129.846 258.451 127.879C258.451 125.912 256.856 124.318 254.889 124.318C252.922 124.318 251.327 125.912 251.327 127.879C251.327 129.846 252.922 131.441 254.889 131.441Z" fill="white"/>
<path d="M254.889 131.752C254.121 131.754 253.37 131.527 252.731 131.101C252.092 130.676 251.593 130.07 251.299 129.361C251.004 128.651 250.927 127.871 251.076 127.117C251.226 126.364 251.595 125.672 252.138 125.129C252.681 124.586 253.373 124.216 254.127 124.067C254.88 123.917 255.661 123.995 256.37 124.289C257.079 124.584 257.685 125.082 258.111 125.721C258.537 126.36 258.763 127.112 258.762 127.879C258.76 128.906 258.351 129.89 257.625 130.616C256.899 131.342 255.915 131.751 254.889 131.752ZM254.889 124.636C254.247 124.636 253.62 124.826 253.087 125.183C252.553 125.539 252.138 126.046 251.892 126.638C251.647 127.231 251.582 127.883 251.707 128.512C251.833 129.141 252.142 129.719 252.595 130.173C253.049 130.627 253.627 130.936 254.256 131.061C254.885 131.186 255.537 131.122 256.13 130.876C256.723 130.631 257.229 130.215 257.586 129.682C257.942 129.148 258.132 128.521 258.132 127.879C258.132 127.454 258.048 127.032 257.885 126.638C257.722 126.245 257.484 125.887 257.182 125.586C256.881 125.285 256.524 125.046 256.13 124.883C255.737 124.72 255.315 124.636 254.889 124.636Z" fill="#231F20"/>
<path d="M254.889 124.636C254.805 124.634 254.725 124.6 254.666 124.541C254.607 124.481 254.573 124.402 254.571 124.318V80.4977C254.573 80.4146 254.607 80.3354 254.666 80.2772C254.726 80.2191 254.806 80.1865 254.889 80.1865C254.971 80.1865 255.051 80.2193 255.109 80.2777C255.167 80.336 255.2 80.4152 255.2 80.4977V124.318C255.2 124.401 255.168 124.481 255.109 124.54C255.051 124.6 254.972 124.634 254.889 124.636Z" fill="#231F20"/>
<path d="M267.981 83.8103L254.889 89.7028V80.4976H267.981V83.8103Z" fill="white"/>
<path d="M254.889 90.0487C254.823 90.0485 254.758 90.0293 254.702 89.9934C254.652 89.9631 254.612 89.9204 254.584 89.8694C254.556 89.8184 254.542 89.761 254.543 89.7029V80.4977C254.543 80.4059 254.579 80.318 254.644 80.2531C254.709 80.1883 254.797 80.1519 254.889 80.1519H267.988C268.079 80.1536 268.166 80.1906 268.23 80.2551C268.295 80.3196 268.332 80.4065 268.334 80.4977V83.8035C268.333 83.8708 268.313 83.9365 268.276 83.9929C268.24 84.0493 268.187 84.094 268.126 84.1217L255.027 90.0141C254.984 90.036 254.937 90.0478 254.889 90.0487ZM255.235 80.8435V89.1427L267.635 83.5615V80.795L255.235 80.8435Z" fill="#231F20"/>
<path d="M262.337 159.078H247.33V162.66H262.337V159.078Z" fill="white"/>
<path d="M262.337 162.971H247.329C247.246 162.971 247.166 162.939 247.107 162.881C247.047 162.822 247.013 162.743 247.011 162.66V159.078C247.013 158.994 247.047 158.914 247.106 158.855C247.166 158.795 247.246 158.761 247.329 158.76H262.337C262.421 158.761 262.501 158.795 262.56 158.855C262.619 158.914 262.654 158.994 262.655 159.078V162.66C262.653 162.743 262.619 162.822 262.56 162.881C262.5 162.939 262.42 162.971 262.337 162.971ZM247.648 162.342H262.019V159.382H247.648V162.342Z" fill="#231F20"/>
<path d="M249.743 212.794V162.66H258.775V212.794" fill="white"/>
<path d="M258.776 213.113C258.693 213.111 258.613 213.077 258.555 213.017C258.497 212.958 258.465 212.878 258.465 212.795V162.999H250.055V212.795C250.061 212.84 250.058 212.886 250.046 212.93C250.033 212.974 250.011 213.014 249.981 213.049C249.951 213.084 249.914 213.111 249.873 213.131C249.831 213.15 249.786 213.159 249.74 213.159C249.694 213.159 249.649 213.15 249.608 213.131C249.566 213.111 249.529 213.084 249.499 213.049C249.469 213.014 249.447 212.974 249.434 212.93C249.422 212.886 249.419 212.84 249.425 212.795V162.66C249.425 162.618 249.434 162.577 249.45 162.538C249.466 162.5 249.489 162.465 249.519 162.435C249.548 162.406 249.583 162.382 249.622 162.366C249.66 162.35 249.702 162.342 249.743 162.342H258.776C258.818 162.342 258.859 162.35 258.898 162.366C258.936 162.382 258.971 162.406 259.001 162.435C259.03 162.465 259.054 162.5 259.07 162.538C259.086 162.577 259.094 162.618 259.094 162.66V212.795C259.094 212.836 259.086 212.878 259.07 212.916C259.054 212.955 259.03 212.99 259.001 213.019C258.971 213.049 258.936 213.072 258.898 213.088C258.859 213.104 258.818 213.113 258.776 213.113Z" fill="#231F20"/>
<path d="M249.743 170.489L258.775 177.135V162.66H249.743V170.489Z" fill="#231F20"/>
<path d="M258.776 177.481C258.704 177.482 258.634 177.46 258.575 177.419L249.536 170.773C249.493 170.74 249.459 170.698 249.435 170.65C249.411 170.602 249.398 170.55 249.397 170.496V162.66C249.397 162.569 249.434 162.481 249.499 162.416C249.564 162.351 249.652 162.314 249.743 162.314H258.776C258.867 162.314 258.955 162.351 259.02 162.416C259.085 162.481 259.121 162.569 259.121 162.66V177.136C259.123 177.2 259.106 177.263 259.073 177.318C259.04 177.373 258.992 177.418 258.935 177.447C258.886 177.472 258.831 177.484 258.776 177.481ZM250.089 170.316L258.43 176.458V163.006H250.089V170.316Z" fill="#231F20"/>
<path d="M167.899 120.949C167.899 120.949 167.899 125.687 163.224 126.531C164.461 126.682 165.618 127.222 166.528 128.074C167.438 128.925 168.053 130.044 168.286 131.268C168.286 131.268 169.088 126.794 172.546 125.881C172.546 125.881 168.155 126.531 167.899 120.949Z" fill="#D1D3D4"/>
<path d="M192.431 98.2996C192.431 98.2996 192.431 103.037 187.762 103.881C188.998 104.034 190.154 104.575 191.064 105.426C191.974 106.277 192.59 107.395 192.825 108.618C192.825 108.618 193.599 104.144 197.106 103.238C197.106 103.238 192.693 103.881 192.431 98.2996Z" fill="#D1D3D4"/>
<path d="M223.587 138.848C223.587 138.848 223.587 143.586 218.918 144.43C220.156 144.581 221.313 145.121 222.223 145.973C223.132 146.824 223.748 147.943 223.981 149.167C223.981 149.167 224.756 144.692 228.262 143.78C228.262 143.78 223.85 144.43 223.587 138.848Z" fill="#D1D3D4"/>
<path d="M211.601 118.259C211.601 118.259 211.601 123.792 206.11 124.816C207.558 124.993 208.913 125.623 209.982 126.617C211.05 127.611 211.777 128.917 212.058 130.348C212.058 130.348 212.971 125.092 217.086 124.02C217.086 124.048 211.906 124.802 211.601 118.259Z" fill="#D1D3D4"/>
<path d="M292.132 107.553H269.309C269.225 107.551 269.145 107.517 269.086 107.458C269.027 107.399 268.992 107.319 268.991 107.235C268.993 107.152 269.027 107.073 269.086 107.015C269.146 106.956 269.226 106.924 269.309 106.924H292.132C292.214 106.924 292.293 106.957 292.352 107.015C292.41 107.073 292.443 107.153 292.443 107.235C292.443 107.318 292.41 107.398 292.352 107.458C292.294 107.517 292.215 107.551 292.132 107.553Z" fill="white"/>
<path d="M264.931 107.553H262.282C262.198 107.553 262.117 107.52 262.057 107.46C261.997 107.4 261.964 107.319 261.964 107.235C261.964 107.194 261.972 107.153 261.988 107.114C262.004 107.076 262.028 107.042 262.057 107.013C262.087 106.984 262.122 106.961 262.161 106.946C262.199 106.93 262.241 106.923 262.282 106.924H264.931C264.972 106.923 265.014 106.93 265.052 106.946C265.091 106.961 265.126 106.984 265.155 107.013C265.185 107.042 265.209 107.076 265.225 107.114C265.241 107.153 265.249 107.194 265.249 107.235C265.249 107.319 265.215 107.4 265.156 107.46C265.096 107.52 265.015 107.553 264.931 107.553Z" fill="white"/>
<path d="M53.9515 213.983L53.0381 186.671L73.2383 183.571L74.4697 214.289" fill="white"/>
<path d="M74.4693 214.71C74.576 214.706 74.6768 214.659 74.75 214.58C74.8232 214.501 74.863 214.397 74.8608 214.288L73.6293 183.562C73.6282 183.504 73.6145 183.446 73.5892 183.393C73.5638 183.34 73.5274 183.294 73.4825 183.256C73.4392 183.219 73.388 183.192 73.3329 183.178C73.2778 183.164 73.2202 183.162 73.1645 183.174L52.9562 186.274C52.8582 186.29 52.7695 186.341 52.7064 186.419C52.6434 186.497 52.6104 186.595 52.6136 186.695L53.527 213.974C53.5291 214.029 53.5417 214.082 53.5642 214.131C53.5867 214.181 53.6185 214.225 53.6579 214.262C53.6973 214.299 53.7434 214.327 53.7937 214.346C53.844 214.365 53.8975 214.373 53.9511 214.371C54.0046 214.369 54.0573 214.356 54.1059 214.333C54.1546 214.311 54.1984 214.278 54.2347 214.238C54.2711 214.198 54.2993 214.152 54.3178 214.101C54.3363 214.05 54.3447 213.995 54.3425 213.941L53.4536 187.042L72.8546 184.067L74.0616 214.321C74.0678 214.427 74.1135 214.526 74.1893 214.598C74.2651 214.67 74.3653 214.71 74.4693 214.71Z" fill="#231F20"/>
<path d="M152.53 202.187L129.419 174.412L108.754 179.537L135.087 206.841" fill="white"/>
<path d="M135.087 207.262C135.194 207.261 135.297 207.216 135.372 207.138C135.41 207.101 135.44 207.056 135.461 207.006C135.481 206.956 135.492 206.903 135.492 206.849C135.492 206.795 135.481 206.742 135.461 206.692C135.44 206.642 135.41 206.597 135.372 206.56L109.545 179.768L129.272 174.875L152.221 202.459C152.293 202.541 152.393 202.591 152.5 202.601C152.608 202.61 152.715 202.577 152.8 202.509C152.882 202.437 152.933 202.335 152.942 202.226C152.951 202.116 152.917 202.007 152.848 201.922L129.688 174.147C129.639 174.088 129.575 174.044 129.503 174.021C129.431 173.998 129.354 173.995 129.28 174.015L108.615 179.132C108.546 179.152 108.484 179.188 108.432 179.239C108.381 179.289 108.343 179.352 108.322 179.421C108.303 179.491 108.302 179.566 108.319 179.636C108.336 179.707 108.371 179.773 108.419 179.826L134.752 207.105C134.793 207.155 134.844 207.195 134.902 207.222C134.96 207.25 135.023 207.263 135.087 207.262Z" fill="#231F20"/>
<path d="M62.9628 62.3608C62.9628 62.3608 94.3762 71.0901 94.0745 72.3301C93.7728 73.5701 87.6401 96.5341 87.6401 96.5341L68.0679 91.5742L62.9628 62.3608Z" fill="#148532"/>
<path d="M62.3269 62.1706C62.3269 62.1706 72.3006 64.882 78.4169 68.4531C84.5332 72.0242 82.8533 110.083 82.8533 110.083L37.5353 119.341C37.5353 119.341 28.9072 94.6244 29.4944 83.3408C30.0816 72.0572 36.9645 56.0535 62.3269 62.1706Z" fill="#148532"/>
<path d="M84.8916 91.5327C84.9426 91.5444 84.9955 91.5444 85.0466 91.5327C85.1484 91.4888 85.2292 91.4063 85.2719 91.3029C85.3146 91.1994 85.3156 91.0831 85.2749 90.9788C82.3146 83.597 77.8537 72.3382 77.7314 71.5528C77.7304 71.4978 77.7185 71.4436 77.6965 71.3933C77.6746 71.343 77.6429 71.2977 77.6034 71.26C77.5639 71.2222 77.5174 71.1929 77.4665 71.1736C77.4157 71.1544 77.3616 71.1456 77.3074 71.1478C77.1956 71.1521 77.0898 71.2001 77.0122 71.2818C76.9347 71.3635 76.8914 71.4725 76.8915 71.5859C76.8915 72.2968 82.2086 85.6388 84.5002 91.3012C84.5363 91.374 84.5926 91.4347 84.6621 91.4757C84.7315 91.5168 84.8113 91.5366 84.8916 91.5327Z" fill="#231F20"/>
<path d="M59.5538 57.5331L62.7506 67.2709C62.7506 67.2709 62.8321 73.0574 56.4956 72.5532C54.624 72.3835 52.813 71.7941 51.1938 70.8276C49.5746 69.8612 48.1877 68.5418 47.1335 66.9651L44.4587 49.5065C45.4281 48.6493 46.0451 47.4546 46.1875 46.1586C46.3278 45.1885 46.3002 44.2011 46.106 43.2406C45.8081 41.9508 45.3332 40.7098 44.6952 39.5538C47.7084 39.0771 50.4721 37.5758 52.5322 35.2966C53.0219 34.6908 53.4792 34.0589 53.9023 33.4036C54.098 33.0977 58.1185 35.0073 58.5425 35.2222C60.6145 36.1478 62.3807 37.657 63.6313 39.5703C64.4607 41.2237 64.9858 43.0165 65.1808 44.8608C65.6558 47.3951 65.896 49.9689 65.8984 52.5485C65.8495 57.467 59.5538 57.5331 59.5538 57.5331Z" fill="white"/>
<path d="M57.2868 72.9664C58.7797 73.039 60.242 72.5202 61.3644 71.5198C62.4646 70.3844 63.0897 68.8622 63.1096 67.2709C63.1134 67.2324 63.1134 67.1936 63.1096 67.1552L60.0677 57.8885C61.6172 57.7397 66.2248 56.9379 66.2656 52.5733C66.2621 49.9741 66.0191 47.381 65.5398 44.8277C65.3291 42.9287 64.7762 41.085 63.9088 39.3884C62.649 37.4136 60.8537 35.8492 58.7385 34.8832C54.0493 32.5356 53.7394 33.015 53.6252 33.2299C53.6252 33.2299 52.8097 34.5195 52.2878 35.0816C50.2862 37.3058 47.5913 38.7651 44.6546 39.2148C44.5976 39.2257 44.5439 39.2502 44.4981 39.2863C44.4522 39.3223 44.4154 39.3689 44.3907 39.4221C44.366 39.4754 44.3542 39.5338 44.3561 39.5926C44.358 39.6514 44.3737 39.7089 44.4018 39.7604C45.024 40.8853 45.4878 42.0928 45.78 43.348C45.9592 44.2685 45.984 45.2131 45.8534 46.142C45.7298 47.3403 45.1648 48.4473 44.2713 49.2419C44.2157 49.2806 44.1723 49.3347 44.1463 49.3977C44.1202 49.4608 44.1127 49.5301 44.1245 49.5974L46.7994 67.056C46.807 67.1055 46.8236 67.1531 46.8483 67.1965C47.9247 68.8351 49.3519 70.2064 51.0237 71.2083C52.6955 72.2102 54.5688 72.8168 56.504 72.983C56.7568 72.9664 57.0259 72.9664 57.2868 72.9664ZM62.392 67.337C62.3535 68.6976 61.8155 69.9946 60.8833 70.9742C60.2863 71.4765 59.5906 71.844 58.8424 72.0521C58.0943 72.2602 57.311 72.3042 56.5447 72.1811C54.7457 72.0123 53.0048 71.4469 51.4439 70.5244C49.8831 69.602 48.5401 68.3449 47.5089 66.841L44.8748 49.6635C45.8191 48.7499 46.4191 47.5307 46.571 46.2164C46.7198 45.2171 46.6978 44.1992 46.5058 43.2075C46.2435 42.0555 45.8321 40.9437 45.2825 39.9009C48.1952 39.3498 50.8517 37.8525 52.8505 35.6354C53.2745 35.1477 53.9025 34.2054 54.1471 33.8416C55.6061 34.3474 57.0309 34.9494 58.4123 35.6437C60.4002 36.5496 62.096 38.005 63.3053 39.843C64.1179 41.4639 64.6371 43.2194 64.8385 45.0261C65.3065 47.5363 65.5467 50.0847 65.5561 52.6394C65.5072 57.1198 59.8476 57.2355 59.5866 57.2438C59.5288 57.244 59.4719 57.2585 59.4208 57.2858C59.3697 57.3132 59.3258 57.3526 59.293 57.4008C59.2579 57.4488 59.2344 57.5045 59.2245 57.5634C59.2146 57.6223 59.2185 57.6827 59.2359 57.7397L62.392 67.337Z" fill="#231F20"/>
<path d="M47.8347 47.9441C47.5256 47.25 47.0093 46.6717 46.3587 46.2908C45.7291 45.9593 45.0476 45.7411 44.3444 45.6461C43.9663 45.5553 43.5726 45.5553 43.1945 45.6461C42.9336 45.7315 42.6924 45.8693 42.485 46.0511C41.9556 46.4252 41.5765 46.9797 41.4167 47.6135C41.3504 48.1379 41.4091 48.6708 41.5879 49.1675C41.741 49.7189 41.9659 50.247 42.2567 50.7381C42.557 51.2222 42.9492 51.6409 43.4105 51.9699C43.8719 52.299 44.3931 52.5318 44.944 52.6548C45.4949 52.7779 46.0644 52.7888 46.6195 52.6868C47.1745 52.5848 47.704 52.372 48.1772 52.0608" fill="white"/>
<path d="M45.8531 53.0197C46.7408 53.0205 47.6099 52.7622 48.3567 52.2758C48.4288 52.2283 48.4795 52.154 48.4979 52.0688C48.5162 51.9837 48.5006 51.8947 48.4546 51.8211C48.4322 51.784 48.4026 51.7519 48.3676 51.7268C48.3327 51.7016 48.2931 51.6838 48.2512 51.6746C48.2093 51.6653 48.1659 51.6647 48.1238 51.6728C48.0817 51.681 48.0416 51.6977 48.006 51.7219C47.5673 52.0085 47.077 52.2043 46.5633 52.2979C46.0497 52.3915 45.5228 52.3812 45.0131 52.2675C44.0016 52.023 43.1239 51.3884 42.5666 50.4985C42.2894 50.0309 42.0755 49.5276 41.9305 49.0023C41.7722 48.5581 41.7164 48.083 41.7674 47.6135C41.9163 47.0588 42.2507 46.5737 42.7134 46.2413C42.8927 46.0904 43.097 45.9728 43.3168 45.8941C43.6473 45.8206 43.9895 45.8206 44.3199 45.8941C44.9854 45.9877 45.6306 46.1945 46.2282 46.5058C46.8247 46.8565 47.2937 47.3928 47.5656 48.0351C47.5816 48.0752 47.6055 48.1116 47.6356 48.1422C47.6658 48.1728 47.7018 48.1969 47.7414 48.2131C47.7809 48.2293 47.8233 48.2372 47.866 48.2365C47.9086 48.2357 47.9507 48.2263 47.9897 48.2087C48.03 48.1935 48.0668 48.1699 48.0976 48.1395C48.1284 48.109 48.1526 48.0724 48.1688 48.032C48.1849 47.9916 48.1925 47.9482 48.1912 47.9046C48.1898 47.861 48.1795 47.8182 48.161 47.7788C47.8307 47.0002 47.2578 46.3527 46.5299 45.9354C45.8689 45.5881 45.1548 45.3562 44.4178 45.2493C43.9883 45.1501 43.5424 45.1501 43.113 45.2493C42.8173 45.352 42.5414 45.5059 42.2974 45.704C41.7068 46.1309 41.2872 46.7587 41.115 47.473C41.036 48.0469 41.0976 48.6318 41.2944 49.1759C41.4547 49.7561 41.6906 50.3121 41.9957 50.8291C42.32 51.3501 42.7427 51.8009 43.2396 52.1556C43.7364 52.5103 44.2976 52.7618 44.8908 52.8957C45.2061 52.9726 45.5288 53.0142 45.8531 53.0197Z" fill="#231F20"/>
<path d="M61.1846 62.6749C58.8579 62.9129 56.5215 62.3289 54.5708 61.0216C51.4719 58.831 51.3088 56.0618 51.3088 56.0618C53.9051 57.2011 56.7295 57.7052 59.5535 57.5332L61.1846 62.6749Z" fill="#231F20"/>
<path d="M60.255 63.0882C60.5875 63.0921 60.92 63.0727 61.2499 63.0303C61.3018 63.0232 61.3516 63.0046 61.3957 62.9759C61.4398 62.9472 61.4771 62.909 61.5051 62.8641C61.5331 62.8192 61.551 62.7686 61.5577 62.7159C61.5643 62.6632 61.5595 62.6097 61.5435 62.5591L59.9125 57.4257C59.8868 57.3502 59.8383 57.2848 59.7739 57.2388C59.7095 57.1928 59.6324 57.1686 59.5537 57.1694C56.7919 57.306 54.0366 56.791 51.5046 55.665C51.4495 55.6346 51.3878 55.6187 51.3252 55.6187C51.2625 55.6187 51.2008 55.6346 51.1457 55.665C51.0937 55.7002 51.0514 55.7482 51.0228 55.8047C50.9943 55.8611 50.9805 55.924 50.9826 55.9874C50.9826 56.1113 51.1784 58.9963 54.3833 61.2696C56.1144 62.4629 58.1615 63.097 60.255 63.0882ZM60.7198 62.3442C58.6224 62.4513 56.5466 61.8717 54.7992 60.6909C53.3523 59.7378 52.2927 58.288 51.8145 56.6073C54.2006 57.5499 56.7492 57.9969 59.309 57.9217L60.7198 62.3442Z" fill="#231F20"/>
<path d="M55.3047 40.8269C55.3047 40.8269 59.3823 44.9601 58.8114 45.9851C58.2406 47.0102 55.9979 46.8118 55.9979 46.8118" fill="white"/>
<path d="M56.2916 47.2085C56.9929 47.2085 58.5587 47.101 59.1132 46.1752C59.7819 45.0675 56.8461 41.8849 55.5494 40.5706C55.516 40.5358 55.4761 40.5082 55.4319 40.4894C55.3878 40.4705 55.3404 40.4608 55.2926 40.4608C55.2447 40.4608 55.1973 40.4705 55.1532 40.4894C55.109 40.5082 55.0691 40.5358 55.0357 40.5706C54.9684 40.6401 54.9308 40.7336 54.9308 40.831C54.9308 40.9283 54.9684 41.0218 55.0357 41.0914C57.1071 43.2076 58.7381 45.3651 58.5016 45.7949C58.1183 46.448 56.5444 46.4976 56.0551 46.4728C55.9596 46.4703 55.8667 46.5049 55.7955 46.5694C55.7243 46.6339 55.68 46.7235 55.6718 46.82C55.6696 46.8677 55.6767 46.9155 55.6927 46.9605C55.7088 47.0055 55.7334 47.0468 55.7652 47.0821C55.797 47.1174 55.8354 47.146 55.8782 47.1663C55.9209 47.1866 55.9671 47.1981 56.0143 47.2002L56.2916 47.2085Z" fill="#231F20"/>
<path d="M61.5598 49.2337L53.6249 49.1262C53.6249 49.1262 53.9837 54.582 58.5995 54.9127C63.2153 55.2433 61.5598 49.2337 61.5598 49.2337Z" fill="#231F20"/>
<path d="M53.4292 40.8351C53.3252 40.6077 53.1644 40.4118 52.9627 40.2668C52.761 40.1218 52.5254 40.0327 52.2793 40.0084C51.366 39.8596 50.9011 40.9425 50.9011 40.9425" fill="white"/>
<path d="M50.9014 41.2732C50.9718 41.2746 51.041 41.255 51.1005 41.2168C51.1599 41.1785 51.207 41.1234 51.2358 41.0583C51.2358 41.0583 51.5946 40.2317 52.2226 40.3391C52.4063 40.3574 52.5823 40.4233 52.7337 40.5304C52.8851 40.6375 53.0068 40.7823 53.087 40.9509C53.1202 41.0424 53.1874 41.1171 53.2744 41.1588C53.3613 41.2006 53.461 41.206 53.5518 41.174C53.6396 41.1421 53.7117 41.0768 53.7528 40.992C53.7939 40.9071 53.8008 40.8093 53.772 40.7194C53.6537 40.4229 53.4587 40.1643 53.2075 39.9708C52.9564 39.7774 52.6583 39.6561 52.3449 39.62C51.1705 39.4216 50.5997 40.7111 50.5752 40.769C50.5563 40.8129 50.5462 40.8602 50.5454 40.9082C50.5447 40.9561 50.5532 41.0037 50.5707 41.0482C50.5881 41.0928 50.614 41.1334 50.647 41.1678C50.68 41.2021 50.7193 41.2296 50.7628 41.2484L50.9014 41.2732Z" fill="#231F20"/>
<path d="M60.7773 40.1323C60.6733 39.9049 60.5125 39.709 60.3109 39.564C60.1092 39.419 59.8736 39.3299 59.6275 39.3056C58.7141 39.1486 58.2493 40.2397 58.2493 40.2397" fill="white"/>
<path d="M58.2487 40.5788C58.32 40.5794 58.3899 40.5586 58.4495 40.5188C58.509 40.4791 58.5556 40.4222 58.5831 40.3556C58.5831 40.3556 58.9419 39.5289 59.5699 39.6447C59.7541 39.6613 59.9308 39.7266 60.0824 39.8339C60.2341 39.9412 60.3554 40.0868 60.4343 40.2564C60.4675 40.3479 60.5348 40.4226 60.6217 40.4643C60.7086 40.5061 60.8083 40.5115 60.8991 40.4796C60.9876 40.4459 61.0598 40.3791 61.1008 40.2928C61.1418 40.2066 61.1485 40.1077 61.1193 40.0167C60.9996 39.7212 60.8042 39.4635 60.5533 39.2702C60.3024 39.0769 60.0051 38.9551 59.6922 38.9172C58.5179 38.7188 57.947 40.0166 57.9225 40.0662C57.9025 40.11 57.8915 40.1575 57.8901 40.2057C57.8888 40.254 57.8971 40.302 57.9147 40.3468C57.9322 40.3917 57.9586 40.4325 57.9922 40.4666C58.0258 40.5008 58.0659 40.5277 58.1101 40.5457C58.1532 40.5675 58.2006 40.5788 58.2487 40.5788Z" fill="#231F20"/>
<path d="M38.44 118.754L44.9315 206.551L152.84 184.191L81.1075 109.595L38.44 118.754Z" fill="#231F20"/>
<path d="M84.8918 54.3506L211.622 75.7605L155.874 18.3257L84.8918 54.3506Z" fill="#231F20"/>
<path d="M211.622 76.1739C211.703 76.1744 211.781 76.1507 211.849 76.1058C211.916 76.061 211.969 75.9969 212 75.9218C212.031 75.8466 212.04 75.7638 212.025 75.6836C212.01 75.6034 211.972 75.5295 211.916 75.4713L156.167 18.0282C156.106 17.9668 156.028 17.9266 155.943 17.9132C155.858 17.8999 155.771 17.914 155.694 17.9538L84.745 53.9869C84.6657 54.0227 84.6007 54.0847 84.5607 54.1628C84.5207 54.2409 84.508 54.3304 84.5248 54.4168C84.5326 54.5026 84.5667 54.5838 84.6222 54.649C84.6778 54.7142 84.7521 54.7602 84.8347 54.7805L211.557 76.1656L211.622 76.1739ZM155.784 18.83L210.423 75.1406L86.1966 54.1523L155.784 18.83Z" fill="#231F20"/>
<path d="M73.1892 140.527L192.735 162.326L211.459 76.5209L84.7939 55.111L73.1892 140.527Z" fill="#231F20"/>
<path d="M192.726 162.739C192.82 162.741 192.911 162.71 192.984 162.651C193.057 162.592 193.107 162.51 193.126 162.417L211.883 76.6036C211.905 76.4954 211.885 76.3826 211.826 76.2895C211.795 76.2409 211.754 76.1996 211.706 76.1682C211.659 76.1368 211.605 76.1162 211.548 76.1077L84.8344 54.6977C84.7255 54.6808 84.6144 54.7075 84.5245 54.7721C84.4799 54.8053 84.4425 54.8473 84.4145 54.8957C84.3864 54.944 84.3684 54.9976 84.3614 55.0532L72.7567 140.47C72.7486 140.522 72.7508 140.576 72.7632 140.628C72.7757 140.68 72.798 140.729 72.8291 140.772C72.8602 140.815 72.8993 140.851 72.9442 140.879C72.9892 140.906 73.0391 140.925 73.0911 140.933L192.661 162.731L192.726 162.739ZM210.969 76.8516L192.417 161.855L73.6456 140.189L85.1362 55.607L210.969 76.8516Z" fill="#231F20"/>
<path d="M182.696 133.931C182.696 133.931 204.715 65.0391 215.316 44.0921L97.2876 11.506L89.948 118.142L182.696 133.931Z" fill="#8E59FF"/>
<path d="M194.643 56.1444C194.734 56.1449 194.822 56.114 194.893 56.0569C194.964 55.9998 195.014 55.9199 195.034 55.8303C195.062 55.7251 195.047 55.6131 194.994 55.5187C194.94 55.4243 194.852 55.355 194.749 55.326L107.954 32.5191C107.846 32.4917 107.731 32.5089 107.636 32.5671C107.54 32.6252 107.471 32.7194 107.444 32.8291C107.417 32.9387 107.434 33.0547 107.492 33.1516C107.549 33.2485 107.642 33.3183 107.75 33.3457L194.545 56.1279L194.643 56.1444Z" fill="white"/>
<path d="M190.973 70.5692C191.065 70.5708 191.155 70.5394 191.227 70.4804C191.298 70.4214 191.347 70.3387 191.364 70.2468C191.376 70.1941 191.378 70.1395 191.369 70.0863C191.359 70.033 191.34 69.9821 191.311 69.9367C191.282 69.8912 191.244 69.8521 191.2 69.8216C191.156 69.7911 191.107 69.7698 191.054 69.7591L107.016 50.6472C106.908 50.6242 106.795 50.6456 106.703 50.7069C106.61 50.7681 106.545 50.8641 106.523 50.9737C106.5 51.0833 106.521 51.1976 106.582 51.2914C106.642 51.3852 106.737 51.4508 106.845 51.4738L190.851 70.5609L190.973 70.5692Z" fill="white"/>
<path d="M183.772 84.0683C183.867 84.0699 183.959 84.0376 184.032 83.9771C184.105 83.9165 184.155 83.8317 184.172 83.7376C184.183 83.6844 184.183 83.6296 184.173 83.5763C184.163 83.523 184.142 83.4723 184.113 83.427C184.083 83.3817 184.045 83.3427 184.001 83.3123C183.956 83.282 183.906 83.2607 183.854 83.2499L103.485 67.428C103.433 67.4173 103.38 67.4171 103.328 67.4275C103.276 67.4379 103.226 67.4587 103.182 67.4887C103.138 67.5187 103.1 67.5573 103.071 67.6023C103.042 67.6472 103.022 67.6976 103.012 67.7504C103 67.8037 102.999 67.8589 103.009 67.9126C103.019 67.9663 103.039 68.0175 103.069 68.063C103.098 68.1086 103.137 68.1476 103.182 68.1777C103.227 68.2078 103.277 68.2283 103.33 68.2381L183.699 84.06L183.772 84.0683Z" fill="white"/>
<path d="M179.947 101.295C180.056 101.304 180.163 101.269 180.245 101.198C180.328 101.126 180.379 101.025 180.388 100.915C180.397 100.805 180.362 100.697 180.291 100.613C180.221 100.529 180.121 100.477 180.013 100.469L103.779 87.8954C103.671 87.8779 103.56 87.9046 103.471 87.9697C103.383 88.0348 103.323 88.133 103.306 88.2426C103.289 88.3522 103.315 88.4643 103.379 88.5542C103.443 88.6441 103.54 88.7045 103.648 88.722L179.882 101.287L179.947 101.295Z" fill="white"/>
<path d="M139.759 109.71L211.459 76.5209L192.735 162.326L73.1892 140.527L84.7939 55.111L139.759 109.71Z" fill="white"/>
<path d="M192.727 162.739C192.82 162.741 192.911 162.71 192.984 162.651C193.057 162.593 193.107 162.51 193.126 162.417L211.883 76.6037C211.899 76.5284 211.895 76.45 211.869 76.3774C211.844 76.3047 211.799 76.2407 211.74 76.1926C211.68 76.1444 211.609 76.114 211.533 76.1049C211.458 76.0958 211.381 76.1082 211.312 76.1408L139.865 109.206L85.0794 54.7805C85.0256 54.7257 84.9576 54.6874 84.8833 54.6698C84.809 54.6523 84.7313 54.6562 84.6591 54.6812C84.5869 54.7062 84.523 54.7512 84.4748 54.8111C84.4266 54.871 84.3959 54.9435 84.3863 55.0202L72.7815 140.437C72.7734 140.489 72.7756 140.543 72.7881 140.595C72.8005 140.647 72.8229 140.696 72.8539 140.739C72.885 140.782 72.9241 140.818 72.9691 140.846C73.014 140.873 73.0639 140.892 73.1159 140.9L192.662 162.731L192.727 162.739ZM210.888 77.2402L192.417 161.855L73.646 140.189L85.0631 55.9791L139.474 110.008C139.534 110.066 139.609 110.104 139.691 110.117C139.772 110.131 139.856 110.119 139.931 110.083L210.888 77.2402Z" fill="#231F20"/>
<path d="M73.1809 140.528L192.727 162.326L139.751 109.71L73.1809 140.528Z" fill="white"/>
<path d="M192.727 162.739C192.802 162.74 192.877 162.72 192.941 162.681C193.006 162.641 193.059 162.584 193.094 162.516C193.133 162.438 193.147 162.349 193.132 162.263C193.117 162.176 193.075 162.097 193.012 162.037L140.004 109.413C139.944 109.355 139.869 109.317 139.787 109.304C139.706 109.291 139.622 109.303 139.547 109.339L72.9854 140.147C72.9065 140.185 72.8412 140.247 72.7988 140.324C72.7564 140.401 72.7389 140.49 72.7489 140.577C72.7593 140.664 72.7965 140.745 72.8551 140.809C72.9137 140.873 72.9907 140.916 73.0751 140.933L192.653 162.739H192.727ZM139.67 110.207L191.495 161.681L74.543 140.354L139.67 110.207Z" fill="#231F20"/>
<path d="M73.1809 140.528L192.727 162.326L139.751 109.71L73.1809 140.528Z" fill="white"/>
<path d="M192.727 162.739C192.802 162.74 192.877 162.72 192.941 162.681C193.006 162.641 193.059 162.584 193.094 162.516C193.133 162.438 193.147 162.349 193.132 162.263C193.117 162.176 193.075 162.097 193.012 162.037L140.004 109.413C139.944 109.355 139.869 109.317 139.787 109.304C139.706 109.291 139.622 109.303 139.547 109.339L72.9854 140.147C72.9065 140.185 72.8412 140.247 72.7988 140.324C72.7564 140.401 72.7389 140.49 72.7489 140.577C72.7593 140.664 72.7965 140.745 72.8551 140.809C72.9137 140.873 72.9907 140.916 73.0751 140.933L192.653 162.739H192.727ZM139.67 110.207L191.495 161.681L74.543 140.354L139.67 110.207Z" fill="#231F20"/>
<path d="M81.4992 22.2937C81.4992 22.2937 83.2362 28.9068 88.7246 29.0721C88.7246 29.0721 82.9345 30.7254 81.7194 36.2308C81.18 34.7034 80.289 33.3284 79.1203 32.2199C77.9516 31.1115 76.5389 30.3016 74.9996 29.8574C76.5756 29.1753 77.979 28.1405 79.1046 26.8306C80.2302 25.5208 81.0488 23.9697 81.4992 22.2937Z" fill="#D1D3D4"/>
<path d="M239.104 72.5448C239.104 72.5448 234.725 78.8934 238.607 83.8036C238.607 83.8036 232.988 79.935 227.41 82.8861C228.317 81.3026 228.839 79.5225 228.931 77.6937C229.023 75.8649 228.684 74.0402 227.94 72.3712C227.94 72.3712 232.711 75.2975 239.104 72.5448Z" fill="#D1D3D4"/>
<path d="M199.822 20.7808C199.822 20.7808 198.9 31.8412 207.161 35.0899C207.161 35.0899 197.465 34.3955 192.645 42.1163C192.645 42.1163 192.988 33.6515 185.844 28.7165C185.909 28.7165 193.885 28.8653 199.822 20.7808Z" fill="#D1D3D4"/>
<path d="M42.8681 76.4465C42.8681 76.4465 106.241 109.024 115.889 110.893C125.536 112.761 137.011 109.496 136.554 112.29C136.097 115.084 130.584 116.472 130.584 116.472C130.584 116.472 148.028 119.266 147.115 121.135C146.201 123.003 134.711 120.663 134.711 120.663C134.711 120.663 148.95 124.854 145.737 126.714C142.523 128.574 132.419 124.392 132.419 124.392C132.419 124.392 147.571 132.302 143.437 132.765C139.302 133.228 131.954 129.046 131.954 129.046C131.954 129.046 143.437 135.097 138.845 135.559C134.254 136.022 65.8329 111.355 42.8681 97.3935" fill="white"/>
<path d="M138.707 135.981H138.887C139.743 135.89 140.232 135.592 140.322 135.097C140.461 134.353 139.441 133.311 138.022 132.253C139.762 132.937 141.621 133.255 143.486 133.187C144.114 133.113 144.473 132.873 144.546 132.451C144.775 131.211 140.762 128.591 137.036 126.45C140.192 127.384 144.082 128.161 145.941 127.086C146.153 126.997 146.332 126.841 146.452 126.642C146.572 126.443 146.627 126.211 146.61 125.979C146.455 124.673 143.144 123.143 139.955 121.969C143.299 122.391 146.879 122.532 147.482 121.325C147.537 121.219 147.565 121.101 147.565 120.982C147.565 120.862 147.537 120.745 147.482 120.639C146.667 118.985 136.758 117.109 132.33 116.357C134.083 115.687 136.636 114.373 136.97 112.364C137.004 112.195 136.998 112.019 136.953 111.853C136.908 111.686 136.824 111.533 136.709 111.405C135.894 110.487 133.398 110.636 129.598 110.859C125.586 111.091 120.628 111.38 115.979 110.496C106.503 108.661 43.7004 76.4052 43.0725 76.0828C42.975 76.0334 42.8622 76.0248 42.7585 76.0588C42.6548 76.0928 42.5684 76.1667 42.5179 76.2647C42.4695 76.3623 42.4613 76.4753 42.4949 76.5791C42.5285 76.6829 42.6013 76.769 42.6973 76.8185C45.2906 78.1494 106.234 109.454 115.824 111.306C120.538 112.215 125.61 111.918 129.688 111.686C132.73 111.504 135.6 111.339 136.147 111.951C136.178 111.988 136.2 112.032 136.21 112.08C136.22 112.127 136.218 112.177 136.204 112.223C135.861 114.298 132.004 115.712 130.536 116.084C130.428 116.089 130.326 116.138 130.254 116.22C130.181 116.301 130.143 116.408 130.149 116.518C130.154 116.627 130.202 116.73 130.282 116.804C130.363 116.878 130.469 116.916 130.577 116.91C138.088 118.109 146.43 120.027 146.805 121.044C146.324 121.953 140.224 121.383 134.85 120.291C134.796 120.278 134.741 120.276 134.687 120.285C134.632 120.294 134.58 120.313 134.533 120.342C134.486 120.372 134.445 120.41 134.413 120.455C134.381 120.5 134.357 120.551 134.344 120.606C134.332 120.66 134.329 120.716 134.338 120.771C134.347 120.826 134.366 120.879 134.395 120.927C134.423 120.974 134.461 121.016 134.506 121.049C134.55 121.081 134.601 121.105 134.654 121.118C139.947 122.672 145.729 125.028 145.859 126.127C145.859 126.235 145.696 126.351 145.59 126.417C143.095 127.863 135.388 125.21 132.632 124.061C132.533 124.021 132.423 124.022 132.325 124.062C132.226 124.102 132.146 124.178 132.102 124.276C132.059 124.373 132.055 124.482 132.09 124.582C132.124 124.683 132.196 124.765 132.289 124.813C137.778 127.682 143.706 131.36 143.804 132.344C143.689 132.376 143.572 132.401 143.454 132.418C140.371 132.765 135.299 130.343 133.17 129.252L132.208 128.731C132.112 128.682 132.002 128.672 131.899 128.705C131.797 128.737 131.712 128.809 131.661 128.905C131.635 128.952 131.619 129.003 131.613 129.056C131.606 129.109 131.61 129.163 131.625 129.215C131.639 129.266 131.664 129.314 131.696 129.356C131.729 129.398 131.77 129.433 131.816 129.459C131.882 129.459 132.257 129.715 132.844 130.021C136.652 132.121 139.702 134.353 139.58 134.981C139.58 134.981 139.433 135.138 138.862 135.196H138.658C136.212 135.196 119.486 129.806 97.8829 121.54C86.0743 117.026 57.1074 105.61 43.0725 97.0794C43.027 97.0456 42.975 97.0216 42.9199 97.0092C42.8648 96.9967 42.8078 96.996 42.7524 97.007C42.6971 97.0181 42.6445 97.0406 42.5982 97.0733C42.5519 97.106 42.5127 97.1481 42.4833 97.1969C42.4538 97.2457 42.4347 97.3001 42.4271 97.3568C42.4195 97.4135 42.4236 97.4712 42.4391 97.5262C42.4546 97.5812 42.4812 97.6324 42.5173 97.6764C42.5533 97.7204 42.5979 97.7564 42.6484 97.7821C64.7977 111.207 132.257 135.981 138.707 135.981Z" fill="#231F20"/>
<path d="M54.579 103.982C54.579 103.982 64.3651 80.712 63.4599 80.3979C62.5547 80.0837 43.8877 67.6759 42.33 68.61C40.7724 69.5441 34.9904 87.54 36.8253 92.814C38.6602 98.0879 54.579 103.982 54.579 103.982Z" fill="#148532"/>
<path d="M52.1328 104.098C52.2208 104.097 52.3065 104.069 52.3781 104.018C52.4497 103.966 52.5037 103.893 52.5324 103.808C52.566 103.701 52.5566 103.584 52.5063 103.484C52.456 103.383 52.3687 103.307 52.2633 103.271C52.1247 103.221 38.5383 98.5758 33.1722 91.6155C33.1381 91.5719 33.0958 91.5355 33.0477 91.5086C32.9997 91.4816 32.9468 91.4645 32.8922 91.4584C32.8376 91.4522 32.7824 91.4571 32.7296 91.4727C32.6769 91.4883 32.6278 91.5144 32.585 91.5494C32.5404 91.5826 32.503 91.6248 32.475 91.6732C32.447 91.7216 32.429 91.7753 32.4221 91.831C32.4153 91.8867 32.4197 91.9432 32.4351 91.9971C32.4504 92.051 32.4765 92.1012 32.5116 92.1445C38.0326 99.3032 51.4315 103.891 51.9942 104.081C52.0391 104.095 52.086 104.1 52.1328 104.098Z" fill="#231F20"/>
<path d="M41.2781 53.5323C41.3775 53.5301 41.4729 53.4919 41.5469 53.4245C41.6209 53.3572 41.6687 53.2651 41.6815 53.1652C41.6944 53.0652 41.6714 52.9638 41.6168 52.8795C41.5623 52.7952 41.4797 52.7335 41.3841 52.7056C39.8615 52.2453 38.4606 51.4439 37.2847 50.3607C36.1089 49.2776 35.1882 47.9404 34.5909 46.448C33.4024 43.3978 33.119 40.062 33.7754 36.8507C34.2319 33.7463 35.5628 30.8415 37.6083 28.4852C38.6322 27.3445 39.8982 26.4543 41.3108 25.8816C42.7234 25.3088 44.2458 25.0685 45.7634 25.1786L46.3587 25.2613C46.8035 25.3368 47.2533 25.3783 47.7043 25.3853C48.2543 25.3584 48.8004 25.2781 49.3353 25.1455L49.686 25.0711C52.5605 24.4885 55.5336 24.6513 58.3294 25.5445C61.1252 26.4376 63.6532 28.0322 65.6787 30.1801C67.7042 32.3281 69.1616 34.9599 69.9157 37.8313C70.6698 40.7027 70.6961 43.7206 69.9922 46.6051C69.7965 47.4317 69.3235 48.7461 68.3204 48.87C68.2652 48.8751 68.2116 48.8915 68.1628 48.9182C68.1141 48.945 68.0712 48.9815 68.0369 49.0256C68.0025 49.0697 67.9774 49.1204 67.9631 49.1747C67.9487 49.229 67.9454 49.2856 67.9534 49.3412C67.9595 49.3967 67.9764 49.4505 68.0031 49.4993C68.0298 49.5482 68.0658 49.5912 68.1091 49.6258C68.1523 49.6604 68.2019 49.6859 68.255 49.7009C68.3081 49.716 68.3636 49.7201 68.4182 49.7132C69.5355 49.5727 70.3836 48.5477 70.8077 46.8117C71.553 43.7839 71.5306 40.6142 70.7426 37.5976C69.9545 34.5809 68.4265 31.8154 66.3007 29.5582C64.1748 27.301 61.5202 25.6256 58.5839 24.6879C55.6475 23.7502 52.5249 23.5806 49.5066 24.1949L49.1396 24.2693C48.6481 24.3949 48.1454 24.4697 47.6391 24.4925C47.2346 24.4815 46.8314 24.4429 46.4321 24.3768C46.2201 24.3768 46.0162 24.3106 45.8042 24.2941C44.1594 24.16 42.5063 24.4133 40.9742 25.0342C39.442 25.6552 38.0724 26.6269 36.9722 27.8734C34.8012 30.3462 33.3847 33.4044 32.8946 36.6771C32.2123 40.0546 32.5214 43.5607 33.7835 46.7621C34.4285 48.3731 35.4233 49.816 36.6939 50.9838C37.9646 52.1516 39.4784 53.0142 41.1231 53.5075L41.2781 53.5323Z" fill="#231F20"/>
<path d="M47.6475 24.9388C47.6475 24.9388 43.4068 21.7479 36.5157 23.4508C29.6247 25.1537 27.0232 37.8839 33.4576 44.7119C33.4576 44.7119 32.4545 26.1043 47.6475 24.9388Z" fill="#148532"/>
<path d="M23.125 64.8488H23.1658C26.4281 64.6452 29.5542 63.4497 32.1364 61.4183C33.4309 60.3831 34.4723 59.0592 35.1795 57.5494C35.8867 56.0397 36.2407 54.3849 36.2139 52.7138C36.213 52.6573 36.2006 52.6016 36.1776 52.5502C36.1546 52.4987 36.1215 52.4526 36.0802 52.4146C36.039 52.3767 35.9904 52.3477 35.9377 52.3295C35.8849 52.3113 35.8291 52.3042 35.7735 52.3087C35.7182 52.3108 35.6638 52.3241 35.6136 52.3478C35.5634 52.3715 35.5183 52.4051 35.4811 52.4467C35.4439 52.4883 35.4152 52.537 35.3968 52.5899C35.3784 52.6429 35.3706 52.6991 35.3739 52.7551C35.3969 54.2913 35.0705 55.8123 34.4199 57.2C33.7694 58.5877 32.8122 59.8048 31.6226 60.757C29.6304 62.3453 27.2685 63.3872 24.7641 63.7825C25.452 63.0013 25.8899 62.0271 26.02 60.9884C26.1537 59.4223 25.916 57.8465 25.3268 56.3923C24.3438 53.9224 23.1457 51.546 21.7468 49.2915C19.7161 45.7783 17.7997 42.4635 17.3756 38.6113C17.1273 36.3863 17.4203 34.1334 18.229 32.0496C19.0377 29.9658 20.3375 28.1145 22.0149 26.6573C23.6922 25.2001 25.696 24.1813 27.8513 23.6901C30.0066 23.1989 32.2478 23.2501 34.379 23.8393C34.4871 23.8676 34.6018 23.8524 34.6991 23.797C34.7964 23.7415 34.8687 23.65 34.9009 23.5417C34.9157 23.488 34.9199 23.4318 34.9131 23.3764C34.9063 23.3211 34.8888 23.2676 34.8615 23.2192C34.8342 23.1707 34.7976 23.1283 34.754 23.0942C34.7104 23.0602 34.6605 23.0353 34.6074 23.0209C32.3416 22.394 29.9589 22.3392 27.6674 22.8614C25.376 23.3835 23.2456 24.4668 21.4627 26.0164C19.6797 27.566 18.2983 29.5347 17.4394 31.7505C16.5805 33.9663 16.2702 36.3616 16.5356 38.7271C16.9842 42.7528 19.0393 46.2991 21.021 49.7379C22.3733 51.943 23.5331 54.2636 24.4869 56.6734C25.0414 57.9946 25.2655 59.4343 25.1393 60.8644C25.0762 61.5365 24.8425 62.1806 24.4609 62.734C24.0793 63.2874 23.5629 63.7312 22.9619 64.0222C22.872 64.0601 22.7977 64.1282 22.7515 64.2151C22.7053 64.302 22.69 64.4023 22.7082 64.4993C22.7263 64.5962 22.7769 64.6839 22.8513 64.7476C22.9257 64.8112 23.0195 64.847 23.1168 64.8488H23.125Z" fill="#231F20"/>
<path d="M60.5485 83.8533C60.6527 83.8719 60.7601 83.8503 60.8494 83.7927C60.9388 83.7351 61.0036 83.6456 61.0312 83.542C61.0588 83.4384 61.0472 83.3281 60.9986 83.2327C60.95 83.1374 60.868 83.0639 60.7686 83.0267L44.0099 72.5532C43.9145 72.4948 43.8003 72.4769 43.692 72.5032C43.5836 72.5294 43.4899 72.5979 43.4309 72.6937C43.4013 72.7413 43.3814 72.7944 43.3723 72.8499C43.3633 72.9053 43.3653 72.9621 43.3782 73.0168C43.3911 73.0715 43.4147 73.123 43.4475 73.1683C43.4804 73.2136 43.5219 73.2518 43.5695 73.2806L60.3283 83.7542C60.3909 83.8077 60.4673 83.8421 60.5485 83.8533Z" fill="#231F20"/>
<path d="M182.231 193.416C182.303 193.417 182.374 193.397 182.435 193.358C182.518 193.302 182.576 193.216 182.598 193.117C182.619 193.018 182.601 192.915 182.549 192.829L170.145 173.279C170.12 173.234 170.086 173.194 170.045 173.163C170.004 173.131 169.957 173.108 169.908 173.096C169.858 173.084 169.806 173.082 169.755 173.09C169.705 173.099 169.656 173.118 169.613 173.146C169.57 173.175 169.534 173.212 169.505 173.255C169.477 173.298 169.458 173.347 169.448 173.398C169.439 173.449 169.441 173.502 169.453 173.552C169.464 173.603 169.486 173.651 169.517 173.692L181.88 193.242C181.917 193.301 181.969 193.348 182.031 193.379C182.093 193.41 182.162 193.422 182.231 193.416Z" fill="#D1D3D4"/>
<path d="M89.4667 13.2666C89.5271 13.2665 89.5866 13.2515 89.6401 13.223C89.6936 13.1946 89.7395 13.1534 89.7739 13.1031C89.8084 13.0528 89.8303 12.9948 89.8379 12.934C89.8454 12.8733 89.8384 12.8115 89.8174 12.7541L85.2261 0.222296C85.1867 0.134876 85.1161 0.065816 85.0285 0.0290034C84.9409 -0.00780915 84.8429 -0.00964326 84.754 0.0238713C84.6652 0.0573859 84.5921 0.123763 84.5496 0.209651C84.507 0.295539 84.4982 0.394567 84.5247 0.48682L89.1161 13.0517C89.1468 13.1188 89.1966 13.1751 89.259 13.2134C89.3215 13.2517 89.3938 13.2702 89.4667 13.2666Z" fill="#D1D3D4"/>
<path d="M20.124 89.1437C20.2122 89.1448 20.2978 89.1136 20.3652 89.0559C20.4326 88.9982 20.4772 88.9179 20.491 88.8295C20.4991 88.7801 20.4975 88.7296 20.4864 88.6808C20.4752 88.632 20.4546 88.5859 20.4258 88.5452C20.397 88.5045 20.3606 88.4699 20.3186 88.4435C20.2766 88.4172 20.2298 88.3994 20.1811 88.3914L0.437551 85.0849C0.339413 85.0704 0.239538 85.095 0.158937 85.1536C0.0783367 85.2122 0.0232868 85.3001 0.00533295 85.399C-0.00282669 85.4484 -0.00128746 85.499 0.0098877 85.5477C0.0210629 85.5965 0.0416412 85.6426 0.0704384 85.6833C0.0992355 85.724 0.135696 85.7586 0.177704 85.785C0.219709 85.8114 0.266424 85.8291 0.315207 85.8371L20.0669 89.1023L20.124 89.1437Z" fill="#D1D3D4"/>
<path d="M20.5802 172.006C20.6373 172.007 20.6937 171.993 20.7447 171.968C20.7958 171.942 20.8401 171.904 20.8738 171.857L33.2777 156.035C33.3379 155.955 33.3648 155.854 33.3526 155.753C33.3404 155.653 33.2901 155.561 33.2125 155.498C33.1747 155.466 33.131 155.443 33.0842 155.429C33.0373 155.415 32.9881 155.41 32.9395 155.416C32.8908 155.421 32.8438 155.436 32.801 155.46C32.7583 155.484 32.7207 155.517 32.6905 155.556L20.2866 171.386C20.2558 171.425 20.233 171.471 20.2195 171.519C20.2061 171.568 20.2023 171.618 20.2084 171.668C20.2145 171.718 20.2303 171.767 20.2549 171.81C20.2795 171.854 20.3125 171.893 20.3518 171.923C20.4174 171.975 20.4974 172.004 20.5802 172.006Z" fill="#D1D3D4"/>
<path d="M213.62 37.6112C213.71 37.6123 213.797 37.5799 213.864 37.5203L222.729 29.7995C222.797 29.7272 222.835 29.631 222.835 29.5309C222.835 29.4308 222.797 29.3345 222.729 29.2622C222.698 29.2231 222.659 29.1909 222.615 29.1676C222.571 29.1442 222.522 29.1302 222.473 29.1263C222.423 29.1225 222.373 29.1289 222.326 29.1451C222.279 29.1614 222.236 29.1871 222.199 29.2209L213.334 36.9417C213.296 36.9735 213.264 37.013 213.241 37.0576C213.218 37.1023 213.204 37.1512 213.2 37.2015C213.197 37.2517 213.203 37.3022 213.219 37.3499C213.235 37.3976 213.26 37.4415 213.294 37.479C213.332 37.5275 213.382 37.5652 213.44 37.5883C213.497 37.6115 213.559 37.6194 213.62 37.6112Z" fill="#D1D3D4"/>
<path d="M57.5475 133.394C57.6158 133.394 57.6831 133.377 57.7432 133.344C57.7901 133.319 57.8316 133.285 57.8653 133.243C57.899 133.202 57.9242 133.154 57.9394 133.102C57.9545 133.05 57.9594 132.996 57.9538 132.943C57.9481 132.889 57.932 132.838 57.9063 132.79L49.0254 116.34C48.9825 116.26 48.9141 116.196 48.8312 116.16C48.7482 116.124 48.6557 116.118 48.5687 116.142C48.4811 116.163 48.4032 116.214 48.3482 116.286C48.2933 116.358 48.2646 116.448 48.267 116.539V131.121C48.267 131.23 48.3099 131.335 48.3864 131.413C48.4629 131.49 48.5666 131.534 48.6747 131.534C48.7829 131.534 48.8866 131.49 48.963 131.413C49.0395 131.335 49.0825 131.23 49.0825 131.121V118.151L57.2376 133.187C57.2694 133.244 57.3141 133.292 57.368 133.328C57.4219 133.364 57.4834 133.387 57.5475 133.394Z" fill="white"/>
</svg>
