<svg width="24" height="24" viewBox="0 0 24 24" fill="none" xmlns="http://www.w3.org/2000/svg">
<path d="M4.52499 19.475C4.37499 19.325 4.29999 19.15 4.29999 18.95C4.29999 18.75 4.37499 18.575 4.52499 18.425L16.45 6.5H9.84999C9.63749 6.5 9.45936 6.42771 9.31561 6.28313C9.17186 6.13853 9.09999 5.95936 9.09999 5.74563C9.09999 5.53188 9.17186 5.35417 9.31561 5.2125C9.45936 5.07083 9.63749 5 9.84999 5H18.25C18.4625 5 18.6406 5.07187 18.7844 5.21563C18.9281 5.35938 19 5.5375 19 5.75V14.15C19 14.3625 18.9277 14.5406 18.7831 14.6844C18.6385 14.8281 18.4593 14.9 18.2456 14.9C18.0319 14.9 17.8542 14.8281 17.7125 14.6844C17.5708 14.5406 17.5 14.3625 17.5 14.15V7.55L5.57499 19.475C5.42499 19.625 5.24999 19.7 5.04999 19.7C4.84999 19.7 4.67499 19.625 4.52499 19.475Z" fill="white"/>
</svg>
