<svg width="70" height="70" viewBox="0 0 70 70" fill="none" xmlns="http://www.w3.org/2000/svg">
<path d="M34.8665 70C47.4783 70 57.7022 69.6433 57.7022 69.2031C57.7022 68.763 47.4783 68.4062 34.8665 68.4062C22.2547 68.4062 12.0308 68.763 12.0308 69.2031C12.0308 69.6433 22.2547 70 34.8665 70Z" fill="#D1D3D4"/>
<path d="M32.7788 61.5599L34.0527 66.3013H37.4545L36.9175 60.8601L32.7788 61.5599Z" fill="white"/>
<path d="M37.4543 66.4469H34.0525C34.0203 66.4472 33.989 66.4366 33.9636 66.4169C33.9382 66.3972 33.9202 66.3695 33.9125 66.3383L32.6358 61.5998C32.6312 61.5799 32.6306 61.5594 32.634 61.5393C32.6375 61.5192 32.6448 61.4999 32.6558 61.4827C32.6662 61.4648 32.6807 61.4495 32.698 61.4381C32.7154 61.4267 32.7351 61.4195 32.7557 61.417L36.8916 60.7144C36.9116 60.7103 36.9322 60.7108 36.9519 60.7158C36.9717 60.7207 36.9901 60.73 37.0058 60.7429C37.0219 60.7553 37.0352 60.7708 37.045 60.7885C37.0548 60.8061 37.0609 60.8256 37.063 60.8458L37.6028 66.2726C37.6054 66.3141 37.5921 66.3549 37.5657 66.3869C37.5526 66.4045 37.5359 66.419 37.5167 66.4293C37.4974 66.4397 37.4761 66.4457 37.4543 66.4469ZM34.1667 66.1612H37.2915L36.7859 61.04L32.9642 61.6884L34.1667 66.1612Z" fill="white"/>
<path d="M33.8472 65.5301L37.3718 65.7386C37.3718 65.7386 42.1617 68.7291 41.8104 68.9747C41.4591 69.2204 34.2042 68.7891 34.2042 68.7891L33.8472 65.5301Z" fill="white"/>
<path d="M40.6133 69.1716C38.7625 69.1716 35.4435 68.9917 34.1953 68.9174C34.1617 68.9156 34.1298 68.902 34.1053 68.8791C34.0807 68.8561 34.0651 68.8251 34.0611 68.7917L33.704 65.547C33.7025 65.5263 33.7052 65.5054 33.7121 65.4857C33.719 65.4661 33.7299 65.4481 33.744 65.4328C33.7739 65.4039 33.8138 65.3875 33.8554 65.3871L37.38 65.5956C37.4035 65.5976 37.4261 65.6054 37.4457 65.6184C39.1338 66.6724 41.9643 68.5004 41.97 68.926C41.9704 68.957 41.9631 68.9876 41.9486 69.0151C41.9341 69.0425 41.913 69.0659 41.8872 69.0831C41.4689 69.1727 41.04 69.2025 40.6133 69.1716ZM34.3296 68.6404C36.9002 68.7889 40.8618 68.9631 41.6273 68.8631C41.2474 68.4404 39.2337 67.0723 37.3229 65.8784L34.0039 65.6813L34.3296 68.6404Z" fill="white"/>
<path d="M26.4295 61.5599L25.3613 66.3013H21.9595L22.5679 60.8601L26.4295 61.5599Z" fill="white"/>
<path d="M25.3612 66.4468H21.9679C21.947 66.447 21.9262 66.4428 21.9071 66.4344C21.8879 66.4261 21.8706 66.4137 21.8565 66.3982C21.843 66.3827 21.8328 66.3645 21.8264 66.3449C21.82 66.3253 21.8176 66.3046 21.8194 66.284L22.4249 60.8428C22.4276 60.8226 22.4343 60.8031 22.4446 60.7854C22.4549 60.7678 22.4686 60.7523 22.4849 60.74C22.5011 60.7279 22.5196 60.7193 22.5393 60.7149C22.559 60.7105 22.5794 60.7103 22.5992 60.7143L26.4608 61.4169C26.4806 61.4199 26.4994 61.427 26.5162 61.4379C26.5329 61.4487 26.5472 61.463 26.5579 61.4798C26.5787 61.514 26.5858 61.5548 26.5779 61.594L25.5126 66.3326C25.5041 66.366 25.4845 66.3955 25.457 66.4163C25.4294 66.4371 25.3956 66.4479 25.3612 66.4468ZM22.125 66.1612H25.2441L26.2523 61.6797L22.6963 61.0314L22.125 66.1612Z" fill="white"/>
<path d="M26.5722 39.921C28.1888 40.0781 29.7569 40.5894 31.3735 40.7779C32.9902 40.9664 34.761 40.7779 35.9864 39.7011C37.0803 38.7499 37.6002 37.2304 38.7969 36.4135C40.6135 35.171 43.0813 36.0536 45.2635 35.8423C46.4068 35.6948 47.502 35.2906 48.4671 34.6599C49.4321 34.0293 50.242 33.1885 50.836 32.2005C52.187 29.8698 53.6123 27.7534 55.6431 25.9453C56.1344 25.5083 56.6599 25.0885 56.937 24.4801C56.7228 24.9371 50.8417 23.1805 50.2705 22.8949C48.3996 21.9609 46.5202 20.6984 44.7065 19.6102C41.0591 17.408 37.5002 14.9088 33.3929 13.7777C30.6309 13.0203 27.7306 12.9156 24.9213 13.4721C22.6762 13.9205 20.397 14.8859 19.0745 16.7539C17.1408 19.4845 18.0777 22.5521 18.072 25.6083C18.0694 28.9685 17.6374 32.3145 16.7867 35.5652C16.4153 36.9933 15.9441 38.4215 15.0215 39.564C17.6292 41.4205 20.1313 40.8407 22.9647 40.1695C24.1454 39.8894 25.3642 39.8055 26.5722 39.921Z" fill="white"/>
<path d="M32.439 40.9833C32.0771 40.9829 31.7157 40.9609 31.3564 40.9176C30.5767 40.8291 29.7998 40.6606 29.0486 40.5006C28.2277 40.306 27.396 40.1601 26.5579 40.0636C25.3672 39.9497 24.1657 40.0327 23.0019 40.3092C20.2371 40.9662 17.6236 41.586 14.9473 39.6809C14.9312 39.6702 14.9176 39.6564 14.9073 39.6401C14.8969 39.6239 14.8901 39.6057 14.8873 39.5866C14.8843 39.5673 14.8856 39.5476 14.891 39.5289C14.8965 39.5101 14.9059 39.4928 14.9187 39.4781C15.8327 38.3356 16.2926 36.9074 16.6553 35.5364C17.5023 32.2978 17.9323 28.9643 17.9349 25.6167C17.9349 24.8598 17.8807 24.0914 17.8235 23.3488C17.655 21.0952 17.4808 18.7645 18.966 16.6709C20.4513 14.5773 23.0048 13.7118 24.9013 13.3319C27.7333 12.7693 30.6575 12.8749 33.4415 13.6404C36.8405 14.5773 39.9024 16.471 42.8671 18.3047C43.5069 18.6988 44.1439 19.093 44.7865 19.4786C45.3092 19.7928 45.8376 20.1213 46.3718 20.4526C47.6714 21.2609 49.0138 22.0978 50.342 22.7604C50.6047 22.8918 52.13 23.3745 53.6295 23.7801C56.2972 24.497 56.7714 24.4142 56.8285 24.3885C56.8479 24.362 56.8758 24.343 56.9075 24.3347C56.9392 24.3264 56.9729 24.3292 57.0027 24.3428C57.0198 24.3505 57.0351 24.3615 57.0478 24.3752C57.0606 24.3889 57.0704 24.405 57.0768 24.4226C57.0832 24.4402 57.086 24.4588 57.085 24.4775C57.0841 24.4962 57.0794 24.5145 57.0713 24.5313C56.7708 25.0754 56.3615 25.5518 55.8688 25.9309L55.7431 26.0423C53.6181 27.9331 52.1899 30.1496 50.9646 32.2632C50.3586 33.2701 49.5328 34.127 48.5491 34.77C47.5653 35.413 46.449 35.8253 45.2835 35.9763C44.507 36.0291 43.7275 36.0176 42.9528 35.942C41.4533 35.8392 40.0366 35.7392 38.8827 36.5304C38.2514 36.9617 37.8201 37.5901 37.3603 38.2442C37.0029 38.8146 36.5749 39.3376 36.0864 39.8008C35.0267 40.7263 33.65 40.9833 32.439 40.9833ZM25.5211 39.7294C25.8753 39.7294 26.2323 39.7466 26.5837 39.7808C27.433 39.8789 28.2761 40.0258 29.1086 40.2207C29.8512 40.3806 30.6224 40.5463 31.3936 40.6349C32.7275 40.7891 34.5897 40.7348 35.9007 39.5952C36.3701 39.1473 36.7817 38.6426 37.1261 38.0928C37.5802 37.4359 38.0486 36.7561 38.7227 36.2934C39.9595 35.4365 41.4904 35.5564 42.9728 35.6593C43.7323 35.7321 44.4965 35.7435 45.2578 35.6935C46.3767 35.5478 47.4482 35.1516 48.3927 34.5344C49.3373 33.9173 50.1305 33.095 50.7133 32.1289C51.95 29.9953 53.3953 27.756 55.5489 25.8452L55.6746 25.7366C56.0454 25.4368 56.3748 25.0891 56.6543 24.7027C55.3118 24.7027 50.6019 23.2289 50.2077 23.0318C48.871 22.3634 47.52 21.5237 46.209 20.7125C45.6777 20.3812 45.1493 20.0527 44.6266 19.7385C43.9868 19.3529 43.347 18.9588 42.7072 18.5617C39.7624 16.7423 36.7091 14.8486 33.3558 13.9318C30.6153 13.1796 27.7374 13.076 24.9499 13.629C23.1019 13.9974 20.6027 14.8572 19.1888 16.8537C17.775 18.8502 17.9292 21.041 18.1006 23.3431C18.1577 24.0914 18.2148 24.8683 18.2148 25.6281C18.2117 29.0018 17.7779 32.3612 16.9238 35.625C16.5668 36.9874 16.1155 38.3984 15.2272 39.5523C17.755 41.2661 20.1571 40.6948 22.9391 40.0493C23.7844 39.8425 24.6509 39.7351 25.5211 39.7294Z" fill="white"/>
<path d="M16.0326 30.2098C15.7469 32.1834 15.4385 34.1685 14.7215 36.0279C14.0046 37.8874 12.8564 39.6325 11.2026 40.7465C13.1115 42.0407 15.2931 42.8773 17.5778 43.1914C18.4429 38.3846 18.8646 33.5085 18.8374 28.6245C18.8374 27.4402 18.805 26.2567 18.7403 25.0742C18.6974 24.2002 18.9259 22.1608 18.4747 21.4125C17.8149 20.3214 17.3036 22.1837 17.0465 23.012C16.361 25.2942 16.361 27.8619 16.0326 30.2098Z" fill="white"/>
<path d="M17.578 43.3369H17.558C15.2488 43.0213 13.0436 42.1767 11.1143 40.8691C11.0943 40.8554 11.0779 40.8371 11.0666 40.8157C11.0552 40.7943 11.0493 40.7705 11.0493 40.7462C11.0493 40.722 11.0552 40.6982 11.0666 40.6768C11.0779 40.6553 11.0943 40.637 11.1143 40.6234C12.9823 39.3667 14.0306 37.4016 14.579 35.9763C15.293 34.1254 15.6129 32.1004 15.8814 30.1895C15.9871 29.4241 16.0614 28.6214 16.1328 27.8445C16.2813 26.2108 16.4355 24.5227 16.9039 22.9889L16.9439 22.8632C17.2296 21.8893 17.538 21.0124 18.0122 20.9524C18.2235 20.9258 18.4139 21.06 18.5834 21.3551C18.9347 21.9264 18.9033 23.1774 18.869 24.1743C18.869 24.5399 18.8519 24.854 18.869 25.0883C18.9262 26.2622 18.9604 27.459 18.9662 28.6414C18.9912 33.5311 18.5687 38.4128 17.7037 43.2255C17.6964 43.2545 17.6805 43.2807 17.6581 43.3006C17.6357 43.3205 17.6078 43.3331 17.578 43.3369ZM11.4656 40.7434C13.2741 41.934 15.3215 42.7139 17.4638 43.0284C18.3092 38.2789 18.7222 33.4626 18.6977 28.6386C18.6977 27.459 18.6577 26.265 18.6006 25.0968C18.5863 24.8512 18.6006 24.5256 18.6006 24.1628C18.6234 23.2545 18.6548 22.0092 18.3464 21.5008C18.2407 21.3237 18.1378 21.2152 18.0607 21.2409C17.738 21.2809 17.3866 22.4434 17.2353 22.9546L17.1981 23.0803C16.7383 24.5941 16.584 26.2679 16.4355 27.8845C16.3641 28.6643 16.2927 29.4726 16.1842 30.2438C15.9128 32.1746 15.5901 34.214 14.8646 36.0963C14.082 38.1013 12.9109 39.7094 11.4656 40.7434Z" fill="white"/>
<path d="M23.3447 30.9808L21.4995 63.8706H26.5665L29.697 40.3807V30.2439L23.3447 30.9808Z" fill="white"/>
<path d="M26.5665 64.0133H21.4995C21.4803 64.0137 21.4613 64.0101 21.4436 64.0027C21.4259 63.9954 21.4099 63.9843 21.3967 63.9704C21.3829 63.9566 21.3722 63.9401 21.3653 63.9219C21.3584 63.9037 21.3555 63.8842 21.3567 63.8647L23.2019 30.9864C23.2037 30.9531 23.2174 30.9216 23.2405 30.8975C23.2635 30.8734 23.2944 30.8584 23.3275 30.855L29.6798 30.101C29.6998 30.0987 29.7199 30.1006 29.7391 30.1065C29.7583 30.1124 29.776 30.1222 29.7912 30.1352C29.8057 30.1494 29.8172 30.1662 29.8251 30.1849C29.8329 30.2035 29.837 30.2236 29.8369 30.2438V40.3806L26.6951 63.8904C26.6902 63.9222 26.6749 63.9515 26.6517 63.9737C26.6284 63.9959 26.5985 64.0098 26.5665 64.0133ZM21.6509 63.7276H26.4437L29.5542 40.3606V30.4152L23.4789 31.1207L21.6509 63.7276Z" fill="white"/>
<path d="M35.8748 30.9808L37.7199 63.8706H32.6529L29.5225 40.3807V30.2439L35.8748 30.9808Z" fill="white"/>
<path d="M37.72 64.0133H32.6502C32.6158 64.0135 32.5826 64.0011 32.5568 63.9785C32.531 63.9558 32.5144 63.9245 32.5102 63.8904L29.394 40.412V30.2438C29.3939 30.2233 29.3981 30.2029 29.4065 30.1842C29.4149 30.1655 29.4272 30.1488 29.4426 30.1352C29.4578 30.1222 29.4756 30.1124 29.4947 30.1065C29.5139 30.1006 29.5341 30.0987 29.554 30.101L35.9034 30.8407C35.9368 30.8435 35.968 30.8584 35.9912 30.8826C36.0143 30.9068 36.0278 30.9387 36.0291 30.9721L37.8743 63.8647C37.8754 63.8839 37.8726 63.9031 37.8663 63.9213C37.8599 63.9394 37.85 63.9561 37.8371 63.9704C37.8222 63.9861 37.8039 63.9982 37.7836 64.0056C37.7633 64.013 37.7415 64.0156 37.72 64.0133ZM32.7759 63.7276H37.5686L35.7378 31.1064L29.6797 30.4152V40.392L32.7759 63.7276Z" fill="white"/>
<path d="M17.5978 26.6679C17.5978 26.6679 22.2163 30.9523 22.4534 31.3436C22.6447 31.6521 22.9504 31.8891 23.1017 32.2262C23.2531 32.5632 22.9361 34.9568 22.7619 35.905C22.7474 36.047 22.6984 36.1834 22.619 36.302C22.5123 36.401 22.3803 36.4683 22.2375 36.4965C22.0948 36.5248 21.9471 36.5128 21.8107 36.462C21.364 36.3543 20.9527 36.1329 20.6168 35.8193C20.4911 35.6994 20.374 35.4937 20.4968 35.3738C20.5372 35.3435 20.5837 35.3226 20.6332 35.3128C20.6826 35.3029 20.7336 35.3042 20.7825 35.3166L21.3309 35.3709C21.0079 35.1319 20.7769 34.789 20.6768 34.3998C20.6316 34.2048 20.634 34.0018 20.6837 33.808C20.7334 33.6141 20.829 33.435 20.9624 33.2858C20.6568 33.0631 19.5172 32.1034 19.2144 31.8349C18.6117 31.2979 17.9919 30.7838 17.3978 30.2382L15.0186 28.056L17.5978 26.6679Z" fill="white"/>
<path d="M22.1336 36.6505C22.0169 36.6498 21.9008 36.6345 21.7879 36.6048C21.3152 36.4917 20.8801 36.2574 20.5255 35.925C20.4037 35.8178 20.3263 35.6691 20.3084 35.508C20.3075 35.4637 20.3153 35.4197 20.3315 35.3785C20.3477 35.3374 20.3719 35.2998 20.4027 35.268C20.4592 35.2225 20.5253 35.1902 20.5959 35.1734C20.6666 35.1566 20.7401 35.1557 20.8111 35.1709H20.9339C20.7472 34.956 20.615 34.6994 20.5483 34.4226C20.5036 34.2314 20.4988 34.033 20.5342 33.8399C20.5695 33.6468 20.6444 33.463 20.754 33.3001C20.3398 32.9745 19.3944 32.1776 19.1202 31.9348C18.846 31.692 18.6289 31.5035 18.3833 31.2893C18.0263 30.9808 17.655 30.6609 17.3008 30.3353L14.9215 28.1531C14.9046 28.1369 14.8917 28.117 14.8838 28.0949C14.876 28.0729 14.8733 28.0493 14.8761 28.026C14.8788 28.0028 14.887 27.9805 14.8998 27.9609C14.9126 27.9413 14.9299 27.925 14.9501 27.9132L17.5207 26.5279C17.5478 26.513 17.5789 26.5069 17.6096 26.5105C17.6403 26.514 17.6692 26.5271 17.6921 26.5479C18.1662 26.9878 22.3335 30.8523 22.5848 31.255C22.6655 31.3768 22.7552 31.4923 22.8533 31.6006C23.0089 31.7656 23.1397 31.9522 23.2418 32.1547C23.416 32.5489 23.0504 35.1766 22.9133 35.9221C22.895 36.0872 22.8362 36.2452 22.7419 36.382C22.6679 36.4704 22.5746 36.5406 22.4691 36.5872C22.3636 36.6338 22.2488 36.6554 22.1336 36.6505ZM20.7054 35.4565C20.6746 35.454 20.6437 35.461 20.6169 35.4765C20.6186 35.5217 20.6299 35.5659 20.6501 35.6063C20.6703 35.6467 20.6989 35.6823 20.734 35.7107C21.0546 36.0107 21.4487 36.2206 21.8765 36.3191C22.0222 36.3534 22.3763 36.4134 22.5363 36.2106C22.599 36.1103 22.6381 35.997 22.6505 35.8793C22.8533 34.7682 23.1047 32.5317 22.999 32.2861C22.9081 32.1098 22.7927 31.9473 22.6562 31.8034C22.5527 31.6833 22.4573 31.5564 22.3706 31.4235C22.1992 31.1379 19.4572 28.5673 17.6064 26.8535L15.3043 28.0931L17.5321 30.1353C17.8835 30.4581 18.2519 30.7751 18.6061 31.0836C18.8546 31.2978 19.1031 31.5121 19.3487 31.7291C19.6515 32.0005 20.7768 32.9516 21.0825 33.1744C21.0994 33.1861 21.1136 33.2013 21.1239 33.2191C21.1343 33.2369 21.1406 33.2567 21.1424 33.2772C21.144 33.298 21.1412 33.3189 21.1344 33.3385C21.1275 33.3582 21.1166 33.3762 21.1024 33.3915C20.9881 33.5248 20.9069 33.6834 20.8657 33.8542C20.8245 34.025 20.8244 34.2032 20.8654 34.374C20.9578 34.7293 21.1696 35.0419 21.4652 35.2595C21.4907 35.2789 21.5093 35.3062 21.518 35.3371C21.5268 35.368 21.5253 35.4009 21.5137 35.4308C21.5021 35.4608 21.4811 35.4862 21.4538 35.5032C21.4265 35.5202 21.3944 35.5279 21.3624 35.5251L20.814 35.468L20.7054 35.4565Z" fill="#1E1E1E"/>
<path d="M41.7646 26.6679C41.7646 26.6679 37.1432 30.9523 36.8947 31.3436C36.7033 31.6521 36.3977 31.8891 36.2463 32.2262C36.095 32.5632 36.412 34.9568 36.5862 35.905C36.6007 36.047 36.6497 36.1834 36.729 36.302C36.8357 36.401 36.9678 36.4683 37.1105 36.4965C37.2533 36.5248 37.401 36.5128 37.5374 36.462C37.9843 36.3549 38.3958 36.1334 38.7313 35.8193C38.8598 35.6994 38.9741 35.4937 38.8512 35.3738C38.8109 35.3435 38.7643 35.3226 38.7149 35.3128C38.6655 35.3029 38.6145 35.3042 38.5656 35.3166L38.0172 35.3709C38.3411 35.1327 38.5723 34.7894 38.6713 34.3998C38.7186 34.2059 38.7187 34.0036 38.6714 33.8097C38.6242 33.6159 38.5311 33.4362 38.3999 33.2858C38.7027 33.0631 39.8281 32.1034 40.1451 31.8349C40.7478 31.2979 41.3676 30.7838 41.9617 30.2382L44.341 28.056L41.7646 26.6679Z" fill="white"/>
<path d="M37.226 36.6504C37.1108 36.6577 36.9954 36.6382 36.8889 36.5937C36.7824 36.5491 36.6876 36.4805 36.6119 36.3934C36.5189 36.256 36.4601 36.0983 36.4405 35.9335C36.3034 35.188 35.9378 32.5603 36.1121 32.1661C36.2141 31.9637 36.345 31.777 36.5005 31.612C36.5986 31.5037 36.6883 31.3882 36.769 31.2664C37.0203 30.8637 41.1876 26.9992 41.6646 26.5593C41.6869 26.5384 41.7152 26.5252 41.7456 26.5216C41.7759 26.518 41.8066 26.5242 41.8331 26.5393L44.4038 27.9246C44.4238 27.9362 44.441 27.9523 44.4539 27.9716C44.4667 27.9909 44.475 28.013 44.478 28.036C44.4815 28.0595 44.4791 28.0835 44.4711 28.1059C44.4632 28.1283 44.4498 28.1485 44.4323 28.1645L42.0531 30.3467C41.6989 30.6723 41.3304 30.9922 40.9705 31.3007C40.7249 31.5149 40.4764 31.7291 40.2336 31.9462C39.9908 32.1633 39.014 32.9859 38.5998 33.3115C38.7095 33.4744 38.7843 33.6582 38.8197 33.8513C38.8551 34.0444 38.8502 34.2428 38.8055 34.434C38.7399 34.7106 38.6086 34.9673 38.4228 35.1823H38.5427C38.6137 35.1663 38.6874 35.1667 38.7582 35.1835C38.829 35.2004 38.895 35.2332 38.9512 35.2794C38.9825 35.3108 39.0071 35.3483 39.0233 35.3896C39.0395 35.4309 39.047 35.475 39.0454 35.5194C39.0275 35.6806 38.9501 35.8293 38.8283 35.9364C38.4738 36.2689 38.0386 36.5032 37.5659 36.6162C37.4544 36.6415 37.3403 36.6531 37.226 36.6504ZM41.796 26.8478C39.9423 28.5615 37.2003 31.1322 37.0289 31.4178C36.9423 31.5507 36.8469 31.6776 36.7433 31.7977C36.605 31.9401 36.4894 32.1029 36.4005 32.2804C36.292 32.526 36.5462 34.7625 36.749 35.8735C36.7592 35.9913 36.7974 36.1049 36.8604 36.2049C37.0261 36.4134 37.4059 36.342 37.5202 36.3134C37.948 36.2148 38.3421 36.005 38.6627 35.705C38.7275 35.6522 38.772 35.5785 38.7884 35.4965C38.7512 35.4422 38.6484 35.4537 38.6084 35.4565L38.06 35.5137C38.0281 35.516 37.9962 35.5081 37.969 35.4912C37.9418 35.4742 37.9206 35.4491 37.9086 35.4194C37.8971 35.3894 37.8956 35.3565 37.9044 35.3256C37.9131 35.2947 37.9317 35.2675 37.9572 35.248C38.2528 35.0304 38.4646 34.7178 38.557 34.3626C38.5987 34.1918 38.5989 34.0135 38.5577 33.8425C38.5165 33.6716 38.4349 33.513 38.3199 33.38C38.3058 33.3648 38.2949 33.3467 38.288 33.3271C38.2811 33.3074 38.2784 33.2866 38.2799 33.2658C38.2823 33.2454 38.2889 33.2258 38.2992 33.2081C38.3095 33.1904 38.3234 33.175 38.3399 33.163C38.6256 32.9402 39.7681 31.989 40.0737 31.7177C40.3193 31.5006 40.5678 31.2864 40.8163 31.0722C41.1705 30.7637 41.5389 30.4467 41.8903 30.1239L44.1181 28.0817L41.796 26.8478Z" fill="#1E1E1E"/>
<path d="M11.0227 24.2801C11.5368 23.0234 19.3058 14.2832 21.5908 13.2007C23.8758 12.1182 29.3941 12.898 29.3941 12.898H30.0196C30.0196 12.898 35.5436 12.1154 37.8286 13.2007C40.1136 14.2861 47.8798 23.0234 48.3968 24.2801C48.9137 25.5369 40.1308 32.6575 40.1308 32.6575L37.7201 30.244L43.147 24.223L39.034 22.1665C39.034 22.1665 36.5805 28.6788 36.352 32.1034H23.0704C22.8419 28.6759 20.3884 22.1665 20.3884 22.1665L16.2754 24.223L21.3252 29.6099L18.8945 32.6575C18.8945 32.6575 10.5086 25.5369 11.0227 24.2801Z" fill="white"/>
<path d="M41.0419 14.7516C45.4291 17.6821 49.8763 20.5412 54.592 22.9062C55.6802 23.4489 56.877 23.9801 58.0709 23.7316C57.1523 24.4917 56.0862 25.0534 54.9399 25.3813C53.7935 25.7092 52.5917 25.7961 51.4101 25.6368C49.0324 25.292 46.8621 24.0916 45.3063 22.2607C44.6522 21.4981 44.0867 20.624 43.2327 20.0956C42.6043 19.71 41.8702 19.5444 41.1847 19.2787C39.9075 18.7862 38.7921 17.9487 37.9629 16.8595C37.3688 16.0712 36.9232 15.1457 36.1863 14.5002C35.2037 13.6262 34.2383 13.8204 33.1101 14.1803C32.3389 14.4288 31.2878 14.5488 30.5938 14.9887C30.5938 14.9887 32.179 13.9833 32.1047 13.0635C32.0596 12.5199 32.0596 11.9734 32.1047 11.4298C32.119 11.2927 35.3494 11.8325 35.5579 11.8811C37.2145 12.2609 38.7426 13.2178 40.1479 14.1661L41.0419 14.7516Z" fill="white"/>
<path d="M52.5299 25.8453C52.1479 25.846 51.7662 25.8212 51.3874 25.771C48.9735 25.4199 46.7701 24.2015 45.1894 22.3435C45.0323 22.1579 44.8809 21.9694 44.7295 21.7723C44.2951 21.1627 43.7611 20.6306 43.15 20.1985C42.7167 19.9576 42.2578 19.766 41.7818 19.6272C41.5619 19.5558 41.342 19.4816 41.1249 19.3987C39.8259 18.8946 38.6926 18.0392 37.8516 16.9281C37.6488 16.6596 37.4603 16.3711 37.2804 16.0941C36.9543 15.5432 36.5567 15.0381 36.0979 14.5917C35.1553 13.7519 34.2499 13.9519 33.1645 14.306C32.9103 14.386 32.6304 14.4517 32.3391 14.5231C31.7605 14.626 31.2015 14.8187 30.6824 15.0944C30.6494 15.1148 30.6096 15.1214 30.5717 15.1129C30.5338 15.1044 30.5008 15.0813 30.4797 15.0487C30.469 15.0326 30.4617 15.0145 30.4581 14.9956C30.4545 14.9766 30.4547 14.9572 30.4587 14.9383C30.4627 14.9195 30.4704 14.9016 30.4813 14.8857C30.4923 14.8698 30.5063 14.8563 30.5225 14.8459C30.5396 14.8459 32.0306 13.8719 31.9678 13.055C31.9218 12.5028 31.9218 11.9477 31.9678 11.3955C31.9705 11.373 31.9777 11.3513 31.989 11.3317C32.0003 11.3121 32.0154 11.2949 32.0335 11.2813C32.2705 11.1099 35.5695 11.7097 35.6009 11.7183C37.2918 12.1039 38.8199 13.0664 40.2395 14.0033L41.1192 14.5945C45.0837 17.2394 49.7222 20.267 54.6578 22.7405C55.7404 23.2832 56.8943 23.7945 58.0396 23.5546C58.0715 23.5487 58.1045 23.5534 58.1334 23.568C58.1624 23.5826 58.1858 23.6063 58.2001 23.6354C58.2143 23.6645 58.2186 23.6975 58.2124 23.7294C58.2061 23.7612 58.1896 23.7901 58.1653 23.8116C56.5844 25.131 54.5891 25.851 52.5299 25.8453ZM34.6298 13.7319C35.2501 13.7282 35.8479 13.9646 36.2978 14.3917C36.7757 14.8563 37.1905 15.3816 37.5317 15.9541C37.7088 16.2254 37.8945 16.5082 38.103 16.7681C38.9128 17.8325 39.9997 18.6536 41.2449 19.1417C41.4562 19.2245 41.6705 19.2959 41.8875 19.3702C43.1658 19.6898 44.2705 20.4924 44.9694 21.6095C45.1208 21.798 45.2693 21.9836 45.4236 22.1636C46.9533 23.9634 49.085 25.146 51.4217 25.4911C53.5926 25.7782 55.791 25.2232 57.5655 23.9402C56.5087 23.9745 55.4462 23.5003 54.5179 23.0376C49.5708 20.5584 44.9209 17.5222 40.9507 14.8716L40.0681 14.2832C38.6714 13.3463 37.1719 12.4009 35.5295 12.0239C35.2296 11.9553 32.7818 11.564 32.2505 11.564C32.2157 12.0623 32.2157 12.5624 32.2505 13.0607C32.2905 13.5634 31.9164 14.0661 31.5193 14.4517C31.7621 14.3803 32.0135 14.3203 32.262 14.2632C32.5104 14.2061 32.8332 14.1289 33.0646 14.049C33.5667 13.8627 34.0948 13.7557 34.6298 13.7319Z" fill="white"/>
<path d="M19.1689 14.9915C20.1744 14.1704 21.4145 13.6894 22.7107 13.6177C24.87 13.5006 28.5375 14.9915 28.5375 14.9915C28.5375 14.9915 27.3007 14.1032 27.3721 13.1835C27.4435 12.2638 27.5063 11.3784 27.5063 11.3784C27.5063 11.3784 23.7761 11.5383 21.6082 12.6294C19.4403 13.7205 19.1689 14.9915 19.1689 14.9915Z" fill="white"/>
<path d="M28.5372 15.1371C28.5193 15.1412 28.5008 15.1412 28.4829 15.1371C28.4458 15.1371 24.8126 13.6604 22.7076 13.7747C21.4462 13.8474 20.2394 14.3139 19.2572 15.1086C19.2343 15.1293 19.2054 15.1424 19.1747 15.146C19.144 15.1496 19.1129 15.1435 19.0858 15.1286C19.0582 15.1132 19.0363 15.0894 19.0234 15.0605C19.0105 15.0317 19.0074 14.9994 19.0144 14.9686C19.0144 14.9143 19.3343 13.6119 21.5393 12.5037C23.7444 11.3954 27.3461 11.2441 27.5003 11.2383C27.5211 11.2375 27.5417 11.241 27.561 11.2487C27.5803 11.2563 27.5978 11.2679 27.6123 11.2827C27.6268 11.2975 27.6381 11.3152 27.6454 11.3346C27.6527 11.354 27.6558 11.3747 27.6546 11.3954C27.6546 11.3954 27.5917 12.2837 27.5203 13.2034C27.4546 14.0318 28.6114 14.8715 28.6229 14.8801C28.648 14.8984 28.6668 14.9243 28.6765 14.9539C28.6862 14.9836 28.6863 15.0155 28.6768 15.0452C28.6673 15.0749 28.6487 15.1009 28.6237 15.1194C28.5986 15.138 28.5683 15.1482 28.5372 15.1486V15.1371ZM22.9446 13.4605C24.5356 13.4605 26.7292 14.1689 27.8602 14.5744C27.5261 14.2117 27.1833 13.7033 27.2261 13.1692C27.2804 12.4922 27.3261 11.8296 27.349 11.5297C26.6063 11.5782 23.533 11.8153 21.6736 12.7579C20.4368 13.3777 19.8313 14.0603 19.5457 14.5116C20.4823 13.8919 21.5663 13.5312 22.6876 13.4662L22.9446 13.4605Z" fill="white"/>
<path d="M33.5613 6.06849C33.5613 6.06849 34.7238 3.24937 34.1554 2.57815C33.587 1.90693 33.2499 2.1897 33.2499 2.1897C33.2499 2.1897 33.8212 1.69843 32.9643 0.975797C32.1074 0.253165 28.9341 -0.186698 27.3089 0.487377L27.6231 1.02721C27.6231 1.02721 26.3521 1.28713 26.195 1.41566L26.9319 1.80411C26.9319 1.80411 26.5834 1.93264 26.195 2.68098C25.8065 3.42932 26.4121 7.11388 26.4121 7.11388C26.4121 7.11388 32.5359 7.56517 33.5613 6.06849Z" fill="white"/>
<path d="M28.4229 7.3282C27.3376 7.3282 26.4978 7.26822 26.4064 7.25965C26.3733 7.25798 26.3417 7.2448 26.3172 7.22238C26.2927 7.19997 26.2768 7.16972 26.2722 7.13683C26.2093 6.75695 25.6724 3.38371 26.0694 2.61253C26.2089 2.31473 26.4027 2.04548 26.6406 1.81849L26.1208 1.54714C26.0993 1.53616 26.081 1.51992 26.0675 1.49994C26.0541 1.47996 26.0458 1.4569 26.0437 1.43289C26.0407 1.40845 26.0438 1.38364 26.0528 1.36071C26.0618 1.33777 26.0763 1.31743 26.0951 1.30151C26.5116 1.12409 26.9479 0.997501 27.3947 0.924481L27.1833 0.558881C27.1748 0.540031 27.1704 0.519584 27.1704 0.4989C27.1704 0.478215 27.1748 0.457768 27.1833 0.438918C27.1901 0.419164 27.201 0.401066 27.2153 0.385809C27.2296 0.370552 27.2469 0.358477 27.2662 0.350374C28.9228 -0.335126 32.1418 0.0647496 33.0729 0.8645C33.2197 0.966019 33.3425 1.09837 33.4328 1.25229C33.5231 1.40622 33.5786 1.57801 33.5956 1.75565C33.5961 1.83522 33.5835 1.91433 33.5585 1.98986C33.8503 2.06208 34.106 2.23764 34.2783 2.48399C34.8866 3.20091 33.8298 5.82581 33.707 6.12286C33.704 6.13317 33.6992 6.14285 33.6927 6.15142C33.0015 7.14254 30.3309 7.3282 28.4229 7.3282ZM26.5378 6.97402C28.2915 7.09113 32.6131 7.13112 33.4242 5.99718C33.8612 4.93751 34.4068 3.10951 34.0355 2.67251C33.6642 2.2355 33.4185 2.24693 33.3357 2.30691C33.3048 2.32874 33.2668 2.33821 33.2293 2.33345C33.1918 2.32869 33.1574 2.31005 33.1329 2.2812C33.1087 2.25185 33.097 2.21421 33.1002 2.17631C33.1034 2.13842 33.1213 2.10328 33.15 2.07841C33.1927 2.03562 33.2265 1.98483 33.2496 1.92896C33.2726 1.87309 33.2844 1.81323 33.2843 1.75279C33.2641 1.61927 33.2163 1.49141 33.144 1.37733C33.0717 1.26325 32.9765 1.16545 32.8644 1.09014C32.1303 0.464625 29.177 -0.0152259 27.5204 0.561737L27.746 0.9559C27.7559 0.976887 27.7611 0.99981 27.7611 1.02302C27.7611 1.04623 27.7559 1.06916 27.746 1.09014C27.7361 1.11128 27.7214 1.12979 27.7031 1.14418C27.6847 1.15857 27.6632 1.16844 27.6403 1.17298C27.249 1.25295 26.8149 1.35578 26.5407 1.43575L26.992 1.67282C27.0173 1.6858 27.0382 1.70606 27.0519 1.731C27.0657 1.75594 27.0716 1.78442 27.0691 1.81278C27.0675 1.84104 27.0578 1.86825 27.0411 1.89108C27.0243 1.9139 27.0013 1.93136 26.9748 1.94131C26.9748 1.94131 26.6663 2.07555 26.3179 2.74963C26.0437 3.3066 26.3721 5.88579 26.5378 6.97402Z" fill="white"/>
<path d="M32.3677 6.53707C32.559 5.34887 34.5327 5.05467 34.4327 6.45709C34.4197 6.94369 34.2334 7.40964 33.9072 7.77097C33.742 7.94736 33.5281 8.07081 33.2927 8.12572C33.0574 8.18062 32.811 8.16452 32.5847 8.07944" fill="white"/>
<path d="M32.9958 8.31368C32.8336 8.31513 32.6729 8.28202 32.5245 8.21656C32.5057 8.20869 32.4887 8.19719 32.4744 8.18274C32.4601 8.16829 32.4488 8.15115 32.4411 8.13232C32.4255 8.09429 32.4258 8.05165 32.4417 8.01377C32.4576 7.97589 32.4879 7.94589 32.5259 7.93035C32.5639 7.91482 32.6066 7.91503 32.6445 7.93094C32.8445 8.00195 33.061 8.01273 33.2671 7.96197C33.4732 7.9112 33.6599 7.80111 33.8041 7.64531C34.102 7.30617 34.2726 6.87399 34.2868 6.42284C34.3182 5.97726 34.1126 5.69449 33.7156 5.65165C33.4406 5.62524 33.1655 5.70088 32.9427 5.86415C32.7199 6.02743 32.565 6.26695 32.5074 6.53709C32.5046 6.55632 32.498 6.5748 32.488 6.59145C32.4779 6.60809 32.4647 6.62256 32.449 6.63401C32.4333 6.64545 32.4154 6.65364 32.3965 6.65809C32.3776 6.66254 32.358 6.66315 32.3388 6.65991C32.3001 6.65291 32.2656 6.63111 32.2427 6.59912C32.2198 6.56712 32.2102 6.52746 32.216 6.48853C32.2809 6.13998 32.4749 5.82873 32.7592 5.61693C33.0435 5.40514 33.3973 5.3084 33.7498 5.34603C33.8778 5.35701 34.0021 5.39468 34.1147 5.45662C34.2272 5.51855 34.3255 5.60338 34.4033 5.70563C34.4811 5.80789 34.5365 5.9253 34.5662 6.0503C34.5958 6.17531 34.5989 6.30513 34.5753 6.43141C34.556 6.95328 34.3538 7.45174 34.004 7.83954C33.8756 7.98123 33.7204 8.09608 33.5473 8.17746C33.3743 8.25884 33.1868 8.30513 32.9958 8.31368Z" fill="white"/>
<path d="M27.4518 6.53707C27.2633 5.34887 25.2897 5.05467 25.3868 6.45709C25.4025 6.94313 25.5885 7.40818 25.9123 7.77097C26.0776 7.94736 26.2914 8.07081 26.5268 8.12572C26.7621 8.18062 27.0085 8.16452 27.2348 8.07944" fill="white"/>
<path d="M26.8235 8.31376C26.6334 8.31092 26.4458 8.27061 26.2713 8.19513C26.0968 8.11965 25.9389 8.01049 25.8067 7.8739C25.4554 7.48703 25.253 6.988 25.2354 6.46577C25.2114 6.33944 25.2141 6.20946 25.2436 6.08428C25.273 5.95909 25.3285 5.8415 25.4063 5.73914C25.4842 5.63678 25.5827 5.55194 25.6954 5.49014C25.8082 5.42833 25.9327 5.39094 26.0609 5.38039C26.4129 5.3442 26.7656 5.44156 27.0491 5.65317C27.3327 5.86477 27.5264 6.17519 27.5919 6.52289C27.5955 6.54226 27.5952 6.56217 27.591 6.58142C27.5867 6.60067 27.5786 6.61885 27.5671 6.63487C27.5556 6.6509 27.541 6.66442 27.5242 6.67463C27.5073 6.68484 27.4885 6.69152 27.469 6.69427C27.4304 6.70004 27.3911 6.69039 27.3596 6.6674C27.3281 6.64442 27.3068 6.60995 27.3005 6.57145C27.2435 6.30154 27.0891 6.06207 26.8668 5.89875C26.6445 5.73543 26.3698 5.6597 26.0952 5.68601C25.7039 5.72885 25.4982 6.01162 25.5239 6.4572C25.5394 6.90861 25.711 7.34068 26.0095 7.67967C26.1518 7.83278 26.3356 7.94127 26.5384 7.99197C26.7412 8.04268 26.9543 8.03341 27.152 7.9653C27.1696 7.95724 27.1886 7.95276 27.208 7.95214C27.2273 7.95151 27.2466 7.95475 27.2647 7.96167C27.2828 7.96858 27.2993 7.97903 27.3133 7.99241C27.3273 8.00578 27.3385 8.02181 27.3462 8.03956C27.3543 8.05737 27.3589 8.07661 27.3595 8.09617C27.3602 8.11573 27.357 8.13523 27.3501 8.15354C27.3432 8.17185 27.3327 8.18862 27.3193 8.20289C27.3059 8.21715 27.2898 8.22862 27.272 8.23664C27.1292 8.29216 26.9767 8.31838 26.8235 8.31376Z" fill="white"/>
<path d="M27.626 12.475C27.831 12.8449 28.1356 13.1498 28.5051 13.3553C28.8747 13.5608 29.2944 13.6585 29.7168 13.6375C30.1508 13.6492 30.5805 13.5483 30.9639 13.3446C31.3473 13.1409 31.6714 12.8413 31.9046 12.475L31.8389 11.6439L31.679 9.71305L31.5333 7.9079H27.9859L27.8688 9.38458L27.8316 9.85015L27.626 12.475Z" fill="white"/>
<path d="M29.717 13.7833C29.2661 13.8069 28.8176 13.7022 28.4238 13.4813C28.03 13.2603 27.7069 12.9323 27.492 12.5351C27.4815 12.5128 27.4766 12.4883 27.4777 12.4637L27.8404 7.89369C27.8433 7.8568 27.8598 7.8223 27.8867 7.79694C27.9137 7.77158 27.9491 7.75719 27.9861 7.75659H31.5421C31.5794 7.75713 31.6152 7.77142 31.6426 7.79672C31.67 7.82202 31.6872 7.85656 31.6907 7.89369L32.0534 12.4637C32.0535 12.4922 32.0477 12.5204 32.0363 12.5465C31.7906 12.9365 31.4475 13.2557 31.0407 13.4726C30.634 13.6895 30.1778 13.7966 29.717 13.7833ZM27.7747 12.4437C27.9711 12.7797 28.2563 13.055 28.5989 13.2394C28.9416 13.4238 29.3284 13.5102 29.717 13.4891C30.1176 13.502 30.5148 13.4125 30.8712 13.2291C31.2275 13.0456 31.5312 12.7743 31.7535 12.4408L31.3936 8.05364H28.1232L27.7747 12.4437Z" fill="#1E1E1E"/>
<path d="M27.8315 9.85041C28.1307 10.2831 28.532 10.6352 28.9997 10.8758C29.7652 11.2985 30.9106 11.7755 31.8389 11.6327L31.6789 9.71331C30.9978 9.79486 30.3093 9.79486 29.6281 9.71331C29.0249 9.69057 28.4287 9.57596 27.8601 9.37341L27.8315 9.85041Z" fill="#1E1E1E"/>
<path d="M31.4847 11.8125C30.5336 11.8125 29.5025 11.3269 28.9312 11.0099C28.44 10.7613 28.0203 10.3917 27.7116 9.93592C27.6922 9.91146 27.6812 9.88142 27.6802 9.85023L27.7144 9.37324C27.7159 9.35049 27.723 9.32846 27.7349 9.30904C27.7469 9.28963 27.7634 9.27343 27.783 9.26184C27.8028 9.25134 27.8249 9.24585 27.8473 9.24585C27.8697 9.24585 27.8917 9.25134 27.9115 9.26184C28.4629 9.45783 29.0406 9.56953 29.6253 9.59317C30.3084 9.66783 30.9981 9.65824 31.6789 9.56461C31.7178 9.56068 31.7567 9.57194 31.7875 9.59603C31.8024 9.60835 31.8146 9.62356 31.8234 9.64074C31.8323 9.65792 31.8375 9.67672 31.8389 9.69599L31.9931 11.6268C31.9957 11.6625 31.9848 11.6978 31.9626 11.7259C31.9404 11.7539 31.9085 11.7726 31.8732 11.7782C31.7448 11.8004 31.6149 11.8119 31.4847 11.8125ZM27.9772 9.8131C28.261 10.209 28.6363 10.5304 29.0712 10.75C29.5425 11.0127 30.7164 11.6068 31.6875 11.5069L31.5561 9.86166C30.9134 9.93033 30.2652 9.93033 29.6224 9.86166C29.0709 9.83424 28.525 9.73829 27.9972 9.57603L27.9772 9.8131Z" fill="#1E1E1E"/>
<path d="M29.6598 10.1673H29.9797C30.7019 10.1666 31.3943 9.87915 31.9047 9.36822C32.4151 8.85729 32.7018 8.16464 32.7018 7.44246V3.12952L29.5599 3.90927L26.9321 3.12952V7.44246C26.9321 7.80053 27.0027 8.1551 27.1398 8.48588C27.2769 8.81666 27.4779 9.11717 27.7312 9.37024C27.9846 9.6233 28.2853 9.82396 28.6162 9.96072C28.9471 10.0975 29.3018 10.1677 29.6598 10.1673Z" fill="white"/>
<path d="M29.9795 10.3157H29.6596C28.8982 10.3142 28.1686 10.0109 27.6305 9.47228C27.0924 8.93366 26.7898 8.20367 26.7891 7.44232V3.12938C26.7894 3.10657 26.795 3.08414 26.8054 3.06383C26.8158 3.04352 26.8307 3.02588 26.849 3.01228C26.867 2.99831 26.8881 2.98893 26.9105 2.98495C26.9329 2.98097 26.9559 2.9825 26.9776 2.98943L29.571 3.7549L32.6672 2.99514C32.689 2.98972 32.7116 2.98948 32.7335 2.99444C32.7553 2.9994 32.7757 3.00942 32.7929 3.0237C32.8108 3.03685 32.8253 3.05406 32.8353 3.07393C32.8452 3.0938 32.8503 3.11574 32.85 3.13795V7.45089C32.847 8.21075 32.5434 8.93854 32.0056 9.47531C31.4678 10.0121 30.7394 10.3142 29.9795 10.3157ZM27.0833 3.32647V7.44232C27.0833 8.1241 27.3541 8.77795 27.8362 9.26003C28.3183 9.74212 28.9721 10.013 29.6539 10.013H29.9738C30.6556 10.013 31.3094 9.74212 31.7915 9.26003C32.2736 8.77795 32.5444 8.1241 32.5444 7.44232V3.3179L29.6025 4.05195C29.5772 4.05903 29.5506 4.05903 29.5254 4.05195L27.0833 3.32647Z" fill="#1E1E1E"/>
<path d="M29.7597 8.15073C29.6261 8.15119 29.4925 8.14356 29.3598 8.12788C29.3214 8.12348 29.2845 8.11005 29.2523 8.08871C29.22 8.06737 29.1933 8.03871 29.1742 8.00507C28.9599 7.64803 29.4598 6.29131 29.6083 5.8943C29.6223 5.85642 29.6508 5.82566 29.6875 5.80879C29.7242 5.79191 29.7661 5.79031 29.804 5.80432C29.8418 5.81834 29.8726 5.84682 29.8895 5.88352C29.9064 5.92021 29.908 5.9621 29.8939 5.99998C29.5712 6.83971 29.3655 7.66231 29.4312 7.8394C29.6733 7.86503 29.9175 7.86503 30.1596 7.8394C30.1797 7.8336 30.2009 7.83222 30.2217 7.83537C30.2424 7.83851 30.2622 7.84609 30.2798 7.8576C30.2973 7.86911 30.3122 7.88427 30.3233 7.90205C30.3344 7.91983 30.3416 7.93981 30.3443 7.96061C30.347 7.98142 30.3452 8.00256 30.339 8.0226C30.3327 8.04264 30.3223 8.06109 30.3082 8.0767C30.2942 8.09232 30.277 8.10472 30.2578 8.11306C30.2385 8.1214 30.2177 8.12548 30.1967 8.12503C30.0517 8.1429 29.9058 8.15149 29.7597 8.15073Z" fill="#1E1E1E"/>
<path d="M29.9028 9.07631C28.7945 9.07631 27.9034 8.04806 27.8748 8.00236C27.8601 7.98788 27.8486 7.97051 27.841 7.95134C27.8334 7.93217 27.8299 7.91163 27.8307 7.89102C27.8314 7.87042 27.8365 7.8502 27.8455 7.83165C27.8545 7.8131 27.8673 7.79664 27.883 7.7833C27.8987 7.76996 27.9171 7.76004 27.9369 7.75418C27.9566 7.74832 27.9774 7.74663 27.9978 7.74924C28.0183 7.75184 28.038 7.75868 28.0557 7.76931C28.0733 7.77994 28.0886 7.79413 28.1005 7.81099C28.1005 7.81099 28.9574 8.81924 29.9685 8.77926C30.5026 8.75641 30.991 8.43365 31.4223 7.82241C31.4334 7.80647 31.4476 7.79291 31.464 7.78252C31.4804 7.77214 31.4987 7.76515 31.5179 7.76195C31.5371 7.75876 31.5567 7.75943 31.5756 7.76393C31.5945 7.76842 31.6123 7.77666 31.628 7.78814C31.6438 7.79897 31.6573 7.81289 31.6677 7.82906C31.678 7.84523 31.685 7.86332 31.6882 7.88225C31.6914 7.90118 31.6907 7.92056 31.6863 7.93924C31.6818 7.95791 31.6736 7.97549 31.6622 7.99093C31.1767 8.68215 30.6111 9.04774 29.9799 9.07345L29.9028 9.07631Z" fill="#1E1E1E"/>
<path d="M28.8659 5.47167C28.8292 5.47182 28.7937 5.45863 28.7659 5.43453C28.7227 5.38899 28.6707 5.35272 28.613 5.32793C28.5553 5.30315 28.4931 5.29036 28.4303 5.29036C28.3675 5.29036 28.3054 5.30315 28.2477 5.32793C28.19 5.35272 28.138 5.38899 28.0947 5.43453C28.0669 5.46192 28.0295 5.47727 27.9905 5.47727C27.9515 5.47727 27.914 5.46192 27.8862 5.43453C27.8723 5.42097 27.8613 5.40475 27.8537 5.38685C27.8462 5.36894 27.8423 5.34971 27.8423 5.33028C27.8423 5.31085 27.8462 5.29162 27.8537 5.27372C27.8613 5.25581 27.8723 5.2396 27.8862 5.22603C27.9563 5.1532 28.0404 5.09527 28.1334 5.0557C28.2264 5.01612 28.3264 4.99573 28.4275 4.99573C28.5286 4.99573 28.6286 5.01612 28.7216 5.0557C28.8146 5.09527 28.8986 5.1532 28.9687 5.22603C28.9903 5.24612 29.0053 5.27217 29.012 5.30085C29.0187 5.32953 29.0168 5.35956 29.0064 5.38711C28.9959 5.41467 28.9776 5.43851 28.9536 5.4556C28.9296 5.47268 28.9011 5.48226 28.8716 5.48309L28.8659 5.47167Z" fill="#1E1E1E"/>
<path d="M31.4163 5.47164C31.3804 5.47191 31.3458 5.45865 31.3192 5.43451C31.2757 5.38889 31.2234 5.35256 31.1655 5.32774C31.1076 5.30292 31.0452 5.29013 30.9822 5.29013C30.9192 5.29013 30.8568 5.30292 30.7989 5.32774C30.7409 5.35256 30.6886 5.38889 30.6451 5.43451C30.6174 5.4619 30.5799 5.47725 30.5409 5.47725C30.5019 5.47725 30.4644 5.4619 30.4366 5.43451C30.4099 5.40638 30.395 5.36906 30.395 5.33026C30.395 5.29146 30.4099 5.25414 30.4366 5.22601C30.507 5.1531 30.5913 5.09511 30.6845 5.0555C30.7778 5.0159 30.878 4.99548 30.9793 4.99548C31.0806 4.99548 31.1809 5.0159 31.2741 5.0555C31.3674 5.09511 31.4517 5.1531 31.522 5.22601C31.5494 5.25379 31.5648 5.29124 31.5648 5.33026C31.5648 5.36927 31.5494 5.40672 31.522 5.43451C31.4927 5.4597 31.455 5.47295 31.4163 5.47164Z" fill="#1E1E1E"/>
<path d="M39.0282 22.3149C39.0083 22.3151 38.9887 22.3111 38.9705 22.3032C38.9523 22.2954 38.936 22.2838 38.9225 22.2692C38.8958 22.2411 38.8809 22.2038 38.8809 22.165C38.8809 22.1262 38.8958 22.0889 38.9225 22.0607C39.4117 21.5439 39.7753 20.9213 39.985 20.2413C39.9963 20.204 40.0217 20.1726 40.0559 20.1539C40.0901 20.1352 40.1303 20.1307 40.1678 20.1413C40.1866 20.1459 40.2043 20.1543 40.2198 20.166C40.2353 20.1777 40.2483 20.1924 40.2579 20.2092C40.2675 20.2261 40.2736 20.2447 40.2758 20.2639C40.278 20.2832 40.2762 20.3027 40.2706 20.3213C40.0479 21.0521 39.6565 21.7203 39.1281 22.2721C39.1016 22.2988 39.0658 22.3141 39.0282 22.3149Z" fill="white"/>
<path d="M20.3857 22.3148C20.3508 22.3144 20.3173 22.3012 20.2915 22.2777C20.2657 22.2577 19.6916 21.7436 19.149 19.8442C19.138 19.8063 19.1425 19.7656 19.1615 19.7311C19.1805 19.6965 19.2125 19.6709 19.2503 19.6599C19.2882 19.649 19.3289 19.6535 19.3635 19.6725C19.398 19.6915 19.4236 19.7235 19.4346 19.7613C19.9516 21.5579 20.4857 22.0463 20.4914 22.0463C20.5186 22.0736 20.5339 22.1106 20.5339 22.1492C20.5339 22.1877 20.5186 22.2247 20.4914 22.252C20.4796 22.2697 20.4639 22.2845 20.4457 22.2954C20.4274 22.3062 20.4069 22.3129 20.3857 22.3148Z" fill="white"/>
<path d="M28.5374 15.34L29.3943 16.2454C29.3943 16.2454 28.7374 22.6406 23.8418 25.0998L23.4419 28.6101L27.3949 27.9389C27.3949 27.9389 30.5368 21.4067 29.9513 16.1026L30.6168 15.34L29.7085 14.3489L28.5374 15.34Z" fill="#1E1E1E"/>
<path d="M29.657 15.4827C29.2306 15.4745 28.8154 15.3447 28.4602 15.1086C28.4325 15.0838 28.4151 15.0496 28.4114 15.0126C28.4077 14.9757 28.418 14.9387 28.4402 14.9089C28.4624 14.8792 28.495 14.8588 28.5315 14.8519C28.5679 14.845 28.6057 14.852 28.6373 14.8715C28.9709 15.1123 29.3818 15.2213 29.7909 15.1775C30.2001 15.1338 30.5786 14.9403 30.8537 14.6344C30.8806 14.6064 30.9176 14.5902 30.9564 14.5894C30.9952 14.5886 31.0328 14.6032 31.0608 14.6301C31.0888 14.657 31.105 14.6939 31.1058 14.7328C31.1066 14.7716 31.092 14.8092 31.0651 14.8372C30.8882 15.0369 30.6716 15.1974 30.4292 15.3086C30.1867 15.4197 29.9237 15.479 29.657 15.4827Z" fill="white"/>
<path d="M25.5695 65.5301L22.0449 65.7386C22.0449 65.7386 17.255 68.7291 17.6063 68.9747C17.9576 69.2204 25.2125 68.7891 25.2125 68.7891L25.5695 65.5301Z" fill="white"/>
<path d="M18.803 69.1716C18.3754 69.2024 17.9456 69.1726 17.5263 69.0831C17.5013 69.0652 17.481 69.0416 17.4671 69.0143C17.4532 68.9869 17.4461 68.9567 17.4463 68.926C17.4463 68.5004 20.2826 66.6724 21.9706 65.6184C21.9902 65.6054 22.0128 65.5976 22.0363 65.5956L25.5609 65.3871C25.5816 65.387 25.602 65.391 25.6212 65.3988C25.6403 65.4067 25.6577 65.4182 25.6723 65.4328C25.6866 65.4479 25.6973 65.466 25.7037 65.4857C25.7102 65.5055 25.7121 65.5264 25.7094 65.547L25.3553 68.7917C25.3513 68.8251 25.3356 68.8561 25.3111 68.8791C25.2865 68.902 25.2546 68.9156 25.221 68.9174C23.9671 68.9917 20.6539 69.1716 18.803 69.1716ZM17.7833 68.866C18.5202 68.966 22.5104 68.7889 25.0839 68.6404L25.4095 65.6813L22.0906 65.8784C20.1769 67.0751 18.1575 68.4461 17.7833 68.866Z" fill="white"/>
<path d="M22.8621 39.7095C22.8232 39.708 22.7864 39.6913 22.7597 39.663C22.733 39.6347 22.7185 39.597 22.7193 39.5581L22.9278 32.1005C22.93 32.0618 22.9469 32.0255 22.975 31.9989C23.0032 31.9723 23.0404 31.9576 23.0792 31.9576C23.0985 31.958 23.1176 31.9622 23.1354 31.9701C23.1531 31.9779 23.1691 31.9892 23.1824 32.0033C23.1957 32.0174 23.206 32.034 23.2128 32.0522C23.2196 32.0703 23.2227 32.0897 23.222 32.109L23.0106 39.5553C23.0114 39.5753 23.0081 39.5952 23.001 39.6139C22.9939 39.6326 22.983 39.6496 22.9692 39.664C22.9553 39.6784 22.9387 39.6899 22.9203 39.6977C22.9019 39.7055 22.8821 39.7095 22.8621 39.7095Z" fill="#1E1E1E"/>
<path d="M24.0729 35.9793C24.0421 35.9792 24.0121 35.9695 23.987 35.9516C23.9619 35.9337 23.9431 35.9084 23.933 35.8793C23.9268 35.8609 23.9243 35.8415 23.9257 35.8221C23.9271 35.8028 23.9323 35.7839 23.9411 35.7666C23.9499 35.7493 23.962 35.734 23.9768 35.7214C23.9916 35.7089 24.0087 35.6994 24.0272 35.6936C25.3554 35.2595 25.4554 32.9688 25.4554 32.9459C25.4589 32.9073 25.4766 32.8713 25.5051 32.8449C25.5336 32.8185 25.5708 32.8036 25.6096 32.8031C25.6287 32.8038 25.6475 32.8083 25.6649 32.8163C25.6823 32.8244 25.698 32.8357 25.711 32.8498C25.724 32.8638 25.7341 32.8803 25.7407 32.8983C25.7473 32.9163 25.7503 32.9353 25.7496 32.9545C25.7496 33.0573 25.6439 35.4766 24.1244 35.9735L24.0729 35.9793Z" fill="#1E1E1E"/>
<path d="M35.6295 35.9793H35.5838C34.0643 35.4823 33.9615 33.063 33.9586 32.9602C33.9578 32.9409 33.961 32.9215 33.9678 32.9034C33.9746 32.8852 33.9849 32.8686 33.9982 32.8545C34.0115 32.8404 34.0275 32.8291 34.0452 32.8213C34.0629 32.8134 34.082 32.8092 34.1014 32.8088C34.1393 32.8095 34.1756 32.8247 34.2027 32.8513C34.2297 32.8778 34.2456 32.9137 34.2471 32.9517C34.2471 32.9745 34.3442 35.2652 35.6752 35.6994C35.6937 35.7052 35.7109 35.7146 35.7257 35.7272C35.7405 35.7397 35.7526 35.7551 35.7614 35.7724C35.7702 35.7897 35.7754 35.8085 35.7768 35.8279C35.7782 35.8472 35.7757 35.8666 35.7695 35.885C35.7585 35.9131 35.7392 35.9371 35.7142 35.954C35.6892 35.9708 35.6597 35.9796 35.6295 35.9793Z" fill="#1E1E1E"/>
<path d="M29.7084 39.7097C29.6889 39.7097 29.6696 39.7058 29.6516 39.6984C29.6336 39.6909 29.6172 39.68 29.6034 39.6662C29.5896 39.6524 29.5787 39.636 29.5712 39.618C29.5638 39.6 29.5599 39.5806 29.5599 39.5611V32.9518C29.5536 32.9297 29.5525 32.9064 29.5567 32.8838C29.5609 32.8612 29.5703 32.8399 29.5842 32.8215C29.598 32.8032 29.6159 32.7883 29.6365 32.778C29.6571 32.7678 29.6797 32.7625 29.7027 32.7625C29.7257 32.7625 29.7484 32.7678 29.769 32.778C29.7895 32.7883 29.8075 32.8032 29.8213 32.8215C29.8351 32.8399 29.8445 32.8612 29.8487 32.8838C29.8529 32.9064 29.8519 32.9297 29.8455 32.9518V39.5554C29.8467 39.5746 29.8441 39.5937 29.8378 39.6119C29.8315 39.63 29.8217 39.6467 29.809 39.661C29.7963 39.6753 29.7808 39.687 29.7636 39.6954C29.7463 39.7037 29.7276 39.7086 29.7084 39.7097Z" fill="#1E1E1E"/>
</svg>
