<svg width="48" height="70" viewBox="0 0 48 70" fill="none" xmlns="http://www.w3.org/2000/svg">
<path d="M23.8665 70C36.4783 70 46.7022 69.6433 46.7022 69.2031C46.7022 68.763 36.4783 68.4062 23.8665 68.4062C11.2547 68.4062 1.03076 68.763 1.03076 69.2031C1.03076 69.6433 11.2547 70 23.8665 70Z" fill="#D1D3D4"/>
<path d="M21.7788 61.5599L23.0527 66.3013H26.4545L25.9175 60.8601L21.7788 61.5599Z" fill="white"/>
<path d="M26.4543 66.4469H23.0525C23.0203 66.4472 22.989 66.4366 22.9636 66.4169C22.9382 66.3972 22.9202 66.3695 22.9125 66.3383L21.6358 61.5998C21.6312 61.5799 21.6306 61.5594 21.634 61.5393C21.6375 61.5192 21.6448 61.4999 21.6558 61.4827C21.6662 61.4648 21.6807 61.4495 21.698 61.4381C21.7154 61.4267 21.7351 61.4195 21.7557 61.417L25.8916 60.7144C25.9116 60.7103 25.9322 60.7108 25.9519 60.7158C25.9717 60.7207 25.9901 60.73 26.0058 60.7429C26.0219 60.7553 26.0352 60.7708 26.045 60.7885C26.0548 60.8061 26.0609 60.8256 26.063 60.8458L26.6028 66.2726C26.6054 66.3141 26.5921 66.3549 26.5657 66.3869C26.5526 66.4045 26.5359 66.419 26.5167 66.4293C26.4974 66.4397 26.4761 66.4457 26.4543 66.4469ZM23.1667 66.1612H26.2915L25.7859 61.04L21.9642 61.6884L23.1667 66.1612Z" fill="#231F20"/>
<path d="M22.8472 65.5301L26.3718 65.7386C26.3718 65.7386 31.1617 68.7291 30.8104 68.9747C30.4591 69.2204 23.2042 68.7891 23.2042 68.7891L22.8472 65.5301Z" fill="#231F20"/>
<path d="M29.6133 69.1716C27.7625 69.1716 24.4435 68.9917 23.1953 68.9174C23.1617 68.9156 23.1298 68.902 23.1053 68.8791C23.0807 68.8561 23.0651 68.8251 23.0611 68.7917L22.704 65.547C22.7025 65.5263 22.7052 65.5054 22.7121 65.4857C22.719 65.4661 22.7299 65.4481 22.744 65.4328C22.7739 65.4039 22.8138 65.3875 22.8554 65.3871L26.38 65.5956C26.4035 65.5976 26.4261 65.6054 26.4457 65.6184C28.1338 66.6724 30.9643 68.5004 30.97 68.926C30.9704 68.957 30.9631 68.9876 30.9486 69.0151C30.9341 69.0425 30.913 69.0659 30.8872 69.0831C30.4689 69.1727 30.04 69.2025 29.6133 69.1716ZM23.3296 68.6404C25.9002 68.7889 29.8618 68.9631 30.6273 68.8631C30.2474 68.4404 28.2337 67.0723 26.3229 65.8784L23.0039 65.6813L23.3296 68.6404Z" fill="#231F20"/>
<path d="M15.4295 61.5599L14.3613 66.3013H10.9595L11.5679 60.8601L15.4295 61.5599Z" fill="white"/>
<path d="M14.3612 66.4468H10.9679C10.947 66.447 10.9262 66.4428 10.9071 66.4344C10.8879 66.4261 10.8706 66.4137 10.8565 66.3982C10.843 66.3827 10.8328 66.3645 10.8264 66.3449C10.82 66.3253 10.8176 66.3046 10.8194 66.284L11.4249 60.8428C11.4276 60.8226 11.4343 60.8031 11.4446 60.7854C11.4549 60.7678 11.4686 60.7523 11.4849 60.74C11.5011 60.7279 11.5196 60.7193 11.5393 60.7149C11.559 60.7105 11.5794 60.7103 11.5992 60.7143L15.4608 61.4169C15.4806 61.4199 15.4994 61.427 15.5162 61.4379C15.5329 61.4487 15.5472 61.463 15.5579 61.4798C15.5787 61.514 15.5858 61.5548 15.5779 61.594L14.5126 66.3326C14.5041 66.366 14.4845 66.3955 14.457 66.4163C14.4294 66.4371 14.3956 66.4479 14.3612 66.4468ZM11.125 66.1612H14.2441L15.2523 61.6797L11.6963 61.0314L11.125 66.1612Z" fill="#231F20"/>
<path d="M15.5722 39.921C17.1888 40.0781 18.7569 40.5894 20.3735 40.7779C21.9902 40.9664 23.761 40.7779 24.9864 39.7011C26.0803 38.7499 26.6002 37.2304 27.7969 36.4135C29.6135 35.171 32.0813 36.0536 34.2635 35.8423C35.4068 35.6948 36.502 35.2906 37.4671 34.6599C38.4321 34.0293 39.242 33.1885 39.836 32.2005C41.187 29.8698 42.6123 27.7534 44.6431 25.9453C45.1344 25.5083 45.6599 25.0885 45.937 24.4801C45.7228 24.9371 39.8417 23.1805 39.2705 22.8949C37.3996 21.9609 35.5202 20.6984 33.7065 19.6102C30.0591 17.408 26.5002 14.9088 22.3929 13.7777C19.6309 13.0203 16.7306 12.9156 13.9213 13.4721C11.6762 13.9205 9.39695 14.8859 8.07451 16.7539C6.14082 19.4845 7.07768 22.5521 7.07196 25.6083C7.06937 28.9685 6.63744 32.3145 5.78665 35.5652C5.41534 36.9933 4.94405 38.4215 4.02148 39.564C6.62924 41.4205 9.13132 40.8407 11.9647 40.1695C13.1454 39.8894 14.3642 39.8055 15.5722 39.921Z" fill="#231F20"/>
<path d="M21.439 40.9833C21.0771 40.9829 20.7157 40.9609 20.3564 40.9176C19.5767 40.8291 18.7998 40.6606 18.0486 40.5006C17.2277 40.306 16.396 40.1601 15.5579 40.0636C14.3672 39.9497 13.1657 40.0327 12.0019 40.3092C9.23706 40.9662 6.62359 41.586 3.94728 39.6809C3.93123 39.6702 3.91759 39.6564 3.90726 39.6401C3.89692 39.6239 3.89012 39.6057 3.8873 39.5866C3.88434 39.5673 3.88561 39.5476 3.89103 39.5289C3.89646 39.5101 3.90591 39.4928 3.91872 39.4781C4.83272 38.3356 5.29258 36.9074 5.65532 35.5364C6.5023 32.2978 6.93231 28.9643 6.93492 25.6167C6.93492 24.8598 6.88065 24.0914 6.82353 23.3488C6.65501 21.0952 6.48078 18.7645 7.96603 16.6709C9.45128 14.5773 12.0048 13.7118 13.9013 13.3319C16.7333 12.7693 19.6575 12.8749 22.4415 13.6404C25.8405 14.5773 28.9024 16.471 31.8671 18.3047C32.5069 18.6988 33.1439 19.093 33.7865 19.4786C34.3092 19.7928 34.8376 20.1213 35.3718 20.4526C36.6714 21.2609 38.0138 22.0978 39.342 22.7604C39.6047 22.8918 41.13 23.3745 42.6295 23.7801C45.2972 24.497 45.7714 24.4142 45.8285 24.3885C45.8479 24.362 45.8758 24.343 45.9075 24.3347C45.9392 24.3264 45.9729 24.3292 46.0027 24.3428C46.0198 24.3505 46.0351 24.3615 46.0478 24.3752C46.0606 24.3889 46.0704 24.405 46.0768 24.4226C46.0832 24.4402 46.086 24.4588 46.085 24.4775C46.0841 24.4962 46.0794 24.5145 46.0713 24.5313C45.7708 25.0754 45.3615 25.5518 44.8688 25.9309L44.7431 26.0423C42.6181 27.9331 41.1899 30.1496 39.9646 32.2632C39.3586 33.2701 38.5328 34.127 37.5491 34.77C36.5653 35.413 35.449 35.8253 34.2835 35.9763C33.507 36.0291 32.7275 36.0176 31.9528 35.942C30.4533 35.8392 29.0366 35.7392 27.8827 36.5304C27.2514 36.9617 26.8201 37.5901 26.3603 38.2442C26.0029 38.8146 25.5749 39.3376 25.0864 39.8008C24.0267 40.7263 22.65 40.9833 21.439 40.9833ZM14.5211 39.7294C14.8753 39.7294 15.2323 39.7466 15.5837 39.7808C16.433 39.8789 17.2761 40.0258 18.1086 40.2207C18.8512 40.3806 19.6224 40.5463 20.3936 40.6349C21.7275 40.7891 23.5897 40.7348 24.9007 39.5952C25.3701 39.1473 25.7817 38.6426 26.1261 38.0928C26.5802 37.4359 27.0486 36.7561 27.7227 36.2934C28.9595 35.4365 30.4904 35.5564 31.9728 35.6593C32.7323 35.7321 33.4965 35.7435 34.2578 35.6935C35.3767 35.5478 36.4482 35.1516 37.3927 34.5344C38.3373 33.9173 39.1305 33.095 39.7133 32.1289C40.95 29.9953 42.3953 27.756 44.5489 25.8452L44.6746 25.7366C45.0454 25.4368 45.3748 25.0891 45.6543 24.7027C44.3118 24.7027 39.6019 23.2289 39.2077 23.0318C37.871 22.3634 36.52 21.5237 35.209 20.7125C34.6777 20.3812 34.1493 20.0527 33.6266 19.7385C32.9868 19.3529 32.347 18.9588 31.7072 18.5617C28.7624 16.7423 25.7091 14.8486 22.3558 13.9318C19.6153 13.1796 16.7374 13.076 13.9499 13.629C12.1019 13.9974 9.60266 14.8572 8.18882 16.8537C6.77497 18.8502 6.92921 21.041 7.10059 23.3431C7.15771 24.0914 7.21483 24.8683 7.21483 25.6281C7.21172 29.0018 6.77787 32.3612 5.92381 35.625C5.56678 36.9874 5.11549 38.3984 4.22719 39.5523C6.75498 41.2661 9.15708 40.6948 11.9391 40.0493C12.7844 39.8425 13.6509 39.7351 14.5211 39.7294Z" fill="#231F20"/>
<path d="M5.03256 30.2098C4.74693 32.1834 4.43846 34.1685 3.72154 36.0279C3.00462 37.8874 1.85641 39.6325 0.202637 40.7465C2.1115 42.0407 4.29305 42.8773 6.57779 43.1914C7.44293 38.3846 7.86457 33.5085 7.8374 28.6245C7.8374 27.4402 7.80503 26.2567 7.74029 25.0742C7.69744 24.2002 7.92594 22.1608 7.47466 21.4125C6.81486 20.3214 6.30359 22.1837 6.04653 23.012C5.36103 25.2942 5.36103 27.8619 5.03256 30.2098Z" fill="white"/>
<path d="M6.57802 43.3369H6.55803C4.24879 43.0213 2.04361 42.1767 0.114323 40.8691C0.0942939 40.8554 0.0778993 40.8371 0.0665687 40.8157C0.0552381 40.7943 0.0493164 40.7705 0.0493164 40.7462C0.0493164 40.722 0.0552381 40.6982 0.0665687 40.6768C0.0778993 40.6553 0.0942939 40.637 0.114323 40.6234C1.98231 39.3667 3.03056 37.4016 3.57896 35.9763C4.29302 34.1254 4.61292 32.1004 4.88141 30.1895C4.98709 29.4241 5.06135 28.6214 5.13276 27.8445C5.28128 26.2108 5.43552 24.5227 5.90395 22.9889L5.94393 22.8632C6.22956 21.8893 6.53803 21.0124 7.01217 20.9524C7.22353 20.9258 7.41395 21.06 7.58342 21.3551C7.93474 21.9264 7.90332 23.1774 7.86904 24.1743C7.86904 24.5399 7.85191 24.854 7.86904 25.0883C7.92617 26.2622 7.96045 27.459 7.96616 28.6414C7.99123 33.5311 7.56865 38.4128 6.7037 43.2255C6.69644 43.2545 6.68054 43.2807 6.65811 43.3006C6.63568 43.3205 6.60776 43.3331 6.57802 43.3369ZM0.465642 40.7434C2.27415 41.934 4.32151 42.7139 6.46377 43.0284C7.30921 38.2789 7.72221 33.4626 7.69767 28.6386C7.69767 27.459 7.65769 26.265 7.60056 25.0968C7.58628 24.8512 7.60056 24.5256 7.60056 24.1628C7.62341 23.2545 7.65483 22.0092 7.34635 21.5008C7.24067 21.3237 7.13785 21.2152 7.06073 21.2409C6.73797 21.2809 6.38665 22.4434 6.23527 22.9546L6.19814 23.0803C5.73828 24.5941 5.58405 26.2679 5.43552 27.8845C5.36411 28.6643 5.29271 29.4726 5.18417 30.2438C4.91283 32.1746 4.59007 34.214 3.86458 36.0963C3.08197 38.1013 1.91091 39.7094 0.465642 40.7434Z" fill="#231F20"/>
<path d="M12.3447 30.9808L10.4995 63.8706H15.5665L18.697 40.3807V30.2439L12.3447 30.9808Z" fill="#231F20"/>
<path d="M15.5665 64.0133H10.4995C10.4803 64.0137 10.4613 64.0101 10.4436 64.0027C10.4259 63.9954 10.4099 63.9843 10.3967 63.9704C10.3829 63.9566 10.3722 63.9401 10.3653 63.9219C10.3584 63.9037 10.3555 63.8842 10.3567 63.8647L12.2019 30.9864C12.2037 30.9531 12.2174 30.9216 12.2405 30.8975C12.2635 30.8734 12.2944 30.8584 12.3275 30.855L18.6798 30.101C18.6998 30.0987 18.7199 30.1006 18.7391 30.1065C18.7583 30.1124 18.776 30.1222 18.7912 30.1352C18.8057 30.1494 18.8172 30.1662 18.8251 30.1849C18.8329 30.2035 18.837 30.2236 18.8369 30.2438V40.3806L15.6951 63.8904C15.6902 63.9222 15.6749 63.9515 15.6517 63.9737C15.6284 63.9959 15.5985 64.0098 15.5665 64.0133ZM10.6509 63.7276H15.4437L18.5542 40.3606V30.4152L12.4789 31.1207L10.6509 63.7276Z" fill="#231F20"/>
<path d="M24.8748 30.9808L26.7199 63.8706H21.6529L18.5225 40.3807V30.2439L24.8748 30.9808Z" fill="#231F20"/>
<path d="M26.72 64.0133H21.6502C21.6158 64.0135 21.5826 64.0011 21.5568 63.9785C21.531 63.9558 21.5144 63.9245 21.5102 63.8904L18.394 40.412V30.2438C18.3939 30.2233 18.3981 30.2029 18.4065 30.1842C18.4149 30.1655 18.4272 30.1488 18.4426 30.1352C18.4578 30.1222 18.4756 30.1124 18.4947 30.1065C18.5139 30.1006 18.5341 30.0987 18.554 30.101L24.9034 30.8407C24.9368 30.8435 24.968 30.8584 24.9912 30.8826C25.0143 30.9068 25.0278 30.9387 25.0291 30.9721L26.8743 63.8647C26.8754 63.8839 26.8726 63.9031 26.8663 63.9213C26.8599 63.9394 26.85 63.9561 26.8371 63.9704C26.8222 63.9861 26.8039 63.9982 26.7836 64.0056C26.7633 64.013 26.7415 64.0156 26.72 64.0133ZM21.7759 63.7276H26.5686L24.7378 31.1064L18.6797 30.4152V40.392L21.7759 63.7276Z" fill="#231F20"/>
<path d="M6.59775 26.6679C6.59775 26.6679 11.2163 30.9523 11.4534 31.3436C11.6447 31.6521 11.9504 31.8891 12.1017 32.2262C12.2531 32.5632 11.9361 34.9568 11.7619 35.905C11.7474 36.047 11.6984 36.1834 11.619 36.302C11.5123 36.401 11.3803 36.4683 11.2375 36.4965C11.0948 36.5248 10.9471 36.5128 10.8107 36.462C10.364 36.3543 9.95272 36.1329 9.61681 35.8193C9.49114 35.6994 9.37403 35.4937 9.49685 35.3738C9.53716 35.3435 9.58374 35.3226 9.63317 35.3128C9.6826 35.3029 9.73362 35.3042 9.78247 35.3166L10.3309 35.3709C10.0079 35.1319 9.77691 34.789 9.67679 34.3998C9.6316 34.2048 9.63397 34.0018 9.68368 33.808C9.73339 33.6141 9.82899 33.435 9.96241 33.2858C9.6568 33.0631 8.51715 32.1034 8.21439 31.8349C7.61172 31.2979 6.99191 30.7838 6.39781 30.2382L4.01855 28.056L6.59775 26.6679Z" fill="white"/>
<path d="M11.1336 36.6505C11.0169 36.6498 10.9008 36.6345 10.7879 36.6048C10.3152 36.4917 9.88007 36.2574 9.52548 35.925C9.40372 35.8178 9.32632 35.6691 9.30841 35.508C9.30745 35.4637 9.31529 35.4197 9.33147 35.3785C9.34765 35.3374 9.37185 35.2998 9.40267 35.268C9.45924 35.2225 9.52527 35.1902 9.59592 35.1734C9.66658 35.1566 9.74009 35.1557 9.81111 35.1709H9.93393C9.74721 34.956 9.61495 34.6994 9.54833 34.4226C9.5036 34.2314 9.49878 34.033 9.53417 33.8399C9.56955 33.6468 9.64438 33.463 9.75398 33.3001C9.33983 32.9745 8.39441 32.1776 8.12021 31.9348C7.84601 31.692 7.62893 31.5035 7.38329 31.2893C7.02626 30.9808 6.65495 30.6609 6.30078 30.3353L3.92152 28.1531C3.90463 28.1369 3.89173 28.117 3.88385 28.0949C3.87596 28.0729 3.87329 28.0493 3.87606 28.026C3.87883 28.0028 3.88695 27.9805 3.8998 27.9609C3.91264 27.9413 3.92985 27.925 3.95008 27.9132L6.52071 26.5279C6.5478 26.513 6.57887 26.5069 6.6096 26.5105C6.64032 26.514 6.66916 26.5271 6.69208 26.5479C7.16622 26.9878 11.3335 30.8523 11.5848 31.255C11.6655 31.3768 11.7552 31.4923 11.8533 31.6006C12.0089 31.7656 12.1397 31.9522 12.2418 32.1547C12.416 32.5489 12.0504 35.1766 11.9133 35.9221C11.895 36.0872 11.8362 36.2452 11.7419 36.382C11.6679 36.4704 11.5746 36.5406 11.4691 36.5872C11.3636 36.6338 11.2488 36.6554 11.1336 36.6505ZM9.70543 35.4565C9.67456 35.454 9.64366 35.461 9.61689 35.4765C9.6186 35.5217 9.62993 35.5659 9.65013 35.6063C9.67032 35.6467 9.69891 35.6823 9.73399 35.7107C10.0546 36.0107 10.4487 36.2206 10.8765 36.3191C11.0222 36.3534 11.3763 36.4134 11.5363 36.2106C11.599 36.1103 11.6381 35.997 11.6505 35.8793C11.8533 34.7682 12.1047 32.5317 11.999 32.2861C11.9081 32.1098 11.7927 31.9473 11.6562 31.8034C11.5527 31.6833 11.4573 31.5564 11.3706 31.4235C11.1992 31.1379 8.45725 28.5673 6.60639 26.8535L4.30426 28.0931L6.53213 30.1353C6.88345 30.4581 7.25191 30.7751 7.60608 31.0836C7.85458 31.2978 8.10307 31.5121 8.34871 31.7291C8.65147 32.0005 9.77683 32.9516 10.0825 33.1744C10.0994 33.1861 10.1136 33.2013 10.1239 33.2191C10.1343 33.2369 10.1406 33.2567 10.1424 33.2772C10.144 33.298 10.1412 33.3189 10.1344 33.3385C10.1275 33.3582 10.1166 33.3762 10.1024 33.3915C9.98806 33.5248 9.90693 33.6834 9.86572 33.8542C9.82451 34.025 9.82439 34.2032 9.86538 34.374C9.9578 34.7293 10.1696 35.0419 10.4652 35.2595C10.4907 35.2789 10.5093 35.3062 10.518 35.3371C10.5268 35.368 10.5253 35.4009 10.5137 35.4308C10.5021 35.4608 10.4811 35.4862 10.4538 35.5032C10.4265 35.5202 10.3944 35.5279 10.3624 35.5251L9.81397 35.468L9.70543 35.4565Z" fill="#231F20"/>
<path d="M30.7646 26.6679C30.7646 26.6679 26.1432 30.9523 25.8947 31.3436C25.7033 31.6521 25.3977 31.8891 25.2463 32.2262C25.095 32.5632 25.412 34.9568 25.5862 35.905C25.6007 36.047 25.6497 36.1834 25.729 36.302C25.8357 36.401 25.9678 36.4683 26.1105 36.4965C26.2533 36.5248 26.401 36.5128 26.5374 36.462C26.9843 36.3549 27.3958 36.1334 27.7313 35.8193C27.8598 35.6994 27.9741 35.4937 27.8512 35.3738C27.8109 35.3435 27.7643 35.3226 27.7149 35.3128C27.6655 35.3029 27.6145 35.3042 27.5656 35.3166L27.0172 35.3709C27.3411 35.1327 27.5723 34.7894 27.6713 34.3998C27.7186 34.2059 27.7187 34.0036 27.6714 33.8097C27.6242 33.6159 27.5311 33.4362 27.3999 33.2858C27.7027 33.0631 28.8281 32.1034 29.1451 31.8349C29.7478 31.2979 30.3676 30.7838 30.9617 30.2382L33.341 28.056L30.7646 26.6679Z" fill="white"/>
<path d="M26.226 36.6504C26.1108 36.6577 25.9954 36.6382 25.8889 36.5937C25.7824 36.5491 25.6876 36.4805 25.6119 36.3934C25.5189 36.256 25.4601 36.0983 25.4405 35.9335C25.3034 35.188 24.9378 32.5603 25.1121 32.1661C25.2141 31.9637 25.345 31.777 25.5005 31.612C25.5986 31.5037 25.6883 31.3882 25.769 31.2664C26.0203 30.8637 30.1876 26.9992 30.6646 26.5593C30.6869 26.5384 30.7152 26.5252 30.7456 26.5216C30.7759 26.518 30.8066 26.5242 30.8331 26.5393L33.4038 27.9246C33.4238 27.9362 33.441 27.9523 33.4539 27.9716C33.4667 27.9909 33.475 28.013 33.478 28.036C33.4815 28.0595 33.4791 28.0835 33.4711 28.1059C33.4632 28.1283 33.4498 28.1485 33.4323 28.1645L31.0531 30.3467C30.6989 30.6723 30.3304 30.9922 29.9705 31.3007C29.7249 31.5149 29.4764 31.7291 29.2336 31.9462C28.9908 32.1633 28.014 32.9859 27.5998 33.3115C27.7095 33.4744 27.7843 33.6582 27.8197 33.8513C27.8551 34.0444 27.8502 34.2428 27.8055 34.434C27.7399 34.7106 27.6086 34.9673 27.4228 35.1823H27.5427C27.6137 35.1663 27.6874 35.1667 27.7582 35.1835C27.829 35.2004 27.895 35.2332 27.9512 35.2794C27.9825 35.3108 28.0071 35.3483 28.0233 35.3896C28.0395 35.4309 28.047 35.475 28.0454 35.5194C28.0275 35.6806 27.9501 35.8293 27.8283 35.9364C27.4738 36.2689 27.0386 36.5032 26.5659 36.6162C26.4544 36.6415 26.3403 36.6531 26.226 36.6504ZM30.796 26.8478C28.9423 28.5615 26.2003 31.1322 26.0289 31.4178C25.9423 31.5507 25.8469 31.6776 25.7433 31.7977C25.605 31.9401 25.4894 32.1029 25.4005 32.2804C25.292 32.526 25.5462 34.7625 25.749 35.8735C25.7592 35.9913 25.7974 36.1049 25.8604 36.2049C26.0261 36.4134 26.4059 36.342 26.5202 36.3134C26.948 36.2148 27.3421 36.005 27.6627 35.705C27.7275 35.6522 27.772 35.5785 27.7884 35.4965C27.7512 35.4422 27.6484 35.4537 27.6084 35.4565L27.06 35.5137C27.0281 35.516 26.9962 35.5081 26.969 35.4912C26.9418 35.4742 26.9206 35.4491 26.9086 35.4194C26.8971 35.3894 26.8956 35.3565 26.9044 35.3256C26.9131 35.2947 26.9317 35.2675 26.9572 35.248C27.2528 35.0304 27.4646 34.7178 27.557 34.3626C27.5987 34.1918 27.5989 34.0135 27.5577 33.8425C27.5165 33.6716 27.4349 33.513 27.3199 33.38C27.3058 33.3648 27.2949 33.3467 27.288 33.3271C27.2811 33.3074 27.2784 33.2866 27.2799 33.2658C27.2823 33.2454 27.2889 33.2258 27.2992 33.2081C27.3095 33.1904 27.3234 33.175 27.3399 33.163C27.6256 32.9402 28.7681 31.989 29.0737 31.7177C29.3193 31.5006 29.5678 31.2864 29.8163 31.0722C30.1705 30.7637 30.5389 30.4467 30.8903 30.1239L33.1181 28.0817L30.796 26.8478Z" fill="#231F20"/>
<path d="M0.0227095 24.2801C0.536835 23.0234 8.30584 14.2832 10.5908 13.2007C12.8758 12.1182 18.3941 12.898 18.3941 12.898H19.0196C19.0196 12.898 24.5436 12.1154 26.8286 13.2007C29.1136 14.2861 36.8798 23.0234 37.3968 24.2801C37.9137 25.5369 29.1308 32.6575 29.1308 32.6575L26.7201 30.244L32.147 24.223L28.034 22.1665C28.034 22.1665 25.5805 28.6788 25.352 32.1034H12.0704C11.8419 28.6759 9.38836 22.1665 9.38836 22.1665L5.27536 24.223L10.3252 29.6099L7.89454 32.6575C7.89454 32.6575 -0.491416 25.5369 0.0227095 24.2801Z" fill="#1E1E1E"/>
<path d="M30.0419 14.7516C34.4291 17.6821 38.8763 20.5412 43.592 22.9062C44.6802 23.4489 45.877 23.9801 47.0709 23.7316C46.1523 24.4917 45.0862 25.0534 43.9399 25.3813C42.7935 25.7092 41.5917 25.7961 40.4101 25.6368C38.0324 25.292 35.8621 24.0916 34.3063 22.2607C33.6522 21.4981 33.0867 20.624 32.2327 20.0956C31.6043 19.71 30.8702 19.5444 30.1847 19.2787C28.9075 18.7862 27.7921 17.9487 26.9629 16.8595C26.3688 16.0712 25.9232 15.1457 25.1863 14.5002C24.2037 13.6262 23.2383 13.8204 22.1101 14.1803C21.3389 14.4288 20.2878 14.5488 19.5938 14.9887C19.5938 14.9887 21.179 13.9833 21.1047 13.0635C21.0596 12.5199 21.0596 11.9734 21.1047 11.4298C21.119 11.2927 24.3494 11.8325 24.5579 11.8811C26.2145 12.2609 27.7426 13.2178 29.1479 14.1661L30.0419 14.7516Z" fill="white"/>
<path d="M41.5299 25.8453C41.1479 25.846 40.7662 25.8212 40.3874 25.771C37.9735 25.4199 35.7701 24.2015 34.1894 22.3435C34.0323 22.1579 33.8809 21.9694 33.7295 21.7723C33.2951 21.1627 32.7611 20.6306 32.15 20.1985C31.7167 19.9576 31.2578 19.766 30.7818 19.6272C30.5619 19.5558 30.342 19.4816 30.1249 19.3987C28.8259 18.8946 27.6926 18.0392 26.8516 16.9281C26.6488 16.6596 26.4603 16.3711 26.2804 16.0941C25.9543 15.5432 25.5567 15.0381 25.0979 14.5917C24.1553 13.7519 23.2499 13.9519 22.1645 14.306C21.9103 14.386 21.6304 14.4517 21.3391 14.5231C20.7605 14.626 20.2015 14.8187 19.6824 15.0944C19.6494 15.1148 19.6096 15.1214 19.5717 15.1129C19.5338 15.1044 19.5008 15.0813 19.4797 15.0487C19.469 15.0326 19.4617 15.0145 19.4581 14.9956C19.4545 14.9766 19.4547 14.9572 19.4587 14.9383C19.4627 14.9195 19.4704 14.9016 19.4813 14.8857C19.4923 14.8698 19.5063 14.8563 19.5225 14.8459C19.5396 14.8459 21.0306 13.8719 20.9678 13.055C20.9218 12.5028 20.9218 11.9477 20.9678 11.3955C20.9705 11.373 20.9777 11.3513 20.989 11.3317C21.0003 11.3121 21.0154 11.2949 21.0335 11.2813C21.2705 11.1099 24.5695 11.7097 24.6009 11.7183C26.2918 12.1039 27.8199 13.0664 29.2395 14.0033L30.1192 14.5945C34.0837 17.2394 38.7222 20.267 43.6578 22.7405C44.7404 23.2832 45.8943 23.7945 47.0396 23.5546C47.0715 23.5487 47.1045 23.5534 47.1334 23.568C47.1624 23.5826 47.1858 23.6063 47.2001 23.6354C47.2143 23.6645 47.2186 23.6975 47.2124 23.7294C47.2061 23.7612 47.1896 23.7901 47.1653 23.8116C45.5844 25.131 43.5891 25.851 41.5299 25.8453ZM23.6298 13.7319C24.2501 13.7282 24.8479 13.9646 25.2978 14.3917C25.7757 14.8563 26.1905 15.3816 26.5317 15.9541C26.7088 16.2254 26.8945 16.5082 27.103 16.7681C27.9128 17.8325 28.9997 18.6536 30.2449 19.1417C30.4562 19.2245 30.6705 19.2959 30.8875 19.3702C32.1658 19.6898 33.2705 20.4924 33.9694 21.6095C34.1208 21.798 34.2693 21.9836 34.4236 22.1636C35.9533 23.9634 38.085 25.146 40.4217 25.4911C42.5926 25.7782 44.791 25.2232 46.5655 23.9402C45.5087 23.9745 44.4462 23.5003 43.5179 23.0376C38.5708 20.5584 33.9209 17.5222 29.9507 14.8716L29.0681 14.2832C27.6714 13.3463 26.1719 12.4009 24.5295 12.0239C24.2296 11.9553 21.7818 11.564 21.2505 11.564C21.2157 12.0623 21.2157 12.5624 21.2505 13.0607C21.2905 13.5634 20.9164 14.0661 20.5193 14.4517C20.7621 14.3803 21.0135 14.3203 21.262 14.2632C21.5104 14.2061 21.8332 14.1289 22.0646 14.049C22.5667 13.8627 23.0948 13.7557 23.6298 13.7319Z" fill="#231F20"/>
<path d="M8.16895 14.9915C9.17445 14.1704 10.4145 13.6894 11.7107 13.6177C13.87 13.5006 17.5375 14.9915 17.5375 14.9915C17.5375 14.9915 16.3007 14.1032 16.3721 13.1835C16.4435 12.2638 16.5063 11.3784 16.5063 11.3784C16.5063 11.3784 12.7761 11.5383 10.6082 12.6294C8.44029 13.7205 8.16895 14.9915 8.16895 14.9915Z" fill="white"/>
<path d="M17.5372 15.1371C17.5193 15.1412 17.5008 15.1412 17.4829 15.1371C17.4458 15.1371 13.8126 13.6604 11.7076 13.7747C10.4462 13.8474 9.23944 14.3139 8.2572 15.1086C8.23427 15.1293 8.20544 15.1424 8.17471 15.146C8.14399 15.1496 8.11292 15.1435 8.08583 15.1286C8.05819 15.1132 8.03627 15.0894 8.02339 15.0605C8.01051 15.0317 8.00737 14.9994 8.01442 14.9686C8.01442 14.9143 8.33432 13.6119 10.5393 12.5037C12.7444 11.3954 16.3461 11.2441 16.5003 11.2383C16.5211 11.2375 16.5417 11.241 16.561 11.2487C16.5803 11.2563 16.5978 11.2679 16.6123 11.2827C16.6268 11.2975 16.6381 11.3152 16.6454 11.3346C16.6527 11.354 16.6558 11.3747 16.6546 11.3954C16.6546 11.3954 16.5917 12.2837 16.5203 13.2034C16.4546 14.0318 17.6114 14.8715 17.6229 14.8801C17.648 14.8984 17.6668 14.9243 17.6765 14.9539C17.6862 14.9836 17.6863 15.0155 17.6768 15.0452C17.6673 15.0749 17.6487 15.1009 17.6237 15.1194C17.5986 15.138 17.5683 15.1482 17.5372 15.1486V15.1371ZM11.9446 13.4605C13.5356 13.4605 15.7292 14.1689 16.8602 14.5744C16.5261 14.2117 16.1833 13.7033 16.2261 13.1692C16.2804 12.4922 16.3261 11.8296 16.349 11.5297C15.6063 11.5782 12.533 11.8153 10.6736 12.7579C9.43683 13.3777 8.83131 14.0603 8.54568 14.5116C9.48232 13.8919 10.5663 13.5312 11.6876 13.4662L11.9446 13.4605Z" fill="#231F20"/>
<path d="M22.5613 6.06849C22.5613 6.06849 23.7238 3.24937 23.1554 2.57815C22.587 1.90693 22.2499 2.1897 22.2499 2.1897C22.2499 2.1897 22.8212 1.69843 21.9643 0.975797C21.1074 0.253165 17.9341 -0.186698 16.3089 0.487377L16.6231 1.02721C16.6231 1.02721 15.3521 1.28713 15.195 1.41566L15.9319 1.80411C15.9319 1.80411 15.5834 1.93264 15.195 2.68098C14.8065 3.42932 15.4121 7.11388 15.4121 7.11388C15.4121 7.11388 21.5359 7.56517 22.5613 6.06849Z" fill="white"/>
<path d="M17.4229 7.3282C16.3376 7.3282 15.4978 7.26822 15.4064 7.25965C15.3733 7.25798 15.3417 7.2448 15.3172 7.22238C15.2927 7.19997 15.2768 7.16972 15.2722 7.13683C15.2093 6.75695 14.6724 3.38371 15.0694 2.61253C15.2089 2.31473 15.4027 2.04548 15.6406 1.81849L15.1208 1.54714C15.0993 1.53616 15.081 1.51992 15.0675 1.49994C15.0541 1.47996 15.0458 1.4569 15.0437 1.43289C15.0407 1.40845 15.0438 1.38364 15.0528 1.36071C15.0618 1.33777 15.0763 1.31743 15.0951 1.30151C15.5116 1.12409 15.9479 0.997501 16.3947 0.924481L16.1833 0.558881C16.1748 0.540031 16.1704 0.519584 16.1704 0.4989C16.1704 0.478215 16.1748 0.457768 16.1833 0.438918C16.1901 0.419164 16.201 0.401066 16.2153 0.385809C16.2296 0.370552 16.2469 0.358477 16.2662 0.350374C17.9228 -0.335126 21.1418 0.0647496 22.0729 0.8645C22.2197 0.966019 22.3425 1.09837 22.4328 1.25229C22.5231 1.40622 22.5786 1.57801 22.5956 1.75565C22.5961 1.83522 22.5835 1.91433 22.5585 1.98986C22.8503 2.06208 23.106 2.23764 23.2783 2.48399C23.8866 3.20091 22.8298 5.82581 22.707 6.12286C22.704 6.13317 22.6992 6.14285 22.6927 6.15142C22.0015 7.14254 19.3309 7.3282 17.4229 7.3282ZM15.5378 6.97402C17.2915 7.09113 21.6131 7.13112 22.4242 5.99718C22.8612 4.93751 23.4068 3.10951 23.0355 2.67251C22.6642 2.2355 22.4185 2.24693 22.3357 2.30691C22.3048 2.32874 22.2668 2.33821 22.2293 2.33345C22.1918 2.32869 22.1574 2.31005 22.1329 2.2812C22.1087 2.25185 22.097 2.21421 22.1002 2.17631C22.1034 2.13842 22.1213 2.10328 22.15 2.07841C22.1927 2.03562 22.2265 1.98483 22.2496 1.92896C22.2726 1.87309 22.2844 1.81323 22.2843 1.75279C22.2641 1.61927 22.2163 1.49141 22.144 1.37733C22.0717 1.26325 21.9765 1.16545 21.8644 1.09014C21.1303 0.464625 18.177 -0.0152259 16.5204 0.561737L16.746 0.9559C16.7559 0.976887 16.7611 0.99981 16.7611 1.02302C16.7611 1.04623 16.7559 1.06916 16.746 1.09014C16.7361 1.11128 16.7214 1.12979 16.7031 1.14418C16.6847 1.15857 16.6632 1.16844 16.6403 1.17298C16.249 1.25295 15.8149 1.35578 15.5407 1.43575L15.992 1.67282C16.0173 1.6858 16.0382 1.70606 16.0519 1.731C16.0657 1.75594 16.0716 1.78442 16.0691 1.81278C16.0675 1.84104 16.0578 1.86825 16.0411 1.89108C16.0243 1.9139 16.0013 1.93136 15.9748 1.94131C15.9748 1.94131 15.6663 2.07555 15.3179 2.74963C15.0437 3.3066 15.3721 5.88579 15.5378 6.97402Z" fill="#231F20"/>
<path d="M21.3677 6.53707C21.559 5.34887 23.5327 5.05467 23.4327 6.45709C23.4197 6.94369 23.2334 7.40964 22.9072 7.77097C22.742 7.94736 22.5281 8.07081 22.2927 8.12572C22.0574 8.18062 21.811 8.16452 21.5847 8.07944" fill="white"/>
<path d="M21.9958 8.31368C21.8336 8.31513 21.6729 8.28202 21.5245 8.21656C21.5057 8.20869 21.4887 8.19719 21.4744 8.18274C21.4601 8.16829 21.4488 8.15115 21.4411 8.13232C21.4255 8.09429 21.4258 8.05165 21.4417 8.01377C21.4576 7.97589 21.4879 7.94589 21.5259 7.93035C21.5639 7.91482 21.6066 7.91503 21.6445 7.93094C21.8445 8.00195 22.061 8.01273 22.2671 7.96197C22.4732 7.9112 22.6599 7.80111 22.8041 7.64531C23.102 7.30617 23.2726 6.87399 23.2868 6.42284C23.3182 5.97726 23.1126 5.69449 22.7156 5.65165C22.4406 5.62524 22.1655 5.70088 21.9427 5.86415C21.7199 6.02743 21.565 6.26695 21.5074 6.53709C21.5046 6.55632 21.498 6.5748 21.488 6.59145C21.4779 6.60809 21.4647 6.62256 21.449 6.63401C21.4333 6.64545 21.4154 6.65364 21.3965 6.65809C21.3776 6.66254 21.358 6.66315 21.3388 6.65991C21.3001 6.65291 21.2656 6.63111 21.2427 6.59912C21.2198 6.56712 21.2102 6.52746 21.216 6.48853C21.2809 6.13998 21.4749 5.82873 21.7592 5.61693C22.0435 5.40514 22.3973 5.3084 22.7498 5.34603C22.8778 5.35701 23.0021 5.39468 23.1147 5.45662C23.2272 5.51855 23.3255 5.60338 23.4033 5.70563C23.4811 5.80789 23.5365 5.9253 23.5662 6.0503C23.5958 6.17531 23.5989 6.30513 23.5753 6.43141C23.556 6.95328 23.3538 7.45174 23.004 7.83954C22.8756 7.98123 22.7204 8.09608 22.5473 8.17746C22.3743 8.25884 22.1868 8.30513 21.9958 8.31368Z" fill="#231F20"/>
<path d="M16.4518 6.53707C16.2633 5.34887 14.2897 5.05467 14.3868 6.45709C14.4025 6.94313 14.5885 7.40818 14.9123 7.77097C15.0776 7.94736 15.2914 8.07081 15.5268 8.12572C15.7621 8.18062 16.0085 8.16452 16.2348 8.07944" fill="white"/>
<path d="M15.8235 8.31376C15.6334 8.31092 15.4458 8.27061 15.2713 8.19513C15.0968 8.11965 14.9389 8.01049 14.8067 7.8739C14.4554 7.48703 14.253 6.988 14.2354 6.46577C14.2114 6.33944 14.2141 6.20946 14.2436 6.08428C14.273 5.95909 14.3285 5.8415 14.4063 5.73914C14.4842 5.63678 14.5827 5.55194 14.6954 5.49014C14.8082 5.42833 14.9327 5.39094 15.0609 5.38039C15.4129 5.3442 15.7656 5.44156 16.0491 5.65317C16.3327 5.86477 16.5264 6.17519 16.5919 6.52289C16.5955 6.54226 16.5952 6.56217 16.591 6.58142C16.5867 6.60067 16.5786 6.61885 16.5671 6.63487C16.5556 6.6509 16.541 6.66442 16.5242 6.67463C16.5073 6.68484 16.4885 6.69152 16.469 6.69427C16.4304 6.70004 16.3911 6.69039 16.3596 6.6674C16.3281 6.64442 16.3068 6.60995 16.3005 6.57145C16.2435 6.30154 16.0891 6.06207 15.8668 5.89875C15.6445 5.73543 15.3698 5.6597 15.0952 5.68601C14.7039 5.72885 14.4982 6.01162 14.5239 6.4572C14.5394 6.90861 14.711 7.34068 15.0095 7.67967C15.1518 7.83278 15.3356 7.94127 15.5384 7.99197C15.7412 8.04268 15.9543 8.03341 16.152 7.9653C16.1696 7.95724 16.1886 7.95276 16.208 7.95214C16.2273 7.95151 16.2466 7.95475 16.2647 7.96167C16.2828 7.96858 16.2993 7.97903 16.3133 7.99241C16.3273 8.00578 16.3385 8.02181 16.3462 8.03956C16.3543 8.05737 16.3589 8.07661 16.3595 8.09617C16.3602 8.11573 16.357 8.13523 16.3501 8.15354C16.3432 8.17185 16.3327 8.18862 16.3193 8.20289C16.3059 8.21715 16.2898 8.22862 16.272 8.23664C16.1292 8.29216 15.9767 8.31838 15.8235 8.31376Z" fill="#231F20"/>
<path d="M16.626 12.475C16.831 12.8449 17.1356 13.1498 17.5051 13.3553C17.8747 13.5608 18.2944 13.6585 18.7168 13.6375C19.1508 13.6492 19.5805 13.5483 19.9639 13.3446C20.3473 13.1409 20.6714 12.8413 20.9046 12.475L20.8389 11.6439L20.679 9.71305L20.5333 7.9079H16.9859L16.8688 9.38458L16.8316 9.85015L16.626 12.475Z" fill="white"/>
<path d="M18.717 13.7833C18.2661 13.8069 17.8176 13.7022 17.4238 13.4813C17.03 13.2603 16.7069 12.9323 16.492 12.5351C16.4815 12.5128 16.4766 12.4883 16.4777 12.4637L16.8404 7.89369C16.8433 7.8568 16.8598 7.8223 16.8867 7.79694C16.9137 7.77158 16.9491 7.75719 16.9861 7.75659H20.5421C20.5794 7.75713 20.6152 7.77142 20.6426 7.79672C20.67 7.82202 20.6872 7.85656 20.6907 7.89369L21.0534 12.4637C21.0535 12.4922 21.0477 12.5204 21.0363 12.5465C20.7906 12.9365 20.4475 13.2557 20.0407 13.4726C19.634 13.6895 19.1778 13.7966 18.717 13.7833ZM16.7747 12.4437C16.9711 12.7797 17.2563 13.055 17.5989 13.2394C17.9416 13.4238 18.3284 13.5102 18.717 13.4891C19.1176 13.502 19.5148 13.4125 19.8712 13.2291C20.2275 13.0456 20.5312 12.7743 20.7535 12.4408L20.3936 8.05364H17.1232L16.7747 12.4437Z" fill="#231F20"/>
<path d="M16.8315 9.85041C17.1307 10.2831 17.532 10.6352 17.9997 10.8758C18.7652 11.2985 19.9106 11.7755 20.8389 11.6327L20.6789 9.71331C19.9978 9.79486 19.3093 9.79486 18.6281 9.71331C18.0249 9.69057 17.4287 9.57596 16.8601 9.37341L16.8315 9.85041Z" fill="#231F20"/>
<path d="M20.4847 11.8125C19.5336 11.8125 18.5025 11.3269 17.9312 11.0099C17.44 10.7613 17.0203 10.3917 16.7116 9.93592C16.6922 9.91146 16.6812 9.88142 16.6802 9.85023L16.7144 9.37324C16.7159 9.35049 16.723 9.32846 16.7349 9.30904C16.7469 9.28963 16.7634 9.27343 16.783 9.26184C16.8028 9.25134 16.8249 9.24585 16.8473 9.24585C16.8697 9.24585 16.8917 9.25134 16.9115 9.26184C17.4629 9.45783 18.0406 9.56953 18.6253 9.59317C19.3084 9.66783 19.9981 9.65824 20.6789 9.56461C20.7178 9.56068 20.7567 9.57194 20.7875 9.59603C20.8024 9.60835 20.8146 9.62356 20.8234 9.64074C20.8323 9.65792 20.8375 9.67672 20.8389 9.69599L20.9931 11.6268C20.9957 11.6625 20.9848 11.6978 20.9626 11.7259C20.9404 11.7539 20.9085 11.7726 20.8732 11.7782C20.7448 11.8004 20.6149 11.8119 20.4847 11.8125ZM16.9772 9.8131C17.261 10.209 17.6363 10.5304 18.0712 10.75C18.5425 11.0127 19.7164 11.6068 20.6875 11.5069L20.5561 9.86166C19.9134 9.93033 19.2652 9.93033 18.6224 9.86166C18.0709 9.83424 17.525 9.73829 16.9972 9.57603L16.9772 9.8131Z" fill="#231F20"/>
<path d="M18.6598 10.1673H18.9797C19.7019 10.1666 20.3943 9.87915 20.9047 9.36822C21.4151 8.85729 21.7018 8.16464 21.7018 7.44246V3.12952L18.5599 3.90927L15.9321 3.12952V7.44246C15.9321 7.80053 16.0027 8.1551 16.1398 8.48588C16.2769 8.81666 16.4779 9.11717 16.7312 9.37024C16.9846 9.6233 17.2853 9.82396 17.6162 9.96072C17.9471 10.0975 18.3018 10.1677 18.6598 10.1673Z" fill="white"/>
<path d="M18.9795 10.3157H18.6596C17.8982 10.3142 17.1686 10.0109 16.6305 9.47228C16.0924 8.93366 15.7898 8.20367 15.7891 7.44232V3.12938C15.7894 3.10657 15.795 3.08414 15.8054 3.06383C15.8158 3.04352 15.8307 3.02588 15.849 3.01228C15.867 2.99831 15.8881 2.98893 15.9105 2.98495C15.9329 2.98097 15.9559 2.9825 15.9776 2.98943L18.571 3.7549L21.6672 2.99514C21.689 2.98972 21.7116 2.98948 21.7335 2.99444C21.7553 2.9994 21.7757 3.00942 21.7929 3.0237C21.8108 3.03685 21.8253 3.05406 21.8353 3.07393C21.8452 3.0938 21.8503 3.11574 21.85 3.13795V7.45089C21.847 8.21075 21.5434 8.93854 21.0056 9.47531C20.4678 10.0121 19.7394 10.3142 18.9795 10.3157ZM16.0833 3.32647V7.44232C16.0833 8.1241 16.3541 8.77795 16.8362 9.26003C17.3183 9.74212 17.9721 10.013 18.6539 10.013H18.9738C19.6556 10.013 20.3094 9.74212 20.7915 9.26003C21.2736 8.77795 21.5444 8.1241 21.5444 7.44232V3.3179L18.6025 4.05195C18.5772 4.05903 18.5506 4.05903 18.5254 4.05195L16.0833 3.32647Z" fill="#231F20"/>
<path d="M18.7597 8.15073C18.6261 8.15119 18.4925 8.14356 18.3598 8.12788C18.3214 8.12348 18.2845 8.11005 18.2523 8.08871C18.22 8.06737 18.1933 8.03871 18.1742 8.00507C17.9599 7.64803 18.4598 6.29131 18.6083 5.8943C18.6223 5.85642 18.6508 5.82566 18.6875 5.80879C18.7242 5.79191 18.7661 5.79031 18.804 5.80432C18.8418 5.81834 18.8726 5.84682 18.8895 5.88352C18.9064 5.92021 18.908 5.9621 18.8939 5.99998C18.5712 6.83971 18.3655 7.66231 18.4312 7.8394C18.6733 7.86503 18.9175 7.86503 19.1596 7.8394C19.1797 7.8336 19.2009 7.83222 19.2217 7.83537C19.2424 7.83851 19.2622 7.84609 19.2798 7.8576C19.2973 7.86911 19.3122 7.88427 19.3233 7.90205C19.3344 7.91983 19.3416 7.93981 19.3443 7.96061C19.347 7.98142 19.3452 8.00256 19.339 8.0226C19.3327 8.04264 19.3223 8.06109 19.3082 8.0767C19.2942 8.09232 19.277 8.10472 19.2578 8.11306C19.2385 8.1214 19.2177 8.12548 19.1967 8.12503C19.0517 8.1429 18.9058 8.15149 18.7597 8.15073Z" fill="#231F20"/>
<path d="M18.9028 9.07631C17.7945 9.07631 16.9034 8.04806 16.8748 8.00236C16.8601 7.98788 16.8486 7.97051 16.841 7.95134C16.8334 7.93217 16.8299 7.91163 16.8307 7.89102C16.8314 7.87042 16.8365 7.8502 16.8455 7.83165C16.8545 7.8131 16.8673 7.79664 16.883 7.7833C16.8987 7.76996 16.9171 7.76004 16.9369 7.75418C16.9566 7.74832 16.9774 7.74663 16.9978 7.74924C17.0183 7.75184 17.038 7.75868 17.0557 7.76931C17.0733 7.77994 17.0886 7.79413 17.1005 7.81099C17.1005 7.81099 17.9574 8.81924 18.9685 8.77926C19.5026 8.75641 19.991 8.43365 20.4223 7.82241C20.4334 7.80647 20.4476 7.79291 20.464 7.78252C20.4804 7.77214 20.4987 7.76515 20.5179 7.76195C20.5371 7.75876 20.5567 7.75943 20.5756 7.76393C20.5945 7.76842 20.6123 7.77666 20.628 7.78814C20.6438 7.79897 20.6573 7.81289 20.6677 7.82906C20.678 7.84523 20.685 7.86332 20.6882 7.88225C20.6914 7.90118 20.6907 7.92056 20.6863 7.93924C20.6818 7.95791 20.6736 7.97549 20.6622 7.99093C20.1767 8.68215 19.6111 9.04774 18.9799 9.07345L18.9028 9.07631Z" fill="#231F20"/>
<path d="M17.8659 5.47167C17.8292 5.47182 17.7937 5.45863 17.7659 5.43453C17.7227 5.38899 17.6707 5.35272 17.613 5.32793C17.5553 5.30315 17.4931 5.29036 17.4303 5.29036C17.3675 5.29036 17.3054 5.30315 17.2477 5.32793C17.19 5.35272 17.138 5.38899 17.0947 5.43453C17.0669 5.46192 17.0295 5.47727 16.9905 5.47727C16.9515 5.47727 16.914 5.46192 16.8862 5.43453C16.8723 5.42097 16.8613 5.40475 16.8537 5.38685C16.8462 5.36894 16.8423 5.34971 16.8423 5.33028C16.8423 5.31085 16.8462 5.29162 16.8537 5.27372C16.8613 5.25581 16.8723 5.2396 16.8862 5.22603C16.9563 5.1532 17.0404 5.09527 17.1334 5.0557C17.2264 5.01612 17.3264 4.99573 17.4275 4.99573C17.5286 4.99573 17.6286 5.01612 17.7216 5.0557C17.8146 5.09527 17.8986 5.1532 17.9687 5.22603C17.9903 5.24612 18.0053 5.27217 18.012 5.30085C18.0187 5.32953 18.0168 5.35956 18.0064 5.38711C17.9959 5.41467 17.9776 5.43851 17.9536 5.4556C17.9296 5.47268 17.9011 5.48226 17.8716 5.48309L17.8659 5.47167Z" fill="#231F20"/>
<path d="M20.4163 5.47164C20.3804 5.47191 20.3458 5.45865 20.3192 5.43451C20.2757 5.38889 20.2234 5.35256 20.1655 5.32774C20.1076 5.30292 20.0452 5.29013 19.9822 5.29013C19.9192 5.29013 19.8568 5.30292 19.7989 5.32774C19.7409 5.35256 19.6886 5.38889 19.6451 5.43451C19.6174 5.4619 19.5799 5.47725 19.5409 5.47725C19.5019 5.47725 19.4644 5.4619 19.4366 5.43451C19.4099 5.40638 19.395 5.36906 19.395 5.33026C19.395 5.29146 19.4099 5.25414 19.4366 5.22601C19.507 5.1531 19.5913 5.09511 19.6845 5.0555C19.7778 5.0159 19.878 4.99548 19.9793 4.99548C20.0806 4.99548 20.1809 5.0159 20.2741 5.0555C20.3674 5.09511 20.4517 5.1531 20.522 5.22601C20.5494 5.25379 20.5648 5.29124 20.5648 5.33026C20.5648 5.36927 20.5494 5.40672 20.522 5.43451C20.4927 5.4597 20.455 5.47295 20.4163 5.47164Z" fill="#231F20"/>
<path d="M28.0282 22.3149C28.0083 22.3151 27.9887 22.3111 27.9705 22.3032C27.9523 22.2954 27.936 22.2838 27.9225 22.2692C27.8958 22.2411 27.8809 22.2038 27.8809 22.165C27.8809 22.1262 27.8958 22.0889 27.9225 22.0607C28.4117 21.5439 28.7753 20.9213 28.985 20.2413C28.9963 20.204 29.0217 20.1726 29.0559 20.1539C29.0901 20.1352 29.1303 20.1307 29.1678 20.1413C29.1866 20.1459 29.2043 20.1543 29.2198 20.166C29.2353 20.1777 29.2483 20.1924 29.2579 20.2092C29.2675 20.2261 29.2736 20.2447 29.2758 20.2639C29.278 20.2832 29.2762 20.3027 29.2706 20.3213C29.0479 21.0521 28.6565 21.7203 28.1281 22.2721C28.1016 22.2988 28.0658 22.3141 28.0282 22.3149Z" fill="#231F20"/>
<path d="M9.38571 22.3148C9.35081 22.3144 9.31728 22.3012 9.29145 22.2777C9.26575 22.2577 8.69164 21.7436 8.14895 19.8442C8.13797 19.8063 8.14248 19.7656 8.16149 19.7311C8.18051 19.6965 8.21247 19.6709 8.25035 19.6599C8.28822 19.649 8.32891 19.6535 8.36346 19.6725C8.39801 19.6915 8.42359 19.7235 8.43458 19.7613C8.95156 21.5579 9.48568 22.0463 9.49139 22.0463C9.5186 22.0736 9.53388 22.1106 9.53388 22.1492C9.53388 22.1877 9.5186 22.2247 9.49139 22.252C9.47957 22.2697 9.46394 22.2845 9.44566 22.2954C9.42737 22.3062 9.40689 22.3129 9.38571 22.3148Z" fill="#231F20"/>
<path d="M17.5374 15.34L18.3943 16.2454C18.3943 16.2454 17.7374 22.6406 12.8418 25.0998L12.4419 28.6101L16.3949 27.9389C16.3949 27.9389 19.5368 21.4067 18.9513 16.1026L19.6168 15.34L18.7085 14.3489L17.5374 15.34Z" fill="white"/>
<path d="M18.657 15.4827C18.2306 15.4745 17.8154 15.3447 17.4602 15.1086C17.4325 15.0838 17.4151 15.0496 17.4114 15.0126C17.4077 14.9757 17.418 14.9387 17.4402 14.9089C17.4624 14.8792 17.495 14.8588 17.5315 14.8519C17.5679 14.845 17.6057 14.852 17.6373 14.8715C17.9709 15.1123 18.3818 15.2213 18.7909 15.1775C19.2001 15.1338 19.5786 14.9403 19.8537 14.6344C19.8806 14.6064 19.9176 14.5902 19.9564 14.5894C19.9952 14.5886 20.0328 14.6032 20.0608 14.6301C20.0888 14.657 20.105 14.6939 20.1058 14.7328C20.1066 14.7716 20.092 14.8092 20.0651 14.8372C19.8882 15.0369 19.6716 15.1974 19.4292 15.3086C19.1867 15.4197 18.9237 15.479 18.657 15.4827Z" fill="#231F20"/>
<path d="M14.5695 65.5301L11.0449 65.7386C11.0449 65.7386 6.25499 68.7291 6.60631 68.9747C6.95763 69.2204 14.2125 68.7891 14.2125 68.7891L14.5695 65.5301Z" fill="#231F20"/>
<path d="M7.80301 69.1716C7.37539 69.2024 6.94555 69.1726 6.52627 69.0831C6.50132 69.0652 6.48104 69.0416 6.46712 69.0143C6.4532 68.9869 6.44606 68.9567 6.44629 68.926C6.44629 68.5004 9.28255 66.6724 10.9706 65.6184C10.9902 65.6054 11.0128 65.5976 11.0363 65.5956L14.5609 65.3871C14.5816 65.387 14.602 65.391 14.6212 65.3988C14.6403 65.4067 14.6577 65.4182 14.6723 65.4328C14.6866 65.4479 14.6973 65.466 14.7037 65.4857C14.7102 65.5055 14.7121 65.5264 14.7094 65.547L14.3553 68.7917C14.3513 68.8251 14.3356 68.8561 14.3111 68.8791C14.2865 68.902 14.2546 68.9156 14.221 68.9174C12.9671 68.9917 9.65387 69.1716 7.80301 69.1716ZM6.78333 68.866C7.52025 68.966 11.5104 68.7889 14.0839 68.6404L14.4095 65.6813L11.0906 65.8784C9.17687 67.0751 7.1575 68.4461 6.78333 68.866Z" fill="#231F20"/>
<path d="M11.8621 39.7095C11.8232 39.708 11.7864 39.6913 11.7597 39.663C11.733 39.6347 11.7185 39.597 11.7193 39.5581L11.9278 32.1005C11.93 32.0618 11.9469 32.0255 11.975 31.9989C12.0032 31.9723 12.0404 31.9576 12.0792 31.9576C12.0985 31.958 12.1176 31.9622 12.1354 31.9701C12.1531 31.9779 12.1691 31.9892 12.1824 32.0033C12.1957 32.0174 12.206 32.034 12.2128 32.0522C12.2196 32.0703 12.2227 32.0897 12.222 32.109L12.0106 39.5553C12.0114 39.5753 12.0081 39.5952 12.001 39.6139C11.9939 39.6326 11.983 39.6496 11.9692 39.664C11.9553 39.6784 11.9387 39.6899 11.9203 39.6977C11.9019 39.7055 11.8821 39.7095 11.8621 39.7095Z" fill="white"/>
<path d="M13.0729 35.9793C13.0421 35.9792 13.0121 35.9695 12.987 35.9516C12.9619 35.9337 12.9431 35.9084 12.933 35.8793C12.9268 35.8609 12.9243 35.8415 12.9257 35.8221C12.9271 35.8028 12.9323 35.7839 12.9411 35.7666C12.9499 35.7493 12.962 35.734 12.9768 35.7214C12.9916 35.7089 13.0087 35.6994 13.0272 35.6936C14.3554 35.2595 14.4554 32.9688 14.4554 32.9459C14.4589 32.9073 14.4766 32.8713 14.5051 32.8449C14.5336 32.8185 14.5708 32.8036 14.6096 32.8031C14.6287 32.8038 14.6475 32.8083 14.6649 32.8163C14.6823 32.8244 14.698 32.8357 14.711 32.8498C14.724 32.8638 14.7341 32.8803 14.7407 32.8983C14.7473 32.9163 14.7503 32.9353 14.7496 32.9545C14.7496 33.0573 14.6439 35.4766 13.1244 35.9735L13.0729 35.9793Z" fill="white"/>
<path d="M24.6295 35.9793H24.5838C23.0643 35.4823 22.9615 33.063 22.9586 32.9602C22.9578 32.9409 22.961 32.9215 22.9678 32.9034C22.9746 32.8852 22.9849 32.8686 22.9982 32.8545C23.0115 32.8404 23.0275 32.8291 23.0452 32.8213C23.0629 32.8134 23.082 32.8092 23.1014 32.8088C23.1393 32.8095 23.1756 32.8247 23.2027 32.8513C23.2297 32.8778 23.2456 32.9137 23.2471 32.9517C23.2471 32.9745 23.3442 35.2652 24.6752 35.6994C24.6937 35.7052 24.7109 35.7146 24.7257 35.7272C24.7405 35.7397 24.7526 35.7551 24.7614 35.7724C24.7702 35.7897 24.7754 35.8085 24.7768 35.8279C24.7782 35.8472 24.7757 35.8666 24.7695 35.885C24.7585 35.9131 24.7392 35.9371 24.7142 35.954C24.6892 35.9708 24.6597 35.9796 24.6295 35.9793Z" fill="white"/>
<path d="M18.7084 39.7097C18.6889 39.7097 18.6696 39.7058 18.6516 39.6984C18.6336 39.6909 18.6172 39.68 18.6034 39.6662C18.5896 39.6524 18.5787 39.636 18.5712 39.618C18.5638 39.6 18.5599 39.5806 18.5599 39.5611V32.9518C18.5536 32.9297 18.5525 32.9064 18.5567 32.8838C18.5609 32.8612 18.5703 32.8399 18.5842 32.8215C18.598 32.8032 18.6159 32.7883 18.6365 32.778C18.6571 32.7678 18.6797 32.7625 18.7027 32.7625C18.7257 32.7625 18.7484 32.7678 18.769 32.778C18.7895 32.7883 18.8075 32.8032 18.8213 32.8215C18.8351 32.8399 18.8445 32.8612 18.8487 32.8838C18.8529 32.9064 18.8519 32.9297 18.8455 32.9518V39.5554C18.8467 39.5746 18.8441 39.5937 18.8378 39.6119C18.8315 39.63 18.8217 39.6467 18.809 39.661C18.7963 39.6753 18.7808 39.687 18.7636 39.6954C18.7463 39.7037 18.7276 39.7086 18.7084 39.7097Z" fill="white"/>
</svg>
