<svg width="222" height="225" viewBox="0 0 222 225" fill="none" xmlns="http://www.w3.org/2000/svg">
<path d="M37.3176 197.966L24.4677 213.018C24.4677 213.018 -0.399799 199.062 0.513701 196.311C1.4272 193.561 17.586 197.712 17.586 197.712L25.6045 187.318" fill="white"/>
<path d="M24.4677 213.526C24.378 213.527 24.2897 213.503 24.2139 213.455C16.6319 209.202 -0.907306 198.991 0.0366443 196.149C0.980594 193.307 13.1606 196.068 17.3931 197.164L25.2086 187.014C25.2925 186.91 25.4132 186.843 25.5455 186.826C25.6779 186.808 25.8118 186.843 25.9191 186.923C26.0253 187.005 26.0945 187.126 26.1116 187.259C26.1287 187.392 26.0924 187.527 26.0105 187.633L17.992 198.027C17.9315 198.105 17.8493 198.165 17.7555 198.197C17.6617 198.23 17.5604 198.234 17.4642 198.209C9.88215 196.261 1.45765 195.103 0.990747 196.484C0.767447 198.057 12.8662 205.923 24.3357 212.389L36.9319 197.631C37.0225 197.545 37.1414 197.496 37.266 197.492C37.3906 197.489 37.5122 197.531 37.6075 197.611C37.7029 197.692 37.7653 197.804 37.783 197.928C37.8007 198.051 37.7723 198.177 37.7033 198.28L24.8432 213.333C24.8002 213.392 24.7438 213.441 24.6785 213.474C24.6133 213.508 24.541 213.525 24.4677 213.526Z" fill="#1E1E1E"/>
<path d="M78.6687 55.084C77.3213 53.7661 75.6228 52.8641 73.7764 52.4856C72.193 52.2522 71.3201 52.9221 70.0006 53.5006C69.4728 53.7341 69.4119 54.5157 68.8536 54.7491C68.2954 54.9826 67.1484 54.404 66.509 54.3837C64.8021 54.2881 63.0963 54.5894 61.5254 55.2639C59.9546 55.9384 58.5614 56.9677 57.4552 58.2711C56.0856 60.1882 55.0177 62.3036 54.2884 64.5438C50.4923 74.1254 44.6764 83.7476 35.2267 87.8888C43.7628 93.9788 54.197 97.846 64.6617 97.237C69.7745 96.9333 74.7593 95.5165 79.2675 93.0857C82.8099 91.1673 89.245 87.1987 89.8844 82.7936C90.4833 78.6625 88.5243 72.3289 87.2251 68.4313C85.6087 63.3014 82.6554 58.6945 78.6687 55.084Z" fill="white"/>
<path d="M62.5099 97.7853C53.2429 97.7853 43.5395 94.4561 34.9323 88.2849C34.8612 88.2312 34.805 88.1599 34.7695 88.0781C34.7339 87.9963 34.7201 87.9067 34.7293 87.818C34.738 87.7303 34.7699 87.6465 34.8216 87.5752C34.8733 87.5038 34.9431 87.4475 35.0237 87.412C42.8798 83.9813 49.0307 76.4297 53.8215 64.3512L54.0346 63.8031C54.7491 61.7056 55.7756 59.7278 57.0796 57.9364C58.2336 56.5725 59.689 55.4956 61.3308 54.791C62.9726 54.0864 64.7558 53.7733 66.5394 53.8764C66.8845 53.9043 67.2252 53.9724 67.5544 54.0794C67.9093 54.2061 68.2841 54.2679 68.6608 54.2621C68.7724 54.2621 68.8739 54.0388 68.9856 53.8561C69.1421 53.5025 69.4141 53.2126 69.757 53.034C70.0107 52.9223 70.2442 52.8005 70.4675 52.6888C71.4703 52.0758 72.6491 51.815 73.817 51.9479C75.7611 52.3592 77.5489 53.3129 78.9732 54.6985C83.0209 58.374 86.0223 63.0564 87.6717 68.2691C89.113 72.5727 90.9502 78.7541 90.3513 82.875C89.722 87.1583 84.0989 90.9949 79.4807 93.5325C74.906 95.9851 69.8533 97.4153 64.6718 97.7244C63.9613 97.765 63.2407 97.7853 62.5099 97.7853ZM36.2417 88.0108C45.1635 94.1922 55.212 97.2981 64.6617 96.75C69.6949 96.4634 74.6042 95.0776 79.0442 92.69C85.2865 89.31 88.9608 85.7981 89.3972 82.7734C89.9656 78.8758 88.1691 72.8366 86.7684 68.6446C85.1741 63.5997 82.2707 59.0677 78.354 55.5106C77.0785 54.2552 75.474 53.3861 73.7256 53.0035C72.7581 52.8961 71.783 53.1255 70.9648 53.6531C70.7314 53.7648 70.4878 53.8865 70.2239 53.9982C70.0845 54.1071 69.9761 54.2506 69.9092 54.4144C69.7334 54.7965 69.4225 55.1001 69.0363 55.2669C68.4672 55.3707 67.8804 55.3145 67.3413 55.1046C67.0726 55.024 66.7976 54.9663 66.5191 54.932C64.8892 54.825 63.2566 55.0986 61.7505 55.731C60.2444 56.3634 58.9059 57.3373 57.8409 58.5758C56.6091 60.2844 55.644 62.1701 54.9786 64.1685L54.7553 64.7166C50.0254 76.653 43.9658 84.2655 36.2417 88.0108Z" fill="#1E1E1E"/>
<path d="M61.0381 87.432C62.723 85.6557 56.6229 87.0361 56.0545 98.6883C55.618 107.58 58.4905 122.104 58.4905 122.104L39.3882 138.08L51.1926 141.45C51.1926 141.45 72.7208 125.799 72.7106 124.652C72.7005 123.505 61.0381 87.432 61.0381 87.432Z" fill="white"/>
<path d="M51.1926 141.917C51.1492 141.927 51.1041 141.927 51.0607 141.917L39.2562 138.547C39.1755 138.522 39.1028 138.476 39.0457 138.414C38.9887 138.351 38.9492 138.275 38.9314 138.192C38.9171 138.11 38.9246 138.026 38.9531 137.947C38.9816 137.869 39.0301 137.799 39.0938 137.746L57.983 121.952C57.5973 119.922 55.1816 106.869 55.5876 98.6884C56.0037 90.2538 59.3431 86.752 60.896 86.3866C61.0429 86.3324 61.2036 86.3289 61.3526 86.3768C61.5016 86.4246 61.6303 86.521 61.7182 86.6505C61.7854 86.7999 61.8058 86.9661 61.7769 87.1273C61.7479 87.2885 61.6708 87.4372 61.5558 87.5539C63.6771 94.1006 73.1268 123.536 73.1775 124.652C73.2283 125.769 61.3731 134.619 51.4667 141.826C51.3873 141.885 51.2913 141.917 51.1926 141.917ZM40.3524 137.857L51.1013 140.902C58.9472 135.198 71.3302 125.921 72.2336 124.551C71.9189 122.835 65.1286 101.612 60.5915 87.5335C59.404 88.4166 56.8766 91.4413 56.5315 98.6985C56.1052 107.438 58.9371 121.861 58.9675 122.044C58.9819 122.126 58.9744 122.21 58.9459 122.289C58.9174 122.367 58.8689 122.436 58.8051 122.49L40.3524 137.857Z" fill="#1E1E1E"/>
<path d="M110.834 224.285C171.762 224.285 221.154 221.145 221.154 217.271C221.154 213.397 171.762 210.257 110.834 210.257C49.9058 210.257 0.513702 213.397 0.513702 217.271C0.513702 221.145 49.9058 224.285 110.834 224.285Z" fill="#D1D3D4"/>
<path d="M94.6651 77.7795C93.9647 77.2314 62.9159 79.1599 57.5567 89.523C52.1975 99.8862 71.4825 131.138 71.4825 131.138L110.753 119.374C110.753 119.374 113.554 92.5579 94.6651 77.7795Z" fill="#148532"/>
<path d="M218.688 169.139C223.763 192.484 206.914 209.465 206.914 209.465H88.2706C88.2706 209.465 71.4419 192.555 76.4864 169.139C81.531 145.723 117.289 132.965 128.16 123.363C139.031 113.761 135.153 97.4398 118.061 84.9553C100.968 72.4708 77.8262 64.5538 78.4758 37.5853C78.8615 20.3303 92.4625 9.09424 92.4625 9.09424H202.763C202.763 9.09424 216.364 20.2592 216.749 37.5853C217.358 64.5538 194.216 72.4708 177.114 84.9553C160.011 97.4398 156.133 113.761 167.014 123.363C177.895 132.965 213.643 145.774 218.688 169.139Z" fill="white"/>
<path d="M206.914 209.932H88.2706C88.1445 209.931 88.0241 209.88 87.9356 209.79C87.7732 209.618 70.9953 192.383 76.0398 169.038C79.6938 152.128 99.4457 140.557 113.869 132.112C119.736 128.682 124.79 125.718 127.856 122.977C129.826 121.32 131.386 119.228 132.413 116.867C133.44 114.505 133.905 111.938 133.773 109.366C133.397 101.246 127.571 92.4259 117.787 85.2905C114.427 82.8342 110.753 80.5098 107.2 78.2565C92.5843 69.0099 77.4811 59.4384 77.9683 37.5347C78.354 20.2797 91.9855 8.81021 92.1276 8.69856C92.2089 8.62685 92.3135 8.58717 92.4219 8.58691H202.763C202.871 8.58893 202.975 8.62839 203.057 8.69856C203.189 8.81021 216.82 20.2391 217.216 37.5347C217.703 59.4384 202.59 68.9997 187.974 78.2565C184.432 80.5098 180.757 82.8342 177.388 85.2905C167.613 92.3955 161.787 101.206 161.411 109.366C161.277 111.937 161.741 114.504 162.766 116.866C163.791 119.228 165.349 121.32 167.319 122.977C170.364 125.677 175.439 128.641 181.305 132.112C195.729 140.557 215.491 152.128 219.145 169.038C224.22 192.383 207.411 209.638 207.239 209.79C207.198 209.835 207.147 209.871 207.091 209.896C207.035 209.92 206.975 209.933 206.914 209.932ZM88.4634 208.999H206.711C208.264 207.344 222.951 190.982 218.241 169.231C214.669 152.717 195.109 141.278 180.839 132.914C174.941 129.463 169.836 126.479 166.71 123.708C164.627 121.958 162.979 119.748 161.898 117.252C160.816 114.756 160.33 112.042 160.478 109.326C160.874 100.881 166.832 91.8474 176.839 84.5394C180.24 82.0628 183.944 79.7283 187.487 77.4344C201.88 68.2994 216.759 58.8903 216.282 37.5144C215.927 21.5282 203.95 10.6575 202.59 9.48012H92.5945C91.2344 10.6575 79.2574 21.5282 78.892 37.5144C78.4149 58.8903 93.305 68.3197 107.698 77.4344C111.26 79.6877 114.945 82.0222 118.335 84.5394C128.343 91.8474 134.311 100.881 134.697 109.326C134.84 112.035 134.353 114.74 133.273 117.229C132.193 119.717 130.551 121.922 128.475 123.668C125.338 126.439 120.243 129.423 114.346 132.874C100.065 141.237 80.516 152.676 76.9432 169.19C72.2437 190.982 86.9105 207.344 88.4634 208.999Z" fill="#1E1E1E"/>
<path d="M112.499 72.5013C116.163 74.8257 119.959 77.2211 123.552 79.8499C132.043 85.7685 138.439 94.2257 141.822 104.007C145.09 113.386 144.177 123.373 146.207 133.066C146.233 133.439 146.344 133.8 146.533 134.122C146.721 134.444 146.981 134.719 147.293 134.924C147.759 135.116 148.274 135.159 148.766 135.048C149.258 134.937 149.704 134.678 150.043 134.305C150.588 133.595 150.913 132.741 150.977 131.848C152.256 124.073 152.195 116.735 152.683 108.859C153.312 98.7898 160.163 88.2135 171.582 79.8905C175.185 77.2617 178.971 74.8663 182.645 72.5419C190.907 67.3045 223.245 44.1828 201.748 37.2605C197.15 35.7888 192.024 36.1846 187.121 36.6109L110.266 43.2287C105.81 43.6144 101.263 44.0204 97.1925 45.5632C93.1223 47.106 89.5495 50.0089 88.8289 53.6832C87.5094 60.6055 106.49 68.7255 112.499 72.5013Z" fill="#148532"/>
<path d="M207.005 167.18C202.508 163.722 196.93 161.97 191.263 162.237C183.407 162.522 175.764 165.09 167.918 164.714C158.569 164.267 149.739 159.639 140.442 160.593C129.53 161.669 121.613 169.941 111.007 172.398C105.373 173.697 99.2427 173.281 93.7516 174.976C87.2759 177.006 84.444 182.456 85.1951 187.836C85.4286 189.51 90.0062 202.665 92.5742 202.665H202.57C208.223 202.665 212.486 178.508 211.918 175.158C211.305 171.99 209.559 169.154 207.005 167.18Z" fill="#148532"/>
<path d="M204.772 0.456543H90.4021C88.0141 0.456543 86.0782 2.39014 86.0782 4.77537C86.0782 7.16059 88.0141 9.09419 90.4021 9.09419H204.772C207.16 9.09419 209.096 7.16059 209.096 4.77537C209.096 2.39014 207.16 0.456543 204.772 0.456543Z" fill="#1E1E1E"/>
<path d="M204.782 9.541H90.3818C89.1166 9.541 87.9032 9.03839 87.0085 8.14375C86.1139 7.24911 85.6113 6.03572 85.6113 4.7705C85.6113 3.50529 86.1139 2.29189 87.0085 1.39725C87.9032 0.502605 89.1166 5.33249e-08 90.3818 0H204.782C206.048 5.33249e-08 207.261 0.502605 208.156 1.39725C209.05 2.29189 209.553 3.50529 209.553 4.7705C209.553 6.03572 209.05 7.24911 208.156 8.14375C207.261 9.03839 206.048 9.541 204.782 9.541ZM90.3818 0.903349C89.8566 0.876452 89.3314 0.956668 88.8382 1.13912C88.345 1.32158 87.8941 1.60245 87.5128 1.96467C87.1316 2.32688 86.828 2.76286 86.6206 3.24609C86.4132 3.72932 86.3062 4.2497 86.3062 4.77557C86.3062 5.30145 86.4132 5.82182 86.6206 6.30505C86.828 6.78828 87.1316 7.22427 87.5128 7.58648C87.8941 7.94869 88.345 8.22957 88.8382 8.41202C89.3314 8.59448 89.8566 8.6747 90.3818 8.6478H204.782C205.775 8.59696 206.71 8.16681 207.395 7.4462C208.08 6.7256 208.461 5.76956 208.461 4.77557C208.461 3.78158 208.08 2.82555 207.395 2.10494C206.71 1.38434 205.775 0.95419 204.782 0.903349H90.3818Z" fill="#1E1E1E"/>
<path d="M206.985 209.465H88.1996C85.8115 209.465 83.8756 211.399 83.8756 213.784C83.8756 216.169 85.8115 218.103 88.1996 218.103H206.985C209.373 218.103 211.309 216.169 211.309 213.784C211.309 211.399 209.373 209.465 206.985 209.465Z" fill="#1E1E1E"/>
<path d="M206.985 218.56H88.23C86.9648 218.56 85.7514 218.057 84.8568 217.163C83.9621 216.268 83.4595 215.055 83.4595 213.79C83.4595 212.524 83.9621 211.311 84.8568 210.416C85.7514 209.522 86.9648 209.019 88.23 209.019H206.985C208.25 209.019 209.464 209.522 210.358 210.416C211.253 211.311 211.755 212.524 211.755 213.79C211.755 215.055 211.253 216.268 210.358 217.163C209.464 218.057 208.25 218.56 206.985 218.56ZM88.23 209.912C87.2017 209.912 86.2155 210.321 85.4883 211.048C84.7612 211.775 84.3527 212.761 84.3527 213.79C84.3527 214.818 84.7612 215.804 85.4883 216.531C86.2155 217.258 87.2017 217.667 88.23 217.667H206.985C208.013 217.667 209 217.258 209.727 216.531C210.454 215.804 210.862 214.818 210.862 213.79C210.862 212.761 210.454 211.775 209.727 211.048C209 210.321 208.013 209.912 206.985 209.912H88.23Z" fill="#1E1E1E"/>
<path d="M145.841 138.761C142.553 138.761 142.543 149.642 145.841 149.642C149.14 149.642 149.14 138.761 145.841 138.761Z" fill="#148532"/>
<path d="M151.596 149.621C150.267 149.621 150.267 153.468 151.596 153.468C152.926 153.468 152.936 149.621 151.596 149.621Z" fill="#148532"/>
<path d="M143.466 62.3717C128.359 62.2422 113.346 59.9696 98.8774 55.6219C98.8191 55.6047 98.7649 55.5759 98.7182 55.537C98.6714 55.4982 98.6331 55.4502 98.6056 55.3961C98.578 55.3419 98.5618 55.2827 98.5579 55.222C98.554 55.1614 98.5626 55.1006 98.583 55.0434C98.6224 54.9265 98.7064 54.83 98.8167 54.7748C98.927 54.7197 99.0546 54.7104 99.1717 54.749C99.801 54.9622 162.833 75.4144 196.612 43.8073C196.703 43.7264 196.821 43.6841 196.943 43.6894C197.065 43.6948 197.179 43.7474 197.263 43.836C197.346 43.9247 197.391 44.0423 197.389 44.164C197.387 44.2857 197.338 44.4017 197.251 44.4874C182.351 58.4233 161.878 62.3717 143.466 62.3717Z" fill="#1E1E1E"/>
<path d="M129.246 185.085C117.387 185.086 105.59 183.377 94.2185 180.01C94.1559 179.995 94.0972 179.967 94.0461 179.928C93.9949 179.888 93.9525 179.839 93.9214 179.782C93.8902 179.726 93.8712 179.664 93.8653 179.599C93.8594 179.535 93.867 179.471 93.8873 179.409C93.9077 179.348 93.9405 179.292 93.9837 179.244C94.0269 179.196 94.0796 179.158 94.1383 179.131C94.1971 179.105 94.2607 179.091 94.3251 179.09C94.3896 179.09 94.4535 179.102 94.5128 179.127C94.8478 179.249 129.104 190.465 160.062 179.127L196.774 165.679C196.833 165.65 196.897 165.633 196.963 165.631C197.029 165.628 197.094 165.64 197.155 165.664C197.216 165.689 197.271 165.726 197.317 165.773C197.363 165.821 197.398 165.877 197.42 165.939C197.442 166.001 197.451 166.067 197.446 166.132C197.441 166.198 197.423 166.262 197.391 166.319C197.36 166.377 197.317 166.428 197.265 166.468C197.213 166.508 197.153 166.536 197.089 166.552L160.417 179.98C150.403 183.485 139.854 185.213 129.246 185.085Z" fill="#1E1E1E"/>
<path d="M175.073 168.003H174.962C164.385 165.394 145.923 160.959 145.73 160.898C145.619 160.861 145.526 160.783 145.47 160.68C145.414 160.577 145.398 160.457 145.426 160.344C145.454 160.23 145.524 160.131 145.621 160.066C145.719 160.002 145.837 159.976 145.953 159.995C146.136 160.045 164.599 164.471 175.185 167.1C175.245 167.113 175.301 167.138 175.351 167.173C175.401 167.209 175.444 167.254 175.476 167.306C175.508 167.358 175.529 167.416 175.539 167.476C175.548 167.537 175.545 167.599 175.53 167.658C175.503 167.758 175.444 167.846 175.361 167.909C175.278 167.971 175.177 168.004 175.073 168.003Z" fill="#1E1E1E"/>
<path d="M79.2879 79.5356L81.4802 86.397C81.4802 86.397 81.5919 89.8176 76.659 90.2134C71.7261 90.6093 70.0209 87.6861 70.0209 87.6861L66.4075 74.7448C66.4075 74.7448 72.3148 68.5939 68.9044 61.5498C70.3572 62.9573 72.2078 63.8838 74.2052 64.2034C76.2026 64.5229 78.25 64.2202 80.0694 63.3362C81.2311 66.692 82.187 70.1155 82.9317 73.5877C83.5508 77.3128 79.2879 79.5356 79.2879 79.5356Z" fill="white"/>
<path d="M75.7455 90.7511C71.2795 90.7511 69.6555 88.0614 69.5845 87.9396C69.5805 87.8991 69.5805 87.8583 69.5845 87.8178L65.9609 74.8867C65.9392 74.8017 65.9389 74.7127 65.9602 74.6276C65.9814 74.5426 66.0235 74.4641 66.0827 74.3994C66.1436 74.3385 71.7058 68.4008 68.4984 61.783C68.4487 61.6746 68.4388 61.5521 68.4703 61.4371C68.5019 61.3221 68.573 61.2219 68.6711 61.154C68.7692 61.0862 68.8881 61.0551 69.0069 61.0662C69.1256 61.0772 69.2367 61.1298 69.3206 61.2146C70.6974 62.5543 72.4554 63.4346 74.3529 63.7345C76.2505 64.0344 78.1943 63.7392 79.9172 62.8894C79.9807 62.8595 80.05 62.844 80.1202 62.844C80.1903 62.844 80.2597 62.8595 80.3232 62.8894C80.3917 62.9132 80.4534 62.9534 80.5029 63.0064C80.5525 63.0595 80.5883 63.1238 80.6074 63.1939C81.788 66.5729 82.7509 70.0243 83.49 73.5266C84.0482 76.9167 81.0337 79.1091 79.9476 79.779L81.9776 86.2547C81.9825 86.2985 81.9825 86.3428 81.9776 86.3866C81.9776 86.3866 82.0385 90.2944 76.6895 90.7207C76.3647 90.741 76.05 90.7511 75.7455 90.7511ZM70.4878 87.4727C70.7314 87.8381 72.3859 90.0406 76.5778 89.7057C80.7698 89.3707 80.922 86.9144 80.9322 86.478L78.7702 79.6978C78.7322 79.5838 78.7358 79.4601 78.7804 79.3486C78.825 79.2371 78.9077 79.145 79.0138 79.0888C79.0138 79.0888 82.9419 76.9877 82.3938 73.6788C81.7086 70.4125 80.8204 67.1921 79.7345 64.0363C78.1646 64.7129 76.4493 64.9821 74.7477 64.8189C73.046 64.6556 71.4132 64.0652 70.0006 63.1025C71.6754 68.8677 67.859 73.7905 66.9556 74.8765L70.4878 87.4727Z" fill="#1E1E1E"/>
<path d="M68.4476 73.6687C68.0783 73.0975 67.5385 72.6572 66.9048 72.4101C66.3028 72.2114 65.6709 72.1187 65.0372 72.136C64.6924 72.101 64.3442 72.1497 64.0222 72.2781C63.8035 72.3855 63.6099 72.5376 63.4538 72.7247C63.0348 73.1223 62.778 73.6612 62.7332 74.2371C62.7427 74.7038 62.8683 75.1607 63.0986 75.5667C63.3099 76.0248 63.5831 76.4517 63.9106 76.8355C64.2432 77.2144 64.6478 77.5233 65.1009 77.7445C65.554 77.9657 66.0465 78.0947 66.5498 78.124C67.0531 78.1532 67.5572 78.0822 68.0329 77.9151C68.5085 77.7479 68.9462 77.4879 69.3205 77.1501" fill="white"/>
<path d="M66.7627 78.6421H66.5192C65.9395 78.6153 65.3712 78.472 64.848 78.2209C64.3249 77.9698 63.8577 77.616 63.4742 77.1805C63.119 76.7623 62.8219 76.2979 62.5911 75.8001C62.329 75.32 62.1863 74.7839 62.175 74.237C62.2252 73.5381 62.5283 72.8814 63.0276 72.3897C63.2326 72.1553 63.4807 71.9623 63.7584 71.8213C64.1553 71.6666 64.5822 71.6041 65.0068 71.6386C65.6961 71.6202 66.3832 71.7233 67.0368 71.9431C67.7749 72.2291 68.4013 72.7451 68.8232 73.4149C68.86 73.4711 68.8851 73.5341 68.8968 73.6003C68.9086 73.6664 68.9068 73.7343 68.8917 73.7997C68.8765 73.8652 68.8482 73.9269 68.8085 73.9811C68.7688 74.0353 68.7186 74.0809 68.6608 74.1152C68.5458 74.1841 68.4085 74.2057 68.2778 74.1754C68.1472 74.1451 68.0334 74.0653 67.9605 73.9528C67.6532 73.4868 67.2051 73.1312 66.6815 72.9378C66.1304 72.7634 65.5543 72.6811 64.9764 72.6942C64.7089 72.6643 64.4382 72.6955 64.1847 72.7856C64.0273 72.8718 63.8864 72.9852 63.7685 73.1205C63.4447 73.4379 63.2403 73.8574 63.19 74.3081C63.2043 74.6904 63.3123 75.0633 63.5046 75.3941C63.6948 75.811 63.9407 76.2003 64.2354 76.5512C64.8248 77.2087 65.6482 77.6095 66.5293 77.6677C66.9644 77.6925 67.4002 77.6308 67.8113 77.4862C68.2225 77.3416 68.6009 77.117 68.9247 76.8253C68.9719 76.7777 69.028 76.7399 69.0898 76.7142C69.1517 76.6884 69.218 76.6751 69.285 76.6751C69.352 76.6751 69.4184 76.6884 69.4802 76.7142C69.542 76.7399 69.5982 76.7777 69.6454 76.8253C69.6926 76.8716 69.7302 76.9268 69.7558 76.9878C69.7814 77.0488 69.7946 77.1143 69.7946 77.1805C69.7946 77.2467 69.7814 77.3122 69.7558 77.3732C69.7302 77.4342 69.6926 77.4895 69.6454 77.5358C68.8534 78.2467 67.827 78.6407 66.7627 78.6421Z" fill="#1E1E1E"/>
<path d="M75.4004 68.5732C75.4004 68.5732 79.0645 71.2325 78.7296 72.0547C78.3946 72.8768 76.6996 73.0697 76.6996 73.0697" fill="white"/>
<path d="M76.6691 73.5572C76.5345 73.5639 76.4028 73.5169 76.3028 73.4265C76.2029 73.3361 76.143 73.2097 76.1363 73.0751C76.1295 72.9405 76.1765 72.8087 76.267 72.7088C76.3574 72.6089 76.4838 72.5489 76.6184 72.5422C77.2172 72.4813 78.1206 72.2073 78.2627 71.8622C77.3692 70.7407 76.3038 69.7678 75.106 68.9796C74.9997 68.9005 74.9284 68.783 74.9076 68.6521C74.8867 68.5212 74.9179 68.3874 74.9944 68.2792C75.0327 68.224 75.0818 68.1771 75.1388 68.1414C75.1957 68.1057 75.2594 68.0819 75.3258 68.0715C75.3922 68.061 75.46 68.0642 75.5252 68.0807C75.5903 68.0972 75.6515 68.1267 75.7049 68.1676C78.3439 70.0859 79.5213 71.4562 79.2066 72.2276C78.7702 73.2426 77.065 73.4963 76.73 73.5268L76.6691 73.5572Z" fill="#1E1E1E"/>
<path d="M73.1764 68.6205C73.4649 68.4369 73.489 67.9584 73.2302 67.5516C72.9714 67.1449 72.5277 66.964 72.2392 67.1476C71.9507 67.3312 71.9266 67.8097 72.1855 68.2164C72.4443 68.6231 72.8879 68.804 73.1764 68.6205Z" fill="#1E1E1E"/>
<path d="M77.0807 67.1913C77.3692 67.0077 77.3932 66.5292 77.1344 66.1224C76.8756 65.7157 76.4319 65.5348 76.1434 65.7184C75.8549 65.902 75.8309 66.3805 76.0897 66.7872C76.3485 67.1939 76.7922 67.3748 77.0807 67.1913Z" fill="#1E1E1E"/>
<path d="M79.836 73.8008C79.836 73.8008 74.9234 79.0077 72.3554 73.8008H79.836Z" fill="white"/>
<path d="M75.4309 76.6429C75.2586 76.658 75.0854 76.658 74.9132 76.6429C74.2289 76.5135 73.5894 76.2102 73.0561 75.7623C72.5228 75.3143 72.1138 74.7368 71.8682 74.085C71.8114 73.9635 71.8041 73.8247 71.8476 73.6979C71.8911 73.571 71.9822 73.466 72.1017 73.405C72.1616 73.3756 72.2268 73.3582 72.2935 73.354C72.3601 73.3498 72.427 73.3588 72.4902 73.3805C72.5533 73.4022 72.6116 73.4362 72.6616 73.4804C72.7117 73.5247 72.7525 73.5784 72.7817 73.6384C72.9575 74.1383 73.2559 74.5861 73.6495 74.9407C74.0432 75.2954 74.5196 75.5456 75.035 75.6684C77.065 75.9831 79.4198 73.5674 79.4401 73.5471C79.4873 73.4995 79.5434 73.4618 79.6052 73.436C79.6671 73.4103 79.7334 73.397 79.8004 73.397C79.8674 73.397 79.9338 73.4103 79.9956 73.436C80.0574 73.4618 80.1136 73.4995 80.1607 73.5471C80.2544 73.6437 80.3067 73.7729 80.3067 73.9074C80.3067 74.0419 80.2544 74.1712 80.1607 74.2677C80.11 74.2779 77.8466 76.6429 75.4309 76.6429Z" fill="#1E1E1E"/>
<path d="M79.2879 79.5352C79.2879 79.5352 75.7049 80.5502 73.7561 80.1137C73.7561 80.1137 76.3444 83.7982 80.5363 83.6865L79.2879 79.5352Z" fill="#1E1E1E"/>
<path d="M80.3536 84.1941C76.05 84.1941 73.4516 80.5604 73.3399 80.398C73.2814 80.3134 73.25 80.2129 73.2499 80.11C73.2498 80.007 73.281 79.9065 73.3394 79.8217C73.3977 79.737 73.4805 79.6719 73.5767 79.6353C73.6728 79.5986 73.7779 79.5921 73.8779 79.6165C75.6744 80.0631 79.1153 79.0684 79.1457 79.0582C79.2736 79.0201 79.4113 79.0339 79.5291 79.0966C79.6469 79.1593 79.7352 79.2658 79.775 79.3932L81.0235 83.5344C81.0478 83.6091 81.054 83.6886 81.0416 83.7662C81.0293 83.8439 80.9987 83.9175 80.9524 83.981C80.9067 84.044 80.8474 84.0959 80.7789 84.1328C80.7103 84.1697 80.6344 84.1907 80.5566 84.1941H80.3536ZM74.9741 80.7431C76.2748 82.0865 77.9993 82.9398 79.8562 83.1588L78.9529 80.1138C77.6575 80.4645 76.3256 80.662 74.9842 80.7025L74.9741 80.7431Z" fill="#1E1E1E"/>
<path d="M110.753 119.415C110.753 119.415 110.753 139.227 108.449 147.591C101.892 171.301 54.0143 209.181 54.0143 209.181L43.4076 198.645L72.5685 156.645L37.3176 197.925L25.6045 187.277L71.4825 131.138L110.753 119.415Z" fill="#1E1E1E"/>
<path d="M54.0143 209.689C53.8823 209.688 53.7556 209.637 53.6591 209.547L43.0523 199.052C42.9674 198.968 42.9148 198.857 42.9037 198.738C42.8925 198.619 42.9236 198.5 42.9914 198.402L66.3872 164.694L37.7033 198.29C37.6604 198.344 37.6065 198.388 37.5453 198.42C37.484 198.451 37.4168 198.47 37.348 198.473C37.2813 198.478 37.2143 198.469 37.1513 198.446C37.0884 198.423 37.0309 198.388 36.9826 198.341L25.2695 187.694C25.1796 187.6 25.1294 187.474 25.1294 187.344C25.1294 187.213 25.1796 187.088 25.2695 186.994L71.0968 130.854C71.1599 130.777 71.2447 130.72 71.3404 130.691L110.611 118.928C110.687 118.908 110.766 118.905 110.843 118.919C110.92 118.933 110.993 118.964 111.057 119.009C111.119 119.057 111.17 119.119 111.205 119.189C111.24 119.259 111.259 119.336 111.26 119.415C111.26 120.227 111.26 139.39 108.936 147.733C106.195 157.65 96.1673 171.078 79.1254 187.643C66.4684 199.955 54.4508 209.486 54.329 209.577C54.2393 209.648 54.1287 209.687 54.0143 209.689ZM44.0673 198.646L54.0448 208.522C58.4093 205.01 101.821 169.688 107.962 147.469C109.992 140.131 110.215 123.658 110.245 120.064L71.7768 131.656L26.3048 187.308L37.277 197.286L72.1828 156.401C72.266 156.302 72.3846 156.239 72.5135 156.226C72.6424 156.212 72.7714 156.25 72.873 156.33C72.9765 156.407 73.0452 156.522 73.0642 156.649C73.0832 156.777 73.051 156.907 72.9745 157.01L44.0673 198.646Z" fill="#1E1E1E"/>
<path d="M43.4076 198.646L35.7951 207.1C35.7951 207.1 23.3208 202.909 23.8689 205.273C24.417 207.638 40.6569 220.833 41.4791 221.107C42.3012 221.382 54.0143 209.141 54.0143 209.141" fill="white"/>
<path d="M41.4689 221.656H41.3268C40.3118 221.321 23.9805 208.024 23.3816 205.416C23.3342 205.247 23.3347 205.068 23.3831 204.9C23.4315 204.731 23.5259 204.579 23.6557 204.461C25.0462 203.203 32.7907 205.608 35.6428 206.491L43.032 198.29C43.1244 198.2 43.2479 198.148 43.3773 198.145C43.5067 198.143 43.6321 198.189 43.7281 198.276C43.824 198.363 43.8831 198.483 43.8933 198.612C43.9036 198.741 43.8642 198.869 43.7831 198.97L36.1706 207.415C36.1045 207.489 36.0184 207.541 35.9229 207.566C35.8273 207.592 35.7264 207.588 35.6327 207.557C30.1111 205.7 24.9346 204.614 24.3357 205.162C24.8432 207.192 39.7028 219.372 41.54 220.549C42.7275 219.879 48.5638 214.084 53.6489 208.775C53.6952 208.728 53.7505 208.69 53.8115 208.665C53.8725 208.639 53.938 208.626 54.0042 208.626C54.0704 208.626 54.1359 208.639 54.1969 208.665C54.2579 208.69 54.3131 208.728 54.3594 208.775C54.407 208.822 54.4448 208.878 54.4705 208.94C54.4963 209.002 54.5096 209.069 54.5096 209.136C54.5096 209.203 54.4963 209.269 54.4705 209.331C54.4448 209.393 54.407 209.449 54.3594 209.496C43.7425 220.661 41.9866 221.656 41.4689 221.656Z" fill="#1E1E1E"/>
<path d="M55.2425 202.615C55.1764 202.615 55.1111 202.601 55.0513 202.573C54.9915 202.545 54.9389 202.504 54.8974 202.452C54.8581 202.408 54.8282 202.357 54.8094 202.301C54.7906 202.245 54.7834 202.185 54.7882 202.127C54.7929 202.068 54.8095 202.011 54.837 201.958C54.8645 201.906 54.9023 201.86 54.9481 201.823C55.344 201.488 94.3911 168.155 102.156 149.347C109.85 130.722 105.8 123.292 105.759 123.221C105.7 123.118 105.684 122.995 105.716 122.88C105.747 122.764 105.823 122.666 105.927 122.607C106.03 122.548 106.153 122.532 106.268 122.564C106.383 122.595 106.481 122.671 106.541 122.775C106.713 123.079 110.885 130.58 102.988 149.692C95.0914 168.805 55.9226 202.168 55.5267 202.472C55.4532 202.554 55.3517 202.605 55.2425 202.615Z" fill="white"/>
<path d="M75.4004 140.679C75.2875 140.677 75.1793 140.633 75.0959 140.557C75.0535 140.517 75.0198 140.468 74.9968 140.414C74.9738 140.36 74.9619 140.301 74.9619 140.243C74.9619 140.184 74.9738 140.126 74.9968 140.072C75.0198 140.018 75.0535 139.969 75.0959 139.928L84.9211 129.21C84.9835 129.144 85.0642 129.098 85.1527 129.078C85.2413 129.058 85.3338 129.065 85.4184 129.098C85.5022 129.131 85.5741 129.188 85.6249 129.262C85.6756 129.336 85.7027 129.424 85.7026 129.514V137.492C85.7026 137.61 85.6556 137.724 85.5718 137.808C85.4881 137.892 85.3745 137.939 85.256 137.939C85.1376 137.939 85.024 137.892 84.9402 137.808C84.8565 137.724 84.8094 137.61 84.8094 137.492V130.641L75.7556 140.507C75.7122 140.559 75.658 140.602 75.5967 140.631C75.5354 140.661 75.4685 140.677 75.4004 140.679Z" fill="white"/>
<path d="M65.6868 145.967L78.7499 131.179H46.3511L28.9641 148.413L65.6868 145.967Z" fill="white"/>
<path d="M28.9641 148.911C28.8742 148.911 28.7862 148.885 28.7106 148.836C28.6349 148.788 28.575 148.718 28.5378 148.637C28.4993 148.551 28.4875 148.456 28.5037 148.364C28.52 148.271 28.5638 148.186 28.6292 148.119L46.0263 130.864C46.1144 130.781 46.2302 130.734 46.3511 130.732H78.7499C78.8401 130.73 78.9287 130.756 79.0045 130.804C79.0804 130.853 79.1401 130.923 79.1762 131.006C79.2096 131.088 79.2206 131.177 79.2081 131.264C79.1956 131.352 79.1601 131.434 79.1051 131.503L66.0218 146.282C65.9406 146.371 65.8278 146.426 65.7071 146.434L28.9946 148.911H28.9641ZM46.5439 131.656L30.172 147.896L65.4635 145.551L77.7247 131.656H46.5439Z" fill="#1E1E1E"/>
<path d="M89.8844 82.7937C89.8844 82.7937 97.8624 114.817 95.6497 115.832C93.437 116.847 65.7883 125.677 64.2557 126.347C62.723 127.017 58.998 129.717 58.318 131.179C57.6379 132.64 57.0188 138.436 58.318 138.06C60.2178 137.616 62.0888 137.057 63.9207 136.386C64.9357 135.858 66.4075 132.803 66.4075 132.803C66.4075 132.803 66.2248 135.756 67.6154 135.127C69.0059 134.498 71.4825 131.179 71.4825 131.179C71.4825 131.179 106.348 129.991 109.738 122.998C113.128 116.004 111.271 100.901 105.678 89.3607C100.085 77.8202 90.3818 75.7293 89.8844 82.7937Z" fill="white"/>
<path d="M58.2063 138.547C58.0831 138.546 57.9618 138.516 57.8512 138.462C57.7406 138.408 57.6435 138.329 57.5668 138.233C56.6229 137.126 57.3232 132.214 57.9018 130.976C58.6427 129.382 62.4388 126.652 64.073 125.901C64.7632 125.596 70.3355 123.769 76.8011 121.648C84.9211 118.978 94.2388 115.943 95.4568 115.375C96.4718 114.167 93.173 97.8967 89.4277 82.895C89.4227 82.8444 89.4227 82.7934 89.4277 82.7427C89.6002 80.3169 90.8385 78.6828 92.8279 78.3275C96.4819 77.6272 102.196 81.1086 106.094 89.1373C111.768 100.83 113.595 116.106 110.154 123.18C106.713 130.255 74.9842 131.483 71.7261 131.605C71.1475 132.366 69.1277 134.934 67.8082 135.533C67.6331 135.626 67.4361 135.671 67.2379 135.662C67.0397 135.653 66.8475 135.591 66.6815 135.482C66.3532 135.209 66.1335 134.827 66.0624 134.406C65.6098 135.335 64.95 136.148 64.1339 136.781C62.726 137.339 61.277 137.787 59.7998 138.121C59.2619 138.263 58.7848 138.385 58.4499 138.487C58.3715 138.517 58.2897 138.537 58.2063 138.547ZM90.3513 82.7225C90.5543 83.5446 92.4321 91.1571 94.0459 98.8001C97.5578 115.416 96.4515 115.933 95.8526 116.207C94.5839 116.796 85.2865 119.841 77.0853 122.521C70.9141 124.551 65.088 126.449 64.4485 126.733C62.8753 127.433 59.3735 130.072 58.7341 131.331C58.0946 132.589 57.7191 137.126 58.2773 137.604C58.6947 137.434 59.126 137.302 59.5664 137.208C60.9745 136.881 62.3583 136.457 63.7076 135.939C64.347 135.604 65.4432 133.686 65.9812 132.559C66.0292 132.464 66.1078 132.389 66.2043 132.345C66.3007 132.301 66.4092 132.292 66.512 132.318C66.6147 132.344 66.7055 132.404 66.7695 132.488C66.8335 132.573 66.8669 132.676 66.8642 132.782C66.7747 133.442 66.8955 134.113 67.2093 134.701C67.2601 134.701 67.3514 134.701 67.4326 134.701C68.4476 134.224 70.4776 131.788 71.1171 130.884C71.1581 130.828 71.2115 130.783 71.2731 130.751C71.3348 130.719 71.403 130.702 71.4723 130.701C71.5535 130.701 80.2724 130.397 89.2856 129.24C104.186 127.332 108.408 124.672 109.322 122.784C112.641 115.933 110.814 101.023 105.262 89.5433C101.608 82.0323 96.218 78.632 93.0106 79.2512C91.4475 79.5557 90.5137 80.794 90.3818 82.7631L90.3513 82.7225Z" fill="#1E1E1E"/>
<path d="M65.6868 145.967C64.4485 144.191 48.3101 117.547 48.3101 117.547L10.2881 121.283L28.9641 148.434L65.6868 145.967Z" fill="white"/>
<path d="M28.9641 148.91C28.8884 148.91 28.8138 148.891 28.7468 148.856C28.6797 148.82 28.622 148.769 28.5785 148.707L9.9126 121.505C9.87348 121.436 9.85294 121.357 9.85294 121.277C9.85294 121.197 9.87348 121.118 9.9126 121.049C9.94663 120.975 9.999 120.911 10.0647 120.863C10.1305 120.815 10.2074 120.784 10.2881 120.775L48.2999 117.05C48.3869 117.038 48.4754 117.053 48.5546 117.09C48.6338 117.128 48.7004 117.188 48.7465 117.263C48.9089 117.537 64.8952 143.937 66.103 145.683C66.145 145.753 66.1672 145.834 66.1672 145.916C66.1672 145.998 66.145 146.079 66.103 146.15C66.0676 146.224 66.0133 146.287 65.9455 146.333C65.8778 146.38 65.7991 146.407 65.7173 146.414L28.9946 148.91H28.9641ZM11.1205 121.648L29.1875 147.936L64.8647 145.561C62.1648 141.298 49.6397 120.693 48.0563 118.014L11.1205 121.648Z" fill="#1E1E1E"/>
<path d="M42.1794 134.467C41.6038 133.235 40.7277 132.167 39.6318 131.361C38.9544 130.808 38.1348 130.456 37.2668 130.346C36.8339 130.305 36.3976 130.376 36.0008 130.554C35.6039 130.732 35.2602 131.011 35.0034 131.361C34.6596 131.957 34.5272 132.651 34.6278 133.331C34.6954 134.134 34.9364 134.913 35.3342 135.613C35.732 136.314 36.2771 136.921 36.9319 137.391C39.2562 138.954 43.8846 138.091 42.1794 134.467Z" fill="white"/>
<path d="M39.5506 138.588C38.532 138.6 37.5326 138.31 36.6781 137.756C35.9661 137.256 35.3725 136.607 34.9393 135.852C34.5061 135.098 34.2438 134.258 34.1711 133.391C34.0516 132.608 34.2096 131.807 34.6177 131.128C34.9216 130.709 35.3298 130.378 35.8017 130.166C36.2736 129.954 36.7927 129.869 37.3074 129.92C38.2601 130.022 39.1645 130.392 39.916 130.986C41.0668 131.84 41.9875 132.967 42.5956 134.264C43.5091 136.213 42.7174 137.309 42.1591 137.766C41.4109 138.334 40.489 138.624 39.5506 138.588ZM37.0638 130.834C36.741 130.824 36.4207 130.892 36.1294 131.032C35.8381 131.171 35.5843 131.378 35.3891 131.635C35.1039 132.141 34.9967 132.727 35.0846 133.3C35.1481 134.032 35.3698 134.741 35.7343 135.379C36.0988 136.017 36.5974 136.568 37.1958 136.995C37.841 137.421 38.5945 137.654 39.3677 137.667C40.1409 137.679 40.9016 137.471 41.5603 137.066C42.1896 136.528 42.2505 135.716 41.7633 134.66C41.2163 133.501 40.3897 132.497 39.3577 131.737C38.7516 131.241 38.0149 130.931 37.2364 130.844L37.0638 130.834Z" fill="#1E1E1E"/>
<path d="M37.3582 132.975C37.7963 133.587 38.2028 134.22 38.5762 134.873L39.3882 132.975" fill="white"/>
<path d="M38.6168 135.34C38.5361 135.34 38.4569 135.318 38.3874 135.277C38.3178 135.236 38.2604 135.177 38.221 135.107C37.7845 134.376 37.206 133.513 37.1045 133.33C37.0526 133.285 37.0112 133.229 36.9831 133.166C36.9551 133.103 36.9411 133.034 36.942 132.965C36.942 132.844 36.9902 132.728 37.0758 132.642C37.1615 132.556 37.2777 132.508 37.3988 132.508C37.6627 132.508 37.7338 132.508 38.5458 133.858L39.0025 132.843C39.0497 132.729 39.1403 132.638 39.2545 132.59C39.3687 132.543 39.4971 132.543 39.6115 132.59C39.724 132.639 39.8127 132.73 39.8583 132.844C39.9038 132.958 39.9027 133.085 39.8551 133.199L39.0431 135.107C39.0079 135.185 38.9527 135.252 38.8833 135.302C38.8138 135.352 38.7324 135.382 38.6472 135.391L38.6168 135.34Z" fill="#1E1E1E"/>
</svg>
