<svg width="149" height="215" viewBox="0 0 149 215" fill="none" xmlns="http://www.w3.org/2000/svg">
<path d="M25.0709 84.1758L14.6062 127.547C14.3388 129.336 13.5598 131.011 12.3631 132.368C11.0914 133.59 9.57663 134.531 7.9174 135.129C5.67425 136.042 3.52245 136.144 1.4417 137.504C1.20924 137.622 1.0064 137.791 0.848251 137.998C0.690102 138.206 0.580706 138.446 0.528198 138.702C0.531239 138.931 0.597177 139.156 0.718851 139.351C0.840526 139.546 1.01329 139.704 1.2184 139.808C1.63539 140.006 2.08717 140.119 2.54805 140.143C8.75985 140.864 14.8905 141.006 20.879 139.057C24.5228 137.879 25.5074 135.92 26.4209 132.185L38.9662 86.0941" fill="white"/>
<path d="M10.0489 141.167C7.52377 141.15 5.00201 140.981 2.49727 140.66C1.96469 140.634 1.44305 140.5 0.96462 140.264C0.669048 140.115 0.421692 139.885 0.251079 139.601C0.0804665 139.318 -0.00644689 138.991 0.000372596 138.66C0.0589326 138.327 0.192624 138.011 0.391336 137.737C0.590047 137.462 0.848566 137.237 1.14732 137.077C2.41888 136.28 3.82062 135.713 5.28852 135.402C6.11278 135.201 6.9231 134.947 7.71437 134.641C9.30572 134.066 10.7607 133.167 11.9875 132.002C13.1189 130.708 13.8521 129.115 14.0987 127.414L24.5634 84.0534C24.5957 83.9188 24.6801 83.8026 24.7981 83.7302C24.9162 83.6579 25.0581 83.6354 25.1927 83.6677C25.3273 83.7 25.4435 83.7845 25.5159 83.9025C25.5882 84.0205 25.6107 84.1624 25.5784 84.297L15.1137 127.668C14.8286 129.553 14.0037 131.316 12.7386 132.743C11.4112 134.013 9.83533 134.994 8.11022 135.626C7.27551 135.947 6.42118 136.215 5.55242 136.427C4.201 136.708 2.90927 137.223 1.73602 137.95C1.45182 138.143 1.06612 138.437 1.04582 138.742C1.05722 138.873 1.10249 138.999 1.17722 139.108C1.25194 139.216 1.35355 139.303 1.47212 139.361C1.83076 139.522 2.21626 139.615 2.60892 139.635C8.00872 140.264 14.3728 140.65 20.7165 138.569C24.0863 137.473 25.01 135.758 25.9032 132.073L38.4587 85.9616C38.5043 85.838 38.5946 85.7359 38.7117 85.6754C38.8287 85.6149 38.9642 85.6004 39.0915 85.6348C39.2187 85.6692 39.3285 85.7499 39.3992 85.8611C39.4699 85.9723 39.4965 86.1059 39.4737 86.2357L26.9182 132.327C25.9641 136.245 24.8882 138.336 21.0413 139.564C17.4839 140.671 13.7745 141.213 10.0489 141.167Z" fill="#1E1E1E"/>
<path d="M115.802 186.376C115.802 186.376 116.36 205.367 117.639 205.458C118.918 205.549 144.953 215.233 147.277 212.35C149.307 209.853 148.038 204.017 143.349 202.383C136.832 200.099 132.001 193.857 132.001 193.857L131.402 181.474" fill="white"/>
<path d="M145.216 213.406C141.207 213.406 133.036 211 121.689 207.316C119.73 206.666 117.872 206.057 117.629 206.027C117.111 206.027 115.883 205.895 115.325 186.427C115.322 186.358 115.333 186.289 115.357 186.225C115.381 186.16 115.418 186.101 115.465 186.051C115.513 186.001 115.569 185.961 115.632 185.933C115.695 185.905 115.763 185.89 115.832 185.889C115.97 185.889 116.102 185.941 116.202 186.036C116.302 186.13 116.362 186.259 116.37 186.396C116.614 194.719 117.243 203.814 117.893 205.012C118.36 205.103 119.456 205.468 122.054 206.321C127.809 208.219 145.348 214.004 146.911 212.066C147.345 211.398 147.619 210.64 147.712 209.85C147.805 209.06 147.715 208.258 147.449 207.508C147.17 206.456 146.639 205.488 145.901 204.687C145.164 203.885 144.243 203.276 143.217 202.91C136.63 200.606 131.829 194.476 131.636 194.212C131.564 194.131 131.524 194.026 131.524 193.918L130.915 181.545C130.91 181.406 130.959 181.271 131.052 181.169C131.145 181.066 131.274 181.005 131.412 180.997C131.482 180.986 131.554 180.991 131.622 181.012C131.69 181.032 131.752 181.067 131.805 181.115C131.857 181.163 131.898 181.221 131.925 181.287C131.952 181.352 131.964 181.423 131.961 181.494L132.559 193.674C133.28 194.557 137.776 199.865 143.572 201.895C144.755 202.318 145.818 203.02 146.67 203.943C147.522 204.866 148.138 205.981 148.464 207.194C148.775 208.106 148.87 209.077 148.741 210.032C148.613 210.986 148.264 211.898 147.723 212.695C147.381 212.986 146.979 213.2 146.547 213.322C146.115 213.445 145.661 213.473 145.216 213.406Z" fill="#1E1E1E"/>
<path d="M53.024 186.376C53.024 186.376 42.5289 187.767 38.3572 189.857C38.3572 189.857 39.5448 199.683 27.6287 205.641C27.6287 205.641 23.7615 209.224 25.5987 212.796C27.4358 216.369 44.092 212.045 49.2786 209.224C52.3585 207.564 55.2135 205.517 57.7742 203.134L53.024 186.376Z" fill="white"/>
<path d="M29.7297 214.704C28.7465 214.73 27.7649 214.611 26.8167 214.349C26.4549 214.264 26.1143 214.105 25.8158 213.884C25.5174 213.662 25.2673 213.382 25.081 213.06C23.1322 209.173 27.111 205.448 27.2734 205.285L27.3952 205.204C38.8241 199.489 37.8497 190.04 37.8396 189.979C37.8241 189.871 37.8433 189.76 37.8943 189.664C37.9454 189.567 38.0257 189.489 38.1238 189.441C42.3259 187.34 52.5165 185.97 52.9529 185.919C53.0774 185.9 53.2045 185.928 53.3095 185.997C53.4146 186.067 53.4901 186.173 53.5213 186.294L58.2309 203.032C58.2572 203.121 58.2578 203.216 58.2326 203.306C58.2075 203.396 58.1577 203.477 58.0888 203.539C55.5034 205.974 52.6096 208.059 49.4816 209.741C45.6957 211.741 35.6979 214.704 29.7297 214.704ZM27.9332 206.107C27.5069 206.523 24.5329 209.619 26.0148 212.593C26.1424 212.786 26.3067 212.951 26.4983 213.08C26.6899 213.209 26.905 213.299 27.1313 213.344C31.6278 214.765 44.7111 211.111 48.9843 208.787C51.9144 207.185 54.6407 205.236 57.1043 202.981L52.6078 186.985C50.5778 187.269 42.5898 188.497 38.8749 190.202C38.9246 192.088 38.6003 193.964 37.9208 195.724C36.8347 198.698 34.1957 202.92 27.9332 206.077V206.107Z" fill="#1E1E1E"/>
<path d="M48.9233 112.626C48.9233 112.626 23.457 123.355 18.9605 138.001C14.6874 151.917 35.9517 193.826 35.9517 193.826L54.3231 190.781C54.3231 190.781 44.6197 148.852 45.4419 146.7C46.264 144.548 65.2141 139.097 76.308 139.95C87.402 140.803 107.864 144.457 107.864 144.457L114.34 191.583L135.574 188.538C135.574 188.538 132.925 134.52 125.322 123.436C117.72 112.352 99.9474 111.124 99.9474 111.124L48.9233 112.626Z" fill="#1E1E1E"/>
<path d="M35.9517 194.404C35.8568 194.403 35.764 194.376 35.6835 194.326C35.6029 194.276 35.5377 194.205 35.4949 194.12C34.6322 192.405 14.1799 151.845 18.4734 137.899C20.3714 131.708 26.0554 125.496 35.3528 119.436C39.6125 116.669 44.0859 114.246 48.7305 112.189C48.7906 112.175 48.8531 112.175 48.9132 112.189L99.9068 110.697C100.699 110.697 118.126 112.047 125.739 123.222C133.351 134.398 135.97 186.284 136.081 188.477C136.085 188.602 136.043 188.723 135.962 188.819C135.882 188.914 135.769 188.977 135.645 188.994L114.411 192.09C114.346 192.102 114.278 192.1 114.214 192.084C114.149 192.069 114.088 192.04 114.035 192C113.981 191.96 113.937 191.91 113.904 191.852C113.871 191.794 113.85 191.73 113.843 191.664L107.418 144.903C104.627 144.405 86.4073 141.239 76.2776 140.457C65.1126 139.604 46.599 145.167 45.9088 146.902C45.4013 148.668 50.9838 174.094 54.8205 190.75C54.8478 190.886 54.8224 191.028 54.7495 191.146C54.7093 191.203 54.658 191.251 54.5987 191.288C54.5394 191.325 54.4733 191.349 54.4044 191.359L36.0329 194.404H35.9517ZM49.035 113.204C47.4212 113.905 23.66 124.369 19.4376 138.234C15.4791 151.155 34.2566 189.411 36.2359 193.379L53.7548 190.446C51.877 182.326 44.163 148.648 45.0055 146.527C46.0205 143.928 65.6709 138.63 76.3893 139.422C87.3817 140.264 107.793 143.898 107.996 143.939C108.102 143.957 108.199 144.008 108.274 144.084C108.348 144.161 108.397 144.259 108.413 144.365L114.817 190.984L135.117 188.03C134.823 182.762 131.991 134.002 124.967 123.689C117.639 112.93 100.14 111.611 99.9677 111.601L49.035 113.204Z" fill="#1E1E1E"/>
<path d="M90.9647 43.2712C90.9647 43.2712 42.9552 42.1344 34.2059 51.0968C25.4566 60.0593 21.6199 90.1439 21.6199 90.1439L41.4022 95.8685L45.4622 80.9683L48.8726 112.626L99.9271 111.175L97.1562 79.527L115.802 73.6197C115.802 73.6197 106.535 47.4834 90.9647 43.2712Z" fill="#148532"/>
<path d="M84.7529 25.7828C84.7529 25.7828 90.1831 14.9324 88.1227 12.1006C86.0622 9.2687 84.6615 10.2939 84.6514 10.304C86.8438 8.7206 84.2352 5.46245 82.8244 4.3561C81.7141 3.54467 80.4803 2.91748 79.1704 2.49866C75.9673 1.22117 72.5596 0.533435 69.1117 0.468656C65.6488 0.422536 62.2707 1.5414 59.52 3.64561C55.3077 7.05601 53.9578 11.3698 54.445 16.6376C54.7698 20.4033 55.9167 24.1588 56.14 27.8534C60.4538 28.2898 64.8081 28.8684 69.1828 28.9293C72.6135 29.0308 82.733 29.8022 84.7529 25.7828Z" fill="white"/>
<path d="M73.7706 29.589C72.4714 29.589 71.2534 29.589 70.2384 29.5078H69.132C65.5694 29.4165 62.027 29.0511 58.5354 28.6857L56.0487 28.4319C55.9235 28.418 55.8072 28.3605 55.72 28.2696C55.6329 28.1788 55.5803 28.0602 55.5716 27.9345C55.4113 25.9898 55.1265 24.0574 54.719 22.1491C54.3487 20.3578 54.0709 18.5487 53.8867 16.729C53.3894 10.9029 55.0743 6.57895 59.185 3.29035C62.029 1.10734 65.5269 -0.0514443 69.1117 0.00175325C72.6161 0.060453 76.0816 0.748033 79.3429 2.03175C80.7163 2.4648 82.014 3.10854 83.1898 3.93995C84.3164 4.823 86.0927 6.9139 86.0622 8.75105C86.0571 9.06183 85.9916 9.36865 85.8694 9.6544C87.0086 10.0095 87.9771 10.7719 88.5896 11.7961C90.7109 14.7091 86.184 24.1486 85.2604 26.006C83.6871 29.0815 78.2569 29.589 73.7706 29.589ZM56.5866 27.3966L58.6166 27.6098C62.0575 27.9752 65.6201 28.3406 69.132 28.4218H70.2485C73.9431 28.5537 82.5808 28.8582 84.2657 25.5087C86.3769 21.2457 89.0362 14.2422 87.6761 12.3746C86.316 10.507 85.2908 10.4664 84.9254 10.6897C84.8104 10.7642 84.6708 10.7911 84.5363 10.7646C84.4018 10.7381 84.2829 10.6602 84.2048 10.5476C84.1658 10.4931 84.1381 10.4313 84.1231 10.366C84.1082 10.3007 84.1063 10.233 84.1176 10.167C84.1289 10.1009 84.1532 10.0378 84.1891 9.98113C84.225 9.92452 84.2717 9.87556 84.3266 9.8371C84.5175 9.71304 84.6743 9.54302 84.7825 9.34262C84.8906 9.14223 84.9468 8.91788 84.9457 8.69015C84.9457 7.33005 83.4943 5.52335 82.4793 4.7215C81.411 3.94569 80.2253 3.34601 78.9674 2.94525C75.8284 1.68571 72.4835 1.0181 69.1016 0.976152C65.755 0.920376 62.4871 1.99299 59.8245 4.02115C56.0081 7.1169 54.445 11.1262 54.9119 16.5666C55.095 18.3456 55.3694 20.114 55.734 21.8649C56.1156 23.6924 56.4002 25.5389 56.5866 27.3966Z" fill="#1E1E1E"/>
<path d="M79.8809 27.295C80.9771 22.6361 88.894 22.0474 88.1024 27.5792C87.9038 29.5086 87.0303 31.3059 85.6359 32.6542C84.9283 33.3092 84.042 33.739 83.0895 33.889C82.1371 34.039 81.1615 33.9024 80.2869 33.4966" fill="white"/>
<path d="M82.2255 34.4815C81.4656 34.489 80.7157 34.3076 80.0432 33.9537C79.9214 33.8871 79.8307 33.7752 79.7908 33.6422C79.7509 33.5092 79.765 33.3658 79.8301 33.2432C79.861 33.1808 79.9043 33.1255 79.9575 33.0806C80.0106 33.0357 80.0724 33.0023 80.1391 32.9823C80.2057 32.9623 80.2757 32.9562 80.3448 32.9644C80.4139 32.9726 80.4805 32.995 80.5406 33.03C81.3205 33.3777 82.1853 33.489 83.0278 33.3501C83.8704 33.2112 84.6536 32.8281 85.2806 32.2485C86.5835 30.9853 87.3993 29.3034 87.5847 27.4983C87.8385 25.7017 87.0874 24.4533 85.5547 24.1995C84.4619 24.0246 83.3429 24.2551 82.4082 24.8477C81.4735 25.4403 80.7876 26.3541 80.4797 27.4171C80.4474 27.5517 80.3629 27.6679 80.2449 27.7402C80.1269 27.8126 79.985 27.8351 79.8504 27.8028C79.7158 27.7705 79.5995 27.686 79.5272 27.568C79.4549 27.45 79.4324 27.3081 79.4647 27.1735C79.8286 25.8353 80.681 24.6822 81.8536 23.9419C83.0261 23.2015 84.4337 22.9277 85.7983 23.1744C87.4731 23.489 89.1174 24.8288 88.7114 27.6505C88.4912 29.701 87.557 31.6088 86.0723 33.0402C85.0105 33.9766 83.6413 34.4897 82.2255 34.4815Z" fill="#1E1E1E"/>
<path d="M60.3624 25.9148C59.9564 21.1443 52.2424 19.3985 52.2424 24.9911C52.1618 26.9289 52.7655 28.8332 53.9476 30.3706C54.552 31.1184 55.364 31.6706 56.2815 31.9578C57.1991 32.2449 58.181 32.2542 59.1038 31.9845" fill="white"/>
<path d="M57.7234 32.6846C56.9155 32.667 56.1207 32.4768 55.3925 32.1266C54.6642 31.7765 54.0192 31.2746 53.501 30.6546C52.2311 29.0119 51.5806 26.9742 51.6638 24.8995C51.6638 22.0474 53.501 20.9613 55.2062 20.8395C56.5998 20.8112 57.9535 21.3062 59.0001 22.2269C60.0467 23.1476 60.7102 24.4271 60.8597 25.813C60.8878 25.8891 60.898 25.9705 60.8895 26.0511C60.881 26.1317 60.854 26.2093 60.8107 26.2778C60.7674 26.3463 60.7089 26.4039 60.6397 26.4461C60.5706 26.4884 60.4926 26.5142 60.4119 26.5214C60.3312 26.5287 60.2499 26.5173 60.1743 26.488C60.0987 26.4588 60.0308 26.4126 59.976 26.3529C59.9211 26.2932 59.8808 26.2217 59.858 26.144C59.8353 26.0662 59.8307 25.9842 59.8447 25.9044C59.6932 24.7998 59.1411 23.7894 58.2934 23.0653C57.4457 22.3411 56.3615 21.9535 55.2468 21.9763C53.6431 22.0474 52.7194 23.1233 52.7093 24.9401C52.6287 26.7647 53.1888 28.5601 54.2927 30.0151C54.8289 30.6829 55.5502 31.1778 56.3662 31.4378C57.1822 31.6977 58.0568 31.7113 58.8805 31.4767C59.0151 31.4296 59.1629 31.4379 59.2914 31.4998C59.4199 31.5616 59.5185 31.672 59.5656 31.8066C59.6127 31.9412 59.6044 32.089 59.5426 32.2175C59.4807 32.346 59.3703 32.4446 59.2357 32.4917C58.7462 32.6412 58.2348 32.7065 57.7234 32.6846Z" fill="#1E1E1E"/>
<path d="M59.3271 49.4831C60.0324 51.0111 61.1519 52.3108 62.5584 53.2347C63.965 54.1587 65.6024 54.6699 67.2847 54.7104C69.0043 54.8827 70.7392 54.6068 72.3205 53.9096C73.9018 53.2123 75.2756 52.1174 76.3081 50.7316V47.4125V39.6985V32.4921L62.1996 31.4771L61.3064 37.3031L61.0222 39.191L59.3271 49.4831Z" fill="white"/>
<path d="M68.1779 55.2685C67.8734 55.2685 67.5689 55.2685 67.2441 55.2685C60.7989 54.8016 58.911 49.9195 58.8298 49.7063C58.8044 49.6202 58.8044 49.5286 58.8298 49.4424L61.5906 31.416C61.6083 31.2849 61.6766 31.1658 61.7809 31.0843C61.8852 31.0027 62.0172 30.9652 62.1488 30.9796L76.2573 31.9946C76.3893 32.0024 76.5132 32.0603 76.6038 32.1566C76.6944 32.2528 76.7447 32.3801 76.7445 32.5122L76.8562 50.7822C76.8556 50.8826 76.8275 50.9809 76.775 51.0664C75.7846 52.4056 74.4863 53.4866 72.9899 54.218C71.4935 54.9494 69.843 55.3098 68.1779 55.2685ZM59.8448 49.4221C60.529 50.8259 61.5878 52.0133 62.9042 52.8534C64.2207 53.6934 65.7437 54.1533 67.305 54.1825C68.9072 54.3536 70.5265 54.1114 72.0084 53.4788C73.4903 52.8462 74.7854 51.8445 75.7701 50.5691L75.6788 33.0197L62.5345 32.0047L59.8448 49.4221Z" fill="#1E1E1E"/>
<path d="M60.9105 39.1706C61.9639 40.9785 63.4541 42.4931 65.2446 43.5757C68.1576 45.4839 72.5627 47.7068 76.2878 47.4124V39.6984C73.5694 39.8363 70.8442 39.6558 68.1678 39.1605C65.7812 38.8918 63.4501 38.2585 61.2556 37.2827L60.9105 39.1706Z" fill="#1E1E1E"/>
<path d="M75.6077 47.9505C71.6188 47.9505 67.2847 45.5146 64.9705 44.0022C63.106 42.8768 61.5558 41.2988 60.4639 39.4144C60.4122 39.3182 60.3943 39.2074 60.4132 39.0997L60.6872 37.2118C60.7012 37.1325 60.7332 37.0574 60.7807 36.9923C60.8282 36.9272 60.89 36.8738 60.9613 36.8363C61.0324 36.8014 61.1105 36.7832 61.1897 36.7832C61.2688 36.7832 61.347 36.8014 61.418 36.8363C63.5685 37.7865 65.8515 38.4027 68.1881 38.6633C70.8342 39.1551 73.5287 39.3356 76.2167 39.2012C76.2852 39.1942 76.3543 39.2024 76.4193 39.2252C76.4842 39.248 76.5433 39.2849 76.5923 39.3332C76.6437 39.3792 76.6847 39.4355 76.7127 39.4985C76.7407 39.5615 76.755 39.6297 76.7547 39.6986V47.4126C76.7551 47.5405 76.7072 47.6637 76.6207 47.7578C76.5341 47.8519 76.4152 47.9099 76.2878 47.9201C76.0848 47.9404 75.8513 47.9505 75.6077 47.9505ZM61.3977 39.0795C62.4082 40.737 63.8002 42.129 65.4577 43.1395C67.2644 44.3169 71.7507 46.9762 75.7092 46.9153V40.2162C73.1211 40.3055 70.531 40.1115 67.9851 39.6377C65.78 39.3706 63.6177 38.8249 61.55 38.0137L61.3977 39.0795Z" fill="#1E1E1E"/>
<path d="M68.0764 40.9164L69.335 41.0077C70.7554 41.1129 72.1825 40.9371 73.5349 40.4905C74.8872 40.0439 76.1383 39.3352 77.2167 38.4048C78.295 37.4744 79.1795 36.3407 79.8195 35.0684C80.4595 33.7961 80.8425 32.4101 80.9466 30.9897L82.1748 13.8768L69.5076 16.0489L59.2967 12.1919L58.0381 29.3149C57.9344 30.736 58.1119 32.1637 58.5604 33.5161C59.0089 34.8686 59.7197 36.1193 60.652 37.1968C61.5844 38.2743 62.72 39.1575 63.9939 39.7957C65.2679 40.434 66.6552 40.8148 68.0764 40.9164Z" fill="white"/>
<path d="M70.147 41.5658C69.8628 41.5658 69.5786 41.5658 69.2944 41.5658L68.0358 41.4745C65.028 41.2512 62.232 39.8428 60.2621 37.5589C58.2922 35.275 57.3097 32.3024 57.5306 29.2945L58.8298 12.1613C58.8356 12.0795 58.8605 12.0003 58.9023 11.9298C58.9442 11.8593 59.0018 11.7995 59.0708 11.7552C59.1397 11.7109 59.218 11.6832 59.2995 11.6744C59.381 11.6656 59.4634 11.6759 59.5403 11.7045L69.6192 15.5108L82.1545 13.359C82.232 13.3468 82.3113 13.3521 82.3865 13.3744C82.4618 13.3967 82.5311 13.4356 82.5894 13.4881C82.6478 13.5406 82.6936 13.6054 82.7238 13.6779C82.7539 13.7504 82.7674 13.8287 82.7635 13.9071L81.4643 30.9895C81.2567 33.8501 79.9745 36.5262 77.8752 38.4805C75.776 40.4348 73.0151 41.5225 70.147 41.5252V41.5658ZM68.117 40.3986L69.3756 40.4899C72.0998 40.6941 74.7935 39.808 76.8644 38.0264C78.9353 36.2448 80.2138 33.7136 80.4188 30.9895L81.6267 14.5364L69.6091 16.5664C69.5187 16.5859 69.4253 16.5859 69.335 16.5664L59.7839 12.9631L58.576 29.3858C58.3804 32.1146 59.2749 34.8097 61.0635 36.8799C62.8521 38.95 65.3887 40.2264 68.117 40.429V40.3986Z" fill="#1E1E1E"/>
<path d="M70.2485 32.4107C69.3421 32.4104 68.4379 32.322 67.5486 32.1468C67.4813 32.1347 67.4172 32.1092 67.36 32.0717C67.3028 32.0343 67.2538 31.9856 67.2159 31.9288C67.178 31.8719 67.152 31.808 67.1394 31.7408C67.1268 31.6736 67.1279 31.6045 67.1426 31.5378C67.1548 31.4703 67.1803 31.4058 67.2176 31.3482C67.2549 31.2906 67.3033 31.241 67.36 31.2022C67.4167 31.1635 67.4805 31.1364 67.5477 31.1226C67.615 31.1088 67.6843 31.1084 67.7516 31.1217C68.7554 31.307 69.7765 31.3819 70.7966 31.345C71.1214 30.8984 70.5429 27.4372 69.4568 23.8339C69.4368 23.7673 69.4302 23.6974 69.4372 23.6281C69.4442 23.5589 69.4648 23.4918 69.4978 23.4305C69.5308 23.3692 69.5755 23.3151 69.6295 23.2711C69.6834 23.2271 69.7454 23.1942 69.8121 23.1742C69.8787 23.1542 69.9487 23.1475 70.0179 23.1546C70.0871 23.1616 70.1543 23.1822 70.2155 23.2152C70.2768 23.2482 70.331 23.2929 70.3749 23.3468C70.4189 23.4008 70.4518 23.4628 70.4718 23.5295C70.9692 25.1738 72.5018 30.6345 71.5883 31.9844C71.5086 32.104 71.4018 32.2031 71.2766 32.2736C71.1514 32.3442 71.0113 32.3842 70.8677 32.3904L70.2485 32.4107Z" fill="#1E1E1E"/>
<path d="M75.353 22.5549C75.4018 21.8894 75.1061 21.3253 74.6924 21.2949C74.2787 21.2646 73.9037 21.7794 73.8548 22.4449C73.8059 23.1104 74.1017 23.6745 74.5154 23.7049C74.9291 23.7353 75.3041 23.2204 75.353 22.5549Z" fill="#1E1E1E"/>
<path d="M65.7615 21.3985C65.81 20.7382 65.5139 20.1784 65.1002 20.148C64.6865 20.1176 64.3118 20.6282 64.2633 21.2884C64.2148 21.9487 64.5109 22.5085 64.9246 22.5389C65.3383 22.5693 65.713 22.0587 65.7615 21.3985Z" fill="#1E1E1E"/>
<path d="M72.9078 37.9832C72.8165 37.9834 72.7268 37.959 72.6482 37.9126C72.5696 37.8661 72.505 37.7994 72.4612 37.7193C69.9643 33.4157 62.8897 34.6743 62.8187 34.6743C62.6881 34.6905 62.5564 34.6564 62.4501 34.5789C62.3438 34.5014 62.271 34.3864 62.2464 34.2572C62.2219 34.128 62.2474 33.9942 62.3179 33.8832C62.3884 33.7721 62.4985 33.6921 62.6258 33.6593C62.9506 33.5984 70.5022 32.289 73.3645 37.2219C73.4345 37.3431 73.4534 37.487 73.4172 37.6221C73.3811 37.7573 73.2928 37.8725 73.1717 37.9426C73.0892 37.9804 72.9978 37.9945 72.9078 37.9832Z" fill="#1E1E1E"/>
<path d="M62.1817 19.9088C62.2129 19.8838 62.2503 19.8677 62.2899 19.8622C62.3295 19.8567 62.3698 19.862 62.4066 19.8775C64.4347 20.6715 66.5154 18.3127 66.5398 18.2933C66.5801 18.2522 66.6345 18.228 66.692 18.2256C66.7496 18.2231 66.8058 18.2427 66.8495 18.2803C66.8931 18.3179 66.9208 18.3706 66.9269 18.4279C66.933 18.4851 66.9171 18.5426 66.8824 18.5885C66.7877 18.6979 64.5574 21.2041 62.2327 20.294C62.1757 20.2716 62.13 20.2274 62.1055 20.1713C62.0811 20.1151 62.08 20.0516 62.1024 19.9946C62.1203 19.9591 62.1478 19.9294 62.1817 19.9088Z" fill="#1E1E1E"/>
<path d="M74.1327 19.1097C74.168 19.1283 74.1977 19.1561 74.2186 19.1902C74.2394 19.2243 74.2507 19.2634 74.2512 19.3034C74.3334 21.4798 77.3271 22.445 77.3546 22.4596C77.4084 22.4801 77.4523 22.5203 77.4775 22.5721C77.5027 22.6238 77.5073 22.6833 77.4902 22.7383C77.4732 22.7933 77.4359 22.8397 77.3859 22.8682C77.3358 22.8967 77.2768 22.905 77.2208 22.8916C77.0827 22.8485 73.8942 21.805 73.7999 19.3103C73.7977 19.2491 73.8199 19.1895 73.8616 19.1447C73.9033 19.0999 73.9611 19.0735 74.0223 19.0712C74.062 19.0735 74.1002 19.0868 74.1327 19.1097Z" fill="#1E1E1E"/>
<path d="M115.497 75.6499C115.497 75.6499 118.055 64.1296 108.453 61.5617C98.8512 58.9937 69.8831 60.3944 69.8831 60.3944C69.8831 60.3944 54.8916 53.7665 52.7398 55.9487C50.588 58.131 48.2636 63.0537 48.6798 65.6014C49.0959 68.149 52.9428 70.3008 52.9428 69.0219C52.9428 67.743 52.7297 65.6014 52.7297 65.6014C52.7297 65.6014 58.4948 70.0877 63.8236 68.3825C63.8236 68.3825 101.592 83.1101 108.636 81.8211C115.68 80.532 115.497 75.6499 115.497 75.6499Z" fill="white"/>
<path d="M107.672 82.4196C98.77 82.4196 66.8077 70.0873 63.8337 68.9404C59.6012 70.1888 55.257 67.9254 53.3792 66.6668C53.4401 67.3875 53.501 68.3212 53.501 69.0216C53.5065 69.1366 53.4888 69.2515 53.4492 69.3595C53.4096 69.4676 53.3487 69.5667 53.2702 69.6508C53.1917 69.735 53.0971 69.8026 52.9921 69.8497C52.887 69.8968 52.7736 69.9224 52.6586 69.9249C51.2985 70.0264 48.5986 67.8949 48.1926 65.6822C47.7358 62.9417 50.1109 57.9175 52.3845 55.5322C54.6581 53.147 67.1325 58.5772 69.9339 59.8054C72.2785 59.6937 99.2369 58.5062 108.585 60.9929C118.197 63.5609 116.198 74.7259 116.015 75.6394C116.015 76.3093 115.67 81.0291 108.758 82.2877C108.401 82.3663 108.037 82.4105 107.672 82.4196ZM63.9048 67.8543C63.9686 67.8437 64.0338 67.8437 64.0976 67.8543C64.4732 67.9964 101.815 82.511 108.626 81.2726C115.101 80.0953 115.03 75.8018 115.02 75.6191C115.01 75.4364 115.02 75.5277 115.02 75.4871C115.392 73.5377 115.416 71.5377 115.091 69.5798C114.381 65.5198 112.117 63.0229 108.362 62.0181C98.9426 59.511 70.1876 60.8508 69.9034 60.861C69.8234 60.8804 69.7399 60.8804 69.6598 60.861C63.5698 58.1712 54.4348 54.9841 53.1762 56.3138C51.1462 58.4148 48.8726 63.1752 49.2685 65.5097C49.5852 66.6855 50.336 67.6975 51.3695 68.3416C51.7017 68.5919 52.0817 68.7715 52.486 68.8693C52.486 67.6107 52.283 65.6721 52.283 65.6518C52.2723 65.5506 52.2916 65.4485 52.3385 65.3583C52.3854 65.268 52.4579 65.1936 52.5469 65.1443C52.6333 65.0892 52.7337 65.0599 52.8362 65.0599C52.9387 65.0599 53.0391 65.0892 53.1255 65.1443C53.1255 65.1443 58.7384 69.4377 63.7424 67.8442C63.7966 67.8366 63.8519 67.84 63.9048 67.8543Z" fill="#1E1E1E"/>
<path d="M66.9498 62.3022V65.4385L74.5826 67.1234C74.5826 67.1234 79.9012 61.6627 81.2511 60.7898L80.703 57.9072L66.9498 62.3022Z" fill="#1E1E1E"/>
<path d="M74.6232 67.6308H74.5115L66.8787 65.9459C66.7651 65.9222 66.6633 65.8595 66.591 65.7687C66.5187 65.6778 66.4804 65.5646 66.4829 65.4485V62.3122C66.483 62.2053 66.5163 62.101 66.5781 62.0138C66.6399 61.9266 66.7272 61.8606 66.828 61.8249L80.5914 57.4402C80.6566 57.4101 80.7276 57.3945 80.7995 57.3945C80.8713 57.3945 80.9423 57.4101 81.0075 57.4402C81.1277 57.52 81.2116 57.644 81.241 57.7853L81.7891 60.6679C81.8059 60.7665 81.7937 60.8679 81.7541 60.9597C81.7144 61.0516 81.649 61.13 81.5658 61.1855C79.2657 63.1569 77.0703 65.2473 74.9886 67.4481C74.9432 67.5017 74.8875 67.5456 74.8247 67.577C74.7618 67.6084 74.6933 67.6267 74.6232 67.6308ZM67.5182 65.0324L74.4912 66.5752C75.4149 65.6312 79.2516 61.7336 80.7639 60.5664L80.3884 58.5364L67.5182 62.5964V65.0324Z" fill="#1E1E1E"/>
<path d="M66.9498 62.3026C66.9498 62.3026 69.8425 57.6234 73.1413 56.3242L80.703 57.9076C80.703 57.9076 75.8006 61.1353 74.1766 63.9367L66.9498 62.3026Z" fill="white"/>
<path d="M74.2172 64.4846H74.1055L66.8686 62.8505C66.7874 62.8334 66.7117 62.7968 66.648 62.7437C66.5843 62.6906 66.5346 62.6227 66.5032 62.546C66.4657 62.472 66.4462 62.3903 66.4462 62.3075C66.4462 62.2246 66.4657 62.1429 66.5032 62.0689C66.625 61.8659 69.5482 57.2274 72.9586 55.8774C73.055 55.8521 73.1564 55.8521 73.2529 55.8774L80.8553 57.3796C80.9568 57.4004 81.0498 57.4511 81.1222 57.5253C81.1946 57.5995 81.243 57.6937 81.2613 57.7958C81.2806 57.8971 81.2686 58.0018 81.2269 58.0961C81.1852 58.1904 81.1157 58.2697 81.0278 58.3236C81.0278 58.3236 76.2066 61.5107 74.6739 64.17C74.6365 64.2611 74.5734 64.3394 74.4923 64.3952C74.4112 64.4511 74.3156 64.4822 74.2172 64.4846ZM67.843 61.9877L73.933 63.3681C75.4703 61.3661 77.3171 59.6221 79.4038 58.2018L73.192 56.9026C70.8778 57.877 68.726 60.6987 67.843 61.9573V61.9877Z" fill="#1E1E1E"/>
<path d="M68.9798 65.0635C68.3163 65.9184 67.8323 66.8984 67.5567 67.9449C67.2812 68.9914 67.2197 70.0827 67.3761 71.1535L72.1364 72.3512C71.9651 70.1645 72.4417 67.9757 73.5067 66.0582L68.9798 65.0635Z" fill="#1E1E1E"/>
<path d="M72.106 72.8487H72.0248L67.2238 71.5901C67.121 71.5652 67.0285 71.5087 66.9594 71.4287C66.8902 71.3486 66.8478 71.2489 66.8381 71.1435C66.6722 70.0037 66.7416 68.8421 67.0418 67.7301C67.3421 66.6181 67.8669 65.5794 68.5839 64.678C68.6406 64.6127 68.714 64.564 68.7963 64.5372C68.8785 64.5104 68.9665 64.5064 69.0508 64.5257L73.5879 65.5407C73.6679 65.5576 73.7424 65.5943 73.8044 65.6476C73.8665 65.7008 73.9142 65.7688 73.9431 65.8452C73.9805 65.9174 74 65.9974 74 66.0787C74 66.1599 73.9805 66.24 73.9431 66.3121C72.9349 68.1311 72.4864 70.2074 72.6541 72.2803C72.6594 72.3613 72.6467 72.4425 72.6169 72.518C72.587 72.5935 72.5408 72.6614 72.4815 72.7168C72.3783 72.8081 72.2436 72.8555 72.106 72.8487ZM67.8227 70.7375L71.568 71.6916C71.5202 69.8614 71.9063 68.0458 72.6947 66.3933L69.1422 65.6219C68.1334 67.1275 67.6679 68.9319 67.8227 70.7375Z" fill="#1E1E1E"/>
<path d="M73.5777 60.6375C73.455 60.6387 73.336 60.5954 73.2428 60.5157C73.1677 60.4484 73.1135 60.361 73.0865 60.2639C73.0595 60.1668 73.0609 60.064 73.0905 59.9676L73.7401 57.9376C73.7855 57.8144 73.8769 57.7135 73.995 57.6563C74.1132 57.599 74.249 57.5898 74.3738 57.6305C74.4986 57.6712 74.6028 57.7588 74.6645 57.8747C74.7261 57.9907 74.7404 58.126 74.7044 58.2522L74.4303 59.1048L76.4603 58.0898C76.5195 58.0606 76.584 58.0434 76.6499 58.0394C76.7158 58.0353 76.7819 58.0444 76.8442 58.0661C76.9066 58.0879 76.964 58.1218 77.0131 58.1659C77.0622 58.2101 77.102 58.2636 77.1302 58.3233C77.1597 58.3833 77.177 58.4484 77.1812 58.5151C77.1854 58.5818 77.1764 58.6486 77.1547 58.7118C77.133 58.775 77.0991 58.8332 77.0548 58.8833C77.0105 58.9333 76.9568 58.9741 76.8968 59.0033L73.8518 60.5157C73.7735 60.581 73.6786 60.6232 73.5777 60.6375Z" fill="#D1D3D4"/>
<path d="M46.5584 90.8748C46.4302 90.8732 46.3068 90.8249 46.2116 90.739C46.1163 90.6531 46.0556 90.5354 46.0408 90.4079C45.7058 87.3629 42.7623 61.1658 42.7623 60.1812C42.7563 60.1113 42.7655 60.0408 42.7893 59.9748C42.813 59.9087 42.8508 59.8485 42.8999 59.7984C42.9491 59.7483 43.0085 59.7094 43.0741 59.6843C43.1397 59.6593 43.2099 59.6488 43.28 59.6534C43.4192 59.656 43.5519 59.7125 43.6503 59.8109C43.7488 59.9093 43.8052 60.042 43.8078 60.1812C43.8078 61.0034 46.1727 82.1966 47.0761 90.2963C47.0905 90.4332 47.0508 90.5704 46.9654 90.6785C46.8801 90.7866 46.7559 90.857 46.6193 90.8748H46.5584Z" fill="#1E1E1E"/>
</svg>
