<svg width="21" height="14" viewBox="0 0 21 14" fill="none" xmlns="http://www.w3.org/2000/svg">
<path id="Vector" d="M1.90773 14C1.27439 14 0.778561 13.7875 0.420227 13.3625C0.061894 12.9375 -0.0672727 12.35 0.0327273 11.6L1.23273 3.225C1.36606 2.34167 1.77856 1.58333 2.47023 0.95C3.16189 0.316667 3.94939 0 4.83273 0H15.6577C16.5411 0 17.3286 0.316667 18.0202 0.95C18.7119 1.58333 19.1244 2.34167 19.2577 3.225L20.4327 11.6C20.5327 12.35 20.4036 12.9375 20.0452 13.3625C19.6869 13.7875 19.1911 14 18.5577 14C18.1744 14 17.8494 13.9375 17.5827 13.8125C17.3161 13.6875 17.0911 13.5333 16.9077 13.35L14.3077 10.75H6.15773L3.55773 13.35C3.37439 13.5333 3.14939 13.6875 2.88273 13.8125C2.61606 13.9375 2.29106 14 1.90773 14ZM2.35773 12.4L5.50773 9.25H14.9577L18.1077 12.4C18.1911 12.4833 18.3411 12.5583 18.5577 12.625C18.7077 12.625 18.8202 12.55 18.8952 12.4C18.9702 12.25 18.9911 12.1 18.9577 11.95L17.7577 3.475C17.6744 2.89167 17.4286 2.41667 17.0202 2.05C16.6119 1.68333 16.1577 1.5 15.6577 1.5H4.80773C4.30773 1.5 3.85356 1.68333 3.44523 2.05C3.03689 2.41667 2.79106 2.89167 2.70773 3.475L1.50773 11.95C1.47439 12.1 1.49523 12.25 1.57023 12.4C1.64523 12.55 1.75773 12.625 1.90773 12.625C2.02439 12.625 2.17439 12.55 2.35773 12.4ZM15.7327 8C15.9994 8 16.2327 7.9 16.4327 7.7C16.6327 7.5 16.7327 7.26667 16.7327 7C16.7327 6.73333 16.6327 6.5 16.4327 6.3C16.2327 6.1 15.9994 6 15.7327 6C15.4661 6 15.2327 6.1 15.0327 6.3C14.8327 6.5 14.7327 6.73333 14.7327 7C14.7327 7.26667 14.8327 7.5 15.0327 7.7C15.2327 7.9 15.4661 8 15.7327 8ZM13.6077 4.75C13.8744 4.75 14.1077 4.65 14.3077 4.45C14.5077 4.25 14.6077 4.01667 14.6077 3.75C14.6077 3.48333 14.5077 3.25 14.3077 3.05C14.1077 2.85 13.8744 2.75 13.6077 2.75C13.3411 2.75 13.1077 2.85 12.9077 3.05C12.7077 3.25 12.6077 3.48333 12.6077 3.75C12.6077 4.01667 12.7077 4.25 12.9077 4.45C13.1077 4.65 13.3411 4.75 13.6077 4.75ZM6.36063 7.875C6.54203 7.875 6.69106 7.81598 6.80773 7.69793C6.92439 7.57986 6.98273 7.43055 6.98273 7.25V6H8.23273C8.41328 6 8.56258 5.9407 8.68065 5.8221C8.7987 5.70348 8.85773 5.55348 8.85773 5.3721C8.85773 5.1907 8.7987 5.04167 8.68065 4.925C8.56258 4.80833 8.41328 4.75 8.23273 4.75H6.98273V3.5C6.98273 3.31945 6.92343 3.17014 6.80483 3.05208C6.68621 2.93403 6.53621 2.875 6.35483 2.875C6.17343 2.875 6.02439 2.93403 5.90773 3.05208C5.79106 3.17014 5.73273 3.31945 5.73273 3.5V4.75H4.48273C4.30218 4.75 4.15287 4.8093 4.0348 4.9279C3.91675 5.04652 3.85773 5.19652 3.85773 5.3779C3.85773 5.5593 3.91675 5.70833 4.0348 5.825C4.15287 5.94167 4.30218 6 4.48273 6H5.73273V7.25C5.73273 7.43055 5.79203 7.57986 5.91063 7.69793C6.02924 7.81598 6.17924 7.875 6.36063 7.875Z" fill="white"/>
</svg>
