<svg width="24" height="24" viewBox="0 0 24 24" fill="none" xmlns="http://www.w3.org/2000/svg">
<g id="action/settings">
<path id=" &#226;&#134;&#179;Color" fill-rule="evenodd" clip-rule="evenodd" d="M19.1231 12.9364C19.1591 12.6364 19.1831 12.3244 19.1831 12.0004C19.1831 11.6764 19.1591 11.3644 19.1111 11.0644L21.1391 9.48039C21.3191 9.33639 21.3671 9.07239 21.2591 8.86839L19.3391 5.54439C19.2191 5.32839 18.9671 5.25639 18.7511 5.32839L16.3631 6.28839C15.8591 5.90439 15.3311 5.59239 14.7431 5.35239L14.3831 2.80839C14.3471 2.56839 14.1431 2.40039 13.9031 2.40039H10.0631C9.82311 2.40039 9.63111 2.56839 9.59511 2.80839L9.23511 5.35239C8.64711 5.59239 8.10711 5.91639 7.61511 6.28839L5.22711 5.32839C5.01111 5.24439 4.75911 5.32839 4.63911 5.54439L2.71911 8.86839C2.59911 9.08439 2.64711 9.33639 2.83911 9.48039L4.86711 11.0644C4.81911 11.3644 4.78311 11.6884 4.78311 12.0004C4.78311 12.3124 4.80711 12.6364 4.85511 12.9364L2.82711 14.5204C2.64711 14.6644 2.59911 14.9284 2.70711 15.1324L4.62711 18.4564C4.74711 18.6724 4.99911 18.7444 5.21511 18.6724L7.60311 17.7124C8.10711 18.0964 8.63511 18.4084 9.22311 18.6484L9.58311 21.1924C9.63111 21.4324 9.82311 21.6004 10.0631 21.6004H13.9031C14.1431 21.6004 14.3471 21.4324 14.3711 21.1924L14.7311 18.6484C15.3191 18.4084 15.8591 18.0844 16.3511 17.7124L18.7391 18.6724C18.9551 18.7564 19.2071 18.6724 19.3271 18.4564L21.2471 15.1324C21.3671 14.9164 21.3191 14.6644 21.1271 14.5204L19.1231 12.9364ZM11.9831 15.6004C10.0031 15.6004 8.38311 13.9804 8.38311 12.0004C8.38311 10.0204 10.0031 8.40039 11.9831 8.40039C13.9631 8.40039 15.5831 10.0204 15.5831 12.0004C15.5831 13.9804 13.9631 15.6004 11.9831 15.6004Z" fill="white"/>
</g>
</svg>
