<svg width="20" height="20" viewBox="0 0 20 20" fill="none" xmlns="http://www.w3.org/2000/svg">
<path id="Vector" d="M10 20C8.61667 20 7.31667 19.7375 6.1 19.2125C4.88333 18.6875 3.825 17.975 2.925 17.075C2.025 16.175 1.3125 15.1167 0.7875 13.9C0.2625 12.6833 0 11.3833 0 10C0 8.61667 0.2625 7.31667 0.7875 6.1C1.3125 4.88333 2.025 3.825 2.925 2.925C3.825 2.025 4.88333 1.3125 6.1 0.7875C7.31667 0.2625 8.61667 0 10 0C11.3833 0 12.6833 0.2625 13.9 0.7875C15.1167 1.3125 16.175 2.025 17.075 2.925C17.975 3.825 18.6875 4.88333 19.2125 6.1C19.7375 7.31667 20 8.61667 20 10V11.325C20 12.2583 19.6708 13.0458 19.0125 13.6875C18.3542 14.3292 17.55 14.65 16.6 14.65C16 14.65 15.4333 14.5042 14.9 14.2125C14.3667 13.9208 13.9583 13.5083 13.675 12.975C13.2417 13.5417 12.7 13.9625 12.05 14.2375C11.4 14.5125 10.7167 14.65 10 14.65C8.7 14.65 7.59583 14.2 6.6875 13.3C5.77917 12.4 5.325 11.3 5.325 10C5.325 8.7 5.77917 7.59167 6.6875 6.675C7.59583 5.75833 8.7 5.3 10 5.3C11.3 5.3 12.4042 5.75833 13.3125 6.675C14.2208 7.59167 14.675 8.7 14.675 10V11.325C14.675 11.8417 14.8625 12.275 15.2375 12.625C15.6125 12.975 16.0667 13.15 16.6 13.15C17.1167 13.15 17.5625 12.975 17.9375 12.625C18.3125 12.275 18.5 11.8417 18.5 11.325V10C18.5 7.63333 17.675 5.625 16.025 3.975C14.375 2.325 12.3667 1.5 10 1.5C7.63333 1.5 5.625 2.325 3.975 3.975C2.325 5.625 1.5 7.63333 1.5 10C1.5 12.3667 2.325 14.375 3.975 16.025C5.625 17.675 7.63333 18.5 10 18.5H14.6C14.8167 18.5 14.9958 18.5708 15.1375 18.7125C15.2792 18.8542 15.35 19.0333 15.35 19.25C15.35 19.4667 15.2792 19.6458 15.1375 19.7875C14.9958 19.9292 14.8167 20 14.6 20H10ZM10 13.15C10.8833 13.15 11.6333 12.8458 12.25 12.2375C12.8667 11.6292 13.175 10.8833 13.175 10C13.175 9.1 12.8667 8.34167 12.25 7.725C11.6333 7.10833 10.8833 6.8 10 6.8C9.11667 6.8 8.36667 7.10833 7.75 7.725C7.13333 8.34167 6.825 9.1 6.825 10C6.825 10.8833 7.13333 11.6292 7.75 12.2375C8.36667 12.8458 9.11667 13.15 10 13.15Z" fill="white"/>
</svg>
