<svg width="22" height="16" viewBox="0 0 22 16" fill="none" xmlns="http://www.w3.org/2000/svg">
<path id="Vector" d="M13 4.8C13 4.70807 13.0335 4.61358 13.1006 4.51653C13.1677 4.41949 13.2425 4.35565 13.325 4.325C13.825 4.14167 14.3361 4 14.8584 3.9C15.3807 3.8 15.9299 3.75 16.5062 3.75C16.8664 3.75 17.2221 3.77083 17.5732 3.8125C17.9244 3.85417 18.2667 3.91667 18.6 4C18.7 4.03333 18.7917 4.09496 18.875 4.18488C18.9583 4.27481 19 4.37598 19 4.48838C19 4.67946 18.9375 4.825 18.8125 4.925C18.6875 5.025 18.5333 5.05 18.35 5C18.07 4.91667 17.775 4.85417 17.465 4.8125C17.155 4.77083 16.8333 4.75 16.5 4.75C16.0167 4.75 15.55 4.79583 15.1 4.8875C14.65 4.97917 14.2083 5.11667 13.775 5.3C13.5417 5.38333 13.3542 5.37917 13.2125 5.2875C13.0708 5.19583 13 5.03333 13 4.8ZM13 10.3C13 10.2032 13.0335 10.1038 13.1006 10.0016C13.1677 9.89946 13.2425 9.83225 13.325 9.8C13.825 9.61667 14.3361 9.47917 14.8584 9.3875C15.3807 9.29583 15.9299 9.25 16.5062 9.25C16.8664 9.25 17.2221 9.27083 17.5732 9.3125C17.9244 9.35417 18.2667 9.41667 18.6 9.5C18.7 9.53333 18.7917 9.59496 18.875 9.68488C18.9583 9.77481 19 9.87597 19 9.98837C19 10.1795 18.9375 10.325 18.8125 10.425C18.6875 10.525 18.5333 10.55 18.35 10.5C18.07 10.4167 17.775 10.3542 17.465 10.3125C17.155 10.2708 16.8333 10.25 16.5 10.25C16.0167 10.25 15.55 10.2917 15.1 10.375C14.65 10.4583 14.2083 10.5917 13.775 10.775C13.5417 10.8583 13.3542 10.8583 13.2125 10.775C13.0708 10.6917 13 10.5333 13 10.3ZM13 7.55C13 7.45807 13.0335 7.36358 13.1006 7.26653C13.1677 7.16949 13.2425 7.10565 13.325 7.075C13.825 6.89167 14.3361 6.75 14.8584 6.65C15.3807 6.55 15.9299 6.5 16.5062 6.5C16.8664 6.5 17.2221 6.52083 17.5732 6.5625C17.9244 6.60417 18.2667 6.66667 18.6 6.75C18.7 6.78333 18.7917 6.84496 18.875 6.93488C18.9583 7.02481 19 7.12597 19 7.23837C19 7.42946 18.9375 7.575 18.8125 7.675C18.6875 7.775 18.5333 7.8 18.35 7.75C18.07 7.66667 17.775 7.60417 17.465 7.5625C17.155 7.52083 16.8333 7.5 16.5 7.5C16.0167 7.5 15.55 7.54583 15.1 7.6375C14.65 7.72917 14.2083 7.86667 13.775 8.05C13.5417 8.13333 13.3542 8.12917 13.2125 8.0375C13.0708 7.94583 13 7.78333 13 7.55ZM5.2 12.5C6.09277 12.5 6.96179 12.6042 7.80708 12.8125C8.65236 13.0208 9.48333 13.3333 10.3 13.75V3.075C9.55 2.575 8.73651 2.1875 7.85953 1.9125C6.98256 1.6375 6.09605 1.5 5.2 1.5C4.56667 1.5 3.94583 1.57917 3.3375 1.7375C2.72917 1.89583 2.11667 2.09167 1.5 2.325V13.175C2.01667 12.9417 2.60417 12.7708 3.2625 12.6625C3.92083 12.5542 4.56667 12.5 5.2 12.5ZM11.8 13.75C12.6333 13.3333 13.45 13.0208 14.25 12.8125C15.05 12.6042 15.9 12.5 16.8 12.5C17.4333 12.5 18.0875 12.55 18.7625 12.65C19.4375 12.75 20.0167 12.8833 20.5 13.05V2.325C19.9333 2.04167 19.3348 1.83333 18.7045 1.7C18.0741 1.56667 17.4393 1.5 16.8 1.5C15.9 1.5 15.0292 1.6375 14.1875 1.9125C13.3458 2.1875 12.55 2.575 11.8 3.075V13.75ZM11.05 15.725C10.9244 15.725 10.8055 15.7125 10.6933 15.6875C10.5811 15.6625 10.4833 15.6167 10.4 15.55C9.61667 15.0667 8.78461 14.6917 7.90383 14.425C7.02303 14.1583 6.12175 14.025 5.2 14.025C4.59105 14.025 3.99298 14.1 3.4058 14.25C2.8186 14.4 2.23333 14.5833 1.65 14.8C1.265 14.9833 0.89375 14.9583 0.53625 14.725C0.17875 14.4917 0 14.1583 0 13.725V2.15C0 1.9 0.0583333 1.67083 0.175 1.4625C0.291667 1.25417 0.466667 1.09167 0.7 0.975C1.4 0.641667 2.12829 0.395833 2.88488 0.2375C3.64144 0.0791667 4.41315 0 5.2 0C6.25 0 7.27083 0.141667 8.2625 0.425C9.25417 0.708333 10.1833 1.14167 11.05 1.725C11.9 1.14167 12.8125 0.708333 13.7875 0.425C14.7625 0.141667 15.7667 0 16.8 0C17.5811 0 18.3472 0.0791667 19.0984 0.2375C19.8495 0.395833 20.575 0.641667 21.275 0.975C21.5083 1.09167 21.6875 1.25417 21.8125 1.4625C21.9375 1.67083 22 1.9 22 2.15V13.725C22 14.1899 21.8125 14.5436 21.4375 14.7862C21.0625 15.0287 20.6917 15.0333 20.325 14.8C19.7583 14.5667 19.1814 14.3792 18.5942 14.2375C18.007 14.0958 17.409 14.025 16.8 14.025C15.8954 14.025 15.0109 14.1583 14.1466 14.425C13.2822 14.6917 12.4667 15.0667 11.7 15.55C11.6167 15.6167 11.5189 15.6625 11.4067 15.6875C11.2945 15.7125 11.1756 15.725 11.05 15.725Z" fill="white"/>
</svg>
