<?xml version="1.0" encoding="UTF-8"?>
<svg width="112" height="44" id="Calque_1" data-name="Calque 1" xmlns="http://www.w3.org/2000/svg" viewBox="0 0 224 68">
  <defs>
    <style>
      .cls-1 {
        fill: #148532;
      }

      .cls-1, .cls-2 {
        stroke-width: 0px;
      }

      .cls-2 {
        fill: #fff;
      }
    </style>
  </defs>
  <path class="cls-2" d="M42.97,48.33c0-.46-.27-.86-.69-1.04-.43-.18-.9-.08-1.23.24-1.22,1.22-2.35,2.12-3.49,2.76-1.21.74-2.61,1.32-4.15,1.74-1.75.47-3.49.68-5.2.62-4.56.08-9.01-1.83-12.18-5.16-1.62-1.73-2.83-3.7-3.6-5.84-.92-2.57-1.36-5.08-1.3-7.49-.05-2.4.39-4.95,1.3-7.58.77-2.14,1.98-4.11,3.6-5.84,1.48-1.59,3.36-2.89,5.44-3.75,2.22-.93,4.47-1.41,6.69-1.41,1.81,0,3.54.19,5.14.56,1.68.45,3.02.99,4.22,1.69,1.14.64,2.24,1.52,3.47,2.74.32.34.79.44,1.23.27.43-.17.7-.57.7-1.04v-2.82c0-.2-.06-.39-.18-.54l.02-.03-.16-.12s-.05-.04-.08-.06c-1.69-1.62-3.74-2.89-6.09-3.75h-.02c-2.77-.93-5.54-1.37-8.2-1.31-.05,0-.09,0-.14,0-8.81,0-16.74,5.53-19.76,13.8-2.13,5.86-2.13,12.32,0,18.18,2.06,5.45,6.09,9.73,11.35,12.06,2.69,1.17,5.57,1.75,8.53,1.67.2,0,.4,0,.59,0,2.75,0,5.25-.41,7.63-1.26,2.17-.8,4.29-2.09,6.13-3.74l.25-.14-.04-.06c.13-.16.2-.36.2-.57v-2.8Z"/>
  <path class="cls-2" d="M89.16,54.02l-17.09-41.46c-.27-.67-.89-1.08-1.61-1.08s-1.34.41-1.61,1.08l-17.09,41.46c-.22.54-.16,1.15.16,1.63.32.48.87.77,1.45.77h.96c.72,0,1.35-.43,1.62-1.09l13.97-34.77c.11-.27.35-.36.54-.36h0c.19,0,.43.1.54.36l7.58,18.76,4.87,12c.07.18.05.38-.06.54-.11.16-.29.26-.48.26h-11.81c-.96,0-1.74.78-1.74,1.74v.81c0,.96.78,1.74,1.74,1.74h16.45c.58,0,1.12-.29,1.45-.77.32-.48.39-1.1.16-1.63Z"/>
  <path class="cls-2" d="M130.77,47.34c-.43-.18-.9-.08-1.23.24-1.22,1.22-2.36,2.12-3.49,2.76-1.21.74-2.61,1.32-4.15,1.74-1.75.46-3.49.67-5.2.62-.07,0-.13,0-.2,0-4.5,0-8.86-1.88-11.98-5.16-1.54-1.65-2.8-3.69-3.65-5.9-.92-2.57-1.35-5.08-1.3-7.48-.05-2.4.39-4.95,1.3-7.58.77-2.14,1.98-4.11,3.6-5.84,1.48-1.59,3.36-2.89,5.38-3.74l.06-.02c2.22-.93,4.47-1.41,6.69-1.41,1.81,0,3.54.19,5.14.56,1.7.46,3.1.99,4.28,1.63,1.14.64,2.24,1.52,3.47,2.74.32.34.79.44,1.23.27.43-.17.7-.57.7-1.04v-2.77c0-.31-.15-.59-.37-.73-1.63-1.62-3.63-2.86-6.11-3.77h-.02c-2.77-.93-5.54-1.37-8.2-1.31-3.03,0-5.9.56-8.53,1.67-2.32.97-4.62,2.58-6.82,4.78-2.09,2.22-3.62,4.71-4.54,7.41-2.13,5.86-2.13,12.31,0,18.17,3.01,8.25,10.87,13.75,19.61,13.75.09,0,.19,0,.28,0,.2,0,.39,0,.59,0,2.75,0,5.25-.41,7.64-1.26,2.18-.8,4.31-2.1,6.13-3.74.26-.17.41-.46.41-.77v-2.8c0-.46-.27-.86-.7-1.04Z"/>
  <path class="cls-2" d="M177.2,25.07c-1.07-2.77-2.62-5.25-4.48-7.17-1.97-2.03-4.29-3.58-6.88-4.61h0c-2.75-1.05-5.79-1.61-8.81-1.61h-8.89c-.96,0-1.74.78-1.74,1.74v19.99c0,.96.78,1.74,1.74,1.74h.76c.96,0,1.74-.78,1.74-1.74v-16.91c0-.32.26-.58.58-.58h5.82c2.52-.05,4.98.38,7.33,1.3,1.91.72,3.73,1.95,5.42,3.63,1.47,1.58,2.67,3.54,3.47,5.65,1.58,4.85,1.58,10.18,0,15.02-.71,2.08-1.86,3.99-3.41,5.65-1.45,1.5-3.33,2.76-5.43,3.64-2.37.92-4.91,1.41-7.34,1.41h-8.89c-.96,0-1.74.78-1.74,1.74v.76c0,.96.78,1.74,1.74,1.74h8.89c3.06,0,6.02-.54,8.81-1.61,2.59-1.03,4.91-2.58,6.89-4.62,1.98-2.1,3.47-4.5,4.42-7.12,2.09-5.9,2.09-12.15,0-18.07Z"/>
  <path class="cls-1" d="M216.76,52.64c-.33-.33-.77-.51-1.23-.51h-.01l-19.38.15h0c-.24,0-.44-.13-.53-.35-.1-.22-.05-.46.11-.63l14.13-14.74c1.52-1.52,2.93-3.31,4.32-5.5h0c1.26-2.1,1.89-4.54,1.83-7.06-.06-3.19-1.16-6.21-3.1-8.49-1.11-1.35-2.52-2.45-4.1-3.18-1.76-.82-3.89-1.27-6-1.27-.64,0-1.16.52-1.16,1.16v1.8c0,.64.52,1.16,1.18,1.16h0c1.34-.05,2.78.22,4.02.76,1.06.53,1.93,1.22,2.66,2.12.67.78,1.23,1.8,1.58,2.91.36.92.54,1.95.54,3.04,0,1.44-.21,2.64-.65,3.66-.44,1.03-.95,2.12-1.73,3.13-.67.86-1.57,1.97-2.63,2.98l-18.58,19.53c-.49.51-.62,1.24-.34,1.89.28.65.89,1.06,1.6,1.06h26.22c.96,0,1.74-.78,1.74-1.74v-.63c0-.47-.18-.91-.52-1.24Z"/>
</svg>