<svg width="108" height="77" viewBox="0 0 108 77" fill="none" xmlns="http://www.w3.org/2000/svg">
<g id="#63_user_interface">
<path id="Vector" d="M97.7855 0.32814H30.5811V65.6118H97.7855V0.32814Z" fill="white"/>
<path id="Vector_2" d="M97.7855 0.327914V65.6152H30.5811V0.327914H97.7855ZM97.7855 0H30.5811C30.4942 0 30.4108 0.034548 30.3494 0.0960437C30.2879 0.157539 30.2534 0.240946 30.2534 0.327914V65.6152C30.2534 65.7021 30.2879 65.7856 30.3494 65.847C30.4108 65.9085 30.4942 65.9431 30.5811 65.9431H97.7855C97.8285 65.9431 97.8711 65.9346 97.9109 65.9181C97.9507 65.9016 97.9868 65.8775 98.0172 65.847C98.0476 65.8166 98.0717 65.7804 98.0882 65.7407C98.1047 65.7009 98.1132 65.6582 98.1132 65.6152V0.327914C98.1132 0.284851 98.1047 0.24221 98.0882 0.202426C98.0717 0.162642 98.0476 0.126493 98.0172 0.0960437C97.9868 0.0655941 97.9507 0.0414393 97.9109 0.0249601C97.8711 0.00848089 97.8285 0 97.7855 0Z" fill="#148532"/>
<path id="Vector_3" d="M65.3841 8.44284H50.0853C49.8686 8.44284 49.6929 8.61869 49.6929 8.83562V9.22839C49.6929 9.44532 49.8686 9.62117 50.0853 9.62117H65.3841C65.6009 9.62117 65.7766 9.44532 65.7766 9.22839V8.83562C65.7766 8.61869 65.6009 8.44284 65.3841 8.44284Z" fill="#148532"/>
<path id="Vector_4" d="M56.2169 14.0212H50.1968V20.8065H56.2169V14.0212Z" fill="#148532"/>
<path id="Vector_5" d="M88.7083 14.5254H59.9326C59.4434 14.5254 59.0469 14.9223 59.0469 15.4118V15.4154C59.0469 15.905 59.4434 16.3019 59.9326 16.3019H88.7083C89.1975 16.3019 89.594 15.905 89.594 15.4154V15.4118C89.594 14.9223 89.1975 14.5254 88.7083 14.5254Z" fill="#148532"/>
<path id="Vector_6" d="M79.6025 17.9199H59.9326C59.4434 17.9199 59.0469 18.3168 59.0469 18.8064V18.81C59.0469 19.2995 59.4434 19.6964 59.9326 19.6964H79.6025C80.0917 19.6964 80.4882 19.2995 80.4882 18.81V18.8064C80.4882 18.3168 80.0917 17.9199 79.6025 17.9199Z" fill="#148532"/>
<path id="Vector_7" d="M56.2169 42.2791H50.1968V49.0644H56.2169V42.2791Z" fill="#148532"/>
<path id="Vector_8" d="M88.7083 42.7874H59.9326C59.4434 42.7874 59.0469 43.1842 59.0469 43.6738V43.6774C59.0469 44.167 59.4434 44.5639 59.9326 44.5639H88.7083C89.1975 44.5639 89.594 44.167 89.594 43.6774V43.6738C89.594 43.1842 89.1975 42.7874 88.7083 42.7874Z" fill="#148532"/>
<path id="Vector_9" d="M79.6025 46.1783H59.9326C59.4434 46.1783 59.0469 46.5751 59.0469 47.0647V47.0683C59.0469 47.5579 59.4434 47.9547 59.9326 47.9547H79.6025C80.0917 47.9547 80.4882 47.5579 80.4882 47.0683V47.0647C80.4882 46.5751 80.0917 46.1783 79.6025 46.1783Z" fill="#148532"/>
<path id="Vector_10" d="M56.2169 52.8049H50.1968V59.5902H56.2169V52.8049Z" fill="#148532"/>
<path id="Vector_11" d="M88.7083 53.313H59.9326C59.4434 53.313 59.0469 53.7099 59.0469 54.1994V54.203C59.0469 54.6926 59.4434 55.0895 59.9326 55.0895H88.7083C89.1975 55.0895 89.594 54.6926 89.594 54.203V54.1994C89.594 53.7099 89.1975 53.313 88.7083 53.313Z" fill="#148532"/>
<path id="Vector_12" d="M79.6025 56.7041H59.9326C59.4434 56.7041 59.0469 57.101 59.0469 57.5905V57.5941C59.0469 58.0837 59.4434 58.4806 59.9326 58.4806H79.6025C80.0917 58.4806 80.4882 58.0837 80.4882 57.5941V57.5905C80.4882 57.101 80.0917 56.7041 79.6025 56.7041Z" fill="#148532"/>
<path id="Vector_13" d="M33.2958 3.3368C33.6935 3.3368 34.0159 3.01413 34.0159 2.61611C34.0159 2.21808 33.6935 1.89542 33.2958 1.89542C32.8981 1.89542 32.5757 2.21808 32.5757 2.61611C32.5757 3.01413 32.8981 3.3368 33.2958 3.3368Z" fill="#D1D3D4"/>
<path id="Vector_14" d="M35.8163 3.3368C36.214 3.3368 36.5364 3.01413 36.5364 2.61611C36.5364 2.21808 36.214 1.89542 35.8163 1.89542C35.4186 1.89542 35.0962 2.21808 35.0962 2.61611C35.0962 3.01413 35.4186 3.3368 35.8163 3.3368Z" fill="#D1D3D4"/>
<path id="Vector_15" d="M38.3368 3.3368C38.7345 3.3368 39.0569 3.01413 39.0569 2.61611C39.0569 2.21808 38.7345 1.89542 38.3368 1.89542C37.9391 1.89542 37.6167 2.21808 37.6167 2.61611C37.6167 3.01413 37.9391 3.3368 38.3368 3.3368Z" fill="#D1D3D4"/>
<path id="Vector_16" d="M45.0554 4.90794H44.6953V65.6152H45.0554V4.90794Z" fill="#D1D3D4"/>
<path id="Vector_17" d="M97.7855 4.72765H30.5811V5.08799H97.7855V4.72765Z" fill="#D1D3D4"/>
<path id="Vector_18" d="M107.212 73.1932H5.91733C5.86959 73.1932 5.8238 73.1742 5.79003 73.1404C5.75627 73.1066 5.7373 73.0608 5.7373 73.013C5.7373 72.9652 5.75627 72.9194 5.79003 72.8856C5.8238 72.8518 5.86959 72.8328 5.91733 72.8328H107.212C107.26 72.8328 107.305 72.8518 107.339 72.8856C107.373 72.9194 107.392 72.9652 107.392 73.013C107.391 73.0605 107.372 73.1058 107.338 73.1394C107.305 73.173 107.259 73.1922 107.212 73.1932Z" fill="#D1D3D4"/>
<path id="Vector_19" d="M96.2085 54.2607C96.2556 53.595 96.1146 52.9294 95.8016 52.3401C95.4922 51.9496 95.2038 51.5431 94.9375 51.1221C94.5774 50.3402 94.8294 49.4249 94.743 48.5673C94.6692 47.8484 94.353 47.1761 93.8465 46.661C93.3964 46.207 92.8203 45.8971 92.4063 45.425C91.6861 44.6467 91.5025 43.5585 91.1065 42.5891C90.5387 41.2228 89.5579 40.0686 88.3016 39.2884C89.0649 40.827 87.3223 42.7837 88.1108 44.3116C88.3628 44.798 88.8309 45.1512 89.0253 45.6629C89.4682 46.9025 87.992 48.2465 88.4637 49.4717C88.6977 50.0879 89.3566 50.441 89.6626 51.0248C90.0731 51.8104 89.749 52.7617 89.7851 53.6481C89.8283 54.8697 90.5736 55.9615 91.4557 56.8083C92.0066 57.3344 92.6187 57.7921 93.2128 58.2677C93.9329 58.8371 94.2209 59.4353 94.8474 58.52C95.7035 57.262 96.1763 55.7824 96.2085 54.2607Z" fill="#148532"/>
<path id="Vector_20" d="M97.0004 54.9598C96.7735 54.0157 96.6115 52.9887 97.0004 52.0986C97.436 51.0897 98.5234 50.3762 98.6494 49.2843C98.7323 48.5636 98.3686 47.8429 98.5126 47.1223C98.6566 46.4016 99.2327 45.9367 99.708 45.4142C100.801 44.2107 101.451 42.6701 101.551 41.0468C102.286 41.9168 102.879 42.8969 103.309 43.9512C103.669 45.0323 103.69 46.2899 103.053 47.2304C102.87 47.4479 102.72 47.6906 102.606 47.9511C102.394 48.6465 102.988 49.2951 103.294 49.9546C103.485 50.3351 103.567 50.7611 103.531 51.1853C103.494 51.6095 103.341 52.0154 103.089 52.3581C102.466 53.1364 101.26 53.4391 100.954 54.3904C100.878 54.7456 100.841 55.1082 100.846 55.4714C100.781 56.099 100.53 56.6928 100.125 57.1764C99.7202 57.66 99.1799 58.0112 98.5738 58.1848C97.8357 58.3614 97.8537 58.0695 97.7169 57.4641C97.5225 56.6029 97.202 55.7958 97.0004 54.9598Z" fill="#148532"/>
<path id="Vector_21" d="M94.6498 48.16C94.1278 46.3583 93.9297 44.4448 93.3644 42.6395C92.8926 41.2267 92.3186 39.8501 91.647 38.5208L93.8973 39.4721C94.6174 39.7748 95.3988 40.1351 95.7408 40.8414C96.3349 42.0702 95.2691 43.6449 95.892 44.8592C96.1617 45.2533 96.4589 45.6278 96.7814 45.9799C97.4439 46.9132 97.3431 48.1924 96.9794 49.2771C96.8246 49.7419 96.1405 52.1598 95.5392 51.486C95.2943 51.2157 95.2727 50.2176 95.1791 49.85C95.0063 49.2843 94.8083 48.7257 94.6498 48.16Z" fill="#148532"/>
<path id="Vector_22" d="M95.8882 72.2924C95.4382 69.3231 94.0339 58.8587 94.0195 58.7542L94.3796 58.7038C94.3796 58.8083 95.7982 69.2727 96.2483 72.2383L95.8882 72.2924Z" fill="#148532"/>
<path id="Vector_23" d="M96.3957 75.0958H96.0356C96.0608 71.5716 97.5263 58.1055 98.3724 57.1794L98.6389 57.4245C98.0772 58.037 96.4281 70.2671 96.3957 75.0958Z" fill="#148532"/>
<path id="Vector_24" d="M97.159 74.4257L96.7989 74.4077C97.1338 66.808 95.5244 50.8411 95.5063 50.6826L95.8664 50.6465C95.888 50.8051 97.4939 66.7972 97.159 74.4257Z" fill="#148532"/>
<path id="Vector_25" d="M92.0249 63.7845H100.403L99.8165 73.312C99.7157 74.9588 98.4951 76.238 97.0261 76.238H95.4022C93.9332 76.238 92.7126 74.9588 92.6118 73.312L92.0249 63.7845Z" fill="white"/>
<path id="Vector_26" d="M97.0258 76.4257H95.4019C93.8393 76.4257 92.5215 75.06 92.4243 73.3231L91.8374 63.7956C91.8355 63.7705 91.8391 63.7453 91.8478 63.7217C91.8565 63.6981 91.8701 63.6766 91.8878 63.6587C91.9056 63.6404 91.9269 63.6259 91.9504 63.616C91.9739 63.6061 91.9991 63.601 92.0246 63.601H100.403C100.429 63.601 100.454 63.6061 100.477 63.616C100.501 63.6259 100.522 63.6404 100.54 63.6587C100.558 63.6766 100.571 63.6981 100.58 63.7217C100.589 63.7453 100.592 63.7705 100.59 63.7956L100.003 73.3231C99.8954 75.06 98.5884 76.4257 97.0258 76.4257ZM92.2226 63.9722L92.7951 73.3015C92.8887 74.8438 94.0373 76.0509 95.4019 76.0509H97.0258C98.3904 76.0509 99.5462 74.8438 99.6326 73.3015L100.209 63.9722H92.2226Z" fill="#148532"/>
<path id="Vector_27" d="M26.0372 70.2672C25.9868 70.5843 26.3036 74.285 26.3036 74.285C26.3036 74.285 30.8259 75.0633 30.8511 74.7643C30.8763 74.4652 32.2193 73.0851 32.2193 73.0851L30.3975 72.2346L30.2354 67.7664L26.0372 70.2672Z" fill="white"/>
<path id="Vector_28" d="M30.4877 74.9876C29.0751 74.8925 27.6695 74.712 26.2786 74.4471C26.2425 74.4401 26.2096 74.4216 26.1849 74.3943C26.1602 74.367 26.1451 74.3324 26.1418 74.2957C26.1094 73.9354 25.8214 70.5697 25.8754 70.2418C25.8787 70.2182 25.8873 70.1957 25.9003 70.1757C25.9134 70.1558 25.9307 70.139 25.951 70.1265L30.1528 67.6257C30.1775 67.6115 30.2054 67.604 30.2339 67.604C30.2623 67.604 30.2902 67.6115 30.3149 67.6257C30.3396 67.6403 30.3604 67.6608 30.3755 67.6853C30.3905 67.7098 30.3994 67.7376 30.4013 67.7663L30.5561 72.13L32.2916 72.9408C32.3154 72.9514 32.3361 72.9679 32.3518 72.9887C32.3676 73.0095 32.3778 73.0339 32.3816 73.0597C32.3863 73.0855 32.3848 73.1119 32.3773 73.137C32.3698 73.162 32.3564 73.185 32.3384 73.2039C31.7299 73.8309 31.0494 74.6128 31.0134 74.7858C31.0105 74.8129 31.0019 74.8391 30.9883 74.8627C30.9747 74.8863 30.9562 74.9067 30.9342 74.9227C30.7933 74.9822 30.6396 75.0046 30.4877 74.9876ZM26.4587 74.1444C28.3166 74.4579 30.3329 74.7245 30.7109 74.6597C31.057 74.1027 31.4706 73.5907 31.9423 73.1354L30.3257 72.3823C30.2984 72.3691 30.2752 72.3487 30.2587 72.3233C30.2422 72.2979 30.233 72.2684 30.2321 72.2381L30.0808 68.0509L26.1958 70.3752C26.1886 70.8076 26.3434 72.8111 26.4587 74.1444Z" fill="#148532"/>
<path id="Vector_29" d="M12.3337 70.5879L11.6748 75.1571H14.6705L16.4239 70.2672L12.3337 70.5879Z" fill="white"/>
<path id="Vector_30" d="M14.67 75.3229H11.6744C11.6505 75.3225 11.627 75.3172 11.6053 75.3072C11.5836 75.2973 11.5642 75.283 11.5484 75.2652C11.5338 75.2472 11.5231 75.2264 11.5169 75.2041C11.5107 75.1818 11.5092 75.1584 11.5123 75.1355L12.1712 70.5627C12.1767 70.5262 12.1942 70.4925 12.2209 70.4671C12.2477 70.4416 12.2821 70.4258 12.3189 70.4222L16.4091 70.1015C16.4366 70.0994 16.4642 70.1043 16.4893 70.1156C16.5145 70.127 16.5364 70.1444 16.5531 70.1663C16.5701 70.1879 16.5813 70.2135 16.5857 70.2406C16.5901 70.2677 16.5876 70.2954 16.5783 70.3213L14.8249 75.2148C14.8131 75.2464 14.792 75.2737 14.7643 75.2931C14.7367 75.3124 14.7038 75.3228 14.67 75.3229ZM11.8652 74.995H14.5548L16.1823 70.451L12.4773 70.7393L11.8652 74.995Z" fill="#148532"/>
<path id="Vector_31" d="M22.3467 8.59065C22.2452 8.57767 22.143 8.57165 22.0407 8.57263C21.5575 8.67759 21.0868 8.8334 20.6365 9.03747C19.9163 8.53299 18.919 8.62668 18.0873 8.92577C16.0205 9.64646 14.8864 11.4482 13.8674 13.2823C13.4101 14.1075 12.744 14.9832 12.4056 15.848C11.8907 17.1524 11.8331 18.2731 10.9221 19.4514C10.0616 20.5721 8.99945 21.5198 8.07411 22.59C6.82111 24.0314 5.80575 25.7719 5.55371 27.6745C5.00643 31.7464 8.89143 35.7498 12.8412 35.4507C16.7911 35.1517 21.0685 34.1319 23.4809 30.9789C26.1453 27.5015 26.4082 22.1973 26.0013 18.0065C25.7781 15.812 25.8357 13.4697 24.8959 11.4266C24.5366 10.5611 24.0513 9.75355 23.4557 9.03027C23.1467 8.76186 22.7556 8.60681 22.3467 8.59065Z" fill="white"/>
<path id="Vector_32" d="M12.4415 35.6415C11.4881 35.6103 10.5507 35.3879 9.68485 34.9875C8.81896 34.587 8.04224 34.0166 7.40072 33.3101C6.67021 32.5764 6.11266 31.6887 5.7688 30.7118C5.42494 29.7348 5.30346 28.6934 5.41322 27.6635C5.64725 25.9302 6.49338 24.1898 7.97681 22.4925C8.33687 22.0529 8.76534 21.6277 9.1614 21.2133C9.74706 20.6268 10.3 20.0085 10.8177 19.3611C11.3101 18.6638 11.6612 17.8766 11.851 17.0441C11.9698 16.6477 12.0887 16.2369 12.2579 15.8081C12.5177 15.2128 12.831 14.6423 13.194 14.1037C13.3885 13.7974 13.5541 13.5091 13.7305 13.2209C14.7495 11.3939 15.916 9.54895 18.0512 8.78862C18.6489 8.57241 19.7722 8.30576 20.6652 8.86429C21.1096 8.66952 21.5697 8.51281 22.0406 8.39584C22.1378 8.39584 22.253 8.39584 22.3647 8.39584C22.807 8.43198 23.2254 8.61164 23.5564 8.90753C24.1761 9.63751 24.6745 10.4624 25.0327 11.3507C25.778 12.965 25.9076 14.7631 26.0336 16.5036C26.0696 17.0009 26.1056 17.4945 26.156 17.9846C26.4837 21.2025 26.5917 27.1842 23.6357 31.0615C21.6013 33.7209 18.08 35.2019 12.8772 35.5983C12.7151 35.6343 12.5819 35.6415 12.4415 35.6415ZM19.3978 8.84267C18.9721 8.85104 18.5509 8.93145 18.152 9.0805C16.1357 9.80119 15.0051 11.6029 14.0186 13.365C13.8529 13.6605 13.6585 13.9668 13.4749 14.2623C13.1235 14.7834 12.8187 15.3344 12.5639 15.909C12.3983 16.327 12.2831 16.727 12.1679 17.1162C11.9657 17.999 11.5886 18.8322 11.0589 19.5665C10.5368 20.2269 9.97657 20.8562 9.38103 21.4511C8.98857 21.8583 8.58171 22.2799 8.20725 22.7159C6.76703 24.3627 5.9461 26.0455 5.72286 27.7139C5.61879 28.6953 5.73552 29.6875 6.06448 30.6178C6.39344 31.5481 6.92629 32.3929 7.62396 33.0903C9.06418 34.6145 11.0157 35.4433 12.8376 35.3028C17.9432 34.9172 21.3853 33.4758 23.3584 30.8994C26.2605 27.1085 26.1488 21.2241 25.8284 18.0531C25.778 17.563 25.742 17.0621 25.706 16.5649C25.58 14.8532 25.4539 13.0839 24.7338 11.52C24.3889 10.6679 23.9126 9.87513 23.3224 9.17059C23.0446 8.92855 22.696 8.78315 22.3286 8.75619C22.2278 8.75619 22.127 8.75619 22.0406 8.75619C21.6068 8.86509 21.1809 9.00354 20.766 9.17059C20.7391 9.20017 20.7024 9.21902 20.6627 9.22366C20.623 9.22829 20.583 9.2184 20.55 9.19581C20.2117 8.96161 19.8091 8.83822 19.3978 8.84267Z" fill="#148532"/>
<path id="Vector_33" d="M28.2193 36.6003L25.1696 20.5865L16.395 21.2856L16.4238 35.0147L28.2193 36.6003Z" fill="white"/>
<path id="Vector_34" d="M28.2194 36.7624H28.1978L16.4023 35.1769C16.3625 35.1724 16.3258 35.1534 16.2992 35.1235C16.2726 35.0935 16.258 35.0548 16.2583 35.0147L16.2295 21.2856C16.2302 21.2447 16.2461 21.2054 16.274 21.1755C16.3019 21.1455 16.3399 21.127 16.3807 21.1235L25.1553 20.4244C25.1959 20.421 25.2364 20.4327 25.269 20.4573C25.3015 20.4819 25.3239 20.5176 25.3317 20.5577L28.3778 36.5678C28.3829 36.5933 28.382 36.6196 28.3751 36.6446C28.3683 36.6696 28.3556 36.6927 28.3382 36.712C28.3068 36.7438 28.2641 36.762 28.2194 36.7624ZM16.5895 34.8706L28.0141 36.4057L25.0365 20.7631L16.5571 21.4406L16.5895 34.8706Z" fill="#148532"/>
<path id="Vector_35" d="M16.4239 35.0145C16.4239 35.0145 12.7406 61.035 11.6748 70.8184L16.3951 71.5607C16.3951 71.5607 19.614 57.9613 22.6601 49.158L25.5874 71.5607L30.8514 70.8796L29.2203 35.0145H16.4239Z" fill="#148532"/>
<path id="Vector_36" d="M9.01367 28.7842L14.3713 30.3409L13.5828 43.7097L19.7037 43.5295L18.4759 22.107L23.4663 21.9088C23.4663 22.0998 25.0542 39.5405 25.569 43.6988L31.5352 41.8755L29.0904 29.5337L32.4389 27.8184C32.4389 27.8184 30.3578 19.5666 23.4591 19.9665C17.0897 20.3269 19.3149 20.3269 19.4409 20.3269C19.3149 20.3269 14.4001 20.3485 12.1354 23.379C10.8623 25.0358 9.81273 26.8532 9.01367 28.7842Z" fill="#148532"/>
<path id="Vector_37" d="M22.7461 19.0765L23.3186 22.1791C23.3186 22.1791 23.351 23.9808 21.3563 23.8331C20.7659 23.7832 20.1941 23.6024 19.6822 23.3038C19.1702 23.0053 18.7311 22.5965 18.3967 22.107C18.183 20.8266 17.9718 19.5462 17.763 18.2658C17.5289 16.846 17.1401 15.3542 17.0645 13.9164C18.5623 14.3957 20.4094 12.5038 20.881 11.2751C20.999 11.6556 21.0168 12.0601 20.9329 12.4496C20.8491 12.839 20.6663 13.2003 20.4022 13.4984C20.8196 13.3505 21.197 13.1075 21.5044 12.7886C21.8119 12.4696 22.041 12.0835 22.1736 11.6606C22.6147 12.0005 23.0287 12.374 23.4122 12.7777C23.7406 13.2457 23.9934 13.7625 24.1612 14.3092C24.4528 15.2677 24.7012 16.7055 24.2152 17.6352C23.5851 18.8459 22.7461 19.0765 22.7461 19.0765Z" fill="white"/>
<path id="Vector_38" d="M21.5869 24.0062H21.3421C20.7257 23.9564 20.1284 23.7687 19.5943 23.4568C19.0602 23.145 18.603 22.717 18.2564 22.2044C18.2455 22.1855 18.2382 22.1648 18.2348 22.1432L17.6011 18.2947C17.5255 17.8443 17.4391 17.3902 17.3491 16.9326C17.1297 15.9414 16.9805 14.9359 16.9026 13.9237C16.9011 13.8973 16.9063 13.8709 16.9176 13.847C16.9289 13.8231 16.946 13.8024 16.9674 13.7868C16.988 13.7707 17.0121 13.7597 17.0378 13.7546C17.0634 13.7496 17.0899 13.7508 17.115 13.758C18.4976 14.2048 20.2835 12.3742 20.7156 11.2139C20.7275 11.1825 20.7487 11.1555 20.7764 11.1364C20.804 11.1173 20.8368 11.1071 20.8704 11.1071C20.904 11.1071 20.9368 11.1173 20.9645 11.1364C20.9921 11.1555 21.0133 11.1825 21.0252 11.2139C21.2196 11.8309 21.1654 12.4995 20.874 13.0769C21.4133 12.735 21.8139 12.2128 22.0046 11.6031C22.0139 11.573 22.0312 11.5461 22.0547 11.5251C22.0781 11.5041 22.1069 11.49 22.1378 11.4842C22.3502 11.4482 23.524 12.6589 23.5348 12.6697C23.8745 13.1524 24.1347 13.6865 24.3053 14.2516C24.5106 14.9219 24.9246 16.5975 24.3522 17.7001C24.055 18.3412 23.5464 18.8603 22.9119 19.1703C23.0235 19.7721 23.4592 22.1396 23.4592 22.1396C23.4637 22.6559 23.2644 23.1532 22.9047 23.5233C22.5444 23.8488 22.0721 24.0219 21.5869 24.0062ZM18.5552 22.0459C18.877 22.5055 19.2955 22.8889 19.7814 23.1691C20.2673 23.4493 20.8086 23.6194 21.3673 23.6674C21.6016 23.7058 21.8414 23.6934 22.0706 23.6313C22.2997 23.5691 22.513 23.4586 22.6959 23.3071C22.9836 23.0072 23.147 22.6093 23.1532 22.1936C23.1532 22.1936 22.5915 19.1487 22.5843 19.1199C22.5764 19.0789 22.5843 19.0365 22.6064 19.0011C22.6284 18.9657 22.6629 18.94 22.7031 18.9289C22.7031 18.9289 23.488 18.6911 24.0713 17.5704C24.5862 16.5759 24.1937 15.0012 24.0029 14.3706C23.8438 13.8403 23.6006 13.3391 23.2828 12.8859C23.2108 12.7922 22.5627 12.1869 22.2602 11.931C22.101 12.3317 21.858 12.6937 21.5475 12.9926C21.237 13.2916 20.8662 13.5206 20.4599 13.6643C20.4256 13.6773 20.3877 13.678 20.3529 13.6661C20.3181 13.6543 20.2885 13.6307 20.2691 13.5994C20.2463 13.5707 20.2339 13.5352 20.2339 13.4985C20.2339 13.4619 20.2463 13.4263 20.2691 13.3976C20.4627 13.1808 20.6101 12.9268 20.7023 12.6511C20.7945 12.3754 20.8297 12.0838 20.8056 11.7941C20.1467 12.9472 18.6129 14.3814 17.2338 14.1399C17.3211 15.0604 17.463 15.9749 17.6587 16.8786C17.7487 17.3398 17.8387 17.801 17.9143 18.2515L18.5552 22.0459Z" fill="#148532"/>
<path id="Vector_39" d="M17.8894 16.0498C17.7967 15.8289 17.6333 15.6452 17.4249 15.5273C17.2266 15.4247 17.0123 15.3565 16.7912 15.3255C16.6726 15.2991 16.5497 15.2991 16.4311 15.3255C16.3485 15.3509 16.2723 15.3939 16.2079 15.4516C16.0413 15.5697 15.9225 15.7435 15.873 15.9417C15.8509 16.1038 15.8708 16.2688 15.9307 16.421C15.9778 16.593 16.048 16.7579 16.1395 16.911C16.2352 17.0609 16.3597 17.1902 16.5056 17.2917C16.6516 17.3932 16.8161 17.4647 16.9899 17.5023C17.1636 17.5398 17.343 17.5425 17.5178 17.5103C17.6925 17.4781 17.8592 17.4116 18.0082 17.3146" fill="white"/>
<path id="Vector_40" d="M17.2665 17.6712C17.0171 17.6714 16.7717 17.6084 16.5532 17.4881C16.3347 17.3677 16.1503 17.1939 16.0171 16.9829C15.9175 16.8197 15.84 16.644 15.7866 16.4604C15.725 16.2836 15.7052 16.0949 15.729 15.9091C15.7828 15.6773 15.9199 15.4733 16.1143 15.3362C16.194 15.2672 16.2872 15.2156 16.3879 15.1848C16.5277 15.1524 16.673 15.1524 16.8128 15.1848C17.0513 15.2182 17.2825 15.2913 17.4969 15.401C17.7321 15.5351 17.9168 15.7427 18.0226 15.992C18.0302 16.0092 18.0344 16.0278 18.0347 16.0467C18.035 16.0655 18.0315 16.0842 18.0245 16.1017C18.0174 16.1192 18.0069 16.1351 17.9936 16.1484C17.9803 16.1618 17.9644 16.1723 17.947 16.1794C17.93 16.1871 17.9116 16.1914 17.8929 16.192C17.8743 16.1926 17.8557 16.1894 17.8382 16.1827C17.8208 16.176 17.8049 16.1659 17.7914 16.1529C17.7779 16.14 17.7672 16.1245 17.7597 16.1073C17.6762 15.9153 17.5337 15.755 17.3529 15.6497C17.169 15.5564 16.9705 15.4955 16.766 15.4695C16.6677 15.4465 16.5654 15.4465 16.4671 15.4695C16.4021 15.4908 16.3421 15.5251 16.2907 15.5704C16.1547 15.6651 16.0556 15.8038 16.0099 15.9632C15.9942 16.1036 16.0127 16.2458 16.0639 16.3776C16.1068 16.5362 16.1723 16.6879 16.2583 16.828C16.3463 16.9635 16.4604 17.0802 16.594 17.1711C16.7275 17.262 16.8778 17.3255 17.036 17.3577C17.3489 17.4239 17.6753 17.363 17.9434 17.1883C17.976 17.1678 18.0153 17.1608 18.053 17.1689C18.0907 17.177 18.1237 17.1995 18.145 17.2316C18.1653 17.2636 18.1722 17.3025 18.1641 17.3396C18.156 17.3767 18.1336 17.4091 18.1018 17.4298C17.8533 17.5911 17.5626 17.6752 17.2665 17.6712Z" fill="#148532"/>
<path id="Vector_41" d="M22.9194 20.3092C22.9194 20.3092 21.7132 20.9146 20.7339 20.2372C20.4603 20.0681 20.2266 19.8417 20.0488 19.5736C19.871 19.3055 19.7534 19.002 19.7041 18.6841C19.7041 18.6841 21.5332 19.5994 22.7502 19.1417L22.9194 20.3092Z" fill="#148532"/>
<path id="Vector_42" d="M21.8136 20.7198C21.3958 20.7233 20.9871 20.5974 20.6434 20.3595C20.3526 20.1764 20.1052 19.9319 19.9186 19.6431C19.732 19.3543 19.6107 19.0281 19.5633 18.6875C19.5616 18.6598 19.5674 18.6321 19.58 18.6074C19.5927 18.5826 19.6118 18.5618 19.6353 18.547C19.6592 18.5327 19.6866 18.5251 19.7145 18.5251C19.7424 18.5251 19.7698 18.5327 19.7937 18.547C19.7937 18.547 21.5724 19.4226 22.7102 18.9938C22.7317 18.984 22.755 18.979 22.7786 18.979C22.8022 18.979 22.8255 18.984 22.847 18.9938C22.868 19.0049 22.8862 19.0208 22.8999 19.0402C22.9137 19.0596 22.9227 19.082 22.9262 19.1055L23.0918 20.2766C23.0971 20.3094 23.092 20.3431 23.0771 20.3729C23.0623 20.4026 23.0384 20.4269 23.009 20.4424C22.6351 20.6197 22.2274 20.7144 21.8136 20.7198ZM19.9161 18.9578C20.0814 19.4288 20.398 19.8317 20.8163 20.1037C21.5364 20.6117 22.4365 20.3307 22.7354 20.2118L22.6129 19.3469C21.6624 19.6028 20.467 19.1848 19.9161 18.9578Z" fill="#148532"/>
<path id="Vector_43" d="M22.3071 14.1182C22.3071 14.1182 23.6069 15.4118 23.4233 15.7181C23.2397 16.0244 22.5376 15.9884 22.5376 15.9884" fill="white"/>
<path id="Vector_44" d="M22.6205 16.1506H22.5269C22.5063 16.1497 22.486 16.1446 22.4673 16.1357C22.4486 16.1269 22.4319 16.1143 22.4182 16.0989C22.4044 16.0834 22.3939 16.0654 22.3872 16.0458C22.3805 16.0262 22.3778 16.0055 22.3793 15.9848C22.3792 15.9637 22.3835 15.9427 22.392 15.9234C22.4005 15.904 22.413 15.8866 22.4286 15.8724C22.4442 15.8581 22.4626 15.8473 22.4826 15.8406C22.5027 15.8339 22.5239 15.8315 22.5449 15.8335C22.743 15.8335 23.1822 15.8119 23.2866 15.6425C23.2866 15.4948 22.797 14.8353 22.2065 14.2371C22.1768 14.2068 22.1602 14.1661 22.1602 14.1236C22.1602 14.0812 22.1768 14.0404 22.2065 14.0101C22.2362 13.9806 22.2763 13.9641 22.3181 13.9641C22.3599 13.9641 22.4 13.9806 22.4297 14.0101C23.0634 14.6407 23.7763 15.4515 23.5675 15.8119C23.3587 16.1722 22.8402 16.1506 22.6205 16.1506Z" fill="#148532"/>
<path id="Vector_45" d="M20.7995 14.8657C20.927 14.81 20.9666 14.6184 20.8878 14.4378C20.809 14.2573 20.6417 14.1561 20.5142 14.2119C20.3866 14.2676 20.3471 14.4592 20.4259 14.6397C20.5046 14.8203 20.6719 14.9215 20.7995 14.8657Z" fill="#148532"/>
<path id="Vector_46" d="M23.5519 14.371C23.6795 14.3153 23.719 14.1237 23.6402 13.9431C23.5615 13.7626 23.3942 13.6614 23.2666 13.7171C23.1391 13.7729 23.0995 13.9645 23.1783 14.145C23.2571 14.3256 23.4244 14.4268 23.5519 14.371Z" fill="#148532"/>
<path id="Vector_47" d="M23.8951 16.4966C23.8951 16.4966 23.2614 18.0065 21.4287 17.0444L23.8951 16.4966Z" fill="white"/>
<path id="Vector_48" d="M22.5553 17.5236C22.134 17.5101 21.7225 17.3938 21.3563 17.1849C21.3379 17.1752 21.3215 17.1619 21.3082 17.1459C21.2949 17.1299 21.2848 17.1114 21.2786 17.0915C21.2725 17.0716 21.2702 17.0506 21.2721 17.0299C21.274 17.0091 21.28 16.9889 21.2897 16.9705C21.2994 16.952 21.3126 16.9357 21.3286 16.9223C21.3446 16.909 21.3631 16.8989 21.383 16.8927C21.4029 16.8865 21.4238 16.8843 21.4446 16.8862C21.4653 16.8881 21.4855 16.8941 21.5039 16.9038C21.7227 17.0438 21.9685 17.1364 22.2252 17.1755C22.482 17.2146 22.7441 17.1994 22.9946 17.1308C23.3236 17.0015 23.5921 16.7533 23.7471 16.4354C23.7543 16.415 23.7655 16.3963 23.7802 16.3804C23.7948 16.3645 23.8126 16.3518 23.8323 16.3431C23.852 16.3343 23.8733 16.3297 23.8949 16.3294C23.9165 16.3292 23.9379 16.3334 23.9578 16.3418C23.9778 16.3502 23.9957 16.3625 24.0107 16.3781C24.0257 16.3937 24.0373 16.4121 24.0449 16.4324C24.0525 16.4526 24.0558 16.4742 24.0548 16.4958C24.0537 16.5173 24.0482 16.5385 24.0387 16.5579C23.8532 16.959 23.5186 17.2719 23.1062 17.4299C22.9297 17.4942 22.7431 17.5259 22.5553 17.5236Z" fill="#148532"/>
<path id="Vector_49" d="M28.5864 29.6024C28.5864 29.6024 32.6263 40.874 35.4275 39.5515C36.6409 38.9785 42.3838 30.0456 42.5782 29.8618C42.9707 29.4799 43.5432 29.5267 43.9104 29.1411C44.096 28.9251 44.2478 28.6821 44.3605 28.4204C44.5585 28.0349 44.7421 27.5196 44.4469 27.2025C44.3857 27.1412 44.3065 27.08 44.3101 26.9935C44.3137 26.907 44.3929 26.8602 44.4649 26.8169L44.951 26.5358C45.0626 26.471 45.1922 26.3629 45.1598 26.2404C45.1274 26.1178 44.9294 26.0926 44.7997 26.1214C43.4243 26.4025 41.8113 27.2998 40.6267 28.006C40.6969 27.6382 40.7438 27.2663 40.7671 26.8926C40.7671 26.6007 40.7167 26.2223 40.4287 26.1719C40.1406 26.1214 39.9498 26.4277 39.8418 26.6908C39.2837 28.0241 38.938 29.0691 38.0631 30.2294C37.1882 31.3897 36.2628 32.6004 35.3627 33.7824C34.8946 33.7067 32.4498 27.797 32.4498 27.797" fill="white"/>
<path id="Vector_50" d="M34.9451 39.8252C34.7431 39.8222 34.5437 39.7793 34.3582 39.6991C31.6542 38.5784 28.5577 30.0166 28.4317 29.6563C28.4177 29.6147 28.4204 29.5693 28.4392 29.5296C28.458 29.4899 28.4915 29.4591 28.5325 29.4437C28.5736 29.4298 28.6185 29.4326 28.6575 29.4515C28.6966 29.4703 28.7267 29.5038 28.7414 29.5446C28.7738 29.6311 31.9135 38.3262 34.5023 39.3928C34.6382 39.456 34.7862 39.4887 34.9361 39.4887C35.086 39.4887 35.2341 39.456 35.37 39.3928C36.2701 38.9676 40.0039 33.3895 41.599 31.0112C42.2615 30.0166 42.4235 29.7788 42.4739 29.732C42.6825 29.5501 42.9282 29.416 43.194 29.3392C43.4182 29.2817 43.6255 29.1718 43.7989 29.0185C43.9705 28.8202 44.1124 28.5981 44.2202 28.3591C44.4722 27.8654 44.5082 27.5158 44.3282 27.3285L44.303 27.2996C44.2544 27.2608 44.2167 27.21 44.1936 27.1522C44.1704 27.0944 44.1627 27.0316 44.171 26.9699C44.1793 26.9082 44.2035 26.8497 44.2412 26.8001C44.2788 26.7506 44.3286 26.7116 44.3858 26.6871L44.8719 26.4024C44.9727 26.3447 45.0015 26.3015 45.0051 26.2907C44.9458 26.2772 44.8843 26.2772 44.8251 26.2907C43.4893 26.5609 41.9194 27.4294 40.7024 28.1537C40.6763 28.1712 40.6456 28.1805 40.6142 28.1805C40.5828 28.1805 40.5521 28.1712 40.526 28.1537C40.5002 28.1361 40.48 28.1114 40.4679 28.0827C40.4558 28.0539 40.4522 28.0222 40.4576 27.9915C40.5256 27.6342 40.5724 27.2733 40.598 26.9105C40.598 26.7231 40.5728 26.3916 40.3892 26.3591C40.2055 26.3267 40.0291 26.6726 39.9859 26.7807C39.8923 26.9969 39.8095 27.2059 39.7267 27.4113C39.3537 28.4584 38.8362 29.4482 38.1892 30.3518C37.2915 31.5529 36.3902 32.7384 35.4852 33.9084C35.4668 33.9319 35.4423 33.9501 35.4144 33.9609C35.3865 33.9716 35.3563 33.9747 35.3268 33.9696C34.8443 33.8903 33.2169 30.1247 32.2915 27.887C32.2827 27.8669 32.2781 27.8453 32.2779 27.8234C32.2778 27.8016 32.282 27.7799 32.2904 27.7597C32.2988 27.7395 32.3112 27.7212 32.3269 27.7059C32.3425 27.6906 32.3611 27.6787 32.3815 27.6708C32.4013 27.6621 32.4227 27.6575 32.4443 27.6573C32.4659 27.6572 32.4873 27.6615 32.5072 27.6699C32.5271 27.6783 32.545 27.6908 32.56 27.7064C32.5749 27.7221 32.5865 27.7406 32.594 27.7609C33.6525 30.3193 34.9055 33.0543 35.3268 33.5732C36.1945 32.4382 37.0659 31.2995 37.9264 30.1536C38.5563 29.267 39.0592 28.2967 39.4206 27.2708L39.6799 26.6366C39.8707 26.1826 40.1443 25.9628 40.4504 26.0204C40.832 26.0925 40.9473 26.5285 40.9257 26.9141C40.9103 27.1772 40.8815 27.4394 40.8392 27.6996C42.0274 27.0006 43.4857 26.233 44.7603 25.9736C45.0447 25.9159 45.2643 26.0096 45.3219 26.2078C45.3507 26.3123 45.3507 26.5105 45.0375 26.6907L44.5514 26.9753C44.5234 26.989 44.4978 27.0072 44.4758 27.0294C44.4758 27.0294 44.5154 27.051 44.5334 27.069L44.5694 27.1051C44.9979 27.5591 44.6306 28.2762 44.5118 28.5104C44.3935 28.7827 44.2345 29.0355 44.0401 29.2599C43.8362 29.4498 43.589 29.5871 43.32 29.6599C43.0946 29.7196 42.8854 29.8292 42.7079 29.9806C42.6611 30.0347 42.2975 30.5752 41.8762 31.2058C39.0858 35.375 36.3817 39.2919 35.5176 39.7027C35.3384 39.786 35.1427 39.8279 34.9451 39.8252Z" fill="#148532"/>
<path id="Vector_51" d="M13.8386 39.5622C13.795 39.5594 13.7542 39.5399 13.7247 39.5076C13.6951 39.4754 13.6792 39.433 13.6802 39.3892L14.3715 24.4674C14.3767 24.4246 14.3969 24.3851 14.4286 24.3561C14.4603 24.327 14.5014 24.3102 14.5444 24.3088C14.588 24.3116 14.6288 24.3311 14.6583 24.3634C14.6879 24.3956 14.7038 24.438 14.7028 24.4818L14.0115 39.4036C14.0087 39.4473 13.9892 39.4882 13.9569 39.5177C13.9247 39.5473 13.8823 39.5632 13.8386 39.5622Z" fill="#148532"/>
<path id="Vector_52" d="M27.8087 27.5159C27.7766 27.5148 27.7455 27.5048 27.7188 27.487C27.6921 27.4692 27.6709 27.4442 27.6575 27.415L26.4153 24.5323C26.3984 24.4921 26.398 24.4469 26.4142 24.4064C26.4304 24.366 26.4618 24.3335 26.5017 24.3161C26.5215 24.3072 26.5429 24.3024 26.5646 24.302C26.5863 24.3015 26.6079 24.3055 26.628 24.3135C26.6482 24.3216 26.6665 24.3336 26.6819 24.3489C26.6973 24.3642 26.7095 24.3825 26.7178 24.4025L27.9599 27.2853C27.9688 27.3051 27.9736 27.3265 27.974 27.3483C27.9745 27.37 27.9705 27.3915 27.9625 27.4117C27.9544 27.4319 27.9424 27.4502 27.9271 27.4656C27.9118 27.4811 27.8936 27.4933 27.8735 27.5015C27.8529 27.5101 27.831 27.5149 27.8087 27.5159Z" fill="#148532"/>
<path id="Vector_53" d="M15.2141 73.1895C15.2141 73.1895 12.528 71.7013 11.3939 73.1895C10.6875 74.1897 10.26 75.3601 10.1553 76.5804C10.1553 76.5804 15.8082 77.5245 15.8514 76.5804C15.8946 75.6363 15.2141 73.1895 15.2141 73.1895Z" fill="#148532"/>
<path id="Vector_54" d="M80.8915 21.8981H43.0388C41.9352 21.8981 41.0405 22.7935 41.0405 23.898V33.285C41.0405 34.3895 41.9352 35.2849 43.0388 35.2849H80.8915C81.9952 35.2849 82.8898 34.3895 82.8898 33.285V23.898C82.8898 22.7935 81.9952 21.8981 80.8915 21.8981Z" fill="white"/>
<path id="Vector_55" d="M80.8883 35.4508H43.0392C42.4663 35.4508 41.9168 35.223 41.5117 34.8176C41.1065 34.4121 40.8789 33.8622 40.8789 33.2887V23.891C40.8789 23.3175 41.1065 22.7676 41.5117 22.3621C41.9168 21.9567 42.4663 21.7289 43.0392 21.7289H80.8883C81.4613 21.7289 82.0108 21.9567 82.4159 22.3621C82.8211 22.7676 83.0487 23.3175 83.0487 23.891V33.2599C83.0525 33.5463 82.9994 33.8305 82.8926 34.0962C82.7857 34.3618 82.6272 34.6036 82.4262 34.8074C82.2252 35.0112 81.9858 35.1731 81.7218 35.2835C81.4578 35.394 81.1745 35.4508 80.8883 35.4508ZM43.0392 22.064C42.5525 22.065 42.086 22.2589 41.7418 22.6033C41.3977 22.9478 41.2039 23.4146 41.203 23.9018V33.2707C41.2039 33.7578 41.3977 34.2247 41.7418 34.5692C42.086 34.9136 42.5525 35.1075 43.0392 35.1085H80.8883C81.375 35.1075 81.8416 34.9136 82.1857 34.5692C82.5299 34.2247 82.7237 33.7578 82.7246 33.2707V23.891C82.7237 23.4038 82.5299 22.937 82.1857 22.5925C81.8416 22.2481 81.375 22.0541 80.8883 22.0532L43.0392 22.064Z" fill="#148532"/>
<path id="Vector_56" d="M50.4528 25.1988H44.4326V31.9841H50.4528V25.1988Z" fill="#148532"/>
<path id="Vector_57" d="M74.7743 26.0096H55.1045C54.6153 26.0096 54.2188 26.4065 54.2188 26.896V26.8996C54.2188 27.3892 54.6153 27.7861 55.1045 27.7861H74.7743C75.2635 27.7861 75.6601 27.3892 75.6601 26.8996V26.896C75.6601 26.4065 75.2635 26.0096 74.7743 26.0096Z" fill="#148532"/>
<path id="Vector_58" d="M68.3834 29.4005H55.1045C54.6153 29.4005 54.2188 29.7974 54.2188 30.2869V30.2905C54.2188 30.7801 54.6153 31.177 55.1045 31.177H68.3834C68.8725 31.177 69.2691 30.7801 69.2691 30.2905V30.2869C69.2691 29.7974 68.8725 29.4005 68.3834 29.4005Z" fill="#148532"/>
<path id="Vector_59" d="M24.2398 43.1929L1.33835 49.3772C0.599201 49.5767 0.161677 50.3382 0.361116 51.078L3.12341 61.3237C3.32285 62.0635 4.08373 62.5013 4.82288 62.3017L27.7244 56.1175C28.4635 55.9179 28.901 55.1564 28.7016 54.4167L25.9393 44.1709C25.7399 43.4312 24.979 42.9933 24.2398 43.1929Z" fill="white"/>
<path id="Vector_60" d="M4.45897 62.5162C4.11869 62.5141 3.78845 62.4006 3.51865 62.193C3.24886 61.9855 3.05432 61.6953 2.96474 61.3667L0.203108 51.1221C0.0958244 50.7265 0.149169 50.3045 0.351512 49.9481C0.553855 49.5917 0.888784 49.3298 1.28328 49.2195L24.1828 43.036C24.5781 42.9286 24.9998 42.982 25.3559 43.1845C25.7121 43.387 25.9737 43.7222 26.0839 44.117L28.8456 54.3616C28.9538 54.7573 28.9009 55.1797 28.6984 55.5364C28.496 55.8931 28.1604 56.1548 27.7654 56.2643L4.86583 62.4478C4.73373 62.488 4.59697 62.5111 4.45897 62.5162ZM24.5969 43.3099C24.4898 43.3101 24.3833 43.3246 24.2801 43.3531L1.38049 49.5366C1.22558 49.5784 1.08041 49.6503 0.953297 49.7483C0.826184 49.8463 0.719617 49.9684 0.639693 50.1076C0.559768 50.2468 0.508055 50.4004 0.48751 50.5597C0.466964 50.7189 0.47799 50.8807 0.519957 51.0357L3.28159 61.2803C3.32229 61.4356 3.39357 61.5813 3.49126 61.7088C3.58895 61.8363 3.71107 61.9429 3.85048 62.0226C4.13189 62.1843 4.46574 62.2283 4.77942 62.1451L27.679 55.9616C27.8342 55.9197 27.9797 55.8475 28.107 55.7492C28.2342 55.6508 28.3409 55.5283 28.4207 55.3886C28.501 55.2499 28.5528 55.0965 28.5732 54.9375C28.5936 54.7785 28.5821 54.6171 28.5395 54.4625L25.7779 44.2143C25.7075 43.9547 25.5538 43.7255 25.3403 43.5621C25.1269 43.3986 24.8657 43.31 24.5969 43.3099Z" fill="#148532"/>
<path id="Vector_61" d="M10.0242 50.7441L4.21191 52.3136L5.9781 58.8646L11.7904 57.2951L10.0242 50.7441Z" fill="#148532"/>
<path id="Vector_62" d="M22.6635 47.6828L12.7527 50.3591C12.2938 50.483 12.0222 50.9557 12.146 51.4149L12.1601 51.4671C12.2839 51.9263 12.7563 52.1981 13.2151 52.0742L23.1259 49.3979C23.5847 49.274 23.8563 48.8013 23.7325 48.3421L23.7185 48.2899C23.5947 47.8307 23.1223 47.5589 22.6635 47.6828Z" fill="#148532"/>
<path id="Vector_63" d="M21.3021 51.5635L13.5501 53.6568C13.1392 53.7678 12.896 54.1911 13.0069 54.6022L13.0678 54.8284C13.1787 55.2396 13.6016 55.483 14.0125 55.372L21.7645 53.2787C22.1754 53.1677 22.4186 52.7445 22.3077 52.3333L22.2467 52.1071C22.1359 51.696 21.7129 51.4526 21.3021 51.5635Z" fill="#148532"/>
<path id="Vector_64" d="M9.01366 28.7843C9.01366 28.7843 5.10345 38.1533 5.50672 39.2343C5.90998 40.3154 9.94261 47.0538 9.94261 47.0538C9.94261 47.0538 11.1308 50.7329 12.733 49.8789C13.7664 49.3312 13.2227 46.1674 13.2227 46.1674L14.4037 45.8503C14.4037 45.8503 12.463 45.0467 12.2434 44.6611C12.0237 44.2756 9.939 38.5353 9.939 38.5353L13.518 30.0816" fill="white"/>
<path id="Vector_65" d="M12.2505 50.1744C12.0986 50.1723 11.9483 50.1418 11.8076 50.0843C10.6447 49.6123 9.87054 47.3673 9.79133 47.1223C9.52488 46.6791 5.7551 40.3622 5.35544 39.2956C4.95577 38.229 8.45912 29.6888 8.86238 28.7231C8.87912 28.6825 8.91127 28.6502 8.95178 28.6333C8.99228 28.6164 9.03783 28.6163 9.07842 28.633C9.11836 28.6505 9.15002 28.6827 9.16679 28.723C9.18356 28.7633 9.18415 28.8085 9.16843 28.8492C7.60579 32.5932 5.38424 38.4308 5.66149 39.1803C6.05755 40.2325 10.0434 46.9025 10.083 46.971C10.0843 46.9817 10.0843 46.9926 10.083 47.0034C10.083 47.0286 10.8535 49.3492 11.9157 49.778C12.0309 49.827 12.1558 49.8486 12.2808 49.8411C12.4057 49.8336 12.5272 49.7972 12.6358 49.7348C13.3955 49.3312 13.1831 47.043 13.039 46.1962C13.033 46.1559 13.0417 46.1147 13.0635 46.0803C13.0853 46.0459 13.1188 46.0205 13.1579 46.0088L13.878 45.8142C13.2587 45.5404 12.2541 45.0575 12.0777 44.7332C11.858 44.3404 9.84894 38.8344 9.76252 38.6073C9.74651 38.5681 9.74651 38.5241 9.76252 38.4848L13.3703 30.0167C13.3905 29.9814 13.4229 29.9548 13.4614 29.9419C13.5 29.929 13.5419 29.9307 13.5792 29.9468C13.6166 29.9628 13.6467 29.992 13.664 30.0288C13.6812 30.0656 13.6843 30.1075 13.6727 30.1465L10.119 38.5389C10.7131 40.1712 12.2217 44.2648 12.3909 44.5675C12.5097 44.7765 13.5395 45.2881 14.4649 45.6845C14.4973 45.6968 14.525 45.7192 14.5438 45.7484C14.5626 45.7776 14.5715 45.812 14.5693 45.8467C14.5662 45.8808 14.5528 45.9132 14.531 45.9396C14.5091 45.966 14.4798 45.9851 14.4468 45.9944L13.4099 46.2755C13.5143 46.971 13.8168 49.4753 12.8122 50.0123C12.641 50.1113 12.4481 50.167 12.2505 50.1744Z" fill="#148532"/>
<path id="Vector_66" d="M31.6184 71.9862L30.1961 73.8311L25.5442 72.8978L25.3462 75.3229C25.3462 75.3229 35.2333 77.3625 35.6366 76.2707C36.0399 75.1788 31.6184 71.9862 31.6184 71.9862Z" fill="#148532"/>
</g>
</svg>
