<svg width="93" height="92" viewBox="0 0 93 92" fill="none" xmlns="http://www.w3.org/2000/svg">
<g id="Asset/Picture/Cookie">
<path id="Vector" d="M79.6637 44.5485H87.5687C88.3294 42.98 88.4837 41.1612 88.5278 39.3939C88.5683 37.7923 88.5278 36.1612 88.0427 34.6369C87.4105 32.6834 86.0578 31.0453 84.2609 30.0572C82.4639 29.0691 80.3582 28.8055 78.3738 29.3203C77.8821 28.7465 77.2246 28.3399 76.4922 28.1569C75.7903 28.0059 73.7066 28.2084 73.6845 28.9264C73.6935 29.1513 73.762 29.3699 73.883 29.5596C74.5996 30.9072 75.7205 31.997 76.6025 33.2415C78.6789 36.1023 79.0316 40.6163 79.6637 44.5485Z" fill="white"/>
<path id="Vector_2" d="M87.5687 44.7326H79.6638C79.6199 44.7324 79.5775 44.7168 79.5439 44.6886C79.5104 44.6603 79.4877 44.6212 79.48 44.5779C79.3845 43.9631 79.2926 43.3335 79.197 42.7002C78.6972 39.2724 78.1791 35.7267 76.4518 33.3483C76.1394 32.9175 75.7903 32.4941 75.4559 32.0817C74.7989 31.3338 74.2178 30.5222 73.7213 29.659C73.584 29.4375 73.5079 29.1834 73.5008 28.9227C73.5061 28.8244 73.5341 28.7287 73.5826 28.6431C73.631 28.5575 73.6986 28.4843 73.7801 28.4293C74.3901 27.947 75.93 27.8476 76.5327 27.9764C77.2644 28.159 77.9256 28.5549 78.4326 29.1141C80.3137 28.6685 82.2907 28.887 84.0297 29.7327C85.0135 30.2225 85.8902 30.9034 86.6088 31.7359C87.3274 32.5684 87.8736 33.5357 88.2155 34.5817C88.719 36.1318 88.752 37.8144 88.7116 39.4012C88.6675 41.1575 88.5168 43.0058 87.7341 44.6184C87.7205 44.6515 87.6977 44.6799 87.6683 44.7002C87.6389 44.7204 87.6043 44.7317 87.5687 44.7326ZM79.8181 44.3644H87.4548C88.164 42.8401 88.3 41.0802 88.3441 39.4012C88.3919 37.6045 88.3441 36.1207 87.8664 34.7069C87.2464 32.7999 85.9236 31.2018 84.1678 30.2384C82.4121 29.2751 80.3556 29.0192 78.4179 29.5228C78.3861 29.5312 78.3525 29.5308 78.3208 29.5217C78.2892 29.5127 78.2605 29.4952 78.2379 29.4713C77.7737 28.9253 77.1503 28.539 76.4555 28.3667C75.9336 28.2526 74.5004 28.3667 74.0043 28.7349C73.872 28.8417 73.8683 28.9227 73.8683 28.9484C73.882 29.1406 73.9426 29.3264 74.0447 29.4897C74.5319 30.3305 75.0993 31.1222 75.7389 31.8534C76.077 32.2658 76.4298 32.6966 76.7495 33.1384C78.5282 35.5868 79.0537 39.1767 79.5609 42.6486C79.6454 43.2267 79.7299 43.8011 79.8181 44.3644Z" fill="#1E1E1E"/>
<path id="Vector_3" d="M88.3294 28.6465C89.318 27.8623 90.2661 26.986 91.4237 26.4926C91.5179 26.4407 91.6253 26.4176 91.7324 26.4264C91.8335 26.4508 91.923 26.5093 91.986 26.5921C92.1285 26.7728 92.2258 26.9851 92.2699 27.2111C92.314 27.4372 92.3036 27.6705 92.2396 27.8918C92.1068 28.3332 91.8897 28.7447 91.6002 29.1031C90.8579 30.1178 89.9841 31.0291 89.0019 31.8129C88.3603 32.3775 87.5947 32.7824 86.7675 32.9948C85.6356 33.2268 83.0337 32.1112 84.195 30.5906C84.5258 30.1561 85.2975 30.2224 85.7532 30.1009C86.6992 29.7908 87.5747 29.2966 88.3294 28.6465Z" fill="white"/>
<path id="Vector_4" d="M86.4294 33.2047C85.5621 33.2047 84.3714 32.726 83.9121 31.997C83.7635 31.764 83.6956 31.4886 83.7189 31.2131C83.7421 30.9376 83.8552 30.6774 84.0407 30.4727C84.32 30.1046 84.8051 30.0493 85.2314 29.9941C85.3873 29.9792 85.5421 29.9533 85.6944 29.9168C86.6187 29.6111 87.4749 29.1284 88.2155 28.4956L88.7704 28.0501C89.5439 27.3578 90.4097 26.7767 91.3429 26.3233C91.4697 26.2581 91.6127 26.2312 91.7545 26.246C91.8997 26.2748 92.0299 26.3544 92.122 26.4706C92.286 26.674 92.3985 26.9143 92.4496 27.1707C92.5008 27.4272 92.4893 27.6923 92.416 27.9433C92.2754 28.4083 92.0471 28.842 91.7435 29.2209C90.9931 30.2493 90.1081 31.1719 89.1122 31.9639C88.4476 32.5459 87.6558 32.9634 86.8006 33.1826C86.6781 33.2035 86.5536 33.2109 86.4294 33.2047ZM88.4433 28.7864C87.6641 29.4453 86.764 29.9455 85.7937 30.2592C85.6247 30.3018 85.4527 30.3313 85.2792 30.3476C84.9117 30.3954 84.5184 30.4433 84.3347 30.6826C84.1972 30.8287 84.1118 31.0163 84.0918 31.2161C84.0719 31.4159 84.1185 31.6167 84.2244 31.7872C84.6581 32.483 86.0068 32.9433 86.7308 32.796C87.5295 32.5889 88.2684 32.1966 88.888 31.6509C89.86 30.8767 90.7251 29.9766 91.4605 28.9742C91.7351 28.6351 91.9422 28.2464 92.0706 27.8292C92.1275 27.6368 92.1379 27.4336 92.1008 27.2363C92.0638 27.0391 91.9803 26.8536 91.8574 26.6952C91.8205 26.6461 91.769 26.61 91.7104 26.5921C91.6386 26.5916 91.5678 26.6093 91.5046 26.6436C90.5942 27.0868 89.7495 27.6543 88.9946 28.3299L88.4507 28.7717L88.4433 28.7864Z" fill="#1E1E1E"/>
<path id="Vector_5" d="M31.2713 20.6863C30.6833 18.0428 29.9006 15.425 29.6654 12.7262C29.4302 10.0274 29.7977 7.16655 31.3265 4.93534C31.9023 4.00321 32.7769 3.29447 33.8071 2.92504C34.7111 2.6489 36.262 3.157 36.262 3.157C37.0122 2.60756 37.7912 2.09874 38.5956 1.63271C40.3118 0.774835 42.2706 0.461877 44.1559 0.277784C46.8644 0.0163715 50.0028 0.156282 51.7227 2.26599C52.9869 3.81605 53.0972 5.97731 53.1486 7.97656L53.2846 13.1017" fill="white"/>
<path id="Vector_6" d="M31.2714 20.8704C31.2282 20.8698 31.1866 20.8545 31.1532 20.8271C31.1198 20.7996 31.0967 20.7617 31.0876 20.7195C30.9333 20.031 30.7679 19.3388 30.5988 18.6503C30.0758 16.7094 29.7011 14.7314 29.478 12.7335C29.2869 10.5244 29.4228 7.36905 31.1721 4.81752C31.7706 3.85221 32.6772 3.11784 33.7446 2.73359C34.5715 2.48322 35.8614 2.833 36.2179 2.93977C36.9521 2.40695 37.7152 1.91528 38.5038 1.46703C40.3155 0.56497 42.3662 0.266739 44.1302 0.0973737C47.9044 -0.270812 50.4328 0.402968 51.8477 2.15553C53.2074 3.81974 53.2699 6.22399 53.3177 7.97656L53.4904 13.0907C53.4914 13.1408 53.4727 13.1894 53.4383 13.2259C53.404 13.2624 53.3567 13.2839 53.3067 13.2858C53.2817 13.2868 53.2569 13.2828 53.2335 13.274C53.2102 13.2653 53.1888 13.2519 53.1707 13.2348C53.1525 13.2176 53.138 13.197 53.1279 13.1742C53.1178 13.1513 53.1123 13.1267 53.1119 13.1017L52.9759 7.97288C52.9208 5.85213 52.7738 3.8271 51.5941 2.38013C50.2527 0.734336 47.8309 0.104737 44.1927 0.458196C42.4617 0.627562 40.4552 0.918429 38.6802 1.79471C37.8847 2.25652 37.1143 2.76043 36.3723 3.30428C36.3481 3.3217 36.3202 3.33312 36.2908 3.3376C36.2614 3.34208 36.2314 3.3395 36.2032 3.33005C36.2032 3.33005 34.6965 2.84404 33.8622 3.09809C32.8779 3.46287 32.0419 4.14385 31.4845 5.03475C29.7977 7.49424 29.6691 10.5575 29.8565 12.7004C30.0749 14.6794 30.4435 16.639 30.959 18.5619C31.1244 19.2541 31.2934 19.9426 31.4478 20.6385C31.4532 20.6627 31.4537 20.6877 31.4494 20.7121C31.4452 20.7365 31.4361 20.7598 31.4228 20.7807C31.4095 20.8016 31.3921 20.8196 31.3718 20.8337C31.3515 20.8479 31.3286 20.8578 31.3044 20.8631L31.2714 20.8704Z" fill="#1E1E1E"/>
<path id="Vector_7" d="M60.642 91.275C58.8045 57.3651 61.7151 44.7363 60.2745 41.2459C56.8604 33.028 36.8537 30.3365 36.8537 30.3365C36.8537 30.3365 15.2043 30.2261 10.3937 41.7098C9.18828 44.5964 0.838678 64.6331 0.0191528 76.9968C-0.396122 83.1786 6.02043 81.9305 11.6064 82.4496V91.2861L60.642 91.275Z" fill="#148532"/>
<path id="Vector_8" d="M47.1657 45.631L45.523 47.8916L51.9359 74.8502L48.1396 82.5048L42.5683 74.8502L43.3511 48.0941L40.9586 45.3364L44.4021 42.6045L47.1657 45.631Z" fill="white"/>
<path id="Vector_9" d="M48.1396 82.6926C48.1097 82.6925 48.0802 82.6854 48.0534 82.672C48.0266 82.6586 48.0033 82.6392 47.9852 82.6153L42.4176 74.9607C42.391 74.9274 42.3779 74.8854 42.3809 74.8429L43.16 48.1604L40.8153 45.4579C40.7985 45.4389 40.7856 45.4168 40.7774 45.3928C40.7692 45.3688 40.7659 45.3433 40.7675 45.318C40.7747 45.2662 40.8009 45.2189 40.841 45.1855L44.2845 42.4572C44.3216 42.4267 44.369 42.4116 44.4168 42.415C44.4647 42.4185 44.5094 42.4401 44.5418 42.4756L47.3054 45.5021C47.3332 45.5358 47.3484 45.5781 47.3484 45.6218C47.3484 45.6654 47.3332 45.7078 47.3054 45.7414L45.7288 47.9321L52.1196 74.8097C52.1362 74.8511 52.1362 74.8972 52.1196 74.9386L48.3086 82.5895C48.2944 82.6189 48.2725 82.6439 48.2454 82.662C48.2183 82.6801 48.1868 82.6907 48.1543 82.6926H48.1396ZM42.7594 74.8097L48.1065 82.1735L51.7337 74.8613L45.3392 47.9837C45.3334 47.957 45.3334 47.9294 45.3391 47.9028C45.3448 47.8761 45.3561 47.851 45.3723 47.829L46.9232 45.6936L44.3801 42.9101L41.2306 45.3548L43.4944 47.9616C43.5267 47.9965 43.5438 48.0429 43.5422 48.0904L42.7594 74.8097Z" fill="#1E1E1E"/>
<path id="Vector_10" d="M49.2164 32.0081L50.0874 37.6782C50.0874 37.6782 48.8011 43.8342 42.572 42.3873C40.7537 41.9627 39.0543 41.1332 37.5999 39.9604C36.1454 38.7875 34.9735 37.3015 34.1709 35.6126L33.4727 22.4279C33.4727 22.4279 38.0554 19.9205 36.6075 9.90955C36.6075 9.90955 43.5459 13.2711 52.7775 12.0082C52.7775 12.0082 54.9825 22.3174 54.2916 27.1443C53.6007 31.9713 49.2164 32.0081 49.2164 32.0081Z" fill="white"/>
<path id="Vector_11" d="M44.3801 42.7959C43.7611 42.7911 43.1446 42.7158 42.5426 42.5713C40.6987 42.1315 38.9761 41.2848 37.5005 40.093C36.0248 38.9012 34.8333 37.3944 34.0129 35.6826C34.0091 35.6619 34.0091 35.6407 34.0129 35.62L33.2779 22.4352C33.2761 22.3999 33.2845 22.3648 33.3021 22.3341C33.3197 22.3034 33.3457 22.2784 33.3771 22.2622C33.4212 22.2364 37.8276 19.6849 36.4164 9.93899C36.4129 9.90483 36.4182 9.87035 36.4317 9.83879C36.4452 9.80723 36.4665 9.77963 36.4935 9.75858C36.5231 9.74145 36.5567 9.73244 36.5909 9.73244C36.6251 9.73244 36.6587 9.74145 36.6883 9.75858C41.765 11.8677 47.3117 12.5808 52.7554 11.8241C52.8029 11.8174 52.8512 11.8288 52.8907 11.8561C52.9302 11.8833 52.958 11.9245 52.9686 11.9714C53.0568 12.3948 55.1736 22.3653 54.4827 27.1738C53.8579 31.4779 50.3483 32.1001 49.4479 32.1848L50.2895 37.6487C50.2931 37.6719 50.2931 37.6955 50.2895 37.7186C50.2638 37.8328 49.6794 40.5132 47.445 41.9417C46.5287 42.5205 45.4631 42.8174 44.3801 42.7959ZM34.3584 35.5684C35.1574 37.218 36.313 38.6686 37.7413 39.815C39.1697 40.9613 40.8349 41.7746 42.6161 42.1958C44.4168 42.6155 45.9714 42.4204 47.2245 41.6214C49.198 40.3622 49.8228 37.9727 49.8963 37.6671L49.029 32.0339C49.0241 32.0069 49.0253 31.9792 49.0322 31.9527C49.0392 31.9262 49.0519 31.9016 49.0695 31.8805C49.087 31.8595 49.1089 31.8425 49.1336 31.8308C49.1584 31.8192 49.1854 31.813 49.2127 31.8129C49.3854 31.8129 53.4279 31.7209 54.1005 27.1149C54.7436 22.6966 52.9098 13.584 52.6305 12.2217C47.2862 12.9083 41.8555 12.2203 36.85 10.2225C38.0554 19.2578 34.3804 22.0855 33.6675 22.5273L34.3584 35.5684Z" fill="#1E1E1E"/>
<path id="Vector_12" d="M46.0228 18.0465C46.0228 18.0465 48.9628 23.4809 48.0845 24.3056C47.2061 25.1304 44.9644 24.3056 44.9644 24.3056" fill="white"/>
<path id="Vector_13" d="M46.8497 24.8469C46.1856 24.8234 45.5289 24.6992 44.9019 24.4787C44.8794 24.4708 44.8586 24.4586 44.8408 24.4426C44.8231 24.4267 44.8086 24.4074 44.7984 24.3858C44.7881 24.3642 44.7822 24.3408 44.7811 24.3169C44.7799 24.293 44.7835 24.2692 44.7917 24.2467C44.8083 24.2007 44.8422 24.1631 44.8861 24.1418C44.9301 24.1205 44.9806 24.1172 45.0269 24.1326C45.0489 24.1326 47.1584 24.8689 47.9669 24.1547C48.5108 23.6576 47.0665 20.3292 45.8684 18.1275C45.8451 18.0845 45.8397 18.034 45.8534 17.987C45.8672 17.9401 45.8991 17.9005 45.942 17.8771C45.9848 17.8537 46.0353 17.8482 46.0821 17.8621C46.129 17.8759 46.1685 17.9078 46.1918 17.9507C46.6953 18.8786 49.1686 23.5545 48.2168 24.4234C47.8287 24.7284 47.3419 24.8792 46.8497 24.8469Z" fill="#1E1E1E"/>
<path id="Vector_14" d="M41.4994 18.1109C41.8361 18.0967 42.0826 17.4577 42.0501 16.6837C42.0175 15.9096 41.7183 15.2936 41.3817 15.3078C41.0451 15.322 40.7985 15.961 40.831 16.7351C40.8636 17.5091 41.1628 18.1251 41.4994 18.1109Z" fill="#1E1E1E"/>
<path id="Vector_15" d="M50.5545 18.6752C50.8914 18.6617 51.1395 18.0227 51.1086 17.2479C51.0776 16.4732 50.7794 15.8561 50.4425 15.8696C50.1056 15.8831 49.8575 16.5221 49.8885 17.2968C49.9194 18.0716 50.2176 18.6887 50.5545 18.6752Z" fill="#1E1E1E"/>
<path id="Vector_16" d="M37.4637 19.8506C36.9129 18.9086 36.1868 18.0812 35.3249 17.4132C34.878 17.0201 34.3211 16.7745 33.7299 16.7099C33.2449 16.7143 32.7709 16.856 32.3628 17.1186C31.7509 17.4802 31.2217 17.9667 30.8095 18.5464C30.3973 19.1262 30.1115 19.7862 29.9704 20.4838C29.8346 21.1305 29.8599 21.8007 30.0439 22.4352C30.3989 23.4173 31.0853 24.2443 31.9843 24.7732C32.878 25.2908 33.8289 25.7023 34.8177 25.9993" fill="white"/>
<path id="Vector_17" d="M34.8104 26.2091H34.7479C33.7452 25.9054 32.7808 25.4866 31.8741 24.961C30.9368 24.411 30.2226 23.5481 29.8565 22.5236C29.6621 21.8581 29.6356 21.1547 29.7793 20.4765C29.9252 19.7514 30.2222 19.0654 30.6509 18.4633C31.0797 17.8612 31.6305 17.3565 32.2673 16.9824C32.7058 16.7003 33.2161 16.5507 33.7373 16.5516C34.3658 16.6187 34.9592 16.8755 35.4388 17.288C36.3259 17.9703 37.0743 18.8164 37.6438 19.7806C37.6511 19.8208 37.6454 19.8622 37.6275 19.8989C37.6096 19.9356 37.5804 19.9656 37.5443 19.9845C37.5082 20.0034 37.467 20.0103 37.4267 20.0041C37.3864 19.9979 37.3492 19.9789 37.3204 19.95C36.781 19.0287 36.0698 18.22 35.2257 17.5678C34.8116 17.2066 34.3001 16.976 33.7557 16.9051C33.3078 16.9043 32.8691 17.0321 32.4915 17.2733C31.901 17.6204 31.3903 18.0884 30.9927 18.6467C30.595 19.205 30.3193 19.841 30.1836 20.5133C30.0551 21.1233 30.0791 21.7557 30.2534 22.3542C30.5874 23.2899 31.2374 24.0792 32.0909 24.5854C32.9666 25.1104 33.9002 25.5317 34.8729 25.841C34.8963 25.8488 34.918 25.8613 34.9366 25.8776C34.9553 25.8939 34.9705 25.9138 34.9814 25.9361C34.9924 25.9583 34.9988 25.9825 35.0003 26.0073C35.0019 26.032 34.9985 26.0568 34.9905 26.0803C34.9775 26.1178 34.9532 26.1504 34.9209 26.1735C34.8887 26.1966 34.85 26.209 34.8104 26.2091Z" fill="#1E1E1E"/>
<path id="Vector_18" d="M49.2164 32.0081C45.639 32.5589 41.9795 31.9541 38.7684 30.2813C38.7684 30.2813 44.0934 38.4845 50.0359 37.3284L49.2164 32.0081Z" fill="#1E1E1E"/>
<path id="Vector_19" d="M48.8893 37.6229C46.7211 37.6229 44.3801 36.5184 42.0501 34.3755C40.7593 33.1767 39.6068 31.8368 38.614 30.3807C38.5902 30.3488 38.5773 30.3101 38.5773 30.2702C38.5773 30.2304 38.5902 30.1916 38.614 30.1598C38.6408 30.1291 38.6772 30.1083 38.7172 30.101C38.7572 30.0936 38.7986 30.1001 38.8345 30.1193C42.0107 31.7618 45.6229 32.3596 49.1576 31.8277C49.1822 31.8223 49.2077 31.8221 49.2324 31.8272C49.2571 31.8322 49.2804 31.8424 49.3009 31.8571C49.3214 31.871 49.3388 31.8889 49.3521 31.9098C49.3654 31.9307 49.3742 31.9541 49.3781 31.9786L50.1976 37.2989C50.2051 37.3462 50.194 37.3945 50.1666 37.4337C50.1391 37.4729 50.0975 37.4998 50.0506 37.5088C49.6679 37.5828 49.2791 37.621 48.8893 37.6229ZM39.3343 30.7562C40.661 32.564 45.0636 37.9543 49.8338 37.1774L49.0804 32.2216C45.7563 32.6784 42.3711 32.1698 39.327 30.7562H39.3343Z" fill="#1E1E1E"/>
<path id="Vector_20" d="M78.3482 27.6363L78.2639 27.7702C78.083 28.0577 77.7955 28.2613 77.4646 28.3364C77.1338 28.4114 76.7868 28.3517 76.4999 28.1705L67.9145 22.7455L69.3633 20.4441L77.9456 25.8671C78.2325 26.0484 78.4358 26.3364 78.5107 26.6678C78.5856 26.9993 78.526 27.347 78.3451 27.6344L78.3482 27.6363Z" fill="white"/>
<path id="Vector_21" d="M77.1721 28.5508C76.8971 28.5508 76.6279 28.4716 76.3967 28.3225L67.8229 22.8955C67.8015 22.8831 67.7831 22.8661 67.7691 22.8457C67.7551 22.8254 67.7459 22.8021 67.7421 22.7776C67.7364 22.7546 67.7355 22.7307 67.7393 22.7073C67.743 22.6839 67.7515 22.6615 67.7641 22.6414L69.2121 20.3366C69.2384 20.2956 69.2799 20.2668 69.3274 20.2564C69.375 20.2461 69.4247 20.255 69.4656 20.2813L78.0394 25.7084C78.3664 25.9167 78.5982 26.2458 78.6842 26.6244C78.7702 27.0029 78.7036 27.4002 78.4988 27.7297L78.4143 27.866C78.2066 28.1946 77.8776 28.4275 77.4992 28.514C77.3916 28.5371 77.2821 28.5495 77.1721 28.5508ZM68.161 22.6856L76.5914 28.0096C76.7126 28.0879 76.8482 28.141 76.9903 28.1657C77.1324 28.1904 77.2779 28.1861 77.4183 28.1532C77.7028 28.0939 77.9524 27.9245 78.1129 27.6819L78.1974 27.5493C78.3504 27.3027 78.4003 27.0057 78.3364 26.7225C78.2724 26.4393 78.0997 26.1927 77.8556 26.0361L69.4142 20.6863L68.161 22.6856Z" fill="#1E1E1E"/>
<path id="Vector_22" d="M68.4108 24.4369L70.7364 20.7002L68.6404 19.3908L66.3148 23.1276L68.4108 24.4369Z" fill="white"/>
<path id="Vector_23" d="M68.1904 24.0921C68.1552 24.092 68.1208 24.0818 68.0912 24.0626L66.0075 22.7445C65.9869 22.7317 65.9691 22.715 65.955 22.6953C65.9409 22.6756 65.9309 22.6533 65.9254 22.6297C65.92 22.6061 65.9192 22.5817 65.9232 22.5578C65.9272 22.5339 65.9358 22.511 65.9487 22.4905L68.2896 18.7755C68.302 18.7545 68.3186 18.7363 68.3382 18.7219C68.3578 18.7075 68.3802 18.6972 68.4039 18.6917C68.4276 18.6862 68.4521 18.6856 68.4761 18.6898C68.5 18.6941 68.5229 18.7032 68.5432 18.7166L70.6269 20.0347C70.6476 20.047 70.6655 20.0635 70.6794 20.0832C70.6933 20.1028 70.703 20.1252 70.7078 20.1488C70.7189 20.1965 70.711 20.2467 70.6857 20.2887L68.3411 24C68.3152 24.041 68.2743 24.0701 68.2272 24.081L68.1904 24.0921ZM66.3529 22.5273L68.1279 23.6318L70.2741 20.2261L68.4991 19.1216L66.3529 22.5273Z" fill="#1E1E1E"/>
<path id="Vector_24" d="M89.4318 35.504L90.1219 34.4078C90.5777 33.6837 90.3614 32.7265 89.6386 32.2698L77.6558 24.698C76.933 24.2414 75.9776 24.4581 75.5218 25.1822L74.8317 26.2784C74.3758 27.0025 74.5922 27.9597 75.3149 28.4164L87.2978 35.9882C88.0205 36.4449 88.976 36.2281 89.4318 35.504Z" fill="white"/>
<path id="Vector_25" d="M88.1163 36.4079C87.7908 36.4074 87.4721 36.3142 87.1975 36.1391L75.217 28.5655C75.0246 28.444 74.858 28.2857 74.7267 28.0996C74.5954 27.9135 74.502 27.7034 74.4518 27.4811C74.4017 27.2588 74.3957 27.0288 74.4343 26.8043C74.4729 26.5797 74.5553 26.365 74.6768 26.1723L75.364 25.0678C75.6103 24.68 75.9996 24.4055 76.4471 24.3041C76.8945 24.2027 77.3639 24.2827 77.7527 24.5265L89.7332 32.1001C89.9257 32.2216 90.0923 32.38 90.2236 32.566C90.3548 32.7521 90.4483 32.9623 90.4984 33.1846C90.5486 33.4068 90.5546 33.6368 90.516 33.8614C90.4774 34.0859 90.395 34.3007 90.2735 34.4933L89.5863 35.5979C89.4628 35.7928 89.3016 35.9609 89.1123 36.0924C88.9229 36.2239 88.7092 36.3162 88.4838 36.3637C88.3632 36.3918 88.24 36.4066 88.1163 36.4079ZM76.8303 24.6259C76.5994 24.6255 76.3721 24.6837 76.1696 24.7951C75.9672 24.9065 75.7962 25.0674 75.6727 25.2629L74.9855 26.3675C74.8892 26.5189 74.824 26.6881 74.7937 26.8651C74.7634 27.0421 74.7686 27.2234 74.8091 27.3984C74.8486 27.5735 74.9222 27.739 75.0256 27.8856C75.129 28.0321 75.2602 28.1568 75.4118 28.2526L87.3923 35.8225C87.6991 36.0152 88.0696 36.0785 88.4228 35.9985C88.7761 35.9185 89.0834 35.7016 89.2776 35.3954L89.9648 34.2908C90.0604 34.139 90.1253 33.9698 90.1556 33.7929C90.186 33.616 90.1812 33.4348 90.1416 33.2597C90.102 33.0847 90.0284 32.9191 89.9249 32.7726C89.8214 32.626 89.6901 32.5014 89.5385 32.4057L77.558 24.8358C77.3387 24.7032 77.0864 24.6356 76.8303 24.6407V24.6259Z" fill="#1E1E1E"/>
<path id="Vector_26" d="M48.9628 9.15844C47.734 11.1101 47.1104 13.383 47.1709 15.6897C47.2314 17.9964 47.9732 20.2333 49.3025 22.1177C50.6318 24.002 52.489 25.4492 54.6392 26.2761C56.7894 27.1031 59.1361 27.2727 61.3825 26.7636C63.629 26.2545 65.6743 25.0895 67.2599 23.4159C68.8455 21.7422 69.9001 19.6352 70.2905 17.3611C70.6809 15.0869 70.3895 12.7479 69.4531 10.6397C68.5168 8.53155 66.9775 6.74887 65.0299 5.51707C62.4169 3.86674 59.2568 3.32325 56.2441 4.00604C53.2313 4.68884 50.6124 6.54205 48.9628 9.15844Z" fill="white"/>
<path id="Vector_27" d="M58.7934 27.2364C56.6786 27.2349 54.6029 26.6652 52.7826 25.5865C50.9624 24.5078 49.4643 22.9597 48.4445 21.1035C47.4247 19.2473 46.9205 17.1511 46.9845 15.0333C47.0485 12.9155 47.6784 10.8536 48.8085 9.06272C49.9061 7.31875 51.4389 5.89183 53.2554 4.9229C55.072 3.95397 57.1093 3.47656 59.1663 3.53781C61.2234 3.59906 63.2288 4.19686 64.9847 5.27217C66.7406 6.34747 68.1861 7.86307 69.1784 9.66928C70.1708 11.4755 70.6757 13.5098 70.6433 15.5713C70.6108 17.6328 70.0422 19.6502 68.9935 21.4242C67.9447 23.1981 66.4523 24.6673 64.6635 25.6866C62.8746 26.706 60.8513 27.2401 58.7934 27.2364ZM49.1172 9.27258C47.7014 11.5202 47.1074 14.19 47.4363 16.8272C47.7651 19.4644 48.9965 21.9058 50.9207 23.7354C52.8448 25.5649 55.3426 26.6695 57.9885 26.8608C60.6343 27.0521 63.2645 26.3183 65.431 24.7845C67.5974 23.2507 69.1659 21.0118 69.8694 18.4493C70.5728 15.8867 70.3676 13.159 69.2886 10.7311C68.2097 8.30312 66.3239 6.32507 63.9525 5.13398C61.5811 3.94289 58.8708 3.61245 56.2834 4.19898C53.3185 4.87316 50.7414 6.6977 49.1172 9.27258Z" fill="#1E1E1E"/>
<path id="Vector_28" d="M63.7289 7.57891C65.2706 8.55249 66.4895 9.96226 67.2314 11.6299C67.9733 13.2976 68.2049 15.1482 67.8968 16.9477C67.5888 18.7473 66.755 20.4149 65.5009 21.7396C64.2468 23.0643 62.6288 23.9867 60.8514 24.39C59.074 24.7933 57.2172 24.6595 55.5157 24.0054C53.8143 23.3514 52.3447 22.2065 51.2927 20.7155C50.2408 19.2246 49.6539 17.4546 49.6061 15.6294C49.5584 13.8043 50.052 12.0059 51.0245 10.4618C52.328 8.39213 54.3986 6.92579 56.781 6.38518C59.1633 5.84457 61.6625 6.27395 63.7289 7.57891Z" fill="white"/>
<path id="Vector_29" d="M58.8008 24.799C57.343 24.7992 55.9052 24.4597 54.601 23.8072C53.2968 23.1547 52.162 22.2072 51.2863 21.0396C50.4107 19.8719 49.8182 18.5162 49.5557 17.0796C49.2933 15.643 49.368 14.1649 49.774 12.7622C50.1801 11.3595 50.9063 10.0707 51.8952 8.99766C52.8842 7.92465 54.1087 7.09687 55.4721 6.57977C56.8354 6.06268 58.3001 5.87046 59.7504 6.01831C61.2007 6.16616 62.5967 6.65002 63.8282 7.43164C65.5536 8.52 66.8788 10.1413 67.6035 12.0507C68.3282 13.96 68.4131 16.0538 67.8454 18.0158C67.2777 19.9778 66.0882 21.7014 64.4565 22.9264C62.8249 24.1514 60.8397 24.8113 58.8008 24.8064V24.799ZM58.8302 6.32708C58.1539 6.32717 57.4797 6.4025 56.8199 6.55168C54.7815 7.0133 52.9659 8.16877 51.6825 9.8212C50.399 11.4736 49.7272 13.5208 49.7814 15.6139C49.8357 17.7069 50.6126 19.7164 51.9799 21.2999C53.3472 22.8834 55.2202 23.9429 57.2798 24.298C59.3394 24.653 61.4582 24.2816 63.2751 23.247C65.092 22.2124 66.4946 20.5786 67.244 18.6241C67.9934 16.6695 68.0431 14.5152 67.3847 12.528C66.7264 10.5408 65.4006 8.84384 63.6334 7.72619C62.1971 6.81299 60.5313 6.32775 58.8302 6.32708Z" fill="#D1D3D4"/>
<path id="Vector_30" d="M49.4038 25.9993C49.4038 25.9993 43.0424 30.944 40.536 21.3564L49.4038 25.9993Z" fill="white"/>
<path id="Vector_31" d="M45.8317 27.461C45.362 27.462 44.8952 27.3862 44.4499 27.2364C42.5793 26.5994 41.2049 24.637 40.3596 21.4006C40.3474 21.3518 40.3551 21.3001 40.381 21.257C40.4068 21.2138 40.4487 21.1827 40.4974 21.1705C40.5462 21.1583 40.5978 21.166 40.6408 21.1919C40.6839 21.2178 40.7149 21.2598 40.7271 21.3086C41.5356 24.4161 42.8329 26.2938 44.5785 26.8866C46.9048 27.6819 49.2789 25.8741 49.3009 25.8557C49.32 25.8407 49.3418 25.8296 49.3651 25.8231C49.3885 25.8165 49.4129 25.8147 49.4369 25.8176C49.461 25.8205 49.4842 25.8281 49.5053 25.84C49.5265 25.8519 49.545 25.8679 49.56 25.887C49.5749 25.9061 49.586 25.928 49.5925 25.9513C49.5991 25.9747 49.6009 25.9992 49.598 26.0233C49.5951 26.0474 49.5875 26.0707 49.5756 26.0918C49.5637 26.113 49.5478 26.1316 49.5288 26.1466C48.4551 26.9449 47.1674 27.4027 45.8317 27.461Z" fill="#1E1E1E"/>
<path id="Vector_32" d="M81.8614 31.0876C82.2583 30.9035 82.3685 30.3954 82.3832 29.9536C82.408 29.1215 82.2668 28.2929 81.968 27.5162L83.4159 30.7084C83.657 31.347 84.0203 31.9324 84.4853 32.4315C84.7225 32.6764 85.0245 32.8484 85.3558 32.9273C85.6872 33.0062 86.0341 32.9887 86.3559 32.877C87.2563 32.472 87.407 31.257 87.282 30.2776C87.1696 29.3621 86.9283 28.4671 86.5654 27.6193C86.2871 26.8551 85.7834 26.1938 85.1211 25.7231C84.4339 25.296 83.4563 25.2629 82.8794 25.8225C82.2473 24.8542 80.9426 23.1127 79.5461 23.4588C78.6311 23.6834 78.7376 24.1952 78.9214 25.0383C79.175 26.176 80.2517 31.8424 81.8614 31.0876Z" fill="white"/>
<path id="Vector_33" d="M85.8083 33.1752C85.2672 33.1565 84.7518 32.939 84.3604 32.564C83.8816 32.0468 83.5072 31.4417 83.2579 30.782L82.5596 29.2393C82.5791 29.4843 82.5852 29.7301 82.578 29.9757C82.556 30.6421 82.3391 31.0802 81.9496 31.2717C81.8317 31.3315 81.7014 31.3627 81.5692 31.3627C81.4371 31.3627 81.3068 31.3315 81.1889 31.2717C80.0864 30.7194 79.3514 27.8402 78.8185 25.3807L78.7523 25.0862C78.5796 24.2983 78.4142 23.5545 79.5131 23.2857C80.6119 23.017 81.7511 23.8086 82.9271 25.5575C83.2712 25.3391 83.6701 25.2232 84.0774 25.2232C84.4847 25.2232 84.8836 25.3391 85.2277 25.5575C85.9245 26.0461 86.4544 26.7377 86.7455 27.5383C87.1139 28.4021 87.3613 29.3128 87.4805 30.2445C87.5466 30.7636 87.6642 32.4941 86.4478 33.0353C86.2473 33.128 86.0291 33.1757 85.8083 33.1752ZM81.968 27.3321C82.0029 27.3319 82.0371 27.3419 82.0665 27.3609C82.0959 27.3798 82.1191 27.4069 82.1333 27.4389L83.5813 30.6311C83.8171 31.2455 84.1662 31.8101 84.6103 32.2953C84.8212 32.516 85.0904 32.6719 85.3865 32.745C85.6826 32.818 85.9934 32.805 86.2824 32.7076C87.2673 32.2658 87.1571 30.7526 87.1019 30.2997C86.9886 29.401 86.7511 28.5225 86.3964 27.6892C86.1349 26.9593 85.6565 26.3271 85.0256 25.8778C84.4523 25.5096 83.5556 25.4286 83.0043 25.9551C82.9856 25.9746 82.9625 25.9895 82.937 25.9984C82.9114 26.0074 82.8841 26.0102 82.8573 26.0066C82.8308 26.0034 82.8052 25.9945 82.7824 25.9805C82.7596 25.9665 82.74 25.9478 82.725 25.9256C81.9422 24.7217 80.7626 23.3483 79.5902 23.6355C78.8773 23.8123 78.9067 24.1215 79.1015 24.9978L79.1639 25.296C79.4322 26.5516 80.2481 30.3696 81.3432 30.9182C81.4113 30.9537 81.487 30.9723 81.5637 30.9723C81.6405 30.9723 81.7161 30.9537 81.7842 30.9182C82.1039 30.7673 82.1885 30.3071 82.1995 29.9462C82.2242 29.1379 82.0868 28.3329 81.7952 27.5788C81.7863 27.5568 81.7817 27.5332 81.7818 27.5095C81.782 27.4857 81.7868 27.4622 81.796 27.4403C81.8052 27.4184 81.8186 27.3986 81.8356 27.3819C81.8525 27.3652 81.8725 27.3521 81.8945 27.3432C81.9179 27.3343 81.943 27.3305 81.968 27.3321Z" fill="#1E1E1E"/>
<path id="Vector_34" d="M77.0104 29.7253C77.0104 29.7253 81.4204 31.3638 81.9092 36.2275L77.0104 29.7253Z" fill="white"/>
<path id="Vector_35" d="M81.8871 36.4116C81.8418 36.4117 81.7981 36.3948 81.7647 36.364C81.7313 36.3333 81.7108 36.2911 81.7071 36.2459C81.2403 31.5589 76.97 29.9131 76.9296 29.8984C76.8842 29.8803 76.8476 29.8451 76.8277 29.8004C76.8078 29.7557 76.8061 29.705 76.823 29.659C76.8403 29.6138 76.8747 29.5773 76.9187 29.5573C76.9627 29.5373 77.0128 29.5355 77.0582 29.5523C77.106 29.5523 81.5858 31.2864 82.0746 36.2091C82.0771 36.2333 82.0748 36.2577 82.0679 36.281C82.0609 36.3044 82.0494 36.3261 82.034 36.3449C82.0186 36.3637 81.9997 36.3793 81.9783 36.3908C81.9568 36.4022 81.9334 36.4093 81.9092 36.4116H81.8871Z" fill="#1E1E1E"/>
<path id="Vector_36" d="M57.1875 37.4388C57.1875 37.4388 75.5845 54.7436 75.7756 53.6096C76.992 46.5146 77.9585 40.4469 77.9585 40.4469L89.9611 40.9366C89.9611 40.9366 89.9611 74.8097 81.8761 75.6308C75.7535 76.2493 54.4128 56.2311 54.4128 56.2311L57.1875 37.4388Z" fill="#148532"/>
<path id="Vector_37" d="M60.2634 84.1064C60.2158 84.1057 60.1702 84.0871 60.1356 84.0544C60.1009 84.0217 60.0797 83.9773 60.076 83.9297L56.6582 43.6244C56.666 43.5831 56.6871 43.5456 56.7183 43.5175C56.7495 43.4895 56.789 43.4724 56.8308 43.4691C56.8725 43.4658 56.9143 43.4763 56.9495 43.499C56.9847 43.5217 57.0115 43.5554 57.0257 43.5949L60.4729 83.9003C60.4749 83.9249 60.472 83.9498 60.4644 83.9733C60.4568 83.9969 60.4446 84.0187 60.4286 84.0375C60.4125 84.0563 60.3929 84.0718 60.3709 84.083C60.3488 84.0942 60.3248 84.1009 60.3002 84.1028L60.2634 84.1064Z" fill="#1E1E1E"/>
<path id="Vector_38" d="M32.1754 83.2522L8.38345 82.4754C8.35835 82.4744 8.33368 82.4685 8.31086 82.458C8.28803 82.4475 8.2675 82.4326 8.25043 82.4141C8.23337 82.3957 8.2201 82.374 8.2114 82.3504C8.20269 82.3268 8.19872 82.3017 8.1997 82.2766C8.20342 82.2264 8.22595 82.1796 8.26278 82.1454C8.2996 82.1112 8.34797 82.0923 8.39815 82.0925L32.0027 82.8657L32.6752 70.2L16.2149 68.2487C16.1886 68.2445 16.1634 68.2353 16.1407 68.2214C16.118 68.2075 16.0982 68.1892 16.0826 68.1677C16.0679 68.1457 16.0578 68.1211 16.0527 68.0951C16.0477 68.0692 16.0478 68.0426 16.0532 68.0167C18.1957 58.9483 21.3746 45.2223 21.3378 44.578C21.3268 44.5296 21.3353 44.4789 21.3615 44.4368C21.3876 44.3948 21.4293 44.3648 21.4775 44.3534C21.5276 44.3433 21.5796 44.3531 21.6227 44.3805C21.6658 44.4079 21.6967 44.451 21.709 44.5006C21.8487 45.0603 17.4827 63.6206 16.4721 67.8952L32.8957 69.8466C32.9435 69.8522 32.9873 69.8759 33.018 69.9129C33.0488 69.9499 33.0642 69.9973 33.0611 70.0454L32.3702 83.0718C32.3673 83.1213 32.3454 83.1678 32.3091 83.2014C32.2728 83.2351 32.2249 83.2533 32.1754 83.2522Z" fill="#1E1E1E"/>
<path id="Vector_39" d="M48.2793 56.9858L70.7078 61.0985L64.3133 91.275L40.9586 88.5615L48.2793 56.9858Z" fill="#1E1E1E"/>
<path id="Vector_40" d="M64.3169 91.4591H64.2949L40.9366 88.7493C40.9111 88.7455 40.8866 88.7368 40.8646 88.7235C40.8425 88.7102 40.8232 88.6927 40.808 88.6719C40.7936 88.6506 40.7836 88.6265 40.7786 88.6013C40.7735 88.576 40.7735 88.5499 40.7786 88.5247L48.0992 56.9453C48.1098 56.8989 48.1379 56.8584 48.1776 56.8324C48.2173 56.8063 48.2656 56.7966 48.3123 56.8054L70.7298 60.9217C70.7537 60.9257 70.7766 60.9346 70.7968 60.9479C70.8171 60.9612 70.8343 60.9786 70.8474 60.9991C70.8751 61.0414 70.8856 61.0928 70.8768 61.1427L64.4823 91.3155C64.4738 91.3541 64.4531 91.3888 64.4233 91.4147C64.3935 91.4405 64.3562 91.4561 64.3169 91.4591ZM41.1828 88.4032L64.1699 91.0725L70.4873 61.2494L48.4189 57.1994L41.1828 88.4032Z" fill="#1E1E1E"/>
<path id="Vector_41" d="M51.0539 70.9769C50.8812 69.0071 44.5014 71.6875 44.5014 71.6875C44.5014 71.6875 46.3021 67.5786 45.3356 66.8311C44.3691 66.0837 41.1204 71.0248 41.1204 71.0248C38.3926 71.4478 35.6375 71.6693 32.8773 71.6875L32.304 80.8553C41.4548 80.1926 47.3899 79.9312 47.6729 79.3421C48.2315 78.1676 51.2266 72.9467 51.0539 70.9769Z" fill="white"/>
<path id="Vector_42" d="M32.304 81.021C32.2822 81.0219 32.2604 81.018 32.2401 81.0098C32.2198 81.0015 32.2015 80.9891 32.1864 80.9732C32.1686 80.957 32.1548 80.937 32.1459 80.9147C32.1369 80.8924 32.1332 80.8683 32.135 80.8443L32.7083 71.6765C32.7119 71.6338 32.7312 71.594 32.7624 71.5648C32.7937 71.5355 32.8346 71.5189 32.8773 71.5182C35.6041 71.5017 38.326 71.2851 41.0211 70.8701C41.4474 70.2332 43.7737 66.798 44.9828 66.5955C45.0617 66.5794 45.1431 66.5803 45.2217 66.5981C45.3002 66.6159 45.3741 66.6501 45.4385 66.6986C46.3315 67.3908 45.2584 70.2921 44.8137 71.3782C46.0044 70.9106 49.628 69.5852 50.8113 70.2995C50.9292 70.3673 51.0285 70.4633 51.1003 70.5789C51.1722 70.6946 51.2143 70.8263 51.2229 70.9622C51.3663 72.6338 49.3854 76.4224 48.316 78.4585C48.0955 78.8745 47.9228 79.1948 47.8236 79.4121C47.57 79.9459 44.9571 80.1484 37.4417 80.6639C35.8761 80.7707 34.1636 80.8885 32.2967 81.0321L32.304 81.021ZM33.039 71.8569L32.4878 80.6713L37.4233 80.3289C42.9064 79.9607 47.2356 79.6588 47.5296 79.2648C47.6251 79.0586 47.8015 78.7236 48.022 78.3038C48.9959 76.4408 51.0281 72.5675 50.8922 70.9916C50.8873 70.9087 50.862 70.8282 50.8183 70.7575C50.7747 70.6868 50.7142 70.6281 50.6423 70.5866C49.6059 69.9607 45.9052 71.2788 44.5712 71.8422C44.54 71.8554 44.5055 71.859 44.4722 71.8523C44.439 71.8457 44.4085 71.8292 44.3847 71.805C44.3609 71.7808 44.345 71.7499 44.3389 71.7165C44.3328 71.6831 44.3369 71.6486 44.3507 71.6176C45.0269 70.0785 45.8648 67.4497 45.2363 66.9637C45.2085 66.9437 45.1767 66.9301 45.143 66.9237C45.1094 66.9174 45.0748 66.9184 45.0416 66.9269C44.1008 67.0852 41.9987 70.0049 41.2674 71.1205C41.2401 71.1587 41.1994 71.185 41.1534 71.1941C38.466 71.6042 35.7535 71.8281 33.0353 71.8642L33.039 71.8569Z" fill="#1E1E1E"/>
<path id="Vector_43" d="M74.3975 59.5558H74.3607C74.3362 59.551 74.3129 59.5413 74.2922 59.5273C74.2715 59.5134 74.2537 59.4954 74.24 59.4745C74.2263 59.4535 74.217 59.4301 74.2124 59.4055C74.2079 59.3809 74.2084 59.3556 74.2137 59.3312L77.5212 43.5765C77.526 43.5519 77.5357 43.5286 77.5496 43.5078C77.5635 43.4871 77.5815 43.4693 77.6024 43.4556C77.6233 43.4419 77.6467 43.4325 77.6712 43.4279C77.6958 43.4234 77.721 43.4238 77.7454 43.4292C77.7944 43.4398 77.8373 43.4693 77.8648 43.5114C77.8923 43.5534 77.9022 43.6045 77.8924 43.6538L74.5849 59.4085C74.5755 59.451 74.5517 59.4889 74.5175 59.5158C74.4833 59.5427 74.4409 59.5568 74.3975 59.5558Z" fill="#1E1E1E"/>
<path id="Vector_44" d="M53.4022 15.4839C53.4746 15.3881 53.5532 15.297 53.6374 15.2114L54.5268 14.4272C54.5606 14.3786 54.6057 14.3389 54.6582 14.3115C54.7106 14.284 54.7689 14.2697 54.8281 14.2697C54.8873 14.2697 54.9456 14.284 54.998 14.3115C55.0505 14.3389 55.0956 14.3786 55.1295 14.4272L57.4043 16.7468C57.4363 16.8034 57.4828 16.8506 57.539 16.8833C57.5951 16.9161 57.659 16.9334 57.724 16.9334C57.789 16.9334 57.8529 16.9161 57.909 16.8833C57.9652 16.8506 58.0117 16.8034 58.0437 16.7468L63.3688 11.4375C63.4006 11.38 63.4472 11.332 63.5037 11.2986C63.5603 11.2652 63.6247 11.2476 63.6904 11.2476C63.756 11.2476 63.8205 11.2652 63.877 11.2986C63.9336 11.332 63.9801 11.38 64.0119 11.4375L64.9454 12.3801C64.9932 12.4141 65.0321 12.4591 65.059 12.5113C65.0859 12.5635 65.0999 12.6214 65.0999 12.6801C65.0999 12.7389 65.0859 12.7968 65.059 12.849C65.0321 12.9012 64.9932 12.9462 64.9454 12.9802L58.0143 19.9132C57.9799 19.9568 57.9361 19.9921 57.8861 20.0164C57.8362 20.0407 57.7814 20.0533 57.7258 20.0533C57.6703 20.0533 57.6155 20.0407 57.5655 20.0164C57.5156 19.9921 57.4718 19.9568 57.4374 19.9132C56.1364 18.5681 54.8367 17.218 53.5382 15.8631C53.4866 15.7988 53.4411 15.7297 53.4022 15.6569V15.4839Z" fill="#1E1E1E"/>
<path id="Vector_45" d="M57.7277 20.2372C57.648 20.2346 57.5696 20.2157 57.4975 20.1815C57.4255 20.1473 57.3612 20.0985 57.3087 20.0383L53.4095 15.9883C53.3638 15.9332 53.3232 15.8741 53.2883 15.8116L53.2515 15.7527C53.2324 15.723 53.2222 15.6885 53.2221 15.6533V15.4692C53.2215 15.4257 53.2373 15.3837 53.2662 15.3513L53.336 15.2667C53.3911 15.1949 53.4513 15.1272 53.5161 15.0642C53.7256 14.869 53.9424 14.6739 54.1556 14.4824L54.4091 14.2578C54.4625 14.1953 54.529 14.1455 54.604 14.112C54.679 14.0785 54.7605 14.0623 54.8425 14.0644C54.9246 14.0665 55.0052 14.0869 55.0783 14.1242C55.1515 14.1615 55.2154 14.2147 55.2654 14.2799L57.5366 16.5995C57.5869 16.6598 57.6551 16.7024 57.7313 16.721C57.7945 16.7092 57.8531 16.6799 57.9004 16.6363L63.2218 11.3271C63.2788 11.2606 63.3484 11.2061 63.4267 11.1669C63.5049 11.1277 63.5902 11.1046 63.6775 11.0988C63.8516 11.1141 64.0126 11.1974 64.1258 11.3307L65.0593 12.2733C65.1219 12.3258 65.1722 12.3915 65.2067 12.4656C65.2412 12.5397 65.2591 12.6205 65.2591 12.7022C65.2591 12.784 65.2412 12.8648 65.2067 12.9389C65.1722 13.013 65.1219 13.0786 65.0593 13.1312L58.1429 20.0457C58.0903 20.1041 58.0263 20.1512 57.9549 20.1841C57.8835 20.217 57.8062 20.2351 57.7277 20.2372ZM53.5859 15.6164V15.6422C53.6061 15.6786 53.6295 15.7131 53.6558 15.7453C54.9543 17.0929 56.254 18.4429 57.5549 19.7953C57.5931 19.8436 57.6484 19.8752 57.7093 19.8837C57.7701 19.8745 57.8259 19.8446 57.8673 19.799L64.7984 12.8661C64.9196 12.7446 64.9196 12.6562 64.7984 12.5273L63.8649 11.5885C63.8111 11.5333 63.7459 11.4906 63.6738 11.4633C63.599 11.4826 63.5321 11.5252 63.4827 11.5848L58.1723 16.8793C58.1166 16.9442 58.0486 16.9974 57.9723 17.0359C57.896 17.0745 57.8129 17.0976 57.7277 17.1039C57.6406 17.0976 57.5558 17.0738 57.4781 17.0339C57.4005 16.9941 57.3316 16.939 57.2756 16.8719L55.0045 14.5524C54.8685 14.4125 54.8024 14.4125 54.637 14.5524L54.3871 14.7806C54.1739 14.9721 53.9608 15.1488 53.7513 15.355C53.6985 15.4067 53.6494 15.4621 53.6043 15.5207L53.5749 15.5575L53.5859 15.6164Z" fill="#1E1E1E"/>
<path id="Vector_46" d="M54.4239 58.952L55.4676 56.5403L65.1953 58.2635V60.8076L54.4239 58.952Z" fill="#1E1E1E"/>
<path id="Vector_47" d="M65.1953 60.9917H65.1659L54.3945 59.1508C54.3665 59.1472 54.3398 59.1371 54.3166 59.1211C54.2933 59.1051 54.2743 59.0838 54.261 59.0589C54.2476 59.0341 54.2405 59.0063 54.24 58.9781C54.2396 58.9499 54.2459 58.922 54.2585 58.8967L55.2985 56.4851C55.3146 56.4464 55.3434 56.4143 55.3802 56.3942C55.4169 56.3741 55.4594 56.3672 55.5006 56.3746L65.2284 58.0977C65.2712 58.1056 65.3098 58.1284 65.3374 58.1621C65.365 58.1958 65.3797 58.2382 65.379 58.2818V60.8186C65.3791 60.8454 65.3731 60.8719 65.3617 60.8961C65.3502 60.9203 65.3336 60.9416 65.3129 60.9586C65.2782 60.982 65.237 60.9936 65.1953 60.9917ZM54.6884 58.812L65.0115 60.5867V58.4144L55.5815 56.7465L54.6884 58.812Z" fill="#1E1E1E"/>
<path id="Vector_48" d="M34.3804 50.1081C34.2341 50.1016 34.0942 50.0458 33.9835 49.9498C32.2416 48.6022 29.2391 36.7319 29.4118 35.3586C29.6029 33.849 32.0762 31.7982 32.1828 31.7098C32.2223 31.6782 32.2727 31.6635 32.323 31.669C32.3733 31.6745 32.4193 31.6998 32.451 31.7393C32.4668 31.7584 32.4786 31.7804 32.4859 31.804C32.4931 31.8277 32.4956 31.8526 32.4932 31.8772C32.4908 31.9018 32.4836 31.9258 32.4719 31.9476C32.4603 31.9694 32.4444 31.9887 32.4253 32.0044C32.3996 32.0265 29.9594 34.0478 29.7903 35.4064C29.625 36.7061 32.598 48.396 34.2003 49.6516C34.2849 49.7142 34.351 49.7399 34.4025 49.7215C35.8725 49.1251 39.8635 43.5544 39.915 43.4992C39.9444 43.4585 39.9887 43.431 40.0382 43.4227C40.0877 43.4145 40.1385 43.4261 40.1796 43.455C40.2001 43.4693 40.2175 43.4876 40.2309 43.5087C40.2442 43.5299 40.2532 43.5535 40.2573 43.5782C40.2615 43.6029 40.2606 43.6282 40.2548 43.6526C40.249 43.6769 40.2384 43.6999 40.2237 43.7201C40.0583 43.952 36.1371 49.438 34.5531 50.0713C34.4988 50.0957 34.4399 50.1083 34.3804 50.1081Z" fill="#1E1E1E"/>
<path id="Vector_49" d="M51.6051 47.9837H51.5353C50.3078 47.8475 48.305 43.7127 48.0808 43.2451C48.0595 43.1992 48.0572 43.1467 48.0744 43.0991C48.0916 43.0515 48.1269 43.0126 48.1727 42.9911C48.2175 42.9696 48.269 42.9668 48.3159 42.9834C48.3627 43 48.4011 43.0345 48.4226 43.0794C49.2348 44.7841 50.8076 47.5198 51.5757 47.6044C51.6169 47.61 51.6588 47.6032 51.6961 47.5848C51.7334 47.5665 51.7644 47.5374 51.7852 47.5014C52.7186 46.3048 53.9902 39.589 53.1009 36.2827C53.0873 36.2339 53.0936 36.1817 53.1184 36.1375C53.1432 36.0933 53.1845 36.0608 53.2332 36.0471C53.2573 36.0405 53.2825 36.0387 53.3073 36.042C53.3321 36.0453 53.356 36.0536 53.3776 36.0663C53.3992 36.079 53.418 36.0959 53.433 36.116C53.4479 36.1361 53.4587 36.159 53.4647 36.1833C54.3981 39.6516 53.0788 46.4594 52.0865 47.737C52.0314 47.8133 51.9591 47.8754 51.8754 47.9183C51.7917 47.9611 51.6991 47.9836 51.6051 47.9837Z" fill="#1E1E1E"/>
</g>
</svg>
